<?xml version="1.0" encoding="UTF-8" standalone="no"?><svg xmlns="http://www.w3.org/2000/svg" xmlns:xlink="http://www.w3.org/1999/xlink" contentStyleType="text/css" height="679px" preserveAspectRatio="none" style="width:385px;height:679px;background:#FFFFFF;" version="1.1" viewBox="0 0 385 679" width="385px" zoomAndPan="magnify"><defs/><g><rect fill="none" height="29.0679" id="_title" style="stroke:none;stroke-width:1.0;" width="145" x="113" y="5"/><text fill="#000000" font-family="sans-serif" font-size="14" font-weight="bold" lengthAdjust="spacing" textLength="135" x="118" y="24.9659">Diagrama de Clases</text><!--MD5=[8c9a2db8979f76c501b24932f858839e]
class ASCENSOR--><g id="elem_ASCENSOR"><rect codeLine="10" fill="#F1F1F1" height="97.2038" id="ASCENSOR" rx="2.5" ry="2.5" style="stroke:#181818;stroke-width:0.5;" width="105" x="178.5" y="575.6779"/><ellipse cx="193.5" cy="591.6779" fill="#ADD1B2" rx="11" ry="11" style="stroke:#181818;stroke-width:1.0;"/><path d="M192.9688,598.5998 Q191.2188,598.5998 190.0781,597.8654 Q188.9531,597.1154 188.3906,595.7717 Q187.8438,594.4123 187.8438,592.6154 Q187.8438,590.5842 188.5,589.131 Q189.1563,587.6779 190.4375,586.8967 Q191.7188,586.1154 193.5938,586.1154 Q194.4844,586.1154 195.1563,586.3029 Q195.8281,586.4748 196.5156,586.8185 L195.7031,588.8342 Q195.0781,588.5217 194.5313,588.3967 Q194,588.2717 193.5156,588.2717 Q192.3438,588.2717 191.6406,588.8029 Q190.9375,589.3342 190.6406,590.2873 Q190.3438,591.2404 190.3438,592.506 Q190.3438,594.5217 191.0625,595.4904 Q191.7813,596.4435 193.375,596.4435 Q193.9688,596.4435 194.5938,596.2873 Q195.2188,596.131 196.0469,595.756 L196.0469,597.9748 Q195.3125,598.2873 194.5156,598.4435 Q193.7344,598.5998 192.9688,598.5998 Z " fill="#000000"/><text fill="#000000" font-family="sans-serif" font-size="14" lengthAdjust="spacing" textLength="73" x="207.5" y="597.1099">ASCENSOR</text><line style="stroke:#181818;stroke-width:0.5;" x1="179.5" x2="282.5" y1="607.6779" y2="607.6779"/><text fill="#000000" font-family="sans-serif" font-size="14" lengthAdjust="spacing" textLength="15" x="184.5" y="626.6439">ID</text><text fill="#000000" font-family="sans-serif" font-size="14" lengthAdjust="spacing" textLength="71" x="184.5" y="645.7118">Capacidad</text><text fill="#000000" font-family="sans-serif" font-size="14" lengthAdjust="spacing" textLength="46" x="184.5" y="664.7797">Acceso</text></g><!--MD5=[9fb774ed7ae05b667c8401cd383f5fbb]
class USUARIO--><g id="elem_USUARIO"><rect codeLine="17" fill="#F1F1F1" height="78.1358" id="USUARIO" rx="2.5" ry="2.5" style="stroke:#181818;stroke-width:0.5;" width="94" x="184" y="261.3979"/><ellipse cx="199" cy="277.3979" fill="#ADD1B2" rx="11" ry="11" style="stroke:#181818;stroke-width:1.0;"/><path d="M198.4688,284.3198 Q196.7188,284.3198 195.5781,283.5854 Q194.4531,282.8354 193.8906,281.4917 Q193.3438,280.1323 193.3438,278.3354 Q193.3438,276.3042 194,274.851 Q194.6563,273.3979 195.9375,272.6167 Q197.2188,271.8354 199.0938,271.8354 Q199.9844,271.8354 200.6563,272.0229 Q201.3281,272.1948 202.0156,272.5385 L201.2031,274.5542 Q200.5781,274.2417 200.0313,274.1167 Q199.5,273.9917 199.0156,273.9917 Q197.8438,273.9917 197.1406,274.5229 Q196.4375,275.0542 196.1406,276.0073 Q195.8438,276.9604 195.8438,278.226 Q195.8438,280.2417 196.5625,281.2104 Q197.2813,282.1635 198.875,282.1635 Q199.4688,282.1635 200.0938,282.0073 Q200.7188,281.851 201.5469,281.476 L201.5469,283.6948 Q200.8125,284.0073 200.0156,284.1635 Q199.2344,284.3198 198.4688,284.3198 Z " fill="#000000"/><text fill="#000000" font-family="sans-serif" font-size="14" lengthAdjust="spacing" textLength="62" x="213" y="282.8299">USUARIO</text><line style="stroke:#181818;stroke-width:0.5;" x1="185" x2="277" y1="293.3979" y2="293.3979"/><text fill="#000000" font-family="sans-serif" font-size="14" lengthAdjust="spacing" textLength="47" x="190" y="312.3639">Origen</text><text fill="#000000" font-family="sans-serif" font-size="14" lengthAdjust="spacing" textLength="51" x="190" y="331.4318">Destino</text></g><!--MD5=[1c3b580ea3dfb06c1c32c5ff916d0fae]
class CUADRO DE MANDO--><g id="elem_CUADRO DE MANDO"><rect codeLine="23" fill="#F1F1F1" height="59.0679" id="CUADRO DE MANDO" rx="2.5" ry="2.5" style="stroke:#181818;stroke-width:0.5;" width="170" x="146" y="437.6079"/><ellipse cx="161" cy="453.6079" fill="#ADD1B2" rx="11" ry="11" style="stroke:#181818;stroke-width:1.0;"/><path d="M160.4688,460.5298 Q158.7188,460.5298 157.5781,459.7954 Q156.4531,459.0454 155.8906,457.7017 Q155.3438,456.3423 155.3438,454.5454 Q155.3438,452.5142 156,451.061 Q156.6563,449.6079 157.9375,448.8267 Q159.2188,448.0454 161.0938,448.0454 Q161.9844,448.0454 162.6563,448.2329 Q163.3281,448.4048 164.0156,448.7485 L163.2031,450.7642 Q162.5781,450.4517 162.0313,450.3267 Q161.5,450.2017 161.0156,450.2017 Q159.8438,450.2017 159.1406,450.7329 Q158.4375,451.2642 158.1406,452.2173 Q157.8438,453.1704 157.8438,454.436 Q157.8438,456.4517 158.5625,457.4204 Q159.2813,458.3735 160.875,458.3735 Q161.4688,458.3735 162.0938,458.2173 Q162.7188,458.061 163.5469,457.686 L163.5469,459.9048 Q162.8125,460.2173 162.0156,460.3735 Q161.2344,460.5298 160.4688,460.5298 Z " fill="#000000"/><text fill="#000000" font-family="sans-serif" font-size="14" lengthAdjust="spacing" textLength="138" x="175" y="459.0399">CUADRO DE MANDO</text><line style="stroke:#181818;stroke-width:0.5;" x1="147" x2="315" y1="469.6079" y2="469.6079"/><text fill="#000000" font-family="sans-serif" font-size="14" lengthAdjust="spacing" textLength="73" x="152" y="488.5739">Solicitudes</text></g><!--MD5=[e9656941bdc1406c09b5d558323b2820]
class PLANTA--><g id="elem_PLANTA"><rect codeLine="28" fill="#F1F1F1" height="116.2717" id="PLANTA" rx="2.5" ry="2.5" style="stroke:#181818;stroke-width:0.5;" width="84" x="11" y="242.3379"/><ellipse cx="26" cy="258.3379" fill="#ADD1B2" rx="11" ry="11" style="stroke:#181818;stroke-width:1.0;"/><path d="M25.4688,265.2598 Q23.7188,265.2598 22.5781,264.5254 Q21.4531,263.7754 20.8906,262.4317 Q20.3438,261.0723 20.3438,259.2754 Q20.3438,257.2442 21,255.791 Q21.6563,254.3379 22.9375,253.5567 Q24.2188,252.7754 26.0938,252.7754 Q26.9844,252.7754 27.6563,252.9629 Q28.3281,253.1348 29.0156,253.4785 L28.2031,255.4942 Q27.5781,255.1817 27.0313,255.0567 Q26.5,254.9317 26.0156,254.9317 Q24.8438,254.9317 24.1406,255.4629 Q23.4375,255.9942 23.1406,256.9473 Q22.8438,257.9004 22.8438,259.166 Q22.8438,261.1817 23.5625,262.1504 Q24.2813,263.1035 25.875,263.1035 Q26.4688,263.1035 27.0938,262.9473 Q27.7188,262.791 28.5469,262.416 L28.5469,264.6348 Q27.8125,264.9473 27.0156,265.1035 Q26.2344,265.2598 25.4688,265.2598 Z " fill="#000000"/><text fill="#000000" font-family="sans-serif" font-size="14" lengthAdjust="spacing" textLength="52" x="40" y="263.7699">PLANTA</text><line style="stroke:#181818;stroke-width:0.5;" x1="12" x2="94" y1="274.3379" y2="274.3379"/><text fill="#000000" font-family="sans-serif" font-size="14" lengthAdjust="spacing" textLength="15" x="17" y="293.3039">ID</text><text fill="#000000" font-family="sans-serif" font-size="14" lengthAdjust="spacing" textLength="61" x="17" y="312.3718">Personas</text><text fill="#000000" font-family="sans-serif" font-size="14" lengthAdjust="spacing" textLength="71" x="17" y="331.4397">Capacidad</text><text fill="#000000" font-family="sans-serif" font-size="14" lengthAdjust="spacing" textLength="46" x="17" y="350.5076">Acceso</text></g><!--MD5=[ec927a89e342e7a42e4934ca5be2fc30]
class EDIFICIO--><g id="elem_EDIFICIO"><rect codeLine="36" fill="#F1F1F1" height="116.2717" id="EDIFICIO" rx="2.5" ry="2.5" style="stroke:#181818;stroke-width:0.5;" width="92" x="7" y="47.0679"/><ellipse cx="22" cy="63.0679" fill="#ADD1B2" rx="11" ry="11" style="stroke:#181818;stroke-width:1.0;"/><path d="M21.4688,69.9898 Q19.7188,69.9898 18.5781,69.2554 Q17.4531,68.5054 16.8906,67.1617 Q16.3438,65.8023 16.3438,64.0054 Q16.3438,61.9742 17,60.521 Q17.6563,59.0679 18.9375,58.2867 Q20.2188,57.5054 22.0938,57.5054 Q22.9844,57.5054 23.6563,57.6929 Q24.3281,57.8648 25.0156,58.2085 L24.2031,60.2242 Q23.5781,59.9117 23.0313,59.7867 Q22.5,59.6617 22.0156,59.6617 Q20.8438,59.6617 20.1406,60.1929 Q19.4375,60.7242 19.1406,61.6773 Q18.8438,62.6304 18.8438,63.896 Q18.8438,65.9117 19.5625,66.8804 Q20.2813,67.8335 21.875,67.8335 Q22.4688,67.8335 23.0938,67.6773 Q23.7188,67.521 24.5469,67.146 L24.5469,69.3648 Q23.8125,69.6773 23.0156,69.8335 Q22.2344,69.9898 21.4688,69.9898 Z " fill="#000000"/><text fill="#000000" font-family="sans-serif" font-size="14" lengthAdjust="spacing" textLength="60" x="36" y="68.4999">EDIFICIO</text><line style="stroke:#181818;stroke-width:0.5;" x1="8" x2="98" y1="79.0679" y2="79.0679"/><text fill="#000000" font-family="sans-serif" font-size="14" lengthAdjust="spacing" textLength="49" x="13" y="98.0339">Plantas</text><text fill="#000000" font-family="sans-serif" font-size="14" lengthAdjust="spacing" textLength="76" x="13" y="117.1018">Ascensores</text><text fill="#000000" font-family="sans-serif" font-size="14" lengthAdjust="spacing" textLength="71" x="13" y="136.1697">Capacidad</text><text fill="#000000" font-family="sans-serif" font-size="14" lengthAdjust="spacing" textLength="46" x="13" y="155.2376">Acceso</text></g><!--MD5=[68f104ed62e79ac2543e59c27abb811e]
link CUADRO DE MANDO to ASCENSOR--><g id="link_CUADRO DE MANDO_ASCENSOR"><path codeLine="45" d="M231,496.9579 C231,517.1479 231,544.7479 231,568.9979 " fill="none" id="CUADRO DE MANDO-to-ASCENSOR" style="stroke:#181818;stroke-width:1.0;"/><polygon fill="#181818" points="231,573.8979,235,564.8979,231,568.8979,227,564.8979,231,573.8979" style="stroke:#181818;stroke-width:1.0;"/><text fill="#000000" font-family="sans-serif" font-size="13" lengthAdjust="spacing" textLength="55" x="232" y="541.5749">Gobierna</text></g><!--MD5=[e2758cd165250be96e0f591be8fb5601]
link USUARIO to ASCENSOR--><g id="link_USUARIO_ASCENSOR"><path codeLine="46" d="M270.68,340.0279 C293.74,365.3179 320.63,400.4779 333,437.6079 C341.3,462.5179 341.34,471.7779 333,496.6779 C323.83,524.0479 305.71,549.7479 287.25,570.7479 " fill="none" id="USUARIO-to-ASCENSOR" style="stroke:#181818;stroke-width:1.0;"/><polygon fill="#181818" points="284.07,574.3079,293.0476,570.2579,287.3998,570.578,287.0797,564.9302,284.07,574.3079" style="stroke:#181818;stroke-width:1.0;"/><text fill="#000000" font-family="sans-serif" font-size="13" lengthAdjust="spacing" textLength="37" x="340" y="472.5349">Utiliza</text></g><!--MD5=[c91fdc1d9e375d4d6b6859cf3a87ea20]
link USUARIO to CUADRO DE MANDO--><g id="link_USUARIO_CUADRO DE MANDO"><path codeLine="47" d="M231,339.6579 C231,367.1979 231,404.0779 231,430.8979 " fill="none" id="USUARIO-to-CUADRO DE MANDO" style="stroke:#181818;stroke-width:1.0;"/><polygon fill="#181818" points="231,435.6379,235,426.6379,231,430.6379,227,426.6379,231,435.6379" style="stroke:#181818;stroke-width:1.0;"/><text fill="#000000" font-family="sans-serif" font-size="13" lengthAdjust="spacing" textLength="55" x="232" y="403.5049">Solicita al</text></g><!--MD5=[5607f84eab8ab736c964a70752f946d9]
link EDIFICIO to PLANTA--><g id="link_EDIFICIO_PLANTA"><path codeLine="48" d="M53,163.6679 C53,186.2379 53,212.2579 53,235.4379 " fill="none" id="EDIFICIO-to-PLANTA" style="stroke:#181818;stroke-width:1.0;"/><polygon fill="#181818" points="53,240.3779,57,231.3779,53,235.3779,49,231.3779,53,240.3779" style="stroke:#181818;stroke-width:1.0;"/><text fill="#000000" font-family="sans-serif" font-size="13" lengthAdjust="spacing" textLength="32" x="54" y="208.2349">Tiene</text></g><!--MD5=[7dde6be58f87350eb4c68624ce54a75d]
link PLANTA to ASCENSOR--><g id="link_PLANTA_ASCENSOR"><path codeLine="49" d="M38.75,359.0179 C31.8,399.7479 29.06,454.4179 51,496.6779 C76.39,545.5779 130.3,579.5579 172.54,599.9079 " fill="none" id="PLANTA-to-ASCENSOR" style="stroke:#181818;stroke-width:1.0;"/><polygon fill="#181818" points="177.05,602.0479,170.6155,594.5916,172.5275,599.9155,167.2036,601.8275,177.05,602.0479" style="stroke:#181818;stroke-width:1.0;"/><text fill="#000000" font-family="sans-serif" font-size="13" lengthAdjust="spacing" textLength="76" x="52" y="472.5349">Tiene Acceso</text></g><!--MD5=[9be1e88c40b5cc80ca97ae9d1cde25b9]
link PLANTA to USUARIO--><g id="link_PLANTA_USUARIO"><path codeLine="50" d="M95.18,300.4679 C119.83,300.4679 151.18,300.4679 177.55,300.4679 " fill="none" id="PLANTA-to-USUARIO" style="stroke:#181818;stroke-width:1.0;"/><polygon fill="#181818" points="182.28,300.4679,173.28,296.4679,177.28,300.4679,173.28,304.4679,182.28,300.4679" style="stroke:#181818;stroke-width:1.0;"/><text fill="#000000" font-family="sans-serif" font-size="13" lengthAdjust="spacing" textLength="32" x="123.5" y="293.3649">Tiene</text></g><!--MD5=[185f7cbbe10c0f815abb2e112751759a]
@startuml Diagrama_de_Clases

title Diagrama de Clases

skinparam {
    NoteBackgroundColor #whiteSmoke
}

hide empty members

class ASCENSOR 
{
    ID
    Capacidad
    Acceso
}

class USUARIO 
{
    Origen
    Destino
}

class "CUADRO DE MANDO"
{
    Solicitudes
}

class PLANTA 
{
    ID
    Personas
    Capacidad
    Acceso
}

class EDIFICIO 
{
    Plantas
    Ascensores
    Capacidad
    Acceso
}


"CUADRO DE MANDO" - -> ASCENSOR : Gobierna
USUARIO -> ASCENSOR : Utiliza
USUARIO - -> "CUADRO DE MANDO" : Solicita al
EDIFICIO - -> PLANTA : Tiene
PLANTA -> ASCENSOR : Tiene Acceso
PLANTA -> USUARIO : Tiene
@enduml

PlantUML version 1.2022.7(Mon Aug 22 19:01:30 CEST 2022)
(GPL source distribution)
Java Runtime: OpenJDK Runtime Environment
JVM: OpenJDK 64-Bit Server VM
Default Encoding: UTF-8
Language: es
Country: ES
--></g></svg>