<?xml version="1.0" encoding="us-ascii" standalone="no"?><svg xmlns="http://www.w3.org/2000/svg" xmlns:xlink="http://www.w3.org/1999/xlink" contentStyleType="text/css" height="451px" preserveAspectRatio="none" style="width:946px;height:451px;background:#FFFFFF;" version="1.1" viewBox="0 0 946 451" width="946px" zoomAndPan="magnify"><defs/><g><text fill="#000000" font-family="sans-serif" font-size="14" font-weight="bold" lengthAdjust="spacing" textLength="308" x="312" y="24.9659">Diagrama de Arquitectura(Vistas Relaciones)</text><!--cluster Controllers--><g id="cluster_Controllers"><path d="M429.5,46.6699 L507.5,46.6699 A3.75,3.75 0 0 1 510,49.1699 L517,71.7378 L560.5,71.7378 A2.5,2.5 0 0 1 563,74.2378 L563,130.1699 A2.5,2.5 0 0 1 560.5,132.6699 L429.5,132.6699 A2.5,2.5 0 0 1 427,130.1699 L427,49.1699 A2.5,2.5 0 0 1 429.5,46.6699 " fill="none" style="stroke:#000000;stroke-width:1.5;"/><line style="stroke:#000000;stroke-width:1.5;" x1="427" x2="517" y1="71.7378" y2="71.7378"/><text fill="#000000" font-family="sans-serif" font-size="14" font-weight="bold" lengthAdjust="spacing" textLength="77" x="431" y="63.6358">Controllers</text></g><!--cluster Models--><g id="cluster_Models"><path d="M331.5,358.6699 L382.5,358.6699 A3.75,3.75 0 0 1 385,361.1699 L392,383.7378 L936.5,383.7378 A2.5,2.5 0 0 1 939,386.2378 L939,442.1699 A2.5,2.5 0 0 1 936.5,444.6699 L331.5,444.6699 A2.5,2.5 0 0 1 329,442.1699 L329,361.1699 A2.5,2.5 0 0 1 331.5,358.6699 " fill="none" style="stroke:#000000;stroke-width:1.5;"/><line style="stroke:#000000;stroke-width:1.5;" x1="329" x2="392" y1="383.7378" y2="383.7378"/><text fill="#000000" font-family="sans-serif" font-size="14" font-weight="bold" lengthAdjust="spacing" textLength="50" x="333" y="375.6358">Models</text></g><!--cluster Views--><g id="cluster_Views"><path d="M8.5,156.6699 L49.5,156.6699 A3.75,3.75 0 0 1 52,159.1699 L59,181.7378 L839.5,181.7378 A2.5,2.5 0 0 1 842,184.2378 L842,332.1699 A2.5,2.5 0 0 1 839.5,334.6699 L8.5,334.6699 A2.5,2.5 0 0 1 6,332.1699 L6,159.1699 A2.5,2.5 0 0 1 8.5,156.6699 " fill="none" style="stroke:#000000;stroke-width:1.5;"/><line style="stroke:#000000;stroke-width:1.5;" x1="6" x2="59" y1="181.7378" y2="181.7378"/><text fill="#000000" font-family="sans-serif" font-size="14" font-weight="bold" lengthAdjust="spacing" textLength="40" x="10" y="173.6358">Views</text></g><!--class Simulation--><g id="elem_Simulation"><rect codeLine="12" fill="#F1F1F1" height="32" id="Simulation" rx="2.5" ry="2.5" style="stroke:#181818;stroke-width:0.5;" width="104" x="443" y="84.6699"/><ellipse cx="458" cy="100.6699" fill="#ADD1B2" rx="11" ry="11" style="stroke:#181818;stroke-width:1.0;"/><path d="M457.4688,107.5918 Q455.7188,107.5918 454.5781,106.8574 Q453.4531,106.1074 452.8906,104.7636 Q452.3438,103.4043 452.3438,101.6074 Q452.3438,99.5761 453,98.123 Q453.6563,96.6699 454.9375,95.8886 Q456.2188,95.1074 458.0938,95.1074 Q458.9844,95.1074 459.6563,95.2949 Q460.3281,95.4668 461.0156,95.8105 L460.2031,97.8261 Q459.5781,97.5136 459.0313,97.3886 Q458.5,97.2636 458.0156,97.2636 Q456.8438,97.2636 456.1406,97.7949 Q455.4375,98.3261 455.1406,99.2793 Q454.8438,100.2324 454.8438,101.498 Q454.8438,103.5136 455.5625,104.4824 Q456.2813,105.4355 457.875,105.4355 Q458.4688,105.4355 459.0938,105.2793 Q459.7188,105.123 460.5469,104.748 L460.5469,106.9668 Q459.8125,107.2793 459.0156,107.4355 Q458.2344,107.5918 457.4688,107.5918 Z " fill="#000000"/><text fill="#000000" font-family="sans-serif" font-size="14" lengthAdjust="spacing" textLength="72" x="472" y="106.1019">Simulation</text></g><!--class Building--><g id="elem_Building"><rect codeLine="17" fill="#F1F1F1" height="32" id="Building" rx="2.5" ry="2.5" style="stroke:#181818;stroke-width:0.5;" width="89" x="834.5" y="396.6699"/><ellipse cx="849.5" cy="412.6699" fill="#ADD1B2" rx="11" ry="11" style="stroke:#181818;stroke-width:1.0;"/><path d="M848.9688,419.5918 Q847.2188,419.5918 846.0781,418.8574 Q844.9531,418.1074 844.3906,416.7636 Q843.8438,415.4043 843.8438,413.6074 Q843.8438,411.5761 844.5,410.123 Q845.1563,408.6699 846.4375,407.8886 Q847.7188,407.1074 849.5938,407.1074 Q850.4844,407.1074 851.1563,407.2949 Q851.8281,407.4668 852.5156,407.8105 L851.7031,409.8261 Q851.0781,409.5136 850.5313,409.3886 Q850,409.2636 849.5156,409.2636 Q848.3438,409.2636 847.6406,409.7949 Q846.9375,410.3261 846.6406,411.2793 Q846.3438,412.2324 846.3438,413.498 Q846.3438,415.5136 847.0625,416.4824 Q847.7813,417.4355 849.375,417.4355 Q849.9688,417.4355 850.5938,417.2793 Q851.2188,417.123 852.0469,416.748 L852.0469,418.9668 Q851.3125,419.2793 850.5156,419.4355 Q849.7344,419.5918 848.9688,419.5918 Z " fill="#000000"/><text fill="#000000" font-family="sans-serif" font-size="14" lengthAdjust="spacing" textLength="57" x="863.5" y="418.1019">Building</text></g><!--class Elevator--><g id="elem_Elevator"><rect codeLine="20" fill="#F1F1F1" height="32" id="Elevator" rx="2.5" ry="2.5" style="stroke:#181818;stroke-width:0.5;" width="86" x="558" y="396.6699"/><ellipse cx="573" cy="412.6699" fill="#ADD1B2" rx="11" ry="11" style="stroke:#181818;stroke-width:1.0;"/><path d="M572.4688,419.5918 Q570.7188,419.5918 569.5781,418.8574 Q568.4531,418.1074 567.8906,416.7636 Q567.3438,415.4043 567.3438,413.6074 Q567.3438,411.5761 568,410.123 Q568.6563,408.6699 569.9375,407.8886 Q571.2188,407.1074 573.0938,407.1074 Q573.9844,407.1074 574.6563,407.2949 Q575.3281,407.4668 576.0156,407.8105 L575.2031,409.8261 Q574.5781,409.5136 574.0313,409.3886 Q573.5,409.2636 573.0156,409.2636 Q571.8438,409.2636 571.1406,409.7949 Q570.4375,410.3261 570.1406,411.2793 Q569.8438,412.2324 569.8438,413.498 Q569.8438,415.5136 570.5625,416.4824 Q571.2813,417.4355 572.875,417.4355 Q573.4688,417.4355 574.0938,417.2793 Q574.7188,417.123 575.5469,416.748 L575.5469,418.9668 Q574.8125,419.2793 574.0156,419.4355 Q573.2344,419.5918 572.4688,419.5918 Z " fill="#000000"/><text fill="#000000" font-family="sans-serif" font-size="14" lengthAdjust="spacing" textLength="54" x="587" y="418.1019">Elevator</text></g><!--class Floor--><g id="elem_Floor"><rect codeLine="23" fill="#F1F1F1" height="32" id="Floor" rx="2.5" ry="2.5" style="stroke:#181818;stroke-width:0.5;" width="65" x="345.5" y="396.6699"/><ellipse cx="360.5" cy="412.6699" fill="#ADD1B2" rx="11" ry="11" style="stroke:#181818;stroke-width:1.0;"/><path d="M359.9688,419.5918 Q358.2188,419.5918 357.0781,418.8574 Q355.9531,418.1074 355.3906,416.7636 Q354.8438,415.4043 354.8438,413.6074 Q354.8438,411.5761 355.5,410.123 Q356.1563,408.6699 357.4375,407.8886 Q358.7188,407.1074 360.5938,407.1074 Q361.4844,407.1074 362.1563,407.2949 Q362.8281,407.4668 363.5156,407.8105 L362.7031,409.8261 Q362.0781,409.5136 361.5313,409.3886 Q361,409.2636 360.5156,409.2636 Q359.3438,409.2636 358.6406,409.7949 Q357.9375,410.3261 357.6406,411.2793 Q357.3438,412.2324 357.3438,413.498 Q357.3438,415.5136 358.0625,416.4824 Q358.7813,417.4355 360.375,417.4355 Q360.9688,417.4355 361.5938,417.2793 Q362.2188,417.123 363.0469,416.748 L363.0469,418.9668 Q362.3125,419.2793 361.5156,419.4355 Q360.7344,419.5918 359.9688,419.5918 Z " fill="#000000"/><text fill="#000000" font-family="sans-serif" font-size="14" lengthAdjust="spacing" textLength="33" x="374.5" y="418.1019">Floor</text></g><!--class FloorRequest--><g id="elem_FloorRequest"><rect codeLine="26" fill="#F1F1F1" height="32" id="FloorRequest" rx="2.5" ry="2.5" style="stroke:#181818;stroke-width:0.5;" width="120" x="679" y="396.6699"/><ellipse cx="694" cy="412.6699" fill="#ADD1B2" rx="11" ry="11" style="stroke:#181818;stroke-width:1.0;"/><path d="M693.4688,419.5918 Q691.7188,419.5918 690.5781,418.8574 Q689.4531,418.1074 688.8906,416.7636 Q688.3438,415.4043 688.3438,413.6074 Q688.3438,411.5761 689,410.123 Q689.6563,408.6699 690.9375,407.8886 Q692.2188,407.1074 694.0938,407.1074 Q694.9844,407.1074 695.6563,407.2949 Q696.3281,407.4668 697.0156,407.8105 L696.2031,409.8261 Q695.5781,409.5136 695.0313,409.3886 Q694.5,409.2636 694.0156,409.2636 Q692.8438,409.2636 692.1406,409.7949 Q691.4375,410.3261 691.1406,411.2793 Q690.8438,412.2324 690.8438,413.498 Q690.8438,415.5136 691.5625,416.4824 Q692.2813,417.4355 693.875,417.4355 Q694.4688,417.4355 695.0938,417.2793 Q695.7188,417.123 696.5469,416.748 L696.5469,418.9668 Q695.8125,419.2793 695.0156,419.4355 Q694.2344,419.5918 693.4688,419.5918 Z " fill="#000000"/><text fill="#000000" font-family="sans-serif" font-size="14" lengthAdjust="spacing" textLength="88" x="708" y="418.1019">FloorRequest</text></g><!--class Person--><g id="elem_Person"><rect codeLine="29" fill="#F1F1F1" height="32" id="Person" rx="2.5" ry="2.5" style="stroke:#181818;stroke-width:0.5;" width="78" x="445" y="396.6699"/><ellipse cx="460" cy="412.6699" fill="#ADD1B2" rx="11" ry="11" style="stroke:#181818;stroke-width:1.0;"/><path d="M459.4688,419.5918 Q457.7188,419.5918 456.5781,418.8574 Q455.4531,418.1074 454.8906,416.7636 Q454.3438,415.4043 454.3438,413.6074 Q454.3438,411.5761 455,410.123 Q455.6563,408.6699 456.9375,407.8886 Q458.2188,407.1074 460.0938,407.1074 Q460.9844,407.1074 461.6563,407.2949 Q462.3281,407.4668 463.0156,407.8105 L462.2031,409.8261 Q461.5781,409.5136 461.0313,409.3886 Q460.5,409.2636 460.0156,409.2636 Q458.8438,409.2636 458.1406,409.7949 Q457.4375,410.3261 457.1406,411.2793 Q456.8438,412.2324 456.8438,413.498 Q456.8438,415.5136 457.5625,416.4824 Q458.2813,417.4355 459.875,417.4355 Q460.4688,417.4355 461.0938,417.2793 Q461.7188,417.123 462.5469,416.748 L462.5469,418.9668 Q461.8125,419.2793 461.0156,419.4355 Q460.2344,419.5918 459.4688,419.5918 Z " fill="#000000"/><text fill="#000000" font-family="sans-serif" font-size="14" lengthAdjust="spacing" textLength="46" x="474" y="418.1019">Person</text></g><!--class BuildingView--><g id="elem_BuildingView"><rect codeLine="35" fill="#F1F1F1" height="32" id="BuildingView" rx="2.5" ry="2.5" style="stroke:#181818;stroke-width:0.5;" width="120" x="435" y="194.6699"/><ellipse cx="450" cy="210.6699" fill="#ADD1B2" rx="11" ry="11" style="stroke:#181818;stroke-width:1.0;"/><path d="M449.4688,217.5918 Q447.7188,217.5918 446.5781,216.8574 Q445.4531,216.1074 444.8906,214.7636 Q444.3438,213.4043 444.3438,211.6074 Q444.3438,209.5761 445,208.123 Q445.6563,206.6699 446.9375,205.8886 Q448.2188,205.1074 450.0938,205.1074 Q450.9844,205.1074 451.6563,205.2949 Q452.3281,205.4668 453.0156,205.8105 L452.2031,207.8261 Q451.5781,207.5136 451.0313,207.3886 Q450.5,207.2636 450.0156,207.2636 Q448.8438,207.2636 448.1406,207.7949 Q447.4375,208.3261 447.1406,209.2793 Q446.8438,210.2324 446.8438,211.498 Q446.8438,213.5136 447.5625,214.4824 Q448.2813,215.4355 449.875,215.4355 Q450.4688,215.4355 451.0938,215.2793 Q451.7188,215.123 452.5469,214.748 L452.5469,216.9668 Q451.8125,217.2793 451.0156,217.4355 Q450.2344,217.5918 449.4688,217.5918 Z " fill="#000000"/><text fill="#000000" font-family="sans-serif" font-size="14" lengthAdjust="spacing" textLength="88" x="464" y="216.1019">BuildingView</text></g><!--class DebuggerView--><g id="elem_DebuggerView"><rect codeLine="38" fill="#F1F1F1" height="32" id="DebuggerView" rx="2.5" ry="2.5" style="stroke:#181818;stroke-width:0.5;" width="131" x="21.5" y="286.6699"/><ellipse cx="36.5" cy="302.6699" fill="#ADD1B2" rx="11" ry="11" style="stroke:#181818;stroke-width:1.0;"/><path d="M35.9688,309.5918 Q34.2188,309.5918 33.0781,308.8574 Q31.9531,308.1074 31.3906,306.7636 Q30.8438,305.4043 30.8438,303.6074 Q30.8438,301.5761 31.5,300.123 Q32.1563,298.6699 33.4375,297.8886 Q34.7188,297.1074 36.5938,297.1074 Q37.4844,297.1074 38.1563,297.2949 Q38.8281,297.4668 39.5156,297.8105 L38.7031,299.8261 Q38.0781,299.5136 37.5313,299.3886 Q37,299.2636 36.5156,299.2636 Q35.3438,299.2636 34.6406,299.7949 Q33.9375,300.3261 33.6406,301.2793 Q33.3438,302.2324 33.3438,303.498 Q33.3438,305.5136 34.0625,306.4824 Q34.7813,307.4355 36.375,307.4355 Q36.9688,307.4355 37.5938,307.2793 Q38.2188,307.123 39.0469,306.748 L39.0469,308.9668 Q38.3125,309.2793 37.5156,309.4355 Q36.7344,309.5918 35.9688,309.5918 Z " fill="#000000"/><text fill="#000000" font-family="sans-serif" font-size="14" lengthAdjust="spacing" textLength="99" x="50.5" y="308.1019">DebuggerView</text></g><!--class ElevatorView--><g id="elem_ElevatorView"><rect codeLine="41" fill="#F1F1F1" height="32" id="ElevatorView" rx="2.5" ry="2.5" style="stroke:#181818;stroke-width:0.5;" width="117" x="708.5" y="286.6699"/><ellipse cx="723.5" cy="302.6699" fill="#ADD1B2" rx="11" ry="11" style="stroke:#181818;stroke-width:1.0;"/><path d="M722.9688,309.5918 Q721.2188,309.5918 720.0781,308.8574 Q718.9531,308.1074 718.3906,306.7636 Q717.8438,305.4043 717.8438,303.6074 Q717.8438,301.5761 718.5,300.123 Q719.1563,298.6699 720.4375,297.8886 Q721.7188,297.1074 723.5938,297.1074 Q724.4844,297.1074 725.1563,297.2949 Q725.8281,297.4668 726.5156,297.8105 L725.7031,299.8261 Q725.0781,299.5136 724.5313,299.3886 Q724,299.2636 723.5156,299.2636 Q722.3438,299.2636 721.6406,299.7949 Q720.9375,300.3261 720.6406,301.2793 Q720.3438,302.2324 720.3438,303.498 Q720.3438,305.5136 721.0625,306.4824 Q721.7813,307.4355 723.375,307.4355 Q723.9688,307.4355 724.5938,307.2793 Q725.2188,307.123 726.0469,306.748 L726.0469,308.9668 Q725.3125,309.2793 724.5156,309.4355 Q723.7344,309.5918 722.9688,309.5918 Z " fill="#000000"/><text fill="#000000" font-family="sans-serif" font-size="14" lengthAdjust="spacing" textLength="85" x="737.5" y="308.1019">ElevatorView</text></g><!--class WaitingPeopleView--><g id="elem_WaitingPeopleView"><rect codeLine="44" fill="#F1F1F1" height="32" id="WaitingPeopleView" rx="2.5" ry="2.5" style="stroke:#181818;stroke-width:0.5;" width="160" x="318" y="286.6699"/><ellipse cx="333" cy="302.6699" fill="#ADD1B2" rx="11" ry="11" style="stroke:#181818;stroke-width:1.0;"/><path d="M332.4688,309.5918 Q330.7188,309.5918 329.5781,308.8574 Q328.4531,308.1074 327.8906,306.7636 Q327.3438,305.4043 327.3438,303.6074 Q327.3438,301.5761 328,300.123 Q328.6563,298.6699 329.9375,297.8886 Q331.2188,297.1074 333.0938,297.1074 Q333.9844,297.1074 334.6563,297.2949 Q335.3281,297.4668 336.0156,297.8105 L335.2031,299.8261 Q334.5781,299.5136 334.0313,299.3886 Q333.5,299.2636 333.0156,299.2636 Q331.8438,299.2636 331.1406,299.7949 Q330.4375,300.3261 330.1406,301.2793 Q329.8438,302.2324 329.8438,303.498 Q329.8438,305.5136 330.5625,306.4824 Q331.2813,307.4355 332.875,307.4355 Q333.4688,307.4355 334.0938,307.2793 Q334.7188,307.123 335.5469,306.748 L335.5469,308.9668 Q334.8125,309.2793 334.0156,309.4355 Q333.2344,309.5918 332.4688,309.5918 Z " fill="#000000"/><text fill="#000000" font-family="sans-serif" font-size="14" lengthAdjust="spacing" textLength="128" x="347" y="308.1019">WaitingPeopleView</text></g><!--class FloorView--><g id="elem_FloorView"><rect codeLine="47" fill="#F1F1F1" height="32" id="FloorView" rx="2.5" ry="2.5" style="stroke:#181818;stroke-width:0.5;" width="96" x="187" y="286.6699"/><ellipse cx="202" cy="302.6699" fill="#ADD1B2" rx="11" ry="11" style="stroke:#181818;stroke-width:1.0;"/><path d="M201.4688,309.5918 Q199.7188,309.5918 198.5781,308.8574 Q197.4531,308.1074 196.8906,306.7636 Q196.3438,305.4043 196.3438,303.6074 Q196.3438,301.5761 197,300.123 Q197.6563,298.6699 198.9375,297.8886 Q200.2188,297.1074 202.0938,297.1074 Q202.9844,297.1074 203.6563,297.2949 Q204.3281,297.4668 205.0156,297.8105 L204.2031,299.8261 Q203.5781,299.5136 203.0313,299.3886 Q202.5,299.2636 202.0156,299.2636 Q200.8438,299.2636 200.1406,299.7949 Q199.4375,300.3261 199.1406,301.2793 Q198.8438,302.2324 198.8438,303.498 Q198.8438,305.5136 199.5625,306.4824 Q200.2813,307.4355 201.875,307.4355 Q202.4688,307.4355 203.0938,307.2793 Q203.7188,307.123 204.5469,306.748 L204.5469,308.9668 Q203.8125,309.2793 203.0156,309.4355 Q202.2344,309.5918 201.4688,309.5918 Z " fill="#000000"/><text fill="#000000" font-family="sans-serif" font-size="14" lengthAdjust="spacing" textLength="64" x="216" y="308.1019">FloorView</text></g><!--class PeopleOnFloorView--><g id="elem_PeopleOnFloorView"><rect codeLine="50" fill="#F1F1F1" height="32" id="PeopleOnFloorView" rx="2.5" ry="2.5" style="stroke:#181818;stroke-width:0.5;" width="161" x="512.5" y="286.6699"/><ellipse cx="527.5" cy="302.6699" fill="#ADD1B2" rx="11" ry="11" style="stroke:#181818;stroke-width:1.0;"/><path d="M526.9688,309.5918 Q525.2188,309.5918 524.0781,308.8574 Q522.9531,308.1074 522.3906,306.7636 Q521.8438,305.4043 521.8438,303.6074 Q521.8438,301.5761 522.5,300.123 Q523.1563,298.6699 524.4375,297.8886 Q525.7188,297.1074 527.5938,297.1074 Q528.4844,297.1074 529.1563,297.2949 Q529.8281,297.4668 530.5156,297.8105 L529.7031,299.8261 Q529.0781,299.5136 528.5313,299.3886 Q528,299.2636 527.5156,299.2636 Q526.3438,299.2636 525.6406,299.7949 Q524.9375,300.3261 524.6406,301.2793 Q524.3438,302.2324 524.3438,303.498 Q524.3438,305.5136 525.0625,306.4824 Q525.7813,307.4355 527.375,307.4355 Q527.9688,307.4355 528.5938,307.2793 Q529.2188,307.123 530.0469,306.748 L530.0469,308.9668 Q529.3125,309.2793 528.5156,309.4355 Q527.7344,309.5918 526.9688,309.5918 Z " fill="#000000"/><text fill="#000000" font-family="sans-serif" font-size="14" lengthAdjust="spacing" textLength="129" x="541.5" y="308.1019">PeopleOnFloorView</text></g><!--link Simulation to BuildingView--><g id="link_Simulation_BuildingView"><path codeLine="55" d="M495,117.1399 C495,137.6699 495,173.7099 495,194.2299 " fill="none" id="Simulation-BuildingView" style="stroke:#181818;stroke-width:1.0;"/></g><!--reverse link BuildingView to Building--><g id="link_BuildingView_Building"><path codeLine="57" d="M567.413,218.5262 C655.713,227.8962 801.96,248.3299 843,286.6699 C874.19,315.8099 878.95,370.0499 879.3,396.4499 " fill="none" id="BuildingView-backto-Building" style="stroke:#181818;stroke-width:1.0;"/><polygon fill="#181818" points="555.48,217.2599,561.0244,221.8707,567.413,218.5262,561.8686,213.9154,555.48,217.2599" style="stroke:#181818;stroke-width:1.0;"/></g><!--link BuildingView to FloorView--><g id="link_BuildingView_FloorView"><path codeLine="58" d="M450.3,227.1399 C402.54,243.6799 327.26,269.7299 279.55,286.2499 " fill="none" id="BuildingView-FloorView" style="stroke:#181818;stroke-width:1.0;"/></g><!--link BuildingView to ElevatorView--><g id="link_BuildingView_ElevatorView"><path codeLine="59" d="M541.76,227.1399 C591.73,243.6799 670.48,269.7299 720.4,286.2499 " fill="none" id="BuildingView-ElevatorView" style="stroke:#181818;stroke-width:1.0;"/></g><!--link BuildingView to WaitingPeopleView--><g id="link_BuildingView_WaitingPeopleView"><path codeLine="60" d="M478.55,226.9399 C460.71,243.4899 432.4,269.7499 414.54,286.3299 " fill="none" id="BuildingView-WaitingPeopleView" style="stroke:#181818;stroke-width:1.0;"/></g><!--link BuildingView to PeopleOnFloorView--><g id="link_BuildingView_PeopleOnFloorView"><path codeLine="61" d="M511.62,226.9399 C529.65,243.4899 558.24,269.7499 576.29,286.3299 " fill="none" id="BuildingView-PeopleOnFloorView" style="stroke:#181818;stroke-width:1.0;"/></g><!--link BuildingView to DebuggerView--><g id="link_BuildingView_DebuggerView"><path codeLine="62" d="M434.8,224.9499 C359.43,241.5699 230.79,269.9499 152.86,287.1399 " fill="none" id="BuildingView-DebuggerView" style="stroke:#181818;stroke-width:1.0;"/></g><!--reverse link FloorView to Floor--><g id="link_FloorView_Floor"><path codeLine="64" d="M265.0654,326.3726 C292.2454,346.9026 330.38,375.7099 357.55,396.2199 " fill="none" id="FloorView-backto-Floor" style="stroke:#181818;stroke-width:1.0;"/><polygon fill="none" points="255.49,319.1399,257.8668,325.948,265.0654,326.3726,262.6886,319.5644,255.49,319.1399" style="stroke:#181818;stroke-width:1.0;"/></g><!--reverse link ElevatorView to Elevator--><g id="link_ElevatorView_Elevator"><path codeLine="65" d="M730.0357,324.7752 C715.7057,332.6252 708.02,336.1199 691,342.6699 C678.12,347.6299 672.93,343.7299 661,350.6699 C640.97,362.3299 623.07,382.4299 612.15,396.3499 " fill="none" id="ElevatorView-backto-Elevator" style="stroke:#181818;stroke-width:1.0;"/><polygon fill="none" points="740.56,319.0099,733.3761,318.3844,730.0357,324.7752,737.2196,325.4006,740.56,319.0099" style="stroke:#181818;stroke-width:1.0;"/></g><!--reverse link WaitingPeopleView to Person--><g id="link_WaitingPeopleView_Person"><path codeLine="66" d="M417.7957,328.5268 C434.1457,349.0568 455.36,375.7099 471.7,396.2199 " fill="none" id="WaitingPeopleView-backto-Person" style="stroke:#181818;stroke-width:1.0;"/><polygon fill="none" points="410.32,319.1399,410.9289,326.3253,417.7957,328.5268,417.1868,321.3415,410.32,319.1399" style="stroke:#181818;stroke-width:1.0;"/></g><!--reverse link PeopleOnFloorView to Person--><g id="link_PeopleOnFloorView_Person"><path codeLine="67" d="M566.3291,326.9162 C556.0991,335.9362 552.1,339.7499 541,350.6699 C525.71,365.7099 509.04,383.7499 497.71,396.2899 " fill="none" id="PeopleOnFloorView-backto-Person" style="stroke:#181818;stroke-width:1.0;"/><polygon fill="none" points="575.33,318.9799,568.1841,319.9477,566.3291,326.9162,573.475,325.9483,575.33,318.9799" style="stroke:#181818;stroke-width:1.0;"/></g><!--SRC=[VP7DJiD038JlVegLk01I7uAsS8DMhLJERcAbgspMwVvG8THtnqb_s6WJSimt7izuWmw6r59ZvR11LP9wSSUe0nKXEdpSQH_GgmqPB3HRyay0ljQsHP6h7r3oVN2WEHPrvJZQSi66dNeu7SHZst1DS0OuQ36cfWtVgg5cJyu3j3A25Qa5s-3O6FafXhrZOT1xjTLDD1XaxNNHkREwZRrpISPVoMLW7hKfjQtkyeIz6lh28Cb6s9lXVy26Zf5y6EDhoPoaI-FjD9t6qtLap6n9-rXLvARuhS4K_qGTn7vDt1gQ4lMDfk1bT6LpaSWWUOxPRD06OD3jES538k3kdP6qNmQpSfaY2vyfqWC3_9NaMomOd9YJJ90Vb_kTtVj3VhS4_W80]--></g></svg>