<?xml version="1.0" encoding="UTF-8" standalone="no"?><svg xmlns="http://www.w3.org/2000/svg" xmlns:xlink="http://www.w3.org/1999/xlink" contentStyleType="text/css" height="650px" preserveAspectRatio="none" style="width:410px;height:650px;background:#FFFFFF;" version="1.1" viewBox="0 0 410 650" width="410px" zoomAndPan="magnify"><defs/><g><rect fill="none" height="29.0679" id="_title" style="stroke:none;stroke-width:1.0;" width="241" x="74.4698" y="5"/><text fill="#000000" font-family="sans-serif" font-size="14" font-weight="bold" lengthAdjust="spacing" textLength="231" x="79.4698" y="24.9659">Diagrama de Estados de la Planta</text><path d="M19.5,47.0679 L384.4396,47.0679 A12.5,12.5 0 0 1 396.9396,59.5679 L396.9396,76.1358 L7,76.1358 L7,59.5679 A12.5,12.5 0 0 1 19.5,47.0679 " fill="#F1F1F1" style="stroke:#F1F1F1;stroke-width:1.0;"/><rect fill="none" height="597.1358" rx="12.5" ry="12.5" style="stroke:#181818;stroke-width:0.5;" width="389.9396" x="7" y="47.0679"/><line style="stroke:#181818;stroke-width:0.5;" x1="7" x2="396.9396" y1="76.1358" y2="76.1358"/><text fill="#000000" font-family="sans-serif" font-size="14" lengthAdjust="spacing" textLength="42" x="180.9698" y="67.0339">Planta</text><ellipse cx="216.9396" cy="97.1358" fill="#222222" rx="10" ry="10" style="stroke:none;stroke-width:1.0;"/><g id="Planta.NoDisponible"><rect fill="#F1F1F1" height="50" rx="12.5" ry="12.5" style="stroke:#181818;stroke-width:0.5;" width="111" x="100.4396" y="162.1358"/><line style="stroke:#181818;stroke-width:0.5;" x1="100.4396" x2="211.4396" y1="191.2038" y2="191.2038"/><text fill="#000000" font-family="sans-serif" font-size="14" lengthAdjust="spacing" textLength="91" x="110.4396" y="182.1018">NoDisponible</text></g><path d="M31.9396,267.1358 L279.9396,267.1358 A12.5,12.5 0 0 1 292.4396,279.6358 L292.4396,296.2038 L19.4396,296.2038 L19.4396,279.6358 A12.5,12.5 0 0 1 31.9396,267.1358 " fill="#F1F1F1" style="stroke:#F1F1F1;stroke-width:1.0;"/><rect fill="none" height="367.0679" rx="12.5" ry="12.5" style="stroke:#181818;stroke-width:0.5;" width="273" x="19.4396" y="267.1358"/><line style="stroke:#181818;stroke-width:0.5;" x1="19.4396" x2="292.4396" y1="296.2038" y2="296.2038"/><text fill="#000000" font-family="sans-serif" font-size="14" lengthAdjust="spacing" textLength="72" x="119.9396" y="287.1018">Disponible</text><ellipse cx="187.4396" cy="317.2038" fill="#222222" rx="10" ry="10" style="stroke:none;stroke-width:1.0;"/><g id="Planta.Disponible.Libre"><rect fill="#F1F1F1" height="50" rx="12.5" ry="12.5" style="stroke:#181818;stroke-width:0.5;" width="54" x="160.4396" y="364.2038"/><line style="stroke:#181818;stroke-width:0.5;" x1="160.4396" x2="214.4396" y1="393.2717" y2="393.2717"/><text fill="#000000" font-family="sans-serif" font-size="14" lengthAdjust="spacing" textLength="34" x="170.4396" y="384.1697">Libre</text></g><g id="Planta.Disponible.ParcialmenteLleno"><rect fill="#F1F1F1" height="50" rx="12.5" ry="12.5" style="stroke:#181818;stroke-width:0.5;" width="144" x="31.4396" y="469.2038"/><line style="stroke:#181818;stroke-width:0.5;" x1="31.4396" x2="175.4396" y1="498.2717" y2="498.2717"/><text fill="#000000" font-family="sans-serif" font-size="14" lengthAdjust="spacing" textLength="124" x="41.4396" y="489.1697">ParcialmenteLleno</text></g><g id="Planta.Disponible.Lleno"><rect fill="#F1F1F1" height="50" rx="12.5" ry="12.5" style="stroke:#181818;stroke-width:0.5;" width="56" x="159.4396" y="574.2038"/><line style="stroke:#181818;stroke-width:0.5;" x1="159.4396" x2="215.4396" y1="603.2717" y2="603.2717"/><text fill="#000000" font-family="sans-serif" font-size="14" lengthAdjust="spacing" textLength="36" x="169.4396" y="594.1697">Lleno</text></g><!--MD5=[ec03999b1ab23f70c94685d8e878475d]
link *start*Disponible to Libre--><g id="link_*start*Disponible_Libre"><path d="M187.4396,327.6438 C187.4396,335.3838 187.4396,346.7838 187.4396,357.6138 " fill="none" id="*start*Disponible-to-Libre" style="stroke:#181818;stroke-width:1.0;"/><polygon fill="#181818" points="187.4396,362.3738,191.4396,353.3738,187.4396,357.3738,183.4396,353.3738,187.4396,362.3738" style="stroke:#181818;stroke-width:1.0;"/></g><!--MD5=[dfb82591c5398e7816e47da55ec45b97]
link Libre to ParcialmenteLleno--><g id="link_Libre_ParcialmenteLleno"><path d="M160.2696,395.3138 C139.9196,400.7238 113.4596,411.4638 100.4396,432.2038 C94.8396,441.1238 94.0396,452.3138 95.1496,462.6638 " fill="none" id="Libre-to-ParcialmenteLleno" style="stroke:#181818;stroke-width:1.0;"/><polygon fill="#181818" points="95.8496,467.4738,98.4984,457.9878,95.1225,462.5269,90.5834,459.1511,95.8496,467.4738" style="stroke:#181818;stroke-width:1.0;"/><text fill="#000000" font-family="sans-serif" font-size="13" lengthAdjust="spacing" textLength="37" x="101.4396" y="447.1008">Llenar</text></g><!--MD5=[1e31d9be59875d8bcb9ca63eb8aa3d48]
link Libre to Lleno--><g id="link_Libre_Lleno"><path d="M192.8796,414.5238 C193.9396,420.2938 194.8996,426.4438 195.4396,432.2038 C200.6196,487.0738 200.6196,501.3338 195.4396,556.2038 C195.0896,559.8938 194.5696,563.7438 193.9696,567.5538 " fill="none" id="Libre-to-Lleno" style="stroke:#181818;stroke-width:1.0;"/><polygon fill="#181818" points="193.1296,572.3938,198.5894,564.1968,193.9724,567.4653,190.7039,562.8483,193.1296,572.3938" style="stroke:#181818;stroke-width:1.0;"/><text fill="#000000" font-family="sans-serif" font-size="13" lengthAdjust="spacing" textLength="37" x="199.4396" y="499.6008">Llenar</text></g><!--MD5=[50966bc53527de6b5ce5c6beff772c26]
link ParcialmenteLleno to Lleno--><g id="link_ParcialmenteLleno_Lleno"><path d="M96.0696,519.4338 C93.9096,531.3538 93.6796,545.4238 100.4396,556.2038 C111.9996,574.6138 134.1496,585.1438 153.1996,591.0638 " fill="none" id="ParcialmenteLleno-to-Lleno" style="stroke:#181818;stroke-width:1.0;"/><polygon fill="#181818" points="157.5496,592.3238,150.0296,585.9638,152.7496,590.9238,147.7896,593.6438,157.5496,592.3238" style="stroke:#181818;stroke-width:1.0;"/><text fill="#000000" font-family="sans-serif" font-size="13" lengthAdjust="spacing" textLength="37" x="101.4396" y="552.1008">Llenar</text></g><!--MD5=[cbc58cafe1e7a88a37c1d7a18b079d6a]
link Lleno to Libre--><g id="link_Lleno_Libre"><path d="M209.7296,573.9438 C221.6596,559.2738 235.1596,539.5238 241.4396,519.2038 C247.9996,497.9738 247.9996,490.4338 241.4396,469.2038 C235.8496,451.1138 224.5296,433.4638 213.6896,419.4538 " fill="none" id="Lleno-to-Libre" style="stroke:#181818;stroke-width:1.0;"/><polygon fill="#181818" points="210.6696,415.6538,213.1215,425.1925,213.7738,419.5734,219.3929,420.2257,210.6696,415.6538" style="stroke:#181818;stroke-width:1.0;"/><text fill="#000000" font-family="sans-serif" font-size="13" lengthAdjust="spacing" textLength="36" x="246.4396" y="499.6008">Vaciar</text></g><!--MD5=[e31e94b1fd6a41a0b68bd6d4a5d92396]
link Lleno to ParcialmenteLleno--><g id="link_Lleno_ParcialmenteLleno"><path d="M168.7496,573.9738 C159.9596,562.7038 149.2796,549.1838 139.4396,537.2038 C136.0196,533.0438 132.3796,528.6938 128.7596,524.4338 " fill="none" id="Lleno-to-ParcialmenteLleno" style="stroke:#181818;stroke-width:1.0;"/><polygon fill="#181818" points="125.5396,520.6438,128.3217,530.0915,128.7782,524.4531,134.4166,524.9096,125.5396,520.6438" style="stroke:#181818;stroke-width:1.0;"/><text fill="#000000" font-family="sans-serif" font-size="13" lengthAdjust="spacing" textLength="36" x="154.4396" y="552.1008">Vaciar</text></g><!--MD5=[0d4d0709f3659f8973e52831e35bb63b]
link ParcialmenteLleno to Libre--><g id="link_ParcialmenteLleno_Libre"><path d="M124.5496,468.9238 C129.4896,463.1538 134.6896,456.9938 139.4396,451.2038 C147.8896,440.9138 156.9696,429.4738 164.9396,419.3138 " fill="none" id="ParcialmenteLleno-to-Libre" style="stroke:#181818;stroke-width:1.0;"/><polygon fill="#181818" points="167.8196,415.6238,159.1332,420.2656,164.7469,419.5682,165.4443,425.1819,167.8196,415.6238" style="stroke:#181818;stroke-width:1.0;"/><text fill="#000000" font-family="sans-serif" font-size="13" lengthAdjust="spacing" textLength="36" x="154.4396" y="447.1008">Vaciar</text></g><!--MD5=[3d162f41ff674a82bcc75a92247873af]
link *start*Planta to Disponible--><g id="link_*start*Planta_Disponible"><path d="M226.7696,100.4858 C238.2596,103.8058 256.7296,111.1058 264.9396,125.1358 C292.7596,172.7058 278.5196,195.7258 264.9396,249.1358 C263.9596,252.9858 262.8996,256.8258 261.7496,260.6758 " fill="none" id="*start*Planta-to-Disponible" style="stroke:#181818;stroke-width:1.0;"/><polygon fill="#181818" points="260.3196,265.2858,266.8144,257.882,261.8061,260.5119,259.1761,255.5036,260.3196,265.2858" style="stroke:#181818;stroke-width:1.0;"/><text fill="#000000" font-family="sans-serif" font-size="13" lengthAdjust="spacing" textLength="106" x="280.9396" y="192.5328">Acceso Habilitado</text></g><!--MD5=[2f02351793d9bd324058dafa31b9dea4]
link *start*Planta to NoDisponible--><g id="link_*start*Planta_NoDisponible"><path d="M206.7396,99.3958 C192.7596,101.7358 168.1196,108.1558 156.9396,125.1358 C151.1496,133.9258 149.7096,145.0858 150.1096,155.4458 " fill="none" id="*start*Planta-to-NoDisponible" style="stroke:#181818;stroke-width:1.0;"/><polygon fill="#181818" points="150.4596,160.2658,153.7799,150.9935,150.0881,155.2797,145.802,151.5879,150.4596,160.2658" style="stroke:#181818;stroke-width:1.0;"/><text fill="#000000" font-family="sans-serif" font-size="13" lengthAdjust="spacing" textLength="106" x="157.9396" y="140.0328">Acceso Denegado</text></g><!--MD5=[184513690e38750cdc07ba6aca9e34d3]
link Disponible to NoDisponible--><g id="link_Disponible_NoDisponible"><path d="M155.9396,266.7358 C155.9396,248.4158 155.9396,231.7258 155.9396,218.4858 " fill="none" id="Disponible-to-NoDisponible" style="stroke:#181818;stroke-width:1.0;"/><polygon fill="#181818" points="155.9396,213.7858,151.9396,222.7858,155.9396,218.7858,159.9396,222.7858,155.9396,213.7858" style="stroke:#181818;stroke-width:1.0;"/><text fill="#000000" font-family="sans-serif" font-size="13" lengthAdjust="spacing" textLength="106" x="156.9396" y="245.0328">Acceso Denegado</text></g><!--MD5=[442fb9233b46fa57a3437d372ad5b37a]
link NoDisponible to Disponible--><g id="link_NoDisponible_Disponible"><path d="M100.0196,195.4558 C78.8496,201.2558 56.7696,211.6158 43.9396,230.1358 C37.1696,239.9158 33.1796,250.1558 31.4696,260.6458 " fill="none" id="NoDisponible-to-Disponible" style="stroke:#181818;stroke-width:1.0;"/><polygon fill="#181818" points="30.8896,265.3458,35.942,256.8917,31.4904,260.3821,28,255.9304,30.8896,265.3458" style="stroke:#181818;stroke-width:1.0;"/><text fill="#000000" font-family="sans-serif" font-size="13" lengthAdjust="spacing" textLength="106" x="44.9396" y="245.0328">Acceso Habilitado</text></g><!--MD5=[1ac1729790467f6a0acc018d251e7fad]
@startuml Diagrama_de_Estados

title Diagrama de Estados de la Planta

skinparam {
    NoteBackgroundColor #whiteSmoke
}

hide empty members

state Planta {

    [*] - -> Disponible : Acceso Habilitado
    [*] - -> NoDisponible : Acceso Denegado
    Disponible - -> NoDisponible : Acceso Denegado
    NoDisponible - -> Disponible : Acceso Habilitado

    state Disponible {
        [*] - -> Libre
        Libre - -> ParcialmenteLleno : Llenar
        Libre - -> Lleno : Llenar
        ParcialmenteLleno - -> Lleno : Llenar
        Lleno - -> Libre : Vaciar
        Lleno - -> ParcialmenteLleno : Vaciar
        ParcialmenteLleno - -> Libre : Vaciar
    }
}

@enduml

PlantUML version 1.2022.7(Mon Aug 22 19:01:30 CEST 2022)
(GPL source distribution)
Java Runtime: OpenJDK Runtime Environment
JVM: OpenJDK 64-Bit Server VM
Default Encoding: UTF-8
Language: es
Country: ES
--></g></svg>