<?xml version="1.0" encoding="us-ascii" standalone="no"?><svg xmlns="http://www.w3.org/2000/svg" xmlns:xlink="http://www.w3.org/1999/xlink" contentStyleType="text/css" height="625px" preserveAspectRatio="none" style="width:1497px;height:625px;background:#FFFFFF;" version="1.1" viewBox="0 0 1497 625" width="1497px" zoomAndPan="magnify"><defs/><g><text fill="#000000" font-family="sans-serif" font-size="14" font-weight="bold" lengthAdjust="spacing" textLength="235" x="624" y="24.9659">Diagrama de Arquitectura (Vistas)</text><!--cluster Views--><g id="cluster_Views"><path d="M8.5,46.6699 L49.5,46.6699 A3.75,3.75 0 0 1 52,49.1699 L59,71.7378 L1487.5,71.7378 A2.5,2.5 0 0 1 1490,74.2378 L1490,616.4599 A2.5,2.5 0 0 1 1487.5,618.9599 L8.5,618.9599 A2.5,2.5 0 0 1 6,616.4599 L6,49.1699 A2.5,2.5 0 0 1 8.5,46.6699 " fill="none" style="stroke:#000000;stroke-width:1.5;"/><line style="stroke:#000000;stroke-width:1.5;" x1="6" x2="59" y1="71.7378" y2="71.7378"/><text fill="#000000" font-family="sans-serif" font-size="14" font-weight="bold" lengthAdjust="spacing" textLength="40" x="10" y="63.6358">Views</text></g><!--class BuildingView--><g id="elem_BuildingView"><rect codeLine="11" fill="#F1F1F1" height="181.4754" id="BuildingView" rx="2.5" ry="2.5" style="stroke:#181818;stroke-width:0.5;" width="534" x="22" y="160.9399"/><ellipse cx="240.75" cy="176.9399" fill="#ADD1B2" rx="11" ry="11" style="stroke:#181818;stroke-width:1.0;"/><path d="M240.2188,183.8618 Q238.4688,183.8618 237.3281,183.1274 Q236.2031,182.3774 235.6406,181.0336 Q235.0938,179.6743 235.0938,177.8774 Q235.0938,175.8461 235.75,174.393 Q236.4063,172.9399 237.6875,172.1586 Q238.9688,171.3774 240.8438,171.3774 Q241.7344,171.3774 242.4063,171.5649 Q243.0781,171.7368 243.7656,172.0805 L242.9531,174.0961 Q242.3281,173.7836 241.7813,173.6586 Q241.25,173.5336 240.7656,173.5336 Q239.5938,173.5336 238.8906,174.0649 Q238.1875,174.5961 237.8906,175.5493 Q237.5938,176.5024 237.5938,177.768 Q237.5938,179.7836 238.3125,180.7524 Q239.0313,181.7055 240.625,181.7055 Q241.2188,181.7055 241.8438,181.5493 Q242.4688,181.393 243.2969,181.018 L243.2969,183.2368 Q242.5625,183.5493 241.7656,183.7055 Q240.9844,183.8618 240.2188,183.8618 Z " fill="#000000"/><text fill="#000000" font-family="sans-serif" font-size="14" lengthAdjust="spacing" textLength="88" x="261.25" y="182.3719">BuildingView</text><line style="stroke:#181818;stroke-width:0.5;" x1="23" x2="555" y1="192.9399" y2="192.9399"/><rect fill="none" height="6" style="stroke:#C82930;stroke-width:1.0;" width="6" x="30" y="204.9739"/><text fill="#000000" font-family="sans-serif" font-size="14" lengthAdjust="spacing" textLength="122" x="42" y="211.9058">building: Building</text><rect fill="none" height="6" style="stroke:#C82930;stroke-width:1.0;" width="6" x="30" y="224.0418"/><text fill="#000000" font-family="sans-serif" font-size="14" lengthAdjust="spacing" textLength="123" x="42" y="230.9738">isTesting: boolean</text><line style="stroke:#181818;stroke-width:0.5;" x1="23" x2="555" y1="239.0757" y2="239.0757"/><ellipse cx="33" cy="254.1097" fill="#84BE84" rx="3" ry="3" style="stroke:#038048;stroke-width:1.0;"/><text fill="#000000" font-family="sans-serif" font-size="14" lengthAdjust="spacing" textLength="90" x="42" y="258.0417">render(): void</text><ellipse cx="33" cy="273.1776" fill="#84BE84" rx="3" ry="3" style="stroke:#038048;stroke-width:1.0;"/><text fill="#000000" font-family="sans-serif" font-size="14" lengthAdjust="spacing" textLength="320" x="42" y="277.1096">getViews(Building building): ArrayList&lt;String[]&gt;</text><ellipse cx="33" cy="292.2455" fill="#84BE84" rx="3" ry="3" style="stroke:#038048;stroke-width:1.0;"/><text fill="#000000" font-family="sans-serif" font-size="14" lengthAdjust="spacing" textLength="432" x="42" y="296.1775">mergeViews(ArrayList&lt;String[]&gt; views, Building building): String</text><ellipse cx="33" cy="311.3134" fill="#84BE84" rx="3" ry="3" style="stroke:#038048;stroke-width:1.0;"/><text fill="#000000" font-family="sans-serif" font-size="14" lengthAdjust="spacing" textLength="508" x="42" y="315.2454">spacesBeforeAndAfter(int SpacesBefore, int SpacesAfter, String text): String</text><ellipse cx="33" cy="330.3814" fill="#84BE84" rx="3" ry="3" style="stroke:#038048;stroke-width:1.0;"/><text fill="#000000" font-family="sans-serif" font-size="14" lengthAdjust="spacing" textLength="341" x="42" y="334.3133">BuildingView(Building building, boolean isTesting)</text></g><!--class DebuggerView--><g id="elem_DebuggerView"><rect codeLine="21" fill="#F1F1F1" height="334.0188" id="DebuggerView" rx="2.5" ry="2.5" style="stroke:#181818;stroke-width:0.5;" width="445" x="591.5" y="84.6699"/><ellipse cx="760.25" cy="100.6699" fill="#ADD1B2" rx="11" ry="11" style="stroke:#181818;stroke-width:1.0;"/><path d="M759.7188,107.5918 Q757.9688,107.5918 756.8281,106.8574 Q755.7031,106.1074 755.1406,104.7636 Q754.5938,103.4043 754.5938,101.6074 Q754.5938,99.5761 755.25,98.123 Q755.9063,96.6699 757.1875,95.8886 Q758.4688,95.1074 760.3438,95.1074 Q761.2344,95.1074 761.9063,95.2949 Q762.5781,95.4668 763.2656,95.8105 L762.4531,97.8261 Q761.8281,97.5136 761.2813,97.3886 Q760.75,97.2636 760.2656,97.2636 Q759.0938,97.2636 758.3906,97.7949 Q757.6875,98.3261 757.3906,99.2793 Q757.0938,100.2324 757.0938,101.498 Q757.0938,103.5136 757.8125,104.4824 Q758.5313,105.4355 760.125,105.4355 Q760.7188,105.4355 761.3438,105.2793 Q761.9688,105.123 762.7969,104.748 L762.7969,106.9668 Q762.0625,107.2793 761.2656,107.4355 Q760.4844,107.5918 759.7188,107.5918 Z " fill="#000000"/><text fill="#000000" font-family="sans-serif" font-size="14" lengthAdjust="spacing" textLength="99" x="780.75" y="106.1019">DebuggerView</text><line style="stroke:#181818;stroke-width:0.5;" x1="592.5" x2="1035.5" y1="116.6699" y2="116.6699"/><rect fill="none" height="6" style="stroke:#C82930;stroke-width:1.0;" width="6" x="599.5" y="128.7039"/><text fill="#000000" font-family="sans-serif" font-size="14" lengthAdjust="spacing" textLength="122" x="611.5" y="135.6358">building: Building</text><rect fill="none" height="6" style="stroke:#C82930;stroke-width:1.0;" width="6" x="599.5" y="147.7718"/><text fill="#000000" font-family="sans-serif" font-size="14" lengthAdjust="spacing" textLength="167" x="611.5" y="154.7038">debuggerMode: boolean</text><line style="stroke:#181818;stroke-width:0.5;" x1="592.5" x2="1035.5" y1="162.8057" y2="162.8057"/><ellipse cx="602.5" cy="177.8397" fill="#84BE84" rx="3" ry="3" style="stroke:#038048;stroke-width:1.0;"/><text fill="#000000" font-family="sans-serif" font-size="14" lengthAdjust="spacing" textLength="90" x="611.5" y="181.7717">render(): void</text><ellipse cx="602.5" cy="196.9076" fill="#84BE84" rx="3" ry="3" style="stroke:#038048;stroke-width:1.0;"/><text fill="#000000" font-family="sans-serif" font-size="14" lengthAdjust="spacing" textLength="143" x="611.5" y="200.8396">printSeparator(): void</text><ellipse cx="602.5" cy="215.9755" fill="#84BE84" rx="3" ry="3" style="stroke:#038048;stroke-width:1.0;"/><text fill="#000000" font-family="sans-serif" font-size="14" lengthAdjust="spacing" textLength="180" x="611.5" y="219.9075">printElevatorsStatus(): void</text><ellipse cx="602.5" cy="235.0434" fill="#84BE84" rx="3" ry="3" style="stroke:#038048;stroke-width:1.0;"/><text fill="#000000" font-family="sans-serif" font-size="14" lengthAdjust="spacing" textLength="341" x="611.5" y="238.9754">printPeopleInside(List&lt;Person&gt; peopleInside): void</text><ellipse cx="602.5" cy="254.1114" fill="#84BE84" rx="3" ry="3" style="stroke:#038048;stroke-width:1.0;"/><text fill="#000000" font-family="sans-serif" font-size="14" lengthAdjust="spacing" textLength="286" x="611.5" y="258.0433">printFloorsToGoList(Elevator elevator): void</text><ellipse cx="602.5" cy="273.1793" fill="#84BE84" rx="3" ry="3" style="stroke:#038048;stroke-width:1.0;"/><text fill="#000000" font-family="sans-serif" font-size="14" lengthAdjust="spacing" textLength="159" x="611.5" y="277.1113">printFloorsStatus(): void</text><ellipse cx="602.5" cy="292.2472" fill="#84BE84" rx="3" ry="3" style="stroke:#038048;stroke-width:1.0;"/><text fill="#000000" font-family="sans-serif" font-size="14" lengthAdjust="spacing" textLength="279" x="611.5" y="296.1792">printPeopleIDs(List&lt;Person&gt; people): void</text><ellipse cx="602.5" cy="311.3151" fill="#84BE84" rx="3" ry="3" style="stroke:#038048;stroke-width:1.0;"/><text fill="#000000" font-family="sans-serif" font-size="14" lengthAdjust="spacing" textLength="261" x="611.5" y="315.2471">printElevatorRequestsPerPerson(): void</text><ellipse cx="602.5" cy="330.383" fill="#84BE84" rx="3" ry="3" style="stroke:#038048;stroke-width:1.0;"/><text fill="#000000" font-family="sans-serif" font-size="14" lengthAdjust="spacing" textLength="240" x="611.5" y="334.315">printFloorRequestsPerPerson(): void</text><ellipse cx="602.5" cy="349.4509" fill="#84BE84" rx="3" ry="3" style="stroke:#038048;stroke-width:1.0;"/><text fill="#000000" font-family="sans-serif" font-size="14" lengthAdjust="spacing" textLength="214" x="611.5" y="353.3829">printFloorRequestsStatus(): void</text><ellipse cx="602.5" cy="368.5189" fill="#84BE84" rx="3" ry="3" style="stroke:#038048;stroke-width:1.0;"/><text fill="#000000" font-family="sans-serif" font-size="14" lengthAdjust="spacing" textLength="242" x="611.5" y="372.4508">printElevatorsRequestsStatus(): void</text><ellipse cx="602.5" cy="387.5868" fill="#84BE84" rx="3" ry="3" style="stroke:#038048;stroke-width:1.0;"/><text fill="#000000" font-family="sans-serif" font-size="14" lengthAdjust="spacing" textLength="419" x="611.5" y="391.5188">determineDirection(int currentFloor, int destination): Direction</text><ellipse cx="602.5" cy="406.6547" fill="#84BE84" rx="3" ry="3" style="stroke:#038048;stroke-width:1.0;"/><text fill="#000000" font-family="sans-serif" font-size="14" lengthAdjust="spacing" textLength="396" x="611.5" y="410.5867">DebuggerView(Building building, boolean debuggerMode)</text></g><!--class ElevatorView--><g id="elem_ElevatorView"><rect codeLine="39" fill="#F1F1F1" height="162.4075" id="ElevatorView" rx="2.5" ry="2.5" style="stroke:#181818;stroke-width:0.5;" width="403" x="1071.5" y="170.4799"/><ellipse cx="1226.25" cy="186.4799" fill="#ADD1B2" rx="11" ry="11" style="stroke:#181818;stroke-width:1.0;"/><path d="M1225.7188,193.4018 Q1223.9688,193.4018 1222.8281,192.6674 Q1221.7031,191.9174 1221.1406,190.5736 Q1220.5938,189.2143 1220.5938,187.4174 Q1220.5938,185.3861 1221.25,183.933 Q1221.9063,182.4799 1223.1875,181.6986 Q1224.4688,180.9174 1226.3438,180.9174 Q1227.2344,180.9174 1227.9063,181.1049 Q1228.5781,181.2768 1229.2656,181.6205 L1228.4531,183.6361 Q1227.8281,183.3236 1227.2813,183.1986 Q1226.75,183.0736 1226.2656,183.0736 Q1225.0938,183.0736 1224.3906,183.6049 Q1223.6875,184.1361 1223.3906,185.0893 Q1223.0938,186.0424 1223.0938,187.308 Q1223.0938,189.3236 1223.8125,190.2924 Q1224.5313,191.2455 1226.125,191.2455 Q1226.7188,191.2455 1227.3438,191.0893 Q1227.9688,190.933 1228.7969,190.558 L1228.7969,192.7768 Q1228.0625,193.0893 1227.2656,193.2455 Q1226.4844,193.4018 1225.7188,193.4018 Z " fill="#000000"/><text fill="#000000" font-family="sans-serif" font-size="14" lengthAdjust="spacing" textLength="85" x="1246.75" y="191.9119">ElevatorView</text><line style="stroke:#181818;stroke-width:0.5;" x1="1072.5" x2="1473.5" y1="202.4799" y2="202.4799"/><rect fill="none" height="6" style="stroke:#C82930;stroke-width:1.0;" width="6" x="1079.5" y="214.5139"/><text fill="#000000" font-family="sans-serif" font-size="14" lengthAdjust="spacing" textLength="162" x="1091.5" y="221.4458">elevators: List&lt;Elevator&gt;</text><rect fill="none" height="6" style="stroke:#C82930;stroke-width:1.0;" width="6" x="1079.5" y="233.5818"/><text fill="#000000" font-family="sans-serif" font-size="14" lengthAdjust="spacing" textLength="96" x="1091.5" y="240.5138">totalFloors: int</text><line style="stroke:#181818;stroke-width:0.5;" x1="1072.5" x2="1473.5" y1="248.6157" y2="248.6157"/><ellipse cx="1082.5" cy="263.6497" fill="#84BE84" rx="3" ry="3" style="stroke:#038048;stroke-width:1.0;"/><text fill="#000000" font-family="sans-serif" font-size="14" lengthAdjust="spacing" textLength="113" x="1091.5" y="267.5817">render(): String[]</text><ellipse cx="1082.5" cy="282.7176" fill="#84BE84" rx="3" ry="3" style="stroke:#038048;stroke-width:1.0;"/><text fill="#000000" font-family="sans-serif" font-size="14" lengthAdjust="spacing" textLength="276" x="1091.5" y="286.6496">getElevatorView(Elevator elevator): String</text><ellipse cx="1082.5" cy="301.7855" fill="#84BE84" rx="3" ry="3" style="stroke:#038048;stroke-width:1.0;"/><text fill="#000000" font-family="sans-serif" font-size="14" lengthAdjust="spacing" textLength="377" x="1091.5" y="305.7175">mergeElevatorsViews(ArrayList&lt;String[]&gt; views): String[]</text><ellipse cx="1082.5" cy="320.8534" fill="#84BE84" rx="3" ry="3" style="stroke:#038048;stroke-width:1.0;"/><text fill="#000000" font-family="sans-serif" font-size="14" lengthAdjust="spacing" textLength="351" x="1091.5" y="324.7854">ElevatorView(List&lt;Elevator&gt; elevators, int totalFloors)</text></g><!--class WaitingPeopleView--><g id="elem_WaitingPeopleView"><rect codeLine="48" fill="#F1F1F1" height="124.2717" id="WaitingPeopleView" rx="2.5" ry="2.5" style="stroke:#181818;stroke-width:0.5;" width="276" x="151" y="478.6899"/><ellipse cx="220.75" cy="494.6899" fill="#ADD1B2" rx="11" ry="11" style="stroke:#181818;stroke-width:1.0;"/><path d="M220.2188,501.6118 Q218.4688,501.6118 217.3281,500.8774 Q216.2031,500.1274 215.6406,498.7836 Q215.0938,497.4243 215.0938,495.6274 Q215.0938,493.5961 215.75,492.143 Q216.4063,490.6899 217.6875,489.9086 Q218.9688,489.1274 220.8438,489.1274 Q221.7344,489.1274 222.4063,489.3149 Q223.0781,489.4868 223.7656,489.8305 L222.9531,491.8461 Q222.3281,491.5336 221.7813,491.4086 Q221.25,491.2836 220.7656,491.2836 Q219.5938,491.2836 218.8906,491.8149 Q218.1875,492.3461 217.8906,493.2993 Q217.5938,494.2524 217.5938,495.518 Q217.5938,497.5336 218.3125,498.5024 Q219.0313,499.4555 220.625,499.4555 Q221.2188,499.4555 221.8438,499.2993 Q222.4688,499.143 223.2969,498.768 L223.2969,500.9868 Q222.5625,501.2993 221.7656,501.4555 Q220.9844,501.6118 220.2188,501.6118 Z " fill="#000000"/><text fill="#000000" font-family="sans-serif" font-size="14" lengthAdjust="spacing" textLength="128" x="241.25" y="500.1219">WaitingPeopleView</text><line style="stroke:#181818;stroke-width:0.5;" x1="152" x2="426" y1="510.6899" y2="510.6899"/><rect fill="none" height="6" style="stroke:#C82930;stroke-width:1.0;" width="6" x="159" y="522.7239"/><text fill="#000000" font-family="sans-serif" font-size="14" lengthAdjust="spacing" textLength="118" x="171" y="529.6558">floors: List&lt;Floor&gt;</text><line style="stroke:#181818;stroke-width:0.5;" x1="152" x2="426" y1="537.7578" y2="537.7578"/><ellipse cx="162" cy="552.7918" fill="#84BE84" rx="3" ry="3" style="stroke:#038048;stroke-width:1.0;"/><text fill="#000000" font-family="sans-serif" font-size="14" lengthAdjust="spacing" textLength="113" x="171" y="556.7238">render(): String[]</text><ellipse cx="162" cy="571.8597" fill="#84BE84" rx="3" ry="3" style="stroke:#038048;stroke-width:1.0;"/><text fill="#000000" font-family="sans-serif" font-size="14" lengthAdjust="spacing" textLength="238" x="171" y="575.7917">getWaitingPeopleViewView(): String</text><ellipse cx="162" cy="590.9276" fill="#84BE84" rx="3" ry="3" style="stroke:#038048;stroke-width:1.0;"/><text fill="#000000" font-family="sans-serif" font-size="14" lengthAdjust="spacing" textLength="250" x="171" y="594.8596">WaitingPeopleView(List&lt;Floor&gt; floors)</text></g><!--class FloorView--><g id="elem_FloorView"><rect codeLine="55" fill="#F1F1F1" height="124.2717" id="FloorView" rx="2.5" ry="2.5" style="stroke:#181818;stroke-width:0.5;" width="212" x="462" y="478.6899"/><ellipse cx="531.75" cy="494.6899" fill="#ADD1B2" rx="11" ry="11" style="stroke:#181818;stroke-width:1.0;"/><path d="M531.2188,501.6118 Q529.4688,501.6118 528.3281,500.8774 Q527.2031,500.1274 526.6406,498.7836 Q526.0938,497.4243 526.0938,495.6274 Q526.0938,493.5961 526.75,492.143 Q527.4063,490.6899 528.6875,489.9086 Q529.9688,489.1274 531.8438,489.1274 Q532.7344,489.1274 533.4063,489.3149 Q534.0781,489.4868 534.7656,489.8305 L533.9531,491.8461 Q533.3281,491.5336 532.7813,491.4086 Q532.25,491.2836 531.7656,491.2836 Q530.5938,491.2836 529.8906,491.8149 Q529.1875,492.3461 528.8906,493.2993 Q528.5938,494.2524 528.5938,495.518 Q528.5938,497.5336 529.3125,498.5024 Q530.0313,499.4555 531.625,499.4555 Q532.2188,499.4555 532.8438,499.2993 Q533.4688,499.143 534.2969,498.768 L534.2969,500.9868 Q533.5625,501.2993 532.7656,501.4555 Q531.9844,501.6118 531.2188,501.6118 Z " fill="#000000"/><text fill="#000000" font-family="sans-serif" font-size="14" lengthAdjust="spacing" textLength="64" x="552.25" y="500.1219">FloorView</text><line style="stroke:#181818;stroke-width:0.5;" x1="463" x2="673" y1="510.6899" y2="510.6899"/><rect fill="none" height="6" style="stroke:#C82930;stroke-width:1.0;" width="6" x="470" y="522.7239"/><text fill="#000000" font-family="sans-serif" font-size="14" lengthAdjust="spacing" textLength="120" x="482" y="529.6558">Floors: List&lt;Floor&gt;</text><line style="stroke:#181818;stroke-width:0.5;" x1="463" x2="673" y1="537.7578" y2="537.7578"/><ellipse cx="473" cy="552.7918" fill="#84BE84" rx="3" ry="3" style="stroke:#038048;stroke-width:1.0;"/><text fill="#000000" font-family="sans-serif" font-size="14" lengthAdjust="spacing" textLength="113" x="482" y="556.7238">render(): String[]</text><ellipse cx="473" cy="571.8597" fill="#84BE84" rx="3" ry="3" style="stroke:#038048;stroke-width:1.0;"/><text fill="#000000" font-family="sans-serif" font-size="14" lengthAdjust="spacing" textLength="143" x="482" y="575.7917">getFloorView(): String</text><ellipse cx="473" cy="590.9276" fill="#84BE84" rx="3" ry="3" style="stroke:#038048;stroke-width:1.0;"/><text fill="#000000" font-family="sans-serif" font-size="14" lengthAdjust="spacing" textLength="186" x="482" y="594.8596">FloorView(List&lt;Floor&gt; floors)</text></g><!--class PeopleOnFloorView--><g id="elem_PeopleOnFloorView"><rect codeLine="62" fill="#F1F1F1" height="124.2717" id="PeopleOnFloorView" rx="2.5" ry="2.5" style="stroke:#181818;stroke-width:0.5;" width="277" x="708.5" y="478.6899"/><ellipse cx="778.25" cy="494.6899" fill="#ADD1B2" rx="11" ry="11" style="stroke:#181818;stroke-width:1.0;"/><path d="M777.7188,501.6118 Q775.9688,501.6118 774.8281,500.8774 Q773.7031,500.1274 773.1406,498.7836 Q772.5938,497.4243 772.5938,495.6274 Q772.5938,493.5961 773.25,492.143 Q773.9063,490.6899 775.1875,489.9086 Q776.4688,489.1274 778.3438,489.1274 Q779.2344,489.1274 779.9063,489.3149 Q780.5781,489.4868 781.2656,489.8305 L780.4531,491.8461 Q779.8281,491.5336 779.2813,491.4086 Q778.75,491.2836 778.2656,491.2836 Q777.0938,491.2836 776.3906,491.8149 Q775.6875,492.3461 775.3906,493.2993 Q775.0938,494.2524 775.0938,495.518 Q775.0938,497.5336 775.8125,498.5024 Q776.5313,499.4555 778.125,499.4555 Q778.7188,499.4555 779.3438,499.2993 Q779.9688,499.143 780.7969,498.768 L780.7969,500.9868 Q780.0625,501.2993 779.2656,501.4555 Q778.4844,501.6118 777.7188,501.6118 Z " fill="#000000"/><text fill="#000000" font-family="sans-serif" font-size="14" lengthAdjust="spacing" textLength="129" x="798.75" y="500.1219">PeopleOnFloorView</text><line style="stroke:#181818;stroke-width:0.5;" x1="709.5" x2="984.5" y1="510.6899" y2="510.6899"/><rect fill="none" height="6" style="stroke:#C82930;stroke-width:1.0;" width="6" x="716.5" y="522.7239"/><text fill="#000000" font-family="sans-serif" font-size="14" lengthAdjust="spacing" textLength="120" x="728.5" y="529.6558">Floors: List&lt;Floor&gt;</text><line style="stroke:#181818;stroke-width:0.5;" x1="709.5" x2="984.5" y1="537.7578" y2="537.7578"/><ellipse cx="719.5" cy="552.7918" fill="#84BE84" rx="3" ry="3" style="stroke:#038048;stroke-width:1.0;"/><text fill="#000000" font-family="sans-serif" font-size="14" lengthAdjust="spacing" textLength="113" x="728.5" y="556.7238">render(): String[]</text><ellipse cx="719.5" cy="571.8597" fill="#84BE84" rx="3" ry="3" style="stroke:#038048;stroke-width:1.0;"/><text fill="#000000" font-family="sans-serif" font-size="14" lengthAdjust="spacing" textLength="208" x="728.5" y="575.7917">getPeopleOnFloorView(): String</text><ellipse cx="719.5" cy="590.9276" fill="#84BE84" rx="3" ry="3" style="stroke:#038048;stroke-width:1.0;"/><text fill="#000000" font-family="sans-serif" font-size="14" lengthAdjust="spacing" textLength="251" x="728.5" y="594.8596">PeopleOnFloorView(List&lt;Floor&gt; floors)</text></g><!--SRC=[jLJRRXen47tVhnYfBujAVm1LI52Qgb8lKJTA7we-63niB7RjZUqbZQhyUyVUcz4Q28t24-ASENDcvc0hR86m4YpNh6J04HRwlXOMDxRM3D9ROImpaoGnEo4hHYJucm1zlYcBIxRPvLhLadzGXTBmvk6EAhDIxJ1vIf8xGN9OLlOHIYpNg4sIL5J2SeHRWG-cbTeKp1XOrgBWGkOEQG7tUGVh5fZrb00KvWQDzUXQgGAPxC6te55orEba1dibU03aQBs1j5Ficn1teJLx_49ply-iffz-_Pu7fINg79lY217s3fb2JBSX1LA6be5cYLkbSI7vOcl9h90MiW2Oml2BPqnR8R3unyPamqME1vnsUnfMD_75TB3X62jSrtcE-h9ZyBRgg-9uqJqg6i5cwF9brL72nmBt3ZUPPROsnsZNgAe2Fqj3yKlzUQufUahEeGgG8yLNXQ86D-gJSfLfrnAm_NAox5c-LYPcwip8F_2-fcCPAchgqbD6_ezzsds__BDqZfJIKaXS2KtFYA3sBiARMjFzcvPDgBcF7tCCKkdPWLGOmrDH3eCNINFdVPJcxgfc1luc7N4USAooh6ZkEtEsetdk7e33DoRi6utIwB_hNvT-rMUUcNZVWwQ7KmtpDWS8HejixISJxdLeOZjQtRRTYE_WDUONR6QaxTt6DZ9Yfa77raN4lCT7fgzUPBhNZ1eTq6SPR0RwBb_3w4WxQdZCEcxyAVa7]--></g></svg>