<?xml version="1.0" encoding="us-ascii" standalone="no"?><svg xmlns="http://www.w3.org/2000/svg" xmlns:xlink="http://www.w3.org/1999/xlink" contentStyleType="text/css" height="341px" preserveAspectRatio="none" style="width:953px;height:341px;background:#FFFFFF;" version="1.1" viewBox="0 0 953 341" width="953px" zoomAndPan="magnify"><defs/><g><text fill="#000000" font-family="sans-serif" font-size="14" font-weight="bold" lengthAdjust="spacing" textLength="307" x="316" y="24.9659">Diagrama de Arquitectura(Listas Relaciones)</text><!--cluster Lists--><g id="cluster_Lists"><path d="M104.5,46.6699 L137.5,46.6699 A3.75,3.75 0 0 1 140,49.1699 L147,71.7378 L907.5,71.7378 A2.5,2.5 0 0 1 910,74.2378 L910,222.1699 A2.5,2.5 0 0 1 907.5,224.6699 L104.5,224.6699 A2.5,2.5 0 0 1 102,222.1699 L102,49.1699 A2.5,2.5 0 0 1 104.5,46.6699 " fill="none" style="stroke:#000000;stroke-width:1.5;"/><line style="stroke:#000000;stroke-width:1.5;" x1="102" x2="147" y1="71.7378" y2="71.7378"/><text fill="#000000" font-family="sans-serif" font-size="14" font-weight="bold" lengthAdjust="spacing" textLength="32" x="106" y="63.6358">Lists</text></g><!--cluster Models--><g id="cluster_Models"><path d="M8.5,248.6699 L59.5,248.6699 A3.75,3.75 0 0 1 62,251.1699 L69,273.7378 L943.5,273.7378 A2.5,2.5 0 0 1 946,276.2378 L946,332.1699 A2.5,2.5 0 0 1 943.5,334.6699 L8.5,334.6699 A2.5,2.5 0 0 1 6,332.1699 L6,251.1699 A2.5,2.5 0 0 1 8.5,248.6699 " fill="none" style="stroke:#000000;stroke-width:1.5;"/><line style="stroke:#000000;stroke-width:1.5;" x1="6" x2="69" y1="273.7378" y2="273.7378"/><text fill="#000000" font-family="sans-serif" font-size="14" font-weight="bold" lengthAdjust="spacing" textLength="50" x="10" y="265.6358">Models</text></g><!--class Counters--><g id="elem_Counters"><rect codeLine="11" fill="#F1F1F1" height="32" id="Counters" rx="2.5" ry="2.5" style="stroke:#181818;stroke-width:0.5;" width="93" x="423.5" y="84.6699"/><ellipse cx="438.5" cy="100.6699" fill="#ADD1B2" rx="11" ry="11" style="stroke:#181818;stroke-width:1.0;"/><path d="M437.9688,107.5918 Q436.2188,107.5918 435.0781,106.8574 Q433.9531,106.1074 433.3906,104.7636 Q432.8438,103.4043 432.8438,101.6074 Q432.8438,99.5761 433.5,98.123 Q434.1563,96.6699 435.4375,95.8886 Q436.7188,95.1074 438.5938,95.1074 Q439.4844,95.1074 440.1563,95.2949 Q440.8281,95.4668 441.5156,95.8105 L440.7031,97.8261 Q440.0781,97.5136 439.5313,97.3886 Q439,97.2636 438.5156,97.2636 Q437.3438,97.2636 436.6406,97.7949 Q435.9375,98.3261 435.6406,99.2793 Q435.3438,100.2324 435.3438,101.498 Q435.3438,103.5136 436.0625,104.4824 Q436.7813,105.4355 438.375,105.4355 Q438.9688,105.4355 439.5938,105.2793 Q440.2188,105.123 441.0469,104.748 L441.0469,106.9668 Q440.3125,107.2793 439.5156,107.4355 Q438.7344,107.5918 437.9688,107.5918 Z " fill="#000000"/><text fill="#000000" font-family="sans-serif" font-size="14" lengthAdjust="spacing" textLength="61" x="452.5" y="106.1019">Counters</text></g><!--class ElevatorList--><g id="elem_ElevatorList"><rect codeLine="14" fill="#F1F1F1" height="32" id="ElevatorList" rx="2.5" ry="2.5" style="stroke:#181818;stroke-width:0.5;" width="109" x="377.5" y="176.6699"/><ellipse cx="392.5" cy="192.6699" fill="#ADD1B2" rx="11" ry="11" style="stroke:#181818;stroke-width:1.0;"/><path d="M391.9688,199.5918 Q390.2188,199.5918 389.0781,198.8574 Q387.9531,198.1074 387.3906,196.7636 Q386.8438,195.4043 386.8438,193.6074 Q386.8438,191.5761 387.5,190.123 Q388.1563,188.6699 389.4375,187.8886 Q390.7188,187.1074 392.5938,187.1074 Q393.4844,187.1074 394.1563,187.2949 Q394.8281,187.4668 395.5156,187.8105 L394.7031,189.8261 Q394.0781,189.5136 393.5313,189.3886 Q393,189.2636 392.5156,189.2636 Q391.3438,189.2636 390.6406,189.7949 Q389.9375,190.3261 389.6406,191.2793 Q389.3438,192.2324 389.3438,193.498 Q389.3438,195.5136 390.0625,196.4824 Q390.7813,197.4355 392.375,197.4355 Q392.9688,197.4355 393.5938,197.2793 Q394.2188,197.123 395.0469,196.748 L395.0469,198.9668 Q394.3125,199.2793 393.5156,199.4355 Q392.7344,199.5918 391.9688,199.5918 Z " fill="#000000"/><text fill="#000000" font-family="sans-serif" font-size="14" lengthAdjust="spacing" textLength="77" x="406.5" y="198.1019">ElevatorList</text></g><!--class ElevatorRequestList--><g id="elem_ElevatorRequestList"><rect codeLine="17" fill="#F1F1F1" height="32" id="ElevatorRequestList" rx="2.5" ry="2.5" style="stroke:#181818;stroke-width:0.5;" width="164" x="552" y="84.6699"/><ellipse cx="567" cy="100.6699" fill="#ADD1B2" rx="11" ry="11" style="stroke:#181818;stroke-width:1.0;"/><path d="M566.4688,107.5918 Q564.7188,107.5918 563.5781,106.8574 Q562.4531,106.1074 561.8906,104.7636 Q561.3438,103.4043 561.3438,101.6074 Q561.3438,99.5761 562,98.123 Q562.6563,96.6699 563.9375,95.8886 Q565.2188,95.1074 567.0938,95.1074 Q567.9844,95.1074 568.6563,95.2949 Q569.3281,95.4668 570.0156,95.8105 L569.2031,97.8261 Q568.5781,97.5136 568.0313,97.3886 Q567.5,97.2636 567.0156,97.2636 Q565.8438,97.2636 565.1406,97.7949 Q564.4375,98.3261 564.1406,99.2793 Q563.8438,100.2324 563.8438,101.498 Q563.8438,103.5136 564.5625,104.4824 Q565.2813,105.4355 566.875,105.4355 Q567.4688,105.4355 568.0938,105.2793 Q568.7188,105.123 569.5469,104.748 L569.5469,106.9668 Q568.8125,107.2793 568.0156,107.4355 Q567.2344,107.5918 566.4688,107.5918 Z " fill="#000000"/><text fill="#000000" font-family="sans-serif" font-size="14" lengthAdjust="spacing" textLength="132" x="581" y="106.1019">ElevatorRequestList</text></g><!--class FloorList--><g id="elem_FloorList"><rect codeLine="20" fill="#F1F1F1" height="32" id="FloorList" rx="2.5" ry="2.5" style="stroke:#181818;stroke-width:0.5;" width="88" x="118" y="176.6699"/><ellipse cx="133" cy="192.6699" fill="#ADD1B2" rx="11" ry="11" style="stroke:#181818;stroke-width:1.0;"/><path d="M132.4688,199.5918 Q130.7188,199.5918 129.5781,198.8574 Q128.4531,198.1074 127.8906,196.7636 Q127.3438,195.4043 127.3438,193.6074 Q127.3438,191.5761 128,190.123 Q128.6563,188.6699 129.9375,187.8886 Q131.2188,187.1074 133.0938,187.1074 Q133.9844,187.1074 134.6563,187.2949 Q135.3281,187.4668 136.0156,187.8105 L135.2031,189.8261 Q134.5781,189.5136 134.0313,189.3886 Q133.5,189.2636 133.0156,189.2636 Q131.8438,189.2636 131.1406,189.7949 Q130.4375,190.3261 130.1406,191.2793 Q129.8438,192.2324 129.8438,193.498 Q129.8438,195.5136 130.5625,196.4824 Q131.2813,197.4355 132.875,197.4355 Q133.4688,197.4355 134.0938,197.2793 Q134.7188,197.123 135.5469,196.748 L135.5469,198.9668 Q134.8125,199.2793 134.0156,199.4355 Q133.2344,199.5918 132.4688,199.5918 Z " fill="#000000"/><text fill="#000000" font-family="sans-serif" font-size="14" lengthAdjust="spacing" textLength="56" x="147" y="198.1019">FloorList</text></g><!--class FloorRequestList--><g id="elem_FloorRequestList"><rect codeLine="23" fill="#F1F1F1" height="32" id="FloorRequestList" rx="2.5" ry="2.5" style="stroke:#181818;stroke-width:0.5;" width="143" x="751.5" y="84.6699"/><ellipse cx="766.5" cy="100.6699" fill="#ADD1B2" rx="11" ry="11" style="stroke:#181818;stroke-width:1.0;"/><path d="M765.9688,107.5918 Q764.2188,107.5918 763.0781,106.8574 Q761.9531,106.1074 761.3906,104.7636 Q760.8438,103.4043 760.8438,101.6074 Q760.8438,99.5761 761.5,98.123 Q762.1563,96.6699 763.4375,95.8886 Q764.7188,95.1074 766.5938,95.1074 Q767.4844,95.1074 768.1563,95.2949 Q768.8281,95.4668 769.5156,95.8105 L768.7031,97.8261 Q768.0781,97.5136 767.5313,97.3886 Q767,97.2636 766.5156,97.2636 Q765.3438,97.2636 764.6406,97.7949 Q763.9375,98.3261 763.6406,99.2793 Q763.3438,100.2324 763.3438,101.498 Q763.3438,103.5136 764.0625,104.4824 Q764.7813,105.4355 766.375,105.4355 Q766.9688,105.4355 767.5938,105.2793 Q768.2188,105.123 769.0469,104.748 L769.0469,106.9668 Q768.3125,107.2793 767.5156,107.4355 Q766.7344,107.5918 765.9688,107.5918 Z " fill="#000000"/><text fill="#000000" font-family="sans-serif" font-size="14" lengthAdjust="spacing" textLength="111" x="780.5" y="106.1019">FloorRequestList</text></g><!--class FloorsToGoList--><g id="elem_FloorsToGoList"><rect codeLine="26" fill="#F1F1F1" height="32" id="FloorsToGoList" rx="2.5" ry="2.5" style="stroke:#181818;stroke-width:0.5;" width="129" x="259.5" y="84.6699"/><ellipse cx="274.5" cy="100.6699" fill="#ADD1B2" rx="11" ry="11" style="stroke:#181818;stroke-width:1.0;"/><path d="M273.9688,107.5918 Q272.2188,107.5918 271.0781,106.8574 Q269.9531,106.1074 269.3906,104.7636 Q268.8438,103.4043 268.8438,101.6074 Q268.8438,99.5761 269.5,98.123 Q270.1563,96.6699 271.4375,95.8886 Q272.7188,95.1074 274.5938,95.1074 Q275.4844,95.1074 276.1563,95.2949 Q276.8281,95.4668 277.5156,95.8105 L276.7031,97.8261 Q276.0781,97.5136 275.5313,97.3886 Q275,97.2636 274.5156,97.2636 Q273.3438,97.2636 272.6406,97.7949 Q271.9375,98.3261 271.6406,99.2793 Q271.3438,100.2324 271.3438,101.498 Q271.3438,103.5136 272.0625,104.4824 Q272.7813,105.4355 274.375,105.4355 Q274.9688,105.4355 275.5938,105.2793 Q276.2188,105.123 277.0469,104.748 L277.0469,106.9668 Q276.3125,107.2793 275.5156,107.4355 Q274.7344,107.5918 273.9688,107.5918 Z " fill="#000000"/><text fill="#000000" font-family="sans-serif" font-size="14" lengthAdjust="spacing" textLength="97" x="288.5" y="106.1019">FloorsToGoList</text></g><!--class ModelList--><g id="elem_ModelList"><rect codeLine="29" fill="#F1F1F1" height="32" id="ModelList" rx="2.5" ry="2.5" style="stroke:#181818;stroke-width:0.5;" width="107" x="117.5" y="84.6699"/><ellipse cx="132.5" cy="100.6699" fill="#ADD1B2" rx="11" ry="11" style="stroke:#181818;stroke-width:1.0;"/><path d="M131.9688,107.5918 Q130.2188,107.5918 129.0781,106.8574 Q127.9531,106.1074 127.3906,104.7636 Q126.8438,103.4043 126.8438,101.6074 Q126.8438,99.5761 127.5,98.123 Q128.1563,96.6699 129.4375,95.8886 Q130.7188,95.1074 132.5938,95.1074 Q133.4844,95.1074 134.1563,95.2949 Q134.8281,95.4668 135.5156,95.8105 L134.7031,97.8261 Q134.0781,97.5136 133.5313,97.3886 Q133,97.2636 132.5156,97.2636 Q131.3438,97.2636 130.6406,97.7949 Q129.9375,98.3261 129.6406,99.2793 Q129.3438,100.2324 129.3438,101.498 Q129.3438,103.5136 130.0625,104.4824 Q130.7813,105.4355 132.375,105.4355 Q132.9688,105.4355 133.5938,105.2793 Q134.2188,105.123 135.0469,104.748 L135.0469,106.9668 Q134.3125,107.2793 133.5156,107.4355 Q132.7344,107.5918 131.9688,107.5918 Z " fill="#000000"/><text fill="#000000" font-family="sans-serif" font-size="14" lengthAdjust="spacing" textLength="65" x="146.5" y="106.1019">ModelList</text><rect fill="#FFFFFF" height="18.3441" style="stroke:#181818;stroke-width:1.0;stroke-dasharray:2.0,2.0;" width="8" x="219.5" y="81.6699"/><text fill="#000000" font-family="sans-serif" font-size="12" font-style="italic" lengthAdjust="spacing" textLength="6" x="220.5" y="95.498">T</text></g><!--class PersonList--><g id="elem_PersonList"><rect codeLine="32" fill="#F1F1F1" height="32" id="PersonList" rx="2.5" ry="2.5" style="stroke:#181818;stroke-width:0.5;" width="101" x="241.5" y="176.6699"/><ellipse cx="256.5" cy="192.6699" fill="#ADD1B2" rx="11" ry="11" style="stroke:#181818;stroke-width:1.0;"/><path d="M255.9688,199.5918 Q254.2188,199.5918 253.0781,198.8574 Q251.9531,198.1074 251.3906,196.7636 Q250.8438,195.4043 250.8438,193.6074 Q250.8438,191.5761 251.5,190.123 Q252.1563,188.6699 253.4375,187.8886 Q254.7188,187.1074 256.5938,187.1074 Q257.4844,187.1074 258.1563,187.2949 Q258.8281,187.4668 259.5156,187.8105 L258.7031,189.8261 Q258.0781,189.5136 257.5313,189.3886 Q257,189.2636 256.5156,189.2636 Q255.3438,189.2636 254.6406,189.7949 Q253.9375,190.3261 253.6406,191.2793 Q253.3438,192.2324 253.3438,193.498 Q253.3438,195.5136 254.0625,196.4824 Q254.7813,197.4355 256.375,197.4355 Q256.9688,197.4355 257.5938,197.2793 Q258.2188,197.123 259.0469,196.748 L259.0469,198.9668 Q258.3125,199.2793 257.5156,199.4355 Q256.7344,199.5918 255.9688,199.5918 Z " fill="#000000"/><text fill="#000000" font-family="sans-serif" font-size="14" lengthAdjust="spacing" textLength="69" x="270.5" y="198.1019">PersonList</text></g><!--class Building--><g id="elem_Building"><rect codeLine="37" fill="#F1F1F1" height="32" id="Building" rx="2.5" ry="2.5" style="stroke:#181818;stroke-width:0.5;" width="89" x="509.5" y="286.6699"/><ellipse cx="524.5" cy="302.6699" fill="#ADD1B2" rx="11" ry="11" style="stroke:#181818;stroke-width:1.0;"/><path d="M523.9688,309.5918 Q522.2188,309.5918 521.0781,308.8574 Q519.9531,308.1074 519.3906,306.7636 Q518.8438,305.4043 518.8438,303.6074 Q518.8438,301.5761 519.5,300.123 Q520.1563,298.6699 521.4375,297.8886 Q522.7188,297.1074 524.5938,297.1074 Q525.4844,297.1074 526.1563,297.2949 Q526.8281,297.4668 527.5156,297.8105 L526.7031,299.8261 Q526.0781,299.5136 525.5313,299.3886 Q525,299.2636 524.5156,299.2636 Q523.3438,299.2636 522.6406,299.7949 Q521.9375,300.3261 521.6406,301.2793 Q521.3438,302.2324 521.3438,303.498 Q521.3438,305.5136 522.0625,306.4824 Q522.7813,307.4355 524.375,307.4355 Q524.9688,307.4355 525.5938,307.2793 Q526.2188,307.123 527.0469,306.748 L527.0469,308.9668 Q526.3125,309.2793 525.5156,309.4355 Q524.7344,309.5918 523.9688,309.5918 Z " fill="#000000"/><text fill="#000000" font-family="sans-serif" font-size="14" lengthAdjust="spacing" textLength="57" x="538.5" y="308.1019">Building</text></g><!--class ControlPanel--><g id="elem_ControlPanel"><rect codeLine="40" fill="#F1F1F1" height="32" id="ControlPanel" rx="2.5" ry="2.5" style="stroke:#181818;stroke-width:0.5;" width="118" x="123" y="286.6699"/><ellipse cx="138" cy="302.6699" fill="#ADD1B2" rx="11" ry="11" style="stroke:#181818;stroke-width:1.0;"/><path d="M137.4688,309.5918 Q135.7188,309.5918 134.5781,308.8574 Q133.4531,308.1074 132.8906,306.7636 Q132.3438,305.4043 132.3438,303.6074 Q132.3438,301.5761 133,300.123 Q133.6563,298.6699 134.9375,297.8886 Q136.2188,297.1074 138.0938,297.1074 Q138.9844,297.1074 139.6563,297.2949 Q140.3281,297.4668 141.0156,297.8105 L140.2031,299.8261 Q139.5781,299.5136 139.0313,299.3886 Q138.5,299.2636 138.0156,299.2636 Q136.8438,299.2636 136.1406,299.7949 Q135.4375,300.3261 135.1406,301.2793 Q134.8438,302.2324 134.8438,303.498 Q134.8438,305.5136 135.5625,306.4824 Q136.2813,307.4355 137.875,307.4355 Q138.4688,307.4355 139.0938,307.2793 Q139.7188,307.123 140.5469,306.748 L140.5469,308.9668 Q139.8125,309.2793 139.0156,309.4355 Q138.2344,309.5918 137.4688,309.5918 Z " fill="#000000"/><text fill="#000000" font-family="sans-serif" font-size="14" lengthAdjust="spacing" textLength="86" x="152" y="308.1019">ControlPanel</text></g><!--class Elevator--><g id="elem_Elevator"><rect codeLine="43" fill="#F1F1F1" height="32" id="Elevator" rx="2.5" ry="2.5" style="stroke:#181818;stroke-width:0.5;" width="86" x="389" y="286.6699"/><ellipse cx="404" cy="302.6699" fill="#ADD1B2" rx="11" ry="11" style="stroke:#181818;stroke-width:1.0;"/><path d="M403.4688,309.5918 Q401.7188,309.5918 400.5781,308.8574 Q399.4531,308.1074 398.8906,306.7636 Q398.3438,305.4043 398.3438,303.6074 Q398.3438,301.5761 399,300.123 Q399.6563,298.6699 400.9375,297.8886 Q402.2188,297.1074 404.0938,297.1074 Q404.9844,297.1074 405.6563,297.2949 Q406.3281,297.4668 407.0156,297.8105 L406.2031,299.8261 Q405.5781,299.5136 405.0313,299.3886 Q404.5,299.2636 404.0156,299.2636 Q402.8438,299.2636 402.1406,299.7949 Q401.4375,300.3261 401.1406,301.2793 Q400.8438,302.2324 400.8438,303.498 Q400.8438,305.5136 401.5625,306.4824 Q402.2813,307.4355 403.875,307.4355 Q404.4688,307.4355 405.0938,307.2793 Q405.7188,307.123 406.5469,306.748 L406.5469,308.9668 Q405.8125,309.2793 405.0156,309.4355 Q404.2344,309.5918 403.4688,309.5918 Z " fill="#000000"/><text fill="#000000" font-family="sans-serif" font-size="14" lengthAdjust="spacing" textLength="54" x="418" y="308.1019">Elevator</text></g><!--class ElevatorRequest--><g id="elem_ElevatorRequest"><rect codeLine="46" fill="#F1F1F1" height="32" id="ElevatorRequest" rx="2.5" ry="2.5" style="stroke:#181818;stroke-width:0.5;" width="141" x="633.5" y="286.6699"/><ellipse cx="648.5" cy="302.6699" fill="#ADD1B2" rx="11" ry="11" style="stroke:#181818;stroke-width:1.0;"/><path d="M647.9688,309.5918 Q646.2188,309.5918 645.0781,308.8574 Q643.9531,308.1074 643.3906,306.7636 Q642.8438,305.4043 642.8438,303.6074 Q642.8438,301.5761 643.5,300.123 Q644.1563,298.6699 645.4375,297.8886 Q646.7188,297.1074 648.5938,297.1074 Q649.4844,297.1074 650.1563,297.2949 Q650.8281,297.4668 651.5156,297.8105 L650.7031,299.8261 Q650.0781,299.5136 649.5313,299.3886 Q649,299.2636 648.5156,299.2636 Q647.3438,299.2636 646.6406,299.7949 Q645.9375,300.3261 645.6406,301.2793 Q645.3438,302.2324 645.3438,303.498 Q645.3438,305.5136 646.0625,306.4824 Q646.7813,307.4355 648.375,307.4355 Q648.9688,307.4355 649.5938,307.2793 Q650.2188,307.123 651.0469,306.748 L651.0469,308.9668 Q650.3125,309.2793 649.5156,309.4355 Q648.7344,309.5918 647.9688,309.5918 Z " fill="#000000"/><text fill="#000000" font-family="sans-serif" font-size="14" lengthAdjust="spacing" textLength="109" x="662.5" y="308.1019">ElevatorRequest</text></g><!--class Person--><g id="elem_Person"><rect codeLine="49" fill="#F1F1F1" height="32" id="Person" rx="2.5" ry="2.5" style="stroke:#181818;stroke-width:0.5;" width="78" x="276" y="286.6699"/><ellipse cx="291" cy="302.6699" fill="#ADD1B2" rx="11" ry="11" style="stroke:#181818;stroke-width:1.0;"/><path d="M290.4688,309.5918 Q288.7188,309.5918 287.5781,308.8574 Q286.4531,308.1074 285.8906,306.7636 Q285.3438,305.4043 285.3438,303.6074 Q285.3438,301.5761 286,300.123 Q286.6563,298.6699 287.9375,297.8886 Q289.2188,297.1074 291.0938,297.1074 Q291.9844,297.1074 292.6563,297.2949 Q293.3281,297.4668 294.0156,297.8105 L293.2031,299.8261 Q292.5781,299.5136 292.0313,299.3886 Q291.5,299.2636 291.0156,299.2636 Q289.8438,299.2636 289.1406,299.7949 Q288.4375,300.3261 288.1406,301.2793 Q287.8438,302.2324 287.8438,303.498 Q287.8438,305.5136 288.5625,306.4824 Q289.2813,307.4355 290.875,307.4355 Q291.4688,307.4355 292.0938,307.2793 Q292.7188,307.123 293.5469,306.748 L293.5469,308.9668 Q292.8125,309.2793 292.0156,309.4355 Q291.2344,309.5918 290.4688,309.5918 Z " fill="#000000"/><text fill="#000000" font-family="sans-serif" font-size="14" lengthAdjust="spacing" textLength="46" x="305" y="308.1019">Person</text></g><!--class Floor--><g id="elem_Floor"><rect codeLine="52" fill="#F1F1F1" height="32" id="Floor" rx="2.5" ry="2.5" style="stroke:#181818;stroke-width:0.5;" width="65" x="22.5" y="286.6699"/><ellipse cx="37.5" cy="302.6699" fill="#ADD1B2" rx="11" ry="11" style="stroke:#181818;stroke-width:1.0;"/><path d="M36.9688,309.5918 Q35.2188,309.5918 34.0781,308.8574 Q32.9531,308.1074 32.3906,306.7636 Q31.8438,305.4043 31.8438,303.6074 Q31.8438,301.5761 32.5,300.123 Q33.1563,298.6699 34.4375,297.8886 Q35.7188,297.1074 37.5938,297.1074 Q38.4844,297.1074 39.1563,297.2949 Q39.8281,297.4668 40.5156,297.8105 L39.7031,299.8261 Q39.0781,299.5136 38.5313,299.3886 Q38,299.2636 37.5156,299.2636 Q36.3438,299.2636 35.6406,299.7949 Q34.9375,300.3261 34.6406,301.2793 Q34.3438,302.2324 34.3438,303.498 Q34.3438,305.5136 35.0625,306.4824 Q35.7813,307.4355 37.375,307.4355 Q37.9688,307.4355 38.5938,307.2793 Q39.2188,307.123 40.0469,306.748 L40.0469,308.9668 Q39.3125,309.2793 38.5156,309.4355 Q37.7344,309.5918 36.9688,309.5918 Z " fill="#000000"/><text fill="#000000" font-family="sans-serif" font-size="14" lengthAdjust="spacing" textLength="33" x="51.5" y="308.1019">Floor</text></g><!--class FloorRequest--><g id="elem_FloorRequest"><rect codeLine="55" fill="#F1F1F1" height="32" id="FloorRequest" rx="2.5" ry="2.5" style="stroke:#181818;stroke-width:0.5;" width="120" x="810" y="286.6699"/><ellipse cx="825" cy="302.6699" fill="#ADD1B2" rx="11" ry="11" style="stroke:#181818;stroke-width:1.0;"/><path d="M824.4688,309.5918 Q822.7188,309.5918 821.5781,308.8574 Q820.4531,308.1074 819.8906,306.7636 Q819.3438,305.4043 819.3438,303.6074 Q819.3438,301.5761 820,300.123 Q820.6563,298.6699 821.9375,297.8886 Q823.2188,297.1074 825.0938,297.1074 Q825.9844,297.1074 826.6563,297.2949 Q827.3281,297.4668 828.0156,297.8105 L827.2031,299.8261 Q826.5781,299.5136 826.0313,299.3886 Q825.5,299.2636 825.0156,299.2636 Q823.8438,299.2636 823.1406,299.7949 Q822.4375,300.3261 822.1406,301.2793 Q821.8438,302.2324 821.8438,303.498 Q821.8438,305.5136 822.5625,306.4824 Q823.2813,307.4355 824.875,307.4355 Q825.4688,307.4355 826.0938,307.2793 Q826.7188,307.123 827.5469,306.748 L827.5469,308.9668 Q826.8125,309.2793 826.0156,309.4355 Q825.2344,309.5918 824.4688,309.5918 Z " fill="#000000"/><text fill="#000000" font-family="sans-serif" font-size="14" lengthAdjust="spacing" textLength="88" x="839" y="308.1019">FloorRequest</text></g><!--reverse link FloorList to Floor--><g id="link_FloorList_Floor"><path codeLine="60" d="M131.9346,216.4688 C120.7246,225.2288 116.32,229.3199 105,240.6699 C90.59,255.1199 76.02,273.4099 66.35,286.1799 " fill="none" id="FloorList-backto-Floor" style="stroke:#181818;stroke-width:1.0;"/><polygon fill="none" points="141.39,209.0799,134.1993,209.6225,131.9346,216.4688,139.1253,215.9261,141.39,209.0799" style="stroke:#181818;stroke-width:1.0;"/></g><!--link ModelList to FloorList--><g id="link_ModelList_FloorList"><path codeLine="61" d="M169.47,116.9399 C167.82,133.4899 166.3855,147.8096 164.7255,164.3896 " fill="none" id="ModelList-to-FloorList" style="stroke:#181818;stroke-width:1.0;"/><polygon fill="#181818" points="163.53,176.3299,168.1078,170.7582,164.7255,164.3896,160.1476,169.9613,163.53,176.3299" style="stroke:#181818;stroke-width:1.0;"/></g><!--reverse link ElevatorList to Elevator--><g id="link_ElevatorList_Elevator"><path codeLine="62" d="M432,221.1399 C432,241.6699 432,265.7099 432,286.2199 " fill="none" id="ElevatorList-backto-Elevator" style="stroke:#181818;stroke-width:1.0;"/><polygon fill="none" points="432,209.1399,428,215.1399,432,221.1399,436,215.1399,432,209.1399" style="stroke:#181818;stroke-width:1.0;"/></g><!--link ModelList to ElevatorList--><g id="link_ModelList_ElevatorList"><path codeLine="63" d="M215.87,117.1399 C263.82,133.6799 328.046,155.8167 375.936,172.3367 " fill="none" id="ModelList-to-ElevatorList" style="stroke:#181818;stroke-width:1.0;"/><polygon fill="#181818" points="387.28,176.2499,382.9124,170.512,375.936,172.3367,380.3036,178.0746,387.28,176.2499" style="stroke:#181818;stroke-width:1.0;"/></g><!--reverse link Elevator to FloorsToGoList--><g id="link_Elevator_FloorsToGoList"><path codeLine="64" d="M453.5639,277.3641 C465.2339,264.4741 474.83,254.8699 492,240.6699 C496.94,236.5899 500.98,238.3199 504,232.6699 C515.74,210.7299 517.81,197.3799 504,176.6699 C489.4,154.7699 426.12,131.7999 378.69,117.1499 " fill="none" id="Elevator-backto-FloorsToGoList" style="stroke:#181818;stroke-width:1.0;"/><polygon fill="#181818" points="445.51,286.2599,452.5022,284.4966,453.5639,277.3641,446.5717,279.1274,445.51,286.2599" style="stroke:#181818;stroke-width:1.0;"/></g><!--reverse link FloorRequestList to FloorRequest--><g id="link_FloorRequestList_FloorRequest"><path codeLine="65" d="M829.3555,128.7116 C838.1055,165.9416 857.62,248.9699 866.38,286.2599 " fill="none" id="FloorRequestList-backto-FloorRequest" style="stroke:#181818;stroke-width:1.0;"/><polygon fill="#181818" points="826.61,117.0299,824.0888,123.7859,829.3555,128.7116,831.8767,121.9556,826.61,117.0299" style="stroke:#181818;stroke-width:1.0;"/></g><!--reverse link ElevatorRequestList to ElevatorRequest--><g id="link_ElevatorRequestList_ElevatorRequest"><path codeLine="66" d="M643.3441,128.3562 C656.3741,165.5862 685.56,248.9699 698.61,286.2599 " fill="none" id="ElevatorRequestList-backto-ElevatorRequest" style="stroke:#181818;stroke-width:1.0;"/><polygon fill="#181818" points="639.38,117.0299,637.5866,124.0144,643.3441,128.3562,645.1375,121.3717,639.38,117.0299" style="stroke:#181818;stroke-width:1.0;"/></g><!--reverse link PersonList to Person--><g id="link_PersonList_Person"><path codeLine="67" d="M297.7983,220.8769 C302.1683,241.4069 307.34,265.7099 311.71,286.2199 " fill="none" id="PersonList-backto-Person" style="stroke:#181818;stroke-width:1.0;"/><polygon fill="none" points="295.3,209.1399,292.6368,215.8412,297.7983,220.8769,300.4615,214.1756,295.3,209.1399" style="stroke:#181818;stroke-width:1.0;"/></g><!--link ModelList to PersonList--><g id="link_ModelList_PersonList"><path codeLine="68" d="M191.8,117.1399 C214.1,133.7299 239.6525,152.7267 261.8425,169.2367 " fill="none" id="ModelList-to-PersonList" style="stroke:#181818;stroke-width:1.0;"/><polygon fill="#181818" points="271.47,176.3999,269.044,169.6091,261.8425,169.2367,264.2685,176.0275,271.47,176.3999" style="stroke:#181818;stroke-width:1.0;"/></g><!--link Counters to Building--><g id="link_Counters_Building"><path codeLine="69" d="M502.32,116.9799 C524.74,129.5499 552.83,149.6799 566,176.6699 C583.68,212.9199 573.7646,250.8281 564.5646,275.2881 " fill="none" id="Counters-to-Building" style="stroke:#181818;stroke-width:1.0;"/><polygon fill="#181818" points="560.34,286.5199,566.1962,282.3122,564.5646,275.2881,558.7083,279.4958,560.34,286.5199" style="stroke:#181818;stroke-width:1.0;"/></g><!--SRC=[ZLB9JiCm4BtFLrZY0aZv0uH4mt81L9N-m92CKYkE9_L2XL3_7QT9cuMurCh5RxFpnauwHU9HOc6mGf6JU31RBnrbpXkyVfNMeHKhKfX9rcHl06mfTOr1Bdv0XFNEZXQObOLXh_EK5HjnjTk4Z8-AIu8zm4Q6OAfgzoqggZx9M80wMB0WqHnXkwXCeRKY3JakQ3em-7lkIT4NEZQDwno_egqdwsAoPyNnZ0DvIO1Tyml756-Sash8k_Nz7ByCVyXwvDxthHpSureMNgfSwc8kB6Nj3AibQbBdQhcWilXTeptyLsBFXw-ldfESTpfffGFyDl5rqlS7evaVJKTmpCQiWKWcCuC_OpvfEX3c7bCZck0m62K7kjqEqUcrJgDiYUE3Xry0]--></g></svg>