<?xml version="1.0" encoding="UTF-8" standalone="no"?><svg xmlns="http://www.w3.org/2000/svg" xmlns:xlink="http://www.w3.org/1999/xlink" contentStyleType="text/css" height="686px" preserveAspectRatio="none" style="width:710px;height:686px;background:#FFFFFF;" version="1.1" viewBox="0 0 710 686" width="710px" zoomAndPan="magnify"><defs/><g><rect fill="none" height="26.2969" id="_title" style="stroke:none;stroke-width:1.0;" width="165" x="265.805" y="5"/><text fill="#000000" font-family="sans-serif" font-size="14" font-weight="bold" lengthAdjust="spacing" textLength="155" x="270.805" y="22.9951">Diagrama de Clases</text><!--MD5=[8c9a2db8979f76c501b24932f858839e]
class ASCENSOR--><g id="elem_ASCENSOR"><rect codeLine="10" fill="#F1F1F1" height="137.7813" id="ASCENSOR" rx="2.5" ry="2.5" style="stroke:#181818;stroke-width:0.5;" width="184" x="175.11" y="541.2969"/><ellipse cx="224.36" cy="557.2969" fill="#ADD1B2" rx="11" ry="11" style="stroke:#181818;stroke-width:1.0;"/><path d="M227.3288,562.9375 Q226.7506,563.2344 226.11,563.375 Q225.4694,563.5313 224.7663,563.5313 Q222.2663,563.5313 220.9381,561.8906 Q219.6256,560.2344 219.6256,557.1094 Q219.6256,553.9844 220.9381,552.3281 Q222.2663,550.6719 224.7663,550.6719 Q225.4694,550.6719 226.11,550.8281 Q226.7663,550.9844 227.3288,551.2813 L227.3288,554 Q226.7038,553.4219 226.11,553.1563 Q225.5163,552.875 224.8913,552.875 Q223.5475,552.875 222.86,553.9531 Q222.1725,555.0156 222.1725,557.1094 Q222.1725,559.2031 222.86,560.2813 Q223.5475,561.3438 224.8913,561.3438 Q225.5163,561.3438 226.11,561.0781 Q226.7038,560.7969 227.3288,560.2188 L227.3288,562.9375 Z " fill="#000000"/><text fill="#000000" font-family="sans-serif" font-size="14" lengthAdjust="spacing" textLength="77" x="244.86" y="562.1436">ASCENSOR</text><line style="stroke:#181818;stroke-width:0.5;" x1="176.11" x2="358.11" y1="573.2969" y2="573.2969"/><text fill="#000000" font-family="sans-serif" font-size="14" lengthAdjust="spacing" textLength="14" x="181.11" y="590.292">ID</text><text fill="#000000" font-family="sans-serif" font-size="14" lengthAdjust="spacing" textLength="60" x="181.11" y="606.5889">ID Planta</text><text fill="#000000" font-family="sans-serif" font-size="14" lengthAdjust="spacing" textLength="172" x="181.11" y="622.8857">Personas en el Ascensor</text><text fill="#000000" font-family="sans-serif" font-size="14" lengthAdjust="spacing" textLength="72" x="181.11" y="639.1826">Capacidad</text><text fill="#000000" font-family="sans-serif" font-size="14" lengthAdjust="spacing" textLength="65" x="181.11" y="655.4795">Dirección</text><text fill="#000000" font-family="sans-serif" font-size="14" lengthAdjust="spacing" textLength="51" x="181.11" y="671.7764">Acceso</text></g><!--MD5=[d3cfdca785419b1510f191abb67ac6f8]
class PERSONA--><g id="elem_PERSONA"><rect codeLine="20" fill="#F1F1F1" height="88.8906" id="PERSONA" rx="2.5" ry="2.5" style="stroke:#181818;stroke-width:0.5;" width="132" x="312.11" y="44.2969"/><ellipse cx="341.96" cy="60.2969" fill="#ADD1B2" rx="11" ry="11" style="stroke:#181818;stroke-width:1.0;"/><path d="M344.9288,65.9375 Q344.3506,66.2344 343.71,66.375 Q343.0694,66.5313 342.3663,66.5313 Q339.8663,66.5313 338.5381,64.8906 Q337.2256,63.2344 337.2256,60.1094 Q337.2256,56.9844 338.5381,55.3281 Q339.8663,53.6719 342.3663,53.6719 Q343.0694,53.6719 343.71,53.8281 Q344.3663,53.9844 344.9288,54.2813 L344.9288,57 Q344.3038,56.4219 343.71,56.1563 Q343.1163,55.875 342.4913,55.875 Q341.1475,55.875 340.46,56.9531 Q339.7725,58.0156 339.7725,60.1094 Q339.7725,62.2031 340.46,63.2813 Q341.1475,64.3438 342.4913,64.3438 Q343.1163,64.3438 343.71,64.0781 Q344.3038,63.7969 344.9288,63.2188 L344.9288,65.9375 Z " fill="#000000"/><text fill="#000000" font-family="sans-serif" font-size="14" lengthAdjust="spacing" textLength="67" x="359.26" y="65.1436">PERSONA</text><line style="stroke:#181818;stroke-width:0.5;" x1="313.11" x2="443.11" y1="76.2969" y2="76.2969"/><text fill="#000000" font-family="sans-serif" font-size="14" lengthAdjust="spacing" textLength="60" x="318.11" y="93.292">ID Planta</text><text fill="#000000" font-family="sans-serif" font-size="14" lengthAdjust="spacing" textLength="120" x="318.11" y="109.5889">Tiempo en Planta</text><text fill="#000000" font-family="sans-serif" font-size="14" lengthAdjust="spacing" textLength="54" x="318.11" y="125.8857">Destino</text></g><!--MD5=[1c3b580ea3dfb06c1c32c5ff916d0fae]
class CUADRO DE MANDO--><g id="elem_CUADRO DE MANDO"><rect codeLine="27" fill="#F1F1F1" height="72.5938" id="CUADRO DE MANDO" rx="2.5" ry="2.5" style="stroke:#181818;stroke-width:0.5;" width="174" x="180.11" y="383.2969"/><ellipse cx="195.11" cy="399.2969" fill="#ADD1B2" rx="11" ry="11" style="stroke:#181818;stroke-width:1.0;"/><path d="M198.0788,404.9375 Q197.5006,405.2344 196.86,405.375 Q196.2194,405.5313 195.5163,405.5313 Q193.0163,405.5313 191.6881,403.8906 Q190.3756,402.2344 190.3756,399.1094 Q190.3756,395.9844 191.6881,394.3281 Q193.0163,392.6719 195.5163,392.6719 Q196.2194,392.6719 196.86,392.8281 Q197.5163,392.9844 198.0788,393.2813 L198.0788,396 Q197.4538,395.4219 196.86,395.1563 Q196.2663,394.875 195.6413,394.875 Q194.2975,394.875 193.61,395.9531 Q192.9225,397.0156 192.9225,399.1094 Q192.9225,401.2031 193.61,402.2813 Q194.2975,403.3438 195.6413,403.3438 Q196.2663,403.3438 196.86,403.0781 Q197.4538,402.7969 198.0788,402.2188 L198.0788,404.9375 Z " fill="#000000"/><text fill="#000000" font-family="sans-serif" font-size="14" lengthAdjust="spacing" textLength="142" x="209.11" y="404.1436">CUADRO DE MANDO</text><line style="stroke:#181818;stroke-width:0.5;" x1="181.11" x2="353.11" y1="415.2969" y2="415.2969"/><text fill="#000000" font-family="sans-serif" font-size="14" lengthAdjust="spacing" textLength="148" x="186.11" y="432.292">Solicitudes de Parada</text><text fill="#000000" font-family="sans-serif" font-size="14" lengthAdjust="spacing" textLength="155" x="186.11" y="448.5889">Solicitudes de Destino</text></g><!--MD5=[e9656941bdc1406c09b5d558323b2820]
class PLANTA--><g id="elem_PLANTA"><rect codeLine="38" fill="#F1F1F1" height="121.4844" id="PLANTA" rx="2.5" ry="2.5" style="stroke:#181818;stroke-width:0.5;" width="227" x="476.61" y="549.7969"/><ellipse cx="559.36" cy="565.7969" fill="#ADD1B2" rx="11" ry="11" style="stroke:#181818;stroke-width:1.0;"/><path d="M562.3288,571.4375 Q561.7506,571.7344 561.11,571.875 Q560.4694,572.0313 559.7663,572.0313 Q557.2663,572.0313 555.9381,570.3906 Q554.6256,568.7344 554.6256,565.6094 Q554.6256,562.4844 555.9381,560.8281 Q557.2663,559.1719 559.7663,559.1719 Q560.4694,559.1719 561.11,559.3281 Q561.7663,559.4844 562.3288,559.7813 L562.3288,562.5 Q561.7038,561.9219 561.11,561.6563 Q560.5163,561.375 559.8913,561.375 Q558.5475,561.375 557.86,562.4531 Q557.1725,563.5156 557.1725,565.6094 Q557.1725,567.7031 557.86,568.7813 Q558.5475,569.8438 559.8913,569.8438 Q560.5163,569.8438 561.11,569.5781 Q561.7038,569.2969 562.3288,568.7188 L562.3288,571.4375 Z " fill="#000000"/><text fill="#000000" font-family="sans-serif" font-size="14" lengthAdjust="spacing" textLength="53" x="579.86" y="570.6436">PLANTA</text><line style="stroke:#181818;stroke-width:0.5;" x1="477.61" x2="702.61" y1="581.7969" y2="581.7969"/><text fill="#000000" font-family="sans-serif" font-size="14" lengthAdjust="spacing" textLength="14" x="482.61" y="598.792">ID</text><text fill="#000000" font-family="sans-serif" font-size="14" lengthAdjust="spacing" textLength="101" x="482.61" y="615.0889">Nombre Planta</text><text fill="#000000" font-family="sans-serif" font-size="14" lengthAdjust="spacing" textLength="133" x="482.61" y="631.3857">Personas en Planta</text><text fill="#000000" font-family="sans-serif" font-size="14" lengthAdjust="spacing" textLength="215" x="482.61" y="647.6826">Personas Cambiando de Planta</text><text fill="#000000" font-family="sans-serif" font-size="14" lengthAdjust="spacing" textLength="51" x="482.61" y="663.9795">Acceso</text></g><!--MD5=[ec927a89e342e7a42e4934ca5be2fc30]
class EDIFICIO--><g id="elem_EDIFICIO"><rect codeLine="47" fill="#F1F1F1" height="88.8906" id="EDIFICIO" rx="2.5" ry="2.5" style="stroke:#181818;stroke-width:0.5;" width="94" x="482.11" y="375.2969"/><ellipse cx="498.91" cy="391.2969" fill="#ADD1B2" rx="11" ry="11" style="stroke:#181818;stroke-width:1.0;"/><path d="M501.8788,396.9375 Q501.3006,397.2344 500.66,397.375 Q500.0194,397.5313 499.3163,397.5313 Q496.8163,397.5313 495.4881,395.8906 Q494.1756,394.2344 494.1756,391.1094 Q494.1756,387.9844 495.4881,386.3281 Q496.8163,384.6719 499.3163,384.6719 Q500.0194,384.6719 500.66,384.8281 Q501.3163,384.9844 501.8788,385.2813 L501.8788,388 Q501.2538,387.4219 500.66,387.1563 Q500.0663,386.875 499.4413,386.875 Q498.0975,386.875 497.41,387.9531 Q496.7225,389.0156 496.7225,391.1094 Q496.7225,393.2031 497.41,394.2813 Q498.0975,395.3438 499.4413,395.3438 Q500.0663,395.3438 500.66,395.0781 Q501.2538,394.7969 501.8788,394.2188 L501.8788,396.9375 Z " fill="#000000"/><text fill="#000000" font-family="sans-serif" font-size="14" lengthAdjust="spacing" textLength="58" x="513.31" y="396.1436">EDIFICIO</text><line style="stroke:#181818;stroke-width:0.5;" x1="483.11" x2="575.11" y1="407.2969" y2="407.2969"/><text fill="#000000" font-family="sans-serif" font-size="14" lengthAdjust="spacing" textLength="50" x="488.11" y="424.292">Plantas</text><text fill="#000000" font-family="sans-serif" font-size="14" lengthAdjust="spacing" textLength="82" x="488.11" y="440.5889">Ascensores</text><text fill="#000000" font-family="sans-serif" font-size="14" lengthAdjust="spacing" textLength="51" x="488.11" y="456.8857">Acceso</text></g><!--MD5=[9e1b560e7e7a4a680983d646a35e6c12]
class TIEMPO--><g id="elem_TIEMPO"><rect codeLine="54" fill="#F1F1F1" height="32" id="TIEMPO" rx="2.5" ry="2.5" style="stroke:#181818;stroke-width:0.5;" width="85" x="460.61" y="163.2969"/><ellipse cx="475.61" cy="179.2969" fill="#ADD1B2" rx="11" ry="11" style="stroke:#181818;stroke-width:1.0;"/><path d="M478.5788,184.9375 Q478.0006,185.2344 477.36,185.375 Q476.7194,185.5313 476.0163,185.5313 Q473.5163,185.5313 472.1881,183.8906 Q470.8756,182.2344 470.8756,179.1094 Q470.8756,175.9844 472.1881,174.3281 Q473.5163,172.6719 476.0163,172.6719 Q476.7194,172.6719 477.36,172.8281 Q478.0163,172.9844 478.5788,173.2813 L478.5788,176 Q477.9538,175.4219 477.36,175.1563 Q476.7663,174.875 476.1413,174.875 Q474.7975,174.875 474.11,175.9531 Q473.4225,177.0156 473.4225,179.1094 Q473.4225,181.2031 474.11,182.2813 Q474.7975,183.3438 476.1413,183.3438 Q476.7663,183.3438 477.36,183.0781 Q477.9538,182.7969 478.5788,182.2188 L478.5788,184.9375 Z " fill="#000000"/><text fill="#000000" font-family="sans-serif" font-size="14" lengthAdjust="spacing" textLength="53" x="489.61" y="184.1436">TIEMPO</text></g><!--MD5=[c0a1b8b50003b5370ad443b5580afbba]
class SOLICITUD PARADA--><g id="elem_SOLICITUD PARADA"><rect codeLine="59" fill="#F1F1F1" height="72.5938" id="SOLICITUD PARADA" rx="2.5" ry="2.5" style="stroke:#181818;stroke-width:0.5;" width="166" x="91.11" y="225.2969"/><ellipse cx="106.11" cy="241.2969" fill="#ADD1B2" rx="11" ry="11" style="stroke:#181818;stroke-width:1.0;"/><path d="M109.0788,246.9375 Q108.5006,247.2344 107.86,247.375 Q107.2194,247.5313 106.5163,247.5313 Q104.0163,247.5313 102.6881,245.8906 Q101.3756,244.2344 101.3756,241.1094 Q101.3756,237.9844 102.6881,236.3281 Q104.0163,234.6719 106.5163,234.6719 Q107.2194,234.6719 107.86,234.8281 Q108.5163,234.9844 109.0788,235.2813 L109.0788,238 Q108.4538,237.4219 107.86,237.1563 Q107.2663,236.875 106.6413,236.875 Q105.2975,236.875 104.61,237.9531 Q103.9225,239.0156 103.9225,241.1094 Q103.9225,243.2031 104.61,244.2813 Q105.2975,245.3438 106.6413,245.3438 Q107.2663,245.3438 107.86,245.0781 Q108.4538,244.7969 109.0788,244.2188 L109.0788,246.9375 Z " fill="#000000"/><text fill="#000000" font-family="sans-serif" font-size="14" lengthAdjust="spacing" textLength="134" x="120.11" y="246.1436">SOLICITUD PARADA</text><line style="stroke:#181818;stroke-width:0.5;" x1="92.11" x2="256.11" y1="257.2969" y2="257.2969"/><text fill="#000000" font-family="sans-serif" font-size="14" lengthAdjust="spacing" textLength="46" x="97.11" y="274.292">Origen</text><text fill="#000000" font-family="sans-serif" font-size="14" lengthAdjust="spacing" textLength="79" x="97.11" y="290.5889">Movimiento</text></g><!--MD5=[b8729fb9f5f9cd2c48204a909f29b0ec]
class SOLICITUD DESTINO--><g id="elem_SOLICITUD DESTINO"><rect codeLine="65" fill="#F1F1F1" height="56.2969" id="SOLICITUD DESTINO" rx="2.5" ry="2.5" style="stroke:#181818;stroke-width:0.5;" width="171" x="292.61" y="233.7969"/><ellipse cx="307.61" cy="249.7969" fill="#ADD1B2" rx="11" ry="11" style="stroke:#181818;stroke-width:1.0;"/><path d="M310.5788,255.4375 Q310.0006,255.7344 309.36,255.875 Q308.7194,256.0313 308.0163,256.0313 Q305.5163,256.0313 304.1881,254.3906 Q302.8756,252.7344 302.8756,249.6094 Q302.8756,246.4844 304.1881,244.8281 Q305.5163,243.1719 308.0163,243.1719 Q308.7194,243.1719 309.36,243.3281 Q310.0163,243.4844 310.5788,243.7813 L310.5788,246.5 Q309.9538,245.9219 309.36,245.6563 Q308.7663,245.375 308.1413,245.375 Q306.7975,245.375 306.11,246.4531 Q305.4225,247.5156 305.4225,249.6094 Q305.4225,251.7031 306.11,252.7813 Q306.7975,253.8438 308.1413,253.8438 Q308.7663,253.8438 309.36,253.5781 Q309.9538,253.2969 310.5788,252.7188 L310.5788,255.4375 Z " fill="#000000"/><text fill="#000000" font-family="sans-serif" font-size="14" lengthAdjust="spacing" textLength="139" x="321.61" y="254.6436">SOLICITUD DESTINO</text><line style="stroke:#181818;stroke-width:0.5;" x1="293.61" x2="462.61" y1="265.7969" y2="265.7969"/><text fill="#000000" font-family="sans-serif" font-size="14" lengthAdjust="spacing" textLength="54" x="298.61" y="282.792">Destino</text></g><!--MD5=[0b6670134f42a2781dac09b40d485db6]
reverse link EDIFICIO to PLANTA--><g id="link_EDIFICIO_PLANTA"><path codeLine="71" d="M547.36,477.1769 C554.77,500.0769 563.33,526.5469 570.84,549.7469 " fill="none" id="EDIFICIO-backto-PLANTA" style="stroke:#181818;stroke-width:1.0;"/><polygon fill="#181818" points="543.26,464.5169,541.2999,471.4565,546.9517,475.9349,548.9119,468.9953,543.26,464.5169" style="stroke:#181818;stroke-width:1.0;"/><text fill="#000000" font-family="sans-serif" font-size="13" lengthAdjust="spacing" textLength="32" x="558.11" y="507.3638">tiene</text></g><!--MD5=[91e8cfb15b438917f256ec4195b97156]
reverse link EDIFICIO to ASCENSOR--><g id="link_EDIFICIO_ASCENSOR"><path codeLine="72" d="M471.19,462.4669 C438.34,486.1069 396.46,516.2369 359.21,543.0369 " fill="none" id="EDIFICIO-backto-ASCENSOR" style="stroke:#181818;stroke-width:1.0;"/><polygon fill="#181818" points="481.97,454.7169,474.7635,454.9743,472.2293,461.7254,479.4358,461.468,481.97,454.7169" style="stroke:#181818;stroke-width:1.0;"/><text fill="#000000" font-family="sans-serif" font-size="13" lengthAdjust="spacing" textLength="32" x="423.11" y="507.3638">tiene</text></g><!--MD5=[b3bcf06524bcc24179b849d384f71c52]
reverse link PLANTA to PERSONA--><g id="link_PLANTA_PERSONA"><path codeLine="73" d="M608.77,536.6969 C628.86,440.4169 647.62,270.2069 563.11,163.2969 C534.39,126.9669 485.05,108.5269 444.55,99.2069 " fill="none" id="PLANTA-backto-PERSONA" style="stroke:#181818;stroke-width:1.0;"/><polygon fill="none" points="606,549.4969,611.1765,544.4765,608.5333,537.7673,603.3568,542.7877,606,549.4969" style="stroke:#181818;stroke-width:1.0;"/><text fill="#000000" font-family="sans-serif" font-size="13" lengthAdjust="spacing" textLength="32" x="625.11" y="341.3638">tiene</text></g><!--MD5=[c7f33c7bac821c14540a2467ae70e7a4]
reverse link ASCENSOR to PLANTA--><g id="link_ASCENSOR_PLANTA"><path codeLine="74" d="M364.42,610.2969 C399.75,610.2969 439.99,610.2969 476.6,610.2969 " fill="none" id="ASCENSOR-backto-PLANTA" style="stroke:#181818;stroke-width:1.0;"/><polygon fill="#181818" points="359.24,610.2969,368.24,614.2969,364.24,610.2969,368.24,606.2969,359.24,610.2969" style="stroke:#181818;stroke-width:1.0;"/><text fill="#000000" font-family="sans-serif" font-size="13" lengthAdjust="spacing" textLength="81" x="377.36" y="603.3638">tiene acceso</text></g><!--MD5=[9006f5621949b75619ea6fa69c17e93e]
link PERSONA to ASCENSOR--><g id="link_PERSONA_ASCENSOR"><path codeLine="75" d="M311.95,98.1869 C239.23,111.3269 125.77,144.2869 73.11,225.2969 C6,328.5569 105.81,458.0969 185.37,537.2269 " fill="none" id="PERSONA-to-ASCENSOR" style="stroke:#181818;stroke-width:1.0;stroke-dasharray:7.0,7.0;"/><polygon fill="#181818" points="189.14,540.9569,185.5488,531.7861,185.5831,537.4428,179.9264,537.4771,189.14,540.9569" style="stroke:#181818;stroke-width:1.0;"/><text fill="#000000" font-family="sans-serif" font-size="13" lengthAdjust="spacing" textLength="37" x="58.11" y="341.3638">utiliza</text></g><!--MD5=[184bf691020087a9ced49be4c0a1719d]
link PERSONA to SOLICITUD PARADA--><g id="link_PERSONA_SOLICITUD PARADA"><path codeLine="77" d="M326.11,133.3869 C293.68,160.5669 252.31,195.2569 220.91,221.5669 " fill="none" id="PERSONA-to-SOLICITUD PARADA" style="stroke:#181818;stroke-width:1.0;stroke-dasharray:7.0,7.0;"/><polygon fill="#181818" points="216.74,225.0569,226.2048,222.3335,220.5694,221.8419,221.0609,216.2065,216.74,225.0569" style="stroke:#181818;stroke-width:1.0;"/><text fill="#000000" font-family="sans-serif" font-size="13" lengthAdjust="spacing" textLength="44" x="290.11" y="183.8638">solicita</text></g><!--MD5=[80d26f6736b7fd9fef411ca61715b656]
link PERSONA to SOLICITUD DESTINO--><g id="link_PERSONA_SOLICITUD DESTINO"><path codeLine="78" d="M378.11,133.3869 C378.11,162.9869 378.11,201.4769 378.11,228.3669 " fill="none" id="PERSONA-to-SOLICITUD DESTINO" style="stroke:#181818;stroke-width:1.0;stroke-dasharray:7.0,7.0;"/><polygon fill="#181818" points="378.11,233.5869,382.11,224.5869,378.11,228.5869,374.11,224.5869,378.11,233.5869" style="stroke:#181818;stroke-width:1.0;"/><text fill="#000000" font-family="sans-serif" font-size="13" lengthAdjust="spacing" textLength="44" x="379.11" y="183.8638">solicita</text></g><!--MD5=[68f104ed62e79ac2543e59c27abb811e]
link CUADRO DE MANDO to ASCENSOR--><g id="link_CUADRO DE MANDO_ASCENSOR"><path codeLine="79" d="M267.11,456.6969 C267.11,479.1169 267.11,508.8069 267.11,536.0369 " fill="none" id="CUADRO DE MANDO-to-ASCENSOR" style="stroke:#181818;stroke-width:1.0;"/><polygon fill="#181818" points="267.11,541.0969,271.11,532.0969,267.11,536.0969,263.11,532.0969,267.11,541.0969" style="stroke:#181818;stroke-width:1.0;"/><text fill="#000000" font-family="sans-serif" font-size="13" lengthAdjust="spacing" textLength="56" x="268.11" y="507.3638">gobierna</text></g><!--MD5=[6489c5f04fa768b12e51437cc53e5017]
link SOLICITUD PARADA to CUADRO DE MANDO--><g id="link_SOLICITUD PARADA_CUADRO DE MANDO"><path codeLine="80" d="M195.45,298.5869 C208.39,320.2869 225.04,348.2269 239.04,371.7069 " fill="none" id="SOLICITUD PARADA-to-CUADRO DE MANDO" style="stroke:#181818;stroke-width:1.0;"/><polygon fill="none" points="245.88,383.1769,246.2447,375.975,239.7371,372.8684,239.3724,380.0703,245.88,383.1769" style="stroke:#181818;stroke-width:1.0;"/><text fill="#000000" font-family="sans-serif" font-size="13" lengthAdjust="spacing" textLength="53" x="222.11" y="341.3638">se envía</text></g><!--MD5=[2208b99780826b8b504bf7de0c9f3fcd]
link SOLICITUD DESTINO to CUADRO DE MANDO--><g id="link_SOLICITUD DESTINO_CUADRO DE MANDO"><path codeLine="81" d="M358.78,289.9669 C342.62,312.6769 319.21,345.5769 300.1,372.4369 " fill="none" id="SOLICITUD DESTINO-to-CUADRO DE MANDO" style="stroke:#181818;stroke-width:1.0;"/><polygon fill="none" points="292.47,383.1569,299.2055,380.5814,299.4186,373.3734,292.6832,375.9489,292.47,383.1569" style="stroke:#181818;stroke-width:1.0;"/><text fill="#000000" font-family="sans-serif" font-size="13" lengthAdjust="spacing" textLength="53" x="331.11" y="341.3638">se envía</text></g><!--MD5=[0940be977c1caf7647bbdd47db0e00aa]
reverse link PERSONA to TIEMPO--><g id="link_PERSONA_TIEMPO"><path codeLine="83" d="M444.13,136.5369 C457.83,146.2369 471.3,155.7669 481.9,163.2769 " fill="none" id="PERSONA-backto-TIEMPO" style="stroke:#181818;stroke-width:1.0;stroke-dasharray:7.0,7.0;"/><polygon fill="#181818" points="439.88,133.5269,444.9237,141.9863,443.964,136.4114,449.5389,135.4518,439.88,133.5269" style="stroke:#181818;stroke-width:1.0;"/></g><!--MD5=[88d9963d84199b5478e06c48b556fc25]
link TIEMPO to EDIFICIO--><g id="link_TIEMPO_EDIFICIO"><path codeLine="84" d="M504.78,195.5769 C508.54,230.0369 517.8,315.0469 523.76,369.6469 " fill="none" id="TIEMPO-to-EDIFICIO" style="stroke:#181818;stroke-width:1.0;stroke-dasharray:7.0,7.0;"/><polygon fill="#181818" points="524.32,374.8369,527.3194,365.4559,523.7772,369.8664,519.3667,366.3243,524.32,374.8369" style="stroke:#181818;stroke-width:1.0;"/><text fill="#000000" font-family="sans-serif" font-size="13" lengthAdjust="spacing" textLength="40" x="517.11" y="266.3638">afecta</text></g><!--MD5=[fec84410c5902260a2cd889a7f12e43a]
@startuml Diagrama_de_Clases

title Diagrama de Clases

skinparam {
    NoteBackgroundColor #whiteSmoke
}

hide empty members

class ASCENSOR 
{
    ID
    ID Planta
    Personas en el Ascensor
    Capacidad
    Dirección
    Acceso
}

class PERSONA 
{
    ID Planta
    Tiempo en Planta
    Destino
}

class "CUADRO DE MANDO"
{
    Solicitudes de Parada
    Solicitudes de Destino
}

' Type	Symbol	Drawing
' Extension	<|- -	
' Composition	*- -	
' Aggregation	o- -	

class PLANTA 
{
    ID
    Nombre Planta
    Personas en Planta
    Personas Cambiando de Planta
    Acceso
}

class EDIFICIO 
{
    Plantas
    Ascensores
    Acceso
}

class TIEMPO 
{

}

class "SOLICITUD PARADA"
{
    Origen
    Movimiento
}

class "SOLICITUD DESTINO"
{
    Destino
}


EDIFICIO *- - PLANTA : tiene
EDIFICIO *- - ASCENSOR : tiene
PLANTA o- - PERSONA : tiene
PLANTA -left-> ASCENSOR : tiene acceso
PERSONA ..> ASCENSOR : utiliza

PERSONA ..> "SOLICITUD PARADA" : solicita
PERSONA ..> "SOLICITUD DESTINO" : solicita
"CUADRO DE MANDO" - -> ASCENSOR : gobierna
"SOLICITUD PARADA" - -o "CUADRO DE MANDO" : se envía
"SOLICITUD DESTINO" - -o "CUADRO DE MANDO" : se envía

TIEMPO .left.> PERSONA : afecta
TIEMPO ..> EDIFICIO : afecta

@enduml

@startuml Diagrama_de_Clases

title Diagrama de Clases

skinparam {
    NoteBackgroundColor #whiteSmoke
}

hide empty members

class ASCENSOR 
{
    ID
    ID Planta
    Personas en el Ascensor
    Capacidad
    Dirección
    Acceso
}

class PERSONA 
{
    ID Planta
    Tiempo en Planta
    Destino
}

class "CUADRO DE MANDO"
{
    Solicitudes de Parada
    Solicitudes de Destino
}


class PLANTA 
{
    ID
    Nombre Planta
    Personas en Planta
    Personas Cambiando de Planta
    Acceso
}

class EDIFICIO 
{
    Plantas
    Ascensores
    Acceso
}

class TIEMPO 
{

}

class "SOLICITUD PARADA"
{
    Origen
    Movimiento
}

class "SOLICITUD DESTINO"
{
    Destino
}


EDIFICIO *- - PLANTA : tiene
EDIFICIO *- - ASCENSOR : tiene
PLANTA o- - PERSONA : tiene
PLANTA -left-> ASCENSOR : tiene acceso
PERSONA ..> ASCENSOR : utiliza

PERSONA ..> "SOLICITUD PARADA" : solicita
PERSONA ..> "SOLICITUD DESTINO" : solicita
"CUADRO DE MANDO" - -> ASCENSOR : gobierna
"SOLICITUD PARADA" - -o "CUADRO DE MANDO" : se envía
"SOLICITUD DESTINO" - -o "CUADRO DE MANDO" : se envía

TIEMPO .left.> PERSONA : afecta
TIEMPO ..> EDIFICIO : afecta

@enduml

PlantUML version 1.2022.7(Mon Aug 22 19:01:30 CEST 2022)
(GPL source distribution)
Java Runtime: OpenJDK Runtime Environment
JVM: OpenJDK 64-Bit Server VM
Default Encoding: UTF-8
Language: en
Country: US
--></g></svg>