<?xml version="1.0" encoding="us-ascii" standalone="no"?><svg xmlns="http://www.w3.org/2000/svg" xmlns:xlink="http://www.w3.org/1999/xlink" contentStyleType="text/css" height="986px" preserveAspectRatio="none" style="width:615px;height:986px;background:#FFFFFF;" version="1.1" viewBox="0 0 615 986" width="615px" zoomAndPan="magnify"><defs/><g><text fill="#000000" font-family="sans-serif" font-size="14" font-weight="bold" lengthAdjust="spacing" textLength="135" x="233.335" y="24.9659">Diagrama de Clases</text><!--class ASCENSOR--><g id="elem_ASCENSOR"><rect codeLine="10" fill="#F1F1F1" height="154.4075" id="ASCENSOR" rx="2.5" ry="2.5" style="stroke:#181818;stroke-width:0.5;" width="189" x="7" y="334.2779"/><ellipse cx="60.75" cy="350.2779" fill="#ADD1B2" rx="11" ry="11" style="stroke:#181818;stroke-width:1.0;"/><path d="M60.2188,357.1998 Q58.4688,357.1998 57.3281,356.4654 Q56.2031,355.7154 55.6406,354.3717 Q55.0938,353.0123 55.0938,351.2154 Q55.0938,349.1842 55.75,347.731 Q56.4063,346.2779 57.6875,345.4967 Q58.9688,344.7154 60.8438,344.7154 Q61.7344,344.7154 62.4063,344.9029 Q63.0781,345.0748 63.7656,345.4185 L62.9531,347.4342 Q62.3281,347.1217 61.7813,346.9967 Q61.25,346.8717 60.7656,346.8717 Q59.5938,346.8717 58.8906,347.4029 Q58.1875,347.9342 57.8906,348.8873 Q57.5938,349.8404 57.5938,351.106 Q57.5938,353.1217 58.3125,354.0904 Q59.0313,355.0435 60.625,355.0435 Q61.2188,355.0435 61.8438,354.8873 Q62.4688,354.731 63.2969,354.356 L63.2969,356.5748 Q62.5625,356.8873 61.7656,357.0435 Q60.9844,357.1998 60.2188,357.1998 Z " fill="#000000"/><text fill="#000000" font-family="sans-serif" font-size="14" lengthAdjust="spacing" textLength="73" x="81.25" y="355.7099">ASCENSOR</text><line style="stroke:#181818;stroke-width:0.5;" x1="8" x2="195" y1="366.2779" y2="366.2779"/><text fill="#000000" font-family="sans-serif" font-size="14" lengthAdjust="spacing" textLength="15" x="13" y="385.2439">ID</text><text fill="#000000" font-family="sans-serif" font-size="14" lengthAdjust="spacing" textLength="61" x="13" y="404.3118">ID Planta</text><text fill="#000000" font-family="sans-serif" font-size="14" lengthAdjust="spacing" textLength="163" x="13" y="423.3797">Personas en el Ascensor</text><text fill="#000000" font-family="sans-serif" font-size="14" lengthAdjust="spacing" textLength="71" x="13" y="442.4476">Capacidad</text><text fill="#000000" font-family="sans-serif" font-size="14" lengthAdjust="spacing" textLength="63" x="13" y="461.5155">Direcci&#243;n</text><text fill="#000000" font-family="sans-serif" font-size="14" lengthAdjust="spacing" textLength="177" x="13" y="480.5834">Plantas a las que se dirige</text></g><!--class PERSONA--><g id="elem_PERSONA"><rect codeLine="20" fill="#F1F1F1" height="97.2038" id="PERSONA" rx="2.5" ry="2.5" style="stroke:#181818;stroke-width:0.5;" width="129" x="351" y="567.6779"/><ellipse cx="380.85" cy="583.6779" fill="#ADD1B2" rx="11" ry="11" style="stroke:#181818;stroke-width:1.0;"/><path d="M380.3188,590.5998 Q378.5688,590.5998 377.4281,589.8654 Q376.3031,589.1154 375.7406,587.7717 Q375.1938,586.4123 375.1938,584.6154 Q375.1938,582.5842 375.85,581.131 Q376.5063,579.6779 377.7875,578.8967 Q379.0688,578.1154 380.9438,578.1154 Q381.8344,578.1154 382.5063,578.3029 Q383.1781,578.4748 383.8656,578.8185 L383.0531,580.8342 Q382.4281,580.5217 381.8813,580.3967 Q381.35,580.2717 380.8656,580.2717 Q379.6938,580.2717 378.9906,580.8029 Q378.2875,581.3342 377.9906,582.2873 Q377.6938,583.2404 377.6938,584.506 Q377.6938,586.5217 378.4125,587.4904 Q379.1313,588.4435 380.725,588.4435 Q381.3188,588.4435 381.9438,588.2873 Q382.5688,588.131 383.3969,587.756 L383.3969,589.9748 Q382.6625,590.2873 381.8656,590.4435 Q381.0844,590.5998 380.3188,590.5998 Z " fill="#000000"/><text fill="#000000" font-family="sans-serif" font-size="14" lengthAdjust="spacing" textLength="64" x="398.15" y="589.1099">PERSONA</text><line style="stroke:#181818;stroke-width:0.5;" x1="352" x2="479" y1="599.6779" y2="599.6779"/><text fill="#000000" font-family="sans-serif" font-size="14" lengthAdjust="spacing" textLength="15" x="357" y="618.6439">ID</text><text fill="#000000" font-family="sans-serif" font-size="14" lengthAdjust="spacing" textLength="117" x="357" y="637.7118">Tiempo en Planta</text><text fill="#000000" font-family="sans-serif" font-size="14" lengthAdjust="spacing" textLength="51" x="357" y="656.7797">Destino</text></g><!--class CUADRO DE MANDO--><g id="elem_CUADRO DE MANDO"><rect codeLine="27" fill="#F1F1F1" height="78.1358" id="CUADRO DE MANDO" rx="2.5" ry="2.5" style="stroke:#181818;stroke-width:0.5;" width="170" x="171.5" y="901.0179"/><ellipse cx="186.5" cy="917.0179" fill="#ADD1B2" rx="11" ry="11" style="stroke:#181818;stroke-width:1.0;"/><path d="M185.9688,923.9398 Q184.2188,923.9398 183.0781,923.2054 Q181.9531,922.4554 181.3906,921.1117 Q180.8438,919.7523 180.8438,917.9554 Q180.8438,915.9242 181.5,914.471 Q182.1563,913.0179 183.4375,912.2367 Q184.7188,911.4554 186.5938,911.4554 Q187.4844,911.4554 188.1563,911.6429 Q188.8281,911.8148 189.5156,912.1585 L188.7031,914.1742 Q188.0781,913.8617 187.5313,913.7367 Q187,913.6117 186.5156,913.6117 Q185.3438,913.6117 184.6406,914.1429 Q183.9375,914.6742 183.6406,915.6273 Q183.3438,916.5804 183.3438,917.846 Q183.3438,919.8617 184.0625,920.8304 Q184.7813,921.7835 186.375,921.7835 Q186.9688,921.7835 187.5938,921.6273 Q188.2188,921.471 189.0469,921.096 L189.0469,923.3148 Q188.3125,923.6273 187.5156,923.7835 Q186.7344,923.9398 185.9688,923.9398 Z " fill="#000000"/><text fill="#000000" font-family="sans-serif" font-size="14" lengthAdjust="spacing" textLength="138" x="200.5" y="922.4499">CUADRO DE MANDO</text><line style="stroke:#181818;stroke-width:0.5;" x1="172.5" x2="340.5" y1="933.0179" y2="933.0179"/><text fill="#000000" font-family="sans-serif" font-size="14" lengthAdjust="spacing" textLength="145" x="177.5" y="951.9839">Solicitudes de Parada</text><text fill="#000000" font-family="sans-serif" font-size="14" lengthAdjust="spacing" textLength="149" x="177.5" y="971.0518">Solicitudes de Destino</text></g><!--class PLANTA--><g id="elem_PLANTA"><rect codeLine="33" fill="#F1F1F1" height="116.2717" id="PLANTA" rx="2.5" ry="2.5" style="stroke:#181818;stroke-width:0.5;" width="221" x="305" y="353.3379"/><ellipse cx="385.25" cy="369.3379" fill="#ADD1B2" rx="11" ry="11" style="stroke:#181818;stroke-width:1.0;"/><path d="M384.7188,376.2598 Q382.9688,376.2598 381.8281,375.5254 Q380.7031,374.7754 380.1406,373.4317 Q379.5938,372.0723 379.5938,370.2754 Q379.5938,368.2442 380.25,366.791 Q380.9063,365.3379 382.1875,364.5567 Q383.4688,363.7754 385.3438,363.7754 Q386.2344,363.7754 386.9063,363.9629 Q387.5781,364.1348 388.2656,364.4785 L387.4531,366.4942 Q386.8281,366.1817 386.2813,366.0567 Q385.75,365.9317 385.2656,365.9317 Q384.0938,365.9317 383.3906,366.4629 Q382.6875,366.9942 382.3906,367.9473 Q382.0938,368.9004 382.0938,370.166 Q382.0938,372.1817 382.8125,373.1504 Q383.5313,374.1035 385.125,374.1035 Q385.7188,374.1035 386.3438,373.9473 Q386.9688,373.791 387.7969,373.416 L387.7969,375.6348 Q387.0625,375.9473 386.2656,376.1035 Q385.4844,376.2598 384.7188,376.2598 Z " fill="#000000"/><text fill="#000000" font-family="sans-serif" font-size="14" lengthAdjust="spacing" textLength="52" x="405.75" y="374.7699">PLANTA</text><line style="stroke:#181818;stroke-width:0.5;" x1="306" x2="525" y1="385.3379" y2="385.3379"/><text fill="#000000" font-family="sans-serif" font-size="14" lengthAdjust="spacing" textLength="15" x="311" y="404.3039">ID</text><text fill="#000000" font-family="sans-serif" font-size="14" lengthAdjust="spacing" textLength="101" x="311" y="423.3718">Nombre Planta</text><text fill="#000000" font-family="sans-serif" font-size="14" lengthAdjust="spacing" textLength="128" x="311" y="442.4397">Personas en Planta</text><text fill="#000000" font-family="sans-serif" font-size="14" lengthAdjust="spacing" textLength="209" x="311" y="461.5076">Personas Cambiando de Planta</text></g><!--class EDIFICIO--><g id="elem_EDIFICIO"><rect codeLine="41" fill="#F1F1F1" height="97.2038" id="EDIFICIO" rx="2.5" ry="2.5" style="stroke:#181818;stroke-width:0.5;" width="123" x="354" y="158.0679"/><ellipse cx="382.95" cy="174.0679" fill="#ADD1B2" rx="11" ry="11" style="stroke:#181818;stroke-width:1.0;"/><path d="M382.4188,180.9898 Q380.6688,180.9898 379.5281,180.2554 Q378.4031,179.5054 377.8406,178.1617 Q377.2938,176.8023 377.2938,175.0054 Q377.2938,172.9742 377.95,171.521 Q378.6063,170.0679 379.8875,169.2867 Q381.1688,168.5054 383.0438,168.5054 Q383.9344,168.5054 384.6063,168.6929 Q385.2781,168.8648 385.9656,169.2085 L385.1531,171.2242 Q384.5281,170.9117 383.9813,170.7867 Q383.45,170.6617 382.9656,170.6617 Q381.7938,170.6617 381.0906,171.1929 Q380.3875,171.7242 380.0906,172.6773 Q379.7938,173.6304 379.7938,174.896 Q379.7938,176.9117 380.5125,177.8804 Q381.2313,178.8335 382.825,178.8335 Q383.4188,178.8335 384.0438,178.6773 Q384.6688,178.521 385.4969,178.146 L385.4969,180.3648 Q384.7625,180.6773 383.9656,180.8335 Q383.1844,180.9898 382.4188,180.9898 Z " fill="#000000"/><text fill="#000000" font-family="sans-serif" font-size="14" lengthAdjust="spacing" textLength="60" x="400.05" y="179.4999">EDIFICIO</text><line style="stroke:#181818;stroke-width:0.5;" x1="355" x2="476" y1="190.0679" y2="190.0679"/><text fill="#000000" font-family="sans-serif" font-size="14" lengthAdjust="spacing" textLength="49" x="360" y="209.0339">Plantas</text><text fill="#000000" font-family="sans-serif" font-size="14" lengthAdjust="spacing" textLength="76" x="360" y="228.1018">Ascensores</text><text fill="#000000" font-family="sans-serif" font-size="14" lengthAdjust="spacing" textLength="111" x="360" y="247.1697">Panel de Control</text></g><!--class TIEMPO--><g id="elem_TIEMPO"><rect codeLine="48" fill="#F1F1F1" height="32" id="TIEMPO" rx="2.5" ry="2.5" style="stroke:#181818;stroke-width:0.5;" width="85" x="454" y="47.0679"/><ellipse cx="469" cy="63.0679" fill="#ADD1B2" rx="11" ry="11" style="stroke:#181818;stroke-width:1.0;"/><path d="M468.4688,69.9898 Q466.7188,69.9898 465.5781,69.2554 Q464.4531,68.5054 463.8906,67.1617 Q463.3438,65.8023 463.3438,64.0054 Q463.3438,61.9742 464,60.521 Q464.6563,59.0679 465.9375,58.2867 Q467.2188,57.5054 469.0938,57.5054 Q469.9844,57.5054 470.6563,57.6929 Q471.3281,57.8648 472.0156,58.2085 L471.2031,60.2242 Q470.5781,59.9117 470.0313,59.7867 Q469.5,59.6617 469.0156,59.6617 Q467.8438,59.6617 467.1406,60.1929 Q466.4375,60.7242 466.1406,61.6773 Q465.8438,62.6304 465.8438,63.896 Q465.8438,65.9117 466.5625,66.8804 Q467.2813,67.8335 468.875,67.8335 Q469.4688,67.8335 470.0938,67.6773 Q470.7188,67.521 471.5469,67.146 L471.5469,69.3648 Q470.8125,69.6773 470.0156,69.8335 Q469.2344,69.9898 468.4688,69.9898 Z " fill="#000000"/><text fill="#000000" font-family="sans-serif" font-size="14" lengthAdjust="spacing" textLength="53" x="483" y="68.4999">TIEMPO</text></g><!--class SOLICITUD DE ASCENSOR--><g id="elem_SOLICITUD DE ASCENSOR"><rect codeLine="53" fill="#F1F1F1" height="78.1358" id="SOLICITUD DE ASCENSOR" rx="2.5" ry="2.5" style="stroke:#181818;stroke-width:0.5;" width="204" x="154.5" y="743.8879"/><ellipse cx="169.5" cy="759.8879" fill="#ADD1B2" rx="11" ry="11" style="stroke:#181818;stroke-width:1.0;"/><path d="M168.9688,766.8098 Q167.2188,766.8098 166.0781,766.0754 Q164.9531,765.3254 164.3906,763.9817 Q163.8438,762.6223 163.8438,760.8254 Q163.8438,758.7942 164.5,757.341 Q165.1563,755.8879 166.4375,755.1067 Q167.7188,754.3254 169.5938,754.3254 Q170.4844,754.3254 171.1563,754.5129 Q171.8281,754.6848 172.5156,755.0285 L171.7031,757.0442 Q171.0781,756.7317 170.5313,756.6067 Q170,756.4817 169.5156,756.4817 Q168.3438,756.4817 167.6406,757.0129 Q166.9375,757.5442 166.6406,758.4973 Q166.3438,759.4504 166.3438,760.716 Q166.3438,762.7317 167.0625,763.7004 Q167.7813,764.6535 169.375,764.6535 Q169.9688,764.6535 170.5938,764.4973 Q171.2188,764.341 172.0469,763.966 L172.0469,766.1848 Q171.3125,766.4973 170.5156,766.6535 Q169.7344,766.8098 168.9688,766.8098 Z " fill="#000000"/><text fill="#000000" font-family="sans-serif" font-size="14" lengthAdjust="spacing" textLength="172" x="183.5" y="765.3199">SOLICITUD DE ASCENSOR</text><line style="stroke:#181818;stroke-width:0.5;" x1="155.5" x2="357.5" y1="775.8879" y2="775.8879"/><text fill="#000000" font-family="sans-serif" font-size="14" lengthAdjust="spacing" textLength="47" x="160.5" y="794.8539">Origen</text><text fill="#000000" font-family="sans-serif" font-size="14" lengthAdjust="spacing" textLength="63" x="160.5" y="813.9218">Direccion</text></g><!--class SOLICITUD DESTINO--><g id="elem_SOLICITUD DESTINO"><rect codeLine="59" fill="#F1F1F1" height="78.1358" id="SOLICITUD DESTINO" rx="2.5" ry="2.5" style="stroke:#181818;stroke-width:0.5;" width="170" x="393.5" y="743.8879"/><ellipse cx="408.5" cy="759.8879" fill="#ADD1B2" rx="11" ry="11" style="stroke:#181818;stroke-width:1.0;"/><path d="M407.9688,766.8098 Q406.2188,766.8098 405.0781,766.0754 Q403.9531,765.3254 403.3906,763.9817 Q402.8438,762.6223 402.8438,760.8254 Q402.8438,758.7942 403.5,757.341 Q404.1563,755.8879 405.4375,755.1067 Q406.7188,754.3254 408.5938,754.3254 Q409.4844,754.3254 410.1563,754.5129 Q410.8281,754.6848 411.5156,755.0285 L410.7031,757.0442 Q410.0781,756.7317 409.5313,756.6067 Q409,756.4817 408.5156,756.4817 Q407.3438,756.4817 406.6406,757.0129 Q405.9375,757.5442 405.6406,758.4973 Q405.3438,759.4504 405.3438,760.716 Q405.3438,762.7317 406.0625,763.7004 Q406.7813,764.6535 408.375,764.6535 Q408.9688,764.6535 409.5938,764.4973 Q410.2188,764.341 411.0469,763.966 L411.0469,766.1848 Q410.3125,766.4973 409.5156,766.6535 Q408.7344,766.8098 407.9688,766.8098 Z " fill="#000000"/><text fill="#000000" font-family="sans-serif" font-size="14" lengthAdjust="spacing" textLength="138" x="422.5" y="765.3199">SOLICITUD DESTINO</text><line style="stroke:#181818;stroke-width:0.5;" x1="394.5" x2="562.5" y1="775.8879" y2="775.8879"/><text fill="#000000" font-family="sans-serif" font-size="14" lengthAdjust="spacing" textLength="100" x="399.5" y="794.8539">Id de Ascensor</text><text fill="#000000" font-family="sans-serif" font-size="14" lengthAdjust="spacing" textLength="51" x="399.5" y="813.9218">Destino</text></g><!--reverse link EDIFICIO to PLANTA--><g id="link_EDIFICIO_PLANTA"><path codeLine="65" d="M415.5,267.7379 C415.5,296.8979 415.5,322.2979 415.5,353.0179 " fill="none" id="EDIFICIO-backto-PLANTA" style="stroke:#181818;stroke-width:1.0;"/><polygon fill="#181818" points="415.5,255.7379,411.5,261.7379,415.5,267.7379,419.5,261.7379,415.5,255.7379" style="stroke:#181818;stroke-width:1.0;"/><text fill="#000000" font-family="sans-serif" font-size="13" lengthAdjust="spacing" textLength="30" x="416.5" y="300.1749">tiene</text></g><!--reverse link EDIFICIO to ASCENSOR--><g id="link_EDIFICIO_ASCENSOR"><path codeLine="66" d="M343.7603,254.0094 C298.9303,282.9694 247.49,316.1879 196.42,349.1779 " fill="none" id="EDIFICIO-backto-ASCENSOR" style="stroke:#181818;stroke-width:1.0;"/><polygon fill="#181818" points="353.84,247.4979,346.6297,247.3937,343.7603,254.0094,350.9706,254.1136,353.84,247.4979" style="stroke:#181818;stroke-width:1.0;"/><text fill="#000000" font-family="sans-serif" font-size="13" lengthAdjust="spacing" textLength="30" x="288.5" y="300.1749">tiene</text></g><!--reverse link PLANTA to PERSONA--><g id="link_PLANTA_PERSONA"><path codeLine="67" d="M415.5,482.0479 C415.5,512.8479 415.5,538.3279 415.5,567.4979 " fill="none" id="PLANTA-backto-PERSONA" style="stroke:#181818;stroke-width:1.0;"/><polygon fill="none" points="415.5,470.0479,411.5,476.0479,415.5,482.0479,419.5,476.0479,415.5,470.0479" style="stroke:#181818;stroke-width:1.0;"/><text fill="#000000" font-family="sans-serif" font-size="13" lengthAdjust="spacing" textLength="30" x="416.5" y="533.5749">tiene</text></g><!--reverse link ASCENSOR to PLANTA--><g id="link_ASCENSOR_PLANTA"><path codeLine="68" d="M202.14,411.4779 C236.36,411.4779 269.29,411.4779 304.77,411.4779 " fill="none" id="ASCENSOR-backto-PLANTA" style="stroke:#181818;stroke-width:1.0;"/><polygon fill="#181818" points="196.14,411.4779,205.14,415.4779,201.14,411.4779,205.14,407.4779,196.14,411.4779" style="stroke:#181818;stroke-width:1.0;"/><text fill="#000000" font-family="sans-serif" font-size="13" lengthAdjust="spacing" textLength="73" x="214" y="404.3749">tiene acceso</text></g><!--link PERSONA to ASCENSOR--><g id="link_PERSONA_ASCENSOR"><path codeLine="69" d="M350.9,573.5579 C306.26,544.7279 251.2,509.1635 201.18,476.8535 " fill="none" id="PERSONA-to-ASCENSOR" style="stroke:#181818;stroke-width:1.0;stroke-dasharray:7.0,7.0;"/><polygon fill="#181818" points="196.14,473.5979,201.5296,481.8412,200.34,476.3109,205.8703,475.1212,196.14,473.5979" style="stroke:#181818;stroke-width:1.0;"/><text fill="#000000" font-family="sans-serif" font-size="13" lengthAdjust="spacing" textLength="35" x="288.5" y="533.5749">utiliza</text></g><!--link PERSONA to SOLICITUD DE ASCENSOR--><g id="link_PERSONA_SOLICITUD DE ASCENSOR"><path codeLine="71" d="M369.08,665.3579 C345.07,690.2279 320.317,715.861 297.807,739.181 " fill="none" id="PERSONA-to-SOLICITUD DE ASCENSOR" style="stroke:#181818;stroke-width:1.0;stroke-dasharray:7.0,7.0;"/><polygon fill="#181818" points="293.64,743.4979,302.7685,739.8005,297.1125,739.9005,297.0125,734.2445,293.64,743.4979" style="stroke:#181818;stroke-width:1.0;"/><text fill="#000000" font-family="sans-serif" font-size="13" lengthAdjust="spacing" textLength="41" x="336.5" y="709.7849">solicita</text></g><!--link PERSONA to SOLICITUD DESTINO--><g id="link_PERSONA_SOLICITUD DESTINO"><path codeLine="72" d="M433.89,665.3579 C443.41,690.2279 452.7264,714.5739 461.6464,737.8939 " fill="none" id="PERSONA-to-SOLICITUD DESTINO" style="stroke:#181818;stroke-width:1.0;stroke-dasharray:7.0,7.0;"/><polygon fill="#181818" points="463.79,743.4979,464.3107,733.6628,462.0037,738.8279,456.8386,736.5209,463.79,743.4979" style="stroke:#181818;stroke-width:1.0;"/><text fill="#000000" font-family="sans-serif" font-size="13" lengthAdjust="spacing" textLength="41" x="451.5" y="709.7849">solicita</text></g><!--link CUADRO DE MANDO to ASCENSOR--><g id="link_CUADRO DE MANDO_ASCENSOR"><path codeLine="73" d="M202.76,900.6779 C178.51,880.2379 152.09,852.9579 137.5,822.0179 C86.97,714.8579 86.3993,580.4524 92.5493,494.9924 " fill="none" id="CUADRO DE MANDO-to-ASCENSOR" style="stroke:#181818;stroke-width:1.0;"/><polygon fill="#181818" points="92.98,489.0079,88.3443,497.6976,92.6211,493.995,96.3237,498.2718,92.98,489.0079" style="stroke:#181818;stroke-width:1.0;"/><text fill="#000000" font-family="sans-serif" font-size="13" lengthAdjust="spacing" textLength="54" x="104.5" y="709.7849">gobierna</text></g><!--link SOLICITUD DE ASCENSOR to CUADRO DE MANDO--><g id="link_SOLICITUD DE ASCENSOR_CUADRO DE MANDO"><path codeLine="74" d="M256.5,822.2979 C256.5,846.1679 256.5,864.7579 256.5,888.6479 " fill="none" id="SOLICITUD DE ASCENSOR-to-CUADRO DE MANDO" style="stroke:#181818;stroke-width:1.0;"/><polygon fill="none" points="256.5,900.6479,260.5,894.6479,256.5,888.6479,252.5,894.6479,256.5,900.6479" style="stroke:#181818;stroke-width:1.0;"/><text fill="#000000" font-family="sans-serif" font-size="13" lengthAdjust="spacing" textLength="48" x="257.5" y="866.9149">se env&#237;a</text></g><!--link SOLICITUD DESTINO to CUADRO DE MANDO--><g id="link_SOLICITUD DESTINO_CUADRO DE MANDO"><path codeLine="75" d="M423.34,822.4979 C389.18,846.3679 355.3162,870.0341 321.2162,893.8641 " fill="none" id="SOLICITUD DESTINO-to-CUADRO DE MANDO" style="stroke:#181818;stroke-width:1.0;"/><polygon fill="none" points="311.38,900.7379,318.5894,900.5797,321.2162,893.8641,314.0068,894.0223,311.38,900.7379" style="stroke:#181818;stroke-width:1.0;"/><text fill="#000000" font-family="sans-serif" font-size="13" lengthAdjust="spacing" textLength="48" x="381.5" y="866.9149">se env&#237;a</text></g><!--link TIEMPO to PERSONA--><g id="link_TIEMPO_PERSONA"><path codeLine="77" d="M504.28,79.5279 C508.24,88.0379 512.78,98.9179 515.5,109.0679 C559.25,272.4879 608.67,332.5679 543.5,488.6779 C530.32,520.2679 509.5225,544.0664 484.8625,565.4564 " fill="none" id="TIEMPO-to-PERSONA" style="stroke:#181818;stroke-width:1.0;stroke-dasharray:7.0,7.0;"/><polygon fill="#181818" points="480.33,569.3879,489.7497,566.5124,484.1071,566.1117,484.5078,560.469,480.33,569.3879" style="stroke:#181818;stroke-width:1.0;"/><text fill="#000000" font-family="sans-serif" font-size="13" lengthAdjust="spacing" textLength="36" x="571.5" y="300.1749">afecta</text></g><!--link TIEMPO to EDIFICIO--><g id="link_TIEMPO_EDIFICIO"><path codeLine="78" d="M487.68,79.4979 C477.02,98.1279 461.5483,125.1693 445.9783,152.3993 " fill="none" id="TIEMPO-to-EDIFICIO" style="stroke:#181818;stroke-width:1.0;stroke-dasharray:7.0,7.0;"/><polygon fill="#181818" points="443,157.6079,450.9398,151.7805,445.4819,153.2674,443.995,147.8094,443,157.6079" style="stroke:#181818;stroke-width:1.0;"/><text fill="#000000" font-family="sans-serif" font-size="13" lengthAdjust="spacing" textLength="36" x="470.5" y="123.9649">afecta</text></g><!--SRC=[XLDRZfj04FoVKxGsVv7m0V8HYO0Z8Uq2Ckm1sZEztf5XsikCTvL4ELA-SeIzM8QdmLuKVc2ehkgYkd7QLGInnaE3DO8YY2gqP8MmHsrEwD_2Bm7-IjdHDvJ7GyDdeoAkk85FRy_QKL7paSHl8PwrvrDzSZ-WfdfFZPUHNiv2M4JRjCXs87gn91vka5Te77Qdt1FOe0KoG1M4LfAnt7HOX2UKMg7gJh5kI4hz_jVqn4x30e9l1Yzd0akWTACFdQtUGhxT5LaQNZaejVVBRSUPaPYiquOltBleCOnt6SHRU0ZJEBiRH0gkjDJkhCYsqUK-BeKV8JUA-NsObjTcKgxt3Qr5yj7h2EkzHgEuQzyNJ3ssSV8zYP9ix3B4r3sFuL9_pD7unDlfit4DLnUHCja-v9t4B8uYk_V2vMFS9ZBETWmbQtCtypcnMU4MPP9EOIQgDR2O-YoswMC-1y6OtXTmcWmjiMdLHdGevfOtxC0L55Jqv8AlDrH0ASco66cRpQBcx7IbVw9Ou2lP-7BRhmIkb_Tnp4jl5W-2fSy3xpKrnbUkz0q2lbtVjeN_Kyth-vyhvc3X_omnBCP6yPln7tA95fz8UkiZxh5fFXFu3m00]--></g></svg>