<?xml version="1.0" encoding="UTF-8" standalone="no"?><svg xmlns="http://www.w3.org/2000/svg" xmlns:xlink="http://www.w3.org/1999/xlink" contentStyleType="text/css" height="739px" preserveAspectRatio="none" style="width:666px;height:739px;background:#FFFFFF;" version="1.1" viewBox="0 0 666 739" width="666px" zoomAndPan="magnify"><defs/><g><rect fill="none" height="29.0679" id="_title" style="stroke:none;stroke-width:1.0;" width="145" x="253.705" y="5"/><text fill="#000000" font-family="sans-serif" font-size="14" font-weight="bold" lengthAdjust="spacing" textLength="135" x="258.705" y="24.9659">Diagrama de Clases</text><!--MD5=[8c9a2db8979f76c501b24932f858839e]
class ASCENSOR--><g id="elem_ASCENSOR"><rect codeLine="10" fill="#F1F1F1" height="116.2717" id="ASCENSOR" rx="2.5" ry="2.5" style="stroke:#181818;stroke-width:0.5;" width="105" x="205.91" y="615.7479"/><ellipse cx="220.91" cy="631.7479" fill="#ADD1B2" rx="11" ry="11" style="stroke:#181818;stroke-width:1.0;"/><path d="M220.3788,638.6698 Q218.6288,638.6698 217.4881,637.9354 Q216.3631,637.1854 215.8006,635.8417 Q215.2538,634.4823 215.2538,632.6854 Q215.2538,630.6542 215.91,629.201 Q216.5663,627.7479 217.8475,626.9667 Q219.1288,626.1854 221.0038,626.1854 Q221.8944,626.1854 222.5663,626.3729 Q223.2381,626.5448 223.9256,626.8885 L223.1131,628.9042 Q222.4881,628.5917 221.9413,628.4667 Q221.41,628.3417 220.9256,628.3417 Q219.7538,628.3417 219.0506,628.8729 Q218.3475,629.4042 218.0506,630.3573 Q217.7538,631.3104 217.7538,632.576 Q217.7538,634.5917 218.4725,635.5604 Q219.1913,636.5135 220.785,636.5135 Q221.3788,636.5135 222.0038,636.3573 Q222.6288,636.201 223.4569,635.826 L223.4569,638.0448 Q222.7225,638.3573 221.9256,638.5135 Q221.1444,638.6698 220.3788,638.6698 Z " fill="#000000"/><text fill="#000000" font-family="sans-serif" font-size="14" lengthAdjust="spacing" textLength="73" x="234.91" y="637.1799">ASCENSOR</text><line style="stroke:#181818;stroke-width:0.5;" x1="206.91" x2="309.91" y1="647.7479" y2="647.7479"/><text fill="#000000" font-family="sans-serif" font-size="14" lengthAdjust="spacing" textLength="15" x="211.91" y="666.7139">ID</text><text fill="#000000" font-family="sans-serif" font-size="14" lengthAdjust="spacing" textLength="71" x="211.91" y="685.7818">Capacidad</text><text fill="#000000" font-family="sans-serif" font-size="14" lengthAdjust="spacing" textLength="63" x="211.91" y="704.8497">Dirección</text><text fill="#000000" font-family="sans-serif" font-size="14" lengthAdjust="spacing" textLength="46" x="211.91" y="723.9176">Acceso</text></g><!--MD5=[d3cfdca785419b1510f191abb67ac6f8]
class PERSONA--><g id="elem_PERSONA"><rect codeLine="18" fill="#F1F1F1" height="97.2038" id="PERSONA" rx="2.5" ry="2.5" style="stroke:#181818;stroke-width:0.5;" width="129" x="325.91" y="47.0679"/><ellipse cx="355.76" cy="63.0679" fill="#ADD1B2" rx="11" ry="11" style="stroke:#181818;stroke-width:1.0;"/><path d="M355.2288,69.9898 Q353.4788,69.9898 352.3381,69.2554 Q351.2131,68.5054 350.6506,67.1617 Q350.1038,65.8023 350.1038,64.0054 Q350.1038,61.9742 350.76,60.521 Q351.4163,59.0679 352.6975,58.2867 Q353.9788,57.5054 355.8538,57.5054 Q356.7444,57.5054 357.4163,57.6929 Q358.0881,57.8648 358.7756,58.2085 L357.9631,60.2242 Q357.3381,59.9117 356.7913,59.7867 Q356.26,59.6617 355.7756,59.6617 Q354.6038,59.6617 353.9006,60.1929 Q353.1975,60.7242 352.9006,61.6773 Q352.6038,62.6304 352.6038,63.896 Q352.6038,65.9117 353.3225,66.8804 Q354.0413,67.8335 355.635,67.8335 Q356.2288,67.8335 356.8538,67.6773 Q357.4788,67.521 358.3069,67.146 L358.3069,69.3648 Q357.5725,69.6773 356.7756,69.8335 Q355.9944,69.9898 355.2288,69.9898 Z " fill="#000000"/><text fill="#000000" font-family="sans-serif" font-size="14" lengthAdjust="spacing" textLength="64" x="373.06" y="68.4999">PERSONA</text><line style="stroke:#181818;stroke-width:0.5;" x1="326.91" x2="453.91" y1="79.0679" y2="79.0679"/><text fill="#000000" font-family="sans-serif" font-size="14" lengthAdjust="spacing" textLength="55" x="331.91" y="98.0339">Posición</text><text fill="#000000" font-family="sans-serif" font-size="14" lengthAdjust="spacing" textLength="117" x="331.91" y="117.1018">Tiempo en Planta</text><text fill="#000000" font-family="sans-serif" font-size="14" lengthAdjust="spacing" textLength="51" x="331.91" y="136.1697">Destino</text></g><!--MD5=[1c3b580ea3dfb06c1c32c5ff916d0fae]
class CUADRO DE MANDO--><g id="elem_CUADRO DE MANDO"><rect codeLine="25" fill="#F1F1F1" height="78.1358" id="CUADRO DE MANDO" rx="2.5" ry="2.5" style="stroke:#181818;stroke-width:0.5;" width="170" x="173.41" y="458.6079"/><ellipse cx="188.41" cy="474.6079" fill="#ADD1B2" rx="11" ry="11" style="stroke:#181818;stroke-width:1.0;"/><path d="M187.8788,481.5298 Q186.1288,481.5298 184.9881,480.7954 Q183.8631,480.0454 183.3006,478.7017 Q182.7538,477.3423 182.7538,475.5454 Q182.7538,473.5142 183.41,472.061 Q184.0663,470.6079 185.3475,469.8267 Q186.6288,469.0454 188.5038,469.0454 Q189.3944,469.0454 190.0663,469.2329 Q190.7381,469.4048 191.4256,469.7485 L190.6131,471.7642 Q189.9881,471.4517 189.4413,471.3267 Q188.91,471.2017 188.4256,471.2017 Q187.2538,471.2017 186.5506,471.7329 Q185.8475,472.2642 185.5506,473.2173 Q185.2538,474.1704 185.2538,475.436 Q185.2538,477.4517 185.9725,478.4204 Q186.6913,479.3735 188.285,479.3735 Q188.8788,479.3735 189.5038,479.2173 Q190.1288,479.061 190.9569,478.686 L190.9569,480.9048 Q190.2225,481.2173 189.4256,481.3735 Q188.6444,481.5298 187.8788,481.5298 Z " fill="#000000"/><text fill="#000000" font-family="sans-serif" font-size="14" lengthAdjust="spacing" textLength="138" x="202.41" y="480.0399">CUADRO DE MANDO</text><line style="stroke:#181818;stroke-width:0.5;" x1="174.41" x2="342.41" y1="490.6079" y2="490.6079"/><text fill="#000000" font-family="sans-serif" font-size="14" lengthAdjust="spacing" textLength="145" x="179.41" y="509.5739">Solicitudes de Parada</text><text fill="#000000" font-family="sans-serif" font-size="14" lengthAdjust="spacing" textLength="149" x="179.41" y="528.6418">Solicitudes de Destino</text></g><!--MD5=[e9656941bdc1406c09b5d558323b2820]
class PLANTA--><g id="elem_PLANTA"><rect codeLine="31" fill="#F1F1F1" height="97.2038" id="PLANTA" rx="2.5" ry="2.5" style="stroke:#181818;stroke-width:0.5;" width="84" x="486.41" y="625.2779"/><ellipse cx="501.41" cy="641.2779" fill="#ADD1B2" rx="11" ry="11" style="stroke:#181818;stroke-width:1.0;"/><path d="M500.8787,648.1998 Q499.1287,648.1998 497.9881,647.4654 Q496.8631,646.7154 496.3006,645.3717 Q495.7537,644.0123 495.7537,642.2154 Q495.7537,640.1842 496.41,638.731 Q497.0662,637.2779 498.3475,636.4967 Q499.6287,635.7154 501.5037,635.7154 Q502.3944,635.7154 503.0662,635.9029 Q503.7381,636.0748 504.4256,636.4185 L503.6131,638.4342 Q502.9881,638.1217 502.4412,637.9967 Q501.91,637.8717 501.4256,637.8717 Q500.2537,637.8717 499.5506,638.4029 Q498.8475,638.9342 498.5506,639.8873 Q498.2537,640.8404 498.2537,642.106 Q498.2537,644.1217 498.9725,645.0904 Q499.6912,646.0435 501.285,646.0435 Q501.8787,646.0435 502.5037,645.8873 Q503.1287,645.731 503.9569,645.356 L503.9569,647.5748 Q503.2225,647.8873 502.4256,648.0435 Q501.6444,648.1998 500.8787,648.1998 Z " fill="#000000"/><text fill="#000000" font-family="sans-serif" font-size="14" lengthAdjust="spacing" textLength="52" x="515.41" y="646.7099">PLANTA</text><line style="stroke:#181818;stroke-width:0.5;" x1="487.41" x2="569.41" y1="657.2779" y2="657.2779"/><text fill="#000000" font-family="sans-serif" font-size="14" lengthAdjust="spacing" textLength="15" x="492.41" y="676.2439">ID</text><text fill="#000000" font-family="sans-serif" font-size="14" lengthAdjust="spacing" textLength="61" x="492.41" y="695.3118">Personas</text><text fill="#000000" font-family="sans-serif" font-size="14" lengthAdjust="spacing" textLength="46" x="492.41" y="714.3797">Acceso</text></g><!--MD5=[ec927a89e342e7a42e4934ca5be2fc30]
class EDIFICIO--><g id="elem_EDIFICIO"><rect codeLine="38" fill="#F1F1F1" height="97.2038" id="EDIFICIO" rx="2.5" ry="2.5" style="stroke:#181818;stroke-width:0.5;" width="92" x="567.41" y="331.4079"/><ellipse cx="582.41" cy="347.4079" fill="#ADD1B2" rx="11" ry="11" style="stroke:#181818;stroke-width:1.0;"/><path d="M581.8788,354.3298 Q580.1288,354.3298 578.9881,353.5954 Q577.8631,352.8454 577.3006,351.5017 Q576.7538,350.1423 576.7538,348.3454 Q576.7538,346.3142 577.41,344.861 Q578.0663,343.4079 579.3475,342.6267 Q580.6288,341.8454 582.5038,341.8454 Q583.3944,341.8454 584.0663,342.0329 Q584.7381,342.2048 585.4256,342.5485 L584.6131,344.5642 Q583.9881,344.2517 583.4413,344.1267 Q582.91,344.0017 582.4256,344.0017 Q581.2538,344.0017 580.5506,344.5329 Q579.8475,345.0642 579.5506,346.0173 Q579.2538,346.9704 579.2538,348.236 Q579.2538,350.2517 579.9725,351.2204 Q580.6913,352.1735 582.285,352.1735 Q582.8788,352.1735 583.5038,352.0173 Q584.1288,351.861 584.9569,351.486 L584.9569,353.7048 Q584.2225,354.0173 583.4256,354.1735 Q582.6444,354.3298 581.8788,354.3298 Z " fill="#000000"/><text fill="#000000" font-family="sans-serif" font-size="14" lengthAdjust="spacing" textLength="60" x="596.41" y="352.8399">EDIFICIO</text><line style="stroke:#181818;stroke-width:0.5;" x1="568.41" x2="658.41" y1="363.4079" y2="363.4079"/><text fill="#000000" font-family="sans-serif" font-size="14" lengthAdjust="spacing" textLength="49" x="573.41" y="382.3739">Plantas</text><text fill="#000000" font-family="sans-serif" font-size="14" lengthAdjust="spacing" textLength="76" x="573.41" y="401.4418">Ascensores</text><text fill="#000000" font-family="sans-serif" font-size="14" lengthAdjust="spacing" textLength="46" x="573.41" y="420.5097">Acceso</text></g><!--MD5=[9e1b560e7e7a4a680983d646a35e6c12]
class TIEMPO--><g id="elem_TIEMPO"><rect codeLine="45" fill="#F1F1F1" height="32" id="TIEMPO" rx="2.5" ry="2.5" style="stroke:#181818;stroke-width:0.5;" width="85" x="547.91" y="79.6679"/><ellipse cx="562.91" cy="95.6679" fill="#ADD1B2" rx="11" ry="11" style="stroke:#181818;stroke-width:1.0;"/><path d="M562.3788,102.5898 Q560.6288,102.5898 559.4881,101.8554 Q558.3631,101.1054 557.8006,99.7617 Q557.2538,98.4023 557.2538,96.6054 Q557.2538,94.5742 557.91,93.121 Q558.5663,91.6679 559.8475,90.8867 Q561.1288,90.1054 563.0038,90.1054 Q563.8944,90.1054 564.5663,90.2929 Q565.2381,90.4648 565.9256,90.8085 L565.1131,92.8242 Q564.4881,92.5117 563.9413,92.3867 Q563.41,92.2617 562.9256,92.2617 Q561.7538,92.2617 561.0506,92.7929 Q560.3475,93.3242 560.0506,94.2773 Q559.7538,95.2304 559.7538,96.496 Q559.7538,98.5117 560.4725,99.4804 Q561.1913,100.4335 562.785,100.4335 Q563.3788,100.4335 564.0038,100.2773 Q564.6288,100.121 565.4569,99.746 L565.4569,101.9648 Q564.7225,102.2773 563.9256,102.4335 Q563.1444,102.5898 562.3788,102.5898 Z " fill="#000000"/><text fill="#000000" font-family="sans-serif" font-size="14" lengthAdjust="spacing" textLength="53" x="576.91" y="101.0999">TIEMPO</text></g><!--MD5=[c0a1b8b50003b5370ad443b5580afbba]
class SOLICITUD PARADA--><g id="elem_SOLICITUD PARADA"><rect codeLine="50" fill="#F1F1F1" height="78.1358" id="SOLICITUD PARADA" rx="2.5" ry="2.5" style="stroke:#181818;stroke-width:0.5;" width="163" x="106.91" y="223.2679"/><ellipse cx="121.91" cy="239.2679" fill="#ADD1B2" rx="11" ry="11" style="stroke:#181818;stroke-width:1.0;"/><path d="M121.3788,246.1898 Q119.6288,246.1898 118.4881,245.4554 Q117.3631,244.7054 116.8006,243.3617 Q116.2538,242.0023 116.2538,240.2054 Q116.2538,238.1742 116.91,236.721 Q117.5663,235.2679 118.8475,234.4867 Q120.1288,233.7054 122.0038,233.7054 Q122.8944,233.7054 123.5663,233.8929 Q124.2381,234.0648 124.9256,234.4085 L124.1131,236.4242 Q123.4881,236.1117 122.9413,235.9867 Q122.41,235.8617 121.9256,235.8617 Q120.7538,235.8617 120.0506,236.3929 Q119.3475,236.9242 119.0506,237.8773 Q118.7538,238.8304 118.7538,240.096 Q118.7538,242.1117 119.4725,243.0804 Q120.1913,244.0335 121.785,244.0335 Q122.3788,244.0335 123.0038,243.8773 Q123.6288,243.721 124.4569,243.346 L124.4569,245.5648 Q123.7225,245.8773 122.9256,246.0335 Q122.1444,246.1898 121.3788,246.1898 Z " fill="#000000"/><text fill="#000000" font-family="sans-serif" font-size="14" lengthAdjust="spacing" textLength="131" x="135.91" y="244.6999">SOLICITUD PARADA</text><line style="stroke:#181818;stroke-width:0.5;" x1="107.91" x2="268.91" y1="255.2679" y2="255.2679"/><text fill="#000000" font-family="sans-serif" font-size="14" lengthAdjust="spacing" textLength="47" x="112.91" y="274.2339">Origen</text><text fill="#000000" font-family="sans-serif" font-size="14" lengthAdjust="spacing" textLength="79" x="112.91" y="293.3018">Movimiento</text></g><!--MD5=[b8729fb9f5f9cd2c48204a909f29b0ec]
class SOLICITUD DESTINO--><g id="elem_SOLICITUD DESTINO"><rect codeLine="56" fill="#F1F1F1" height="59.0679" id="SOLICITUD DESTINO" rx="2.5" ry="2.5" style="stroke:#181818;stroke-width:0.5;" width="170" x="305.41" y="232.8079"/><ellipse cx="320.41" cy="248.8079" fill="#ADD1B2" rx="11" ry="11" style="stroke:#181818;stroke-width:1.0;"/><path d="M319.8787,255.7298 Q318.1287,255.7298 316.9881,254.9954 Q315.8631,254.2454 315.3006,252.9017 Q314.7537,251.5423 314.7537,249.7454 Q314.7537,247.7142 315.41,246.261 Q316.0662,244.8079 317.3475,244.0267 Q318.6287,243.2454 320.5037,243.2454 Q321.3944,243.2454 322.0662,243.4329 Q322.7381,243.6048 323.4256,243.9485 L322.6131,245.9642 Q321.9881,245.6517 321.4412,245.5267 Q320.91,245.4017 320.4256,245.4017 Q319.2537,245.4017 318.5506,245.9329 Q317.8475,246.4642 317.5506,247.4173 Q317.2537,248.3704 317.2537,249.636 Q317.2537,251.6517 317.9725,252.6204 Q318.6912,253.5735 320.285,253.5735 Q320.8787,253.5735 321.5037,253.4173 Q322.1287,253.261 322.9569,252.886 L322.9569,255.1048 Q322.2225,255.4173 321.4256,255.5735 Q320.6444,255.7298 319.8787,255.7298 Z " fill="#000000"/><text fill="#000000" font-family="sans-serif" font-size="14" lengthAdjust="spacing" textLength="138" x="334.41" y="254.2399">SOLICITUD DESTINO</text><line style="stroke:#181818;stroke-width:0.5;" x1="306.41" x2="474.41" y1="264.8079" y2="264.8079"/><text fill="#000000" font-family="sans-serif" font-size="14" lengthAdjust="spacing" textLength="51" x="311.41" y="283.7739">Destino</text></g><!--MD5=[5607f84eab8ab736c964a70752f946d9]
link EDIFICIO to PLANTA--><g id="link_EDIFICIO_PLANTA"><path codeLine="62" d="M599.71,429.0279 C587.83,470.5479 570.13,532.1479 554.41,585.7479 C551.26,596.4879 547.86,607.9579 544.59,618.9279 " fill="none" id="EDIFICIO-to-PLANTA" style="stroke:#181818;stroke-width:1.0;"/><polygon fill="#181818" points="543.22,623.5179,549.6272,616.0381,544.6502,618.7268,541.9614,613.7498,543.22,623.5179" style="stroke:#181818;stroke-width:1.0;"/><text fill="#000000" font-family="sans-serif" font-size="13" lengthAdjust="spacing" textLength="30" x="592.41" y="503.0749">tiene</text></g><!--MD5=[9105f1052ab1fdd31e20e5e195f658ee]
link PLANTA to PERSONA--><g id="link_PLANTA_PERSONA"><path codeLine="63" d="M526.17,625.0079 C520.89,516.7879 506.99,259.8679 492.41,223.2679 C481.63,196.2079 462.97,170.3979 444.53,149.2179 " fill="none" id="PLANTA-to-PERSONA" style="stroke:#181818;stroke-width:1.0;"/><polygon fill="#181818" points="441.35,145.6279,444.2839,155.0296,444.6496,149.3846,450.2946,149.7503,441.35,145.6279" style="stroke:#181818;stroke-width:1.0;"/><text fill="#000000" font-family="sans-serif" font-size="13" lengthAdjust="spacing" textLength="30" x="516.41" y="385.4049">tiene</text></g><!--MD5=[c7f33c7bac821c14540a2467ae70e7a4]
reverse link ASCENSOR to PLANTA--><g id="link_ASCENSOR_PLANTA"><path codeLine="64" d="M317.52,673.8779 C368.44,673.8779 440.7,673.8779 486.04,673.8779 " fill="none" id="ASCENSOR-backto-PLANTA" style="stroke:#181818;stroke-width:1.0;"/><polygon fill="#181818" points="312.62,673.8779,321.62,677.8779,317.62,673.8779,321.62,669.8779,312.62,673.8779" style="stroke:#181818;stroke-width:1.0;"/><text fill="#000000" font-family="sans-serif" font-size="13" lengthAdjust="spacing" textLength="73" x="362.16" y="666.7749">tiene acceso</text></g><!--MD5=[9006f5621949b75619ea6fa69c17e93e]
link PERSONA to ASCENSOR--><g id="link_PERSONA_ASCENSOR"><path codeLine="65" d="M325.56,103.3379 C253.92,114.5579 141.79,144.4079 89.41,223.2679 C6,348.8379 124.65,521.2479 201.59,611.7479 " fill="none" id="PERSONA-to-ASCENSOR" style="stroke:#181818;stroke-width:1.0;"/><polygon fill="#181818" points="204.69,615.3679,201.8904,605.9253,201.4443,611.5646,195.8051,611.1185,204.69,615.3679" style="stroke:#181818;stroke-width:1.0;"/><text fill="#000000" font-family="sans-serif" font-size="13" lengthAdjust="spacing" textLength="35" x="85.41" y="385.4049">utiliza</text></g><!--MD5=[184bf691020087a9ced49be4c0a1719d]
link PERSONA to SOLICITUD PARADA--><g id="link_PERSONA_SOLICITUD PARADA"><path codeLine="67" d="M331.44,144.7379 C302.6,168.2479 268.19,196.2979 240.35,218.9979 " fill="none" id="PERSONA-to-SOLICITUD PARADA" style="stroke:#181818;stroke-width:1.0;"/><polygon fill="#181818" points="236.76,221.9179,246.2627,219.3299,240.6349,218.758,241.2068,213.1301,236.76,221.9179" style="stroke:#181818;stroke-width:1.0;"/><text fill="#000000" font-family="sans-serif" font-size="13" lengthAdjust="spacing" textLength="41" x="290.41" y="189.1649">solicita</text></g><!--MD5=[80d26f6736b7fd9fef411ca61715b656]
link PERSONA to SOLICITUD DESTINO--><g id="link_PERSONA_SOLICITUD DESTINO"><path codeLine="68" d="M390.41,144.7379 C390.41,170.7679 390.41,202.3679 390.41,226.0979 " fill="none" id="PERSONA-to-SOLICITUD DESTINO" style="stroke:#181818;stroke-width:1.0;"/><polygon fill="#181818" points="390.41,231.0579,394.41,222.0579,390.41,226.0579,386.41,222.0579,390.41,231.0579" style="stroke:#181818;stroke-width:1.0;"/><text fill="#000000" font-family="sans-serif" font-size="13" lengthAdjust="spacing" textLength="41" x="391.41" y="189.1649">solicita</text></g><!--MD5=[68f104ed62e79ac2543e59c27abb811e]
link CUADRO DE MANDO to ASCENSOR--><g id="link_CUADRO DE MANDO_ASCENSOR"><path codeLine="69" d="M258.41,536.9079 C258.41,558.0579 258.41,584.8779 258.41,609.1079 " fill="none" id="CUADRO DE MANDO-to-ASCENSOR" style="stroke:#181818;stroke-width:1.0;"/><polygon fill="#181818" points="258.41,614.0279,262.41,605.0279,258.41,609.0279,254.41,605.0279,258.41,614.0279" style="stroke:#181818;stroke-width:1.0;"/><text fill="#000000" font-family="sans-serif" font-size="13" lengthAdjust="spacing" textLength="54" x="259.41" y="581.6449">gobierna</text></g><!--MD5=[6489c5f04fa768b12e51437cc53e5017]
link SOLICITUD PARADA to CUADRO DE MANDO--><g id="link_SOLICITUD PARADA_CUADRO DE MANDO"><path codeLine="70" d="M199.97,301.8679 C212.39,343.2879 232.11,409.0179 245.15,452.4979 " fill="none" id="SOLICITUD PARADA-to-CUADRO DE MANDO" style="stroke:#181818;stroke-width:1.0;"/><polygon fill="#181818" points="246.51,457.0279,247.7686,447.2598,245.0798,452.2368,240.1028,449.5481,246.51,457.0279" style="stroke:#181818;stroke-width:1.0;"/><text fill="#000000" font-family="sans-serif" font-size="13" lengthAdjust="spacing" textLength="48" x="239.41" y="385.4049">se envía</text></g><!--MD5=[2208b99780826b8b504bf7de0c9f3fcd]
link SOLICITUD DESTINO to CUADRO DE MANDO--><g id="link_SOLICITUD DESTINO_CUADRO DE MANDO"><path codeLine="71" d="M374.22,291.9479 C351.53,332.0579 310.06,405.3679 283.39,452.5179 " fill="none" id="SOLICITUD DESTINO-to-CUADRO DE MANDO" style="stroke:#181818;stroke-width:1.0;"/><polygon fill="#181818" points="280.96,456.8179,288.8879,450.9742,283.433,452.4723,281.9349,447.0174,280.96,456.8179" style="stroke:#181818;stroke-width:1.0;"/><text fill="#000000" font-family="sans-serif" font-size="13" lengthAdjust="spacing" textLength="48" x="352.41" y="385.4049">se envía</text></g><!--MD5=[0940be977c1caf7647bbdd47db0e00aa]
reverse link PERSONA to TIEMPO--><g id="link_PERSONA_TIEMPO"><path codeLine="73" d="M461.79,95.6679 C490.47,95.6679 522.57,95.6679 547.54,95.6679 " fill="none" id="PERSONA-backto-TIEMPO" style="stroke:#181818;stroke-width:1.0;"/><polygon fill="#181818" points="456.85,95.6679,465.85,99.6679,461.85,95.6679,465.85,91.6679,456.85,95.6679" style="stroke:#181818;stroke-width:1.0;"/><text fill="#000000" font-family="sans-serif" font-size="13" lengthAdjust="spacing" textLength="36" x="483.41" y="88.5649">afecta</text></g><!--MD5=[88d9963d84199b5478e06c48b556fc25]
link TIEMPO to EDIFICIO--><g id="link_TIEMPO_EDIFICIO"><path codeLine="74" d="M591.64,111.8479 C594.86,151.3479 603.62,258.8479 608.99,324.8179 " fill="none" id="TIEMPO-to-EDIFICIO" style="stroke:#181818;stroke-width:1.0;"/><polygon fill="#181818" points="609.38,329.5679,612.621,320.2676,608.966,324.5851,604.6485,320.9301,609.38,329.5679" style="stroke:#181818;stroke-width:1.0;"/><text fill="#000000" font-family="sans-serif" font-size="13" lengthAdjust="spacing" textLength="36" x="599.41" y="189.1649">afecta</text></g><!--MD5=[99e87ddf5aa349e3c8b5c0dcfdca7afa]
@startuml Diagrama_de_Clases

title Diagrama de Clases

skinparam {
    NoteBackgroundColor #whiteSmoke
}

hide empty members

class ASCENSOR 
{
    ID
    Capacidad
    Dirección
    Acceso
}

class PERSONA 
{
    Posición
    Tiempo en Planta
    Destino
}

class "CUADRO DE MANDO"
{
    Solicitudes de Parada
    Solicitudes de Destino
}

class PLANTA 
{
    ID
    Personas
    Acceso
}

class EDIFICIO 
{
    Plantas
    Ascensores
    Acceso
}

class TIEMPO 
{

}

class "SOLICITUD PARADA"
{
    Origen
    Movimiento
}

class "SOLICITUD DESTINO"
{
    Destino
}


EDIFICIO - -> PLANTA : tiene
PLANTA - -> PERSONA : tiene
PLANTA -left-> ASCENSOR : tiene acceso
PERSONA - -> ASCENSOR : utiliza

PERSONA - -> "SOLICITUD PARADA" : solicita
PERSONA - -> "SOLICITUD DESTINO" : solicita
"CUADRO DE MANDO" - -> ASCENSOR : gobierna
"SOLICITUD PARADA" - -> "CUADRO DE MANDO" : se envía
"SOLICITUD DESTINO" - -> "CUADRO DE MANDO" : se envía

TIEMPO -left-> PERSONA : afecta
TIEMPO - -> EDIFICIO : afecta

@enduml

PlantUML version 1.2022.7(Mon Aug 22 19:01:30 CEST 2022)
(GPL source distribution)
Java Runtime: OpenJDK Runtime Environment
JVM: OpenJDK 64-Bit Server VM
Default Encoding: UTF-8
Language: es
Country: ES
--></g></svg>