<?xml version="1.0" encoding="UTF-8" standalone="no"?><svg xmlns="http://www.w3.org/2000/svg" xmlns:xlink="http://www.w3.org/1999/xlink" contentStyleType="text/css" height="777px" preserveAspectRatio="none" style="width:623px;height:777px;background:#FFFFFF;" version="1.1" viewBox="0 0 623 777" width="623px" zoomAndPan="magnify"><defs/><g><rect fill="none" height="29.0679" id="_title" style="stroke:none;stroke-width:1.0;" width="145" x="232.17" y="5"/><text fill="#000000" font-family="sans-serif" font-size="14" font-weight="bold" lengthAdjust="spacing" textLength="135" x="237.17" y="24.9659">Diagrama de Clases</text><!--MD5=[8c9a2db8979f76c501b24932f858839e]
class ASCENSOR--><g id="elem_ASCENSOR"><rect codeLine="10" fill="#F1F1F1" height="154.4075" id="ASCENSOR" rx="2.5" ry="2.5" style="stroke:#181818;stroke-width:0.5;" width="175" x="75.84" y="615.7479"/><ellipse cx="122.59" cy="631.7479" fill="#ADD1B2" rx="11" ry="11" style="stroke:#181818;stroke-width:1.0;"/><path d="M122.0588,638.6698 Q120.3088,638.6698 119.1681,637.9354 Q118.0431,637.1854 117.4806,635.8417 Q116.9338,634.4823 116.9338,632.6854 Q116.9338,630.6542 117.59,629.201 Q118.2463,627.7479 119.5275,626.9667 Q120.8088,626.1854 122.6838,626.1854 Q123.5744,626.1854 124.2463,626.3729 Q124.9181,626.5448 125.6056,626.8885 L124.7931,628.9042 Q124.1681,628.5917 123.6213,628.4667 Q123.09,628.3417 122.6056,628.3417 Q121.4338,628.3417 120.7306,628.8729 Q120.0275,629.4042 119.7306,630.3573 Q119.4338,631.3104 119.4338,632.576 Q119.4338,634.5917 120.1525,635.5604 Q120.8713,636.5135 122.465,636.5135 Q123.0588,636.5135 123.6838,636.3573 Q124.3088,636.201 125.1369,635.826 L125.1369,638.0448 Q124.4025,638.3573 123.6056,638.5135 Q122.8244,638.6698 122.0588,638.6698 Z " fill="#000000"/><text fill="#000000" font-family="sans-serif" font-size="14" lengthAdjust="spacing" textLength="73" x="143.09" y="637.1799">ASCENSOR</text><line style="stroke:#181818;stroke-width:0.5;" x1="76.84" x2="249.84" y1="647.7479" y2="647.7479"/><text fill="#000000" font-family="sans-serif" font-size="14" lengthAdjust="spacing" textLength="15" x="81.84" y="666.7139">ID</text><text fill="#000000" font-family="sans-serif" font-size="14" lengthAdjust="spacing" textLength="61" x="81.84" y="685.7818">ID Planta</text><text fill="#000000" font-family="sans-serif" font-size="14" lengthAdjust="spacing" textLength="163" x="81.84" y="704.8497">Personas en el Ascensor</text><text fill="#000000" font-family="sans-serif" font-size="14" lengthAdjust="spacing" textLength="71" x="81.84" y="723.9176">Capacidad</text><text fill="#000000" font-family="sans-serif" font-size="14" lengthAdjust="spacing" textLength="63" x="81.84" y="742.9855">Dirección</text><text fill="#000000" font-family="sans-serif" font-size="14" lengthAdjust="spacing" textLength="46" x="81.84" y="762.0534">Acceso</text></g><!--MD5=[d3cfdca785419b1510f191abb67ac6f8]
class PERSONA--><g id="elem_PERSONA"><rect codeLine="20" fill="#F1F1F1" height="97.2038" id="PERSONA" rx="2.5" ry="2.5" style="stroke:#181818;stroke-width:0.5;" width="129" x="282.84" y="47.0679"/><ellipse cx="312.69" cy="63.0679" fill="#ADD1B2" rx="11" ry="11" style="stroke:#181818;stroke-width:1.0;"/><path d="M312.1588,69.9898 Q310.4088,69.9898 309.2681,69.2554 Q308.1431,68.5054 307.5806,67.1617 Q307.0338,65.8023 307.0338,64.0054 Q307.0338,61.9742 307.69,60.521 Q308.3463,59.0679 309.6275,58.2867 Q310.9088,57.5054 312.7838,57.5054 Q313.6744,57.5054 314.3463,57.6929 Q315.0181,57.8648 315.7056,58.2085 L314.8931,60.2242 Q314.2681,59.9117 313.7213,59.7867 Q313.19,59.6617 312.7056,59.6617 Q311.5338,59.6617 310.8306,60.1929 Q310.1275,60.7242 309.8306,61.6773 Q309.5338,62.6304 309.5338,63.896 Q309.5338,65.9117 310.2525,66.8804 Q310.9713,67.8335 312.565,67.8335 Q313.1588,67.8335 313.7838,67.6773 Q314.4088,67.521 315.2369,67.146 L315.2369,69.3648 Q314.5025,69.6773 313.7056,69.8335 Q312.9244,69.9898 312.1588,69.9898 Z " fill="#000000"/><text fill="#000000" font-family="sans-serif" font-size="14" lengthAdjust="spacing" textLength="64" x="329.99" y="68.4999">PERSONA</text><line style="stroke:#181818;stroke-width:0.5;" x1="283.84" x2="410.84" y1="79.0679" y2="79.0679"/><text fill="#000000" font-family="sans-serif" font-size="14" lengthAdjust="spacing" textLength="61" x="288.84" y="98.0339">ID Planta</text><text fill="#000000" font-family="sans-serif" font-size="14" lengthAdjust="spacing" textLength="117" x="288.84" y="117.1018">Tiempo en Planta</text><text fill="#000000" font-family="sans-serif" font-size="14" lengthAdjust="spacing" textLength="51" x="288.84" y="136.1697">Destino</text></g><!--MD5=[1c3b580ea3dfb06c1c32c5ff916d0fae]
class CUADRO DE MANDO--><g id="elem_CUADRO DE MANDO"><rect codeLine="27" fill="#F1F1F1" height="78.1358" id="CUADRO DE MANDO" rx="2.5" ry="2.5" style="stroke:#181818;stroke-width:0.5;" width="170" x="78.34" y="458.6179"/><ellipse cx="93.34" cy="474.6179" fill="#ADD1B2" rx="11" ry="11" style="stroke:#181818;stroke-width:1.0;"/><path d="M92.8088,481.5398 Q91.0588,481.5398 89.9181,480.8054 Q88.7931,480.0554 88.2306,478.7117 Q87.6838,477.3523 87.6838,475.5554 Q87.6838,473.5242 88.34,472.071 Q88.9963,470.6179 90.2775,469.8367 Q91.5588,469.0554 93.4338,469.0554 Q94.3244,469.0554 94.9963,469.2429 Q95.6681,469.4148 96.3556,469.7585 L95.5431,471.7742 Q94.9181,471.4617 94.3713,471.3367 Q93.84,471.2117 93.3556,471.2117 Q92.1838,471.2117 91.4806,471.7429 Q90.7775,472.2742 90.4806,473.2273 Q90.1838,474.1804 90.1838,475.446 Q90.1838,477.4617 90.9025,478.4304 Q91.6213,479.3835 93.215,479.3835 Q93.8088,479.3835 94.4338,479.2273 Q95.0588,479.071 95.8869,478.696 L95.8869,480.9148 Q95.1525,481.2273 94.3556,481.3835 Q93.5744,481.5398 92.8088,481.5398 Z " fill="#000000"/><text fill="#000000" font-family="sans-serif" font-size="14" lengthAdjust="spacing" textLength="138" x="107.34" y="480.0499">CUADRO DE MANDO</text><line style="stroke:#181818;stroke-width:0.5;" x1="79.34" x2="247.34" y1="490.6179" y2="490.6179"/><text fill="#000000" font-family="sans-serif" font-size="14" lengthAdjust="spacing" textLength="145" x="84.34" y="509.5839">Solicitudes de Parada</text><text fill="#000000" font-family="sans-serif" font-size="14" lengthAdjust="spacing" textLength="149" x="84.34" y="528.6518">Solicitudes de Destino</text></g><!--MD5=[e9656941bdc1406c09b5d558323b2820]
class PLANTA--><g id="elem_PLANTA"><rect codeLine="33" fill="#F1F1F1" height="135.3396" id="PLANTA" rx="2.5" ry="2.5" style="stroke:#181818;stroke-width:0.5;" width="221" x="374.84" y="625.2879"/><ellipse cx="455.09" cy="641.2879" fill="#ADD1B2" rx="11" ry="11" style="stroke:#181818;stroke-width:1.0;"/><path d="M454.5588,648.2098 Q452.8088,648.2098 451.6681,647.4754 Q450.5431,646.7254 449.9806,645.3817 Q449.4338,644.0223 449.4338,642.2254 Q449.4338,640.1942 450.09,638.741 Q450.7463,637.2879 452.0275,636.5067 Q453.3088,635.7254 455.1838,635.7254 Q456.0744,635.7254 456.7463,635.9129 Q457.4181,636.0848 458.1056,636.4285 L457.2931,638.4442 Q456.6681,638.1317 456.1213,638.0067 Q455.59,637.8817 455.1056,637.8817 Q453.9338,637.8817 453.2306,638.4129 Q452.5275,638.9442 452.2306,639.8973 Q451.9338,640.8504 451.9338,642.116 Q451.9338,644.1317 452.6525,645.1004 Q453.3713,646.0535 454.965,646.0535 Q455.5588,646.0535 456.1838,645.8973 Q456.8088,645.741 457.6369,645.366 L457.6369,647.5848 Q456.9025,647.8973 456.1056,648.0535 Q455.3244,648.2098 454.5588,648.2098 Z " fill="#000000"/><text fill="#000000" font-family="sans-serif" font-size="14" lengthAdjust="spacing" textLength="52" x="475.59" y="646.7199">PLANTA</text><line style="stroke:#181818;stroke-width:0.5;" x1="375.84" x2="594.84" y1="657.2879" y2="657.2879"/><text fill="#000000" font-family="sans-serif" font-size="14" lengthAdjust="spacing" textLength="15" x="380.84" y="676.2539">ID</text><text fill="#000000" font-family="sans-serif" font-size="14" lengthAdjust="spacing" textLength="101" x="380.84" y="695.3218">Nombre Planta</text><text fill="#000000" font-family="sans-serif" font-size="14" lengthAdjust="spacing" textLength="128" x="380.84" y="714.3897">Personas en Planta</text><text fill="#000000" font-family="sans-serif" font-size="14" lengthAdjust="spacing" textLength="209" x="380.84" y="733.4576">Personas Cambiando de Planta</text><text fill="#000000" font-family="sans-serif" font-size="14" lengthAdjust="spacing" textLength="46" x="380.84" y="752.5255">Acceso</text></g><!--MD5=[ec927a89e342e7a42e4934ca5be2fc30]
class EDIFICIO--><g id="elem_EDIFICIO"><rect codeLine="42" fill="#F1F1F1" height="97.2038" id="EDIFICIO" rx="2.5" ry="2.5" style="stroke:#181818;stroke-width:0.5;" width="92" x="524.34" y="331.4079"/><ellipse cx="539.34" cy="347.4079" fill="#ADD1B2" rx="11" ry="11" style="stroke:#181818;stroke-width:1.0;"/><path d="M538.8088,354.3298 Q537.0588,354.3298 535.9181,353.5954 Q534.7931,352.8454 534.2306,351.5017 Q533.6838,350.1423 533.6838,348.3454 Q533.6838,346.3142 534.34,344.861 Q534.9963,343.4079 536.2775,342.6267 Q537.5588,341.8454 539.4338,341.8454 Q540.3244,341.8454 540.9963,342.0329 Q541.6681,342.2048 542.3556,342.5485 L541.5431,344.5642 Q540.9181,344.2517 540.3713,344.1267 Q539.84,344.0017 539.3556,344.0017 Q538.1838,344.0017 537.4806,344.5329 Q536.7775,345.0642 536.4806,346.0173 Q536.1838,346.9704 536.1838,348.236 Q536.1838,350.2517 536.9025,351.2204 Q537.6213,352.1735 539.215,352.1735 Q539.8088,352.1735 540.4338,352.0173 Q541.0588,351.861 541.8869,351.486 L541.8869,353.7048 Q541.1525,354.0173 540.3556,354.1735 Q539.5744,354.3298 538.8088,354.3298 Z " fill="#000000"/><text fill="#000000" font-family="sans-serif" font-size="14" lengthAdjust="spacing" textLength="60" x="553.34" y="352.8399">EDIFICIO</text><line style="stroke:#181818;stroke-width:0.5;" x1="525.34" x2="615.34" y1="363.4079" y2="363.4079"/><text fill="#000000" font-family="sans-serif" font-size="14" lengthAdjust="spacing" textLength="49" x="530.34" y="382.3739">Plantas</text><text fill="#000000" font-family="sans-serif" font-size="14" lengthAdjust="spacing" textLength="76" x="530.34" y="401.4418">Ascensores</text><text fill="#000000" font-family="sans-serif" font-size="14" lengthAdjust="spacing" textLength="46" x="530.34" y="420.5097">Acceso</text></g><!--MD5=[9e1b560e7e7a4a680983d646a35e6c12]
class TIEMPO--><g id="elem_TIEMPO"><rect codeLine="49" fill="#F1F1F1" height="32" id="TIEMPO" rx="2.5" ry="2.5" style="stroke:#181818;stroke-width:0.5;" width="85" x="504.84" y="79.6779"/><ellipse cx="519.84" cy="95.6779" fill="#ADD1B2" rx="11" ry="11" style="stroke:#181818;stroke-width:1.0;"/><path d="M519.3087,102.5998 Q517.5587,102.5998 516.4181,101.8654 Q515.2931,101.1154 514.7306,99.7717 Q514.1837,98.4123 514.1837,96.6154 Q514.1837,94.5842 514.84,93.131 Q515.4962,91.6779 516.7775,90.8967 Q518.0587,90.1154 519.9337,90.1154 Q520.8244,90.1154 521.4962,90.3029 Q522.1681,90.4748 522.8556,90.8185 L522.0431,92.8342 Q521.4181,92.5217 520.8712,92.3967 Q520.34,92.2717 519.8556,92.2717 Q518.6837,92.2717 517.9806,92.8029 Q517.2775,93.3342 516.9806,94.2873 Q516.6837,95.2404 516.6837,96.506 Q516.6837,98.5217 517.4025,99.4904 Q518.1212,100.4435 519.715,100.4435 Q520.3087,100.4435 520.9337,100.2873 Q521.5587,100.131 522.3869,99.756 L522.3869,101.9748 Q521.6525,102.2873 520.8556,102.4435 Q520.0744,102.5998 519.3087,102.5998 Z " fill="#000000"/><text fill="#000000" font-family="sans-serif" font-size="14" lengthAdjust="spacing" textLength="53" x="533.84" y="101.1099">TIEMPO</text></g><!--MD5=[c0a1b8b50003b5370ad443b5580afbba]
class SOLICITUD PARADA--><g id="elem_SOLICITUD PARADA"><rect codeLine="54" fill="#F1F1F1" height="78.1358" id="SOLICITUD PARADA" rx="2.5" ry="2.5" style="stroke:#181818;stroke-width:0.5;" width="163" x="63.84" y="223.2779"/><ellipse cx="78.84" cy="239.2779" fill="#ADD1B2" rx="11" ry="11" style="stroke:#181818;stroke-width:1.0;"/><path d="M78.3088,246.1998 Q76.5588,246.1998 75.4181,245.4654 Q74.2931,244.7154 73.7306,243.3717 Q73.1838,242.0123 73.1838,240.2154 Q73.1838,238.1842 73.84,236.731 Q74.4963,235.2779 75.7775,234.4967 Q77.0588,233.7154 78.9338,233.7154 Q79.8244,233.7154 80.4963,233.9029 Q81.1681,234.0748 81.8556,234.4185 L81.0431,236.4342 Q80.4181,236.1217 79.8713,235.9967 Q79.34,235.8717 78.8556,235.8717 Q77.6838,235.8717 76.9806,236.4029 Q76.2775,236.9342 75.9806,237.8873 Q75.6838,238.8404 75.6838,240.106 Q75.6838,242.1217 76.4025,243.0904 Q77.1213,244.0435 78.715,244.0435 Q79.3088,244.0435 79.9338,243.8873 Q80.5588,243.731 81.3869,243.356 L81.3869,245.5748 Q80.6525,245.8873 79.8556,246.0435 Q79.0744,246.1998 78.3088,246.1998 Z " fill="#000000"/><text fill="#000000" font-family="sans-serif" font-size="14" lengthAdjust="spacing" textLength="131" x="92.84" y="244.7099">SOLICITUD PARADA</text><line style="stroke:#181818;stroke-width:0.5;" x1="64.84" x2="225.84" y1="255.2779" y2="255.2779"/><text fill="#000000" font-family="sans-serif" font-size="14" lengthAdjust="spacing" textLength="47" x="69.84" y="274.2439">Origen</text><text fill="#000000" font-family="sans-serif" font-size="14" lengthAdjust="spacing" textLength="79" x="69.84" y="293.3118">Movimiento</text></g><!--MD5=[b8729fb9f5f9cd2c48204a909f29b0ec]
class SOLICITUD DESTINO--><g id="elem_SOLICITUD DESTINO"><rect codeLine="60" fill="#F1F1F1" height="59.0679" id="SOLICITUD DESTINO" rx="2.5" ry="2.5" style="stroke:#181818;stroke-width:0.5;" width="170" x="262.34" y="232.8079"/><ellipse cx="277.34" cy="248.8079" fill="#ADD1B2" rx="11" ry="11" style="stroke:#181818;stroke-width:1.0;"/><path d="M276.8088,255.7298 Q275.0588,255.7298 273.9181,254.9954 Q272.7931,254.2454 272.2306,252.9017 Q271.6838,251.5423 271.6838,249.7454 Q271.6838,247.7142 272.34,246.261 Q272.9963,244.8079 274.2775,244.0267 Q275.5588,243.2454 277.4338,243.2454 Q278.3244,243.2454 278.9963,243.4329 Q279.6681,243.6048 280.3556,243.9485 L279.5431,245.9642 Q278.9181,245.6517 278.3713,245.5267 Q277.84,245.4017 277.3556,245.4017 Q276.1838,245.4017 275.4806,245.9329 Q274.7775,246.4642 274.4806,247.4173 Q274.1838,248.3704 274.1838,249.636 Q274.1838,251.6517 274.9025,252.6204 Q275.6213,253.5735 277.215,253.5735 Q277.8088,253.5735 278.4338,253.4173 Q279.0588,253.261 279.8869,252.886 L279.8869,255.1048 Q279.1525,255.4173 278.3556,255.5735 Q277.5744,255.7298 276.8088,255.7298 Z " fill="#000000"/><text fill="#000000" font-family="sans-serif" font-size="14" lengthAdjust="spacing" textLength="138" x="291.34" y="254.2399">SOLICITUD DESTINO</text><line style="stroke:#181818;stroke-width:0.5;" x1="263.34" x2="431.34" y1="264.8079" y2="264.8079"/><text fill="#000000" font-family="sans-serif" font-size="14" lengthAdjust="spacing" textLength="51" x="268.34" y="283.7739">Destino</text></g><!--MD5=[5607f84eab8ab736c964a70752f946d9]
link EDIFICIO to PLANTA--><g id="link_EDIFICIO_PLANTA"><path codeLine="66" d="M557.24,428.9179 C543.37,479.6479 521.31,560.3379 505.28,618.9779 " fill="none" id="EDIFICIO-to-PLANTA" style="stroke:#181818;stroke-width:1.0;"/><polygon fill="#181818" points="504.05,623.4879,510.2943,615.8716,505.3764,618.6671,502.5809,613.7492,504.05,623.4879" style="stroke:#181818;stroke-width:1.0;"/><text fill="#000000" font-family="sans-serif" font-size="13" lengthAdjust="spacing" textLength="30" x="550.34" y="503.0749">tiene</text></g><!--MD5=[9105f1052ab1fdd31e20e5e195f658ee]
link PLANTA to PERSONA--><g id="link_PLANTA_PERSONA"><path codeLine="67" d="M482.39,625.0779 C476.77,504.4779 463.75,259.6379 449.34,223.2779 C438.6,196.1979 419.95,170.3779 401.5,149.1979 " fill="none" id="PLANTA-to-PERSONA" style="stroke:#181818;stroke-width:1.0;"/><polygon fill="#181818" points="398.33,145.6079,401.3018,154.9977,401.6447,149.3513,407.2912,149.6942,398.33,145.6079" style="stroke:#181818;stroke-width:1.0;"/><text fill="#000000" font-family="sans-serif" font-size="13" lengthAdjust="spacing" textLength="30" x="473.34" y="385.4049">tiene</text></g><!--MD5=[c7f33c7bac821c14540a2467ae70e7a4]
reverse link ASCENSOR to PLANTA--><g id="link_ASCENSOR_PLANTA"><path codeLine="68" d="M257.61,692.9579 C294.2,692.9579 336.38,692.9579 374.41,692.9579 " fill="none" id="ASCENSOR-backto-PLANTA" style="stroke:#181818;stroke-width:1.0;"/><polygon fill="#181818" points="252.84,692.9579,261.84,696.9579,257.84,692.9579,261.84,688.9579,252.84,692.9579" style="stroke:#181818;stroke-width:1.0;"/><text fill="#000000" font-family="sans-serif" font-size="13" lengthAdjust="spacing" textLength="73" x="276.34" y="685.8549">tiene acceso</text></g><!--MD5=[9006f5621949b75619ea6fa69c17e93e]
link PERSONA to ASCENSOR--><g id="link_PERSONA_ASCENSOR"><path codeLine="69" d="M282.48,103.3479 C210.85,114.5679 98.72,144.4179 46.34,223.2779 C20.64,261.9579 6,371.1879 61.34,536.7479 C69.85,562.2279 83.63,587.5679 98.34,610.1479 " fill="none" id="PERSONA-to-ASCENSOR" style="stroke:#181818;stroke-width:1.0;"/><polygon fill="#181818" points="101.06,614.2679,99.4344,604.5541,98.303,610.0967,92.7604,608.9653,101.06,614.2679" style="stroke:#181818;stroke-width:1.0;"/><text fill="#000000" font-family="sans-serif" font-size="13" lengthAdjust="spacing" textLength="35" x="34.34" y="385.4049">utiliza</text></g><!--MD5=[184bf691020087a9ced49be4c0a1719d]
link PERSONA to SOLICITUD PARADA--><g id="link_PERSONA_SOLICITUD PARADA"><path codeLine="71" d="M288.37,144.7479 C259.52,168.2579 225.12,196.3079 197.28,218.9979 " fill="none" id="PERSONA-to-SOLICITUD PARADA" style="stroke:#181818;stroke-width:1.0;"/><polygon fill="#181818" points="193.69,221.9279,203.1974,219.357,197.5706,218.775,198.1527,213.1481,193.69,221.9279" style="stroke:#181818;stroke-width:1.0;"/><text fill="#000000" font-family="sans-serif" font-size="13" lengthAdjust="spacing" textLength="41" x="247.34" y="189.1749">solicita</text></g><!--MD5=[80d26f6736b7fd9fef411ca61715b656]
link PERSONA to SOLICITUD DESTINO--><g id="link_PERSONA_SOLICITUD DESTINO"><path codeLine="72" d="M347.34,144.7479 C347.34,170.7779 347.34,202.3679 347.34,226.0979 " fill="none" id="PERSONA-to-SOLICITUD DESTINO" style="stroke:#181818;stroke-width:1.0;"/><polygon fill="#181818" points="347.34,231.0579,351.34,222.0579,347.34,226.0579,343.34,222.0579,347.34,231.0579" style="stroke:#181818;stroke-width:1.0;"/><text fill="#000000" font-family="sans-serif" font-size="13" lengthAdjust="spacing" textLength="41" x="348.34" y="189.1749">solicita</text></g><!--MD5=[68f104ed62e79ac2543e59c27abb811e]
link CUADRO DE MANDO to ASCENSOR--><g id="link_CUADRO DE MANDO_ASCENSOR"><path codeLine="73" d="M163.34,536.8679 C163.34,557.5579 163.34,583.9679 163.34,609.1079 " fill="none" id="CUADRO DE MANDO-to-ASCENSOR" style="stroke:#181818;stroke-width:1.0;"/><polygon fill="#181818" points="163.34,613.9579,167.34,604.9579,163.34,608.9579,159.34,604.9579,163.34,613.9579" style="stroke:#181818;stroke-width:1.0;"/><text fill="#000000" font-family="sans-serif" font-size="13" lengthAdjust="spacing" textLength="54" x="164.34" y="581.6449">gobierna</text></g><!--MD5=[6489c5f04fa768b12e51437cc53e5017]
link SOLICITUD PARADA to CUADRO DE MANDO--><g id="link_SOLICITUD PARADA_CUADRO DE MANDO"><path codeLine="74" d="M148.31,301.8779 C151.5,343.2079 156.55,408.7479 159.91,452.2279 " fill="none" id="SOLICITUD PARADA-to-CUADRO DE MANDO" style="stroke:#181818;stroke-width:1.0;"/><polygon fill="#181818" points="160.27,456.9679,163.5639,447.6862,159.8843,451.9828,155.5877,448.3033,160.27,456.9679" style="stroke:#181818;stroke-width:1.0;"/><text fill="#000000" font-family="sans-serif" font-size="13" lengthAdjust="spacing" textLength="48" x="159.34" y="385.4049">se envía</text></g><!--MD5=[2208b99780826b8b504bf7de0c9f3fcd]
link SOLICITUD DESTINO to CUADRO DE MANDO--><g id="link_SOLICITUD DESTINO_CUADRO DE MANDO"><path codeLine="75" d="M324.77,291.9579 C293.01,332.2279 234.86,405.9779 197.71,453.0979 " fill="none" id="SOLICITUD DESTINO-to-CUADRO DE MANDO" style="stroke:#181818;stroke-width:1.0;"/><polygon fill="#181818" points="194.67,456.9479,203.3852,452.3605,197.7673,453.0228,197.105,447.4048,194.67,456.9479" style="stroke:#181818;stroke-width:1.0;"/><text fill="#000000" font-family="sans-serif" font-size="13" lengthAdjust="spacing" textLength="48" x="294.34" y="385.4049">se envía</text></g><!--MD5=[0940be977c1caf7647bbdd47db0e00aa]
reverse link PERSONA to TIEMPO--><g id="link_PERSONA_TIEMPO"><path codeLine="77" d="M418.71,95.6779 C447.39,95.6779 479.5,95.6779 504.47,95.6779 " fill="none" id="PERSONA-backto-TIEMPO" style="stroke:#181818;stroke-width:1.0;"/><polygon fill="#181818" points="413.78,95.6779,422.78,99.6779,418.78,95.6779,422.78,91.6779,413.78,95.6779" style="stroke:#181818;stroke-width:1.0;"/><text fill="#000000" font-family="sans-serif" font-size="13" lengthAdjust="spacing" textLength="36" x="440.34" y="88.5749">afecta</text></g><!--MD5=[88d9963d84199b5478e06c48b556fc25]
link TIEMPO to EDIFICIO--><g id="link_TIEMPO_EDIFICIO"><path codeLine="78" d="M548.57,111.8479 C551.79,151.3579 560.55,258.8579 565.92,324.8279 " fill="none" id="TIEMPO-to-EDIFICIO" style="stroke:#181818;stroke-width:1.0;"/><polygon fill="#181818" points="566.31,329.5679,569.5774,320.2769,565.9101,324.5839,561.6031,320.9166,566.31,329.5679" style="stroke:#181818;stroke-width:1.0;"/><text fill="#000000" font-family="sans-serif" font-size="13" lengthAdjust="spacing" textLength="36" x="556.34" y="189.1749">afecta</text></g><!--MD5=[c4e50099ec7fcb5c6d68493b192ddaf9]
@startuml Diagrama_de_Clases

title Diagrama de Clases

skinparam {
    NoteBackgroundColor #whiteSmoke
}

hide empty members

class ASCENSOR 
{
    ID
    ID Planta
    Personas en el Ascensor
    Capacidad
    Dirección
    Acceso
}

class PERSONA 
{
    ID Planta
    Tiempo en Planta
    Destino
}

class "CUADRO DE MANDO"
{
    Solicitudes de Parada
    Solicitudes de Destino
}

class PLANTA 
{
    ID
    Nombre Planta
    Personas en Planta
    Personas Cambiando de Planta
    Acceso
}

class EDIFICIO 
{
    Plantas
    Ascensores
    Acceso
}

class TIEMPO 
{

}

class "SOLICITUD PARADA"
{
    Origen
    Movimiento
}

class "SOLICITUD DESTINO"
{
    Destino
}


EDIFICIO - -> PLANTA : tiene
PLANTA - -> PERSONA : tiene
PLANTA -left-> ASCENSOR : tiene acceso
PERSONA - -> ASCENSOR : utiliza

PERSONA - -> "SOLICITUD PARADA" : solicita
PERSONA - -> "SOLICITUD DESTINO" : solicita
"CUADRO DE MANDO" - -> ASCENSOR : gobierna
"SOLICITUD PARADA" - -> "CUADRO DE MANDO" : se envía
"SOLICITUD DESTINO" - -> "CUADRO DE MANDO" : se envía

TIEMPO -left-> PERSONA : afecta
TIEMPO - -> EDIFICIO : afecta

@enduml

PlantUML version 1.2022.7(Mon Aug 22 19:01:30 CEST 2022)
(GPL source distribution)
Java Runtime: OpenJDK Runtime Environment
JVM: OpenJDK 64-Bit Server VM
Default Encoding: UTF-8
Language: es
Country: ES
--></g></svg>