<?xml version="1.0" encoding="UTF-8" standalone="no"?><svg xmlns="http://www.w3.org/2000/svg" xmlns:xlink="http://www.w3.org/1999/xlink" contentStyleType="text/css" height="519px" preserveAspectRatio="none" style="width:382px;height:519px;background:#FFFFFF;" version="1.1" viewBox="0 0 382 519" width="382px" zoomAndPan="magnify"><defs/><g><rect fill="none" height="29.0679" id="_title" style="stroke:none;stroke-width:1.0;" width="145" x="111.5" y="5"/><text fill="#000000" font-family="sans-serif" font-size="14" font-weight="bold" lengthAdjust="spacing" textLength="135" x="116.5" y="24.9659">Diagrama de Clases</text><!--MD5=[8c9a2db8979f76c501b24932f858839e]
class ASCENSOR--><g id="elem_ASCENSOR"><rect codeLine="10" fill="#F1F1F1" height="59.0679" id="ASCENSOR" rx="2.5" ry="2.5" style="stroke:#181818;stroke-width:0.5;" width="105" x="178.5" y="453.2679"/><ellipse cx="193.5" cy="469.2679" fill="#ADD1B2" rx="11" ry="11" style="stroke:#181818;stroke-width:1.0;"/><path d="M192.9688,476.1898 Q191.2188,476.1898 190.0781,475.4554 Q188.9531,474.7054 188.3906,473.3617 Q187.8438,472.0023 187.8438,470.2054 Q187.8438,468.1742 188.5,466.721 Q189.1563,465.2679 190.4375,464.4867 Q191.7188,463.7054 193.5938,463.7054 Q194.4844,463.7054 195.1563,463.8929 Q195.8281,464.0648 196.5156,464.4085 L195.7031,466.4242 Q195.0781,466.1117 194.5313,465.9867 Q194,465.8617 193.5156,465.8617 Q192.3438,465.8617 191.6406,466.3929 Q190.9375,466.9242 190.6406,467.8773 Q190.3438,468.8304 190.3438,470.096 Q190.3438,472.1117 191.0625,473.0804 Q191.7813,474.0335 193.375,474.0335 Q193.9688,474.0335 194.5938,473.8773 Q195.2188,473.721 196.0469,473.346 L196.0469,475.5648 Q195.3125,475.8773 194.5156,476.0335 Q193.7344,476.1898 192.9688,476.1898 Z " fill="#000000"/><text fill="#000000" font-family="sans-serif" font-size="14" lengthAdjust="spacing" textLength="73" x="207.5" y="474.6999">ASCENSOR</text><line style="stroke:#181818;stroke-width:0.5;" x1="179.5" x2="282.5" y1="485.2679" y2="485.2679"/><text fill="#000000" font-family="sans-serif" font-size="14" lengthAdjust="spacing" textLength="71" x="184.5" y="504.2339">Capacidad</text></g><!--MD5=[9fb774ed7ae05b667c8401cd383f5fbb]
class USUARIO--><g id="elem_USUARIO"><rect codeLine="15" fill="#F1F1F1" height="78.1358" id="USUARIO" rx="2.5" ry="2.5" style="stroke:#181818;stroke-width:0.5;" width="94" x="184" y="185.1379"/><ellipse cx="199" cy="201.1379" fill="#ADD1B2" rx="11" ry="11" style="stroke:#181818;stroke-width:1.0;"/><path d="M198.4688,208.0598 Q196.7188,208.0598 195.5781,207.3254 Q194.4531,206.5754 193.8906,205.2317 Q193.3438,203.8723 193.3438,202.0754 Q193.3438,200.0442 194,198.591 Q194.6563,197.1379 195.9375,196.3567 Q197.2188,195.5754 199.0938,195.5754 Q199.9844,195.5754 200.6563,195.7629 Q201.3281,195.9348 202.0156,196.2785 L201.2031,198.2942 Q200.5781,197.9817 200.0313,197.8567 Q199.5,197.7317 199.0156,197.7317 Q197.8438,197.7317 197.1406,198.2629 Q196.4375,198.7942 196.1406,199.7473 Q195.8438,200.7004 195.8438,201.966 Q195.8438,203.9817 196.5625,204.9504 Q197.2813,205.9035 198.875,205.9035 Q199.4688,205.9035 200.0938,205.7473 Q200.7188,205.591 201.5469,205.216 L201.5469,207.4348 Q200.8125,207.7473 200.0156,207.9035 Q199.2344,208.0598 198.4688,208.0598 Z " fill="#000000"/><text fill="#000000" font-family="sans-serif" font-size="14" lengthAdjust="spacing" textLength="62" x="213" y="206.5699">USUARIO</text><line style="stroke:#181818;stroke-width:0.5;" x1="185" x2="277" y1="217.1379" y2="217.1379"/><text fill="#000000" font-family="sans-serif" font-size="14" lengthAdjust="spacing" textLength="47" x="190" y="236.1039">Origen</text><text fill="#000000" font-family="sans-serif" font-size="14" lengthAdjust="spacing" textLength="51" x="190" y="255.1718">Destino</text></g><!--MD5=[1c3b580ea3dfb06c1c32c5ff916d0fae]
class CUADRO DE MANDO--><g id="elem_CUADRO DE MANDO"><rect codeLine="21" fill="#F1F1F1" height="32" id="CUADRO DE MANDO" rx="2.5" ry="2.5" style="stroke:#181818;stroke-width:0.5;" width="170" x="146" y="342.2679"/><ellipse cx="161" cy="358.2679" fill="#ADD1B2" rx="11" ry="11" style="stroke:#181818;stroke-width:1.0;"/><path d="M160.4688,365.1898 Q158.7188,365.1898 157.5781,364.4554 Q156.4531,363.7054 155.8906,362.3617 Q155.3438,361.0023 155.3438,359.2054 Q155.3438,357.1742 156,355.721 Q156.6563,354.2679 157.9375,353.4867 Q159.2188,352.7054 161.0938,352.7054 Q161.9844,352.7054 162.6563,352.8929 Q163.3281,353.0648 164.0156,353.4085 L163.2031,355.4242 Q162.5781,355.1117 162.0313,354.9867 Q161.5,354.8617 161.0156,354.8617 Q159.8438,354.8617 159.1406,355.3929 Q158.4375,355.9242 158.1406,356.8773 Q157.8438,357.8304 157.8438,359.096 Q157.8438,361.1117 158.5625,362.0804 Q159.2813,363.0335 160.875,363.0335 Q161.4688,363.0335 162.0938,362.8773 Q162.7188,362.721 163.5469,362.346 L163.5469,364.5648 Q162.8125,364.8773 162.0156,365.0335 Q161.2344,365.1898 160.4688,365.1898 Z " fill="#000000"/><text fill="#000000" font-family="sans-serif" font-size="14" lengthAdjust="spacing" textLength="138" x="175" y="363.6999">CUADRO DE MANDO</text></g><!--MD5=[e9656941bdc1406c09b5d558323b2820]
class PLANTA--><g id="elem_PLANTA"><rect codeLine="26" fill="#F1F1F1" height="78.1358" id="PLANTA" rx="2.5" ry="2.5" style="stroke:#181818;stroke-width:0.5;" width="84" x="11" y="185.1379"/><ellipse cx="26" cy="201.1379" fill="#ADD1B2" rx="11" ry="11" style="stroke:#181818;stroke-width:1.0;"/><path d="M25.4688,208.0598 Q23.7188,208.0598 22.5781,207.3254 Q21.4531,206.5754 20.8906,205.2317 Q20.3438,203.8723 20.3438,202.0754 Q20.3438,200.0442 21,198.591 Q21.6563,197.1379 22.9375,196.3567 Q24.2188,195.5754 26.0938,195.5754 Q26.9844,195.5754 27.6563,195.7629 Q28.3281,195.9348 29.0156,196.2785 L28.2031,198.2942 Q27.5781,197.9817 27.0313,197.8567 Q26.5,197.7317 26.0156,197.7317 Q24.8438,197.7317 24.1406,198.2629 Q23.4375,198.7942 23.1406,199.7473 Q22.8438,200.7004 22.8438,201.966 Q22.8438,203.9817 23.5625,204.9504 Q24.2813,205.9035 25.875,205.9035 Q26.4688,205.9035 27.0938,205.7473 Q27.7188,205.591 28.5469,205.216 L28.5469,207.4348 Q27.8125,207.7473 27.0156,207.9035 Q26.2344,208.0598 25.4688,208.0598 Z " fill="#000000"/><text fill="#000000" font-family="sans-serif" font-size="14" lengthAdjust="spacing" textLength="52" x="40" y="206.5699">PLANTA</text><line style="stroke:#181818;stroke-width:0.5;" x1="12" x2="94" y1="217.1379" y2="217.1379"/><text fill="#000000" font-family="sans-serif" font-size="14" lengthAdjust="spacing" textLength="15" x="17" y="236.1039">ID</text><text fill="#000000" font-family="sans-serif" font-size="14" lengthAdjust="spacing" textLength="61" x="17" y="255.1718">Personas</text></g><!--MD5=[ec927a89e342e7a42e4934ca5be2fc30]
class EDIFICIO--><g id="elem_EDIFICIO"><rect codeLine="32" fill="#F1F1F1" height="59.0679" id="EDIFICIO" rx="2.5" ry="2.5" style="stroke:#181818;stroke-width:0.5;" width="92" x="7" y="47.0679"/><ellipse cx="22" cy="63.0679" fill="#ADD1B2" rx="11" ry="11" style="stroke:#181818;stroke-width:1.0;"/><path d="M21.4688,69.9898 Q19.7188,69.9898 18.5781,69.2554 Q17.4531,68.5054 16.8906,67.1617 Q16.3438,65.8023 16.3438,64.0054 Q16.3438,61.9742 17,60.521 Q17.6563,59.0679 18.9375,58.2867 Q20.2188,57.5054 22.0938,57.5054 Q22.9844,57.5054 23.6563,57.6929 Q24.3281,57.8648 25.0156,58.2085 L24.2031,60.2242 Q23.5781,59.9117 23.0313,59.7867 Q22.5,59.6617 22.0156,59.6617 Q20.8438,59.6617 20.1406,60.1929 Q19.4375,60.7242 19.1406,61.6773 Q18.8438,62.6304 18.8438,63.896 Q18.8438,65.9117 19.5625,66.8804 Q20.2813,67.8335 21.875,67.8335 Q22.4688,67.8335 23.0938,67.6773 Q23.7188,67.521 24.5469,67.146 L24.5469,69.3648 Q23.8125,69.6773 23.0156,69.8335 Q22.2344,69.9898 21.4688,69.9898 Z " fill="#000000"/><text fill="#000000" font-family="sans-serif" font-size="14" lengthAdjust="spacing" textLength="60" x="36" y="68.4999">EDIFICIO</text><line style="stroke:#181818;stroke-width:0.5;" x1="8" x2="98" y1="79.0679" y2="79.0679"/><text fill="#000000" font-family="sans-serif" font-size="14" lengthAdjust="spacing" textLength="49" x="13" y="98.0339">Plantas</text></g><!--MD5=[68f104ed62e79ac2543e59c27abb811e]
link CUADRO DE MANDO to ASCENSOR--><g id="link_CUADRO DE MANDO_ASCENSOR"><path codeLine="38" d="M231,374.5379 C231,392.5579 231,423.0979 231,446.9879 " fill="none" id="CUADRO DE MANDO-to-ASCENSOR" style="stroke:#181818;stroke-width:1.0;"/><polygon fill="#181818" points="231,451.7079,235,442.7079,231,446.7079,227,442.7079,231,451.7079" style="stroke:#181818;stroke-width:1.0;"/><text fill="#000000" font-family="sans-serif" font-size="13" lengthAdjust="spacing" textLength="55" x="232" y="419.1649">Gobierna</text></g><!--MD5=[e2758cd165250be96e0f591be8fb5601]
link USUARIO to ASCENSOR--><g id="link_USUARIO_ASCENSOR"><path codeLine="39" d="M278.34,263.5079 C299.86,284.1879 322.76,311.7279 333,342.2679 C346.81,383.4879 312.33,422.7379 279.78,449.0579 " fill="none" id="USUARIO-to-ASCENSOR" style="stroke:#181818;stroke-width:1.0;"/><polygon fill="#181818" points="276.19,451.8979,285.7288,449.446,280.1096,448.7937,280.762,443.1746,276.19,451.8979" style="stroke:#181818;stroke-width:1.0;"/><text fill="#000000" font-family="sans-serif" font-size="13" lengthAdjust="spacing" textLength="37" x="337" y="363.6649">Utiliza</text></g><!--MD5=[c91fdc1d9e375d4d6b6859cf3a87ea20]
link USUARIO to CUADRO DE MANDO--><g id="link_USUARIO_CUADRO DE MANDO"><path codeLine="40" d="M231,263.7579 C231,287.0479 231,315.8979 231,335.3379 " fill="none" id="USUARIO-to-CUADRO DE MANDO" style="stroke:#181818;stroke-width:1.0;"/><polygon fill="#181818" points="231,340.2879,235,331.2879,231,335.2879,227,331.2879,231,340.2879" style="stroke:#181818;stroke-width:1.0;"/><text fill="#000000" font-family="sans-serif" font-size="13" lengthAdjust="spacing" textLength="55" x="232" y="308.1649">Solicita al</text></g><!--MD5=[5607f84eab8ab736c964a70752f946d9]
link EDIFICIO to PLANTA--><g id="link_EDIFICIO_PLANTA"><path codeLine="41" d="M53,106.3679 C53,126.8979 53,154.9079 53,178.3579 " fill="none" id="EDIFICIO-to-PLANTA" style="stroke:#181818;stroke-width:1.0;"/><polygon fill="#181818" points="53,183.3279,57,174.3279,53,178.3279,49,174.3279,53,183.3279" style="stroke:#181818;stroke-width:1.0;"/><text fill="#000000" font-family="sans-serif" font-size="13" lengthAdjust="spacing" textLength="32" x="54" y="151.0349">Tiene</text></g><!--MD5=[7dde6be58f87350eb4c68624ce54a75d]
link PLANTA to ASCENSOR--><g id="link_PLANTA_ASCENSOR"><path codeLine="42" d="M42.33,263.6579 C35.79,295.4279 31.9,340.6179 51,374.2679 C76.82,419.7779 130.4,448.0879 172.41,464.1579 " fill="none" id="PLANTA-to-ASCENSOR" style="stroke:#181818;stroke-width:1.0;"/><polygon fill="#181818" points="176.84,465.8179,169.806,458.9243,172.1554,464.0702,167.0095,466.4196,176.84,465.8179" style="stroke:#181818;stroke-width:1.0;"/><text fill="#000000" font-family="sans-serif" font-size="13" lengthAdjust="spacing" textLength="76" x="52" y="363.6649">Tiene Acceso</text></g><!--MD5=[9be1e88c40b5cc80ca97ae9d1cde25b9]
link PLANTA to USUARIO--><g id="link_PLANTA_USUARIO"><path codeLine="43" d="M95.18,224.1979 C119.83,224.1979 151.18,224.1979 177.55,224.1979 " fill="none" id="PLANTA-to-USUARIO" style="stroke:#181818;stroke-width:1.0;"/><polygon fill="#181818" points="182.28,224.1979,173.28,220.1979,177.28,224.1979,173.28,228.1979,182.28,224.1979" style="stroke:#181818;stroke-width:1.0;"/><text fill="#000000" font-family="sans-serif" font-size="13" lengthAdjust="spacing" textLength="32" x="123.5" y="217.0949">Tiene</text></g><!--MD5=[506974bc6d7c869350bd80bb5ef86591]
@startuml Diagrama_de_Clases

title Diagrama de Clases

skinparam {
    NoteBackgroundColor #whiteSmoke
}

hide empty members

class ASCENSOR 
{
    Capacidad
}

class USUARIO 
{
    Origen
    Destino
}

class "CUADRO DE MANDO"
{

}

class PLANTA 
{
    ID
    Personas
}

class EDIFICIO 
{
    Plantas
}


"CUADRO DE MANDO" - -> ASCENSOR : Gobierna
USUARIO -> ASCENSOR : Utiliza
USUARIO - -> "CUADRO DE MANDO" : Solicita al
EDIFICIO - -> PLANTA : Tiene
PLANTA -> ASCENSOR : Tiene Acceso
PLANTA -> USUARIO : Tiene
@enduml

PlantUML version 1.2022.7(Mon Aug 22 19:01:30 CEST 2022)
(GPL source distribution)
Java Runtime: OpenJDK Runtime Environment
JVM: OpenJDK 64-Bit Server VM
Default Encoding: UTF-8
Language: es
Country: ES
--></g></svg>