<?xml version="1.0" encoding="UTF-8" standalone="no"?><svg xmlns="http://www.w3.org/2000/svg" xmlns:xlink="http://www.w3.org/1999/xlink" contentStyleType="text/css" height="758px" preserveAspectRatio="none" style="width:668px;height:758px;background:#FFFFFF;" version="1.1" viewBox="0 0 668 758" width="668px" zoomAndPan="magnify"><defs/><g><rect fill="none" height="29.0679" id="_title" style="stroke:none;stroke-width:1.0;" width="145" x="254.535" y="5"/><text fill="#000000" font-family="sans-serif" font-size="14" font-weight="bold" lengthAdjust="spacing" textLength="135" x="259.535" y="24.9659">Diagrama de Clases</text><!--MD5=[8c9a2db8979f76c501b24932f858839e]
class ASCENSOR--><g id="elem_ASCENSOR"><rect codeLine="10" fill="#F1F1F1" height="135.3396" id="ASCENSOR" rx="2.5" ry="2.5" style="stroke:#181818;stroke-width:0.5;" width="105" x="207.57" y="615.7479"/><ellipse cx="222.57" cy="631.7479" fill="#ADD1B2" rx="11" ry="11" style="stroke:#181818;stroke-width:1.0;"/><path d="M222.0388,638.6698 Q220.2888,638.6698 219.1481,637.9354 Q218.0231,637.1854 217.4606,635.8417 Q216.9138,634.4823 216.9138,632.6854 Q216.9138,630.6542 217.57,629.201 Q218.2263,627.7479 219.5075,626.9667 Q220.7888,626.1854 222.6638,626.1854 Q223.5544,626.1854 224.2263,626.3729 Q224.8981,626.5448 225.5856,626.8885 L224.7731,628.9042 Q224.1481,628.5917 223.6013,628.4667 Q223.07,628.3417 222.5856,628.3417 Q221.4138,628.3417 220.7106,628.8729 Q220.0075,629.4042 219.7106,630.3573 Q219.4138,631.3104 219.4138,632.576 Q219.4138,634.5917 220.1325,635.5604 Q220.8513,636.5135 222.445,636.5135 Q223.0388,636.5135 223.6638,636.3573 Q224.2888,636.201 225.1169,635.826 L225.1169,638.0448 Q224.3825,638.3573 223.5856,638.5135 Q222.8044,638.6698 222.0388,638.6698 Z " fill="#000000"/><text fill="#000000" font-family="sans-serif" font-size="14" lengthAdjust="spacing" textLength="73" x="236.57" y="637.1799">ASCENSOR</text><line style="stroke:#181818;stroke-width:0.5;" x1="208.57" x2="311.57" y1="647.7479" y2="647.7479"/><text fill="#000000" font-family="sans-serif" font-size="14" lengthAdjust="spacing" textLength="15" x="213.57" y="666.7139">ID</text><text fill="#000000" font-family="sans-serif" font-size="14" lengthAdjust="spacing" textLength="55" x="213.57" y="685.7818">Posición</text><text fill="#000000" font-family="sans-serif" font-size="14" lengthAdjust="spacing" textLength="71" x="213.57" y="704.8497">Capacidad</text><text fill="#000000" font-family="sans-serif" font-size="14" lengthAdjust="spacing" textLength="63" x="213.57" y="723.9176">Dirección</text><text fill="#000000" font-family="sans-serif" font-size="14" lengthAdjust="spacing" textLength="46" x="213.57" y="742.9855">Acceso</text></g><!--MD5=[d3cfdca785419b1510f191abb67ac6f8]
class PERSONA--><g id="elem_PERSONA"><rect codeLine="19" fill="#F1F1F1" height="97.2038" id="PERSONA" rx="2.5" ry="2.5" style="stroke:#181818;stroke-width:0.5;" width="129" x="327.57" y="47.0679"/><ellipse cx="357.42" cy="63.0679" fill="#ADD1B2" rx="11" ry="11" style="stroke:#181818;stroke-width:1.0;"/><path d="M356.8888,69.9898 Q355.1388,69.9898 353.9981,69.2554 Q352.8731,68.5054 352.3106,67.1617 Q351.7638,65.8023 351.7638,64.0054 Q351.7638,61.9742 352.42,60.521 Q353.0763,59.0679 354.3575,58.2867 Q355.6388,57.5054 357.5138,57.5054 Q358.4044,57.5054 359.0763,57.6929 Q359.7481,57.8648 360.4356,58.2085 L359.6231,60.2242 Q358.9981,59.9117 358.4513,59.7867 Q357.92,59.6617 357.4356,59.6617 Q356.2638,59.6617 355.5606,60.1929 Q354.8575,60.7242 354.5606,61.6773 Q354.2638,62.6304 354.2638,63.896 Q354.2638,65.9117 354.9825,66.8804 Q355.7013,67.8335 357.295,67.8335 Q357.8888,67.8335 358.5138,67.6773 Q359.1388,67.521 359.9669,67.146 L359.9669,69.3648 Q359.2325,69.6773 358.4356,69.8335 Q357.6544,69.9898 356.8888,69.9898 Z " fill="#000000"/><text fill="#000000" font-family="sans-serif" font-size="14" lengthAdjust="spacing" textLength="64" x="374.72" y="68.4999">PERSONA</text><line style="stroke:#181818;stroke-width:0.5;" x1="328.57" x2="455.57" y1="79.0679" y2="79.0679"/><text fill="#000000" font-family="sans-serif" font-size="14" lengthAdjust="spacing" textLength="55" x="333.57" y="98.0339">Posición</text><text fill="#000000" font-family="sans-serif" font-size="14" lengthAdjust="spacing" textLength="117" x="333.57" y="117.1018">Tiempo en Planta</text><text fill="#000000" font-family="sans-serif" font-size="14" lengthAdjust="spacing" textLength="51" x="333.57" y="136.1697">Destino</text></g><!--MD5=[1c3b580ea3dfb06c1c32c5ff916d0fae]
class CUADRO DE MANDO--><g id="elem_CUADRO DE MANDO"><rect codeLine="26" fill="#F1F1F1" height="78.1358" id="CUADRO DE MANDO" rx="2.5" ry="2.5" style="stroke:#181818;stroke-width:0.5;" width="170" x="175.07" y="458.6079"/><ellipse cx="190.07" cy="474.6079" fill="#ADD1B2" rx="11" ry="11" style="stroke:#181818;stroke-width:1.0;"/><path d="M189.5388,481.5298 Q187.7888,481.5298 186.6481,480.7954 Q185.5231,480.0454 184.9606,478.7017 Q184.4138,477.3423 184.4138,475.5454 Q184.4138,473.5142 185.07,472.061 Q185.7263,470.6079 187.0075,469.8267 Q188.2888,469.0454 190.1638,469.0454 Q191.0544,469.0454 191.7263,469.2329 Q192.3981,469.4048 193.0856,469.7485 L192.2731,471.7642 Q191.6481,471.4517 191.1013,471.3267 Q190.57,471.2017 190.0856,471.2017 Q188.9138,471.2017 188.2106,471.7329 Q187.5075,472.2642 187.2106,473.2173 Q186.9138,474.1704 186.9138,475.436 Q186.9138,477.4517 187.6325,478.4204 Q188.3513,479.3735 189.945,479.3735 Q190.5388,479.3735 191.1638,479.2173 Q191.7888,479.061 192.6169,478.686 L192.6169,480.9048 Q191.8825,481.2173 191.0856,481.3735 Q190.3044,481.5298 189.5388,481.5298 Z " fill="#000000"/><text fill="#000000" font-family="sans-serif" font-size="14" lengthAdjust="spacing" textLength="138" x="204.07" y="480.0399">CUADRO DE MANDO</text><line style="stroke:#181818;stroke-width:0.5;" x1="176.07" x2="344.07" y1="490.6079" y2="490.6079"/><text fill="#000000" font-family="sans-serif" font-size="14" lengthAdjust="spacing" textLength="145" x="181.07" y="509.5739">Solicitudes de Parada</text><text fill="#000000" font-family="sans-serif" font-size="14" lengthAdjust="spacing" textLength="149" x="181.07" y="528.6418">Solicitudes de Destino</text></g><!--MD5=[e9656941bdc1406c09b5d558323b2820]
class PLANTA--><g id="elem_PLANTA"><rect codeLine="32" fill="#F1F1F1" height="97.2038" id="PLANTA" rx="2.5" ry="2.5" style="stroke:#181818;stroke-width:0.5;" width="84" x="488.07" y="634.8179"/><ellipse cx="503.07" cy="650.8179" fill="#ADD1B2" rx="11" ry="11" style="stroke:#181818;stroke-width:1.0;"/><path d="M502.5388,657.7398 Q500.7888,657.7398 499.6481,657.0054 Q498.5231,656.2554 497.9606,654.9117 Q497.4138,653.5523 497.4138,651.7554 Q497.4138,649.7242 498.07,648.271 Q498.7263,646.8179 500.0075,646.0367 Q501.2888,645.2554 503.1638,645.2554 Q504.0544,645.2554 504.7263,645.4429 Q505.3981,645.6148 506.0856,645.9585 L505.2731,647.9742 Q504.6481,647.6617 504.1013,647.5367 Q503.57,647.4117 503.0856,647.4117 Q501.9138,647.4117 501.2106,647.9429 Q500.5075,648.4742 500.2106,649.4273 Q499.9138,650.3804 499.9138,651.646 Q499.9138,653.6617 500.6325,654.6304 Q501.3513,655.5835 502.945,655.5835 Q503.5388,655.5835 504.1638,655.4273 Q504.7888,655.271 505.6169,654.896 L505.6169,657.1148 Q504.8825,657.4273 504.0856,657.5835 Q503.3044,657.7398 502.5388,657.7398 Z " fill="#000000"/><text fill="#000000" font-family="sans-serif" font-size="14" lengthAdjust="spacing" textLength="52" x="517.07" y="656.2499">PLANTA</text><line style="stroke:#181818;stroke-width:0.5;" x1="489.07" x2="571.07" y1="666.8179" y2="666.8179"/><text fill="#000000" font-family="sans-serif" font-size="14" lengthAdjust="spacing" textLength="15" x="494.07" y="685.7839">ID</text><text fill="#000000" font-family="sans-serif" font-size="14" lengthAdjust="spacing" textLength="61" x="494.07" y="704.8518">Personas</text><text fill="#000000" font-family="sans-serif" font-size="14" lengthAdjust="spacing" textLength="46" x="494.07" y="723.9197">Acceso</text></g><!--MD5=[ec927a89e342e7a42e4934ca5be2fc30]
class EDIFICIO--><g id="elem_EDIFICIO"><rect codeLine="39" fill="#F1F1F1" height="97.2038" id="EDIFICIO" rx="2.5" ry="2.5" style="stroke:#181818;stroke-width:0.5;" width="92" x="569.07" y="331.4079"/><ellipse cx="584.07" cy="347.4079" fill="#ADD1B2" rx="11" ry="11" style="stroke:#181818;stroke-width:1.0;"/><path d="M583.5387,354.3298 Q581.7887,354.3298 580.6481,353.5954 Q579.5231,352.8454 578.9606,351.5017 Q578.4137,350.1423 578.4137,348.3454 Q578.4137,346.3142 579.07,344.861 Q579.7262,343.4079 581.0075,342.6267 Q582.2887,341.8454 584.1637,341.8454 Q585.0544,341.8454 585.7262,342.0329 Q586.3981,342.2048 587.0856,342.5485 L586.2731,344.5642 Q585.6481,344.2517 585.1012,344.1267 Q584.57,344.0017 584.0856,344.0017 Q582.9137,344.0017 582.2106,344.5329 Q581.5075,345.0642 581.2106,346.0173 Q580.9137,346.9704 580.9137,348.236 Q580.9137,350.2517 581.6325,351.2204 Q582.3512,352.1735 583.945,352.1735 Q584.5387,352.1735 585.1637,352.0173 Q585.7887,351.861 586.6169,351.486 L586.6169,353.7048 Q585.8825,354.0173 585.0856,354.1735 Q584.3044,354.3298 583.5387,354.3298 Z " fill="#000000"/><text fill="#000000" font-family="sans-serif" font-size="14" lengthAdjust="spacing" textLength="60" x="598.07" y="352.8399">EDIFICIO</text><line style="stroke:#181818;stroke-width:0.5;" x1="570.07" x2="660.07" y1="363.4079" y2="363.4079"/><text fill="#000000" font-family="sans-serif" font-size="14" lengthAdjust="spacing" textLength="49" x="575.07" y="382.3739">Plantas</text><text fill="#000000" font-family="sans-serif" font-size="14" lengthAdjust="spacing" textLength="76" x="575.07" y="401.4418">Ascensores</text><text fill="#000000" font-family="sans-serif" font-size="14" lengthAdjust="spacing" textLength="46" x="575.07" y="420.5097">Acceso</text></g><!--MD5=[9e1b560e7e7a4a680983d646a35e6c12]
class TIEMPO--><g id="elem_TIEMPO"><rect codeLine="46" fill="#F1F1F1" height="32" id="TIEMPO" rx="2.5" ry="2.5" style="stroke:#181818;stroke-width:0.5;" width="85" x="549.57" y="79.6679"/><ellipse cx="564.57" cy="95.6679" fill="#ADD1B2" rx="11" ry="11" style="stroke:#181818;stroke-width:1.0;"/><path d="M564.0387,102.5898 Q562.2887,102.5898 561.1481,101.8554 Q560.0231,101.1054 559.4606,99.7617 Q558.9137,98.4023 558.9137,96.6054 Q558.9137,94.5742 559.57,93.121 Q560.2262,91.6679 561.5075,90.8867 Q562.7887,90.1054 564.6637,90.1054 Q565.5544,90.1054 566.2262,90.2929 Q566.8981,90.4648 567.5856,90.8085 L566.7731,92.8242 Q566.1481,92.5117 565.6012,92.3867 Q565.07,92.2617 564.5856,92.2617 Q563.4137,92.2617 562.7106,92.7929 Q562.0075,93.3242 561.7106,94.2773 Q561.4137,95.2304 561.4137,96.496 Q561.4137,98.5117 562.1325,99.4804 Q562.8512,100.4335 564.445,100.4335 Q565.0387,100.4335 565.6637,100.2773 Q566.2887,100.121 567.1169,99.746 L567.1169,101.9648 Q566.3825,102.2773 565.5856,102.4335 Q564.8044,102.5898 564.0387,102.5898 Z " fill="#000000"/><text fill="#000000" font-family="sans-serif" font-size="14" lengthAdjust="spacing" textLength="53" x="578.57" y="101.0999">TIEMPO</text></g><!--MD5=[c0a1b8b50003b5370ad443b5580afbba]
class SOLICITUD PARADA--><g id="elem_SOLICITUD PARADA"><rect codeLine="51" fill="#F1F1F1" height="78.1358" id="SOLICITUD PARADA" rx="2.5" ry="2.5" style="stroke:#181818;stroke-width:0.5;" width="163" x="108.57" y="223.2779"/><ellipse cx="123.57" cy="239.2779" fill="#ADD1B2" rx="11" ry="11" style="stroke:#181818;stroke-width:1.0;"/><path d="M123.0388,246.1998 Q121.2888,246.1998 120.1481,245.4654 Q119.0231,244.7154 118.4606,243.3717 Q117.9138,242.0123 117.9138,240.2154 Q117.9138,238.1842 118.57,236.731 Q119.2263,235.2779 120.5075,234.4967 Q121.7888,233.7154 123.6638,233.7154 Q124.5544,233.7154 125.2263,233.9029 Q125.8981,234.0748 126.5856,234.4185 L125.7731,236.4342 Q125.1481,236.1217 124.6013,235.9967 Q124.07,235.8717 123.5856,235.8717 Q122.4138,235.8717 121.7106,236.4029 Q121.0075,236.9342 120.7106,237.8873 Q120.4138,238.8404 120.4138,240.106 Q120.4138,242.1217 121.1325,243.0904 Q121.8513,244.0435 123.445,244.0435 Q124.0388,244.0435 124.6638,243.8873 Q125.2888,243.731 126.1169,243.356 L126.1169,245.5748 Q125.3825,245.8873 124.5856,246.0435 Q123.8044,246.1998 123.0388,246.1998 Z " fill="#000000"/><text fill="#000000" font-family="sans-serif" font-size="14" lengthAdjust="spacing" textLength="131" x="137.57" y="244.7099">SOLICITUD PARADA</text><line style="stroke:#181818;stroke-width:0.5;" x1="109.57" x2="270.57" y1="255.2779" y2="255.2779"/><text fill="#000000" font-family="sans-serif" font-size="14" lengthAdjust="spacing" textLength="47" x="114.57" y="274.2439">Origen</text><text fill="#000000" font-family="sans-serif" font-size="14" lengthAdjust="spacing" textLength="79" x="114.57" y="293.3118">Movimiento</text></g><!--MD5=[b8729fb9f5f9cd2c48204a909f29b0ec]
class SOLICITUD DESTINO--><g id="elem_SOLICITUD DESTINO"><rect codeLine="57" fill="#F1F1F1" height="59.0679" id="SOLICITUD DESTINO" rx="2.5" ry="2.5" style="stroke:#181818;stroke-width:0.5;" width="170" x="307.07" y="232.8079"/><ellipse cx="322.07" cy="248.8079" fill="#ADD1B2" rx="11" ry="11" style="stroke:#181818;stroke-width:1.0;"/><path d="M321.5388,255.7298 Q319.7888,255.7298 318.6481,254.9954 Q317.5231,254.2454 316.9606,252.9017 Q316.4138,251.5423 316.4138,249.7454 Q316.4138,247.7142 317.07,246.261 Q317.7263,244.8079 319.0075,244.0267 Q320.2888,243.2454 322.1638,243.2454 Q323.0544,243.2454 323.7263,243.4329 Q324.3981,243.6048 325.0856,243.9485 L324.2731,245.9642 Q323.6481,245.6517 323.1013,245.5267 Q322.57,245.4017 322.0856,245.4017 Q320.9138,245.4017 320.2106,245.9329 Q319.5075,246.4642 319.2106,247.4173 Q318.9138,248.3704 318.9138,249.636 Q318.9138,251.6517 319.6325,252.6204 Q320.3513,253.5735 321.945,253.5735 Q322.5388,253.5735 323.1638,253.4173 Q323.7888,253.261 324.6169,252.886 L324.6169,255.1048 Q323.8825,255.4173 323.0856,255.5735 Q322.3044,255.7298 321.5388,255.7298 Z " fill="#000000"/><text fill="#000000" font-family="sans-serif" font-size="14" lengthAdjust="spacing" textLength="138" x="336.07" y="254.2399">SOLICITUD DESTINO</text><line style="stroke:#181818;stroke-width:0.5;" x1="308.07" x2="476.07" y1="264.8079" y2="264.8079"/><text fill="#000000" font-family="sans-serif" font-size="14" lengthAdjust="spacing" textLength="51" x="313.07" y="283.7739">Destino</text></g><!--MD5=[5607f84eab8ab736c964a70752f946d9]
link EDIFICIO to PLANTA--><g id="link_EDIFICIO_PLANTA"><path codeLine="63" d="M601.51,429.0979 C586.18,483.4679 561.28,571.7479 545.3,628.4279 " fill="none" id="EDIFICIO-to-PLANTA" style="stroke:#181818;stroke-width:1.0;"/><polygon fill="#181818" points="544,633.0379,550.2919,625.4608,545.3566,628.2255,542.592,623.2902,544,633.0379" style="stroke:#181818;stroke-width:1.0;"/><text fill="#000000" font-family="sans-serif" font-size="13" lengthAdjust="spacing" textLength="30" x="593.07" y="503.0749">tiene</text></g><!--MD5=[9105f1052ab1fdd31e20e5e195f658ee]
link PLANTA to PERSONA--><g id="link_PLANTA_PERSONA"><path codeLine="64" d="M527.91,634.3479 C522.74,524.3179 508.97,260.7479 494.07,223.2779 C483.32,196.2079 464.66,170.3879 446.22,149.2079 " fill="none" id="PLANTA-to-PERSONA" style="stroke:#181818;stroke-width:1.0;"/><polygon fill="#181818" points="443.04,145.6179,446.0118,155.0077,446.3547,149.3613,452.0012,149.7042,443.04,145.6179" style="stroke:#181818;stroke-width:1.0;"/><text fill="#000000" font-family="sans-serif" font-size="13" lengthAdjust="spacing" textLength="30" x="518.07" y="385.4049">tiene</text></g><!--MD5=[c7f33c7bac821c14540a2467ae70e7a4]
reverse link ASCENSOR to PLANTA--><g id="link_ASCENSOR_PLANTA"><path codeLine="65" d="M319.19,683.4179 C370.11,683.4179 442.36,683.4179 487.7,683.4179 " fill="none" id="ASCENSOR-backto-PLANTA" style="stroke:#181818;stroke-width:1.0;"/><polygon fill="#181818" points="314.29,683.4179,323.29,687.4179,319.29,683.4179,323.29,679.4179,314.29,683.4179" style="stroke:#181818;stroke-width:1.0;"/><text fill="#000000" font-family="sans-serif" font-size="13" lengthAdjust="spacing" textLength="73" x="363.82" y="676.3149">tiene acceso</text></g><!--MD5=[9006f5621949b75619ea6fa69c17e93e]
link PERSONA to ASCENSOR--><g id="link_PERSONA_ASCENSOR"><path codeLine="66" d="M327.22,103.3379 C255.59,114.5679 143.46,144.4079 91.07,223.2779 C6,351.3479 125.73,527.8579 203.17,620.2779 " fill="none" id="PERSONA-to-ASCENSOR" style="stroke:#181818;stroke-width:1.0;"/><polygon fill="#181818" points="206.31,623.9979,203.5659,614.5391,203.0867,620.1756,197.4502,619.6964,206.31,623.9979" style="stroke:#181818;stroke-width:1.0;"/><text fill="#000000" font-family="sans-serif" font-size="13" lengthAdjust="spacing" textLength="35" x="84.07" y="385.4049">utiliza</text></g><!--MD5=[184bf691020087a9ced49be4c0a1719d]
link PERSONA to SOLICITUD PARADA--><g id="link_PERSONA_SOLICITUD PARADA"><path codeLine="68" d="M333.1,144.7479 C304.26,168.2579 269.85,196.3079 242.02,218.9979 " fill="none" id="PERSONA-to-SOLICITUD PARADA" style="stroke:#181818;stroke-width:1.0;"/><polygon fill="#181818" points="238.42,221.9279,247.917,219.3189,242.2879,218.7594,242.8474,213.1303,238.42,221.9279" style="stroke:#181818;stroke-width:1.0;"/><text fill="#000000" font-family="sans-serif" font-size="13" lengthAdjust="spacing" textLength="41" x="292.07" y="189.1749">solicita</text></g><!--MD5=[80d26f6736b7fd9fef411ca61715b656]
link PERSONA to SOLICITUD DESTINO--><g id="link_PERSONA_SOLICITUD DESTINO"><path codeLine="69" d="M392.07,144.7479 C392.07,170.7779 392.07,202.3679 392.07,226.0979 " fill="none" id="PERSONA-to-SOLICITUD DESTINO" style="stroke:#181818;stroke-width:1.0;"/><polygon fill="#181818" points="392.07,231.0579,396.07,222.0579,392.07,226.0579,388.07,222.0579,392.07,231.0579" style="stroke:#181818;stroke-width:1.0;"/><text fill="#000000" font-family="sans-serif" font-size="13" lengthAdjust="spacing" textLength="41" x="393.07" y="189.1749">solicita</text></g><!--MD5=[68f104ed62e79ac2543e59c27abb811e]
link CUADRO DE MANDO to ASCENSOR--><g id="link_CUADRO DE MANDO_ASCENSOR"><path codeLine="70" d="M260.07,537.1979 C260.07,558.0579 260.07,584.5279 260.07,609.1379 " fill="none" id="CUADRO DE MANDO-to-ASCENSOR" style="stroke:#181818;stroke-width:1.0;"/><polygon fill="#181818" points="260.07,613.8379,264.07,604.8379,260.07,608.8379,256.07,604.8379,260.07,613.8379" style="stroke:#181818;stroke-width:1.0;"/><text fill="#000000" font-family="sans-serif" font-size="13" lengthAdjust="spacing" textLength="54" x="261.07" y="581.6449">gobierna</text></g><!--MD5=[6489c5f04fa768b12e51437cc53e5017]
link SOLICITUD PARADA to CUADRO DE MANDO--><g id="link_SOLICITUD PARADA_CUADRO DE MANDO"><path codeLine="71" d="M201.63,301.8679 C214.06,343.2879 233.77,409.0179 246.82,452.4979 " fill="none" id="SOLICITUD PARADA-to-CUADRO DE MANDO" style="stroke:#181818;stroke-width:1.0;"/><polygon fill="#181818" points="248.18,457.0279,249.4118,447.2564,246.7367,452.2408,241.7523,449.5657,248.18,457.0279" style="stroke:#181818;stroke-width:1.0;"/><text fill="#000000" font-family="sans-serif" font-size="13" lengthAdjust="spacing" textLength="48" x="241.07" y="385.4049">se envía</text></g><!--MD5=[2208b99780826b8b504bf7de0c9f3fcd]
link SOLICITUD DESTINO to CUADRO DE MANDO--><g id="link_SOLICITUD DESTINO_CUADRO DE MANDO"><path codeLine="72" d="M375.89,291.9479 C353.2,332.0679 311.72,405.3779 285.06,452.5179 " fill="none" id="SOLICITUD DESTINO-to-CUADRO DE MANDO" style="stroke:#181818;stroke-width:1.0;"/><polygon fill="#181818" points="282.62,456.8179,290.5396,450.963,285.0869,452.4688,283.5811,447.0161,282.62,456.8179" style="stroke:#181818;stroke-width:1.0;"/><text fill="#000000" font-family="sans-serif" font-size="13" lengthAdjust="spacing" textLength="48" x="354.07" y="385.4049">se envía</text></g><!--MD5=[0940be977c1caf7647bbdd47db0e00aa]
reverse link PERSONA to TIEMPO--><g id="link_PERSONA_TIEMPO"><path codeLine="74" d="M463.45,95.6679 C492.13,95.6679 524.24,95.6679 549.2,95.6679 " fill="none" id="PERSONA-backto-TIEMPO" style="stroke:#181818;stroke-width:1.0;"/><polygon fill="#181818" points="458.52,95.6679,467.52,99.6679,463.52,95.6679,467.52,91.6679,458.52,95.6679" style="stroke:#181818;stroke-width:1.0;"/><text fill="#000000" font-family="sans-serif" font-size="13" lengthAdjust="spacing" textLength="36" x="485.07" y="88.5649">afecta</text></g><!--MD5=[88d9963d84199b5478e06c48b556fc25]
link TIEMPO to EDIFICIO--><g id="link_TIEMPO_EDIFICIO"><path codeLine="75" d="M593.31,111.8479 C596.53,151.3579 605.28,258.8579 610.66,324.8279 " fill="none" id="TIEMPO-to-EDIFICIO" style="stroke:#181818;stroke-width:1.0;"/><polygon fill="#181818" points="611.05,329.5679,614.291,320.2676,610.636,324.5851,606.3185,320.9301,611.05,329.5679" style="stroke:#181818;stroke-width:1.0;"/><text fill="#000000" font-family="sans-serif" font-size="13" lengthAdjust="spacing" textLength="36" x="601.07" y="189.1749">afecta</text></g><!--MD5=[c09acb1cb2205bf902c885edc8b27812]
@startuml Diagrama_de_Clases

title Diagrama de Clases

skinparam {
    NoteBackgroundColor #whiteSmoke
}

hide empty members

class ASCENSOR 
{
    ID
    Posición
    Capacidad
    Dirección
    Acceso
}

class PERSONA 
{
    Posición
    Tiempo en Planta
    Destino
}

class "CUADRO DE MANDO"
{
    Solicitudes de Parada
    Solicitudes de Destino
}

class PLANTA 
{
    ID
    Personas
    Acceso
}

class EDIFICIO 
{
    Plantas
    Ascensores
    Acceso
}

class TIEMPO 
{

}

class "SOLICITUD PARADA"
{
    Origen
    Movimiento
}

class "SOLICITUD DESTINO"
{
    Destino
}


EDIFICIO - -> PLANTA : tiene
PLANTA - -> PERSONA : tiene
PLANTA -left-> ASCENSOR : tiene acceso
PERSONA - -> ASCENSOR : utiliza

PERSONA - -> "SOLICITUD PARADA" : solicita
PERSONA - -> "SOLICITUD DESTINO" : solicita
"CUADRO DE MANDO" - -> ASCENSOR : gobierna
"SOLICITUD PARADA" - -> "CUADRO DE MANDO" : se envía
"SOLICITUD DESTINO" - -> "CUADRO DE MANDO" : se envía

TIEMPO -left-> PERSONA : afecta
TIEMPO - -> EDIFICIO : afecta

@enduml

PlantUML version 1.2022.7(Mon Aug 22 19:01:30 CEST 2022)
(GPL source distribution)
Java Runtime: OpenJDK Runtime Environment
JVM: OpenJDK 64-Bit Server VM
Default Encoding: UTF-8
Language: es
Country: ES
--></g></svg>