<?xml version="1.0" encoding="UTF-8" standalone="no"?><svg xmlns="http://www.w3.org/2000/svg" xmlns:xlink="http://www.w3.org/1999/xlink" contentStyleType="text/css" height="1029px" preserveAspectRatio="none" style="width:598px;height:1029px;background:#FFFFFF;" version="1.1" viewBox="0 0 598 1029" width="598px" zoomAndPan="magnify"><defs/><g><rect fill="none" height="29.0679" id="_title" style="stroke:none;stroke-width:1.0;" width="248" x="165.14" y="5"/><text fill="#000000" font-family="sans-serif" font-size="14" font-weight="bold" lengthAdjust="spacing" textLength="238" x="170.14" y="24.9659">Diagrama de Estados del Ascensor</text><ellipse cx="296.14" cy="56.0679" fill="#222222" rx="10" ry="10" style="stroke:none;stroke-width:1.0;"/><ellipse cx="296.14" cy="1013.2779" fill="none" rx="10" ry="10" style="stroke:#222222;stroke-width:1.0;"/><ellipse cx="296.64" cy="1013.7779" fill="#222222" rx="6" ry="6" style="stroke:none;stroke-width:1.0;"/><path d="M19.5,145.0679 L572.78,145.0679 A12.5,12.5 0 0 1 585.28,157.5679 L585.28,174.1358 L7,174.1358 L7,157.5679 A12.5,12.5 0 0 1 19.5,145.0679 " fill="#F1F1F1" style="stroke:#F1F1F1;stroke-width:1.0;"/><rect fill="none" height="779.2058" rx="12.5" ry="12.5" style="stroke:#181818;stroke-width:0.5;" width="578.28" x="7" y="145.0679"/><line style="stroke:#181818;stroke-width:0.5;" x1="7" x2="585.28" y1="174.1358" y2="174.1358"/><text fill="#000000" font-family="sans-serif" font-size="14" lengthAdjust="spacing" textLength="61" x="265.64" y="165.0339">Ascensor</text><ellipse cx="358.64" cy="195.1358" fill="#222222" rx="10" ry="10" style="stroke:none;stroke-width:1.0;"/><g id="Ascensor.NoDisponible"><rect fill="#F1F1F1" height="50" rx="12.5" ry="12.5" style="stroke:#181818;stroke-width:0.5;" width="111" x="242.14" y="260.1358"/><line style="stroke:#181818;stroke-width:0.5;" x1="242.14" x2="353.14" y1="289.2038" y2="289.2038"/><text fill="#000000" font-family="sans-serif" font-size="14" lengthAdjust="spacing" textLength="91" x="252.14" y="280.1018">NoDisponible</text></g><path d="M31.5,365.1358 L563.78,365.1358 A12.5,12.5 0 0 1 576.28,377.6358 L576.28,394.2038 L19,394.2038 L19,377.6358 A12.5,12.5 0 0 1 31.5,365.1358 " fill="#F1F1F1" style="stroke:#F1F1F1;stroke-width:1.0;"/><rect fill="none" height="549.1379" rx="12.5" ry="12.5" style="stroke:#181818;stroke-width:0.5;" width="557.28" x="19" y="365.1358"/><line style="stroke:#181818;stroke-width:0.5;" x1="19" x2="576.28" y1="394.2038" y2="394.2038"/><text fill="#000000" font-family="sans-serif" font-size="14" lengthAdjust="spacing" textLength="72" x="261.64" y="385.1018">Disponible</text><ellipse cx="291.78" cy="415.2038" fill="#222222" rx="10" ry="10" style="stroke:none;stroke-width:1.0;"/><ellipse cx="291.78" cy="894.2738" fill="none" rx="10" ry="10" style="stroke:#222222;stroke-width:1.0;"/><ellipse cx="292.28" cy="894.7738" fill="#222222" rx="6" ry="6" style="stroke:none;stroke-width:1.0;"/><path d="M43.5,514.7038 L264.0609,514.7038 A12.5,12.5 0 0 1 276.5609,527.2038 L276.5609,543.7717 L31,543.7717 L31,527.2038 A12.5,12.5 0 0 1 43.5,514.7038 " fill="#F1F1F1" style="stroke:#F1F1F1;stroke-width:1.0;"/><rect fill="none" height="262.0679" rx="12.5" ry="12.5" style="stroke:#181818;stroke-width:0.5;" width="245.5609" x="31" y="514.7038"/><line style="stroke:#181818;stroke-width:0.5;" x1="31" x2="276.5609" y1="543.7717" y2="543.7717"/><text fill="#000000" font-family="sans-serif" font-size="14" lengthAdjust="spacing" textLength="79" x="114.2805" y="534.6697">Movimiento</text><ellipse cx="144.5609" cy="564.7717" fill="#222222" rx="10" ry="10" style="stroke:none;stroke-width:1.0;"/><g id="Ascensor.Disponible.Movimiento.Detenido"><rect fill="#F1F1F1" height="50" rx="12.5" ry="12.5" style="stroke:#181818;stroke-width:0.5;" width="81" x="104.0609" y="611.7717"/><line style="stroke:#181818;stroke-width:0.5;" x1="104.0609" x2="185.0609" y1="640.8396" y2="640.8396"/><text fill="#000000" font-family="sans-serif" font-size="14" lengthAdjust="spacing" textLength="61" x="114.0609" y="631.7376">Detenido</text></g><g id="Ascensor.Disponible.Movimiento.Subiendo"><rect fill="#F1F1F1" height="50" rx="12.5" ry="12.5" style="stroke:#181818;stroke-width:0.5;" width="84" x="46.5609" y="716.7717"/><line style="stroke:#181818;stroke-width:0.5;" x1="46.5609" x2="130.5609" y1="745.8396" y2="745.8396"/><text fill="#000000" font-family="sans-serif" font-size="14" lengthAdjust="spacing" textLength="64" x="56.5609" y="736.7376">Subiendo</text></g><g id="Ascensor.Disponible.Movimiento.Bajando"><rect fill="#F1F1F1" height="50" rx="12.5" ry="12.5" style="stroke:#181818;stroke-width:0.5;" width="75" x="164.0609" y="716.7717"/><line style="stroke:#181818;stroke-width:0.5;" x1="164.0609" x2="239.0609" y1="745.8396" y2="745.8396"/><text fill="#000000" font-family="sans-serif" font-size="14" lengthAdjust="spacing" textLength="55" x="174.0609" y="736.7376">Bajando</text></g><!--MD5=[613e1a7f41f9a5a45150b2834901febc]
link *start*Movimiento to Detenido--><g id="link_*start*Movimiento_Detenido"><path d="M144.5609,575.2117 C144.5609,582.9517 144.5609,594.3517 144.5609,605.1817 " fill="none" id="*start*Movimiento-to-Detenido" style="stroke:#181818;stroke-width:1.0;"/><polygon fill="#181818" points="144.5609,609.9417,148.5609,600.9417,144.5609,604.9417,140.5609,600.9417,144.5609,609.9417" style="stroke:#181818;stroke-width:1.0;"/></g><!--MD5=[11abb66b25fb5d598fac1c3d79393d3b]
link Detenido to Subiendo--><g id="link_Detenido_Subiendo"><path d="M103.8609,646.0017 C85.1709,652.0317 64.7209,662.3317 53.5609,679.7717 C47.1209,689.8417 50.7209,701.1317 57.6409,711.2417 " fill="none" id="Detenido-to-Subiendo" style="stroke:#181818;stroke-width:1.0;"/><polygon fill="#181818" points="60.6109,715.1917,58.389,705.5967,57.6018,711.1985,52,710.4113,60.6109,715.1917" style="stroke:#181818;stroke-width:1.0;"/><text fill="#000000" font-family="sans-serif" font-size="13" lengthAdjust="spacing" textLength="31" x="54.5609" y="694.6687">Subir</text></g><!--MD5=[f602507a9b370d42903a961780a7d0a2]
link Detenido to Bajando--><g id="link_Detenido_Bajando"><path d="M158.0709,662.1817 C166.1609,676.8017 176.5109,695.5017 185.0809,710.9917 " fill="none" id="Detenido-to-Bajando" style="stroke:#181818;stroke-width:1.0;"/><polygon fill="#181818" points="187.4209,715.2117,186.5848,705.3984,185.0097,710.8315,179.5766,709.2563,187.4209,715.2117" style="stroke:#181818;stroke-width:1.0;"/><text fill="#000000" font-family="sans-serif" font-size="13" lengthAdjust="spacing" textLength="30" x="179.5609" y="694.6687">Bajar</text></g><!--MD5=[d7aaf86db59bb0e1c46c2450a150dd92]
link Subiendo to Detenido--><g id="link_Subiendo_Detenido"><path d="M94.7209,716.4517 C98.1909,704.9117 103.1309,691.1917 109.5609,679.7717 C111.9809,675.4717 114.8709,671.1817 117.9309,667.0817 " fill="none" id="Subiendo-to-Detenido" style="stroke:#181818;stroke-width:1.0;"/><polygon fill="#181818" points="120.9409,663.1917,112.2651,667.8532,117.8772,667.143,118.5873,672.7552,120.9409,663.1917" style="stroke:#181818;stroke-width:1.0;"/><text fill="#000000" font-family="sans-serif" font-size="13" lengthAdjust="spacing" textLength="48" x="110.5609" y="694.6687">Detener</text></g><!--MD5=[22583ca28b3fa07811390db3c97eac80]
link Bajando to Detenido--><g id="link_Bajando_Detenido"><path d="M214.3109,716.4017 C218.5909,704.7217 220.8609,690.8917 214.5609,679.7717 C209.0209,669.9917 200.2009,662.2417 190.6509,656.2017 " fill="none" id="Bajando-to-Detenido" style="stroke:#181818;stroke-width:1.0;"/><polygon fill="#181818" points="186.5909,653.7917,192.2819,661.8299,190.8884,656.3473,196.371,654.9539,186.5909,653.7917" style="stroke:#181818;stroke-width:1.0;"/><text fill="#000000" font-family="sans-serif" font-size="13" lengthAdjust="spacing" textLength="48" x="218.5609" y="694.6687">Detener</text></g><path d="M306.78,462.2038 L554.78,462.2038 A12.5,12.5 0 0 1 567.28,474.7038 L567.28,491.2717 L294.28,491.2717 L294.28,474.7038 A12.5,12.5 0 0 1 306.78,462.2038 " fill="#F1F1F1" style="stroke:#F1F1F1;stroke-width:1.0;"/><rect fill="none" height="367.0679" rx="12.5" ry="12.5" style="stroke:#181818;stroke-width:0.5;" width="273" x="294.28" y="462.2038"/><line style="stroke:#181818;stroke-width:0.5;" x1="294.28" x2="567.28" y1="491.2717" y2="491.2717"/><text fill="#000000" font-family="sans-serif" font-size="14" lengthAdjust="spacing" textLength="71" x="395.28" y="482.1697">Capacidad</text><ellipse cx="462.28" cy="512.2717" fill="#222222" rx="10" ry="10" style="stroke:none;stroke-width:1.0;"/><g id="Ascensor.Disponible.Capacidad.Libre"><rect fill="#F1F1F1" height="50" rx="12.5" ry="12.5" style="stroke:#181818;stroke-width:0.5;" width="54" x="435.28" y="559.2717"/><line style="stroke:#181818;stroke-width:0.5;" x1="435.28" x2="489.28" y1="588.3396" y2="588.3396"/><text fill="#000000" font-family="sans-serif" font-size="14" lengthAdjust="spacing" textLength="34" x="445.28" y="579.2376">Libre</text></g><g id="Ascensor.Disponible.Capacidad.ParcialmenteLleno"><rect fill="#F1F1F1" height="50" rx="12.5" ry="12.5" style="stroke:#181818;stroke-width:0.5;" width="144" x="306.28" y="664.2717"/><line style="stroke:#181818;stroke-width:0.5;" x1="306.28" x2="450.28" y1="693.3396" y2="693.3396"/><text fill="#000000" font-family="sans-serif" font-size="14" lengthAdjust="spacing" textLength="124" x="316.28" y="684.2376">ParcialmenteLleno</text></g><g id="Ascensor.Disponible.Capacidad.Lleno"><rect fill="#F1F1F1" height="50" rx="12.5" ry="12.5" style="stroke:#181818;stroke-width:0.5;" width="56" x="434.28" y="769.2717"/><line style="stroke:#181818;stroke-width:0.5;" x1="434.28" x2="490.28" y1="798.3396" y2="798.3396"/><text fill="#000000" font-family="sans-serif" font-size="14" lengthAdjust="spacing" textLength="36" x="444.28" y="789.2376">Lleno</text></g><!--MD5=[db02d7f4820441afefddbbee3a11980b]
link *start*Capacidad to Libre--><g id="link_*start*Capacidad_Libre"><path d="M462.28,522.7117 C462.28,530.4517 462.28,541.8517 462.28,552.6817 " fill="none" id="*start*Capacidad-to-Libre" style="stroke:#181818;stroke-width:1.0;"/><polygon fill="#181818" points="462.28,557.4417,466.28,548.4417,462.28,552.4417,458.28,548.4417,462.28,557.4417" style="stroke:#181818;stroke-width:1.0;"/></g><!--MD5=[dfb82591c5398e7816e47da55ec45b97]
link Libre to ParcialmenteLleno--><g id="link_Libre_ParcialmenteLleno"><path d="M435.11,590.3817 C414.76,595.7917 388.3,606.5317 375.28,627.2717 C369.68,636.1917 368.88,647.3817 369.99,657.7317 " fill="none" id="Libre-to-ParcialmenteLleno" style="stroke:#181818;stroke-width:1.0;"/><polygon fill="#181818" points="370.69,662.5417,373.3388,653.0557,369.9629,657.5948,365.4238,654.219,370.69,662.5417" style="stroke:#181818;stroke-width:1.0;"/><text fill="#000000" font-family="sans-serif" font-size="13" lengthAdjust="spacing" textLength="37" x="376.28" y="642.1687">Llenar</text></g><!--MD5=[1e31d9be59875d8bcb9ca63eb8aa3d48]
link Libre to Lleno--><g id="link_Libre_Lleno"><path d="M467.72,609.5917 C468.78,615.3617 469.74,621.5117 470.28,627.2717 C475.46,682.1417 475.46,696.4017 470.28,751.2717 C469.93,754.9617 469.41,758.8117 468.81,762.6217 " fill="none" id="Libre-to-Lleno" style="stroke:#181818;stroke-width:1.0;"/><polygon fill="#181818" points="467.97,767.4617,473.4299,759.2647,468.8128,762.5332,465.5443,757.9162,467.97,767.4617" style="stroke:#181818;stroke-width:1.0;"/><text fill="#000000" font-family="sans-serif" font-size="13" lengthAdjust="spacing" textLength="37" x="474.28" y="694.6687">Llenar</text></g><!--MD5=[50966bc53527de6b5ce5c6beff772c26]
link ParcialmenteLleno to Lleno--><g id="link_ParcialmenteLleno_Lleno"><path d="M370.91,714.5017 C368.75,726.4217 368.52,740.4917 375.28,751.2717 C386.84,769.6817 408.99,780.2117 428.04,786.1317 " fill="none" id="ParcialmenteLleno-to-Lleno" style="stroke:#181818;stroke-width:1.0;"/><polygon fill="#181818" points="432.39,787.3917,424.87,781.0317,427.59,785.9917,422.63,788.7117,432.39,787.3917" style="stroke:#181818;stroke-width:1.0;"/><text fill="#000000" font-family="sans-serif" font-size="13" lengthAdjust="spacing" textLength="37" x="376.28" y="747.1687">Llenar</text></g><!--MD5=[cbc58cafe1e7a88a37c1d7a18b079d6a]
link Lleno to Libre--><g id="link_Lleno_Libre"><path d="M484.57,769.0117 C496.5,754.3417 510,734.5917 516.28,714.2717 C522.84,693.0417 522.84,685.5017 516.28,664.2717 C510.69,646.1817 499.37,628.5317 488.53,614.5217 " fill="none" id="Lleno-to-Libre" style="stroke:#181818;stroke-width:1.0;"/><polygon fill="#181818" points="485.51,610.7217,487.9619,620.2604,488.6142,614.6413,494.2334,615.2936,485.51,610.7217" style="stroke:#181818;stroke-width:1.0;"/><text fill="#000000" font-family="sans-serif" font-size="13" lengthAdjust="spacing" textLength="36" x="521.28" y="694.6687">Vaciar</text></g><!--MD5=[e31e94b1fd6a41a0b68bd6d4a5d92396]
link Lleno to ParcialmenteLleno--><g id="link_Lleno_ParcialmenteLleno"><path d="M443.59,769.0417 C434.8,757.7717 424.12,744.2517 414.28,732.2717 C410.86,728.1117 407.22,723.7617 403.6,719.5017 " fill="none" id="Lleno-to-ParcialmenteLleno" style="stroke:#181818;stroke-width:1.0;"/><polygon fill="#181818" points="400.38,715.7117,403.1621,725.1594,403.6187,719.521,409.2571,719.9776,400.38,715.7117" style="stroke:#181818;stroke-width:1.0;"/><text fill="#000000" font-family="sans-serif" font-size="13" lengthAdjust="spacing" textLength="36" x="429.28" y="747.1687">Vaciar</text></g><!--MD5=[0d4d0709f3659f8973e52831e35bb63b]
link ParcialmenteLleno to Libre--><g id="link_ParcialmenteLleno_Libre"><path d="M399.39,663.9917 C404.33,658.2217 409.53,652.0617 414.28,646.2717 C422.73,635.9817 431.81,624.5417 439.78,614.3817 " fill="none" id="ParcialmenteLleno-to-Libre" style="stroke:#181818;stroke-width:1.0;"/><polygon fill="#181818" points="442.66,610.6917,433.9736,615.3335,439.5873,614.6361,440.2848,620.2498,442.66,610.6917" style="stroke:#181818;stroke-width:1.0;"/><text fill="#000000" font-family="sans-serif" font-size="13" lengthAdjust="spacing" textLength="36" x="429.28" y="642.1687">Vaciar</text></g><!--MD5=[f64995f7c30eb46d34b0b18e0d0092dd]
link *start*Disponible to Movimiento--><g id="link_*start*Disponible_Movimiento"><path d="M286.87,424.3438 C277.9,439.1938 257.76,472.5538 235.79,508.9338 " fill="none" id="*start*Disponible-to-Movimiento" style="stroke:#181818;stroke-width:1.0;"/><polygon fill="#181818" points="233.32,513.0238,241.4026,507.396,235.9093,508.7464,234.5589,503.2531,233.32,513.0238" style="stroke:#181818;stroke-width:1.0;"/></g><!--MD5=[f7d2beef5a16f73a4afb80bd4738df9e]
link *start*Disponible to Capacidad--><g id="link_*start*Disponible_Capacidad"><path d="M296.73,424.3438 C301,431.3638 307.78,442.5138 316.08,456.1638 " fill="none" id="*start*Disponible-to-Capacidad" style="stroke:#181818;stroke-width:1.0;"/><polygon fill="#181818" points="318.68,460.4338,317.4411,450.6631,316.0907,456.1564,310.5974,454.806,318.68,460.4338" style="stroke:#181818;stroke-width:1.0;"/></g><!--MD5=[c6c3b099dca2952208e596de40d1d472]
link Movimiento to *end*Disponible--><g id="link_Movimiento_*end*Disponible"><path d="M226.82,777.2238 C250.02,818.6738 272.61,859.0338 284.05,879.4638 " fill="none" id="Movimiento-to-*end*Disponible" style="stroke:#181818;stroke-width:1.0;"/><polygon fill="#181818" points="286.49,883.8238,285.5914,874.016,284.0509,879.459,278.6078,877.9185,286.49,883.8238" style="stroke:#181818;stroke-width:1.0;"/><text fill="#000000" font-family="sans-serif" font-size="13" lengthAdjust="spacing" textLength="48" x="275.78" y="862.1708">Detener</text></g><!--MD5=[1b4acbba239b630d674a00a241319072]
link Capacidad to *end*Disponible--><g id="link_Capacidad_*end*Disponible"><path d="M354.85,829.6738 C346.81,842.5438 338.12,854.9038 328.78,866.2738 C322.43,874.0138 313.37,880.6638 305.81,885.4338 " fill="none" id="Capacidad-to-*end*Disponible" style="stroke:#181818;stroke-width:1.0;"/><polygon fill="#181818" points="301.69,887.9238,311.4654,886.7233,305.9775,885.3513,307.3495,879.8633,301.69,887.9238" style="stroke:#181818;stroke-width:1.0;"/><text fill="#000000" font-family="sans-serif" font-size="13" lengthAdjust="spacing" textLength="36" x="341.78" y="862.1708">Vaciar</text></g><!--MD5=[eed288b5ac9fd28cb86e3a7bc55c6265]
link *start*Ascensor to Disponible--><g id="link_*start*Ascensor_Disponible"><path d="M368.47,198.4858 C379.96,201.8058 398.43,209.1058 406.64,223.1358 C434.46,270.7058 416.45,292.9058 406.64,347.1358 C405.96,350.8858 405.24,354.6458 404.47,358.4158 " fill="none" id="*start*Ascensor-to-Disponible" style="stroke:#181818;stroke-width:1.0;"/><polygon fill="#181818" points="403.46,363.2958,409.2236,355.3095,404.4872,358.4025,401.3942,353.6661,403.46,363.2958" style="stroke:#181818;stroke-width:1.0;"/><text fill="#000000" font-family="sans-serif" font-size="13" lengthAdjust="spacing" textLength="106" x="421.64" y="290.5328">Acceso Habilitado</text></g><!--MD5=[64d7671009ff3917fc89273e6457ed9d]
link *start*Ascensor to NoDisponible--><g id="link_*start*Ascensor_NoDisponible"><path d="M348.44,197.3958 C334.46,199.7358 309.82,206.1558 298.64,223.1358 C292.85,231.9258 291.41,243.0858 291.81,253.4458 " fill="none" id="*start*Ascensor-to-NoDisponible" style="stroke:#181818;stroke-width:1.0;"/><polygon fill="#181818" points="292.16,258.2658,295.4803,248.9935,291.7885,253.2797,287.5024,249.5879,292.16,258.2658" style="stroke:#181818;stroke-width:1.0;"/><text fill="#000000" font-family="sans-serif" font-size="13" lengthAdjust="spacing" textLength="106" x="299.64" y="238.0328">Acceso Denegado</text></g><!--MD5=[184513690e38750cdc07ba6aca9e34d3]
link Disponible to NoDisponible--><g id="link_Disponible_NoDisponible"><path d="M297.64,364.6658 C297.64,346.1858 297.64,329.7858 297.64,316.8258 " fill="none" id="Disponible-to-NoDisponible" style="stroke:#181818;stroke-width:1.0;"/><polygon fill="#181818" points="297.64,311.8858,293.64,320.8858,297.64,316.8858,301.64,320.8858,297.64,311.8858" style="stroke:#181818;stroke-width:1.0;"/><text fill="#000000" font-family="sans-serif" font-size="13" lengthAdjust="spacing" textLength="106" x="298.64" y="343.0328">Acceso Denegado</text></g><!--MD5=[442fb9233b46fa57a3437d372ad5b37a]
link NoDisponible to Disponible--><g id="link_NoDisponible_Disponible"><path d="M241.72,293.4558 C220.55,299.2558 198.47,309.6158 185.64,328.1358 C178.89,337.8858 173.95,348.0858 170.6,358.6058 " fill="none" id="NoDisponible-to-Disponible" style="stroke:#181818;stroke-width:1.0;"/><polygon fill="#181818" points="169.22,363.3758,175.5534,355.8334,170.603,358.5709,167.8655,353.6206,169.22,363.3758" style="stroke:#181818;stroke-width:1.0;"/><text fill="#000000" font-family="sans-serif" font-size="13" lengthAdjust="spacing" textLength="106" x="186.64" y="343.0328">Acceso Habilitado</text></g><!--MD5=[6d0873ac6473590d3eed6c2dc1e0e886]
link *start to Ascensor--><g id="link_*start_Ascensor"><path d="M296.14,66.1679 C296.14,79.1279 296.14,105.0879 296.14,138.4279 " fill="none" id="*start-to-Ascensor" style="stroke:#181818;stroke-width:1.0;"/><polygon fill="#181818" points="296.14,143.2179,300.14,134.2179,296.14,138.2179,292.14,134.2179,296.14,143.2179" style="stroke:#181818;stroke-width:1.0;"/><text fill="#000000" font-family="sans-serif" font-size="13" lengthAdjust="spacing" textLength="36" x="297.14" y="110.9649">Iniciar</text></g><!--MD5=[34ceafbe897e791cf90b38b4a094b08c]
link Ascensor to *end--><g id="link_Ascensor_*end"><path d="M296.14,924.5879 C296.14,955.8979 296.14,981.3279 296.14,996.5879 " fill="none" id="Ascensor-to-*end" style="stroke:#181818;stroke-width:1.0;"/><polygon fill="#181818" points="296.14,1001.3579,300.14,992.3579,296.14,996.3579,292.14,992.3579,296.14,1001.3579" style="stroke:#181818;stroke-width:1.0;"/><text fill="#000000" font-family="sans-serif" font-size="13" lengthAdjust="spacing" textLength="48" x="297.14" y="969.1749">Detener</text></g><!--MD5=[46c98f555e5d291e4d4ba43528d46c4f]
@startuml Diagrama_de_Estados

title Diagrama de Estados del Ascensor

skinparam {
    NoteBackgroundColor #whiteSmoke
}

hide empty members

[*] - -> Ascensor : Iniciar
Ascensor - -> [*] : Detener

state Ascensor {

    [*] - -> Disponible : Acceso Habilitado
    [*] - -> NoDisponible : Acceso Denegado
    Disponible - -> NoDisponible : Acceso Denegado
    NoDisponible - -> Disponible : Acceso Habilitado

    state Disponible {
        [*] - -> Movimiento
        [*] - -> Capacidad
        Movimiento - -> [*] : Detener
        Capacidad - -> [*] : Vaciar

        state Movimiento {
            [*] - -> Detenido
            Detenido - -> Subiendo : Subir
            Detenido - -> Bajando : Bajar
            Subiendo - -> Detenido : Detener
            Bajando - -> Detenido : Detener
        }

        state Capacidad {
            [*] - -> Libre
            Libre - -> ParcialmenteLleno : Llenar
            Libre - -> Lleno : Llenar
            ParcialmenteLleno - -> Lleno : Llenar
            Lleno - -> Libre : Vaciar
            Lleno - -> ParcialmenteLleno : Vaciar
            ParcialmenteLleno - -> Libre : Vaciar
        }
    }
}



@enduml

PlantUML version 1.2022.7(Mon Aug 22 19:01:30 CEST 2022)
(GPL source distribution)
Java Runtime: OpenJDK Runtime Environment
JVM: OpenJDK 64-Bit Server VM
Default Encoding: UTF-8
Language: es
Country: ES
--></g></svg>