<?xml version="1.0" encoding="us-ascii" standalone="no"?><svg xmlns="http://www.w3.org/2000/svg" xmlns:xlink="http://www.w3.org/1999/xlink" contentStyleType="text/css" height="406px" preserveAspectRatio="none" style="width:1083px;height:406px;background:#FFFFFF;" version="1.1" viewBox="0 0 1083 406" width="1083px" zoomAndPan="magnify"><defs/><g><text fill="#000000" font-family="sans-serif" font-size="14" font-weight="bold" lengthAdjust="spacing" textLength="326" x="371.5" y="24.9659">Diagrama de Arquitectura(Modelos Relaciones)</text><!--cluster Lists--><g id="cluster_Lists"><path d="M8.5,313.8699 L41.5,313.8699 A3.75,3.75 0 0 1 44,316.3699 L51,338.9378 L1073.5,338.9378 A2.5,2.5 0 0 1 1076,341.4378 L1076,397.3699 A2.5,2.5 0 0 1 1073.5,399.8699 L8.5,399.8699 A2.5,2.5 0 0 1 6,397.3699 L6,316.3699 A2.5,2.5 0 0 1 8.5,313.8699 " fill="none" style="stroke:#000000;stroke-width:1.5;"/><line style="stroke:#000000;stroke-width:1.5;" x1="6" x2="51" y1="338.9378" y2="338.9378"/><text fill="#000000" font-family="sans-serif" font-size="14" font-weight="bold" lengthAdjust="spacing" textLength="32" x="10" y="330.8358">Lists</text></g><!--cluster Models--><g id="cluster_Models"><path d="M188.5,79.2699 L239.5,79.2699 A3.75,3.75 0 0 1 242,81.7699 L249,104.3378 L775.5,104.3378 A2.5,2.5 0 0 1 778,106.8378 L778,287.3699 A2.5,2.5 0 0 1 775.5,289.8699 L188.5,289.8699 A2.5,2.5 0 0 1 186,287.3699 L186,81.7699 A2.5,2.5 0 0 1 188.5,79.2699 " fill="none" style="stroke:#000000;stroke-width:1.5;"/><line style="stroke:#000000;stroke-width:1.5;" x1="186" x2="249" y1="104.3378" y2="104.3378"/><text fill="#000000" font-family="sans-serif" font-size="14" font-weight="bold" lengthAdjust="spacing" textLength="50" x="190" y="96.2358">Models</text></g><!--cluster Enums--><g id="cluster_Enums"><path d="M38.5,46.6699 L86.5,46.6699 A3.75,3.75 0 0 1 89,49.1699 L96,71.7378 L159.5,71.7378 A2.5,2.5 0 0 1 162,74.2378 L162,195.3699 A2.5,2.5 0 0 1 159.5,197.8699 L38.5,197.8699 A2.5,2.5 0 0 1 36,195.3699 L36,49.1699 A2.5,2.5 0 0 1 38.5,46.6699 " fill="none" style="stroke:#000000;stroke-width:1.5;"/><line style="stroke:#000000;stroke-width:1.5;" x1="36" x2="96" y1="71.7378" y2="71.7378"/><text fill="#000000" font-family="sans-serif" font-size="14" font-weight="bold" lengthAdjust="spacing" textLength="47" x="40" y="63.6358">Enums</text></g><!--class Counters--><g id="elem_Counters"><rect codeLine="10" fill="#F1F1F1" height="32" id="Counters" rx="2.5" ry="2.5" style="stroke:#181818;stroke-width:0.5;" width="93" x="322.5" y="351.8699"/><ellipse cx="337.5" cy="367.8699" fill="#ADD1B2" rx="11" ry="11" style="stroke:#181818;stroke-width:1.0;"/><path d="M336.9688,374.7918 Q335.2188,374.7918 334.0781,374.0574 Q332.9531,373.3074 332.3906,371.9636 Q331.8438,370.6043 331.8438,368.8074 Q331.8438,366.7761 332.5,365.323 Q333.1563,363.8699 334.4375,363.0886 Q335.7188,362.3074 337.5938,362.3074 Q338.4844,362.3074 339.1563,362.4949 Q339.8281,362.6668 340.5156,363.0105 L339.7031,365.0261 Q339.0781,364.7136 338.5313,364.5886 Q338,364.4636 337.5156,364.4636 Q336.3438,364.4636 335.6406,364.9949 Q334.9375,365.5261 334.6406,366.4793 Q334.3438,367.4324 334.3438,368.698 Q334.3438,370.7136 335.0625,371.6824 Q335.7813,372.6355 337.375,372.6355 Q337.9688,372.6355 338.5938,372.4793 Q339.2188,372.323 340.0469,371.948 L340.0469,374.1668 Q339.3125,374.4793 338.5156,374.6355 Q337.7344,374.7918 336.9688,374.7918 Z " fill="#000000"/><text fill="#000000" font-family="sans-serif" font-size="14" lengthAdjust="spacing" textLength="61" x="351.5" y="373.3019">Counters</text></g><!--class ElevatorList--><g id="elem_ElevatorList"><rect codeLine="13" fill="#F1F1F1" height="32" id="ElevatorList" rx="2.5" ry="2.5" style="stroke:#181818;stroke-width:0.5;" width="109" x="573.5" y="351.8699"/><ellipse cx="588.5" cy="367.8699" fill="#ADD1B2" rx="11" ry="11" style="stroke:#181818;stroke-width:1.0;"/><path d="M587.9688,374.7918 Q586.2188,374.7918 585.0781,374.0574 Q583.9531,373.3074 583.3906,371.9636 Q582.8438,370.6043 582.8438,368.8074 Q582.8438,366.7761 583.5,365.323 Q584.1563,363.8699 585.4375,363.0886 Q586.7188,362.3074 588.5938,362.3074 Q589.4844,362.3074 590.1563,362.4949 Q590.8281,362.6668 591.5156,363.0105 L590.7031,365.0261 Q590.0781,364.7136 589.5313,364.5886 Q589,364.4636 588.5156,364.4636 Q587.3438,364.4636 586.6406,364.9949 Q585.9375,365.5261 585.6406,366.4793 Q585.3438,367.4324 585.3438,368.698 Q585.3438,370.7136 586.0625,371.6824 Q586.7813,372.6355 588.375,372.6355 Q588.9688,372.6355 589.5938,372.4793 Q590.2188,372.323 591.0469,371.948 L591.0469,374.1668 Q590.3125,374.4793 589.5156,374.6355 Q588.7344,374.7918 587.9688,374.7918 Z " fill="#000000"/><text fill="#000000" font-family="sans-serif" font-size="14" lengthAdjust="spacing" textLength="77" x="602.5" y="373.3019">ElevatorList</text></g><!--class ElevatorRequestList--><g id="elem_ElevatorRequestList"><rect codeLine="16" fill="#F1F1F1" height="32" id="ElevatorRequestList" rx="2.5" ry="2.5" style="stroke:#181818;stroke-width:0.5;" width="164" x="718" y="351.8699"/><ellipse cx="733" cy="367.8699" fill="#ADD1B2" rx="11" ry="11" style="stroke:#181818;stroke-width:1.0;"/><path d="M732.4688,374.7918 Q730.7188,374.7918 729.5781,374.0574 Q728.4531,373.3074 727.8906,371.9636 Q727.3438,370.6043 727.3438,368.8074 Q727.3438,366.7761 728,365.323 Q728.6563,363.8699 729.9375,363.0886 Q731.2188,362.3074 733.0938,362.3074 Q733.9844,362.3074 734.6563,362.4949 Q735.3281,362.6668 736.0156,363.0105 L735.2031,365.0261 Q734.5781,364.7136 734.0313,364.5886 Q733.5,364.4636 733.0156,364.4636 Q731.8438,364.4636 731.1406,364.9949 Q730.4375,365.5261 730.1406,366.4793 Q729.8438,367.4324 729.8438,368.698 Q729.8438,370.7136 730.5625,371.6824 Q731.2813,372.6355 732.875,372.6355 Q733.4688,372.6355 734.0938,372.4793 Q734.7188,372.323 735.5469,371.948 L735.5469,374.1668 Q734.8125,374.4793 734.0156,374.6355 Q733.2344,374.7918 732.4688,374.7918 Z " fill="#000000"/><text fill="#000000" font-family="sans-serif" font-size="14" lengthAdjust="spacing" textLength="132" x="747" y="373.3019">ElevatorRequestList</text></g><!--class FloorList--><g id="elem_FloorList"><rect codeLine="19" fill="#F1F1F1" height="32" id="FloorList" rx="2.5" ry="2.5" style="stroke:#181818;stroke-width:0.5;" width="88" x="451" y="351.8699"/><ellipse cx="466" cy="367.8699" fill="#ADD1B2" rx="11" ry="11" style="stroke:#181818;stroke-width:1.0;"/><path d="M465.4688,374.7918 Q463.7188,374.7918 462.5781,374.0574 Q461.4531,373.3074 460.8906,371.9636 Q460.3438,370.6043 460.3438,368.8074 Q460.3438,366.7761 461,365.323 Q461.6563,363.8699 462.9375,363.0886 Q464.2188,362.3074 466.0938,362.3074 Q466.9844,362.3074 467.6563,362.4949 Q468.3281,362.6668 469.0156,363.0105 L468.2031,365.0261 Q467.5781,364.7136 467.0313,364.5886 Q466.5,364.4636 466.0156,364.4636 Q464.8438,364.4636 464.1406,364.9949 Q463.4375,365.5261 463.1406,366.4793 Q462.8438,367.4324 462.8438,368.698 Q462.8438,370.7136 463.5625,371.6824 Q464.2813,372.6355 465.875,372.6355 Q466.4688,372.6355 467.0938,372.4793 Q467.7188,372.323 468.5469,371.948 L468.5469,374.1668 Q467.8125,374.4793 467.0156,374.6355 Q466.2344,374.7918 465.4688,374.7918 Z " fill="#000000"/><text fill="#000000" font-family="sans-serif" font-size="14" lengthAdjust="spacing" textLength="56" x="480" y="373.3019">FloorList</text></g><!--class FloorRequestList--><g id="elem_FloorRequestList"><rect codeLine="22" fill="#F1F1F1" height="32" id="FloorRequestList" rx="2.5" ry="2.5" style="stroke:#181818;stroke-width:0.5;" width="143" x="917.5" y="351.8699"/><ellipse cx="932.5" cy="367.8699" fill="#ADD1B2" rx="11" ry="11" style="stroke:#181818;stroke-width:1.0;"/><path d="M931.9688,374.7918 Q930.2188,374.7918 929.0781,374.0574 Q927.9531,373.3074 927.3906,371.9636 Q926.8438,370.6043 926.8438,368.8074 Q926.8438,366.7761 927.5,365.323 Q928.1563,363.8699 929.4375,363.0886 Q930.7188,362.3074 932.5938,362.3074 Q933.4844,362.3074 934.1563,362.4949 Q934.8281,362.6668 935.5156,363.0105 L934.7031,365.0261 Q934.0781,364.7136 933.5313,364.5886 Q933,364.4636 932.5156,364.4636 Q931.3438,364.4636 930.6406,364.9949 Q929.9375,365.5261 929.6406,366.4793 Q929.3438,367.4324 929.3438,368.698 Q929.3438,370.7136 930.0625,371.6824 Q930.7813,372.6355 932.375,372.6355 Q932.9688,372.6355 933.5938,372.4793 Q934.2188,372.323 935.0469,371.948 L935.0469,374.1668 Q934.3125,374.4793 933.5156,374.6355 Q932.7344,374.7918 931.9688,374.7918 Z " fill="#000000"/><text fill="#000000" font-family="sans-serif" font-size="14" lengthAdjust="spacing" textLength="111" x="946.5" y="373.3019">FloorRequestList</text></g><!--class FloorsToGoList--><g id="elem_FloorsToGoList"><rect codeLine="25" fill="#F1F1F1" height="32" id="FloorsToGoList" rx="2.5" ry="2.5" style="stroke:#181818;stroke-width:0.5;" width="129" x="22.5" y="351.8699"/><ellipse cx="37.5" cy="367.8699" fill="#ADD1B2" rx="11" ry="11" style="stroke:#181818;stroke-width:1.0;"/><path d="M36.9688,374.7918 Q35.2188,374.7918 34.0781,374.0574 Q32.9531,373.3074 32.3906,371.9636 Q31.8438,370.6043 31.8438,368.8074 Q31.8438,366.7761 32.5,365.323 Q33.1563,363.8699 34.4375,363.0886 Q35.7188,362.3074 37.5938,362.3074 Q38.4844,362.3074 39.1563,362.4949 Q39.8281,362.6668 40.5156,363.0105 L39.7031,365.0261 Q39.0781,364.7136 38.5313,364.5886 Q38,364.4636 37.5156,364.4636 Q36.3438,364.4636 35.6406,364.9949 Q34.9375,365.5261 34.6406,366.4793 Q34.3438,367.4324 34.3438,368.698 Q34.3438,370.7136 35.0625,371.6824 Q35.7813,372.6355 37.375,372.6355 Q37.9688,372.6355 38.5938,372.4793 Q39.2188,372.323 40.0469,371.948 L40.0469,374.1668 Q39.3125,374.4793 38.5156,374.6355 Q37.7344,374.7918 36.9688,374.7918 Z " fill="#000000"/><text fill="#000000" font-family="sans-serif" font-size="14" lengthAdjust="spacing" textLength="97" x="51.5" y="373.3019">FloorsToGoList</text></g><!--class PersonList--><g id="elem_PersonList"><rect codeLine="28" fill="#F1F1F1" height="32" id="PersonList" rx="2.5" ry="2.5" style="stroke:#181818;stroke-width:0.5;" width="101" x="186.5" y="351.8699"/><ellipse cx="201.5" cy="367.8699" fill="#ADD1B2" rx="11" ry="11" style="stroke:#181818;stroke-width:1.0;"/><path d="M200.9688,374.7918 Q199.2188,374.7918 198.0781,374.0574 Q196.9531,373.3074 196.3906,371.9636 Q195.8438,370.6043 195.8438,368.8074 Q195.8438,366.7761 196.5,365.323 Q197.1563,363.8699 198.4375,363.0886 Q199.7188,362.3074 201.5938,362.3074 Q202.4844,362.3074 203.1563,362.4949 Q203.8281,362.6668 204.5156,363.0105 L203.7031,365.0261 Q203.0781,364.7136 202.5313,364.5886 Q202,364.4636 201.5156,364.4636 Q200.3438,364.4636 199.6406,364.9949 Q198.9375,365.5261 198.6406,366.4793 Q198.3438,367.4324 198.3438,368.698 Q198.3438,370.7136 199.0625,371.6824 Q199.7813,372.6355 201.375,372.6355 Q201.9688,372.6355 202.5938,372.4793 Q203.2188,372.323 204.0469,371.948 L204.0469,374.1668 Q203.3125,374.4793 202.5156,374.6355 Q201.7344,374.7918 200.9688,374.7918 Z " fill="#000000"/><text fill="#000000" font-family="sans-serif" font-size="14" lengthAdjust="spacing" textLength="69" x="215.5" y="373.3019">PersonList</text></g><!--class Building--><g id="elem_Building"><rect codeLine="33" fill="#F1F1F1" height="32" id="Building" rx="2.5" ry="2.5" style="stroke:#181818;stroke-width:0.5;" width="89" x="534.5" y="241.8699"/><ellipse cx="549.5" cy="257.8699" fill="#ADD1B2" rx="11" ry="11" style="stroke:#181818;stroke-width:1.0;"/><path d="M548.9688,264.7918 Q547.2188,264.7918 546.0781,264.0574 Q544.9531,263.3074 544.3906,261.9636 Q543.8438,260.6043 543.8438,258.8074 Q543.8438,256.7761 544.5,255.323 Q545.1563,253.8699 546.4375,253.0886 Q547.7188,252.3074 549.5938,252.3074 Q550.4844,252.3074 551.1563,252.4949 Q551.8281,252.6668 552.5156,253.0105 L551.7031,255.0261 Q551.0781,254.7136 550.5313,254.5886 Q550,254.4636 549.5156,254.4636 Q548.3438,254.4636 547.6406,254.9949 Q546.9375,255.5261 546.6406,256.4793 Q546.3438,257.4324 546.3438,258.698 Q546.3438,260.7136 547.0625,261.6824 Q547.7813,262.6355 549.375,262.6355 Q549.9688,262.6355 550.5938,262.4793 Q551.2188,262.323 552.0469,261.948 L552.0469,264.1668 Q551.3125,264.4793 550.5156,264.6355 Q549.7344,264.7918 548.9688,264.7918 Z " fill="#000000"/><text fill="#000000" font-family="sans-serif" font-size="14" lengthAdjust="spacing" textLength="57" x="563.5" y="263.3019">Building</text></g><!--class ControlPanel--><g id="elem_ControlPanel"><rect codeLine="36" fill="#F1F1F1" height="32" id="ControlPanel" rx="2.5" ry="2.5" style="stroke:#181818;stroke-width:0.5;" width="118" x="489" y="117.2699"/><ellipse cx="504" cy="133.2699" fill="#ADD1B2" rx="11" ry="11" style="stroke:#181818;stroke-width:1.0;"/><path d="M503.4688,140.1918 Q501.7188,140.1918 500.5781,139.4574 Q499.4531,138.7074 498.8906,137.3636 Q498.3438,136.0043 498.3438,134.2074 Q498.3438,132.1761 499,130.723 Q499.6563,129.2699 500.9375,128.4886 Q502.2188,127.7074 504.0938,127.7074 Q504.9844,127.7074 505.6563,127.8949 Q506.3281,128.0668 507.0156,128.4105 L506.2031,130.4261 Q505.5781,130.1136 505.0313,129.9886 Q504.5,129.8636 504.0156,129.8636 Q502.8438,129.8636 502.1406,130.3949 Q501.4375,130.9261 501.1406,131.8793 Q500.8438,132.8324 500.8438,134.098 Q500.8438,136.1136 501.5625,137.0824 Q502.2813,138.0355 503.875,138.0355 Q504.4688,138.0355 505.0938,137.8793 Q505.7188,137.723 506.5469,137.348 L506.5469,139.5668 Q505.8125,139.8793 505.0156,140.0355 Q504.2344,140.1918 503.4688,140.1918 Z " fill="#000000"/><text fill="#000000" font-family="sans-serif" font-size="14" lengthAdjust="spacing" textLength="86" x="518" y="138.7019">ControlPanel</text></g><!--class Elevator--><g id="elem_Elevator"><rect codeLine="39" fill="#F1F1F1" height="32" id="Elevator" rx="2.5" ry="2.5" style="stroke:#181818;stroke-width:0.5;" width="86" x="202" y="241.8699"/><ellipse cx="217" cy="257.8699" fill="#ADD1B2" rx="11" ry="11" style="stroke:#181818;stroke-width:1.0;"/><path d="M216.4688,264.7918 Q214.7188,264.7918 213.5781,264.0574 Q212.4531,263.3074 211.8906,261.9636 Q211.3438,260.6043 211.3438,258.8074 Q211.3438,256.7761 212,255.323 Q212.6563,253.8699 213.9375,253.0886 Q215.2188,252.3074 217.0938,252.3074 Q217.9844,252.3074 218.6563,252.4949 Q219.3281,252.6668 220.0156,253.0105 L219.2031,255.0261 Q218.5781,254.7136 218.0313,254.5886 Q217.5,254.4636 217.0156,254.4636 Q215.8438,254.4636 215.1406,254.9949 Q214.4375,255.5261 214.1406,256.4793 Q213.8438,257.4324 213.8438,258.698 Q213.8438,260.7136 214.5625,261.6824 Q215.2813,262.6355 216.875,262.6355 Q217.4688,262.6355 218.0938,262.4793 Q218.7188,262.323 219.5469,261.948 L219.5469,264.1668 Q218.8125,264.4793 218.0156,264.6355 Q217.2344,264.7918 216.4688,264.7918 Z " fill="#000000"/><text fill="#000000" font-family="sans-serif" font-size="14" lengthAdjust="spacing" textLength="54" x="231" y="263.3019">Elevator</text></g><!--class Floor--><g id="elem_Floor"><rect codeLine="44" fill="#F1F1F1" height="32" id="Floor" rx="2.5" ry="2.5" style="stroke:#181818;stroke-width:0.5;" width="65" x="322.5" y="241.8699"/><ellipse cx="337.5" cy="257.8699" fill="#ADD1B2" rx="11" ry="11" style="stroke:#181818;stroke-width:1.0;"/><path d="M336.9688,264.7918 Q335.2188,264.7918 334.0781,264.0574 Q332.9531,263.3074 332.3906,261.9636 Q331.8438,260.6043 331.8438,258.8074 Q331.8438,256.7761 332.5,255.323 Q333.1563,253.8699 334.4375,253.0886 Q335.7188,252.3074 337.5938,252.3074 Q338.4844,252.3074 339.1563,252.4949 Q339.8281,252.6668 340.5156,253.0105 L339.7031,255.0261 Q339.0781,254.7136 338.5313,254.5886 Q338,254.4636 337.5156,254.4636 Q336.3438,254.4636 335.6406,254.9949 Q334.9375,255.5261 334.6406,256.4793 Q334.3438,257.4324 334.3438,258.698 Q334.3438,260.7136 335.0625,261.6824 Q335.7813,262.6355 337.375,262.6355 Q337.9688,262.6355 338.5938,262.4793 Q339.2188,262.323 340.0469,261.948 L340.0469,264.1668 Q339.3125,264.4793 338.5156,264.6355 Q337.7344,264.7918 336.9688,264.7918 Z " fill="#000000"/><text fill="#000000" font-family="sans-serif" font-size="14" lengthAdjust="spacing" textLength="33" x="351.5" y="263.3019">Floor</text></g><!--class FloorRequest--><g id="elem_FloorRequest"><rect codeLine="47" fill="#F1F1F1" height="32" id="FloorRequest" rx="2.5" ry="2.5" style="stroke:#181818;stroke-width:0.5;" width="120" x="642" y="117.2699"/><ellipse cx="657" cy="133.2699" fill="#ADD1B2" rx="11" ry="11" style="stroke:#181818;stroke-width:1.0;"/><path d="M656.4688,140.1918 Q654.7188,140.1918 653.5781,139.4574 Q652.4531,138.7074 651.8906,137.3636 Q651.3438,136.0043 651.3438,134.2074 Q651.3438,132.1761 652,130.723 Q652.6563,129.2699 653.9375,128.4886 Q655.2188,127.7074 657.0938,127.7074 Q657.9844,127.7074 658.6563,127.8949 Q659.3281,128.0668 660.0156,128.4105 L659.2031,130.4261 Q658.5781,130.1136 658.0313,129.9886 Q657.5,129.8636 657.0156,129.8636 Q655.8438,129.8636 655.1406,130.3949 Q654.4375,130.9261 654.1406,131.8793 Q653.8438,132.8324 653.8438,134.098 Q653.8438,136.1136 654.5625,137.0824 Q655.2813,138.0355 656.875,138.0355 Q657.4688,138.0355 658.0938,137.8793 Q658.7188,137.723 659.5469,137.348 L659.5469,139.5668 Q658.8125,139.8793 658.0156,140.0355 Q657.2344,140.1918 656.4688,140.1918 Z " fill="#000000"/><text fill="#000000" font-family="sans-serif" font-size="14" lengthAdjust="spacing" textLength="88" x="671" y="138.7019">FloorRequest</text></g><!--class Person--><g id="elem_Person"><rect codeLine="50" fill="#F1F1F1" height="32" id="Person" rx="2.5" ry="2.5" style="stroke:#181818;stroke-width:0.5;" width="78" x="422" y="241.8699"/><ellipse cx="437" cy="257.8699" fill="#ADD1B2" rx="11" ry="11" style="stroke:#181818;stroke-width:1.0;"/><path d="M436.4688,264.7918 Q434.7188,264.7918 433.5781,264.0574 Q432.4531,263.3074 431.8906,261.9636 Q431.3438,260.6043 431.3438,258.8074 Q431.3438,256.7761 432,255.323 Q432.6563,253.8699 433.9375,253.0886 Q435.2188,252.3074 437.0938,252.3074 Q437.9844,252.3074 438.6563,252.4949 Q439.3281,252.6668 440.0156,253.0105 L439.2031,255.0261 Q438.5781,254.7136 438.0313,254.5886 Q437.5,254.4636 437.0156,254.4636 Q435.8438,254.4636 435.1406,254.9949 Q434.4375,255.5261 434.1406,256.4793 Q433.8438,257.4324 433.8438,258.698 Q433.8438,260.7136 434.5625,261.6824 Q435.2813,262.6355 436.875,262.6355 Q437.4688,262.6355 438.0938,262.4793 Q438.7188,262.323 439.5469,261.948 L439.5469,264.1668 Q438.8125,264.4793 438.0156,264.6355 Q437.2344,264.7918 436.4688,264.7918 Z " fill="#000000"/><text fill="#000000" font-family="sans-serif" font-size="14" lengthAdjust="spacing" textLength="46" x="451" y="263.3019">Person</text></g><!--class IModel--><g id="elem_IModel"><rect codeLine="53" fill="#F1F1F1" height="32" id="IModel" rx="2.5" ry="2.5" style="stroke:#181818;stroke-width:0.5;" width="76" x="202" y="117.2699"/><ellipse cx="217" cy="133.2699" fill="#B4A7E5" rx="11" ry="11" style="stroke:#181818;stroke-width:1.0;"/><path d="M213.0313,139.7699 L213.0313,138.0668 L215.3906,137.8011 L215.3906,129.598 L213.0313,129.3324 L213.0313,127.6293 L220.1719,127.6293 L220.1719,129.3324 L217.75,129.598 L217.75,137.8011 L220.1719,138.0668 L220.1719,139.7699 L213.0313,139.7699 Z " fill="#000000"/><text fill="#000000" font-family="sans-serif" font-size="14" font-style="italic" lengthAdjust="spacing" textLength="44" x="231" y="138.7019">IModel</text></g><!--class ElevatorRequest--><g id="elem_ElevatorRequest"><rect codeLine="57" fill="#F1F1F1" height="32" id="ElevatorRequest" rx="2.5" ry="2.5" style="stroke:#181818;stroke-width:0.5;" width="141" x="313.5" y="117.2699"/><ellipse cx="328.5" cy="133.2699" fill="#ADD1B2" rx="11" ry="11" style="stroke:#181818;stroke-width:1.0;"/><path d="M327.9688,140.1918 Q326.2188,140.1918 325.0781,139.4574 Q323.9531,138.7074 323.3906,137.3636 Q322.8438,136.0043 322.8438,134.2074 Q322.8438,132.1761 323.5,130.723 Q324.1563,129.2699 325.4375,128.4886 Q326.7188,127.7074 328.5938,127.7074 Q329.4844,127.7074 330.1563,127.8949 Q330.8281,128.0668 331.5156,128.4105 L330.7031,130.4261 Q330.0781,130.1136 329.5313,129.9886 Q329,129.8636 328.5156,129.8636 Q327.3438,129.8636 326.6406,130.3949 Q325.9375,130.9261 325.6406,131.8793 Q325.3438,132.8324 325.3438,134.098 Q325.3438,136.1136 326.0625,137.0824 Q326.7813,138.0355 328.375,138.0355 Q328.9688,138.0355 329.5938,137.8793 Q330.2188,137.723 331.0469,137.348 L331.0469,139.5668 Q330.3125,139.8793 329.5156,140.0355 Q328.7344,140.1918 327.9688,140.1918 Z " fill="#000000"/><text fill="#000000" font-family="sans-serif" font-size="14" lengthAdjust="spacing" textLength="109" x="342.5" y="138.7019">ElevatorRequest</text></g><!--class Direction--><g id="elem_Direction"><rect codeLine="62" fill="#F1F1F1" height="97.2038" id="Direction" rx="2.5" ry="2.5" style="stroke:#181818;stroke-width:0.5;" width="93" x="52.5" y="84.6699"/><ellipse cx="67.5" cy="100.6699" fill="#EB937F" rx="11" ry="11" style="stroke:#181818;stroke-width:1.0;"/><path d="M63.8594,107.1699 L63.8594,95.0293 L71.5156,95.0293 L71.5156,97.1543 L66.2344,97.1543 L66.2344,99.8105 L71.25,99.8105 L71.25,101.9355 L66.2344,101.9355 L66.2344,105.0449 L71.5156,105.0449 L71.5156,107.1699 L63.8594,107.1699 Z " fill="#000000"/><text fill="#000000" font-family="sans-serif" font-size="14" lengthAdjust="spacing" textLength="61" x="81.5" y="106.1019">Direction</text><line style="stroke:#181818;stroke-width:0.5;" x1="53.5" x2="144.5" y1="116.6699" y2="116.6699"/><text fill="#000000" font-family="sans-serif" font-size="14" lengthAdjust="spacing" textLength="18" x="58.5" y="135.6358">UP</text><text fill="#000000" font-family="sans-serif" font-size="14" lengthAdjust="spacing" textLength="35" x="58.5" y="154.7038">STOP</text><text fill="#000000" font-family="sans-serif" font-size="14" lengthAdjust="spacing" textLength="45" x="58.5" y="173.7717">DOWN</text></g><!--reverse link Building to FloorList--><g id="link_Building_FloorList"><path codeLine="70" d="M559.5949,283.8139 C543.6349,304.3439 522.97,330.9099 507.01,351.4199 " fill="none" id="Building-backto-FloorList" style="stroke:#181818;stroke-width:1.0;"/><polygon fill="#181818" points="566.96,274.3399,560.1195,276.6219,559.5949,283.8139,566.4355,281.5319,566.96,274.3399" style="stroke:#181818;stroke-width:1.0;"/></g><!--reverse link Building to ElevatorList--><g id="link_Building_ElevatorList"><path codeLine="71" d="M590.9804,285.2667 C600.3004,305.7967 611.68,330.9099 620.99,351.4199 " fill="none" id="Building-backto-ElevatorList" style="stroke:#181818;stroke-width:1.0;"/><polygon fill="#181818" points="586.02,274.3399,584.858,281.4568,590.9804,285.2667,592.1425,278.1498,586.02,274.3399" style="stroke:#181818;stroke-width:1.0;"/></g><!--link ControlPanel to Building--><g id="link_ControlPanel_Building"><path codeLine="72" d="M551.86,149.5499 C557.8,173.0399 566.1783,206.1561 572.1483,229.7661 " fill="none" id="ControlPanel-to-Building" style="stroke:#181818;stroke-width:1.0;"/><polygon fill="#181818" points="575.09,241.3999,577.4971,234.6024,572.1483,229.7661,569.7412,236.5636,575.09,241.3999" style="stroke:#181818;stroke-width:1.0;"/></g><!--reverse link Building to Counters--><g id="link_Building_Counters"><path codeLine="73" d="M550.1194,281.28 C538.4394,289.76 532.53,292.5699 517,297.8699 C481.93,309.8399 467.76,290.5899 434,305.8699 C411.58,316.0099 391.94,337.0899 380.27,351.5999 " fill="none" id="Building-backto-Counters" style="stroke:#181818;stroke-width:1.0;"/><polygon fill="#181818" points="559.83,274.2299,552.6247,274.5181,550.1194,281.28,557.3248,280.9918,559.83,274.2299" style="stroke:#181818;stroke-width:1.0;"/></g><!--reverse link Floor to PersonList--><g id="link_Floor_PersonList"><path codeLine="75" d="M329.2381,282.442 C306.8081,302.972 276.29,330.9099 253.88,351.4199 " fill="none" id="Floor-backto-PersonList" style="stroke:#181818;stroke-width:1.0;"/><polygon fill="#181818" points="338.09,274.3399,330.9634,275.4403,329.2381,282.442,336.3647,281.3416,338.09,274.3399" style="stroke:#181818;stroke-width:1.0;"/></g><!--link IModel to Floor--><g id="link_IModel_Floor"><path codeLine="76" d="M250.57,149.4899 C261.29,164.4799 278.7,187.6999 296,205.8699 C308.23,218.7199 309.4311,220.4055 321.3211,230.0855 " fill="none" id="IModel-to-Floor" style="stroke:#181818;stroke-width:1.0;"/><polygon fill="none" points="335.28,241.4499,325.1092,225.4326,317.533,234.7385,335.28,241.4499" style="stroke:#181818;stroke-width:1.0;"/></g><!--reverse link Elevator to PersonList--><g id="link_Elevator_PersonList"><path codeLine="78" d="M242.964,286.3071 C241.444,306.8371 239.66,330.9099 238.14,351.4199 " fill="none" id="Elevator-backto-PersonList" style="stroke:#181818;stroke-width:1.0;"/><polygon fill="#181818" points="243.85,274.3399,239.4179,280.0282,242.964,286.3071,247.3961,280.6189,243.85,274.3399" style="stroke:#181818;stroke-width:1.0;"/></g><!--reverse link Elevator to FloorsToGoList--><g id="link_Elevator_FloorsToGoList"><path codeLine="79" d="M208.6911,280.4022 C193.8511,289.3422 185.3,294.7999 169,305.8699 C147.13,320.7299 122.94,338.9499 106.54,351.5899 " fill="none" id="Elevator-backto-FloorsToGoList" style="stroke:#181818;stroke-width:1.0;"/><polygon fill="#181818" points="218.97,274.2099,211.7665,273.8797,208.6911,280.4022,215.8946,280.7323,218.97,274.2099" style="stroke:#181818;stroke-width:1.0;"/></g><!--link Direction to Elevator--><g id="link_Direction_Elevator"><path codeLine="80" d="M146,173.7399 C173.51,196.8399 197.491,216.9722 217.601,233.8622 " fill="none" id="Direction-to-Elevator" style="stroke:#181818;stroke-width:1.0;"/><polygon fill="#181818" points="226.79,241.5799,224.7681,234.6581,217.601,233.8622,219.6229,240.7841,226.79,241.5799" style="stroke:#181818;stroke-width:1.0;"/></g><!--link IModel to Elevator--><g id="link_IModel_Elevator"><path codeLine="81" d="M240.62,149.5499 C241.58,173.0399 242.6787,199.8048 243.6387,223.4148 " fill="none" id="IModel-to-Elevator" style="stroke:#181818;stroke-width:1.0;"/><polygon fill="none" points="244.37,241.3999,249.6338,223.171,237.6437,223.6585,244.37,241.3999" style="stroke:#181818;stroke-width:1.0;"/></g><!--reverse link ControlPanel to FloorRequestList--><g id="link_ControlPanel_FloorRequestList"><path codeLine="83" d="M567.6695,158.8409 C581.3695,175.2909 597.65,191.7199 624,205.8699 C685.93,239.1099 712.13,217.3499 778,241.8699 C835.38,263.2299 847.55,274.2799 900,305.8699 C924.07,320.3599 950.49,338.8199 968.24,351.6099 " fill="none" id="ControlPanel-backto-FloorRequestList" style="stroke:#181818;stroke-width:1.0;"/><polygon fill="#181818" points="559.99,149.6199,560.7561,156.7902,567.6695,158.8409,566.9034,151.6706,559.99,149.6199" style="stroke:#181818;stroke-width:1.0;"/></g><!--reverse link ControlPanel to ElevatorRequestList--><g id="link_ControlPanel_ElevatorRequestList"><path codeLine="84" d="M568.6397,158.8003 C582.6397,174.8803 598.64,190.7099 624,205.8699 C667.43,231.8299 693.21,209.3799 732,241.8699 C767.61,271.6899 787.59,325.1299 795.69,351.4099 " fill="none" id="ControlPanel-backto-ElevatorRequestList" style="stroke:#181818;stroke-width:1.0;"/><polygon fill="#181818" points="560.76,149.7499,561.6831,156.9017,568.6397,158.8003,567.7167,151.6485,560.76,149.7499" style="stroke:#181818;stroke-width:1.0;"/></g><!--reverse link FloorRequestList to FloorRequest--><g id="link_FloorRequestList_FloorRequest"><path codeLine="86" d="M979.9683,340.1868 C970.8883,314.5168 953.52,273.8899 920,241.8699 C872.23,196.2499 801.4,166.1899 753.55,149.7199 " fill="none" id="FloorRequestList-backto-FloorRequest" style="stroke:#181818;stroke-width:1.0;"/><polygon fill="#181818" points="983.97,351.4999,985.7402,344.5094,979.9683,340.1868,978.1981,347.1772,983.97,351.4999" style="stroke:#181818;stroke-width:1.0;"/></g><!--reverse link ElevatorRequestList to ElevatorRequest--><g id="link_ElevatorRequestList_ElevatorRequest"><path codeLine="87" d="M776.9703,342.8797 C750.7203,316.1597 701.11,269.9799 641,241.8699 C571.04,209.1499 540.59,239.3699 471,205.8699 C441.92,191.8699 414.18,166.1699 398.14,149.6699 " fill="none" id="ElevatorRequestList-backto-ElevatorRequest" style="stroke:#181818;stroke-width:1.0;"/><polygon fill="#181818" points="785.38,351.4399,784.0286,344.3566,776.9703,342.8797,778.3218,349.963,785.38,351.4399" style="stroke:#181818;stroke-width:1.0;"/></g><!--link IModel to Person--><g id="link_IModel_Person"><path codeLine="89" d="M248.24,149.6699 C257.7,165.9299 274.69,191.1799 296,205.8699 C306.52,213.1199 358.885,228.4924 404.265,241.1824 " fill="none" id="IModel-to-Person" style="stroke:#181818;stroke-width:1.0;"/><polygon fill="none" points="421.6,246.0299,405.8809,235.404,402.6492,246.9607,421.6,246.0299" style="stroke:#181818;stroke-width:1.0;"/></g><!--SRC=[ZLFBJiCm4BpxAonn0QJ-0HVw05M2jcgBE9jaIQqutjGF40B-dKsQbzkanSh1sTaTUsV7JZe5V2f5OaGcU0pytkozT10vRyJrCyQWqF8rA159r61l6BEfrBcWVFxDEAq5EXYBA4qCUXrFKA7XLvyx8jbac0BxPMmdYHcot7tn3B8tC9RbL24Iu4_IEbinHKfOooT4uoYb2b9vYyqKV0Y7fgWwXwzXxy6weRG7XSCS9VWV0hl5HnpAM547g0EKyBhhKjYmxR6NAfOwwIERe7O6rKfeKEVQ3h2J-rvgThYD49aNutaN4V1vsGUX5oVH9y9C-wpM06XFFZHaFDcSLwoNLRFTR9VjptJvkgXFfQzHxtOqQiSRXhlcwI8-7mKAXrMr7HaxY5Z4sk5MmRkVakMW1sFDF8wIWtZeeIvMK3LQjC3H8O4f6iAESKypUfv7rLRNxyTShEzLzT0nLhablEWV]--></g></svg>