<?xml version="1.0" encoding="UTF-8" standalone="no"?><svg xmlns="http://www.w3.org/2000/svg" xmlns:xlink="http://www.w3.org/1999/xlink" contentStyleType="text/css" height="400px" preserveAspectRatio="none" style="width:837px;height:400px;background:#FFFFFF;" version="1.1" viewBox="0 0 837 400" width="837px" zoomAndPan="magnify"><defs/><g><!--MD5=[09464e61c9e7faae43aa233c4f28aabc]
class Uneat : Universidad--><g id="elem_Uneat : Universidad"><rect codeLine="1" fill="#F1F1F1" height="48" id="Uneat : Universidad" rx="2.5" ry="2.5" style="stroke:#181818;stroke-width:0.5;" width="155" x="102" y="7"/><ellipse cx="117" cy="23" fill="#ADD1B2" rx="11" ry="11" style="stroke:#181818;stroke-width:1.0;"/><path d="M119.7656,18.875 Q119.9219,18.6563 120.1094,18.5469 Q120.2969,18.4375 120.5156,18.4375 Q120.8906,18.4375 121.125,18.7031 Q121.3594,18.9531 121.3594,19.5625 L121.3594,21.0156 Q121.3594,21.625 121.125,21.8906 Q120.8906,22.1563 120.5156,22.1563 Q120.1719,22.1563 119.9688,21.9531 Q119.7656,21.7656 119.6563,21.25 Q119.6094,20.8906 119.4219,20.7031 Q119.0938,20.3281 118.4844,20.1094 Q117.875,19.8906 117.25,19.8906 Q116.4844,19.8906 115.8438,20.2188 Q115.2188,20.5469 114.7188,21.2969 Q114.2344,22.0469 114.2344,23.0781 L114.2344,24.1719 Q114.2344,25.4063 115.125,26.2344 Q116.0156,27.0469 117.6094,27.0469 Q118.5469,27.0469 119.2031,26.7969 Q119.5938,26.6406 120.0156,26.2031 Q120.2813,25.9375 120.4219,25.8594 Q120.5781,25.7813 120.7813,25.7813 Q121.1094,25.7813 121.3594,26.0469 Q121.625,26.2969 121.625,26.6406 Q121.625,26.9844 121.2813,27.3906 Q120.7813,27.9688 119.9844,28.2969 Q118.9063,28.75 117.6094,28.75 Q116.0938,28.75 114.8906,28.125 Q113.9063,27.625 113.2188,26.5625 Q112.5313,25.4844 112.5313,24.2031 L112.5313,23.0469 Q112.5313,21.7188 113.1406,20.5781 Q113.7656,19.4219 114.8594,18.8125 Q115.9531,18.1875 117.1875,18.1875 Q117.9219,18.1875 118.5625,18.3594 Q119.2188,18.5156 119.7656,18.875 Z " fill="#000000"/><text fill="#000000" font-family="sans-serif" font-size="14" lengthAdjust="spacing" textLength="123" x="131" y="28.7285">Uneat : Universidad</text><line style="stroke:#181818;stroke-width:0.5;" x1="103" x2="256" y1="39" y2="39"/><line style="stroke:#181818;stroke-width:0.5;" x1="103" x2="256" y1="47" y2="47"/></g><!--MD5=[83c0f0c2552d361face656102c11c94c]
class AscensorA : Ascensor--><g id="elem_AscensorA : Ascensor"><rect codeLine="2" fill="#F1F1F1" height="100.8281" id="AscensorA : Ascensor" rx="2.5" ry="2.5" style="stroke:#181818;stroke-width:0.5;" width="171" x="453" y="293"/><ellipse cx="468" cy="309" fill="#ADD1B2" rx="11" ry="11" style="stroke:#181818;stroke-width:1.0;"/><path d="M470.7656,304.875 Q470.9219,304.6563 471.1094,304.5469 Q471.2969,304.4375 471.5156,304.4375 Q471.8906,304.4375 472.125,304.7031 Q472.3594,304.9531 472.3594,305.5625 L472.3594,307.0156 Q472.3594,307.625 472.125,307.8906 Q471.8906,308.1563 471.5156,308.1563 Q471.1719,308.1563 470.9688,307.9531 Q470.7656,307.7656 470.6563,307.25 Q470.6094,306.8906 470.4219,306.7031 Q470.0938,306.3281 469.4844,306.1094 Q468.875,305.8906 468.25,305.8906 Q467.4844,305.8906 466.8438,306.2188 Q466.2188,306.5469 465.7188,307.2969 Q465.2344,308.0469 465.2344,309.0781 L465.2344,310.1719 Q465.2344,311.4063 466.125,312.2344 Q467.0156,313.0469 468.6094,313.0469 Q469.5469,313.0469 470.2031,312.7969 Q470.5938,312.6406 471.0156,312.2031 Q471.2813,311.9375 471.4219,311.8594 Q471.5781,311.7813 471.7813,311.7813 Q472.1094,311.7813 472.3594,312.0469 Q472.625,312.2969 472.625,312.6406 Q472.625,312.9844 472.2813,313.3906 Q471.7813,313.9688 470.9844,314.2969 Q469.9063,314.75 468.6094,314.75 Q467.0938,314.75 465.8906,314.125 Q464.9063,313.625 464.2188,312.5625 Q463.5313,311.4844 463.5313,310.2031 L463.5313,309.0469 Q463.5313,307.7188 464.1406,306.5781 Q464.7656,305.4219 465.8594,304.8125 Q466.9531,304.1875 468.1875,304.1875 Q468.9219,304.1875 469.5625,304.3594 Q470.2188,304.5156 470.7656,304.875 Z " fill="#000000"/><text fill="#000000" font-family="sans-serif" font-size="14" lengthAdjust="spacing" textLength="139" x="482" y="314.7285">AscensorA : Ascensor</text><line style="stroke:#181818;stroke-width:0.5;" x1="454" x2="623" y1="325" y2="325"/><text fill="#000000" font-family="sans-serif" font-size="14" lengthAdjust="spacing" textLength="69" x="459" y="343.5332">3: Posición</text><text fill="#000000" font-family="sans-serif" font-size="14" lengthAdjust="spacing" textLength="64" x="459" y="361.1426">3: Destino</text><text fill="#000000" font-family="sans-serif" font-size="14" lengthAdjust="spacing" textLength="89" x="459" y="378.752">0 : Ocupantes</text><line style="stroke:#181818;stroke-width:0.5;" x1="454" x2="623" y1="385.8281" y2="385.8281"/></g><!--MD5=[d89e9bc335bfe7ab5b393c077c712f15]
class AscensorB : Ascensor--><g id="elem_AscensorB : Ascensor"><rect codeLine="8" fill="#F1F1F1" height="100.8281" id="AscensorB : Ascensor" rx="2.5" ry="2.5" style="stroke:#181818;stroke-width:0.5;" width="171" x="659" y="293"/><ellipse cx="674" cy="309" fill="#ADD1B2" rx="11" ry="11" style="stroke:#181818;stroke-width:1.0;"/><path d="M676.7656,304.875 Q676.9219,304.6563 677.1094,304.5469 Q677.2969,304.4375 677.5156,304.4375 Q677.8906,304.4375 678.125,304.7031 Q678.3594,304.9531 678.3594,305.5625 L678.3594,307.0156 Q678.3594,307.625 678.125,307.8906 Q677.8906,308.1563 677.5156,308.1563 Q677.1719,308.1563 676.9688,307.9531 Q676.7656,307.7656 676.6563,307.25 Q676.6094,306.8906 676.4219,306.7031 Q676.0938,306.3281 675.4844,306.1094 Q674.875,305.8906 674.25,305.8906 Q673.4844,305.8906 672.8438,306.2188 Q672.2188,306.5469 671.7188,307.2969 Q671.2344,308.0469 671.2344,309.0781 L671.2344,310.1719 Q671.2344,311.4063 672.125,312.2344 Q673.0156,313.0469 674.6094,313.0469 Q675.5469,313.0469 676.2031,312.7969 Q676.5938,312.6406 677.0156,312.2031 Q677.2813,311.9375 677.4219,311.8594 Q677.5781,311.7813 677.7813,311.7813 Q678.1094,311.7813 678.3594,312.0469 Q678.625,312.2969 678.625,312.6406 Q678.625,312.9844 678.2813,313.3906 Q677.7813,313.9688 676.9844,314.2969 Q675.9063,314.75 674.6094,314.75 Q673.0938,314.75 671.8906,314.125 Q670.9063,313.625 670.2188,312.5625 Q669.5313,311.4844 669.5313,310.2031 L669.5313,309.0469 Q669.5313,307.7188 670.1406,306.5781 Q670.7656,305.4219 671.8594,304.8125 Q672.9531,304.1875 674.1875,304.1875 Q674.9219,304.1875 675.5625,304.3594 Q676.2188,304.5156 676.7656,304.875 Z " fill="#000000"/><text fill="#000000" font-family="sans-serif" font-size="14" lengthAdjust="spacing" textLength="139" x="688" y="314.7285">AscensorB : Ascensor</text><line style="stroke:#181818;stroke-width:0.5;" x1="660" x2="829" y1="325" y2="325"/><text fill="#000000" font-family="sans-serif" font-size="14" lengthAdjust="spacing" textLength="73" x="665" y="343.5332">1 : Posición</text><text fill="#000000" font-family="sans-serif" font-size="14" lengthAdjust="spacing" textLength="68" x="665" y="361.1426">0 : Destino</text><text fill="#000000" font-family="sans-serif" font-size="14" lengthAdjust="spacing" textLength="89" x="665" y="378.752">1 : Ocupantes</text><line style="stroke:#181818;stroke-width:0.5;" x1="660" x2="829" y1="385.8281" y2="385.8281"/></g><!--MD5=[bceb31eaf7d542c29dbcb8179110e73e]
class Antonio : Usuario--><g id="elem_Antonio : Usuario"><rect codeLine="14" fill="#F1F1F1" height="118.4375" id="Antonio : Usuario" rx="2.5" ry="2.5" style="stroke:#181818;stroke-width:0.5;" width="145" x="7" y="115"/><ellipse cx="24.25" cy="131" fill="#ADD1B2" rx="11" ry="11" style="stroke:#181818;stroke-width:1.0;"/><path d="M27.0156,126.875 Q27.1719,126.6563 27.3594,126.5469 Q27.5469,126.4375 27.7656,126.4375 Q28.1406,126.4375 28.375,126.7031 Q28.6094,126.9531 28.6094,127.5625 L28.6094,129.0156 Q28.6094,129.625 28.375,129.8906 Q28.1406,130.1563 27.7656,130.1563 Q27.4219,130.1563 27.2188,129.9531 Q27.0156,129.7656 26.9063,129.25 Q26.8594,128.8906 26.6719,128.7031 Q26.3438,128.3281 25.7344,128.1094 Q25.125,127.8906 24.5,127.8906 Q23.7344,127.8906 23.0938,128.2188 Q22.4688,128.5469 21.9688,129.2969 Q21.4844,130.0469 21.4844,131.0781 L21.4844,132.1719 Q21.4844,133.4063 22.375,134.2344 Q23.2656,135.0469 24.8594,135.0469 Q25.7969,135.0469 26.4531,134.7969 Q26.8438,134.6406 27.2656,134.2031 Q27.5313,133.9375 27.6719,133.8594 Q27.8281,133.7813 28.0313,133.7813 Q28.3594,133.7813 28.6094,134.0469 Q28.875,134.2969 28.875,134.6406 Q28.875,134.9844 28.5313,135.3906 Q28.0313,135.9688 27.2344,136.2969 Q26.1563,136.75 24.8594,136.75 Q23.3438,136.75 22.1406,136.125 Q21.1563,135.625 20.4688,134.5625 Q19.7813,133.4844 19.7813,132.2031 L19.7813,131.0469 Q19.7813,129.7188 20.3906,128.5781 Q21.0156,127.4219 22.1094,126.8125 Q23.2031,126.1875 24.4375,126.1875 Q25.1719,126.1875 25.8125,126.3594 Q26.4688,126.5156 27.0156,126.875 Z " fill="#000000"/><text fill="#000000" font-family="sans-serif" font-size="14" lengthAdjust="spacing" textLength="108" x="38.75" y="136.7285">Antonio : Usuario</text><line style="stroke:#181818;stroke-width:0.5;" x1="8" x2="151" y1="147" y2="147"/><text fill="#000000" font-family="sans-serif" font-size="14" lengthAdjust="spacing" textLength="133" x="13" y="165.5332">AscensorB : Posición</text><text fill="#000000" font-family="sans-serif" font-size="14" lengthAdjust="spacing" textLength="68" x="13" y="183.1426">0 : Destino</text><text fill="#000000" font-family="sans-serif" font-size="14" lengthAdjust="spacing" textLength="98" x="13" y="200.752">No : Esperando</text><text fill="#000000" font-family="sans-serif" font-size="14" lengthAdjust="spacing" textLength="95" x="13" y="218.3613">0 : TiempoAula</text><line style="stroke:#181818;stroke-width:0.5;" x1="8" x2="151" y1="225.4375" y2="225.4375"/></g><!--MD5=[ce6702136e20f47087844c747f266700]
class Gonzalo : Usuario--><g id="elem_Gonzalo : Usuario"><rect codeLine="21" fill="#F1F1F1" height="118.4375" id="Gonzalo : Usuario" rx="2.5" ry="2.5" style="stroke:#181818;stroke-width:0.5;" width="144" x="187.5" y="115"/><ellipse cx="202.5" cy="131" fill="#ADD1B2" rx="11" ry="11" style="stroke:#181818;stroke-width:1.0;"/><path d="M205.2656,126.875 Q205.4219,126.6563 205.6094,126.5469 Q205.7969,126.4375 206.0156,126.4375 Q206.3906,126.4375 206.625,126.7031 Q206.8594,126.9531 206.8594,127.5625 L206.8594,129.0156 Q206.8594,129.625 206.625,129.8906 Q206.3906,130.1563 206.0156,130.1563 Q205.6719,130.1563 205.4688,129.9531 Q205.2656,129.7656 205.1563,129.25 Q205.1094,128.8906 204.9219,128.7031 Q204.5938,128.3281 203.9844,128.1094 Q203.375,127.8906 202.75,127.8906 Q201.9844,127.8906 201.3438,128.2188 Q200.7188,128.5469 200.2188,129.2969 Q199.7344,130.0469 199.7344,131.0781 L199.7344,132.1719 Q199.7344,133.4063 200.625,134.2344 Q201.5156,135.0469 203.1094,135.0469 Q204.0469,135.0469 204.7031,134.7969 Q205.0938,134.6406 205.5156,134.2031 Q205.7813,133.9375 205.9219,133.8594 Q206.0781,133.7813 206.2813,133.7813 Q206.6094,133.7813 206.8594,134.0469 Q207.125,134.2969 207.125,134.6406 Q207.125,134.9844 206.7813,135.3906 Q206.2813,135.9688 205.4844,136.2969 Q204.4063,136.75 203.1094,136.75 Q201.5938,136.75 200.3906,136.125 Q199.4063,135.625 198.7188,134.5625 Q198.0313,133.4844 198.0313,132.2031 L198.0313,131.0469 Q198.0313,129.7188 198.6406,128.5781 Q199.2656,127.4219 200.3594,126.8125 Q201.4531,126.1875 202.6875,126.1875 Q203.4219,126.1875 204.0625,126.3594 Q204.7188,126.5156 205.2656,126.875 Z " fill="#000000"/><text fill="#000000" font-family="sans-serif" font-size="14" lengthAdjust="spacing" textLength="112" x="216.5" y="136.7285">Gonzalo : Usuario</text><line style="stroke:#181818;stroke-width:0.5;" x1="188.5" x2="330.5" y1="147" y2="147"/><text fill="#000000" font-family="sans-serif" font-size="14" lengthAdjust="spacing" textLength="73" x="193.5" y="165.5332">0 : Posición</text><text fill="#000000" font-family="sans-serif" font-size="14" lengthAdjust="spacing" textLength="68" x="193.5" y="183.1426">1 : Destino</text><text fill="#000000" font-family="sans-serif" font-size="14" lengthAdjust="spacing" textLength="93" x="193.5" y="200.752">Si : Esperando</text><text fill="#000000" font-family="sans-serif" font-size="14" lengthAdjust="spacing" textLength="103" x="193.5" y="218.3613">25 : TiempoAula</text><line style="stroke:#181818;stroke-width:0.5;" x1="188.5" x2="330.5" y1="225.4375" y2="225.4375"/></g><!--MD5=[cc3fabe5d33dda859221007bf187a89c]
class María : Usuario--><g id="elem_María : Usuario"><rect codeLine="28" fill="#F1F1F1" height="118.4375" id="María : Usuario" rx="2.5" ry="2.5" style="stroke:#181818;stroke-width:0.5;" width="129" x="367" y="115"/><ellipse cx="382.9" cy="131" fill="#ADD1B2" rx="11" ry="11" style="stroke:#181818;stroke-width:1.0;"/><path d="M385.6656,126.875 Q385.8219,126.6563 386.0094,126.5469 Q386.1969,126.4375 386.4156,126.4375 Q386.7906,126.4375 387.025,126.7031 Q387.2594,126.9531 387.2594,127.5625 L387.2594,129.0156 Q387.2594,129.625 387.025,129.8906 Q386.7906,130.1563 386.4156,130.1563 Q386.0719,130.1563 385.8688,129.9531 Q385.6656,129.7656 385.5563,129.25 Q385.5094,128.8906 385.3219,128.7031 Q384.9938,128.3281 384.3844,128.1094 Q383.775,127.8906 383.15,127.8906 Q382.3844,127.8906 381.7438,128.2188 Q381.1188,128.5469 380.6188,129.2969 Q380.1344,130.0469 380.1344,131.0781 L380.1344,132.1719 Q380.1344,133.4063 381.025,134.2344 Q381.9156,135.0469 383.5094,135.0469 Q384.4469,135.0469 385.1031,134.7969 Q385.4938,134.6406 385.9156,134.2031 Q386.1813,133.9375 386.3219,133.8594 Q386.4781,133.7813 386.6813,133.7813 Q387.0094,133.7813 387.2594,134.0469 Q387.525,134.2969 387.525,134.6406 Q387.525,134.9844 387.1813,135.3906 Q386.6813,135.9688 385.8844,136.2969 Q384.8063,136.75 383.5094,136.75 Q381.9938,136.75 380.7906,136.125 Q379.8063,135.625 379.1188,134.5625 Q378.4313,133.4844 378.4313,132.2031 L378.4313,131.0469 Q378.4313,129.7188 379.0406,128.5781 Q379.6656,127.4219 380.7594,126.8125 Q381.8531,126.1875 383.0875,126.1875 Q383.8219,126.1875 384.4625,126.3594 Q385.1188,126.5156 385.6656,126.875 Z " fill="#000000"/><text fill="#000000" font-family="sans-serif" font-size="14" lengthAdjust="spacing" textLength="95" x="397.1" y="136.7285">María : Usuario</text><line style="stroke:#181818;stroke-width:0.5;" x1="368" x2="495" y1="147" y2="147"/><rect fill="none" height="6" style="stroke:#C82930;stroke-width:1.0;" width="6" x="375" y="158.3047"/><text fill="#000000" font-family="sans-serif" font-size="14" lengthAdjust="spacing" textLength="73" x="387" y="165.5332">2 : Posición</text><text fill="#000000" font-family="sans-serif" font-size="14" lengthAdjust="spacing" textLength="68" x="387" y="183.1426">0 : Destino</text><text fill="#000000" font-family="sans-serif" font-size="14" lengthAdjust="spacing" textLength="98" x="387" y="200.752">No : Esperando</text><text fill="#000000" font-family="sans-serif" font-size="14" lengthAdjust="spacing" textLength="103" x="387" y="218.3613">12 : TiempoAula</text><line style="stroke:#181818;stroke-width:0.5;" x1="368" x2="495" y1="225.4375" y2="225.4375"/></g><!--MD5=[9b39059f69cdd8736a2eea968cc5a973]
class Controlador : Controlador--><g id="elem_Controlador : Controlador"><rect codeLine="35" fill="#F1F1F1" height="100.8281" id="Controlador : Controlador" rx="2.5" ry="2.5" style="stroke:#181818;stroke-width:0.5;" width="221" x="531" y="123.5"/><ellipse cx="558.15" cy="139.5" fill="#ADD1B2" rx="11" ry="11" style="stroke:#181818;stroke-width:1.0;"/><path d="M560.9156,135.375 Q561.0719,135.1563 561.2594,135.0469 Q561.4469,134.9375 561.6656,134.9375 Q562.0406,134.9375 562.275,135.2031 Q562.5094,135.4531 562.5094,136.0625 L562.5094,137.5156 Q562.5094,138.125 562.275,138.3906 Q562.0406,138.6563 561.6656,138.6563 Q561.3219,138.6563 561.1188,138.4531 Q560.9156,138.2656 560.8063,137.75 Q560.7594,137.3906 560.5719,137.2031 Q560.2438,136.8281 559.6344,136.6094 Q559.025,136.3906 558.4,136.3906 Q557.6344,136.3906 556.9938,136.7188 Q556.3688,137.0469 555.8688,137.7969 Q555.3844,138.5469 555.3844,139.5781 L555.3844,140.6719 Q555.3844,141.9063 556.275,142.7344 Q557.1656,143.5469 558.7594,143.5469 Q559.6969,143.5469 560.3531,143.2969 Q560.7438,143.1406 561.1656,142.7031 Q561.4313,142.4375 561.5719,142.3594 Q561.7281,142.2813 561.9313,142.2813 Q562.2594,142.2813 562.5094,142.5469 Q562.775,142.7969 562.775,143.1406 Q562.775,143.4844 562.4313,143.8906 Q561.9313,144.4688 561.1344,144.7969 Q560.0563,145.25 558.7594,145.25 Q557.2438,145.25 556.0406,144.625 Q555.0563,144.125 554.3688,143.0625 Q553.6813,141.9844 553.6813,140.7031 L553.6813,139.5469 Q553.6813,138.2188 554.2906,137.0781 Q554.9156,135.9219 556.0094,135.3125 Q557.1031,134.6875 558.3375,134.6875 Q559.0719,134.6875 559.7125,134.8594 Q560.3688,135.0156 560.9156,135.375 Z " fill="#000000"/><text fill="#000000" font-family="sans-serif" font-size="14" lengthAdjust="spacing" textLength="162" x="574.85" y="145.2285">Controlador : Controlador</text><line style="stroke:#181818;stroke-width:0.5;" x1="532" x2="751" y1="155.5" y2="155.5"/><text fill="#000000" font-family="sans-serif" font-size="14" lengthAdjust="spacing" textLength="146" x="537" y="174.0332">Lista : ListaAscensores</text><text fill="#000000" font-family="sans-serif" font-size="14" lengthAdjust="spacing" textLength="209" x="537" y="191.6426">Contiene: AscensorA, AscensorB</text><text fill="#000000" font-family="sans-serif" font-size="14" lengthAdjust="spacing" textLength="181" x="537" y="209.252">Gonzalo : UsuarioEsperando</text><line style="stroke:#181818;stroke-width:0.5;" x1="532" x2="751" y1="216.3281" y2="216.3281"/></g><!--MD5=[883c1ea44c7257ac45dd5476f6348943]
class Ascensores--><g id="elem_Ascensores"><rect fill="#F1F1F1" height="48" id="Ascensores" rx="2.5" ry="2.5" style="stroke:#181818;stroke-width:0.5;" width="106" x="292.5" y="7"/><ellipse cx="307.5" cy="23" fill="#ADD1B2" rx="11" ry="11" style="stroke:#181818;stroke-width:1.0;"/><path d="M310.2656,18.875 Q310.4219,18.6563 310.6094,18.5469 Q310.7969,18.4375 311.0156,18.4375 Q311.3906,18.4375 311.625,18.7031 Q311.8594,18.9531 311.8594,19.5625 L311.8594,21.0156 Q311.8594,21.625 311.625,21.8906 Q311.3906,22.1563 311.0156,22.1563 Q310.6719,22.1563 310.4688,21.9531 Q310.2656,21.7656 310.1563,21.25 Q310.1094,20.8906 309.9219,20.7031 Q309.5938,20.3281 308.9844,20.1094 Q308.375,19.8906 307.75,19.8906 Q306.9844,19.8906 306.3438,20.2188 Q305.7188,20.5469 305.2188,21.2969 Q304.7344,22.0469 304.7344,23.0781 L304.7344,24.1719 Q304.7344,25.4063 305.625,26.2344 Q306.5156,27.0469 308.1094,27.0469 Q309.0469,27.0469 309.7031,26.7969 Q310.0938,26.6406 310.5156,26.2031 Q310.7813,25.9375 310.9219,25.8594 Q311.0781,25.7813 311.2813,25.7813 Q311.6094,25.7813 311.8594,26.0469 Q312.125,26.2969 312.125,26.6406 Q312.125,26.9844 311.7813,27.3906 Q311.2813,27.9688 310.4844,28.2969 Q309.4063,28.75 308.1094,28.75 Q306.5938,28.75 305.3906,28.125 Q304.4063,27.625 303.7188,26.5625 Q303.0313,25.4844 303.0313,24.2031 L303.0313,23.0469 Q303.0313,21.7188 303.6406,20.5781 Q304.2656,19.4219 305.3594,18.8125 Q306.4531,18.1875 307.6875,18.1875 Q308.4219,18.1875 309.0625,18.3594 Q309.7188,18.5156 310.2656,18.875 Z " fill="#000000"/><text fill="#000000" font-family="sans-serif" font-size="14" lengthAdjust="spacing" textLength="74" x="321.5" y="28.7285">Ascensores</text><line style="stroke:#181818;stroke-width:0.5;" x1="293.5" x2="397.5" y1="39" y2="39"/><line style="stroke:#181818;stroke-width:0.5;" x1="293.5" x2="397.5" y1="47" y2="47"/></g><!--MD5=[4088aec876fe8106eb9e19c08a094225]
link Ascensores to Antonio : Usuario--><g id="link_Ascensores_Antonio : Usuario"><path codeLine="41" d="M292.22,54.92 C256.84,70.68 209.67,92.71 169.5,115 C165.23,117.37 160.9,119.86 156.55,122.42 " fill="none" id="Ascensores-to-Antonio : Usuario" style="stroke:#181818;stroke-width:1.0;"/><polygon fill="#181818" points="152.19,125.01,161.97,123.8478,156.4875,122.4543,157.881,116.9718,152.19,125.01" style="stroke:#181818;stroke-width:1.0;"/></g><!--MD5=[c03e2c626db529119271527ca778778b]
link Ascensores to Gonzalo : Usuario--><g id="link_Ascensores_Gonzalo : Usuario"><path codeLine="42" d="M331.3,55.28 C322.07,70.41 309.57,90.9 297.59,110.55 " fill="none" id="Ascensores-to-Gonzalo : Usuario" style="stroke:#181818;stroke-width:1.0;"/><polygon fill="#181818" points="294.88,114.99,302.9763,109.382,297.4797,110.719,296.1427,105.2224,294.88,114.99" style="stroke:#181818;stroke-width:1.0;"/></g><!--MD5=[bbb3ec5f2c181e8d8835ecd03631671f]
link Ascensores to María : Usuario--><g id="link_Ascensores_María : Usuario"><path codeLine="43" d="M359.7,55.28 C368.93,70.41 381.43,90.9 393.41,110.55 " fill="none" id="Ascensores-to-María : Usuario" style="stroke:#181818;stroke-width:1.0;"/><polygon fill="#181818" points="396.12,114.99,394.8573,105.2224,393.5203,110.719,388.0237,109.382,396.12,114.99" style="stroke:#181818;stroke-width:1.0;"/></g><!--MD5=[ef1f8e71b1ad8d1b5a3ef0369d0fd992]
link Ascensores to Controlador : Controlador--><g id="link_Ascensores_Controlador : Controlador"><path codeLine="44" d="M394.05,55.13 C431.62,73.03 485.12,98.51 532.76,121.2 " fill="none" id="Ascensores-to-Controlador : Controlador" style="stroke:#181818;stroke-width:1.0;"/><polygon fill="#181818" points="537.36,123.39,530.9641,115.9005,532.8486,121.2342,527.5149,123.1187,537.36,123.39" style="stroke:#181818;stroke-width:1.0;"/></g><!--MD5=[8dcd8c6d58b0f6300ce771b8a4cfff63]
link Controlador : Controlador to AscensorA : Ascensor--><g id="link_Controlador : Controlador_AscensorA : Ascensor"><path codeLine="45" d="M610.88,224.8 C598.53,244.88 584.26,268.09 571.67,288.56 " fill="none" id="Controlador : Controlador-to-AscensorA : Ascensor" style="stroke:#181818;stroke-width:1.0;"/><polygon fill="#181818" points="569.01,292.89,577.1335,287.3215,571.6305,288.6317,570.3202,283.1287,569.01,292.89" style="stroke:#181818;stroke-width:1.0;"/></g><!--MD5=[20b4c5696472db254bbc8417c59a4920]
link Controlador : Controlador to AscensorB : Ascensor--><g id="link_Controlador : Controlador_AscensorB : Ascensor"><path codeLine="46" d="M672.12,224.8 C684.47,244.88 698.74,268.09 711.33,288.56 " fill="none" id="Controlador : Controlador-to-AscensorB : Ascensor" style="stroke:#181818;stroke-width:1.0;"/><polygon fill="#181818" points="713.99,292.89,712.6798,283.1287,711.3695,288.6317,705.8665,287.3215,713.99,292.89" style="stroke:#181818;stroke-width:1.0;"/></g><!--MD5=[db9fdbce6ec4551b856206349357010c]
@startuml
Class "Uneat : Universidad"
Class "AscensorA : Ascensor"
{
    3: Posición
    3: Destino
    0 : Ocupantes
}
Class "AscensorB : Ascensor"
{
    1 : Posición
    0 : Destino
    1 : Ocupantes
}
Class "Antonio : Usuario"
{
    AscensorB : Posición
    0 : Destino
    No : Esperando
    0 : TiempoAula
}
Class "Gonzalo : Usuario"
{
    0 : Posición
     1 : Destino
    Si : Esperando
    25 : TiempoAula
}
Class "María : Usuario"
{
    -2 : Posición
    0 : Destino
    No : Esperando
    12 : TiempoAula
}
Class "Controlador : Controlador"
{
    Lista : ListaAscensores
        Contiene: AscensorA, AscensorB
    Gonzalo : UsuarioEsperando
}
Ascensores - -> "Antonio : Usuario"
Ascensores - -> "Gonzalo : Usuario"
Ascensores - -> "María : Usuario"
Ascensores - -> "Controlador : Controlador" 
"Controlador : Controlador" - -> "AscensorA : Ascensor"
"Controlador : Controlador" - -> "AscensorB : Ascensor"
@end

PlantUML version 1.2022.7(Mon Aug 22 19:01:30 CEST 2022)
(GPL source distribution)
Java Runtime: OpenJDK Runtime Environment
JVM: OpenJDK 64-Bit Server VM
Default Encoding: Cp1252
Language: es
Country: ES
--></g></svg>