<?xml version="1.0" encoding="UTF-8" standalone="no"?><svg xmlns="http://www.w3.org/2000/svg" xmlns:xlink="http://www.w3.org/1999/xlink" contentStyleType="text/css" height="837px" preserveAspectRatio="none" style="width:560px;height:837px;background:#FFFFFF;" version="1.1" viewBox="0 0 560 837" width="560px" zoomAndPan="magnify"><defs/><g><rect fill="none" height="29.0679" id="_title" style="stroke:none;stroke-width:1.0;" width="156" x="195" y="5"/><text fill="#000000" font-family="sans-serif" font-size="14" font-weight="bold" lengthAdjust="spacing" textLength="146" x="200" y="24.9659">Diagrama de Objetos</text><!--MD5=[e6c182cfa1ba9ed9e06fd2c867851d00]
class ASCENSOR 0:ASCENSOR--><g id="elem_ASCENSOR 0:ASCENSOR"><rect codeLine="10" fill="#F1F1F1" height="97.2038" id="ASCENSOR 0:ASCENSOR" rx="2.5" ry="2.5" style="stroke:#181818;stroke-width:0.5;" width="194" x="112" y="437.6079"/><ellipse cx="127" cy="453.6079" fill="#ADD1B2" rx="11" ry="11" style="stroke:#181818;stroke-width:1.0;"/><path d="M126.4688,460.5298 Q124.7188,460.5298 123.5781,459.7954 Q122.4531,459.0454 121.8906,457.7017 Q121.3438,456.3423 121.3438,454.5454 Q121.3438,452.5142 122,451.061 Q122.6563,449.6079 123.9375,448.8267 Q125.2188,448.0454 127.0938,448.0454 Q127.9844,448.0454 128.6563,448.2329 Q129.3281,448.4048 130.0156,448.7485 L129.2031,450.7642 Q128.5781,450.4517 128.0313,450.3267 Q127.5,450.2017 127.0156,450.2017 Q125.8438,450.2017 125.1406,450.7329 Q124.4375,451.2642 124.1406,452.2173 Q123.8438,453.1704 123.8438,454.436 Q123.8438,456.4517 124.5625,457.4204 Q125.2813,458.3735 126.875,458.3735 Q127.4688,458.3735 128.0938,458.2173 Q128.7188,458.061 129.5469,457.686 L129.5469,459.9048 Q128.8125,460.2173 128.0156,460.3735 Q127.2344,460.5298 126.4688,460.5298 Z " fill="#000000"/><text fill="#000000" font-family="sans-serif" font-size="14" lengthAdjust="spacing" textLength="162" x="141" y="459.0399">ASCENSOR 0:ASCENSOR</text><line style="stroke:#181818;stroke-width:0.5;" x1="113" x2="305" y1="469.6079" y2="469.6079"/><text fill="#000000" font-family="sans-serif" font-size="14" lengthAdjust="spacing" textLength="31" x="118" y="488.5739">ID: 0</text><text fill="#000000" font-family="sans-serif" font-size="14" lengthAdjust="spacing" textLength="87" x="118" y="507.6418">Capacidad: 6</text><text fill="#000000" font-family="sans-serif" font-size="14" lengthAdjust="spacing" textLength="82" x="118" y="526.7097">Acceso: true</text></g><!--MD5=[51c9d91cf75e755e7b96c9163723c8b4]
class JUAN:USUARIO--><g id="elem_JUAN:USUARIO"><rect codeLine="17" fill="#F1F1F1" height="78.1358" id="JUAN:USUARIO" rx="2.5" ry="2.5" style="stroke:#181818;stroke-width:0.5;" width="132" x="7" y="613.8179"/><ellipse cx="22" cy="629.8179" fill="#ADD1B2" rx="11" ry="11" style="stroke:#181818;stroke-width:1.0;"/><path d="M21.4688,636.7398 Q19.7188,636.7398 18.5781,636.0054 Q17.4531,635.2554 16.8906,633.9117 Q16.3438,632.5523 16.3438,630.7554 Q16.3438,628.7242 17,627.271 Q17.6563,625.8179 18.9375,625.0367 Q20.2188,624.2554 22.0938,624.2554 Q22.9844,624.2554 23.6563,624.4429 Q24.3281,624.6148 25.0156,624.9585 L24.2031,626.9742 Q23.5781,626.6617 23.0313,626.5367 Q22.5,626.4117 22.0156,626.4117 Q20.8438,626.4117 20.1406,626.9429 Q19.4375,627.4742 19.1406,628.4273 Q18.8438,629.3804 18.8438,630.646 Q18.8438,632.6617 19.5625,633.6304 Q20.2813,634.5835 21.875,634.5835 Q22.4688,634.5835 23.0938,634.4273 Q23.7188,634.271 24.5469,633.896 L24.5469,636.1148 Q23.8125,636.4273 23.0156,636.5835 Q22.2344,636.7398 21.4688,636.7398 Z " fill="#000000"/><text fill="#000000" font-family="sans-serif" font-size="14" lengthAdjust="spacing" textLength="100" x="36" y="635.2499">JUAN:USUARIO</text><line style="stroke:#181818;stroke-width:0.5;" x1="8" x2="138" y1="645.8179" y2="645.8179"/><text fill="#000000" font-family="sans-serif" font-size="14" lengthAdjust="spacing" textLength="109" x="13" y="664.7839">Origen: Planta 0</text><text fill="#000000" font-family="sans-serif" font-size="14" lengthAdjust="spacing" textLength="113" x="13" y="683.8518">Destino: Planta 1</text></g><!--MD5=[cf0785bcc6ae04b13fa47563d7584832]
class PEDRO:USUARIO--><g id="elem_PEDRO:USUARIO"><rect codeLine="23" fill="#F1F1F1" height="78.1358" id="PEDRO:USUARIO" rx="2.5" ry="2.5" style="stroke:#181818;stroke-width:0.5;" width="144" x="301" y="613.8179"/><ellipse cx="316" cy="629.8179" fill="#ADD1B2" rx="11" ry="11" style="stroke:#181818;stroke-width:1.0;"/><path d="M315.4688,636.7398 Q313.7188,636.7398 312.5781,636.0054 Q311.4531,635.2554 310.8906,633.9117 Q310.3438,632.5523 310.3438,630.7554 Q310.3438,628.7242 311,627.271 Q311.6563,625.8179 312.9375,625.0367 Q314.2188,624.2554 316.0938,624.2554 Q316.9844,624.2554 317.6563,624.4429 Q318.3281,624.6148 319.0156,624.9585 L318.2031,626.9742 Q317.5781,626.6617 317.0313,626.5367 Q316.5,626.4117 316.0156,626.4117 Q314.8438,626.4117 314.1406,626.9429 Q313.4375,627.4742 313.1406,628.4273 Q312.8438,629.3804 312.8438,630.646 Q312.8438,632.6617 313.5625,633.6304 Q314.2813,634.5835 315.875,634.5835 Q316.4688,634.5835 317.0938,634.4273 Q317.7188,634.271 318.5469,633.896 L318.5469,636.1148 Q317.8125,636.4273 317.0156,636.5835 Q316.2344,636.7398 315.4688,636.7398 Z " fill="#000000"/><text fill="#000000" font-family="sans-serif" font-size="14" lengthAdjust="spacing" textLength="112" x="330" y="635.2499">PEDRO:USUARIO</text><line style="stroke:#181818;stroke-width:0.5;" x1="302" x2="444" y1="645.8179" y2="645.8179"/><text fill="#000000" font-family="sans-serif" font-size="14" lengthAdjust="spacing" textLength="109" x="307" y="664.7839">Origen: Planta 1</text><text fill="#000000" font-family="sans-serif" font-size="14" lengthAdjust="spacing" textLength="113" x="307" y="683.8518">Destino: Planta 0</text></g><!--MD5=[172a3605bdb60884cf32b0b1bff00c22]
class CUADRO DE MANDO:CUADRO DE MANDO--><g id="elem_CUADRO DE MANDO:CUADRO DE MANDO"><rect codeLine="29" fill="#F1F1F1" height="59.0679" id="CUADRO DE MANDO:CUADRO DE MANDO" rx="2.5" ry="2.5" style="stroke:#181818;stroke-width:0.5;" width="312" x="53" y="770.9479"/><ellipse cx="68" cy="786.9479" fill="#ADD1B2" rx="11" ry="11" style="stroke:#181818;stroke-width:1.0;"/><path d="M67.4688,793.8698 Q65.7188,793.8698 64.5781,793.1354 Q63.4531,792.3854 62.8906,791.0417 Q62.3438,789.6823 62.3438,787.8854 Q62.3438,785.8542 63,784.401 Q63.6563,782.9479 64.9375,782.1667 Q66.2188,781.3854 68.0938,781.3854 Q68.9844,781.3854 69.6563,781.5729 Q70.3281,781.7448 71.0156,782.0885 L70.2031,784.1042 Q69.5781,783.7917 69.0313,783.6667 Q68.5,783.5417 68.0156,783.5417 Q66.8438,783.5417 66.1406,784.0729 Q65.4375,784.6042 65.1406,785.5573 Q64.8438,786.5104 64.8438,787.776 Q64.8438,789.7917 65.5625,790.7604 Q66.2813,791.7135 67.875,791.7135 Q68.4688,791.7135 69.0938,791.5573 Q69.7188,791.401 70.5469,791.026 L70.5469,793.2448 Q69.8125,793.5573 69.0156,793.7135 Q68.2344,793.8698 67.4688,793.8698 Z " fill="#000000"/><text fill="#000000" font-family="sans-serif" font-size="14" lengthAdjust="spacing" textLength="280" x="82" y="792.3799">CUADRO DE MANDO:CUADRO DE MANDO</text><line style="stroke:#181818;stroke-width:0.5;" x1="54" x2="364" y1="802.9479" y2="802.9479"/><text fill="#000000" font-family="sans-serif" font-size="14" lengthAdjust="spacing" textLength="73" x="59" y="821.9139">Solicitudes</text></g><!--MD5=[d0019a38cb9670b76455bca3656cadcf]
class PLANTA 0:PLANTA--><g id="elem_PLANTA 0:PLANTA"><rect codeLine="34" fill="#F1F1F1" height="116.2717" id="PLANTA 0:PLANTA" rx="2.5" ry="2.5" style="stroke:#181818;stroke-width:0.5;" width="152" x="27" y="242.3379"/><ellipse cx="42" cy="258.3379" fill="#ADD1B2" rx="11" ry="11" style="stroke:#181818;stroke-width:1.0;"/><path d="M41.4688,265.2598 Q39.7188,265.2598 38.5781,264.5254 Q37.4531,263.7754 36.8906,262.4317 Q36.3438,261.0723 36.3438,259.2754 Q36.3438,257.2442 37,255.791 Q37.6563,254.3379 38.9375,253.5567 Q40.2188,252.7754 42.0938,252.7754 Q42.9844,252.7754 43.6563,252.9629 Q44.3281,253.1348 45.0156,253.4785 L44.2031,255.4942 Q43.5781,255.1817 43.0313,255.0567 Q42.5,254.9317 42.0156,254.9317 Q40.8438,254.9317 40.1406,255.4629 Q39.4375,255.9942 39.1406,256.9473 Q38.8438,257.9004 38.8438,259.166 Q38.8438,261.1817 39.5625,262.1504 Q40.2813,263.1035 41.875,263.1035 Q42.4688,263.1035 43.0938,262.9473 Q43.7188,262.791 44.5469,262.416 L44.5469,264.6348 Q43.8125,264.9473 43.0156,265.1035 Q42.2344,265.2598 41.4688,265.2598 Z " fill="#000000"/><text fill="#000000" font-family="sans-serif" font-size="14" lengthAdjust="spacing" textLength="120" x="56" y="263.7699">PLANTA 0:PLANTA</text><line style="stroke:#181818;stroke-width:0.5;" x1="28" x2="178" y1="274.3379" y2="274.3379"/><text fill="#000000" font-family="sans-serif" font-size="14" lengthAdjust="spacing" textLength="31" x="33" y="293.3039">ID: 0</text><text fill="#000000" font-family="sans-serif" font-size="14" lengthAdjust="spacing" textLength="93" x="33" y="312.3718">Personas: 100</text><text fill="#000000" font-family="sans-serif" font-size="14" lengthAdjust="spacing" textLength="103" x="33" y="331.4397">Capacidad: 200</text><text fill="#000000" font-family="sans-serif" font-size="14" lengthAdjust="spacing" textLength="82" x="33" y="350.5076">Acceso: true</text></g><!--MD5=[c2a358fc6db1a4b5d69f4376af75bc3c]
class PLANTA 1:PLANTA--><g id="elem_PLANTA 1:PLANTA"><rect codeLine="42" fill="#F1F1F1" height="116.2717" id="PLANTA 1:PLANTA" rx="2.5" ry="2.5" style="stroke:#181818;stroke-width:0.5;" width="152" x="214" y="242.3379"/><ellipse cx="229" cy="258.3379" fill="#ADD1B2" rx="11" ry="11" style="stroke:#181818;stroke-width:1.0;"/><path d="M228.4688,265.2598 Q226.7188,265.2598 225.5781,264.5254 Q224.4531,263.7754 223.8906,262.4317 Q223.3438,261.0723 223.3438,259.2754 Q223.3438,257.2442 224,255.791 Q224.6563,254.3379 225.9375,253.5567 Q227.2188,252.7754 229.0938,252.7754 Q229.9844,252.7754 230.6563,252.9629 Q231.3281,253.1348 232.0156,253.4785 L231.2031,255.4942 Q230.5781,255.1817 230.0313,255.0567 Q229.5,254.9317 229.0156,254.9317 Q227.8438,254.9317 227.1406,255.4629 Q226.4375,255.9942 226.1406,256.9473 Q225.8438,257.9004 225.8438,259.166 Q225.8438,261.1817 226.5625,262.1504 Q227.2813,263.1035 228.875,263.1035 Q229.4688,263.1035 230.0938,262.9473 Q230.7188,262.791 231.5469,262.416 L231.5469,264.6348 Q230.8125,264.9473 230.0156,265.1035 Q229.2344,265.2598 228.4688,265.2598 Z " fill="#000000"/><text fill="#000000" font-family="sans-serif" font-size="14" lengthAdjust="spacing" textLength="120" x="243" y="263.7699">PLANTA 1:PLANTA</text><line style="stroke:#181818;stroke-width:0.5;" x1="215" x2="365" y1="274.3379" y2="274.3379"/><text fill="#000000" font-family="sans-serif" font-size="14" lengthAdjust="spacing" textLength="31" x="220" y="293.3039">ID: 1</text><text fill="#000000" font-family="sans-serif" font-size="14" lengthAdjust="spacing" textLength="93" x="220" y="312.3718">Personas: 150</text><text fill="#000000" font-family="sans-serif" font-size="14" lengthAdjust="spacing" textLength="103" x="220" y="331.4397">Capacidad: 200</text><text fill="#000000" font-family="sans-serif" font-size="14" lengthAdjust="spacing" textLength="82" x="220" y="350.5076">Acceso: true</text></g><!--MD5=[7f937eebc48efc834ee9b0af0c5c4739]
class PLANTA 2:PLANTA--><g id="elem_PLANTA 2:PLANTA"><rect codeLine="50" fill="#F1F1F1" height="116.2717" id="PLANTA 2:PLANTA" rx="2.5" ry="2.5" style="stroke:#181818;stroke-width:0.5;" width="152" x="401" y="242.3379"/><ellipse cx="416" cy="258.3379" fill="#ADD1B2" rx="11" ry="11" style="stroke:#181818;stroke-width:1.0;"/><path d="M415.4688,265.2598 Q413.7188,265.2598 412.5781,264.5254 Q411.4531,263.7754 410.8906,262.4317 Q410.3438,261.0723 410.3438,259.2754 Q410.3438,257.2442 411,255.791 Q411.6563,254.3379 412.9375,253.5567 Q414.2188,252.7754 416.0938,252.7754 Q416.9844,252.7754 417.6563,252.9629 Q418.3281,253.1348 419.0156,253.4785 L418.2031,255.4942 Q417.5781,255.1817 417.0313,255.0567 Q416.5,254.9317 416.0156,254.9317 Q414.8438,254.9317 414.1406,255.4629 Q413.4375,255.9942 413.1406,256.9473 Q412.8438,257.9004 412.8438,259.166 Q412.8438,261.1817 413.5625,262.1504 Q414.2813,263.1035 415.875,263.1035 Q416.4688,263.1035 417.0938,262.9473 Q417.7188,262.791 418.5469,262.416 L418.5469,264.6348 Q417.8125,264.9473 417.0156,265.1035 Q416.2344,265.2598 415.4688,265.2598 Z " fill="#000000"/><text fill="#000000" font-family="sans-serif" font-size="14" lengthAdjust="spacing" textLength="120" x="430" y="263.7699">PLANTA 2:PLANTA</text><line style="stroke:#181818;stroke-width:0.5;" x1="402" x2="552" y1="274.3379" y2="274.3379"/><text fill="#000000" font-family="sans-serif" font-size="14" lengthAdjust="spacing" textLength="31" x="407" y="293.3039">ID: 2</text><text fill="#000000" font-family="sans-serif" font-size="14" lengthAdjust="spacing" textLength="85" x="407" y="312.3718">Personas: 50</text><text fill="#000000" font-family="sans-serif" font-size="14" lengthAdjust="spacing" textLength="103" x="407" y="331.4397">Capacidad: 200</text><text fill="#000000" font-family="sans-serif" font-size="14" lengthAdjust="spacing" textLength="86" x="407" y="350.5076">Acceso: false</text></g><!--MD5=[8adb869739896b30b838e2485677c74d]
class UNEATLANTICO:EDIFICIO--><g id="elem_UNEATLANTICO:EDIFICIO"><rect codeLine="58" fill="#F1F1F1" height="116.2717" id="UNEATLANTICO:EDIFICIO" rx="2.5" ry="2.5" style="stroke:#181818;stroke-width:0.5;" width="202" x="189" y="47.0679"/><ellipse cx="204" cy="63.0679" fill="#ADD1B2" rx="11" ry="11" style="stroke:#181818;stroke-width:1.0;"/><path d="M203.4688,69.9898 Q201.7188,69.9898 200.5781,69.2554 Q199.4531,68.5054 198.8906,67.1617 Q198.3438,65.8023 198.3438,64.0054 Q198.3438,61.9742 199,60.521 Q199.6563,59.0679 200.9375,58.2867 Q202.2188,57.5054 204.0938,57.5054 Q204.9844,57.5054 205.6563,57.6929 Q206.3281,57.8648 207.0156,58.2085 L206.2031,60.2242 Q205.5781,59.9117 205.0313,59.7867 Q204.5,59.6617 204.0156,59.6617 Q202.8438,59.6617 202.1406,60.1929 Q201.4375,60.7242 201.1406,61.6773 Q200.8438,62.6304 200.8438,63.896 Q200.8438,65.9117 201.5625,66.8804 Q202.2813,67.8335 203.875,67.8335 Q204.4688,67.8335 205.0938,67.6773 Q205.7188,67.521 206.5469,67.146 L206.5469,69.3648 Q205.8125,69.6773 205.0156,69.8335 Q204.2344,69.9898 203.4688,69.9898 Z " fill="#000000"/><text fill="#000000" font-family="sans-serif" font-size="14" lengthAdjust="spacing" textLength="170" x="218" y="68.4999">UNEATLANTICO:EDIFICIO</text><line style="stroke:#181818;stroke-width:0.5;" x1="190" x2="390" y1="79.0679" y2="79.0679"/><text fill="#000000" font-family="sans-serif" font-size="14" lengthAdjust="spacing" textLength="65" x="195" y="98.0339">Plantas: 3</text><text fill="#000000" font-family="sans-serif" font-size="14" lengthAdjust="spacing" textLength="92" x="195" y="117.1018">Ascensores: 2</text><text fill="#000000" font-family="sans-serif" font-size="14" lengthAdjust="spacing" textLength="103" x="195" y="136.1697">Capacidad: 600</text><text fill="#000000" font-family="sans-serif" font-size="14" lengthAdjust="spacing" textLength="82" x="195" y="155.2376">Acceso: true</text></g><!--MD5=[bef83f14928db4361bb299a60d1e831e]
link UNEATLANTICO:EDIFICIO to PLANTA 0:PLANTA--><g id="link_UNEATLANTICO:EDIFICIO_PLANTA 0:PLANTA"><path codeLine="66" d="M234.4,163.6679 C211.99,186.8279 186.09,213.5979 163.24,237.2179 " fill="none" id="UNEATLANTICO:EDIFICIO-to-PLANTA 0:PLANTA" style="stroke:#181818;stroke-width:1.0;"/><polygon fill="#181818" points="159.76,240.8079,168.8942,237.1246,163.2381,237.2158,163.1468,231.5597,159.76,240.8079" style="stroke:#181818;stroke-width:1.0;"/><text fill="#000000" font-family="sans-serif" font-size="13" lengthAdjust="spacing" textLength="32" x="203" y="208.2349">Tiene</text></g><!--MD5=[211e7b2c7176eca364ff17c9e7803690]
link UNEATLANTICO:EDIFICIO to PLANTA 1:PLANTA--><g id="link_UNEATLANTICO:EDIFICIO_PLANTA 1:PLANTA"><path codeLine="67" d="M290,163.6679 C290,186.2479 290,212.2579 290,235.4379 " fill="none" id="UNEATLANTICO:EDIFICIO-to-PLANTA 1:PLANTA" style="stroke:#181818;stroke-width:1.0;"/><polygon fill="#181818" points="290,240.3879,294,231.3879,290,235.3879,286,231.3879,290,240.3879" style="stroke:#181818;stroke-width:1.0;"/><text fill="#000000" font-family="sans-serif" font-size="13" lengthAdjust="spacing" textLength="32" x="291" y="208.2349">Tiene</text></g><!--MD5=[48febb760279fa9bad053a6157bf91d1]
link UNEATLANTICO:EDIFICIO to PLANTA 2:PLANTA--><g id="link_UNEATLANTICO:EDIFICIO_PLANTA 2:PLANTA"><path codeLine="68" d="M345.6,163.6679 C368.01,186.8279 393.91,213.5979 416.76,237.2179 " fill="none" id="UNEATLANTICO:EDIFICIO-to-PLANTA 2:PLANTA" style="stroke:#181818;stroke-width:1.0;"/><polygon fill="#181818" points="420.24,240.8079,416.8532,231.5597,416.7619,237.2158,411.1058,237.1246,420.24,240.8079" style="stroke:#181818;stroke-width:1.0;"/><text fill="#000000" font-family="sans-serif" font-size="13" lengthAdjust="spacing" textLength="32" x="390" y="208.2349">Tiene</text></g><!--MD5=[9216b83f1e664feabe9450b943fa459a]
link PLANTA 0:PLANTA to JUAN:USUARIO--><g id="link_PLANTA 0:PLANTA_JUAN:USUARIO"><path codeLine="70" d="M81.11,358.8779 C73.08,382.8379 64.98,411.1979 61,437.6079 C54.56,480.3279 58.79,491.6679 61,534.8179 C62.22,558.7679 64.85,585.3779 67.33,607.1679 " fill="none" id="PLANTA 0:PLANTA-to-JUAN:USUARIO" style="stroke:#181818;stroke-width:1.0;"/><polygon fill="#181818" points="67.89,611.9679,70.833,602.5691,67.3174,607.0008,62.8857,603.4852,67.89,611.9679" style="stroke:#181818;stroke-width:1.0;"/><text fill="#000000" font-family="sans-serif" font-size="13" lengthAdjust="spacing" textLength="32" x="62" y="491.6049">Tiene</text></g><!--MD5=[67fcbbdf8833f9eb4357024dce060942]
link PLANTA 1:PLANTA to PEDRO:USUARIO--><g id="link_PLANTA 1:PLANTA_PEDRO:USUARIO"><path codeLine="71" d="M323.04,358.9079 C327.62,368.5979 331.83,378.7179 335,388.6079 C358.83,462.9879 367.76,553.9979 371.07,607.1979 " fill="none" id="PLANTA 1:PLANTA-to-PEDRO:USUARIO" style="stroke:#181818;stroke-width:1.0;"/><polygon fill="#181818" points="371.36,611.9879,374.8138,602.7645,371.0605,606.9969,366.8282,603.2436,371.36,611.9879" style="stroke:#181818;stroke-width:1.0;"/><text fill="#000000" font-family="sans-serif" font-size="13" lengthAdjust="spacing" textLength="32" x="365" y="491.6049">Tiene</text></g><!--MD5=[fcb15b1f6d1b0fcf7ecd5a1c5acb9d7b]
link PLANTA 0:PLANTA to ASCENSOR 0:ASCENSOR--><g id="link_PLANTA 0:PLANTA_ASCENSOR 0:ASCENSOR"><path codeLine="73" d="M131.47,359.0779 C139.71,374.9779 148.93,392.1179 158,407.6079 C162.72,415.6779 167.92,424.0679 173.14,432.2179 " fill="none" id="PLANTA 0:PLANTA-to-ASCENSOR 0:ASCENSOR" style="stroke:#181818;stroke-width:1.0;"/><polygon fill="#181818" points="175.57,435.9979,174.0445,426.2679,172.8561,431.7985,167.3255,430.6101,175.57,435.9979" style="stroke:#181818;stroke-width:1.0;"/><text fill="#000000" font-family="sans-serif" font-size="13" lengthAdjust="spacing" textLength="76" x="159" y="403.5049">Tiene Acceso</text></g><!--MD5=[9dfa9aae4900f4cf1a31d693ba0378e3]
link PLANTA 1:PLANTA to ASCENSOR 0:ASCENSOR--><g id="link_PLANTA 1:PLANTA_ASCENSOR 0:ASCENSOR"><path codeLine="74" d="M264.59,359.1079 C254.37,382.2979 242.65,408.8779 232.62,431.6379 " fill="none" id="PLANTA 1:PLANTA-to-ASCENSOR 0:ASCENSOR" style="stroke:#181818;stroke-width:1.0;"/><polygon fill="#181818" points="230.71,435.9579,237.9994,429.3349,232.7261,431.3824,230.6785,426.1091,230.71,435.9579" style="stroke:#181818;stroke-width:1.0;"/><text fill="#000000" font-family="sans-serif" font-size="13" lengthAdjust="spacing" textLength="76" x="250" y="403.5049">Tiene Acceso</text></g><!--MD5=[9dc2fb9b80f66f10683b93fe7e73ee7c]
reverse link ASCENSOR 0:ASCENSOR to JUAN:USUARIO--><g id="link_ASCENSOR 0:ASCENSOR_JUAN:USUARIO"><path codeLine="76" d="M164.82,539.7679 C157.83,548.1279 150.71,556.6979 144,564.8179 C130.83,580.7479 116.39,598.4179 104,613.6479 " fill="none" id="ASCENSOR 0:ASCENSOR-backto-JUAN:USUARIO" style="stroke:#181818;stroke-width:1.0;"/><polygon fill="#181818" points="167.71,536.3079,158.877,540.6644,164.5105,540.1502,165.0247,545.7836,167.71,536.3079" style="stroke:#181818;stroke-width:1.0;"/><text fill="#000000" font-family="sans-serif" font-size="13" lengthAdjust="spacing" textLength="37" x="145" y="579.7149">Utiliza</text></g><!--MD5=[d2ac7a538e3b9c8e64e970f9304270bf]
reverse link ASCENSOR 0:ASCENSOR to PEDRO:USUARIO--><g id="link_ASCENSOR 0:ASCENSOR_PEDRO:USUARIO"><path codeLine="77" d="M261.28,539.7079 C285.12,563.6479 312.83,591.4679 334.7,613.4179 " fill="none" id="ASCENSOR 0:ASCENSOR-backto-PEDRO:USUARIO" style="stroke:#181818;stroke-width:1.0;"/><polygon fill="#181818" points="257.94,536.3579,261.457,545.5574,261.4684,539.9006,267.1252,539.912,257.94,536.3579" style="stroke:#181818;stroke-width:1.0;"/><text fill="#000000" font-family="sans-serif" font-size="13" lengthAdjust="spacing" textLength="37" x="301" y="579.7149">Utiliza</text></g><!--MD5=[5e9cc0a9a6edc663e27b943e2e63bead]
link JUAN:USUARIO to CUADRO DE MANDO:CUADRO DE MANDO--><g id="link_JUAN:USUARIO_CUADRO DE MANDO:CUADRO DE MANDO"><path codeLine="79" d="M91.84,692.2279 C100.84,708.3279 112.59,726.5979 126,740.9479 C134.8,750.3579 145.33,759.1679 155.89,766.9479 " fill="none" id="JUAN:USUARIO-to-CUADRO DE MANDO:CUADRO DE MANDO" style="stroke:#181818;stroke-width:1.0;"/><polygon fill="#181818" points="159.85,769.7979,154.8739,761.2986,155.7891,766.8809,150.2067,767.7961,159.85,769.7979" style="stroke:#181818;stroke-width:1.0;"/><text fill="#000000" font-family="sans-serif" font-size="13" lengthAdjust="spacing" textLength="55" x="127" y="736.8449">Solicita al</text></g><!--MD5=[985d03bef3aff990d01fa2cefcf98a14]
link PEDRO:USUARIO to CUADRO DE MANDO:CUADRO DE MANDO--><g id="link_PEDRO:USUARIO_CUADRO DE MANDO:CUADRO DE MANDO"><path codeLine="80" d="M329.91,692.1379 C304.02,715.1279 271.39,744.0879 246.56,766.1379 " fill="none" id="PEDRO:USUARIO-to-CUADRO DE MANDO:CUADRO DE MANDO" style="stroke:#181818;stroke-width:1.0;"/><polygon fill="#181818" points="242.83,769.4479,252.2198,766.4761,246.5733,766.1332,246.9162,760.4867,242.83,769.4479" style="stroke:#181818;stroke-width:1.0;"/><text fill="#000000" font-family="sans-serif" font-size="13" lengthAdjust="spacing" textLength="55" x="296" y="736.8449">Solicita al</text></g><!--MD5=[12fe6ba2cf4a8e15e25a744d57133698]
link CUADRO DE MANDO:CUADRO DE MANDO to ASCENSOR 0:ASCENSOR--><g id="link_CUADRO DE MANDO:CUADRO DE MANDO_ASCENSOR 0:ASCENSOR"><path codeLine="82" d="M209,770.4579 C209,718.2479 209,607.7779 209,541.2779 " fill="none" id="CUADRO DE MANDO:CUADRO DE MANDO-to-ASCENSOR 0:ASCENSOR" style="stroke:#181818;stroke-width:1.0;"/><polygon fill="#181818" points="209,536.4979,205,545.4979,209,541.4979,213,545.4979,209,536.4979" style="stroke:#181818;stroke-width:1.0;"/><text fill="#000000" font-family="sans-serif" font-size="13" lengthAdjust="spacing" textLength="55" x="210" y="658.2749">Gobierna</text></g><!--MD5=[b5e3e6ca4da4b2fb0fc1597963cda559]
@startuml Diagrama_de_Objetos

title Diagrama de Objetos

skinparam {
    NoteBackgroundColor #whiteSmoke
}

hide empty members

class "ASCENSOR 0:ASCENSOR"
{
    ID: 0
    Capacidad: 6
    Acceso: true
}

class "JUAN:USUARIO"
{
    Origen: Planta 0
    Destino: Planta 1
}

class "PEDRO:USUARIO"
{
    Origen: Planta 1
    Destino: Planta 0
}

class "CUADRO DE MANDO:CUADRO DE MANDO"
{
    Solicitudes
}

class "PLANTA 0:PLANTA"
{
    ID: 0
    Personas: 100
    Capacidad: 200
    Acceso: true
}

class "PLANTA 1:PLANTA"
{
    ID: 1
    Personas: 150
    Capacidad: 200
    Acceso: true
}

class "PLANTA 2:PLANTA"
{
    ID: 2
    Personas: 50
    Capacidad: 200
    Acceso: false
}

class "UNEATLANTICO:EDIFICIO"
{
    Plantas: 3
    Ascensores: 2
    Capacidad: 600
    Acceso: true
}

"UNEATLANTICO:EDIFICIO" - -> "PLANTA 0:PLANTA" : Tiene
"UNEATLANTICO:EDIFICIO" - -> "PLANTA 1:PLANTA" : Tiene
"UNEATLANTICO:EDIFICIO" - -> "PLANTA 2:PLANTA" : Tiene

"PLANTA 0:PLANTA" - -> "JUAN:USUARIO" : Tiene
"PLANTA 1:PLANTA" - -> "PEDRO:USUARIO" : Tiene

"PLANTA 0:PLANTA" - -> "ASCENSOR 0:ASCENSOR" : Tiene Acceso
"PLANTA 1:PLANTA" - -> "ASCENSOR 0:ASCENSOR" : Tiene Acceso

"JUAN:USUARIO" -up-> "ASCENSOR 0:ASCENSOR" : Utiliza
"PEDRO:USUARIO" -up-> "ASCENSOR 0:ASCENSOR" : Utiliza

"JUAN:USUARIO" - -> "CUADRO DE MANDO:CUADRO DE MANDO" : Solicita al
"PEDRO:USUARIO" - -> "CUADRO DE MANDO:CUADRO DE MANDO" : Solicita al

"CUADRO DE MANDO:CUADRO DE MANDO" - -> "ASCENSOR 0:ASCENSOR" : Gobierna


@enduml

PlantUML version 1.2022.7(Mon Aug 22 19:01:30 CEST 2022)
(GPL source distribution)
Java Runtime: OpenJDK Runtime Environment
JVM: OpenJDK 64-Bit Server VM
Default Encoding: UTF-8
Language: es
Country: ES
--></g></svg>