<?xml version="1.0" encoding="us-ascii" standalone="no"?><svg xmlns="http://www.w3.org/2000/svg" xmlns:xlink="http://www.w3.org/1999/xlink" contentStyleType="text/css" height="1050px" preserveAspectRatio="none" style="width:1474px;height:1050px;background:#FFFFFF;" version="1.1" viewBox="0 0 1474 1050" width="1474px" zoomAndPan="magnify"><defs/><g><text fill="#000000" font-family="sans-serif" font-size="14" font-weight="bold" lengthAdjust="spacing" textLength="336" x="562" y="24.9659">Diagrama de Arquitectura(Controladores Clases)</text><!--cluster Controllers--><g id="cluster_Controllers"><path d="M8.5,46.6699 L86.5,46.6699 A3.75,3.75 0 0 1 89,49.1699 L96,71.7378 L1464.5,71.7378 A2.5,2.5 0 0 1 1467,74.2378 L1467,1040.6099 A2.5,2.5 0 0 1 1464.5,1043.1099 L8.5,1043.1099 A2.5,2.5 0 0 1 6,1040.6099 L6,49.1699 A2.5,2.5 0 0 1 8.5,46.6699 " fill="none" style="stroke:#000000;stroke-width:1.5;"/><line style="stroke:#000000;stroke-width:1.5;" x1="6" x2="96" y1="71.7378" y2="71.7378"/><text fill="#000000" font-family="sans-serif" font-size="14" font-weight="bold" lengthAdjust="spacing" textLength="77" x="10" y="63.6358">Controllers</text></g><!--class BuildingController--><g id="elem_BuildingController"><rect codeLine="11" fill="#F1F1F1" height="238.6792" id="BuildingController" rx="2.5" ry="2.5" style="stroke:#181818;stroke-width:0.5;" width="338" x="22" y="170.4699"/><ellipse cx="124.75" cy="186.4699" fill="#ADD1B2" rx="11" ry="11" style="stroke:#181818;stroke-width:1.0;"/><path d="M124.2188,193.3918 Q122.4688,193.3918 121.3281,192.6574 Q120.2031,191.9074 119.6406,190.5636 Q119.0938,189.2043 119.0938,187.4074 Q119.0938,185.3761 119.75,183.923 Q120.4063,182.4699 121.6875,181.6886 Q122.9688,180.9074 124.8438,180.9074 Q125.7344,180.9074 126.4063,181.0949 Q127.0781,181.2668 127.7656,181.6105 L126.9531,183.6261 Q126.3281,183.3136 125.7813,183.1886 Q125.25,183.0636 124.7656,183.0636 Q123.5938,183.0636 122.8906,183.5949 Q122.1875,184.1261 121.8906,185.0793 Q121.5938,186.0324 121.5938,187.298 Q121.5938,189.3136 122.3125,190.2824 Q123.0313,191.2355 124.625,191.2355 Q125.2188,191.2355 125.8438,191.0793 Q126.4688,190.923 127.2969,190.548 L127.2969,192.7668 Q126.5625,193.0793 125.7656,193.2355 Q124.9844,193.3918 124.2188,193.3918 Z " fill="#000000"/><text fill="#000000" font-family="sans-serif" font-size="14" lengthAdjust="spacing" textLength="124" x="145.25" y="191.9019">BuildingController</text><line style="stroke:#181818;stroke-width:0.5;" x1="23" x2="359" y1="202.4699" y2="202.4699"/><rect fill="none" height="6" style="stroke:#C82930;stroke-width:1.0;" width="6" x="30" y="214.5039"/><text fill="#000000" font-family="sans-serif" font-size="14" lengthAdjust="spacing" textLength="122" x="42" y="221.4358">building: Building</text><rect fill="none" height="6" style="stroke:#C82930;stroke-width:1.0;" width="6" x="30" y="233.5718"/><text fill="#000000" font-family="sans-serif" font-size="14" lengthAdjust="spacing" textLength="250" x="42" y="240.5038">elevatorController: ElevatorController</text><rect fill="none" height="6" style="stroke:#C82930;stroke-width:1.0;" width="6" x="30" y="252.6397"/><text fill="#000000" font-family="sans-serif" font-size="14" lengthAdjust="spacing" textLength="206" x="42" y="259.5717">floorController: FloorController</text><rect fill="none" height="6" style="stroke:#C82930;stroke-width:1.0;" width="6" x="30" y="271.7076"/><text fill="#000000" font-family="sans-serif" font-size="14" lengthAdjust="spacing" textLength="312" x="42" y="278.6396">controlPanelController: ControlPanelController</text><line style="stroke:#181818;stroke-width:0.5;" x1="23" x2="359" y1="286.7416" y2="286.7416"/><ellipse cx="33" cy="301.7755" fill="#84BE84" rx="3" ry="3" style="stroke:#038048;stroke-width:1.0;"/><text fill="#000000" font-family="sans-serif" font-size="14" lengthAdjust="spacing" textLength="110" x="42" y="305.7075">index(): Building</text><ellipse cx="33" cy="320.8434" fill="#84BE84" rx="3" ry="3" style="stroke:#038048;stroke-width:1.0;"/><text fill="#000000" font-family="sans-serif" font-size="14" lengthAdjust="spacing" textLength="121" x="42" y="324.7754">update(): Building</text><ellipse cx="33" cy="339.9114" fill="#84BE84" rx="3" ry="3" style="stroke:#038048;stroke-width:1.0;"/><text fill="#000000" font-family="sans-serif" font-size="14" lengthAdjust="spacing" textLength="161" x="42" y="343.8433">updateFloors(): Building</text><ellipse cx="33" cy="358.9793" fill="#84BE84" rx="3" ry="3" style="stroke:#038048;stroke-width:1.0;"/><text fill="#000000" font-family="sans-serif" font-size="14" lengthAdjust="spacing" textLength="182" x="42" y="362.9113">updateElevators(): Building</text><ellipse cx="33" cy="378.0472" fill="#84BE84" rx="3" ry="3" style="stroke:#038048;stroke-width:1.0;"/><text fill="#000000" font-family="sans-serif" font-size="14" lengthAdjust="spacing" textLength="214" x="42" y="381.9792">updateControlPanels(): Building</text><ellipse cx="33" cy="397.1151" fill="#84BE84" rx="3" ry="3" style="stroke:#038048;stroke-width:1.0;"/><text fill="#000000" font-family="sans-serif" font-size="14" lengthAdjust="spacing" textLength="250" x="42" y="401.0471">BuildingController(Building building)</text></g><!--class ElevatorController--><g id="elem_ElevatorController"><rect codeLine="24" fill="#F1F1F1" height="287.8829" id="ElevatorController" rx="2.5" ry="2.5" style="stroke:#181818;stroke-width:0.5;" width="547" x="394.5" y="145.8699"/><ellipse cx="603.25" cy="161.8699" fill="#ADD1B2" rx="11" ry="11" style="stroke:#181818;stroke-width:1.0;"/><path d="M602.7188,168.7918 Q600.9688,168.7918 599.8281,168.0574 Q598.7031,167.3074 598.1406,165.9636 Q597.5938,164.6043 597.5938,162.8074 Q597.5938,160.7761 598.25,159.323 Q598.9063,157.8699 600.1875,157.0886 Q601.4688,156.3074 603.3438,156.3074 Q604.2344,156.3074 604.9063,156.4949 Q605.5781,156.6668 606.2656,157.0105 L605.4531,159.0261 Q604.8281,158.7136 604.2813,158.5886 Q603.75,158.4636 603.2656,158.4636 Q602.0938,158.4636 601.3906,158.9949 Q600.6875,159.5261 600.3906,160.4793 Q600.0938,161.4324 600.0938,162.698 Q600.0938,164.7136 600.8125,165.6824 Q601.5313,166.6355 603.125,166.6355 Q603.7188,166.6355 604.3438,166.4793 Q604.9688,166.323 605.7969,165.948 L605.7969,168.1668 Q605.0625,168.4793 604.2656,168.6355 Q603.4844,168.7918 602.7188,168.7918 Z " fill="#000000"/><text fill="#000000" font-family="sans-serif" font-size="14" lengthAdjust="spacing" textLength="121" x="623.75" y="167.3019">ElevatorController</text><line style="stroke:#181818;stroke-width:0.5;" x1="395.5" x2="940.5" y1="177.8699" y2="177.8699"/><ellipse cx="405.5" cy="192.9039" fill="#84BE84" rx="3" ry="3" style="stroke:#038048;stroke-width:1.0;"/><text fill="#000000" font-family="sans-serif" font-size="14" lengthAdjust="spacing" textLength="239" x="414.5" y="196.8358">update(Building building): Building</text><ellipse cx="405.5" cy="211.9718" fill="#84BE84" rx="3" ry="3" style="stroke:#038048;stroke-width:1.0;"/><text fill="#000000" font-family="sans-serif" font-size="14" lengthAdjust="spacing" textLength="198" x="414.5" y="215.9038">checkElevatorRequests(): void</text><ellipse cx="405.5" cy="231.0397" fill="#84BE84" rx="3" ry="3" style="stroke:#038048;stroke-width:1.0;"/><text fill="#000000" font-family="sans-serif" font-size="14" lengthAdjust="spacing" textLength="137" x="414.5" y="234.9717">updatePeople(): void</text><ellipse cx="405.5" cy="250.1076" fill="#84BE84" rx="3" ry="3" style="stroke:#038048;stroke-width:1.0;"/><text fill="#000000" font-family="sans-serif" font-size="14" lengthAdjust="spacing" textLength="303" x="414.5" y="254.0396">updateElevatorPeople(Elevator elevator): void</text><ellipse cx="405.5" cy="269.1755" fill="#84BE84" rx="3" ry="3" style="stroke:#038048;stroke-width:1.0;"/><text fill="#000000" font-family="sans-serif" font-size="14" lengthAdjust="spacing" textLength="381" x="414.5" y="273.1075">processWaitingPeople(Elevator elevator, Floor floor): void</text><ellipse cx="405.5" cy="288.2434" fill="#84BE84" rx="3" ry="3" style="stroke:#038048;stroke-width:1.0;"/><text fill="#000000" font-family="sans-serif" font-size="14" lengthAdjust="spacing" textLength="323" x="414.5" y="292.1754">requestElevator(Floor floor, Person person): void</text><ellipse cx="405.5" cy="307.3114" fill="#84BE84" rx="3" ry="3" style="stroke:#038048;stroke-width:1.0;"/><text fill="#000000" font-family="sans-serif" font-size="14" lengthAdjust="spacing" textLength="446" x="414.5" y="311.2433">askPeopleInside(Elevator elevator, Floor floor, Person person): void</text><ellipse cx="405.5" cy="326.3793" fill="#84BE84" rx="3" ry="3" style="stroke:#038048;stroke-width:1.0;"/><text fill="#000000" font-family="sans-serif" font-size="14" lengthAdjust="spacing" textLength="478" x="414.5" y="330.3113">getElevatorRequest(ElevatorRequest elevatorRequest): ElevatorRequest</text><ellipse cx="405.5" cy="345.4472" fill="#84BE84" rx="3" ry="3" style="stroke:#038048;stroke-width:1.0;"/><text fill="#000000" font-family="sans-serif" font-size="14" lengthAdjust="spacing" textLength="371" x="414.5" y="349.3792">processPeopleInside(Elevator elevator, Floor floor): void</text><ellipse cx="405.5" cy="364.5151" fill="#84BE84" rx="3" ry="3" style="stroke:#038048;stroke-width:1.0;"/><text fill="#000000" font-family="sans-serif" font-size="14" lengthAdjust="spacing" textLength="489" x="414.5" y="368.4471">movePersonToElevator(Elevator elevator, Floor floor, Person person): void</text><ellipse cx="405.5" cy="383.583" fill="#84BE84" rx="3" ry="3" style="stroke:#038048;stroke-width:1.0;"/><text fill="#000000" font-family="sans-serif" font-size="14" lengthAdjust="spacing" textLength="376" x="414.5" y="387.515">removeElevatorRequest(Person person, Floor floor): void</text><ellipse cx="405.5" cy="402.6509" fill="#84BE84" rx="3" ry="3" style="stroke:#038048;stroke-width:1.0;"/><text fill="#000000" font-family="sans-serif" font-size="14" lengthAdjust="spacing" textLength="521" x="414.5" y="406.5829">removePersonFromElevator(Elevator elevator, Floor floor, Person person): void</text><ellipse cx="405.5" cy="421.7189" fill="#84BE84" rx="3" ry="3" style="stroke:#038048;stroke-width:1.0;"/><text fill="#000000" font-family="sans-serif" font-size="14" lengthAdjust="spacing" textLength="145" x="414.5" y="425.6508">updatePosition(): void</text></g><!--class Values--><g id="elem_Values"><rect codeLine="40" fill="#F1F1F1" height="410.2904" id="Values" rx="2.5" ry="2.5" style="stroke:#181818;stroke-width:0.5;" width="475" x="976.5" y="84.6699"/><ellipse cx="1187.75" cy="100.6699" fill="#ADD1B2" rx="11" ry="11" style="stroke:#181818;stroke-width:1.0;"/><path d="M1187.2188,107.5918 Q1185.4688,107.5918 1184.3281,106.8574 Q1183.2031,106.1074 1182.6406,104.7636 Q1182.0938,103.4043 1182.0938,101.6074 Q1182.0938,99.5761 1182.75,98.123 Q1183.4063,96.6699 1184.6875,95.8886 Q1185.9688,95.1074 1187.8438,95.1074 Q1188.7344,95.1074 1189.4063,95.2949 Q1190.0781,95.4668 1190.7656,95.8105 L1189.9531,97.8261 Q1189.3281,97.5136 1188.7813,97.3886 Q1188.25,97.2636 1187.7656,97.2636 Q1186.5938,97.2636 1185.8906,97.7949 Q1185.1875,98.3261 1184.8906,99.2793 Q1184.5938,100.2324 1184.5938,101.498 Q1184.5938,103.5136 1185.3125,104.4824 Q1186.0313,105.4355 1187.625,105.4355 Q1188.2188,105.4355 1188.8438,105.2793 Q1189.4688,105.123 1190.2969,104.748 L1190.2969,106.9668 Q1189.5625,107.2793 1188.7656,107.4355 Q1187.9844,107.5918 1187.2188,107.5918 Z " fill="#000000"/><text fill="#000000" font-family="sans-serif" font-size="14" lengthAdjust="spacing" textLength="44" x="1208.25" y="106.1019">Values</text><line style="stroke:#181818;stroke-width:0.5;" x1="977.5" x2="1450.5" y1="116.6699" y2="116.6699"/><rect fill="none" height="6" style="stroke:#C82930;stroke-width:1.0;" width="6" x="984.5" y="128.7039"/><text fill="#000000" font-family="sans-serif" font-size="14" lengthAdjust="spacing" textLength="118" x="996.5" y="135.6358">amountFloors: int</text><rect fill="none" height="6" style="stroke:#C82930;stroke-width:1.0;" width="6" x="984.5" y="147.7718"/><text fill="#000000" font-family="sans-serif" font-size="14" lengthAdjust="spacing" textLength="139" x="996.5" y="154.7038">amountElevators: int</text><line style="stroke:#181818;stroke-width:0.5;" x1="977.5" x2="1450.5" y1="162.8057" y2="162.8057"/><ellipse cx="987.5" cy="177.8397" fill="#84BE84" rx="3" ry="3" style="stroke:#038048;stroke-width:1.0;"/><text fill="#000000" font-family="sans-serif" font-size="14" lengthAdjust="spacing" textLength="149" x="996.5" y="181.7717">getAmountFloors(): int</text><ellipse cx="987.5" cy="196.9076" fill="#84BE84" rx="3" ry="3" style="stroke:#038048;stroke-width:1.0;"/><text fill="#000000" font-family="sans-serif" font-size="14" lengthAdjust="spacing" textLength="170" x="996.5" y="200.8396">getAmountElevators(): int</text><ellipse cx="987.5" cy="215.9755" fill="#84BE84" rx="3" ry="3" style="stroke:#038048;stroke-width:1.0;"/><text fill="#000000" font-family="sans-serif" font-size="14" lengthAdjust="spacing" textLength="167" x="996.5" y="219.9075">getElevatorCapacity(): int</text><ellipse cx="987.5" cy="235.0434" fill="#84BE84" rx="3" ry="3" style="stroke:#038048;stroke-width:1.0;"/><text fill="#000000" font-family="sans-serif" font-size="14" lengthAdjust="spacing" textLength="252" x="996.5" y="238.9754">setElevatorCapacity(int capacity): void</text><ellipse cx="987.5" cy="254.1114" fill="#84BE84" rx="3" ry="3" style="stroke:#038048;stroke-width:1.0;"/><text fill="#000000" font-family="sans-serif" font-size="14" lengthAdjust="spacing" textLength="143" x="996.5" y="258.0433">getElevatorFloor(): int</text><ellipse cx="987.5" cy="273.1793" fill="#84BE84" rx="3" ry="3" style="stroke:#038048;stroke-width:1.0;"/><text fill="#000000" font-family="sans-serif" font-size="14" lengthAdjust="spacing" textLength="204" x="996.5" y="277.1113">setElevatorFloor(int floor): void</text><ellipse cx="987.5" cy="292.2472" fill="#84BE84" rx="3" ry="3" style="stroke:#038048;stroke-width:1.0;"/><text fill="#000000" font-family="sans-serif" font-size="14" lengthAdjust="spacing" textLength="115" x="996.5" y="296.1792">getLabel(): String</text><ellipse cx="987.5" cy="311.3151" fill="#84BE84" rx="3" ry="3" style="stroke:#038048;stroke-width:1.0;"/><text fill="#000000" font-family="sans-serif" font-size="14" lengthAdjust="spacing" textLength="178" x="996.5" y="315.2471">setLabel(String label): void</text><ellipse cx="987.5" cy="330.383" fill="#84BE84" rx="3" ry="3" style="stroke:#038048;stroke-width:1.0;"/><text fill="#000000" font-family="sans-serif" font-size="14" lengthAdjust="spacing" textLength="260" x="996.5" y="334.315">getAmountPeople(int min, int max): int</text><ellipse cx="987.5" cy="349.4509" fill="#84BE84" rx="3" ry="3" style="stroke:#038048;stroke-width:1.0;"/><text fill="#000000" font-family="sans-serif" font-size="14" lengthAdjust="spacing" textLength="281" x="996.5" y="353.3829">setAmountPeople(int amountPeople): void</text><ellipse cx="987.5" cy="368.5189" fill="#84BE84" rx="3" ry="3" style="stroke:#038048;stroke-width:1.0;"/><text fill="#000000" font-family="sans-serif" font-size="14" lengthAdjust="spacing" textLength="290" x="996.5" y="372.4508">randomInt(int minimum, int maximum): int</text><ellipse cx="987.5" cy="387.5868" fill="#84BE84" rx="3" ry="3" style="stroke:#038048;stroke-width:1.0;"/><text fill="#000000" font-family="sans-serif" font-size="14" lengthAdjust="spacing" textLength="382" x="996.5" y="391.5188">getRandomTimeOnFloor(int minimum, int maximum): int</text><ellipse cx="987.5" cy="406.6547" fill="#84BE84" rx="3" ry="3" style="stroke:#038048;stroke-width:1.0;"/><text fill="#000000" font-family="sans-serif" font-size="14" lengthAdjust="spacing" textLength="145" x="996.5" y="410.5867">getRandomFloor(): int</text><ellipse cx="987.5" cy="425.7226" fill="#84BE84" rx="3" ry="3" style="stroke:#038048;stroke-width:1.0;"/><text fill="#000000" font-family="sans-serif" font-size="14" lengthAdjust="spacing" textLength="261" x="996.5" y="429.6546">getRandomFloor(int excludedFloor): int</text><ellipse cx="987.5" cy="444.7905" fill="#84BE84" rx="3" ry="3" style="stroke:#038048;stroke-width:1.0;"/><text fill="#000000" font-family="sans-serif" font-size="14" lengthAdjust="spacing" textLength="371" x="996.5" y="448.7225">getDirection(int currentFloor, int destination): Direction</text><ellipse cx="987.5" cy="463.8584" fill="#84BE84" rx="3" ry="3" style="stroke:#038048;stroke-width:1.0;"/><text fill="#000000" font-family="sans-serif" font-size="14" lengthAdjust="spacing" textLength="449" x="996.5" y="467.7904">createElevatorRequest(Floor floor, Person person): ElevatorRequest</text><ellipse cx="987.5" cy="482.9264" fill="#84BE84" rx="3" ry="3" style="stroke:#038048;stroke-width:1.0;"/><text fill="#000000" font-family="sans-serif" font-size="14" lengthAdjust="spacing" textLength="309" x="996.5" y="486.8583">Values(int amountFloors, int amountElevators)</text></g><!--class Simulation--><g id="elem_Simulation"><rect codeLine="62" fill="#F1F1F1" height="181.4754" id="Simulation" rx="2.5" ry="2.5" style="stroke:#181818;stroke-width:0.5;" width="282" x="89" y="554.9599"/><ellipse cx="189.75" cy="570.9599" fill="#ADD1B2" rx="11" ry="11" style="stroke:#181818;stroke-width:1.0;"/><path d="M189.2188,577.8818 Q187.4688,577.8818 186.3281,577.1474 Q185.2031,576.3974 184.6406,575.0536 Q184.0938,573.6943 184.0938,571.8974 Q184.0938,569.8661 184.75,568.413 Q185.4063,566.9599 186.6875,566.1786 Q187.9688,565.3974 189.8438,565.3974 Q190.7344,565.3974 191.4063,565.5849 Q192.0781,565.7568 192.7656,566.1005 L191.9531,568.1161 Q191.3281,567.8036 190.7813,567.6786 Q190.25,567.5536 189.7656,567.5536 Q188.5938,567.5536 187.8906,568.0849 Q187.1875,568.6161 186.8906,569.5693 Q186.5938,570.5224 186.5938,571.788 Q186.5938,573.8036 187.3125,574.7724 Q188.0313,575.7255 189.625,575.7255 Q190.2188,575.7255 190.8438,575.5693 Q191.4688,575.413 192.2969,575.038 L192.2969,577.2568 Q191.5625,577.5693 190.7656,577.7255 Q189.9844,577.8818 189.2188,577.8818 Z " fill="#000000"/><text fill="#000000" font-family="sans-serif" font-size="14" lengthAdjust="spacing" textLength="72" x="210.25" y="576.3919">Simulation</text><line style="stroke:#181818;stroke-width:0.5;" x1="90" x2="370" y1="586.9599" y2="586.9599"/><rect fill="none" height="6" style="stroke:#C82930;stroke-width:1.0;" width="6" x="97" y="598.9939"/><text fill="#000000" font-family="sans-serif" font-size="14" lengthAdjust="spacing" textLength="256" x="109" y="605.9258">buildingController: BuildingController</text><rect fill="none" height="6" style="stroke:#C82930;stroke-width:1.0;" width="6" x="97" y="618.0618"/><text fill="#000000" font-family="sans-serif" font-size="14" lengthAdjust="spacing" textLength="134" x="109" y="624.9938">initialValues: Values</text><rect fill="none" height="6" style="stroke:#C82930;stroke-width:1.0;" width="6" x="97" y="637.1297"/><text fill="#000000" font-family="sans-serif" font-size="14" lengthAdjust="spacing" textLength="71" x="109" y="644.0617">time: Time</text><rect fill="none" height="6" style="stroke:#C82930;stroke-width:1.0;" width="6" x="97" y="656.1976"/><text fill="#000000" font-family="sans-serif" font-size="14" lengthAdjust="spacing" textLength="122" x="109" y="663.1296">building: Building</text><line style="stroke:#181818;stroke-width:0.5;" x1="90" x2="370" y1="671.2316" y2="671.2316"/><ellipse cx="100" cy="686.2655" fill="#84BE84" rx="3" ry="3" style="stroke:#038048;stroke-width:1.0;"/><text fill="#000000" font-family="sans-serif" font-size="14" lengthAdjust="spacing" textLength="194" x="109" y="690.1975">start(boolean isTesting): void</text><ellipse cx="100" cy="705.3334" fill="#84BE84" rx="3" ry="3" style="stroke:#038048;stroke-width:1.0;"/><text fill="#000000" font-family="sans-serif" font-size="14" lengthAdjust="spacing" textLength="234" x="109" y="709.2654">simulation(boolean isTesting): void</text><ellipse cx="100" cy="724.4014" fill="#84BE84" rx="3" ry="3" style="stroke:#038048;stroke-width:1.0;"/><text fill="#000000" font-family="sans-serif" font-size="14" lengthAdjust="spacing" textLength="171" x="109" y="728.3333">Simulation(Values values)</text></g><!--class Time--><g id="elem_Time"><rect codeLine="72" fill="#F1F1F1" height="116.2717" id="Time" rx="2.5" ry="2.5" style="stroke:#181818;stroke-width:0.5;" width="408" x="406" y="587.5599"/><ellipse cx="589.25" cy="603.5599" fill="#ADD1B2" rx="11" ry="11" style="stroke:#181818;stroke-width:1.0;"/><path d="M588.7188,610.4818 Q586.9688,610.4818 585.8281,609.7474 Q584.7031,608.9974 584.1406,607.6536 Q583.5938,606.2943 583.5938,604.4974 Q583.5938,602.4661 584.25,601.013 Q584.9063,599.5599 586.1875,598.7786 Q587.4688,597.9974 589.3438,597.9974 Q590.2344,597.9974 590.9063,598.1849 Q591.5781,598.3568 592.2656,598.7005 L591.4531,600.7161 Q590.8281,600.4036 590.2813,600.2786 Q589.75,600.1536 589.2656,600.1536 Q588.0938,600.1536 587.3906,600.6849 Q586.6875,601.2161 586.3906,602.1693 Q586.0938,603.1224 586.0938,604.388 Q586.0938,606.4036 586.8125,607.3724 Q587.5313,608.3255 589.125,608.3255 Q589.7188,608.3255 590.3438,608.1693 Q590.9688,608.013 591.7969,607.638 L591.7969,609.8568 Q591.0625,610.1693 590.2656,610.3255 Q589.4844,610.4818 588.7188,610.4818 Z " fill="#000000"/><text fill="#000000" font-family="sans-serif" font-size="14" lengthAdjust="spacing" textLength="33" x="609.75" y="608.9919">Time</text><line style="stroke:#181818;stroke-width:0.5;" x1="407" x2="813" y1="619.5599" y2="619.5599"/><ellipse cx="417" cy="634.5939" fill="#84BE84" rx="3" ry="3" style="stroke:#038048;stroke-width:1.0;"/><text fill="#000000" font-family="sans-serif" font-size="14" lengthAdjust="spacing" textLength="289" x="426" y="638.5258">tick(BuildingController controller): Building</text><ellipse cx="417" cy="653.6618" fill="#84BE84" rx="3" ry="3" style="stroke:#038048;stroke-width:1.0;"/><text fill="#000000" font-family="sans-serif" font-size="14" lengthAdjust="spacing" textLength="329" x="426" y="657.5938">tickFloors(BuildingController controller): Building</text><ellipse cx="417" cy="672.7297" fill="#84BE84" rx="3" ry="3" style="stroke:#038048;stroke-width:1.0;"/><text fill="#000000" font-family="sans-serif" font-size="14" lengthAdjust="spacing" textLength="350" x="426" y="676.6617">tickElevators(BuildingController controller): Building</text><ellipse cx="417" cy="691.7976" fill="#84BE84" rx="3" ry="3" style="stroke:#038048;stroke-width:1.0;"/><text fill="#000000" font-family="sans-serif" font-size="14" lengthAdjust="spacing" textLength="382" x="426" y="695.7296">tickControlPanels(BuildingController controller): Building</text></g><!--class FloorController--><g id="elem_FloorController"><rect codeLine="79" fill="#F1F1F1" height="181.4754" id="FloorController" rx="2.5" ry="2.5" style="stroke:#181818;stroke-width:0.5;" width="370" x="849" y="554.9599"/><ellipse cx="979.75" cy="570.9599" fill="#ADD1B2" rx="11" ry="11" style="stroke:#181818;stroke-width:1.0;"/><path d="M979.2188,577.8818 Q977.4688,577.8818 976.3281,577.1474 Q975.2031,576.3974 974.6406,575.0536 Q974.0938,573.6943 974.0938,571.8974 Q974.0938,569.8661 974.75,568.413 Q975.4063,566.9599 976.6875,566.1786 Q977.9688,565.3974 979.8438,565.3974 Q980.7344,565.3974 981.4063,565.5849 Q982.0781,565.7568 982.7656,566.1005 L981.9531,568.1161 Q981.3281,567.8036 980.7813,567.6786 Q980.25,567.5536 979.7656,567.5536 Q978.5938,567.5536 977.8906,568.0849 Q977.1875,568.6161 976.8906,569.5693 Q976.5938,570.5224 976.5938,571.788 Q976.5938,573.8036 977.3125,574.7724 Q978.0313,575.7255 979.625,575.7255 Q980.2188,575.7255 980.8438,575.5693 Q981.4688,575.413 982.2969,575.038 L982.2969,577.2568 Q981.5625,577.5693 980.7656,577.7255 Q979.9844,577.8818 979.2188,577.8818 Z " fill="#000000"/><text fill="#000000" font-family="sans-serif" font-size="14" lengthAdjust="spacing" textLength="100" x="1000.25" y="576.3919">FloorController</text><line style="stroke:#181818;stroke-width:0.5;" x1="850" x2="1218" y1="586.9599" y2="586.9599"/><rect fill="none" height="6" style="stroke:#C82930;stroke-width:1.0;" width="6" x="857" y="598.9939"/><text fill="#000000" font-family="sans-serif" font-size="14" lengthAdjust="spacing" textLength="122" x="869" y="605.9258">building: Building</text><line style="stroke:#181818;stroke-width:0.5;" x1="850" x2="1218" y1="614.0278" y2="614.0278"/><ellipse cx="860" cy="629.0618" fill="#84BE84" rx="3" ry="3" style="stroke:#038048;stroke-width:1.0;"/><text fill="#000000" font-family="sans-serif" font-size="14" lengthAdjust="spacing" textLength="239" x="869" y="632.9938">update(Building building): Building</text><ellipse cx="860" cy="648.1297" fill="#84BE84" rx="3" ry="3" style="stroke:#038048;stroke-width:1.0;"/><text fill="#000000" font-family="sans-serif" font-size="14" lengthAdjust="spacing" textLength="132" x="869" y="652.0617">updateFloors(): void</text><ellipse cx="860" cy="667.1976" fill="#84BE84" rx="3" ry="3" style="stroke:#038048;stroke-width:1.0;"/><text fill="#000000" font-family="sans-serif" font-size="14" lengthAdjust="spacing" textLength="205" x="869" y="671.1296">updatePeople(Floor floor): void</text><ellipse cx="860" cy="686.2655" fill="#84BE84" rx="3" ry="3" style="stroke:#038048;stroke-width:1.0;"/><text fill="#000000" font-family="sans-serif" font-size="14" lengthAdjust="spacing" textLength="311" x="869" y="690.1975">updatePerson(Floor floor, Person person): void</text><ellipse cx="860" cy="705.3334" fill="#84BE84" rx="3" ry="3" style="stroke:#038048;stroke-width:1.0;"/><text fill="#000000" font-family="sans-serif" font-size="14" lengthAdjust="spacing" textLength="344" x="869" y="709.2654">moveToWaitingList(Floor floor, Person person): void</text><ellipse cx="860" cy="724.4014" fill="#84BE84" rx="3" ry="3" style="stroke:#038048;stroke-width:1.0;"/><text fill="#000000" font-family="sans-serif" font-size="14" lengthAdjust="spacing" textLength="323" x="869" y="728.3333">requestElevator(Floor floor, Person person): void</text></g><!--class ControlPanelController--><g id="elem_ControlPanelController"><rect codeLine="89" fill="#F1F1F1" height="230.6792" id="ControlPanelController" rx="2.5" ry="2.5" style="stroke:#181818;stroke-width:0.5;" width="494" x="22" y="796.4299"/><ellipse cx="188.25" cy="812.4299" fill="#ADD1B2" rx="11" ry="11" style="stroke:#181818;stroke-width:1.0;"/><path d="M187.7188,819.3518 Q185.9688,819.3518 184.8281,818.6174 Q183.7031,817.8674 183.1406,816.5236 Q182.5938,815.1643 182.5938,813.3674 Q182.5938,811.3361 183.25,809.883 Q183.9063,808.4299 185.1875,807.6486 Q186.4688,806.8674 188.3438,806.8674 Q189.2344,806.8674 189.9063,807.0549 Q190.5781,807.2268 191.2656,807.5705 L190.4531,809.5861 Q189.8281,809.2736 189.2813,809.1486 Q188.75,809.0236 188.2656,809.0236 Q187.0938,809.0236 186.3906,809.5549 Q185.6875,810.0861 185.3906,811.0393 Q185.0938,811.9924 185.0938,813.258 Q185.0938,815.2736 185.8125,816.2424 Q186.5313,817.1955 188.125,817.1955 Q188.7188,817.1955 189.3438,817.0393 Q189.9688,816.883 190.7969,816.508 L190.7969,818.7268 Q190.0625,819.0393 189.2656,819.1955 Q188.4844,819.3518 187.7188,819.3518 Z " fill="#000000"/><text fill="#000000" font-family="sans-serif" font-size="14" lengthAdjust="spacing" textLength="153" x="208.75" y="817.8619">ControlPanelController</text><line style="stroke:#181818;stroke-width:0.5;" x1="23" x2="515" y1="828.4299" y2="828.4299"/><ellipse cx="33" cy="843.4639" fill="#84BE84" rx="3" ry="3" style="stroke:#038048;stroke-width:1.0;"/><text fill="#000000" font-family="sans-serif" font-size="14" lengthAdjust="spacing" textLength="239" x="42" y="847.3958">update(Building building): Building</text><ellipse cx="33" cy="862.5318" fill="#84BE84" rx="3" ry="3" style="stroke:#038048;stroke-width:1.0;"/><text fill="#000000" font-family="sans-serif" font-size="14" lengthAdjust="spacing" textLength="214" x="42" y="866.4638">updateElevatorDirections(): void</text><ellipse cx="33" cy="881.5997" fill="#84BE84" rx="3" ry="3" style="stroke:#038048;stroke-width:1.0;"/><text fill="#000000" font-family="sans-serif" font-size="14" lengthAdjust="spacing" textLength="237" x="42" y="885.5317">setDirection(Elevator elevator): void</text><ellipse cx="33" cy="900.6676" fill="#84BE84" rx="3" ry="3" style="stroke:#038048;stroke-width:1.0;"/><text fill="#000000" font-family="sans-serif" font-size="14" lengthAdjust="spacing" textLength="187" x="42" y="904.5996">updateFloorRequests(): void</text><ellipse cx="33" cy="919.7355" fill="#84BE84" rx="3" ry="3" style="stroke:#038048;stroke-width:1.0;"/><text fill="#000000" font-family="sans-serif" font-size="14" lengthAdjust="spacing" textLength="362" x="42" y="923.6675">processFloorRequest(FloorRequest floorRequest): void</text><ellipse cx="33" cy="938.8034" fill="#84BE84" rx="3" ry="3" style="stroke:#038048;stroke-width:1.0;"/><text fill="#000000" font-family="sans-serif" font-size="14" lengthAdjust="spacing" textLength="356" x="42" y="942.7354">getDirection(int destination, int elevatorId): Direction</text><ellipse cx="33" cy="957.8714" fill="#84BE84" rx="3" ry="3" style="stroke:#038048;stroke-width:1.0;"/><text fill="#000000" font-family="sans-serif" font-size="14" lengthAdjust="spacing" textLength="208" x="42" y="961.8033">updateElevatorRequests(): void</text><ellipse cx="33" cy="976.9393" fill="#84BE84" rx="3" ry="3" style="stroke:#038048;stroke-width:1.0;"/><text fill="#000000" font-family="sans-serif" font-size="14" lengthAdjust="spacing" textLength="453" x="42" y="980.8713">processElevatorRequest(ElevatorRequest elevatorRequest): boolean</text><ellipse cx="33" cy="996.0072" fill="#84BE84" rx="3" ry="3" style="stroke:#038048;stroke-width:1.0;"/><text fill="#000000" font-family="sans-serif" font-size="14" lengthAdjust="spacing" textLength="358" x="42" y="999.9392">findClosestElevator(Direction direction, int origin): int</text><ellipse cx="33" cy="1015.0751" fill="#84BE84" rx="3" ry="3" style="stroke:#038048;stroke-width:1.0;"/><text fill="#000000" font-family="sans-serif" font-size="14" lengthAdjust="spacing" textLength="468" x="42" y="1019.0071">isSomeoneAvailable(ArrayList&lt;Elevator&gt; elevators, int destination): int</text></g><!--class Creation--><g id="elem_Creation"><rect codeLine="102" fill="#F1F1F1" height="200.5433" id="Creation" rx="2.5" ry="2.5" style="stroke:#181818;stroke-width:0.5;" width="450" x="551" y="811.4999"/><ellipse cx="743.25" cy="827.4999" fill="#ADD1B2" rx="11" ry="11" style="stroke:#181818;stroke-width:1.0;"/><path d="M742.7188,834.4218 Q740.9688,834.4218 739.8281,833.6874 Q738.7031,832.9374 738.1406,831.5936 Q737.5938,830.2343 737.5938,828.4374 Q737.5938,826.4061 738.25,824.953 Q738.9063,823.4999 740.1875,822.7186 Q741.4688,821.9374 743.3438,821.9374 Q744.2344,821.9374 744.9063,822.1249 Q745.5781,822.2968 746.2656,822.6405 L745.4531,824.6561 Q744.8281,824.3436 744.2813,824.2186 Q743.75,824.0936 743.2656,824.0936 Q742.0938,824.0936 741.3906,824.6249 Q740.6875,825.1561 740.3906,826.1093 Q740.0938,827.0624 740.0938,828.328 Q740.0938,830.3436 740.8125,831.3124 Q741.5313,832.2655 743.125,832.2655 Q743.7188,832.2655 744.3438,832.1093 Q744.9688,831.953 745.7969,831.578 L745.7969,833.7968 Q745.0625,834.1093 744.2656,834.2655 Q743.4844,834.4218 742.7188,834.4218 Z " fill="#000000"/><text fill="#000000" font-family="sans-serif" font-size="14" lengthAdjust="spacing" textLength="57" x="763.75" y="832.9319">Creation</text><line style="stroke:#181818;stroke-width:0.5;" x1="552" x2="1000" y1="843.4999" y2="843.4999"/><rect fill="none" height="6" style="stroke:#C82930;stroke-width:1.0;" width="6" x="559" y="855.5339"/><text fill="#000000" font-family="sans-serif" font-size="14" lengthAdjust="spacing" textLength="134" x="571" y="862.4658">initialValues: Values</text><line style="stroke:#181818;stroke-width:0.5;" x1="552" x2="1000" y1="870.5678" y2="870.5678"/><ellipse cx="562" cy="885.6018" fill="#84BE84" rx="3" ry="3" style="stroke:#038048;stroke-width:1.0;"/><text fill="#000000" font-family="sans-serif" font-size="14" lengthAdjust="spacing" textLength="172" x="571" y="889.5338">createBuilding(): Building</text><ellipse cx="562" cy="904.6697" fill="#84BE84" rx="3" ry="3" style="stroke:#038048;stroke-width:1.0;"/><text fill="#000000" font-family="sans-serif" font-size="14" lengthAdjust="spacing" textLength="265" x="571" y="908.6017">setInitialValues(Building building): void</text><ellipse cx="562" cy="923.7376" fill="#84BE84" rx="3" ry="3" style="stroke:#038048;stroke-width:1.0;"/><text fill="#000000" font-family="sans-serif" font-size="14" lengthAdjust="spacing" textLength="288" x="571" y="927.6696">addInitialElevators(Building building): void</text><ellipse cx="562" cy="942.8055" fill="#84BE84" rx="3" ry="3" style="stroke:#038048;stroke-width:1.0;"/><text fill="#000000" font-family="sans-serif" font-size="14" lengthAdjust="spacing" textLength="267" x="571" y="946.7375">addInitialFloors(Building building): void</text><ellipse cx="562" cy="961.8734" fill="#84BE84" rx="3" ry="3" style="stroke:#038048;stroke-width:1.0;"/><text fill="#000000" font-family="sans-serif" font-size="14" lengthAdjust="spacing" textLength="272" x="571" y="965.8054">addInitialPeople(Building building): void</text><ellipse cx="562" cy="980.9414" fill="#84BE84" rx="3" ry="3" style="stroke:#038048;stroke-width:1.0;"/><text fill="#000000" font-family="sans-serif" font-size="14" lengthAdjust="spacing" textLength="424" x="571" y="984.8733">createBuildingController(Building building): BuildingController</text><ellipse cx="562" cy="1000.0093" fill="#84BE84" rx="3" ry="3" style="stroke:#038048;stroke-width:1.0;"/><text fill="#000000" font-family="sans-serif" font-size="14" lengthAdjust="spacing" textLength="195" x="571" y="1003.9413">Creation(Values initialValues)</text></g><!--SRC=[hLVTJjim5BxFKrZQJIhO2rJJ92X3Ga8R0hHTc-HGh3fniPqEDF7ki-EVsB6Jja1lMlly-FFnETyvbKHIG1S4hpbkCAe1dV7dZaYePCTnkMAjv8pYcd4GQ4Mn0B4e2h4XxHOh2_IlGEhpaqaunzLcpLdNrYj66KTV_ZufDtSDsq3nLXHFHFc6PYjVKGFD0t1H55jbWjU0x2bKRLg7bJf9eFEEq9gqwq5knVhp5JrOyT8h1aAWiCEIyS5sYNuaUu718sMnzcMy4QXMPlC6jq13YrLstnkU8DBMy58kCe1FKBUjiOHPOOz8pAguAyvhXK2dDDFWbsxBHtxHwwlN7TuiZN7mPlwMgQSiXke9getpU0lF7GZPuzqnKYTURu1jAKoAdH-hvfO-KrAxBMSL2F474wbmJTcTcamn2PGwuGQsCoi3vLDqerAUjMZRVwMsM6pCgLUjKFMpv-ozxjOWHy4iHsllsAuNGz7OdJGyHo1C8JLi1mRrFVCX-k0rEMYluvj6HdlVRC1roLdpMSXidZAX4egrKQP6HVGRKuKv8ZlSA6gLXW6MYaXa8lEb7ulxPpyBhFMn4meHUoGwlhIn8cuYNrCbaL5I6gYoYzcKxD7D-ZGQsk74koblr_W1gFPo9tbC9i89ZGHHlSZwCC6mzQwFQuZAcFu7Via1J0nmi959BzpMhBbgfNDEcgxn1-X5BlotlTKzQU1NEqJYEEk968_asXMyLBIheRwqaKuCBWXNGu9Eu_w5Eyx1PfZ1KgkY8otM6ihSQuVipY6WPLUdi_KqJKQcP8BWcsGtM4O5acbRTofkj0UR7J72Bfysni10lOOac1eqIuiga4lrV4ka7_6mGKQbbyHSbW-CKS0j8kA-Z-iwpIhXht28zd3XqhBDhl_An4QZZPgu9DMcp0ndbV-PR-VQpdBGEwq7WdgdWtZoESf959FHS7ZeN7hi03IU- -RcdjcEvZHr7HqrWkX6UC_i27HDzXNefmm_KQJpG_K7Xifu6lJ4b8kl26dkW84nUAwPQTNEJQ5Q6IvCV8O9B6rGCVS6J6lepW6ygYUODmx1VgZ7JusMWG9NZ-hFpueo4QQ3nuPgzylSW76o9ctITeYuOmsm5ivscAZ-hRB-Z7FyglFoc_FwtSCHkKxaFCP9fblHcFpdkTprBvTX4t-ZL0fTXNwoMJeU- -lQsgHyTv3PY6GFih4iSe1DVE_P_uUptVB4Xzsre2ZYhXEz5Vy1]--></g></svg>