<?xml version="1.0" encoding="us-ascii" standalone="no"?><svg xmlns="http://www.w3.org/2000/svg" xmlns:xlink="http://www.w3.org/1999/xlink" contentStyleType="text/css" height="845px" preserveAspectRatio="none" style="width:2691px;height:845px;background:#FFFFFF;" version="1.1" viewBox="0 0 2691 845" width="2691px" zoomAndPan="magnify"><defs/><g><text fill="#000000" font-family="sans-serif" font-size="14" font-weight="bold" lengthAdjust="spacing" textLength="180" x="1248.99" y="24.9659">Diagrama de Arquitectura</text><!--cluster Controllers--><g id="cluster_Controllers"><path d="M1036.5,101.0679 L1114.5,101.0679 A3.75,3.75 0 0 1 1117,103.5679 L1124,126.1358 L1602.5,126.1358 A2.5,2.5 0 0 1 1605,128.6358 L1605,460.5679 A2.5,2.5 0 0 1 1602.5,463.0679 L1036.5,463.0679 A2.5,2.5 0 0 1 1034,460.5679 L1034,103.5679 A2.5,2.5 0 0 1 1036.5,101.0679 " fill="none" style="stroke:#000000;stroke-width:1.5;"/><line style="stroke:#000000;stroke-width:1.5;" x1="1034" x2="1124" y1="126.1358" y2="126.1358"/><text fill="#000000" font-family="sans-serif" font-size="14" font-weight="bold" lengthAdjust="spacing" textLength="77" x="1038" y="118.0339">Controllers</text></g><!--cluster Lists--><g id="cluster_Lists"><path d="M158.5,627.6679 L191.5,627.6679 A3.75,3.75 0 0 1 194,630.1679 L201,652.7358 L1223.5,652.7358 A2.5,2.5 0 0 1 1226,655.2358 L1226,835.7679 A2.5,2.5 0 0 1 1223.5,838.2679 L158.5,838.2679 A2.5,2.5 0 0 1 156,835.7679 L156,630.1679 A2.5,2.5 0 0 1 158.5,627.6679 " fill="none" style="stroke:#000000;stroke-width:1.5;"/><line style="stroke:#000000;stroke-width:1.5;" x1="156" x2="201" y1="652.7358" y2="652.7358"/><text fill="#000000" font-family="sans-serif" font-size="14" font-weight="bold" lengthAdjust="spacing" textLength="32" x="160" y="644.6339">Lists</text></g><!--cluster Models--><g id="cluster_Models"><path d="M1260.5,495.0679 L1311.5,495.0679 A3.75,3.75 0 0 1 1314,497.5679 L1321,520.1358 L2076.5,520.1358 A2.5,2.5 0 0 1 2079,522.6358 L2079,719.1679 A2.5,2.5 0 0 1 2076.5,721.6679 L1260.5,721.6679 A2.5,2.5 0 0 1 1258,719.1679 L1258,497.5679 A2.5,2.5 0 0 1 1260.5,495.0679 " fill="none" style="stroke:#000000;stroke-width:1.5;"/><line style="stroke:#000000;stroke-width:1.5;" x1="1258" x2="1321" y1="520.1358" y2="520.1358"/><text fill="#000000" font-family="sans-serif" font-size="14" font-weight="bold" lengthAdjust="spacing" textLength="50" x="1262" y="512.0339">Models</text></g><!--cluster Views--><g id="cluster_Views"><path d="M1752.5,193.0679 L1793.5,193.0679 A3.75,3.75 0 0 1 1796,195.5679 L1803,218.1358 L2583.5,218.1358 A2.5,2.5 0 0 1 2586,220.6358 L2586,368.5679 A2.5,2.5 0 0 1 2583.5,371.0679 L1752.5,371.0679 A2.5,2.5 0 0 1 1750,368.5679 L1750,195.5679 A2.5,2.5 0 0 1 1752.5,193.0679 " fill="none" style="stroke:#000000;stroke-width:1.5;"/><line style="stroke:#000000;stroke-width:1.5;" x1="1750" x2="1803" y1="218.1358" y2="218.1358"/><text fill="#000000" font-family="sans-serif" font-size="14" font-weight="bold" lengthAdjust="spacing" textLength="40" x="1754" y="210.0339">Views</text></g><!--cluster Enums--><g id="cluster_Enums"><path d="M8.5,595.0679 L56.5,595.0679 A3.75,3.75 0 0 1 59,597.5679 L66,620.1358 L129.5,620.1358 A2.5,2.5 0 0 1 132,622.6358 L132,743.7679 A2.5,2.5 0 0 1 129.5,746.2679 L8.5,746.2679 A2.5,2.5 0 0 1 6,743.7679 L6,597.5679 A2.5,2.5 0 0 1 8.5,595.0679 " fill="none" style="stroke:#000000;stroke-width:1.5;"/><line style="stroke:#000000;stroke-width:1.5;" x1="6" x2="66" y1="620.1358" y2="620.1358"/><text fill="#000000" font-family="sans-serif" font-size="14" font-weight="bold" lengthAdjust="spacing" textLength="47" x="10" y="612.0339">Enums</text></g><!--class BuildingController--><g id="elem_BuildingController"><rect codeLine="14" fill="#F1F1F1" height="32" id="BuildingController" rx="2.5" ry="2.5" style="stroke:#181818;stroke-width:0.5;" width="156" x="1355" y="323.0679"/><ellipse cx="1370" cy="339.0679" fill="#ADD1B2" rx="11" ry="11" style="stroke:#181818;stroke-width:1.0;"/><path d="M1369.4688,345.9898 Q1367.7188,345.9898 1366.5781,345.2554 Q1365.4531,344.5054 1364.8906,343.1617 Q1364.3438,341.8023 1364.3438,340.0054 Q1364.3438,337.9742 1365,336.521 Q1365.6563,335.0679 1366.9375,334.2867 Q1368.2188,333.5054 1370.0938,333.5054 Q1370.9844,333.5054 1371.6563,333.6929 Q1372.3281,333.8648 1373.0156,334.2085 L1372.2031,336.2242 Q1371.5781,335.9117 1371.0313,335.7867 Q1370.5,335.6617 1370.0156,335.6617 Q1368.8438,335.6617 1368.1406,336.1929 Q1367.4375,336.7242 1367.1406,337.6773 Q1366.8438,338.6304 1366.8438,339.896 Q1366.8438,341.9117 1367.5625,342.8804 Q1368.2813,343.8335 1369.875,343.8335 Q1370.4688,343.8335 1371.0938,343.6773 Q1371.7188,343.521 1372.5469,343.146 L1372.5469,345.3648 Q1371.8125,345.6773 1371.0156,345.8335 Q1370.2344,345.9898 1369.4688,345.9898 Z " fill="#000000"/><text fill="#000000" font-family="sans-serif" font-size="14" lengthAdjust="spacing" textLength="124" x="1384" y="344.4999">BuildingController</text></g><!--class ElevatorController--><g id="elem_ElevatorController"><rect codeLine="17" fill="#F1F1F1" height="32" id="ElevatorController" rx="2.5" ry="2.5" style="stroke:#181818;stroke-width:0.5;" width="153" x="1269.5" y="415.0679"/><ellipse cx="1284.5" cy="431.0679" fill="#ADD1B2" rx="11" ry="11" style="stroke:#181818;stroke-width:1.0;"/><path d="M1283.9688,437.9898 Q1282.2188,437.9898 1281.0781,437.2554 Q1279.9531,436.5054 1279.3906,435.1617 Q1278.8438,433.8023 1278.8438,432.0054 Q1278.8438,429.9742 1279.5,428.521 Q1280.1563,427.0679 1281.4375,426.2867 Q1282.7188,425.5054 1284.5938,425.5054 Q1285.4844,425.5054 1286.1563,425.6929 Q1286.8281,425.8648 1287.5156,426.2085 L1286.7031,428.2242 Q1286.0781,427.9117 1285.5313,427.7867 Q1285,427.6617 1284.5156,427.6617 Q1283.3438,427.6617 1282.6406,428.1929 Q1281.9375,428.7242 1281.6406,429.6773 Q1281.3438,430.6304 1281.3438,431.896 Q1281.3438,433.9117 1282.0625,434.8804 Q1282.7813,435.8335 1284.375,435.8335 Q1284.9688,435.8335 1285.5938,435.6773 Q1286.2188,435.521 1287.0469,435.146 L1287.0469,437.3648 Q1286.3125,437.6773 1285.5156,437.8335 Q1284.7344,437.9898 1283.9688,437.9898 Z " fill="#000000"/><text fill="#000000" font-family="sans-serif" font-size="14" lengthAdjust="spacing" textLength="121" x="1298.5" y="436.4999">ElevatorController</text></g><!--class Values--><g id="elem_Values"><rect codeLine="20" fill="#F1F1F1" height="32" id="Values" rx="2.5" ry="2.5" style="stroke:#181818;stroke-width:0.5;" width="76" x="1289" y="231.0679"/><ellipse cx="1304" cy="247.0679" fill="#ADD1B2" rx="11" ry="11" style="stroke:#181818;stroke-width:1.0;"/><path d="M1303.4688,253.9898 Q1301.7188,253.9898 1300.5781,253.2554 Q1299.4531,252.5054 1298.8906,251.1617 Q1298.3438,249.8023 1298.3438,248.0054 Q1298.3438,245.9742 1299,244.521 Q1299.6563,243.0679 1300.9375,242.2867 Q1302.2188,241.5054 1304.0938,241.5054 Q1304.9844,241.5054 1305.6563,241.6929 Q1306.3281,241.8648 1307.0156,242.2085 L1306.2031,244.2242 Q1305.5781,243.9117 1305.0313,243.7867 Q1304.5,243.6617 1304.0156,243.6617 Q1302.8438,243.6617 1302.1406,244.1929 Q1301.4375,244.7242 1301.1406,245.6773 Q1300.8438,246.6304 1300.8438,247.896 Q1300.8438,249.9117 1301.5625,250.8804 Q1302.2813,251.8335 1303.875,251.8335 Q1304.4688,251.8335 1305.0938,251.6773 Q1305.7188,251.521 1306.5469,251.146 L1306.5469,253.3648 Q1305.8125,253.6773 1305.0156,253.8335 Q1304.2344,253.9898 1303.4688,253.9898 Z " fill="#000000"/><text fill="#000000" font-family="sans-serif" font-size="14" lengthAdjust="spacing" textLength="44" x="1318" y="252.4999">Values</text></g><!--class Simulation--><g id="elem_Simulation"><rect codeLine="23" fill="#F1F1F1" height="32" id="Simulation" rx="2.5" ry="2.5" style="stroke:#181818;stroke-width:0.5;" width="104" x="1433" y="139.0679"/><ellipse cx="1448" cy="155.0679" fill="#ADD1B2" rx="11" ry="11" style="stroke:#181818;stroke-width:1.0;"/><path d="M1447.4688,161.9898 Q1445.7188,161.9898 1444.5781,161.2554 Q1443.4531,160.5054 1442.8906,159.1617 Q1442.3438,157.8023 1442.3438,156.0054 Q1442.3438,153.9742 1443,152.521 Q1443.6563,151.0679 1444.9375,150.2867 Q1446.2188,149.5054 1448.0938,149.5054 Q1448.9844,149.5054 1449.6563,149.6929 Q1450.3281,149.8648 1451.0156,150.2085 L1450.2031,152.2242 Q1449.5781,151.9117 1449.0313,151.7867 Q1448.5,151.6617 1448.0156,151.6617 Q1446.8438,151.6617 1446.1406,152.1929 Q1445.4375,152.7242 1445.1406,153.6773 Q1444.8438,154.6304 1444.8438,155.896 Q1444.8438,157.9117 1445.5625,158.8804 Q1446.2813,159.8335 1447.875,159.8335 Q1448.4688,159.8335 1449.0938,159.6773 Q1449.7188,159.521 1450.5469,159.146 L1450.5469,161.3648 Q1449.8125,161.6773 1449.0156,161.8335 Q1448.2344,161.9898 1447.4688,161.9898 Z " fill="#000000"/><text fill="#000000" font-family="sans-serif" font-size="14" lengthAdjust="spacing" textLength="72" x="1462" y="160.4999">Simulation</text></g><!--class Time--><g id="elem_Time"><rect codeLine="26" fill="#F1F1F1" height="32" id="Time" rx="2.5" ry="2.5" style="stroke:#181818;stroke-width:0.5;" width="65" x="1400.5" y="231.0679"/><ellipse cx="1415.5" cy="247.0679" fill="#ADD1B2" rx="11" ry="11" style="stroke:#181818;stroke-width:1.0;"/><path d="M1414.9688,253.9898 Q1413.2188,253.9898 1412.0781,253.2554 Q1410.9531,252.5054 1410.3906,251.1617 Q1409.8438,249.8023 1409.8438,248.0054 Q1409.8438,245.9742 1410.5,244.521 Q1411.1563,243.0679 1412.4375,242.2867 Q1413.7188,241.5054 1415.5938,241.5054 Q1416.4844,241.5054 1417.1563,241.6929 Q1417.8281,241.8648 1418.5156,242.2085 L1417.7031,244.2242 Q1417.0781,243.9117 1416.5313,243.7867 Q1416,243.6617 1415.5156,243.6617 Q1414.3438,243.6617 1413.6406,244.1929 Q1412.9375,244.7242 1412.6406,245.6773 Q1412.3438,246.6304 1412.3438,247.896 Q1412.3438,249.9117 1413.0625,250.8804 Q1413.7813,251.8335 1415.375,251.8335 Q1415.9688,251.8335 1416.5938,251.6773 Q1417.2188,251.521 1418.0469,251.146 L1418.0469,253.3648 Q1417.3125,253.6773 1416.5156,253.8335 Q1415.7344,253.9898 1414.9688,253.9898 Z " fill="#000000"/><text fill="#000000" font-family="sans-serif" font-size="14" lengthAdjust="spacing" textLength="33" x="1429.5" y="252.4999">Time</text></g><!--class FloorController--><g id="elem_FloorController"><rect codeLine="29" fill="#F1F1F1" height="32" id="FloorController" rx="2.5" ry="2.5" style="stroke:#181818;stroke-width:0.5;" width="132" x="1457" y="415.0679"/><ellipse cx="1472" cy="431.0679" fill="#ADD1B2" rx="11" ry="11" style="stroke:#181818;stroke-width:1.0;"/><path d="M1471.4688,437.9898 Q1469.7188,437.9898 1468.5781,437.2554 Q1467.4531,436.5054 1466.8906,435.1617 Q1466.3438,433.8023 1466.3438,432.0054 Q1466.3438,429.9742 1467,428.521 Q1467.6563,427.0679 1468.9375,426.2867 Q1470.2188,425.5054 1472.0938,425.5054 Q1472.9844,425.5054 1473.6563,425.6929 Q1474.3281,425.8648 1475.0156,426.2085 L1474.2031,428.2242 Q1473.5781,427.9117 1473.0313,427.7867 Q1472.5,427.6617 1472.0156,427.6617 Q1470.8438,427.6617 1470.1406,428.1929 Q1469.4375,428.7242 1469.1406,429.6773 Q1468.8438,430.6304 1468.8438,431.896 Q1468.8438,433.9117 1469.5625,434.8804 Q1470.2813,435.8335 1471.875,435.8335 Q1472.4688,435.8335 1473.0938,435.6773 Q1473.7188,435.521 1474.5469,435.146 L1474.5469,437.3648 Q1473.8125,437.6773 1473.0156,437.8335 Q1472.2344,437.9898 1471.4688,437.9898 Z " fill="#000000"/><text fill="#000000" font-family="sans-serif" font-size="14" lengthAdjust="spacing" textLength="100" x="1486" y="436.4999">FloorController</text></g><!--class ControlPanelController--><g id="elem_ControlPanelController"><rect codeLine="32" fill="#F1F1F1" height="32" id="ControlPanelController" rx="2.5" ry="2.5" style="stroke:#181818;stroke-width:0.5;" width="185" x="1049.5" y="415.0679"/><ellipse cx="1064.5" cy="431.0679" fill="#ADD1B2" rx="11" ry="11" style="stroke:#181818;stroke-width:1.0;"/><path d="M1063.9688,437.9898 Q1062.2188,437.9898 1061.0781,437.2554 Q1059.9531,436.5054 1059.3906,435.1617 Q1058.8438,433.8023 1058.8438,432.0054 Q1058.8438,429.9742 1059.5,428.521 Q1060.1563,427.0679 1061.4375,426.2867 Q1062.7188,425.5054 1064.5938,425.5054 Q1065.4844,425.5054 1066.1563,425.6929 Q1066.8281,425.8648 1067.5156,426.2085 L1066.7031,428.2242 Q1066.0781,427.9117 1065.5313,427.7867 Q1065,427.6617 1064.5156,427.6617 Q1063.3438,427.6617 1062.6406,428.1929 Q1061.9375,428.7242 1061.6406,429.6773 Q1061.3438,430.6304 1061.3438,431.896 Q1061.3438,433.9117 1062.0625,434.8804 Q1062.7813,435.8335 1064.375,435.8335 Q1064.9688,435.8335 1065.5938,435.6773 Q1066.2188,435.521 1067.0469,435.146 L1067.0469,437.3648 Q1066.3125,437.6773 1065.5156,437.8335 Q1064.7344,437.9898 1063.9688,437.9898 Z " fill="#000000"/><text fill="#000000" font-family="sans-serif" font-size="14" lengthAdjust="spacing" textLength="153" x="1078.5" y="436.4999">ControlPanelController</text></g><!--class Creation--><g id="elem_Creation"><rect codeLine="35" fill="#F1F1F1" height="32" id="Creation" rx="2.5" ry="2.5" style="stroke:#181818;stroke-width:0.5;" width="89" x="1500.5" y="231.0679"/><ellipse cx="1515.5" cy="247.0679" fill="#ADD1B2" rx="11" ry="11" style="stroke:#181818;stroke-width:1.0;"/><path d="M1514.9688,253.9898 Q1513.2188,253.9898 1512.0781,253.2554 Q1510.9531,252.5054 1510.3906,251.1617 Q1509.8438,249.8023 1509.8438,248.0054 Q1509.8438,245.9742 1510.5,244.521 Q1511.1563,243.0679 1512.4375,242.2867 Q1513.7188,241.5054 1515.5938,241.5054 Q1516.4844,241.5054 1517.1563,241.6929 Q1517.8281,241.8648 1518.5156,242.2085 L1517.7031,244.2242 Q1517.0781,243.9117 1516.5313,243.7867 Q1516,243.6617 1515.5156,243.6617 Q1514.3438,243.6617 1513.6406,244.1929 Q1512.9375,244.7242 1512.6406,245.6773 Q1512.3438,246.6304 1512.3438,247.896 Q1512.3438,249.9117 1513.0625,250.8804 Q1513.7813,251.8335 1515.375,251.8335 Q1515.9688,251.8335 1516.5938,251.6773 Q1517.2188,251.521 1518.0469,251.146 L1518.0469,253.3648 Q1517.3125,253.6773 1516.5156,253.8335 Q1515.7344,253.9898 1514.9688,253.9898 Z " fill="#000000"/><text fill="#000000" font-family="sans-serif" font-size="14" lengthAdjust="spacing" textLength="57" x="1529.5" y="252.4999">Creation</text></g><!--class Counters--><g id="elem_Counters"><rect codeLine="39" fill="#F1F1F1" height="32" id="Counters" rx="2.5" ry="2.5" style="stroke:#181818;stroke-width:0.5;" width="93" x="549.5" y="665.6679"/><ellipse cx="564.5" cy="681.6679" fill="#ADD1B2" rx="11" ry="11" style="stroke:#181818;stroke-width:1.0;"/><path d="M563.9688,688.5898 Q562.2188,688.5898 561.0781,687.8554 Q559.9531,687.1054 559.3906,685.7617 Q558.8438,684.4023 558.8438,682.6054 Q558.8438,680.5742 559.5,679.121 Q560.1563,677.6679 561.4375,676.8867 Q562.7188,676.1054 564.5938,676.1054 Q565.4844,676.1054 566.1563,676.2929 Q566.8281,676.4648 567.5156,676.8085 L566.7031,678.8242 Q566.0781,678.5117 565.5313,678.3867 Q565,678.2617 564.5156,678.2617 Q563.3438,678.2617 562.6406,678.7929 Q561.9375,679.3242 561.6406,680.2773 Q561.3438,681.2304 561.3438,682.496 Q561.3438,684.5117 562.0625,685.4804 Q562.7813,686.4335 564.375,686.4335 Q564.9688,686.4335 565.5938,686.2773 Q566.2188,686.121 567.0469,685.746 L567.0469,687.9648 Q566.3125,688.2773 565.5156,688.4335 Q564.7344,688.5898 563.9688,688.5898 Z " fill="#000000"/><text fill="#000000" font-family="sans-serif" font-size="14" lengthAdjust="spacing" textLength="61" x="578.5" y="687.0999">Counters</text></g><!--class ElevatorList--><g id="elem_ElevatorList"><rect codeLine="42" fill="#F1F1F1" height="32" id="ElevatorList" rx="2.5" ry="2.5" style="stroke:#181818;stroke-width:0.5;" width="109" x="677.5" y="665.6679"/><ellipse cx="692.5" cy="681.6679" fill="#ADD1B2" rx="11" ry="11" style="stroke:#181818;stroke-width:1.0;"/><path d="M691.9688,688.5898 Q690.2188,688.5898 689.0781,687.8554 Q687.9531,687.1054 687.3906,685.7617 Q686.8438,684.4023 686.8438,682.6054 Q686.8438,680.5742 687.5,679.121 Q688.1563,677.6679 689.4375,676.8867 Q690.7188,676.1054 692.5938,676.1054 Q693.4844,676.1054 694.1563,676.2929 Q694.8281,676.4648 695.5156,676.8085 L694.7031,678.8242 Q694.0781,678.5117 693.5313,678.3867 Q693,678.2617 692.5156,678.2617 Q691.3438,678.2617 690.6406,678.7929 Q689.9375,679.3242 689.6406,680.2773 Q689.3438,681.2304 689.3438,682.496 Q689.3438,684.5117 690.0625,685.4804 Q690.7813,686.4335 692.375,686.4335 Q692.9688,686.4335 693.5938,686.2773 Q694.2188,686.121 695.0469,685.746 L695.0469,687.9648 Q694.3125,688.2773 693.5156,688.4335 Q692.7344,688.5898 691.9688,688.5898 Z " fill="#000000"/><text fill="#000000" font-family="sans-serif" font-size="14" lengthAdjust="spacing" textLength="77" x="706.5" y="687.0999">ElevatorList</text></g><!--class ElevatorRequestList--><g id="elem_ElevatorRequestList"><rect codeLine="45" fill="#F1F1F1" height="32" id="ElevatorRequestList" rx="2.5" ry="2.5" style="stroke:#181818;stroke-width:0.5;" width="164" x="172" y="665.6679"/><ellipse cx="187" cy="681.6679" fill="#ADD1B2" rx="11" ry="11" style="stroke:#181818;stroke-width:1.0;"/><path d="M186.4688,688.5898 Q184.7188,688.5898 183.5781,687.8554 Q182.4531,687.1054 181.8906,685.7617 Q181.3438,684.4023 181.3438,682.6054 Q181.3438,680.5742 182,679.121 Q182.6563,677.6679 183.9375,676.8867 Q185.2188,676.1054 187.0938,676.1054 Q187.9844,676.1054 188.6563,676.2929 Q189.3281,676.4648 190.0156,676.8085 L189.2031,678.8242 Q188.5781,678.5117 188.0313,678.3867 Q187.5,678.2617 187.0156,678.2617 Q185.8438,678.2617 185.1406,678.7929 Q184.4375,679.3242 184.1406,680.2773 Q183.8438,681.2304 183.8438,682.496 Q183.8438,684.5117 184.5625,685.4804 Q185.2813,686.4335 186.875,686.4335 Q187.4688,686.4335 188.0938,686.2773 Q188.7188,686.121 189.5469,685.746 L189.5469,687.9648 Q188.8125,688.2773 188.0156,688.4335 Q187.2344,688.5898 186.4688,688.5898 Z " fill="#000000"/><text fill="#000000" font-family="sans-serif" font-size="14" lengthAdjust="spacing" textLength="132" x="201" y="687.0999">ElevatorRequestList</text></g><!--class FloorList--><g id="elem_FloorList"><rect codeLine="48" fill="#F1F1F1" height="32" id="FloorList" rx="2.5" ry="2.5" style="stroke:#181818;stroke-width:0.5;" width="88" x="821" y="665.6679"/><ellipse cx="836" cy="681.6679" fill="#ADD1B2" rx="11" ry="11" style="stroke:#181818;stroke-width:1.0;"/><path d="M835.4688,688.5898 Q833.7188,688.5898 832.5781,687.8554 Q831.4531,687.1054 830.8906,685.7617 Q830.3438,684.4023 830.3438,682.6054 Q830.3438,680.5742 831,679.121 Q831.6563,677.6679 832.9375,676.8867 Q834.2188,676.1054 836.0938,676.1054 Q836.9844,676.1054 837.6563,676.2929 Q838.3281,676.4648 839.0156,676.8085 L838.2031,678.8242 Q837.5781,678.5117 837.0313,678.3867 Q836.5,678.2617 836.0156,678.2617 Q834.8438,678.2617 834.1406,678.7929 Q833.4375,679.3242 833.1406,680.2773 Q832.8438,681.2304 832.8438,682.496 Q832.8438,684.5117 833.5625,685.4804 Q834.2813,686.4335 835.875,686.4335 Q836.4688,686.4335 837.0938,686.2773 Q837.7188,686.121 838.5469,685.746 L838.5469,687.9648 Q837.8125,688.2773 837.0156,688.4335 Q836.2344,688.5898 835.4688,688.5898 Z " fill="#000000"/><text fill="#000000" font-family="sans-serif" font-size="14" lengthAdjust="spacing" textLength="56" x="850" y="687.0999">FloorList</text></g><!--class FloorRequestList--><g id="elem_FloorRequestList"><rect codeLine="51" fill="#F1F1F1" height="32" id="FloorRequestList" rx="2.5" ry="2.5" style="stroke:#181818;stroke-width:0.5;" width="143" x="371.5" y="665.6679"/><ellipse cx="386.5" cy="681.6679" fill="#ADD1B2" rx="11" ry="11" style="stroke:#181818;stroke-width:1.0;"/><path d="M385.9688,688.5898 Q384.2188,688.5898 383.0781,687.8554 Q381.9531,687.1054 381.3906,685.7617 Q380.8438,684.4023 380.8438,682.6054 Q380.8438,680.5742 381.5,679.121 Q382.1563,677.6679 383.4375,676.8867 Q384.7188,676.1054 386.5938,676.1054 Q387.4844,676.1054 388.1563,676.2929 Q388.8281,676.4648 389.5156,676.8085 L388.7031,678.8242 Q388.0781,678.5117 387.5313,678.3867 Q387,678.2617 386.5156,678.2617 Q385.3438,678.2617 384.6406,678.7929 Q383.9375,679.3242 383.6406,680.2773 Q383.3438,681.2304 383.3438,682.496 Q383.3438,684.5117 384.0625,685.4804 Q384.7813,686.4335 386.375,686.4335 Q386.9688,686.4335 387.5938,686.2773 Q388.2188,686.121 389.0469,685.746 L389.0469,687.9648 Q388.3125,688.2773 387.5156,688.4335 Q386.7344,688.5898 385.9688,688.5898 Z " fill="#000000"/><text fill="#000000" font-family="sans-serif" font-size="14" lengthAdjust="spacing" textLength="111" x="400.5" y="687.0999">FloorRequestList</text></g><!--class FloorsToGoList--><g id="elem_FloorsToGoList"><rect codeLine="54" fill="#F1F1F1" height="32" id="FloorsToGoList" rx="2.5" ry="2.5" style="stroke:#181818;stroke-width:0.5;" width="129" x="944.5" y="665.6679"/><ellipse cx="959.5" cy="681.6679" fill="#ADD1B2" rx="11" ry="11" style="stroke:#181818;stroke-width:1.0;"/><path d="M958.9688,688.5898 Q957.2188,688.5898 956.0781,687.8554 Q954.9531,687.1054 954.3906,685.7617 Q953.8438,684.4023 953.8438,682.6054 Q953.8438,680.5742 954.5,679.121 Q955.1563,677.6679 956.4375,676.8867 Q957.7188,676.1054 959.5938,676.1054 Q960.4844,676.1054 961.1563,676.2929 Q961.8281,676.4648 962.5156,676.8085 L961.7031,678.8242 Q961.0781,678.5117 960.5313,678.3867 Q960,678.2617 959.5156,678.2617 Q958.3438,678.2617 957.6406,678.7929 Q956.9375,679.3242 956.6406,680.2773 Q956.3438,681.2304 956.3438,682.496 Q956.3438,684.5117 957.0625,685.4804 Q957.7813,686.4335 959.375,686.4335 Q959.9688,686.4335 960.5938,686.2773 Q961.2188,686.121 962.0469,685.746 L962.0469,687.9648 Q961.3125,688.2773 960.5156,688.4335 Q959.7344,688.5898 958.9688,688.5898 Z " fill="#000000"/><text fill="#000000" font-family="sans-serif" font-size="14" lengthAdjust="spacing" textLength="97" x="973.5" y="687.0999">FloorsToGoList</text></g><!--class ModelList--><g id="elem_ModelList"><rect codeLine="57" fill="#F1F1F1" height="32" id="ModelList" rx="2.5" ry="2.5" style="stroke:#181818;stroke-width:0.5;" width="107" x="811.5" y="790.2679"/><ellipse cx="826.5" cy="806.2679" fill="#ADD1B2" rx="11" ry="11" style="stroke:#181818;stroke-width:1.0;"/><path d="M825.9688,813.1898 Q824.2188,813.1898 823.0781,812.4554 Q821.9531,811.7054 821.3906,810.3617 Q820.8438,809.0023 820.8438,807.2054 Q820.8438,805.1742 821.5,803.721 Q822.1563,802.2679 823.4375,801.4867 Q824.7188,800.7054 826.5938,800.7054 Q827.4844,800.7054 828.1563,800.8929 Q828.8281,801.0648 829.5156,801.4085 L828.7031,803.4242 Q828.0781,803.1117 827.5313,802.9867 Q827,802.8617 826.5156,802.8617 Q825.3438,802.8617 824.6406,803.3929 Q823.9375,803.9242 823.6406,804.8773 Q823.3438,805.8304 823.3438,807.096 Q823.3438,809.1117 824.0625,810.0804 Q824.7813,811.0335 826.375,811.0335 Q826.9688,811.0335 827.5938,810.8773 Q828.2188,810.721 829.0469,810.346 L829.0469,812.5648 Q828.3125,812.8773 827.5156,813.0335 Q826.7344,813.1898 825.9688,813.1898 Z " fill="#000000"/><text fill="#000000" font-family="sans-serif" font-size="14" lengthAdjust="spacing" textLength="65" x="840.5" y="811.6999">ModelList</text><rect fill="#FFFFFF" height="18.3441" style="stroke:#181818;stroke-width:1.0;stroke-dasharray:2.0,2.0;" width="8" x="913.5" y="787.2679"/><text fill="#000000" font-family="sans-serif" font-size="12" font-style="italic" lengthAdjust="spacing" textLength="6" x="914.5" y="801.096">T</text></g><!--class PersonList--><g id="elem_PersonList"><rect codeLine="60" fill="#F1F1F1" height="32" id="PersonList" rx="2.5" ry="2.5" style="stroke:#181818;stroke-width:0.5;" width="101" x="1108.5" y="665.6679"/><ellipse cx="1123.5" cy="681.6679" fill="#ADD1B2" rx="11" ry="11" style="stroke:#181818;stroke-width:1.0;"/><path d="M1122.9688,688.5898 Q1121.2188,688.5898 1120.0781,687.8554 Q1118.9531,687.1054 1118.3906,685.7617 Q1117.8438,684.4023 1117.8438,682.6054 Q1117.8438,680.5742 1118.5,679.121 Q1119.1563,677.6679 1120.4375,676.8867 Q1121.7188,676.1054 1123.5938,676.1054 Q1124.4844,676.1054 1125.1563,676.2929 Q1125.8281,676.4648 1126.5156,676.8085 L1125.7031,678.8242 Q1125.0781,678.5117 1124.5313,678.3867 Q1124,678.2617 1123.5156,678.2617 Q1122.3438,678.2617 1121.6406,678.7929 Q1120.9375,679.3242 1120.6406,680.2773 Q1120.3438,681.2304 1120.3438,682.496 Q1120.3438,684.5117 1121.0625,685.4804 Q1121.7813,686.4335 1123.375,686.4335 Q1123.9688,686.4335 1124.5938,686.2773 Q1125.2188,686.121 1126.0469,685.746 L1126.0469,687.9648 Q1125.3125,688.2773 1124.5156,688.4335 Q1123.7344,688.5898 1122.9688,688.5898 Z " fill="#000000"/><text fill="#000000" font-family="sans-serif" font-size="14" lengthAdjust="spacing" textLength="69" x="1137.5" y="687.0999">PersonList</text></g><!--class Building--><g id="elem_Building"><rect codeLine="65" fill="#F1F1F1" height="32" id="Building" rx="2.5" ry="2.5" style="stroke:#181818;stroke-width:0.5;" width="89" x="1633.5" y="541.0679"/><ellipse cx="1648.5" cy="557.0679" fill="#ADD1B2" rx="11" ry="11" style="stroke:#181818;stroke-width:1.0;"/><path d="M1647.9688,563.9898 Q1646.2188,563.9898 1645.0781,563.2554 Q1643.9531,562.5054 1643.3906,561.1617 Q1642.8438,559.8023 1642.8438,558.0054 Q1642.8438,555.9742 1643.5,554.521 Q1644.1563,553.0679 1645.4375,552.2867 Q1646.7188,551.5054 1648.5938,551.5054 Q1649.4844,551.5054 1650.1563,551.6929 Q1650.8281,551.8648 1651.5156,552.2085 L1650.7031,554.2242 Q1650.0781,553.9117 1649.5313,553.7867 Q1649,553.6617 1648.5156,553.6617 Q1647.3438,553.6617 1646.6406,554.1929 Q1645.9375,554.7242 1645.6406,555.6773 Q1645.3438,556.6304 1645.3438,557.896 Q1645.3438,559.9117 1646.0625,560.8804 Q1646.7813,561.8335 1648.375,561.8335 Q1648.9688,561.8335 1649.5938,561.6773 Q1650.2188,561.521 1651.0469,561.146 L1651.0469,563.3648 Q1650.3125,563.6773 1649.5156,563.8335 Q1648.7344,563.9898 1647.9688,563.9898 Z " fill="#000000"/><text fill="#000000" font-family="sans-serif" font-size="14" lengthAdjust="spacing" textLength="57" x="1662.5" y="562.4999">Building</text></g><!--class ControlPanel--><g id="elem_ControlPanel"><rect codeLine="68" fill="#F1F1F1" height="32" id="ControlPanel" rx="2.5" ry="2.5" style="stroke:#181818;stroke-width:0.5;" width="118" x="1302" y="665.6679"/><ellipse cx="1317" cy="681.6679" fill="#ADD1B2" rx="11" ry="11" style="stroke:#181818;stroke-width:1.0;"/><path d="M1316.4688,688.5898 Q1314.7188,688.5898 1313.5781,687.8554 Q1312.4531,687.1054 1311.8906,685.7617 Q1311.3438,684.4023 1311.3438,682.6054 Q1311.3438,680.5742 1312,679.121 Q1312.6563,677.6679 1313.9375,676.8867 Q1315.2188,676.1054 1317.0938,676.1054 Q1317.9844,676.1054 1318.6563,676.2929 Q1319.3281,676.4648 1320.0156,676.8085 L1319.2031,678.8242 Q1318.5781,678.5117 1318.0313,678.3867 Q1317.5,678.2617 1317.0156,678.2617 Q1315.8438,678.2617 1315.1406,678.7929 Q1314.4375,679.3242 1314.1406,680.2773 Q1313.8438,681.2304 1313.8438,682.496 Q1313.8438,684.5117 1314.5625,685.4804 Q1315.2813,686.4335 1316.875,686.4335 Q1317.4688,686.4335 1318.0938,686.2773 Q1318.7188,686.121 1319.5469,685.746 L1319.5469,687.9648 Q1318.8125,688.2773 1318.0156,688.4335 Q1317.2344,688.5898 1316.4688,688.5898 Z " fill="#000000"/><text fill="#000000" font-family="sans-serif" font-size="14" lengthAdjust="spacing" textLength="86" x="1331" y="687.0999">ControlPanel</text></g><!--class Elevator--><g id="elem_Elevator"><rect codeLine="71" fill="#F1F1F1" height="32" id="Elevator" rx="2.5" ry="2.5" style="stroke:#181818;stroke-width:0.5;" width="86" x="1757" y="541.0679"/><ellipse cx="1772" cy="557.0679" fill="#ADD1B2" rx="11" ry="11" style="stroke:#181818;stroke-width:1.0;"/><path d="M1771.4688,563.9898 Q1769.7188,563.9898 1768.5781,563.2554 Q1767.4531,562.5054 1766.8906,561.1617 Q1766.3438,559.8023 1766.3438,558.0054 Q1766.3438,555.9742 1767,554.521 Q1767.6563,553.0679 1768.9375,552.2867 Q1770.2188,551.5054 1772.0938,551.5054 Q1772.9844,551.5054 1773.6563,551.6929 Q1774.3281,551.8648 1775.0156,552.2085 L1774.2031,554.2242 Q1773.5781,553.9117 1773.0313,553.7867 Q1772.5,553.6617 1772.0156,553.6617 Q1770.8438,553.6617 1770.1406,554.1929 Q1769.4375,554.7242 1769.1406,555.6773 Q1768.8438,556.6304 1768.8438,557.896 Q1768.8438,559.9117 1769.5625,560.8804 Q1770.2813,561.8335 1771.875,561.8335 Q1772.4688,561.8335 1773.0938,561.6773 Q1773.7188,561.521 1774.5469,561.146 L1774.5469,563.3648 Q1773.8125,563.6773 1773.0156,563.8335 Q1772.2344,563.9898 1771.4688,563.9898 Z " fill="#000000"/><text fill="#000000" font-family="sans-serif" font-size="14" lengthAdjust="spacing" textLength="54" x="1786" y="562.4999">Elevator</text></g><!--class ElevatorRequest--><g id="elem_ElevatorRequest"><rect codeLine="74" fill="#F1F1F1" height="32" id="ElevatorRequest" rx="2.5" ry="2.5" style="stroke:#181818;stroke-width:0.5;" width="141" x="1301.5" y="541.0679"/><ellipse cx="1316.5" cy="557.0679" fill="#ADD1B2" rx="11" ry="11" style="stroke:#181818;stroke-width:1.0;"/><path d="M1315.9688,563.9898 Q1314.2188,563.9898 1313.0781,563.2554 Q1311.9531,562.5054 1311.3906,561.1617 Q1310.8438,559.8023 1310.8438,558.0054 Q1310.8438,555.9742 1311.5,554.521 Q1312.1563,553.0679 1313.4375,552.2867 Q1314.7188,551.5054 1316.5938,551.5054 Q1317.4844,551.5054 1318.1563,551.6929 Q1318.8281,551.8648 1319.5156,552.2085 L1318.7031,554.2242 Q1318.0781,553.9117 1317.5313,553.7867 Q1317,553.6617 1316.5156,553.6617 Q1315.3438,553.6617 1314.6406,554.1929 Q1313.9375,554.7242 1313.6406,555.6773 Q1313.3438,556.6304 1313.3438,557.896 Q1313.3438,559.9117 1314.0625,560.8804 Q1314.7813,561.8335 1316.375,561.8335 Q1316.9688,561.8335 1317.5938,561.6773 Q1318.2188,561.521 1319.0469,561.146 L1319.0469,563.3648 Q1318.3125,563.6773 1317.5156,563.8335 Q1316.7344,563.9898 1315.9688,563.9898 Z " fill="#000000"/><text fill="#000000" font-family="sans-serif" font-size="14" lengthAdjust="spacing" textLength="109" x="1330.5" y="562.4999">ElevatorRequest</text></g><!--class Floor--><g id="elem_Floor"><rect codeLine="77" fill="#F1F1F1" height="32" id="Floor" rx="2.5" ry="2.5" style="stroke:#181818;stroke-width:0.5;" width="65" x="1877.5" y="541.0679"/><ellipse cx="1892.5" cy="557.0679" fill="#ADD1B2" rx="11" ry="11" style="stroke:#181818;stroke-width:1.0;"/><path d="M1891.9688,563.9898 Q1890.2188,563.9898 1889.0781,563.2554 Q1887.9531,562.5054 1887.3906,561.1617 Q1886.8438,559.8023 1886.8438,558.0054 Q1886.8438,555.9742 1887.5,554.521 Q1888.1563,553.0679 1889.4375,552.2867 Q1890.7188,551.5054 1892.5938,551.5054 Q1893.4844,551.5054 1894.1563,551.6929 Q1894.8281,551.8648 1895.5156,552.2085 L1894.7031,554.2242 Q1894.0781,553.9117 1893.5313,553.7867 Q1893,553.6617 1892.5156,553.6617 Q1891.3438,553.6617 1890.6406,554.1929 Q1889.9375,554.7242 1889.6406,555.6773 Q1889.3438,556.6304 1889.3438,557.896 Q1889.3438,559.9117 1890.0625,560.8804 Q1890.7813,561.8335 1892.375,561.8335 Q1892.9688,561.8335 1893.5938,561.6773 Q1894.2188,561.521 1895.0469,561.146 L1895.0469,563.3648 Q1894.3125,563.6773 1893.5156,563.8335 Q1892.7344,563.9898 1891.9688,563.9898 Z " fill="#000000"/><text fill="#000000" font-family="sans-serif" font-size="14" lengthAdjust="spacing" textLength="33" x="1906.5" y="562.4999">Floor</text></g><!--class FloorRequest--><g id="elem_FloorRequest"><rect codeLine="80" fill="#F1F1F1" height="32" id="FloorRequest" rx="2.5" ry="2.5" style="stroke:#181818;stroke-width:0.5;" width="120" x="1478" y="541.0679"/><ellipse cx="1493" cy="557.0679" fill="#ADD1B2" rx="11" ry="11" style="stroke:#181818;stroke-width:1.0;"/><path d="M1492.4688,563.9898 Q1490.7188,563.9898 1489.5781,563.2554 Q1488.4531,562.5054 1487.8906,561.1617 Q1487.3438,559.8023 1487.3438,558.0054 Q1487.3438,555.9742 1488,554.521 Q1488.6563,553.0679 1489.9375,552.2867 Q1491.2188,551.5054 1493.0938,551.5054 Q1493.9844,551.5054 1494.6563,551.6929 Q1495.3281,551.8648 1496.0156,552.2085 L1495.2031,554.2242 Q1494.5781,553.9117 1494.0313,553.7867 Q1493.5,553.6617 1493.0156,553.6617 Q1491.8438,553.6617 1491.1406,554.1929 Q1490.4375,554.7242 1490.1406,555.6773 Q1489.8438,556.6304 1489.8438,557.896 Q1489.8438,559.9117 1490.5625,560.8804 Q1491.2813,561.8335 1492.875,561.8335 Q1493.4688,561.8335 1494.0938,561.6773 Q1494.7188,561.521 1495.5469,561.146 L1495.5469,563.3648 Q1494.8125,563.6773 1494.0156,563.8335 Q1493.2344,563.9898 1492.4688,563.9898 Z " fill="#000000"/><text fill="#000000" font-family="sans-serif" font-size="14" lengthAdjust="spacing" textLength="88" x="1507" y="562.4999">FloorRequest</text></g><!--class Person--><g id="elem_Person"><rect codeLine="83" fill="#F1F1F1" height="32" id="Person" rx="2.5" ry="2.5" style="stroke:#181818;stroke-width:0.5;" width="78" x="1977" y="541.0679"/><ellipse cx="1992" cy="557.0679" fill="#ADD1B2" rx="11" ry="11" style="stroke:#181818;stroke-width:1.0;"/><path d="M1991.4688,563.9898 Q1989.7188,563.9898 1988.5781,563.2554 Q1987.4531,562.5054 1986.8906,561.1617 Q1986.3438,559.8023 1986.3438,558.0054 Q1986.3438,555.9742 1987,554.521 Q1987.6563,553.0679 1988.9375,552.2867 Q1990.2188,551.5054 1992.0938,551.5054 Q1992.9844,551.5054 1993.6563,551.6929 Q1994.3281,551.8648 1995.0156,552.2085 L1994.2031,554.2242 Q1993.5781,553.9117 1993.0313,553.7867 Q1992.5,553.6617 1992.0156,553.6617 Q1990.8438,553.6617 1990.1406,554.1929 Q1989.4375,554.7242 1989.1406,555.6773 Q1988.8438,556.6304 1988.8438,557.896 Q1988.8438,559.9117 1989.5625,560.8804 Q1990.2813,561.8335 1991.875,561.8335 Q1992.4688,561.8335 1993.0938,561.6773 Q1993.7188,561.521 1994.5469,561.146 L1994.5469,563.3648 Q1993.8125,563.6773 1993.0156,563.8335 Q1992.2344,563.9898 1991.4688,563.9898 Z " fill="#000000"/><text fill="#000000" font-family="sans-serif" font-size="14" lengthAdjust="spacing" textLength="46" x="2006" y="562.4999">Person</text></g><!--class IModel--><g id="elem_IModel"><rect codeLine="86" fill="#F1F1F1" height="32" id="IModel" rx="2.5" ry="2.5" style="stroke:#181818;stroke-width:0.5;" width="76" x="1872" y="665.6679"/><ellipse cx="1887" cy="681.6679" fill="#B4A7E5" rx="11" ry="11" style="stroke:#181818;stroke-width:1.0;"/><path d="M1883.0313,688.1679 L1883.0313,686.4648 L1885.3906,686.1992 L1885.3906,677.996 L1883.0313,677.7304 L1883.0313,676.0273 L1890.1719,676.0273 L1890.1719,677.7304 L1887.75,677.996 L1887.75,686.1992 L1890.1719,686.4648 L1890.1719,688.1679 L1883.0313,688.1679 Z " fill="#000000"/><text fill="#000000" font-family="sans-serif" font-size="14" font-style="italic" lengthAdjust="spacing" textLength="44" x="1901" y="687.0999">IModel</text></g><!--class BuildingView--><g id="elem_BuildingView"><rect codeLine="92" fill="#F1F1F1" height="32" id="BuildingView" rx="2.5" ry="2.5" style="stroke:#181818;stroke-width:0.5;" width="120" x="2126" y="231.0679"/><ellipse cx="2141" cy="247.0679" fill="#ADD1B2" rx="11" ry="11" style="stroke:#181818;stroke-width:1.0;"/><path d="M2140.4688,253.9898 Q2138.7188,253.9898 2137.5781,253.2554 Q2136.4531,252.5054 2135.8906,251.1617 Q2135.3438,249.8023 2135.3438,248.0054 Q2135.3438,245.9742 2136,244.521 Q2136.6563,243.0679 2137.9375,242.2867 Q2139.2188,241.5054 2141.0938,241.5054 Q2141.9844,241.5054 2142.6563,241.6929 Q2143.3281,241.8648 2144.0156,242.2085 L2143.2031,244.2242 Q2142.5781,243.9117 2142.0313,243.7867 Q2141.5,243.6617 2141.0156,243.6617 Q2139.8438,243.6617 2139.1406,244.1929 Q2138.4375,244.7242 2138.1406,245.6773 Q2137.8438,246.6304 2137.8438,247.896 Q2137.8438,249.9117 2138.5625,250.8804 Q2139.2813,251.8335 2140.875,251.8335 Q2141.4688,251.8335 2142.0938,251.6773 Q2142.7188,251.521 2143.5469,251.146 L2143.5469,253.3648 Q2142.8125,253.6773 2142.0156,253.8335 Q2141.2344,253.9898 2140.4688,253.9898 Z " fill="#000000"/><text fill="#000000" font-family="sans-serif" font-size="14" lengthAdjust="spacing" textLength="88" x="2155" y="252.4999">BuildingView</text></g><!--class DebuggerView--><g id="elem_DebuggerView"><rect codeLine="95" fill="#F1F1F1" height="32" id="DebuggerView" rx="2.5" ry="2.5" style="stroke:#181818;stroke-width:0.5;" width="131" x="1961.5" y="323.0679"/><ellipse cx="1976.5" cy="339.0679" fill="#ADD1B2" rx="11" ry="11" style="stroke:#181818;stroke-width:1.0;"/><path d="M1975.9688,345.9898 Q1974.2188,345.9898 1973.0781,345.2554 Q1971.9531,344.5054 1971.3906,343.1617 Q1970.8438,341.8023 1970.8438,340.0054 Q1970.8438,337.9742 1971.5,336.521 Q1972.1563,335.0679 1973.4375,334.2867 Q1974.7188,333.5054 1976.5938,333.5054 Q1977.4844,333.5054 1978.1563,333.6929 Q1978.8281,333.8648 1979.5156,334.2085 L1978.7031,336.2242 Q1978.0781,335.9117 1977.5313,335.7867 Q1977,335.6617 1976.5156,335.6617 Q1975.3438,335.6617 1974.6406,336.1929 Q1973.9375,336.7242 1973.6406,337.6773 Q1973.3438,338.6304 1973.3438,339.896 Q1973.3438,341.9117 1974.0625,342.8804 Q1974.7813,343.8335 1976.375,343.8335 Q1976.9688,343.8335 1977.5938,343.6773 Q1978.2188,343.521 1979.0469,343.146 L1979.0469,345.3648 Q1978.3125,345.6773 1977.5156,345.8335 Q1976.7344,345.9898 1975.9688,345.9898 Z " fill="#000000"/><text fill="#000000" font-family="sans-serif" font-size="14" lengthAdjust="spacing" textLength="99" x="1990.5" y="344.4999">DebuggerView</text></g><!--class ElevatorView--><g id="elem_ElevatorView"><rect codeLine="98" fill="#F1F1F1" height="32" id="ElevatorView" rx="2.5" ry="2.5" style="stroke:#181818;stroke-width:0.5;" width="117" x="2127.5" y="323.0679"/><ellipse cx="2142.5" cy="339.0679" fill="#ADD1B2" rx="11" ry="11" style="stroke:#181818;stroke-width:1.0;"/><path d="M2141.9688,345.9898 Q2140.2188,345.9898 2139.0781,345.2554 Q2137.9531,344.5054 2137.3906,343.1617 Q2136.8438,341.8023 2136.8438,340.0054 Q2136.8438,337.9742 2137.5,336.521 Q2138.1563,335.0679 2139.4375,334.2867 Q2140.7188,333.5054 2142.5938,333.5054 Q2143.4844,333.5054 2144.1563,333.6929 Q2144.8281,333.8648 2145.5156,334.2085 L2144.7031,336.2242 Q2144.0781,335.9117 2143.5313,335.7867 Q2143,335.6617 2142.5156,335.6617 Q2141.3438,335.6617 2140.6406,336.1929 Q2139.9375,336.7242 2139.6406,337.6773 Q2139.3438,338.6304 2139.3438,339.896 Q2139.3438,341.9117 2140.0625,342.8804 Q2140.7813,343.8335 2142.375,343.8335 Q2142.9688,343.8335 2143.5938,343.6773 Q2144.2188,343.521 2145.0469,343.146 L2145.0469,345.3648 Q2144.3125,345.6773 2143.5156,345.8335 Q2142.7344,345.9898 2141.9688,345.9898 Z " fill="#000000"/><text fill="#000000" font-family="sans-serif" font-size="14" lengthAdjust="spacing" textLength="85" x="2156.5" y="344.4999">ElevatorView</text></g><!--class WaitingPeopleView--><g id="elem_WaitingPeopleView"><rect codeLine="101" fill="#F1F1F1" height="32" id="WaitingPeopleView" rx="2.5" ry="2.5" style="stroke:#181818;stroke-width:0.5;" width="160" x="2279" y="323.0679"/><ellipse cx="2294" cy="339.0679" fill="#ADD1B2" rx="11" ry="11" style="stroke:#181818;stroke-width:1.0;"/><path d="M2293.4688,345.9898 Q2291.7188,345.9898 2290.5781,345.2554 Q2289.4531,344.5054 2288.8906,343.1617 Q2288.3438,341.8023 2288.3438,340.0054 Q2288.3438,337.9742 2289,336.521 Q2289.6563,335.0679 2290.9375,334.2867 Q2292.2188,333.5054 2294.0938,333.5054 Q2294.9844,333.5054 2295.6563,333.6929 Q2296.3281,333.8648 2297.0156,334.2085 L2296.2031,336.2242 Q2295.5781,335.9117 2295.0313,335.7867 Q2294.5,335.6617 2294.0156,335.6617 Q2292.8438,335.6617 2292.1406,336.1929 Q2291.4375,336.7242 2291.1406,337.6773 Q2290.8438,338.6304 2290.8438,339.896 Q2290.8438,341.9117 2291.5625,342.8804 Q2292.2813,343.8335 2293.875,343.8335 Q2294.4688,343.8335 2295.0938,343.6773 Q2295.7188,343.521 2296.5469,343.146 L2296.5469,345.3648 Q2295.8125,345.6773 2295.0156,345.8335 Q2294.2344,345.9898 2293.4688,345.9898 Z " fill="#000000"/><text fill="#000000" font-family="sans-serif" font-size="14" lengthAdjust="spacing" textLength="128" x="2308" y="344.4999">WaitingPeopleView</text></g><!--class FloorView--><g id="elem_FloorView"><rect codeLine="104" fill="#F1F1F1" height="32" id="FloorView" rx="2.5" ry="2.5" style="stroke:#181818;stroke-width:0.5;" width="96" x="2474" y="323.0679"/><ellipse cx="2489" cy="339.0679" fill="#ADD1B2" rx="11" ry="11" style="stroke:#181818;stroke-width:1.0;"/><path d="M2488.4688,345.9898 Q2486.7188,345.9898 2485.5781,345.2554 Q2484.4531,344.5054 2483.8906,343.1617 Q2483.3438,341.8023 2483.3438,340.0054 Q2483.3438,337.9742 2484,336.521 Q2484.6563,335.0679 2485.9375,334.2867 Q2487.2188,333.5054 2489.0938,333.5054 Q2489.9844,333.5054 2490.6563,333.6929 Q2491.3281,333.8648 2492.0156,334.2085 L2491.2031,336.2242 Q2490.5781,335.9117 2490.0313,335.7867 Q2489.5,335.6617 2489.0156,335.6617 Q2487.8438,335.6617 2487.1406,336.1929 Q2486.4375,336.7242 2486.1406,337.6773 Q2485.8438,338.6304 2485.8438,339.896 Q2485.8438,341.9117 2486.5625,342.8804 Q2487.2813,343.8335 2488.875,343.8335 Q2489.4688,343.8335 2490.0938,343.6773 Q2490.7188,343.521 2491.5469,343.146 L2491.5469,345.3648 Q2490.8125,345.6773 2490.0156,345.8335 Q2489.2344,345.9898 2488.4688,345.9898 Z " fill="#000000"/><text fill="#000000" font-family="sans-serif" font-size="14" lengthAdjust="spacing" textLength="64" x="2503" y="344.4999">FloorView</text></g><!--class PeopleOnFloorView--><g id="elem_PeopleOnFloorView"><rect codeLine="107" fill="#F1F1F1" height="32" id="PeopleOnFloorView" rx="2.5" ry="2.5" style="stroke:#181818;stroke-width:0.5;" width="161" x="1765.5" y="323.0679"/><ellipse cx="1780.5" cy="339.0679" fill="#ADD1B2" rx="11" ry="11" style="stroke:#181818;stroke-width:1.0;"/><path d="M1779.9688,345.9898 Q1778.2188,345.9898 1777.0781,345.2554 Q1775.9531,344.5054 1775.3906,343.1617 Q1774.8438,341.8023 1774.8438,340.0054 Q1774.8438,337.9742 1775.5,336.521 Q1776.1563,335.0679 1777.4375,334.2867 Q1778.7188,333.5054 1780.5938,333.5054 Q1781.4844,333.5054 1782.1563,333.6929 Q1782.8281,333.8648 1783.5156,334.2085 L1782.7031,336.2242 Q1782.0781,335.9117 1781.5313,335.7867 Q1781,335.6617 1780.5156,335.6617 Q1779.3438,335.6617 1778.6406,336.1929 Q1777.9375,336.7242 1777.6406,337.6773 Q1777.3438,338.6304 1777.3438,339.896 Q1777.3438,341.9117 1778.0625,342.8804 Q1778.7813,343.8335 1780.375,343.8335 Q1780.9688,343.8335 1781.5938,343.6773 Q1782.2188,343.521 1783.0469,343.146 L1783.0469,345.3648 Q1782.3125,345.6773 1781.5156,345.8335 Q1780.7344,345.9898 1779.9688,345.9898 Z " fill="#000000"/><text fill="#000000" font-family="sans-serif" font-size="14" lengthAdjust="spacing" textLength="129" x="1794.5" y="344.4999">PeopleOnFloorView</text></g><!--class Direction--><g id="elem_Direction"><rect codeLine="112" fill="#F1F1F1" height="97.2038" id="Direction" rx="2.5" ry="2.5" style="stroke:#181818;stroke-width:0.5;" width="93" x="22.5" y="633.0679"/><ellipse cx="37.5" cy="649.0679" fill="#EB937F" rx="11" ry="11" style="stroke:#181818;stroke-width:1.0;"/><path d="M33.8594,655.5679 L33.8594,643.4273 L41.5156,643.4273 L41.5156,645.5523 L36.2344,645.5523 L36.2344,648.2085 L41.25,648.2085 L41.25,650.3335 L36.2344,650.3335 L36.2344,653.4429 L41.5156,653.4429 L41.5156,655.5679 L33.8594,655.5679 Z " fill="#000000"/><text fill="#000000" font-family="sans-serif" font-size="14" lengthAdjust="spacing" textLength="61" x="51.5" y="654.4999">Direction</text><line style="stroke:#181818;stroke-width:0.5;" x1="23.5" x2="114.5" y1="665.0679" y2="665.0679"/><text fill="#000000" font-family="sans-serif" font-size="14" lengthAdjust="spacing" textLength="18" x="28.5" y="684.0339">UP</text><text fill="#000000" font-family="sans-serif" font-size="14" lengthAdjust="spacing" textLength="35" x="28.5" y="703.1018">STOP</text><text fill="#000000" font-family="sans-serif" font-size="14" lengthAdjust="spacing" textLength="45" x="28.5" y="722.1697">DOWN</text></g><!--class App--><g id="elem_App"><rect codeLine="10" fill="#F1F1F1" height="32" id="App" rx="2.5" ry="2.5" style="stroke:#181818;stroke-width:0.5;" width="59" x="1455.5" y="47.0679"/><ellipse cx="1470.5" cy="63.0679" fill="#ADD1B2" rx="11" ry="11" style="stroke:#181818;stroke-width:1.0;"/><path d="M1469.9688,69.9898 Q1468.2188,69.9898 1467.0781,69.2554 Q1465.9531,68.5054 1465.3906,67.1617 Q1464.8438,65.8023 1464.8438,64.0054 Q1464.8438,61.9742 1465.5,60.521 Q1466.1563,59.0679 1467.4375,58.2867 Q1468.7188,57.5054 1470.5938,57.5054 Q1471.4844,57.5054 1472.1563,57.6929 Q1472.8281,57.8648 1473.5156,58.2085 L1472.7031,60.2242 Q1472.0781,59.9117 1471.5313,59.7867 Q1471,59.6617 1470.5156,59.6617 Q1469.3438,59.6617 1468.6406,60.1929 Q1467.9375,60.7242 1467.6406,61.6773 Q1467.3438,62.6304 1467.3438,63.896 Q1467.3438,65.9117 1468.0625,66.8804 Q1468.7813,67.8335 1470.375,67.8335 Q1470.9688,67.8335 1471.5938,67.6773 Q1472.2188,67.521 1473.0469,67.146 L1473.0469,69.3648 Q1472.3125,69.6773 1471.5156,69.8335 Q1470.7344,69.9898 1469.9688,69.9898 Z " fill="#000000"/><text fill="#000000" font-family="sans-serif" font-size="14" lengthAdjust="spacing" textLength="27" x="1484.5" y="68.4999">App</text></g><!--link App to Simulation--><g id="link_App_Simulation"><path codeLine="120" d="M1485,79.3279 C1485,95.8779 1485,116.1479 1485,132.7179 " fill="none" id="App-to-Simulation" style="stroke:#181818;stroke-width:1.0;"/><polygon fill="#181818" points="1485,138.7179,1489,129.7179,1485,133.7179,1481,129.7179,1485,138.7179" style="stroke:#181818;stroke-width:1.0;"/></g><!--reverse link Simulation to Values--><g id="link_Simulation_Values"><path codeLine="122" d="M1421.0318,168.1292 C1404.3518,172.4992 1397.97,175.8379 1383,185.0679 C1363.91,196.8379 1347.29,216.9079 1337.22,230.7979 " fill="none" id="Simulation-backto-Values" style="stroke:#181818;stroke-width:1.0;"/><polygon fill="#181818" points="1432.64,165.0879,1425.8221,162.7391,1421.0318,168.1292,1427.8496,170.4779,1432.64,165.0879" style="stroke:#181818;stroke-width:1.0;"/></g><!--link Simulation to Creation--><g id="link_Simulation_Creation"><path codeLine="123" d="M1495.18,171.3279 C1506.21,187.8779 1523.72,214.1479 1534.77,230.7179 " fill="none" id="Simulation-Creation" style="stroke:#181818;stroke-width:1.0;"/></g><!--link Simulation to Time--><g id="link_Simulation_Time"><path codeLine="124" d="M1476.18,171.3279 C1466.62,187.8779 1451.44,214.1479 1441.86,230.7179 " fill="none" id="Simulation-Time" style="stroke:#181818;stroke-width:1.0;"/></g><!--link Simulation to BuildingView--><g id="link_Simulation_BuildingView"><path codeLine="125" d="M1537.4,162.7879 C1664.86,179.1579 1990.52,220.9679 2125.74,238.3279 " fill="none" id="Simulation-BuildingView" style="stroke:#181818;stroke-width:1.0;"/></g><!--link Creation to Building--><g id="link_Creation_Building"><path codeLine="127" d="M1557.88,263.5079 C1580.67,291.6979 1627.97,354.2079 1652,415.0679 C1669.19,458.5879 1675.15,514.2279 1677.11,540.7179 " fill="none" id="Creation-Building" style="stroke:#181818;stroke-width:1.0;"/></g><!--link Time to BuildingController--><g id="link_Time_BuildingController"><path codeLine="129" d="M1433,263.3279 C1433,279.8779 1433,306.1479 1433,322.7179 " fill="none" id="Time-BuildingController" style="stroke:#181818;stroke-width:1.0;"/></g><!--reverse link BuildingController to Building--><g id="link_BuildingController_Building"><path codeLine="131" d="M1506.3558,359.1855 C1542.2758,370.7155 1574.97,385.9379 1606,415.0679 C1644.47,451.1879 1665.74,512.4379 1673.96,540.8079 " fill="none" id="BuildingController-backto-Building" style="stroke:#181818;stroke-width:1.0;"/><polygon fill="#181818" points="1494.93,355.5179,1499.4204,361.1603,1506.3558,359.1855,1501.8654,353.5431,1494.93,355.5179" style="stroke:#181818;stroke-width:1.0;"/></g><!--reverse link BuildingController to FloorController--><g id="link_BuildingController_FloorController"><path codeLine="132" d="M1456.7553,363.8132 C1473.3053,380.3632 1491.08,398.1479 1507.66,414.7179 " fill="none" id="BuildingController-backto-FloorController" style="stroke:#181818;stroke-width:1.0;"/><polygon fill="#181818" points="1448.27,355.3279,1449.6842,362.399,1456.7553,363.8132,1455.3411,356.7421,1448.27,355.3279" style="stroke:#181818;stroke-width:1.0;"/></g><!--reverse link BuildingController to ElevatorController--><g id="link_BuildingController_ElevatorController"><path codeLine="133" d="M1409.8993,363.9553 C1393.8993,380.5053 1376.86,398.1479 1360.83,414.7179 " fill="none" id="BuildingController-backto-ElevatorController" style="stroke:#181818;stroke-width:1.0;"/><polygon fill="#181818" points="1418.24,355.3279,1411.1938,356.8614,1409.8993,363.9553,1416.9455,362.4219,1418.24,355.3279" style="stroke:#181818;stroke-width:1.0;"/></g><!--reverse link BuildingController to ControlPanelController--><g id="link_BuildingController_ControlPanelController"><path codeLine="134" d="M1371.5153,359.0822 C1318.0453,375.6122 1245.26,398.1279 1191.86,414.6479 " fill="none" id="BuildingController-backto-ControlPanelController" style="stroke:#181818;stroke-width:1.0;"/><polygon fill="#181818" points="1382.98,355.5379,1376.0663,353.4885,1371.5153,359.0822,1378.4291,361.1316,1382.98,355.5379" style="stroke:#181818;stroke-width:1.0;"/></g><!--link ElevatorController to Building--><g id="link_ElevatorController_Building"><path codeLine="136" d="M1375.61,447.4779 C1393.69,456.0879 1417.58,466.0679 1440,471.0679 C1459.11,475.3279 1598.54,470.2179 1616,479.0679 C1642.18,492.3379 1658.2655,516.9132 1667.9055,535.3132 " fill="none" id="ElevatorController-to-Building" style="stroke:#181818;stroke-width:1.0;"/><polygon fill="#181818" points="1670.69,540.6279,1670.0565,530.7995,1668.3696,536.1989,1662.9701,534.5121,1670.69,540.6279" style="stroke:#181818;stroke-width:1.0;"/></g><!--link ElevatorController to Direction--><g id="link_ElevatorController_Direction"><path codeLine="137" d="M1316.4,447.5079 C1298.32,456.1279 1274.43,466.1079 1252,471.0679 C1210.52,480.2379 1103.28,474.9579 1061,479.0679 C785.79,505.7779 721.13,545.4679 446,573.0679 C413.9,576.2879 185.25,573.4679 156,587.0679 C134.47,597.0679 115.74,615.0679 101.23,632.6179 " fill="none" id="ElevatorController-Direction" style="stroke:#181818;stroke-width:1.0;"/></g><!--link FloorController to Building--><g id="link_FloorController_Building"><path codeLine="139" d="M1562.3,447.4279 C1579.77,455.3479 1599.97,466.0879 1616,479.0679 C1638.15,496.9879 1654.3596,519.0241 1665.3296,535.8241 " fill="none" id="FloorController-to-Building" style="stroke:#181818;stroke-width:1.0;"/><polygon fill="#181818" points="1668.61,540.8479,1667.0386,531.1252,1665.8763,536.6614,1660.3401,535.4991,1668.61,540.8479" style="stroke:#181818;stroke-width:1.0;"/></g><!--link FloorController to Direction--><g id="link_FloorController_Direction"><path codeLine="140" d="M1497.08,447.5179 C1481.19,456.1479 1460.1,466.1279 1440,471.0679 C1398.96,481.1379 1291.96,474.0279 1250,479.0679 C1038.06,504.5179 991.18,549.6879 779,573.0679 C744.59,576.8579 187.58,572.8779 156,587.0679 C134.14,596.8779 115.24,615.0779 100.7,632.8279 " fill="none" id="FloorController-Direction" style="stroke:#181818;stroke-width:1.0;"/></g><!--link ControlPanelController to Building--><g id="link_ControlPanelController_Building"><path codeLine="142" d="M1176.39,447.4579 C1197.7,456.1779 1225.89,466.2779 1252,471.0679 C1271.9,474.7079 1597.85,470.1279 1616,479.0679 C1642.49,492.0979 1658.6165,517.047 1668.1565,535.517 " fill="none" id="ControlPanelController-to-Building" style="stroke:#181818;stroke-width:1.0;"/><polygon fill="#181818" points="1670.91,540.8479,1670.3337,531.0159,1668.6154,536.4055,1663.2259,534.6872,1670.91,540.8479" style="stroke:#181818;stroke-width:1.0;"/></g><!--link ControlPanelController to Models--><g id="link_ControlPanelController_Models"><path codeLine="143" d="M1157.45,447.5179 C1173.81,463.8779 1200.3625,490.4279 1223.1113,513.1742 C1234.4856,524.5473 1244.9091,534.9695 1252.632,542.6915 C1254.5628,544.622 1256.3247,546.3838 1257.8906,547.9494 " fill="none" id="ControlPanelController-Models" style="stroke:#181818;stroke-width:1.0;"/></g><!--link ControlPanelController to Direction--><g id="link_ControlPanelController_Direction"><path codeLine="144" d="M1049.12,438.9079 C834.44,455.9379 310.41,504.9179 156,587.0679 C135.43,598.0079 117.1,615.7179 102.63,632.8079 " fill="none" id="ControlPanelController-Direction" style="stroke:#181818;stroke-width:1.0;"/></g><!--reverse link Building to FloorList--><g id="link_Building_FloorList"><path codeLine="146" d="M1621.429,572.5499 C1615.679,573.7399 1621.6,572.3379 1616,573.0679 C1578.03,577.9879 960.54,568.6079 927,587.0679 C896.26,603.9779 878.1,643.3779 870.02,665.2879 " fill="none" id="Building-backto-FloorList" style="stroke:#181818;stroke-width:1.0;"/><polygon fill="#181818" points="1633.18,570.1179,1626.4939,567.4169,1621.429,572.5499,1628.1152,575.2509,1633.18,570.1179" style="stroke:#181818;stroke-width:1.0;"/></g><!--reverse link Building to ElevatorList--><g id="link_Building_ElevatorList"><path codeLine="147" d="M1621.425,572.5503 C1615.675,573.7303 1621.6,572.3479 1616,573.0679 C1571.25,578.7879 844.3,566.7879 804,587.0679 C771.03,603.6479 748.83,643.1879 738.55,665.1979 " fill="none" id="Building-backto-ElevatorList" style="stroke:#181818;stroke-width:1.0;"/><polygon fill="#181818" points="1633.18,570.1379,1626.4984,567.4257,1621.425,572.5503,1628.1066,575.2624,1633.18,570.1379" style="stroke:#181818;stroke-width:1.0;"/></g><!--reverse link Building to ControlPanel--><g id="link_Building_ControlPanel"><path codeLine="148" d="M1626.978,577.7969 C1566.118,601.3369 1461.83,641.6679 1400.91,665.2279 " fill="none" id="Building-backto-ControlPanel" style="stroke:#181818;stroke-width:1.0;"/><polygon fill="#181818" points="1638.17,573.4679,1631.131,571.9017,1626.978,577.7969,1634.017,579.363,1638.17,573.4679" style="stroke:#181818;stroke-width:1.0;"/></g><!--reverse link Building to Counters--><g id="link_Building_Counters"><path codeLine="149" d="M1621.425,572.5603 C1615.675,573.7403 1621.6,572.3579 1616,573.0679 C1563.3,579.7379 706.8,561.9279 660,587.0679 C628.78,603.8279 609.82,643.2979 601.32,665.2479 " fill="none" id="Building-backto-Counters" style="stroke:#181818;stroke-width:1.0;"/><polygon fill="#181818" points="1633.18,570.1479,1626.4984,567.4357,1621.425,572.5603,1628.1066,575.2724,1633.18,570.1479" style="stroke:#181818;stroke-width:1.0;"/></g><!--reverse link Floor to PersonList--><g id="link_Floor_PersonList"><path codeLine="151" d="M1865.6281,572.3981 C1859.9481,573.9381 1865.64,572.1679 1860,573.0679 C1797,583.0979 1346.36,566.4079 1286,587.0679 C1239.1,603.1179 1195.03,643.2579 1173.24,665.4079 " fill="none" id="Floor-backto-PersonList" style="stroke:#181818;stroke-width:1.0;"/><polygon fill="#181818" points="1877.21,569.2579,1870.3724,566.9674,1865.6281,572.3981,1872.4658,574.6886,1877.21,569.2579" style="stroke:#181818;stroke-width:1.0;"/></g><!--reverse link Floor to IModel--><g id="link_Floor_IModel"><path codeLine="152" d="M1910,591.3479 C1910,614.8379 1910,641.5879 1910,665.1979 " fill="none" id="Floor-backto-IModel" style="stroke:#181818;stroke-width:1.0;"/><polygon fill="none" points="1910,573.3479,1904,591.3479,1916,591.3479,1910,573.3479" style="stroke:#181818;stroke-width:1.0;"/></g><!--reverse link Elevator to PersonList--><g id="link_Elevator_PersonList"><path codeLine="154" d="M1744.9001,572.5996 C1739.3401,573.7996 1745.42,572.3079 1740,573.0679 C1690.01,579.9979 1333.7,570.5679 1286,587.0679 C1239.15,603.2679 1195.06,643.3479 1173.25,665.4479 " fill="none" id="Elevator-backto-PersonList" style="stroke:#181818;stroke-width:1.0;"/><polygon fill="#181818" points="1756.63,570.0679,1749.9212,567.4238,1744.9001,572.5996,1751.6089,575.2437,1756.63,570.0679" style="stroke:#181818;stroke-width:1.0;"/></g><!--reverse link Elevator to FloorsToGoList--><g id="link_Elevator_FloorsToGoList"><path codeLine="155" d="M1744.9048,572.6251 C1739.3348,573.8151 1745.43,572.3379 1740,573.0679 C1704.26,577.8579 1123.68,571.8179 1091,587.0679 C1055.56,603.5979 1029.24,643.5379 1016.87,665.5279 " fill="none" id="Elevator-backto-FloorsToGoList" style="stroke:#181818;stroke-width:1.0;"/><polygon fill="#181818" points="1756.64,570.1179,1749.9367,567.4598,1744.9048,572.6251,1751.6081,575.2832,1756.64,570.1179" style="stroke:#181818;stroke-width:1.0;"/></g><!--reverse link Elevator to Direction--><g id="link_Elevator_Direction"><path codeLine="156" d="M1744.9015,572.6692 C1739.3415,573.8492 1745.43,572.3679 1740,573.0679 C1696.35,578.6379 196.26,569.3079 156,587.0679 C134.08,596.7379 115.17,614.9079 100.63,632.6779 " fill="none" id="Elevator-backto-Direction" style="stroke:#181818;stroke-width:1.0;"/><polygon fill="#181818" points="1756.64,570.1779,1749.9403,567.5107,1744.9015,572.6692,1751.6012,575.3364,1756.64,570.1779" style="stroke:#181818;stroke-width:1.0;"/></g><!--reverse link Elevator to IModel--><g id="link_Elevator_IModel"><path codeLine="157" d="M1825.7321,586.7445 C1846.8121,610.2345 1874.94,641.5879 1896.12,665.1979 " fill="none" id="Elevator-backto-IModel" style="stroke:#181818;stroke-width:1.0;"/><polygon fill="none" points="1813.71,573.3479,1821.2666,590.7519,1830.1977,582.7371,1813.71,573.3479" style="stroke:#181818;stroke-width:1.0;"/></g><!--reverse link ControlPanel to FloorRequestList--><g id="link_ControlPanel_FloorRequestList"><path codeLine="159" d="M1337.6482,656.9797 C1312.3682,631.2597 1266.61,591.2579 1208.5,580.0679 C1172.55,573.1379 585.45,573.1379 549.5,580.0679 C502.58,589.0979 467.38,639.1479 451.81,665.4679 " fill="none" id="ControlPanel-backto-FloorRequestList" style="stroke:#181818;stroke-width:1.0;"/><polygon fill="#181818" points="1346.06,665.5379,1344.7068,658.4549,1337.6482,656.9797,1339.0014,664.0628,1346.06,665.5379" style="stroke:#181818;stroke-width:1.0;"/></g><!--reverse link ControlPanel to ElevatorRequestList--><g id="link_ControlPanel_ElevatorRequestList"><path codeLine="160" d="M1337.6482,656.9797 C1312.3682,631.2597 1266.61,591.2579 1208.5,580.0679 C1162.84,571.2679 417.16,571.2679 371.5,580.0679 C321.98,589.5979 282.11,639.4179 264.21,665.5779 " fill="none" id="ControlPanel-backto-ElevatorRequestList" style="stroke:#181818;stroke-width:1.0;"/><polygon fill="#181818" points="1346.06,665.5379,1344.7068,658.4549,1337.6482,656.9797,1339.0014,664.0628,1346.06,665.5379" style="stroke:#181818;stroke-width:1.0;"/></g><!--reverse link Person to IModel--><g id="link_Person_IModel"><path codeLine="162" d="M1991.0171,586.9641 C1970.7071,610.4541 1943.79,641.5879 1923.38,665.1979 " fill="none" id="Person-backto-IModel" style="stroke:#181818;stroke-width:1.0;"/><polygon fill="none" points="2002.79,573.3479,1986.4784,583.0398,1995.5559,590.8884,2002.79,573.3479" style="stroke:#181818;stroke-width:1.0;"/></g><!--reverse link FloorList to Floor--><g id="link_FloorList_Floor"><path codeLine="164" d="M874.1497,654.0046 C882.2097,632.0746 896.22,603.8979 927,587.0679 C972.48,562.1979 1808.77,580.9779 1860,573.0679 C1865.64,572.1879 1871.54,570.8379 1877.22,569.2979 " fill="none" id="FloorList-backto-Floor" style="stroke:#181818;stroke-width:1.0;"/><polygon fill="none" points="870.01,665.2679,875.8343,661.0161,874.1497,654.0046,868.3254,658.2564,870.01,665.2679" style="stroke:#181818;stroke-width:1.0;"/></g><!--reverse link FloorList to ModelList--><g id="link_FloorList_ModelList"><path codeLine="165" d="M853.2579,709.6374 C847.8079,733.1274 850.51,766.1879 855.93,789.7979 " fill="none" id="FloorList-backto-ModelList" style="stroke:#181818;stroke-width:1.0;"/><polygon fill="#181818" points="855.97,697.9479,850.7174,702.8886,853.2579,709.6374,858.5104,704.6967,855.97,697.9479" style="stroke:#181818;stroke-width:1.0;"/></g><!--reverse link FloorList to ModelList--><g id="link_FloorList_ModelList"><path codeLine="167" d="M876.7421,709.6374 C882.1921,733.1274 879.49,766.1879 874.07,789.7979 " fill="none" id="FloorList-backto-ModelList-1" style="stroke:#181818;stroke-width:1.0;"/><polygon fill="#181818" points="874.03,697.9479,871.4896,704.6967,876.7421,709.6374,879.2826,702.8886,874.03,697.9479" style="stroke:#181818;stroke-width:1.0;"/></g><!--reverse link ElevatorList to Elevator--><g id="link_ElevatorList_Elevator"><path codeLine="166" d="M743.6222,654.3126 C753.8922,632.2926 771.02,603.6179 804,587.0679 C850.48,563.7379 1688.43,579.8079 1740,573.0679 C1745.43,572.3579 1751.08,571.3279 1756.64,570.1479 " fill="none" id="ElevatorList-backto-Elevator" style="stroke:#181818;stroke-width:1.0;"/><polygon fill="none" points="738.55,665.1879,744.7112,661.441,743.6222,654.3126,737.461,658.0595,738.55,665.1879" style="stroke:#181818;stroke-width:1.0;"/></g><!--reverse link FloorRequestList to FloorRequest--><g id="link_FloorRequestList_FloorRequest"><path codeLine="168" d="M458.2519,655.3057 C472.1119,633.2357 494.82,603.3479 532,587.0679 C579.23,566.3779 1408.71,578.3379 1460,573.0679 C1465.76,572.4679 1471.73,571.6679 1477.69,570.7379 " fill="none" id="FloorRequestList-backto-FloorRequest" style="stroke:#181818;stroke-width:1.0;"/><polygon fill="#181818" points="451.87,665.4679,458.4484,662.5141,458.2519,655.3057,451.6735,658.2595,451.87,665.4679" style="stroke:#181818;stroke-width:1.0;"/></g><!--reverse link ElevatorRequestList to ElevatorRequest--><g id="link_ElevatorRequestList_ElevatorRequest"><path codeLine="169" d="M271.5246,655.7324 C287.7046,633.6124 314.09,603.1679 354,587.0679 C402.64,567.4379 1245.85,578.6879 1298,573.0679 C1299.04,572.9479 1300.09,572.8279 1301.15,572.7079 " fill="none" id="ElevatorRequestList-backto-ElevatorRequest" style="stroke:#181818;stroke-width:1.0;"/><polygon fill="#181818" points="264.44,665.4179,271.2108,662.9367,271.5246,655.7324,264.7538,658.2136,264.44,665.4179" style="stroke:#181818;stroke-width:1.0;"/></g><!--reverse link PersonList to Person--><g id="link_PersonList_Person"><path codeLine="170" d="M1181.6377,656.8258 C1203.4177,634.6458 1239.07,603.0379 1286,587.0679 C1356.91,562.9379 1885.84,583.6079 1960,573.0679 C1965.48,572.2879 1971.19,571.1479 1976.78,569.8479 " fill="none" id="PersonList-backto-Person" style="stroke:#181818;stroke-width:1.0;"/><polygon fill="none" points="1173.23,665.3879,1180.2879,663.9094,1181.6377,656.8258,1174.5798,658.3043,1173.23,665.3879" style="stroke:#181818;stroke-width:1.0;"/></g><!--reverse link PersonList to ModelList--><g id="link_PersonList_ModelList"><path codeLine="171" d="M1141.6317,707.8044 C1129.7017,724.3144 1115.6,740.2979 1091,754.2679 C1037.31,784.7579 966.76,797.0279 918.86,801.9579 " fill="none" id="PersonList-backto-ModelList" style="stroke:#181818;stroke-width:1.0;"/><polygon fill="#181818" points="1148.66,698.0779,1141.9037,700.5984,1141.6317,707.8044,1148.388,705.2839,1148.66,698.0779" style="stroke:#181818;stroke-width:1.0;"/></g><!--reverse link BuildingView to Building--><g id="link_BuildingView_Building"><path codeLine="173" d="M2258.3678,248.5902 C2392.6878,251.1902 2684.98,268.8279 2587,379.0679 C2461.08,520.7179 1905.85,387.3379 1740,479.0679 C1714.47,493.1879 1695.5,522.5079 1685.65,540.6179 " fill="none" id="BuildingView-backto-Building" style="stroke:#181818;stroke-width:1.0;"/><polygon fill="#181818" points="2246.37,248.3579,2252.2915,252.4733,2258.3678,248.5902,2252.4463,244.4748,2246.37,248.3579" style="stroke:#181818;stroke-width:1.0;"/></g><!--link BuildingView to FloorView--><g id="link_BuildingView_FloorView"><path codeLine="174" d="M2243.76,263.5379 C2308.68,280.9279 2412.92,308.8479 2473.69,325.1279 " fill="none" id="BuildingView-FloorView" style="stroke:#181818;stroke-width:1.0;"/></g><!--link BuildingView to ElevatorView--><g id="link_BuildingView_ElevatorView"><path codeLine="175" d="M2186,263.3279 C2186,279.8779 2186,306.1479 2186,322.7179 " fill="none" id="BuildingView-ElevatorView" style="stroke:#181818;stroke-width:1.0;"/></g><!--link BuildingView to WaitingPeopleView--><g id="link_BuildingView_WaitingPeopleView"><path codeLine="176" d="M2215.74,263.5379 C2247.52,280.0679 2297.61,306.1279 2329.36,322.6479 " fill="none" id="BuildingView-WaitingPeopleView" style="stroke:#181818;stroke-width:1.0;"/></g><!--link BuildingView to PeopleOnFloorView--><g id="link_BuildingView_PeopleOnFloorView"><path codeLine="177" d="M2127.55,263.5379 C2065.18,280.0479 1966.94,306.0479 1904.54,322.5679 " fill="none" id="BuildingView-PeopleOnFloorView" style="stroke:#181818;stroke-width:1.0;"/></g><!--link BuildingView to DebuggerView--><g id="link_BuildingView_DebuggerView"><path codeLine="178" d="M2158.67,263.5379 C2129.46,280.0679 2083.42,306.1279 2054.24,322.6479 " fill="none" id="BuildingView-DebuggerView" style="stroke:#181818;stroke-width:1.0;"/></g><!--SRC=[ZLNBRjim4BplLn3epO3_80YGs6aHe8sDsatEZBrH25EYGb4DYZR_tfKiyI6ISWGVv9tP9NUe7HfX9BAru8Nc9MT7P3VwhHK63wRL7A0vYQhcXB6_mEXvK0Pl-U5KQDLMnvMIIhClxw-Ki2lL2U43u5LG5InhyuULM3wZRW0EaZSDkwbhAaEKcYhm0jbALKOhAOapr3yJRriXZw8g73x0bEjOTn9_SwFqFEkHonQR5B8JPIkv4QfAeNjHOYh-LQfBImxebbSeBp0rXXluiDfy5uq9LLcHvCP9bTIYovh3V-8RgM5ojBwvMV0p1Pgz-gPoZ1_gYB83h_RNANnB7QegoFQ-c3ux_R5SEeavMJuXMRRRIrBbcmoH- -vmN_W1sNtV9Q5n_uy2tzFjTqXggJK-jqM1EeUFRURm9ouCbT-YgYNcI7s_EV2SkgbYajVONTMMOsD8x-H9cap8pKRt_DhQrzr-u_wiDqyFuxhqwtnckRps1Xp06_R5SZcuWX-bu3YDat3d19EGBpg0dM8F0UWDn8iu9m186Dp2JyxW4-_9qM9Zp37JJWMGiDPEKBk_9EwE363gaa5s3Fgf6VSCAcGvWq7C4BoLh7DORJlR2SE-iOQ8lyGKEHlr84CVSxOs1A_-KVGywKxlAJM8XzuQOguh6muM28pG5lFCF6OahWo0mRY2skxIK6DXBxOO3oNOjAMFWMn6TEjCTm-fkotH07WtYx8o-z5mOGYSDJcUFJ9kf_U2AUAxQmH6rXen8kkC6Bwzmty0]--></g></svg>