<?xml version="1.0" encoding="us-ascii" standalone="no"?><svg xmlns="http://www.w3.org/2000/svg" xmlns:xlink="http://www.w3.org/1999/xlink" contentStyleType="text/css" height="1248px" preserveAspectRatio="none" style="width:1547px;height:1248px;background:#FFFFFF;" version="1.1" viewBox="0 0 1547 1248" width="1547px" zoomAndPan="magnify"><defs/><g><text fill="#000000" font-family="sans-serif" font-size="14" font-weight="bold" lengthAdjust="spacing" textLength="296" x="618.5" y="24.9659">Diagrama de Arquitectura(Modelos Clases)</text><!--cluster Models--><g id="cluster_Models"><path d="M8.5,46.6699 L59.5,46.6699 A3.75,3.75 0 0 1 62,49.1699 L69,71.7378 L1537.5,71.7378 A2.5,2.5 0 0 1 1540,74.2378 L1540,1239.2899 A2.5,2.5 0 0 1 1537.5,1241.7899 L8.5,1241.7899 A2.5,2.5 0 0 1 6,1239.2899 L6,49.1699 A2.5,2.5 0 0 1 8.5,46.6699 " fill="none" style="stroke:#000000;stroke-width:1.5;"/><line style="stroke:#000000;stroke-width:1.5;" x1="6" x2="69" y1="71.7378" y2="71.7378"/><text fill="#000000" font-family="sans-serif" font-size="14" font-weight="bold" lengthAdjust="spacing" textLength="50" x="10" y="63.6358">Models</text></g><!--class Building--><g id="elem_Building"><rect codeLine="11" fill="#F1F1F1" height="372.1546" id="Building" rx="2.5" ry="2.5" style="stroke:#181818;stroke-width:0.5;" width="519" x="21.5" y="132.3399"/><ellipse cx="248.25" cy="148.3399" fill="#ADD1B2" rx="11" ry="11" style="stroke:#181818;stroke-width:1.0;"/><path d="M247.7188,155.2618 Q245.9688,155.2618 244.8281,154.5274 Q243.7031,153.7774 243.1406,152.4336 Q242.5938,151.0743 242.5938,149.2774 Q242.5938,147.2461 243.25,145.793 Q243.9063,144.3399 245.1875,143.5586 Q246.4688,142.7774 248.3438,142.7774 Q249.2344,142.7774 249.9063,142.9649 Q250.5781,143.1368 251.2656,143.4805 L250.4531,145.4961 Q249.8281,145.1836 249.2813,145.0586 Q248.75,144.9336 248.2656,144.9336 Q247.0938,144.9336 246.3906,145.4649 Q245.6875,145.9961 245.3906,146.9493 Q245.0938,147.9024 245.0938,149.168 Q245.0938,151.1836 245.8125,152.1524 Q246.5313,153.1055 248.125,153.1055 Q248.7188,153.1055 249.3438,152.9493 Q249.9688,152.793 250.7969,152.418 L250.7969,154.6368 Q250.0625,154.9493 249.2656,155.1055 Q248.4844,155.2618 247.7188,155.2618 Z " fill="#000000"/><text fill="#000000" font-family="sans-serif" font-size="14" lengthAdjust="spacing" textLength="57" x="268.75" y="153.7719">Building</text><line style="stroke:#181818;stroke-width:0.5;" x1="22.5" x2="539.5" y1="164.3399" y2="164.3399"/><rect fill="none" height="6" style="stroke:#C82930;stroke-width:1.0;" width="6" x="29.5" y="176.3739"/><text fill="#000000" font-family="sans-serif" font-size="14" lengthAdjust="spacing" textLength="102" x="41.5" y="183.3058">floors: FloorList</text><rect fill="none" height="6" style="stroke:#C82930;stroke-width:1.0;" width="6" x="29.5" y="195.4418"/><text fill="#000000" font-family="sans-serif" font-size="14" lengthAdjust="spacing" textLength="146" x="41.5" y="202.3738">elevators: ElevatorList</text><rect fill="none" height="6" style="stroke:#C82930;stroke-width:1.0;" width="6" x="29.5" y="214.5097"/><text fill="#000000" font-family="sans-serif" font-size="14" lengthAdjust="spacing" textLength="178" x="41.5" y="221.4417">controlPanel: ControlPanel</text><rect fill="none" height="6" style="stroke:#C82930;stroke-width:1.0;" width="6" x="29.5" y="233.5776"/><text fill="#000000" font-family="sans-serif" font-size="14" lengthAdjust="spacing" textLength="128" x="41.5" y="240.5096">counters: Counters</text><line style="stroke:#181818;stroke-width:0.5;" x1="22.5" x2="539.5" y1="248.6116" y2="248.6116"/><ellipse cx="32.5" cy="263.6455" fill="#84BE84" rx="3" ry="3" style="stroke:#038048;stroke-width:1.0;"/><text fill="#000000" font-family="sans-serif" font-size="14" lengthAdjust="spacing" textLength="186" x="41.5" y="267.5775">getFloors(): ArrayList&lt;Floor&gt;</text><ellipse cx="32.5" cy="282.7134" fill="#84BE84" rx="3" ry="3" style="stroke:#038048;stroke-width:1.0;"/><text fill="#000000" font-family="sans-serif" font-size="14" lengthAdjust="spacing" textLength="181" x="41.5" y="286.6454">addFloor(String label): void</text><ellipse cx="32.5" cy="301.7814" fill="#84BE84" rx="3" ry="3" style="stroke:#038048;stroke-width:1.0;"/><text fill="#000000" font-family="sans-serif" font-size="14" lengthAdjust="spacing" textLength="193" x="41.5" y="305.7133">updateFloor(Floor floor): void</text><ellipse cx="32.5" cy="320.8493" fill="#84BE84" rx="3" ry="3" style="stroke:#038048;stroke-width:1.0;"/><text fill="#000000" font-family="sans-serif" font-size="14" lengthAdjust="spacing" textLength="162" x="41.5" y="324.7813">removeFloor(int id): void</text><ellipse cx="32.5" cy="339.9172" fill="#84BE84" rx="3" ry="3" style="stroke:#038048;stroke-width:1.0;"/><text fill="#000000" font-family="sans-serif" font-size="14" lengthAdjust="spacing" textLength="228" x="41.5" y="343.8492">getElevators(): ArrayList&lt;Elevator&gt;</text><ellipse cx="32.5" cy="358.9851" fill="#84BE84" rx="3" ry="3" style="stroke:#038048;stroke-width:1.0;"/><text fill="#000000" font-family="sans-serif" font-size="14" lengthAdjust="spacing" textLength="314" x="41.5" y="362.9171">addElevator(int capacity, int currentFloor): void</text><ellipse cx="32.5" cy="378.053" fill="#84BE84" rx="3" ry="3" style="stroke:#038048;stroke-width:1.0;"/><text fill="#000000" font-family="sans-serif" font-size="14" lengthAdjust="spacing" textLength="258" x="41.5" y="381.985">updateElevator(Elevator elevator): void</text><ellipse cx="32.5" cy="397.1209" fill="#84BE84" rx="3" ry="3" style="stroke:#038048;stroke-width:1.0;"/><text fill="#000000" font-family="sans-serif" font-size="14" lengthAdjust="spacing" textLength="183" x="41.5" y="401.0529">removeElevator(int id): void</text><ellipse cx="32.5" cy="416.1889" fill="#84BE84" rx="3" ry="3" style="stroke:#038048;stroke-width:1.0;"/><text fill="#000000" font-family="sans-serif" font-size="14" lengthAdjust="spacing" textLength="210" x="41.5" y="420.1208">getControlPanel(): ControlPanel</text><ellipse cx="32.5" cy="435.2568" fill="#84BE84" rx="3" ry="3" style="stroke:#038048;stroke-width:1.0;"/><text fill="#000000" font-family="sans-serif" font-size="14" lengthAdjust="spacing" textLength="352" x="41.5" y="439.1888">updateControlPanel(ControlPanel controlPanel): void</text><ellipse cx="32.5" cy="454.3247" fill="#84BE84" rx="3" ry="3" style="stroke:#038048;stroke-width:1.0;"/><text fill="#000000" font-family="sans-serif" font-size="14" lengthAdjust="spacing" textLength="379" x="41.5" y="458.2567">addPersonInElevator(int elevatorId, Person person): void</text><ellipse cx="32.5" cy="473.3926" fill="#84BE84" rx="3" ry="3" style="stroke:#038048;stroke-width:1.0;"/><text fill="#000000" font-family="sans-serif" font-size="14" lengthAdjust="spacing" textLength="493" x="41.5" y="477.3246">addPersonOnFloor(int timeOnFloor, int currentFloor, int destination): void</text><ellipse cx="32.5" cy="492.4605" fill="#84BE84" rx="3" ry="3" style="stroke:#038048;stroke-width:1.0;"/><text fill="#000000" font-family="sans-serif" font-size="14" lengthAdjust="spacing" textLength="65" x="41.5" y="496.3925">Building()</text></g><!--class ControlPanel--><g id="elem_ControlPanel"><rect codeLine="31" fill="#F1F1F1" height="257.7471" id="ControlPanel" rx="2.5" ry="2.5" style="stroke:#181818;stroke-width:0.5;" width="451" x="575.5" y="189.5399"/><ellipse cx="753.75" cy="205.5399" fill="#ADD1B2" rx="11" ry="11" style="stroke:#181818;stroke-width:1.0;"/><path d="M753.2188,212.4618 Q751.4688,212.4618 750.3281,211.7274 Q749.2031,210.9774 748.6406,209.6336 Q748.0938,208.2743 748.0938,206.4774 Q748.0938,204.4461 748.75,202.993 Q749.4063,201.5399 750.6875,200.7586 Q751.9688,199.9774 753.8438,199.9774 Q754.7344,199.9774 755.4063,200.1649 Q756.0781,200.3368 756.7656,200.6805 L755.9531,202.6961 Q755.3281,202.3836 754.7813,202.2586 Q754.25,202.1336 753.7656,202.1336 Q752.5938,202.1336 751.8906,202.6649 Q751.1875,203.1961 750.8906,204.1493 Q750.5938,205.1024 750.5938,206.368 Q750.5938,208.3836 751.3125,209.3524 Q752.0313,210.3055 753.625,210.3055 Q754.2188,210.3055 754.8438,210.1493 Q755.4688,209.993 756.2969,209.618 L756.2969,211.8368 Q755.5625,212.1493 754.7656,212.3055 Q753.9844,212.4618 753.2188,212.4618 Z " fill="#000000"/><text fill="#000000" font-family="sans-serif" font-size="14" lengthAdjust="spacing" textLength="86" x="774.25" y="210.9719">ControlPanel</text><line style="stroke:#181818;stroke-width:0.5;" x1="576.5" x2="1025.5" y1="221.5399" y2="221.5399"/><rect fill="none" height="6" style="stroke:#C82930;stroke-width:1.0;" width="6" x="583.5" y="233.5739"/><text fill="#000000" font-family="sans-serif" font-size="14" lengthAdjust="spacing" textLength="256" x="595.5" y="240.5058">elevatorRequests: ElevatorRequestList</text><rect fill="none" height="6" style="stroke:#C82930;stroke-width:1.0;" width="6" x="583.5" y="252.6418"/><text fill="#000000" font-family="sans-serif" font-size="14" lengthAdjust="spacing" textLength="212" x="595.5" y="259.5738">floorRequests: FloorRequestList</text><line style="stroke:#181818;stroke-width:0.5;" x1="576.5" x2="1025.5" y1="267.6757" y2="267.6757"/><ellipse cx="586.5" cy="282.7097" fill="#84BE84" rx="3" ry="3" style="stroke:#038048;stroke-width:1.0;"/><text fill="#000000" font-family="sans-serif" font-size="14" lengthAdjust="spacing" textLength="302" x="595.5" y="286.6417">getElevatorRequests(): List&lt;ElevatorRequest&gt;</text><ellipse cx="586.5" cy="301.7776" fill="#84BE84" rx="3" ry="3" style="stroke:#038048;stroke-width:1.0;"/><text fill="#000000" font-family="sans-serif" font-size="14" lengthAdjust="spacing" textLength="401" x="595.5" y="305.7096">addElevatorRequest(ElevatorRequest elevatorRequest): void</text><ellipse cx="586.5" cy="320.8455" fill="#84BE84" rx="3" ry="3" style="stroke:#038048;stroke-width:1.0;"/><text fill="#000000" font-family="sans-serif" font-size="14" lengthAdjust="spacing" textLength="425" x="595.5" y="324.7775">removeElevatorRequest(ElevatorRequest elevatorRequest): void</text><ellipse cx="586.5" cy="339.9134" fill="#84BE84" rx="3" ry="3" style="stroke:#038048;stroke-width:1.0;"/><text fill="#000000" font-family="sans-serif" font-size="14" lengthAdjust="spacing" textLength="260" x="595.5" y="343.8454">getFloorRequests(): List&lt;FloorRequest&gt;</text><ellipse cx="586.5" cy="358.9814" fill="#84BE84" rx="3" ry="3" style="stroke:#038048;stroke-width:1.0;"/><text fill="#000000" font-family="sans-serif" font-size="14" lengthAdjust="spacing" textLength="336" x="595.5" y="362.9133">addFloorRequest(FloorRequest floorRequest): void</text><ellipse cx="586.5" cy="378.0493" fill="#84BE84" rx="3" ry="3" style="stroke:#038048;stroke-width:1.0;"/><text fill="#000000" font-family="sans-serif" font-size="14" lengthAdjust="spacing" textLength="360" x="595.5" y="381.9813">removeFloorRequest(FloorRequest floorRequest): void</text><ellipse cx="586.5" cy="397.1172" fill="#84BE84" rx="3" ry="3" style="stroke:#038048;stroke-width:1.0;"/><text fill="#000000" font-family="sans-serif" font-size="14" lengthAdjust="spacing" textLength="210" x="595.5" y="401.0492">hasElevatorRequests(): boolean</text><ellipse cx="586.5" cy="416.1851" fill="#84BE84" rx="3" ry="3" style="stroke:#038048;stroke-width:1.0;"/><text fill="#000000" font-family="sans-serif" font-size="14" lengthAdjust="spacing" textLength="189" x="595.5" y="420.1171">hasFloorRequests(): boolean</text><ellipse cx="586.5" cy="435.253" fill="#84BE84" rx="3" ry="3" style="stroke:#038048;stroke-width:1.0;"/><text fill="#000000" font-family="sans-serif" font-size="14" lengthAdjust="spacing" textLength="94" x="595.5" y="439.185">ControlPanel()</text></g><!--class Elevator--><g id="elem_Elevator"><rect codeLine="45" fill="#F1F1F1" height="467.4942" id="Elevator" rx="2.5" ry="2.5" style="stroke:#181818;stroke-width:0.5;" width="462" x="1062" y="84.6699"/><ellipse cx="1261.75" cy="100.6699" fill="#ADD1B2" rx="11" ry="11" style="stroke:#181818;stroke-width:1.0;"/><path d="M1261.2188,107.5918 Q1259.4688,107.5918 1258.3281,106.8574 Q1257.2031,106.1074 1256.6406,104.7636 Q1256.0938,103.4043 1256.0938,101.6074 Q1256.0938,99.5761 1256.75,98.123 Q1257.4063,96.6699 1258.6875,95.8886 Q1259.9688,95.1074 1261.8438,95.1074 Q1262.7344,95.1074 1263.4063,95.2949 Q1264.0781,95.4668 1264.7656,95.8105 L1263.9531,97.8261 Q1263.3281,97.5136 1262.7813,97.3886 Q1262.25,97.2636 1261.7656,97.2636 Q1260.5938,97.2636 1259.8906,97.7949 Q1259.1875,98.3261 1258.8906,99.2793 Q1258.5938,100.2324 1258.5938,101.498 Q1258.5938,103.5136 1259.3125,104.4824 Q1260.0313,105.4355 1261.625,105.4355 Q1262.2188,105.4355 1262.8438,105.2793 Q1263.4688,105.123 1264.2969,104.748 L1264.2969,106.9668 Q1263.5625,107.2793 1262.7656,107.4355 Q1261.9844,107.5918 1261.2188,107.5918 Z " fill="#000000"/><text fill="#000000" font-family="sans-serif" font-size="14" lengthAdjust="spacing" textLength="54" x="1282.25" y="106.1019">Elevator</text><line style="stroke:#181818;stroke-width:0.5;" x1="1063" x2="1523" y1="116.6699" y2="116.6699"/><rect fill="none" height="6" style="stroke:#C82930;stroke-width:1.0;" width="6" x="1070" y="128.7039"/><text fill="#000000" font-family="sans-serif" font-size="14" lengthAdjust="spacing" textLength="39" x="1082" y="135.6358">id: int</text><rect fill="none" height="6" style="stroke:#C82930;stroke-width:1.0;" width="6" x="1070" y="147.7718"/><text fill="#000000" font-family="sans-serif" font-size="14" lengthAdjust="spacing" textLength="81" x="1082" y="154.7038">capacity: int</text><rect fill="none" height="6" style="stroke:#C82930;stroke-width:1.0;" width="6" x="1070" y="166.8397"/><text fill="#000000" font-family="sans-serif" font-size="14" lengthAdjust="spacing" textLength="165" x="1082" y="173.7717">peopleInside: PersonList</text><rect fill="none" height="6" style="stroke:#C82930;stroke-width:1.0;" width="6" x="1070" y="185.9076"/><text fill="#000000" font-family="sans-serif" font-size="14" lengthAdjust="spacing" textLength="109" x="1082" y="192.8396">currentFloor: int</text><rect fill="none" height="6" style="stroke:#C82930;stroke-width:1.0;" width="6" x="1070" y="204.9755"/><text fill="#000000" font-family="sans-serif" font-size="14" lengthAdjust="spacing" textLength="180" x="1082" y="211.9075">currentDirection: Direction</text><rect fill="none" height="6" style="stroke:#C82930;stroke-width:1.0;" width="6" x="1070" y="224.0434"/><text fill="#000000" font-family="sans-serif" font-size="14" lengthAdjust="spacing" textLength="200" x="1082" y="230.9754">floorsToGoList: FloorsToGoList</text><line style="stroke:#181818;stroke-width:0.5;" x1="1063" x2="1523" y1="239.0774" y2="239.0774"/><ellipse cx="1073" cy="254.1114" fill="#84BE84" rx="3" ry="3" style="stroke:#038048;stroke-width:1.0;"/><text fill="#000000" font-family="sans-serif" font-size="14" lengthAdjust="spacing" textLength="70" x="1082" y="258.0433">getId(): int</text><ellipse cx="1073" cy="273.1793" fill="#84BE84" rx="3" ry="3" style="stroke:#038048;stroke-width:1.0;"/><text fill="#000000" font-family="sans-serif" font-size="14" lengthAdjust="spacing" textLength="113" x="1082" y="277.1113">getCapacity(): int</text><ellipse cx="1073" cy="292.2472" fill="#84BE84" rx="3" ry="3" style="stroke:#038048;stroke-width:1.0;"/><text fill="#000000" font-family="sans-serif" font-size="14" lengthAdjust="spacing" textLength="198" x="1082" y="296.1792">setCapacity(int capacity): void</text><ellipse cx="1073" cy="311.3151" fill="#84BE84" rx="3" ry="3" style="stroke:#038048;stroke-width:1.0;"/><text fill="#000000" font-family="sans-serif" font-size="14" lengthAdjust="spacing" textLength="105" x="1082" y="315.2471">isFull(): boolean</text><ellipse cx="1073" cy="330.383" fill="#84BE84" rx="3" ry="3" style="stroke:#038048;stroke-width:1.0;"/><text fill="#000000" font-family="sans-serif" font-size="14" lengthAdjust="spacing" textLength="141" x="1082" y="334.315">getCurrentFloor(): int</text><ellipse cx="1073" cy="349.4509" fill="#84BE84" rx="3" ry="3" style="stroke:#038048;stroke-width:1.0;"/><text fill="#000000" font-family="sans-serif" font-size="14" lengthAdjust="spacing" textLength="254" x="1082" y="353.3829">setCurrentFloor(int currentFloor): void</text><ellipse cx="1073" cy="368.5189" fill="#84BE84" rx="3" ry="3" style="stroke:#038048;stroke-width:1.0;"/><text fill="#000000" font-family="sans-serif" font-size="14" lengthAdjust="spacing" textLength="160" x="1082" y="372.4508">getDirection(): Direction</text><ellipse cx="1073" cy="387.5868" fill="#84BE84" rx="3" ry="3" style="stroke:#038048;stroke-width:1.0;"/><text fill="#000000" font-family="sans-serif" font-size="14" lengthAdjust="spacing" textLength="250" x="1082" y="391.5188">setDirection(Direction direction): void</text><ellipse cx="1073" cy="406.6547" fill="#84BE84" rx="3" ry="3" style="stroke:#038048;stroke-width:1.0;"/><text fill="#000000" font-family="sans-serif" font-size="14" lengthAdjust="spacing" textLength="232" x="1082" y="410.5867">getFloorsToGoList(): FloorsToGoList</text><ellipse cx="1073" cy="425.7226" fill="#84BE84" rx="3" ry="3" style="stroke:#038048;stroke-width:1.0;"/><text fill="#000000" font-family="sans-serif" font-size="14" lengthAdjust="spacing" textLength="436" x="1082" y="429.6546">addFloorToGo(int floor, Direction direction, int currentFloor): void</text><ellipse cx="1073" cy="444.7905" fill="#84BE84" rx="3" ry="3" style="stroke:#038048;stroke-width:1.0;"/><text fill="#000000" font-family="sans-serif" font-size="14" lengthAdjust="spacing" textLength="214" x="1082" y="448.7225">removeFloorToGo(int floor): void</text><ellipse cx="1073" cy="463.8584" fill="#84BE84" rx="3" ry="3" style="stroke:#038048;stroke-width:1.0;"/><text fill="#000000" font-family="sans-serif" font-size="14" lengthAdjust="spacing" textLength="246" x="1082" y="467.7904">getPeopleInside(): ArrayList&lt;Person&gt;</text><ellipse cx="1073" cy="482.9264" fill="#84BE84" rx="3" ry="3" style="stroke:#038048;stroke-width:1.0;"/><text fill="#000000" font-family="sans-serif" font-size="14" lengthAdjust="spacing" textLength="281" x="1082" y="486.8583">addPeopleInside(Person newPerson): void</text><ellipse cx="1073" cy="501.9943" fill="#84BE84" rx="3" ry="3" style="stroke:#038048;stroke-width:1.0;"/><text fill="#000000" font-family="sans-serif" font-size="14" lengthAdjust="spacing" textLength="216" x="1082" y="505.9263">removePeopleInside(int id): void</text><ellipse cx="1073" cy="521.0622" fill="#84BE84" rx="3" ry="3" style="stroke:#038048;stroke-width:1.0;"/><text fill="#000000" font-family="sans-serif" font-size="14" lengthAdjust="spacing" textLength="375" x="1082" y="524.9942">updatePeopleInside(int id, Person updatedPerson): void</text><ellipse cx="1073" cy="540.1301" fill="#84BE84" rx="3" ry="3" style="stroke:#038048;stroke-width:1.0;"/><text fill="#000000" font-family="sans-serif" font-size="14" lengthAdjust="spacing" textLength="295" x="1082" y="544.0621">Elevator(int id, int capacity, int currentFloor)</text></g><!--class ElevatorRequest--><g id="elem_ElevatorRequest"><rect codeLine="70" fill="#F1F1F1" height="181.4754" id="ElevatorRequest" rx="2.5" ry="2.5" style="stroke:#181818;stroke-width:0.5;" width="387" x="87.5" y="688.4299"/><ellipse cx="222.25" cy="704.4299" fill="#ADD1B2" rx="11" ry="11" style="stroke:#181818;stroke-width:1.0;"/><path d="M221.7188,711.3518 Q219.9688,711.3518 218.8281,710.6174 Q217.7031,709.8674 217.1406,708.5236 Q216.5938,707.1643 216.5938,705.3674 Q216.5938,703.3361 217.25,701.883 Q217.9063,700.4299 219.1875,699.6486 Q220.4688,698.8674 222.3438,698.8674 Q223.2344,698.8674 223.9063,699.0549 Q224.5781,699.2268 225.2656,699.5705 L224.4531,701.5861 Q223.8281,701.2736 223.2813,701.1486 Q222.75,701.0236 222.2656,701.0236 Q221.0938,701.0236 220.3906,701.5549 Q219.6875,702.0861 219.3906,703.0393 Q219.0938,703.9924 219.0938,705.258 Q219.0938,707.2736 219.8125,708.2424 Q220.5313,709.1955 222.125,709.1955 Q222.7188,709.1955 223.3438,709.0393 Q223.9688,708.883 224.7969,708.508 L224.7969,710.7268 Q224.0625,711.0393 223.2656,711.1955 Q222.4844,711.3518 221.7188,711.3518 Z " fill="#000000"/><text fill="#000000" font-family="sans-serif" font-size="14" lengthAdjust="spacing" textLength="109" x="242.75" y="709.8619">ElevatorRequest</text><line style="stroke:#181818;stroke-width:0.5;" x1="88.5" x2="473.5" y1="720.4299" y2="720.4299"/><rect fill="none" height="6" style="stroke:#C82930;stroke-width:1.0;" width="6" x="95.5" y="732.4639"/><text fill="#000000" font-family="sans-serif" font-size="14" lengthAdjust="spacing" textLength="129" x="107.5" y="739.3958">direction: Direction</text><rect fill="none" height="6" style="stroke:#C82930;stroke-width:1.0;" width="6" x="95.5" y="751.5318"/><text fill="#000000" font-family="sans-serif" font-size="14" lengthAdjust="spacing" textLength="66" x="107.5" y="758.4638">origin: int</text><line style="stroke:#181818;stroke-width:0.5;" x1="88.5" x2="473.5" y1="766.5657" y2="766.5657"/><ellipse cx="98.5" cy="781.5997" fill="#84BE84" rx="3" ry="3" style="stroke:#038048;stroke-width:1.0;"/><text fill="#000000" font-family="sans-serif" font-size="14" lengthAdjust="spacing" textLength="160" x="107.5" y="785.5317">getDirection(): Direction</text><ellipse cx="98.5" cy="800.6676" fill="#84BE84" rx="3" ry="3" style="stroke:#038048;stroke-width:1.0;"/><text fill="#000000" font-family="sans-serif" font-size="14" lengthAdjust="spacing" textLength="99" x="107.5" y="804.5996">getOrigin(): int</text><ellipse cx="98.5" cy="819.7355" fill="#84BE84" rx="3" ry="3" style="stroke:#038048;stroke-width:1.0;"/><text fill="#000000" font-family="sans-serif" font-size="14" lengthAdjust="spacing" textLength="195" x="107.5" y="823.6675">isLinkedToElevator(): boolean</text><ellipse cx="98.5" cy="838.8034" fill="#84BE84" rx="3" ry="3" style="stroke:#038048;stroke-width:1.0;"/><text fill="#000000" font-family="sans-serif" font-size="14" lengthAdjust="spacing" textLength="361" x="107.5" y="842.7354">setLinkedToElevator(boolean isLinkedToElevator): void</text><ellipse cx="98.5" cy="857.8714" fill="#84BE84" rx="3" ry="3" style="stroke:#038048;stroke-width:1.0;"/><text fill="#000000" font-family="sans-serif" font-size="14" lengthAdjust="spacing" textLength="316" x="107.5" y="861.8033">ElevatorRequest(int Origin, Direction Direction)</text></g><!--class Floor--><g id="elem_Floor"><rect codeLine="80" fill="#F1F1F1" height="334.0188" id="Floor" rx="2.5" ry="2.5" style="stroke:#181818;stroke-width:0.5;" width="370" x="510" y="612.1599"/><ellipse cx="674.25" cy="628.1599" fill="#ADD1B2" rx="11" ry="11" style="stroke:#181818;stroke-width:1.0;"/><path d="M673.7188,635.0818 Q671.9688,635.0818 670.8281,634.3474 Q669.7031,633.5974 669.1406,632.2536 Q668.5938,630.8943 668.5938,629.0974 Q668.5938,627.0661 669.25,625.613 Q669.9063,624.1599 671.1875,623.3786 Q672.4688,622.5974 674.3438,622.5974 Q675.2344,622.5974 675.9063,622.7849 Q676.5781,622.9568 677.2656,623.3005 L676.4531,625.3161 Q675.8281,625.0036 675.2813,624.8786 Q674.75,624.7536 674.2656,624.7536 Q673.0938,624.7536 672.3906,625.2849 Q671.6875,625.8161 671.3906,626.7693 Q671.0938,627.7224 671.0938,628.988 Q671.0938,631.0036 671.8125,631.9724 Q672.5313,632.9255 674.125,632.9255 Q674.7188,632.9255 675.3438,632.7693 Q675.9688,632.613 676.7969,632.238 L676.7969,634.4568 Q676.0625,634.7693 675.2656,634.9255 Q674.4844,635.0818 673.7188,635.0818 Z " fill="#000000"/><text fill="#000000" font-family="sans-serif" font-size="14" lengthAdjust="spacing" textLength="33" x="694.75" y="633.5919">Floor</text><line style="stroke:#181818;stroke-width:0.5;" x1="511" x2="879" y1="644.1599" y2="644.1599"/><rect fill="none" height="6" style="stroke:#C82930;stroke-width:1.0;" width="6" x="518" y="656.1939"/><text fill="#000000" font-family="sans-serif" font-size="14" lengthAdjust="spacing" textLength="39" x="530" y="663.1258">id: int</text><rect fill="none" height="6" style="stroke:#C82930;stroke-width:1.0;" width="6" x="518" y="675.2618"/><text fill="#000000" font-family="sans-serif" font-size="14" lengthAdjust="spacing" textLength="82" x="530" y="682.1938">label: String</text><rect fill="none" height="6" style="stroke:#C82930;stroke-width:1.0;" width="6" x="518" y="694.3297"/><text fill="#000000" font-family="sans-serif" font-size="14" lengthAdjust="spacing" textLength="176" x="530" y="701.2617">peopleOnFloor: PersonList</text><rect fill="none" height="6" style="stroke:#C82930;stroke-width:1.0;" width="6" x="518" y="713.3976"/><text fill="#000000" font-family="sans-serif" font-size="14" lengthAdjust="spacing" textLength="172" x="530" y="720.3296">waitingPeople: PersonList</text><line style="stroke:#181818;stroke-width:0.5;" x1="511" x2="879" y1="728.4316" y2="728.4316"/><ellipse cx="521" cy="743.4655" fill="#84BE84" rx="3" ry="3" style="stroke:#038048;stroke-width:1.0;"/><text fill="#000000" font-family="sans-serif" font-size="14" lengthAdjust="spacing" textLength="70" x="530" y="747.3975">getId(): int</text><ellipse cx="521" cy="762.5334" fill="#84BE84" rx="3" ry="3" style="stroke:#038048;stroke-width:1.0;"/><text fill="#000000" font-family="sans-serif" font-size="14" lengthAdjust="spacing" textLength="257" x="530" y="766.4654">getPeopleOnFloor(): ArrayList&lt;Person&gt;</text><ellipse cx="521" cy="781.6014" fill="#84BE84" rx="3" ry="3" style="stroke:#038048;stroke-width:1.0;"/><text fill="#000000" font-family="sans-serif" font-size="14" lengthAdjust="spacing" textLength="266" x="530" y="785.5333">addPersonOnFloor(Person person): void</text><ellipse cx="521" cy="800.6693" fill="#84BE84" rx="3" ry="3" style="stroke:#038048;stroke-width:1.0;"/><text fill="#000000" font-family="sans-serif" font-size="14" lengthAdjust="spacing" textLength="344" x="530" y="804.6013">updatePersonOnFloor(Person updatedPerson): void</text><ellipse cx="521" cy="819.7372" fill="#84BE84" rx="3" ry="3" style="stroke:#038048;stroke-width:1.0;"/><text fill="#000000" font-family="sans-serif" font-size="14" lengthAdjust="spacing" textLength="290" x="530" y="823.6692">removePersonOnFloor(Person person): void</text><ellipse cx="521" cy="838.8051" fill="#84BE84" rx="3" ry="3" style="stroke:#038048;stroke-width:1.0;"/><text fill="#000000" font-family="sans-serif" font-size="14" lengthAdjust="spacing" textLength="256" x="530" y="842.7371">getWaitingPeople(): ArrayList&lt;Person&gt;</text><ellipse cx="521" cy="857.873" fill="#84BE84" rx="3" ry="3" style="stroke:#038048;stroke-width:1.0;"/><text fill="#000000" font-family="sans-serif" font-size="14" lengthAdjust="spacing" textLength="265" x="530" y="861.805">addWaitingPerson(Person person): void</text><ellipse cx="521" cy="876.9409" fill="#84BE84" rx="3" ry="3" style="stroke:#038048;stroke-width:1.0;"/><text fill="#000000" font-family="sans-serif" font-size="14" lengthAdjust="spacing" textLength="289" x="530" y="880.8729">removeWaitingPerson(Person person): void</text><ellipse cx="521" cy="896.0089" fill="#84BE84" rx="3" ry="3" style="stroke:#038048;stroke-width:1.0;"/><text fill="#000000" font-family="sans-serif" font-size="14" lengthAdjust="spacing" textLength="115" x="530" y="899.9408">getLabel(): String</text><ellipse cx="521" cy="915.0768" fill="#84BE84" rx="3" ry="3" style="stroke:#038048;stroke-width:1.0;"/><text fill="#000000" font-family="sans-serif" font-size="14" lengthAdjust="spacing" textLength="178" x="530" y="919.0088">setLabel(String label): void</text><ellipse cx="521" cy="934.1447" fill="#84BE84" rx="3" ry="3" style="stroke:#038048;stroke-width:1.0;"/><text fill="#000000" font-family="sans-serif" font-size="14" lengthAdjust="spacing" textLength="162" x="530" y="938.0767">Floor(int id, String label)</text></g><!--class FloorRequest--><g id="elem_FloorRequest"><rect codeLine="98" fill="#F1F1F1" height="143.3396" id="FloorRequest" rx="2.5" ry="2.5" style="stroke:#181818;stroke-width:0.5;" width="318" x="915" y="707.4999"/><ellipse cx="1025.75" cy="723.4999" fill="#ADD1B2" rx="11" ry="11" style="stroke:#181818;stroke-width:1.0;"/><path d="M1025.2188,730.4218 Q1023.4688,730.4218 1022.3281,729.6874 Q1021.2031,728.9374 1020.6406,727.5936 Q1020.0938,726.2343 1020.0938,724.4374 Q1020.0938,722.4061 1020.75,720.953 Q1021.4063,719.4999 1022.6875,718.7186 Q1023.9688,717.9374 1025.8438,717.9374 Q1026.7344,717.9374 1027.4063,718.1249 Q1028.0781,718.2968 1028.7656,718.6405 L1027.9531,720.6561 Q1027.3281,720.3436 1026.7813,720.2186 Q1026.25,720.0936 1025.7656,720.0936 Q1024.5938,720.0936 1023.8906,720.6249 Q1023.1875,721.1561 1022.8906,722.1093 Q1022.5938,723.0624 1022.5938,724.328 Q1022.5938,726.3436 1023.3125,727.3124 Q1024.0313,728.2655 1025.625,728.2655 Q1026.2188,728.2655 1026.8438,728.1093 Q1027.4688,727.953 1028.2969,727.578 L1028.2969,729.7968 Q1027.5625,730.1093 1026.7656,730.2655 Q1025.9844,730.4218 1025.2188,730.4218 Z " fill="#000000"/><text fill="#000000" font-family="sans-serif" font-size="14" lengthAdjust="spacing" textLength="88" x="1046.25" y="728.9319">FloorRequest</text><line style="stroke:#181818;stroke-width:0.5;" x1="916" x2="1232" y1="739.4999" y2="739.4999"/><rect fill="none" height="6" style="stroke:#C82930;stroke-width:1.0;" width="6" x="923" y="751.5339"/><text fill="#000000" font-family="sans-serif" font-size="14" lengthAdjust="spacing" textLength="102" x="935" y="758.4658">destination: int</text><rect fill="none" height="6" style="stroke:#C82930;stroke-width:1.0;" width="6" x="923" y="770.6018"/><text fill="#000000" font-family="sans-serif" font-size="14" lengthAdjust="spacing" textLength="94" x="935" y="777.5338">elevatorId: int</text><line style="stroke:#181818;stroke-width:0.5;" x1="916" x2="1232" y1="785.6357" y2="785.6357"/><ellipse cx="926" cy="800.6697" fill="#84BE84" rx="3" ry="3" style="stroke:#038048;stroke-width:1.0;"/><text fill="#000000" font-family="sans-serif" font-size="14" lengthAdjust="spacing" textLength="133" x="935" y="804.6017">getDestination(): int</text><ellipse cx="926" cy="819.7376" fill="#84BE84" rx="3" ry="3" style="stroke:#038048;stroke-width:1.0;"/><text fill="#000000" font-family="sans-serif" font-size="14" lengthAdjust="spacing" textLength="124" x="935" y="823.6696">getElevatorId(): int</text><ellipse cx="926" cy="838.8055" fill="#84BE84" rx="3" ry="3" style="stroke:#038048;stroke-width:1.0;"/><text fill="#000000" font-family="sans-serif" font-size="14" lengthAdjust="spacing" textLength="292" x="935" y="842.7375">FloorRequest(int destination, int elevatorId)</text></g><!--class Person--><g id="elem_Person"><rect codeLine="106" fill="#F1F1F1" height="219.6113" id="Person" rx="2.5" ry="2.5" style="stroke:#181818;stroke-width:0.5;" width="334" x="114" y="1006.1799"/><ellipse cx="253.75" cy="1022.1799" fill="#ADD1B2" rx="11" ry="11" style="stroke:#181818;stroke-width:1.0;"/><path d="M253.2188,1029.1018 Q251.4688,1029.1018 250.3281,1028.3674 Q249.2031,1027.6174 248.6406,1026.2736 Q248.0938,1024.9143 248.0938,1023.1174 Q248.0938,1021.0861 248.75,1019.633 Q249.4063,1018.1799 250.6875,1017.3986 Q251.9688,1016.6174 253.8438,1016.6174 Q254.7344,1016.6174 255.4063,1016.8049 Q256.0781,1016.9768 256.7656,1017.3205 L255.9531,1019.3361 Q255.3281,1019.0236 254.7813,1018.8986 Q254.25,1018.7736 253.7656,1018.7736 Q252.5938,1018.7736 251.8906,1019.3049 Q251.1875,1019.8361 250.8906,1020.7893 Q250.5938,1021.7424 250.5938,1023.008 Q250.5938,1025.0236 251.3125,1025.9924 Q252.0313,1026.9455 253.625,1026.9455 Q254.2188,1026.9455 254.8438,1026.7893 Q255.4688,1026.633 256.2969,1026.258 L256.2969,1028.4768 Q255.5625,1028.7893 254.7656,1028.9455 Q253.9844,1029.1018 253.2188,1029.1018 Z " fill="#000000"/><text fill="#000000" font-family="sans-serif" font-size="14" lengthAdjust="spacing" textLength="46" x="274.25" y="1027.6119">Person</text><line style="stroke:#181818;stroke-width:0.5;" x1="115" x2="447" y1="1038.1799" y2="1038.1799"/><rect fill="none" height="6" style="stroke:#C82930;stroke-width:1.0;" width="6" x="122" y="1050.2139"/><text fill="#000000" font-family="sans-serif" font-size="14" lengthAdjust="spacing" textLength="39" x="134" y="1057.1458">id: int</text><rect fill="none" height="6" style="stroke:#C82930;stroke-width:1.0;" width="6" x="122" y="1069.2818"/><text fill="#000000" font-family="sans-serif" font-size="14" lengthAdjust="spacing" textLength="109" x="134" y="1076.2138">timeOnFloor: int</text><rect fill="none" height="6" style="stroke:#C82930;stroke-width:1.0;" width="6" x="122" y="1088.3497"/><text fill="#000000" font-family="sans-serif" font-size="14" lengthAdjust="spacing" textLength="102" x="134" y="1095.2817">destination: int</text><line style="stroke:#181818;stroke-width:0.5;" x1="115" x2="447" y1="1103.3836" y2="1103.3836"/><ellipse cx="125" cy="1118.4176" fill="#84BE84" rx="3" ry="3" style="stroke:#038048;stroke-width:1.0;"/><text fill="#000000" font-family="sans-serif" font-size="14" lengthAdjust="spacing" textLength="70" x="134" y="1122.3496">getId(): int</text><ellipse cx="125" cy="1137.4855" fill="#84BE84" rx="3" ry="3" style="stroke:#038048;stroke-width:1.0;"/><text fill="#000000" font-family="sans-serif" font-size="14" lengthAdjust="spacing" textLength="142" x="134" y="1141.4175">getTimeOnFloor(): int</text><ellipse cx="125" cy="1156.5534" fill="#84BE84" rx="3" ry="3" style="stroke:#038048;stroke-width:1.0;"/><text fill="#000000" font-family="sans-serif" font-size="14" lengthAdjust="spacing" textLength="255" x="134" y="1160.4854">setTimeOnFloor(int timeOnFloor): void</text><ellipse cx="125" cy="1175.6214" fill="#84BE84" rx="3" ry="3" style="stroke:#038048;stroke-width:1.0;"/><text fill="#000000" font-family="sans-serif" font-size="14" lengthAdjust="spacing" textLength="133" x="134" y="1179.5533">getDestination(): int</text><ellipse cx="125" cy="1194.6893" fill="#84BE84" rx="3" ry="3" style="stroke:#038048;stroke-width:1.0;"/><text fill="#000000" font-family="sans-serif" font-size="14" lengthAdjust="spacing" textLength="239" x="134" y="1198.6213">setDestination(int destination): void</text><ellipse cx="125" cy="1213.7572" fill="#84BE84" rx="3" ry="3" style="stroke:#038048;stroke-width:1.0;"/><text fill="#000000" font-family="sans-serif" font-size="14" lengthAdjust="spacing" textLength="308" x="134" y="1217.6892">Person(int id, int timeOnFloor, int destination)</text></g><!--SRC=[dLRRJXin47tVhx3Kbw3I7uWgf9925OcMg23rsSGcMF7QOUq58SI_rzVTyThU07c0jUTuRZup7iqqf-WdmxiEjnWHYdvqZptJTAlx3Yz-IqAvL6Z5iQBgf6dKdea3DbZqsY3p-oCrFSVR_QwJlI0hoMM7lZm_60KthTpJvgrf7fZHIjk3Va4jRUzefvhcO8xW7KLElmgwjiQ8GkSzuuI9NTYqls_edalPgIMwjF-lcD90HZbzmjg9ByBd1B6LGdUIRx2WV8bMO9M0Ug6frR8ANuFmAzfHxKohnSdIPAZ3BzR4TxTt1d2O4BUtkD6TZO7ZEyhDaIV9283r1u8rzKZtrmUO0plQogS0P48ZHdACyIt6FN4lRayyZDjEunQRks3wvHIvLTzrLFXOQsuFn-F7S0Cr_nE3bH3WhTWeYhSKNKZ0S95STMx71Byn5ol5MYG-nG3Mv1Hv03guVpCghiLuBPgrDAppFFeTGfLc0cjMKXevlpXncwPendf8mdijyFulVUoDSa3_i3Ef0aUn4Nm9bWaoOLJ4soj9E1K45Me5wMAodlfyZ32VLXFhDNCVxfOADrg4YoHpipNwYTCFM9LoVISbfrYam2oa79MMKSwceMOXanXPMex2PXYwmdJ_GEM1qxLGfgSlGwbCcosWVgRMotwophmlfXAMQFZCclsj_2Mjwi3KOPtUyfhOF40hlfi4_tEX0aBO__AROUgovxoSPci2n5as0m77cwjHEIJ3wiipuxIEcE4BaVXLBuGXVLPrDQ6n2gp8kNpl6rZ1r7lU2r0PgSQYdnl0hVGTypmxctPX00zDMz3dJQLlUr-IGxNNoByn1UZmE7W4gTcQl7SXLVM7jbwciOV0QYNprICxjcEYK1D7sMKmr-vmJcUchfZOKt8hXzYATM48cW43gg2ZdhdOI6sgl4-GXCDN8ND-d9hlRcugMo8_esNTBJpabVRsZ9bvntUU7KNCN5_QG0ll8ZaSDOwC9f6tXID721kBumF6J33_O2hU4So0jx9Z-hrB7pfYNBgoDsjTcTojPwOJpa_cSDG-HGcsmhLYYOx3tfHxuwXPAj7nN94-5yFXN9mC89E9q_USqNGXbf3R-S81S-vKL0rvhXnkHtt59nJA9tDs-G6TovzAvKU7ya0wsCEpEHyg23bzQ_u3]--></g></svg>