<?xml version="1.0" encoding="UTF-8" standalone="no"?><svg xmlns="http://www.w3.org/2000/svg" xmlns:xlink="http://www.w3.org/1999/xlink" contentStyleType="text/css" height="252px" preserveAspectRatio="none" style="width:169px;height:252px;background:#FFFFFF;" version="1.1" viewBox="0 0 169 252" width="169px" zoomAndPan="magnify"><defs/><g><ellipse cx="84.5" cy="16" fill="#222222" rx="10" ry="10" style="stroke:none;stroke-width:1.0;"/><g id="AscensorParadado"><rect fill="#F1F1F1" height="50" rx="12.5" ry="12.5" style="stroke:#181818;stroke-width:0.5;" width="141" x="14" y="86"/><line style="stroke:#181818;stroke-width:0.5;" x1="14" x2="155" y1="113.6094" y2="113.6094"/><text fill="#000000" font-family="sans-serif" font-size="14" lengthAdjust="spacing" textLength="121" x="24" y="105.5332">AscensorParadado</text></g><g id="AscensorMoviendose"><rect fill="#F1F1F1" height="50" rx="12.5" ry="12.5" style="stroke:#181818;stroke-width:0.5;" width="155" x="7" y="196"/><line style="stroke:#181818;stroke-width:0.5;" x1="7" x2="162" y1="223.6094" y2="223.6094"/><text fill="#000000" font-family="sans-serif" font-size="14" lengthAdjust="spacing" textLength="135" x="17" y="215.5332">AscensorMoviendose</text></g><!--MD5=[559879ae27e6d7f9f1185f25e7941fab]
link *start to AscensorParadado--><g id="link_*start_AscensorParadado"><path d="M84.5,26.26 C84.5,38.86 84.5,61.98 84.5,80.74 " fill="none" id="*start-to-AscensorParadado" style="stroke:#181818;stroke-width:1.0;"/><polygon fill="#181818" points="84.5,85.91,88.5,76.91,84.5,80.91,80.5,76.91,84.5,85.91" style="stroke:#181818;stroke-width:1.0;"/></g><!--MD5=[aad4fb96d9081fa8ac0f8960894557fa]
link AscensorParadado to AscensorMoviendose--><g id="link_AscensorParadado_AscensorMoviendose"><path d="M73.66,136.24 C71.35,152.36 71.14,173.62 73.02,190.69 " fill="none" id="AscensorParadado-to-AscensorMoviendose" style="stroke:#181818;stroke-width:1.0;"/><polygon fill="#181818" points="73.67,195.84,76.5061,186.4083,73.041,190.8797,68.5696,187.4147,73.67,195.84" style="stroke:#181818;stroke-width:1.0;"/></g><!--MD5=[c94c60a380273c5444779cbe13b529cb]
link AscensorMoviendose to AscensorParadado--><g id="link_AscensorMoviendose_AscensorParadado"><path d="M95.97,195.84 C98.42,179.74 98.65,158.48 96.67,141.39 " fill="none" id="AscensorMoviendose-to-AscensorParadado" style="stroke:#181818;stroke-width:1.0;"/><polygon fill="#181818" points="95.98,136.24,93.1974,145.6876,96.6371,141.1966,101.128,144.6363,95.98,136.24" style="stroke:#181818;stroke-width:1.0;"/></g><!--MD5=[6c0f3f39d2b5fed518568c95cc5553ca]
@startuml
[*] - -> AscensorParadado
AscensorParadado - -> AscensorMoviendose
AscensorMoviendose - -> AscensorParadado 
@enduml

PlantUML version 1.2022.7(Mon Aug 22 19:01:30 CEST 2022)
(GPL source distribution)
Java Runtime: OpenJDK Runtime Environment
JVM: OpenJDK 64-Bit Server VM
Default Encoding: Cp1252
Language: es
Country: ES
--></g></svg>