<?xml version="1.0" encoding="UTF-8" standalone="no"?><svg xmlns="http://www.w3.org/2000/svg" xmlns:xlink="http://www.w3.org/1999/xlink" contentStyleType="text/css" height="472px" preserveAspectRatio="none" style="width:287px;height:472px;background:#FFFFFF;" version="1.1" viewBox="0 0 287 472" width="287px" zoomAndPan="magnify"><defs/><g><ellipse cx="79" cy="16" fill="#222222" rx="10" ry="10" style="stroke:none;stroke-width:1.0;"/><g id="PlantaBaja"><rect fill="#F1F1F1" height="50" rx="12.5" ry="12.5" style="stroke:#181818;stroke-width:0.5;" width="88" x="35" y="86"/><line style="stroke:#181818;stroke-width:0.5;" x1="35" x2="123" y1="113.6094" y2="113.6094"/><text fill="#000000" font-family="sans-serif" font-size="14" lengthAdjust="spacing" textLength="68" x="45" y="105.5332">PlantaBaja</text></g><ellipse cx="16" cy="221" fill="none" rx="10" ry="10" style="stroke:#222222;stroke-width:1.0;"/><ellipse cx="16.5" cy="221.5" fill="#222222" rx="6" ry="6" style="stroke:none;stroke-width:1.0;"/><g id="EsperandoAscensor"><rect fill="#F1F1F1" height="50" rx="12.5" ry="12.5" style="stroke:#181818;stroke-width:0.5;" width="148" x="132" y="196"/><line style="stroke:#181818;stroke-width:0.5;" x1="132" x2="280" y1="223.6094" y2="223.6094"/><text fill="#000000" font-family="sans-serif" font-size="14" lengthAdjust="spacing" textLength="128" x="142" y="215.5332">EsperandoAscensor</text></g><g id="Ascensor"><rect fill="#F1F1F1" height="50" rx="12.5" ry="12.5" style="stroke:#181818;stroke-width:0.5;" width="79" x="73.5" y="306"/><line style="stroke:#181818;stroke-width:0.5;" x1="73.5" x2="152.5" y1="333.6094" y2="333.6094"/><text fill="#000000" font-family="sans-serif" font-size="14" lengthAdjust="spacing" textLength="59" x="83.5" y="325.5332">Ascensor</text></g><g id="PlantaDestino"><rect fill="#F1F1F1" height="50" rx="12.5" ry="12.5" style="stroke:#181818;stroke-width:0.5;" width="108" x="105" y="416"/><line style="stroke:#181818;stroke-width:0.5;" x1="105" x2="213" y1="443.6094" y2="443.6094"/><text fill="#000000" font-family="sans-serif" font-size="14" lengthAdjust="spacing" textLength="88" x="115" y="435.5332">PlantaDestino</text></g><!--MD5=[390e92de82a3082a793df9d46ebd4383]
link *start to PlantaBaja--><g id="link_*start_PlantaBaja"><path d="M79,26.26 C79,38.86 79,61.98 79,80.74 " fill="none" id="*start-to-PlantaBaja" style="stroke:#181818;stroke-width:1.0;"/><polygon fill="#181818" points="79,85.91,83,76.91,79,80.91,75,76.91,79,85.91" style="stroke:#181818;stroke-width:1.0;"/></g><!--MD5=[6f9c51a86afb61aaa2ff240039a53620]
link PlantaBaja to *end--><g id="link_PlantaBaja_*end"><path d="M64.86,136.24 C52,158.29 33.51,189.98 23.36,207.38 " fill="none" id="PlantaBaja-to-*end" style="stroke:#181818;stroke-width:1.0;"/><polygon fill="#181818" points="20.73,211.89,28.7176,206.1282,23.2476,207.5701,21.8057,202.1001,20.73,211.89" style="stroke:#181818;stroke-width:1.0;"/></g><!--MD5=[ca12eda25b53eee53edee1dd3af78891]
link PlantaBaja to EsperandoAscensor--><g id="link_PlantaBaja_EsperandoAscensor"><path d="M107.5,136.24 C127.11,152.91 153.19,175.09 173.59,192.44 " fill="none" id="PlantaBaja-to-EsperandoAscensor" style="stroke:#181818;stroke-width:1.0;"/><polygon fill="#181818" points="177.59,195.84,173.3241,186.9629,173.7807,192.6013,168.1423,193.0579,177.59,195.84" style="stroke:#181818;stroke-width:1.0;"/></g><!--MD5=[ea51804251a21ccc3e9c4a592590994f]
link EsperandoAscensor to Ascensor--><g id="link_EsperandoAscensor_Ascensor"><path d="M185.13,246.24 C170.89,262.77 151.99,284.72 137.11,302.01 " fill="none" id="EsperandoAscensor-to-Ascensor" style="stroke:#181818;stroke-width:1.0;"/><polygon fill="#181818" points="133.8,305.84,142.7111,301.6457,137.0692,302.0568,136.6581,296.415,133.8,305.84" style="stroke:#181818;stroke-width:1.0;"/></g><!--MD5=[acb20621b32974794605d46bcc348f66]
link Ascensor to PlantaDestino--><g id="link_Ascensor_PlantaDestino"><path d="M123.32,356.24 C130.25,372.5 139.4,393.99 146.7,411.13 " fill="none" id="Ascensor-to-PlantaDestino" style="stroke:#181818;stroke-width:1.0;"/><polygon fill="#181818" points="148.71,415.84,148.8672,405.9924,146.7525,411.2391,141.5058,409.1244,148.71,415.84" style="stroke:#181818;stroke-width:1.0;"/></g><!--MD5=[81aa95bb52bb493ea5c4804a9ced40fc]
link PlantaDestino to EsperandoAscensor--><g id="link_PlantaDestino_EsperandoAscensor"><path d="M164.23,415.73 C172.93,375.39 190.33,294.69 199.69,251.27 " fill="none" id="PlantaDestino-to-EsperandoAscensor" style="stroke:#181818;stroke-width:1.0;"/><polygon fill="#181818" points="200.79,246.16,194.9771,254.1105,199.7326,251.0469,202.7962,255.8024,200.79,246.16" style="stroke:#181818;stroke-width:1.0;"/></g><!--MD5=[214a5a2534a173e88be641bfa69ef452]
link Ascensor to PlantaBaja--><g id="link_Ascensor_PlantaBaja"><path d="M109.21,305.73 C102.92,265.39 90.34,184.69 83.56,141.27 " fill="none" id="Ascensor-to-PlantaBaja" style="stroke:#181818;stroke-width:1.0;"/><polygon fill="#181818" points="82.77,136.16,80.2057,145.6692,83.541,141.1002,88.11,144.4355,82.77,136.16" style="stroke:#181818;stroke-width:1.0;"/></g><!--MD5=[f3b61a9f015b3f0881ec118345097b53]
@startuml
[*] - -> PlantaBaja
PlantaBaja - -> [*]
PlantaBaja - -> EsperandoAscensor
EsperandoAscensor - -> Ascensor
Ascensor - -> PlantaDestino
PlantaDestino - -> EsperandoAscensor
Ascensor - -> PlantaBaja
@enduml

PlantUML version 1.2022.7(Mon Aug 22 19:01:30 CEST 2022)
(GPL source distribution)
Java Runtime: OpenJDK Runtime Environment
JVM: OpenJDK 64-Bit Server VM
Default Encoding: Cp1252
Language: es
Country: ES
--></g></svg>