<?xml version="1.0" encoding="windows-1252" standalone="no"?>
<svg xmlns="http://www.w3.org/2000/svg" xmlns:xlink="http://www.w3.org/1999/xlink" contentStyleType="text/css" height="397px" preserveAspectRatio="none" style="width:428px;height:397px;background:#FFFFFF;" version="1.1" viewBox="0 0 428 397" width="428px" zoomAndPan="magnify"><defs/><g><ellipse cx="199" cy="16" fill="#222222" rx="10" ry="10" style="stroke:#222222;stroke-width:1.0;"/><g id="NoCreado"><rect fill="#F1F1F1" height="50" rx="12.5" ry="12.5" style="stroke:#181818;stroke-width:0.5;" width="90" x="154" y="87"/><line style="stroke:#181818;stroke-width:0.5;" x1="154" x2="244" y1="113.2969" y2="113.2969"/><text fill="#000000" font-family="sans-serif" font-size="14" lengthAdjust="spacing" textLength="70" x="164" y="104.9951">NoCreado</text></g><g id="Creado"><rect fill="#F1F1F1" height="50" rx="12.5" ry="12.5" style="stroke:#181818;stroke-width:0.5;" width="71" x="163.5" y="214"/><line style="stroke:#181818;stroke-width:0.5;" x1="163.5" x2="234.5" y1="240.2969" y2="240.2969"/><text fill="#000000" font-family="sans-serif" font-size="14" lengthAdjust="spacing" textLength="51" x="173.5" y="231.9951">Creado</text></g><g id="EjecutandoCicloDeSimulacion"><rect fill="#F1F1F1" height="50" rx="12.5" ry="12.5" style="stroke:#181818;stroke-width:0.5;" width="232" x="7" y="341"/><line style="stroke:#181818;stroke-width:0.5;" x1="7" x2="239" y1="367.2969" y2="367.2969"/><text fill="#000000" font-family="sans-serif" font-size="14" lengthAdjust="spacing" textLength="212" x="17" y="358.9951">EjecutandoCicloDeSimulacion</text></g><ellipse cx="366" cy="366" fill="none" rx="11" ry="11" style="stroke:#222222;stroke-width:1.0;"/><ellipse cx="366" cy="366" fill="#222222" rx="6" ry="6" style="stroke:#222222;stroke-width:1.0;"/><!--link *start* to NoCreado--><g id="link_*start*_NoCreado"><path d="M199,26.013 C199,39.891 199,60.965 199,80.84 " fill="none" id="*start*-to-NoCreado" style="stroke:#181818;stroke-width:1.0;"/><polygon fill="#181818" points="199,86.84,203,77.84,199,81.84,195,77.84,199,86.84" style="stroke:#181818;stroke-width:1.0;"/></g><!--link NoCreado to Creado--><g id="link_NoCreado_Creado"><path d="M199,137.101 C199,159.236 199,185.861 199,207.973 " fill="none" id="NoCreado-to-Creado" style="stroke:#181818;stroke-width:1.0;"/><polygon fill="#181818" points="199,213.973,203,204.973,199,208.973,195,204.973,199,213.973" style="stroke:#181818;stroke-width:1.0;"/><text fill="#000000" font-family="sans-serif" font-size="13" lengthAdjust="spacing" textLength="81" x="200" y="180.0669">Crear Mundo</text></g><!--link Creado to EjecutandoCicloDeSimulacion--><g id="link_Creado_EjecutandoCicloDeSimulacion"><path d="M163.485,241.18 C126.727,244.527 70.9868,256.021 44,294 C31.3428,311.8129 42.1996,325.2379 63.0253,337.8614 " fill="none" id="Creado-to-EjecutandoCicloDeSimulacion" style="stroke:#181818;stroke-width:1.0;"/><polygon fill="#181818" points="68.1563,340.9715,62.5333,332.8856,63.8805,338.3797,58.3864,339.7269,68.1563,340.9715" style="stroke:#181818;stroke-width:1.0;"/><text fill="#000000" font-family="sans-serif" font-size="13" lengthAdjust="spacing" textLength="110" x="45" y="307.0669">Iniciar Simulación</text></g><!--link EjecutandoCicloDeSimulacion to Creado--><g id="link_EjecutandoCicloDeSimulacion_Creado"><path d="M140.279,340.8741 C146.679,331.6588 153.867,320.97 160,311 C169.432,295.6676 176.3675,283.2169 183.7595,269.2999 " fill="none" id="EjecutandoCicloDeSimulacion-to-Creado" style="stroke:#181818;stroke-width:1.0;"/><polygon fill="#181818" points="186.574,264.001,178.8196,270.073,184.2286,268.4168,185.8848,273.8257,186.574,264.001" style="stroke:#181818;stroke-width:1.0;"/><text fill="#000000" font-family="sans-serif" font-size="13" lengthAdjust="spacing" textLength="125" x="171" y="307.0669">Detener Simulación</text></g><!--link Creado to *end*--><g id="link_Creado_*end*"><path d="M234.922,254.093 C256.469,263.534 283.728,277.282 305,294 C328.766,312.6776 346.8002,336.7495 356.7442,351.2218 " fill="none" id="Creado-to-*end*" style="stroke:#181818;stroke-width:1.0;"/><polygon fill="#181818" points="360.142,356.167,358.342,346.484,357.3105,352.046,351.7485,351.0145,360.142,356.167" style="stroke:#181818;stroke-width:1.0;"/><text fill="#000000" font-family="sans-serif" font-size="13" lengthAdjust="spacing" textLength="97" x="323" y="307.0669">Destruir Mundo</text></g><!--SRC=[YzQALT3LjLFmotSkIarCoUTI008O1om3PLg16KKAlgLvK5L8QbopKfDBInA1CiwPoJdvBgd1cRcbEOd9cVbvG8sUUPd9cK2jCC73c_F01k3JXMApIsf9QbugfW58BeW6-WEaiBYag3GJwae0]--></g></svg>