<?xml version="1.0" encoding="windows-1252" standalone="no"?>
<svg xmlns="http://www.w3.org/2000/svg" xmlns:xlink="http://www.w3.org/1999/xlink" contentStyleType="text/css" height="540px" preserveAspectRatio="none" style="width:230px;height:540px;background:#FFFFFF;" version="1.1" viewBox="0 0 230 540" width="230px" zoomAndPan="magnify"><defs/><g><ellipse cx="89.5" cy="16" fill="#222222" rx="10" ry="10" style="stroke:#222222;stroke-width:1.0;"/><g id="TiempoInicial"><rect fill="#F1F1F1" height="50" rx="12.5" ry="12.5" style="stroke:#181818;stroke-width:0.5;" width="116" x="31.5" y="103"/><line style="stroke:#181818;stroke-width:0.5;" x1="31.5" x2="147.5" y1="129.2969" y2="129.2969"/><text fill="#000000" font-family="sans-serif" font-size="14" lengthAdjust="spacing" textLength="96" x="41.5" y="120.9951">TiempoInicial</text></g><g id="Mañana"><rect fill="#F1F1F1" height="50" rx="12.5" ry="12.5" style="stroke:#181818;stroke-width:0.5;" width="74" x="52.5" y="230"/><line style="stroke:#181818;stroke-width:0.5;" x1="52.5" x2="126.5" y1="256.2969" y2="256.2969"/><text fill="#000000" font-family="sans-serif" font-size="14" lengthAdjust="spacing" textLength="54" x="62.5" y="247.9951">Mañana</text></g><g id="Tarde"><rect fill="#F1F1F1" height="50" rx="12.5" ry="12.5" style="stroke:#181818;stroke-width:0.5;" width="61" x="7" y="357"/><line style="stroke:#181818;stroke-width:0.5;" x1="7" x2="68" y1="383.2969" y2="383.2969"/><text fill="#000000" font-family="sans-serif" font-size="14" lengthAdjust="spacing" textLength="41" x="17" y="374.9951">Tarde</text></g><g id="Noche"><rect fill="#F1F1F1" height="50" rx="12.5" ry="12.5" style="stroke:#181818;stroke-width:0.5;" width="65" x="55" y="484"/><line style="stroke:#181818;stroke-width:0.5;" x1="55" x2="120" y1="510.2969" y2="510.2969"/><text fill="#000000" font-family="sans-serif" font-size="14" lengthAdjust="spacing" textLength="45" x="65" y="501.9951">Noche</text></g><!--link *start* to TiempoInicial--><g id="link_*start*_TiempoInicial"><path d="M89.5,26.002 C89.5,42.627 89.5,72.655 89.5,96.873 " fill="none" id="*start*-to-TiempoInicial" style="stroke:#181818;stroke-width:1.0;"/><polygon fill="#181818" points="89.5,102.873,93.5,93.873,89.5,97.873,85.5,93.873,89.5,102.873" style="stroke:#181818;stroke-width:1.0;"/><text fill="#000000" font-family="sans-serif" font-size="13" lengthAdjust="spacing" textLength="84" x="90.5" y="69.0669">Inicia Tiempo</text></g><!--link TiempoInicial to Ma?ana--><g id="link_TiempoInicial_Mañana"><path d="M89.5,153.101 C89.5,175.236 89.5,201.861 89.5,223.973 " fill="none" id="TiempoInicial-to-Mañana" style="stroke:#181818;stroke-width:1.0;"/><polygon fill="#181818" points="89.5,229.973,93.5,220.973,89.5,224.973,85.5,220.973,89.5,229.973" style="stroke:#181818;stroke-width:1.0;"/><text fill="#000000" font-family="sans-serif" font-size="13" lengthAdjust="spacing" textLength="102" x="90.5" y="196.0669">Comienza el día</text></g><!--link Ma?ana to Tarde--><g id="link_Mañana_Tarde"><path d="M58.0235,280.045 C49.3808,288.473 41.1223,298.692 36.5,310 C30.4831,324.72 30.0354,336.6809 31.8148,350.8309 " fill="none" id="Mañana-to-Tarde" style="stroke:#181818;stroke-width:1.0;"/><polygon fill="#181818" points="32.5634,356.784,35.4092,347.3552,31.9396,351.8231,27.4717,348.3534,32.5634,356.784" style="stroke:#181818;stroke-width:1.0;"/><text fill="#000000" font-family="sans-serif" font-size="13" lengthAdjust="spacing" textLength="75" x="37.5" y="323.0669">Al mediodía</text></g><!--link Tarde to Noche--><g id="link_Tarde_Noche"><path d="M31.0235,407.22 C28.4686,421.373 27.4053,439.2861 33.5,454 C38.1678,465.2691 42.1309,471.2529 50.8328,479.6244 " fill="none" id="Tarde-to-Noche" style="stroke:#181818;stroke-width:1.0;"/><polygon fill="#181818" points="55.1567,483.7842,51.444,474.6619,51.5534,480.3177,45.8976,480.4272,55.1567,483.7842" style="stroke:#181818;stroke-width:1.0;"/><text fill="#000000" font-family="sans-serif" font-size="13" lengthAdjust="spacing" textLength="78" x="34.5" y="450.0669">Al atardecer</text></g><!--link Noche to Ma?ana--><g id="link_Noche_Mañana"><path d="M104.3465,483.8473 C109.644,474.8925 114.81,464.3817 117.5,454 C133.554,392.046 132.662,372.178 117.5,310 C114.973,299.638 112.9881,294.2953 107.9912,285.2693 " fill="none" id="Noche-to-Mañana" style="stroke:#181818;stroke-width:1.0;"/><polygon fill="#181818" points="105.0851,280.02,105.9447,289.8313,107.5068,284.3944,112.9437,285.9565,105.0851,280.02" style="stroke:#181818;stroke-width:1.0;"/><text fill="#000000" font-family="sans-serif" font-size="13" lengthAdjust="spacing" textLength="92" x="130.5" y="386.5669">A medianoche</text></g><!--SRC=[YzQALT3LjLC8oKpDBSZtpCjCpapCKR1IWB2WmbmAQF8W7Rw9XpScvYK2rJhdvsQcvbKbAgJcAAGSNfi8L0wJ11kTM9II2bJccAEGcvgIcGzL0X46AV3BJyw0AaWi0OacfnO15K24KQro11kHc0UI0W00]--></g></svg>