<?xml version="1.0" encoding="windows-1252" standalone="no"?>
<svg xmlns="http://www.w3.org/2000/svg" xmlns:xlink="http://www.w3.org/1999/xlink" contentStyleType="text/css" height="286px" preserveAspectRatio="none" style="width:224px;height:286px;background:#FFFFFF;" version="1.1" viewBox="0 0 224 286" width="224px" zoomAndPan="magnify"><defs/><g><ellipse cx="97.3852" cy="16" fill="#222222" rx="10" ry="10" style="stroke:#222222;stroke-width:1.0;"/><g id="NoEnUso"><rect fill="#F1F1F1" height="50" rx="12.5" ry="12.5" style="stroke:#181818;stroke-width:0.5;" width="82" x="56.3852" y="103"/><line style="stroke:#181818;stroke-width:0.5;" x1="56.3852" x2="138.3852" y1="129.2969" y2="129.2969"/><text fill="#000000" font-family="sans-serif" font-size="14" lengthAdjust="spacing" textLength="62" x="66.3852" y="120.9951">NoEnUso</text></g><g id="EnUso"><rect fill="#F1F1F1" height="50" rx="12.5" ry="12.5" style="stroke:#181818;stroke-width:0.5;" width="63" x="65.8852" y="230"/><line style="stroke:#181818;stroke-width:0.5;" x1="65.8852" x2="128.8852" y1="256.2969" y2="256.2969"/><text fill="#000000" font-family="sans-serif" font-size="14" lengthAdjust="spacing" textLength="43" x="75.8852" y="247.9951">EnUso</text></g><!--link *start* to NoEnUso--><g id="link_*start*_NoEnUso"><path d="M97.3852,26.002 C97.3852,42.627 97.3852,72.655 97.3852,96.873 " fill="none" id="*start*-to-NoEnUso" style="stroke:#181818;stroke-width:1.0;"/><polygon fill="#181818" points="97.3852,102.873,101.3852,93.873,97.3852,97.873,93.3852,93.873,97.3852,102.873" style="stroke:#181818;stroke-width:1.0;"/><text fill="#000000" font-family="sans-serif" font-size="13" lengthAdjust="spacing" textLength="32" x="98.3852" y="69.0669">Inicia</text></g><!--link NoEnUso to EnUso--><g id="link_NoEnUso_EnUso"><path d="M56.3639,147.21 C41.9753,155.845 27.4113,167.682 19.3852,183 C6,208.5466 33.1513,227.0404 60.2265,239.4083 " fill="none" id="NoEnUso-to-EnUso" style="stroke:#181818;stroke-width:1.0;"/><polygon fill="#181818" points="65.6841,241.9013,59.1598,234.5234,61.1361,239.8238,55.8358,241.8002,65.6841,241.9013" style="stroke:#181818;stroke-width:1.0;"/><text fill="#000000" font-family="sans-serif" font-size="13" lengthAdjust="spacing" textLength="108" x="20.3852" y="196.0669">Comienza a usar</text></g><!--link EnUso to NoEnUso--><g id="link_EnUso_NoEnUso"><path d="M120.1896,229.9188 C130.0606,216.5724 138.3516,199.4019 133.3856,183 C130.1856,172.432 127.6224,166.9409 121.4034,158.1409 " fill="none" id="EnUso-to-NoEnUso" style="stroke:#181818;stroke-width:1.0;"/><polygon fill="#181818" points="117.9406,153.241,119.8682,162.8994,120.8263,157.3243,126.4014,158.2823,117.9406,153.241" style="stroke:#181818;stroke-width:1.0;"/><text fill="#000000" font-family="sans-serif" font-size="13" lengthAdjust="spacing" textLength="81" x="135.3856" y="196.0669">Deja de usar</text></g><!--SRC=[YzQALT3LjLFmotVD2otELx1IyCpBJCvCv5800fWWI05CsZa_DpCrhofH8L6Xj3Yn2AmEeGfXZ4jgLg92IYfO4G00]--></g></svg>