<?xml version="1.0" encoding="UTF-8" standalone="no"?><svg xmlns="http://www.w3.org/2000/svg" xmlns:xlink="http://www.w3.org/1999/xlink" contentStyleType="text/css" height="288px" preserveAspectRatio="none" style="width:217px;height:288px;background:#FFFFFF;" version="1.1" viewBox="0 0 217 288" width="217px" zoomAndPan="magnify"><defs/><g><ellipse cx="102.7" cy="16" fill="#222222" rx="10" ry="10" style="stroke:none;stroke-width:1.0;"/><g id="EnReposo"><rect fill="#F1F1F1" height="50" rx="12.5" ry="12.5" style="stroke:#181818;stroke-width:0.5;" width="86" x="59.7" y="104"/><line style="stroke:#181818;stroke-width:0.5;" x1="59.7" x2="145.7" y1="131.6094" y2="131.6094"/><text fill="#000000" font-family="sans-serif" font-size="14" lengthAdjust="spacing" textLength="66" x="69.7" y="123.5332">EnReposo</text></g><g id="Moviendo"><rect fill="#F1F1F1" height="50" rx="12.5" ry="12.5" style="stroke:#181818;stroke-width:0.5;" width="81" x="62.2" y="232"/><line style="stroke:#181818;stroke-width:0.5;" x1="62.2" x2="143.2" y1="259.6094" y2="259.6094"/><text fill="#000000" font-family="sans-serif" font-size="14" lengthAdjust="spacing" textLength="61" x="72.2" y="251.5332">Moviendo</text></g><!--MD5=[bf2de7f216292e68db5252fb250c3ebc]
link *start to EnReposo--><g id="link_*start_EnReposo"><path d="M102.7,26.08 C102.7,41.75 102.7,74.47 102.7,98.64 " fill="none" id="*start-to-EnReposo" style="stroke:#181818;stroke-width:1.0;"/><polygon fill="#181818" points="102.7,103.65,106.7,94.65,102.7,98.65,98.7,94.65,102.7,103.65" style="stroke:#181818;stroke-width:1.0;"/><text fill="#000000" font-family="sans-serif" font-size="13" lengthAdjust="spacing" textLength="30" x="103.7" y="70.4951">Inicia</text></g><!--MD5=[6ae5bcd2e52c6d0a1ad2b0264bed98a3]
link EnReposo to Moviendo--><g id="link_EnReposo_Moviendo"><path d="M59.49,147.04 C43.72,155.61 27.59,167.72 18.7,184 C6,207.27 31.41,226.37 57.53,239.04 " fill="none" id="EnReposo-to-Moviendo" style="stroke:#181818;stroke-width:1.0;"/><polygon fill="#181818" points="62.06,241.18,55.6164,233.7315,57.5349,239.0531,52.2133,240.9716,62.06,241.18" style="stroke:#181818;stroke-width:1.0;"/><text fill="#000000" font-family="sans-serif" font-size="13" lengthAdjust="spacing" textLength="121" x="19.7" y="198.4951">Comienza a moverse</text></g><!--MD5=[0826ab722c9f83c40d089f46a214c696]
link Moviendo to EnReposo--><g id="link_Moviendo_EnReposo"><path d="M129.96,231.91 C141.75,218.47 151.66,201.04 145.7,184 C142.5,174.84 137.02,166.07 131.02,158.36 " fill="none" id="Moviendo-to-EnReposo" style="stroke:#181818;stroke-width:1.0;"/><polygon fill="#181818" points="127.65,154.19,130.1998,163.7031,130.7943,158.0776,136.4199,158.6721,127.65,154.19" style="stroke:#181818;stroke-width:1.0;"/><text fill="#000000" font-family="sans-serif" font-size="13" lengthAdjust="spacing" textLength="62" x="147.7" y="198.4951">Se detiene</text></g><!--MD5=[57a36f5e00ec42a9f954eea9d12ccee6]
@startuml DiagramaDeEstadosPersonaje

    [*] - -> EnReposo : Inicia
    EnReposo - -> Moviendo : Comienza a moverse
    Moviendo - -> EnReposo : Se detiene

@enduml

PlantUML version 1.2022.7(Mon Aug 22 19:01:30 CEST 2022)
(GPL source distribution)
Java Runtime: Java(TM) SE Runtime Environment
JVM: Java HotSpot(TM) 64-Bit Server VM
Default Encoding: UTF-8
Language: es
Country: SV
--></g></svg>