<?xml version="1.0" encoding="windows-1252" standalone="no"?>
<svg xmlns="http://www.w3.org/2000/svg" xmlns:xlink="http://www.w3.org/1999/xlink" contentStyleType="text/css" height="413px" preserveAspectRatio="none" style="width:341px;height:413px;background:#FFFFFF;" version="1.1" viewBox="0 0 341 413" width="341px" zoomAndPan="magnify"><defs/><g><ellipse cx="140.7142" cy="16" fill="#222222" rx="10" ry="10" style="stroke:#222222;stroke-width:1.0;"/><g id="NoCreado"><rect fill="#F1F1F1" height="50" rx="12.5" ry="12.5" style="stroke:#181818;stroke-width:0.5;" width="90" x="95.7145" y="103"/><line style="stroke:#181818;stroke-width:0.5;" x1="95.7145" x2="185.7145" y1="129.2969" y2="129.2969"/><text fill="#000000" font-family="sans-serif" font-size="14" lengthAdjust="spacing" textLength="70" x="105.7145" y="120.9951">NoCreado</text></g><g id="Creado"><rect fill="#F1F1F1" height="50" rx="12.5" ry="12.5" style="stroke:#181818;stroke-width:0.5;" width="71" x="105.2145" y="230"/><line style="stroke:#181818;stroke-width:0.5;" x1="105.2145" x2="176.2145" y1="256.2969" y2="256.2969"/><text fill="#000000" font-family="sans-serif" font-size="14" lengthAdjust="spacing" textLength="51" x="115.2145" y="247.9951">Creado</text></g><g id="Poblado"><rect fill="#F1F1F1" height="50" rx="12.5" ry="12.5" style="stroke:#181818;stroke-width:0.5;" width="78" x="41.7145" y="357"/><line style="stroke:#181818;stroke-width:0.5;" x1="41.7145" x2="119.7145" y1="383.2969" y2="383.2969"/><text fill="#000000" font-family="sans-serif" font-size="14" lengthAdjust="spacing" textLength="58" x="51.7145" y="374.9951">Poblado</text></g><ellipse cx="285.7142" cy="382" fill="none" rx="11" ry="11" style="stroke:#222222;stroke-width:1.0;"/><ellipse cx="285.7142" cy="382" fill="#222222" rx="6" ry="6" style="stroke:#222222;stroke-width:1.0;"/><!--link *start* to NoCreado--><g id="link_*start*_NoCreado"><path d="M140.7142,26.002 C140.7142,42.627 140.7142,72.655 140.7142,96.873 " fill="none" id="*start*-to-NoCreado" style="stroke:#181818;stroke-width:1.0;"/><polygon fill="#181818" points="140.7142,102.873,144.7142,93.873,140.7142,97.873,136.7142,93.873,140.7142,102.873" style="stroke:#181818;stroke-width:1.0;"/><text fill="#000000" font-family="sans-serif" font-size="13" lengthAdjust="spacing" textLength="32" x="141.7142" y="69.0669">Inicia</text></g><!--link NoCreado to Creado--><g id="link_NoCreado_Creado"><path d="M140.7142,153.101 C140.7142,175.236 140.7142,201.861 140.7142,223.973 " fill="none" id="NoCreado-to-Creado" style="stroke:#181818;stroke-width:1.0;"/><polygon fill="#181818" points="140.7142,229.973,144.7142,220.973,140.7142,224.973,136.7142,220.973,140.7142,229.973" style="stroke:#181818;stroke-width:1.0;"/><text fill="#000000" font-family="sans-serif" font-size="13" lengthAdjust="spacing" textLength="73" x="141.7142" y="196.0669">Crear Mapa</text></g><!--link Creado to Poblado--><g id="link_Creado_Poblado"><path d="M105.0419,260.982 C76.044,267.116 36.907,280.613 17.7145,310 C6,327.9366 17.5252,342.5082 36.5353,355.9101 " fill="none" id="Creado-to-Poblado" style="stroke:#181818;stroke-width:1.0;"/><polygon fill="#181818" points="41.4392,359.3673,36.3882,350.9123,37.3526,356.4863,31.7786,357.4508,41.4392,359.3673" style="stroke:#181818;stroke-width:1.0;"/><text fill="#000000" font-family="sans-serif" font-size="13" lengthAdjust="spacing" textLength="78" x="18.7145" y="323.0669">Poblar Mapa</text></g><!--link Poblado to Creado--><g id="link_Poblado_Creado"><path d="M92.2475,356.9727 C102.8609,334.8615 115.9248,307.6451 126.5498,285.5101 " fill="none" id="Poblado-to-Creado" style="stroke:#181818;stroke-width:1.0;"/><polygon fill="#181818" points="129.1462,280.101,121.6455,286.4837,126.9825,284.6086,128.8576,289.9456,129.1462,280.101" style="stroke:#181818;stroke-width:1.0;"/><text fill="#000000" font-family="sans-serif" font-size="13" lengthAdjust="spacing" textLength="103" x="115.7142" y="323.0669">Despoblar Mapa</text></g><!--link Creado to *end*--><g id="link_Creado_*end*"><path d="M176.4122,274.577 C192.9042,284.029 212.2202,296.392 227.7142,310 C249.9582,329.5356 267.1435,353.1887 276.7125,367.3842 " fill="none" id="Creado-to-*end*" style="stroke:#181818;stroke-width:1.0;"/><polygon fill="#181818" points="280.0662,372.3594,278.3524,362.6608,277.2714,368.2134,271.7188,367.1324,280.0662,372.3594" style="stroke:#181818;stroke-width:1.0;"/><text fill="#000000" font-family="sans-serif" font-size="13" lengthAdjust="spacing" textLength="89" x="244.7142" y="323.0669">Destruir Mapa</text></g><!--SRC=[YzQALT3LjLFmotSkIarCoLUmKl3CoqpEJEI2Yu2auP8WHf62Rs918XUIT41-KWv47io2Ae29eXZWabfSWAG6oP1ee5F0yYL5fPaGQG00]--></g></svg>