<?xml version="1.0" encoding="UTF-8" standalone="no"?><svg xmlns="http://www.w3.org/2000/svg" xmlns:xlink="http://www.w3.org/1999/xlink" contentStyleType="text/css" height="499px" preserveAspectRatio="none" style="width:441px;height:499px;background:#FFFFFF;" version="1.1" viewBox="0 0 441 499" width="441px" zoomAndPan="magnify"><defs/><g><rect fill="none" height="29.0679" id="_title" style="stroke:none;stroke-width:1.0;" width="239" x="90.96" y="5"/><text fill="#000000" font-family="sans-serif" font-size="14" font-weight="bold" lengthAdjust="spacing" textLength="229" x="95.96" y="24.9659">Diagrama de Estados del Usuario</text><ellipse cx="217.46" cy="56.0679" fill="#222222" rx="10" ry="10" style="stroke:none;stroke-width:1.0;"/><path d="M19.5,126.0679 L415.42,126.0679 A12.5,12.5 0 0 1 427.92,138.5679 L427.92,155.1358 L7,155.1358 L7,138.5679 A12.5,12.5 0 0 1 19.5,126.0679 " fill="#F1F1F1" style="stroke:#F1F1F1;stroke-width:1.0;"/><rect fill="none" height="367.0679" rx="12.5" ry="12.5" style="stroke:#181818;stroke-width:0.5;" width="420.92" x="7" y="126.0679"/><line style="stroke:#181818;stroke-width:0.5;" x1="7" x2="427.92" y1="155.1358" y2="155.1358"/><text fill="#000000" font-family="sans-serif" font-size="14" lengthAdjust="spacing" textLength="52" x="191.46" y="146.0339">Usuario</text><ellipse cx="160.92" cy="176.1358" fill="#222222" rx="10" ry="10" style="stroke:none;stroke-width:1.0;"/><g id="Usuario.EnPlanta"><rect fill="#F1F1F1" height="50" rx="12.5" ry="12.5" style="stroke:#181818;stroke-width:0.5;" width="79" x="121.42" y="223.1358"/><line style="stroke:#181818;stroke-width:0.5;" x1="121.42" x2="200.42" y1="252.2038" y2="252.2038"/><text fill="#000000" font-family="sans-serif" font-size="14" lengthAdjust="spacing" textLength="59" x="131.42" y="243.1018">EnPlanta</text></g><g id="Usuario.SolicitandoAscensor"><rect fill="#F1F1F1" height="50" rx="12.5" ry="12.5" style="stroke:#181818;stroke-width:0.5;" width="155" x="83.42" y="328.1358"/><line style="stroke:#181818;stroke-width:0.5;" x1="83.42" x2="238.42" y1="357.2038" y2="357.2038"/><text fill="#000000" font-family="sans-serif" font-size="14" lengthAdjust="spacing" textLength="135" x="93.42" y="348.1018">SolicitandoAscensor</text></g><g id="Usuario.EnAscensor"><rect fill="#F1F1F1" height="50" rx="12.5" ry="12.5" style="stroke:#181818;stroke-width:0.5;" width="98" x="188.92" y="433.1358"/><line style="stroke:#181818;stroke-width:0.5;" x1="188.92" x2="286.92" y1="462.2038" y2="462.2038"/><text fill="#000000" font-family="sans-serif" font-size="14" lengthAdjust="spacing" textLength="78" x="198.92" y="453.1018">EnAscensor</text></g><!--MD5=[eb46b1fc3762082415ac0c1be868ee3e]
link *start*Usuario to EnPlanta--><g id="link_*start*Usuario_EnPlanta"><path d="M160.92,186.5758 C160.92,194.3158 160.92,205.7158 160.92,216.5458 " fill="none" id="*start*Usuario-to-EnPlanta" style="stroke:#181818;stroke-width:1.0;"/><polygon fill="#181818" points="160.92,221.3058,164.92,212.3058,160.92,216.3058,156.92,212.3058,160.92,221.3058" style="stroke:#181818;stroke-width:1.0;"/></g><!--MD5=[311c13cbbbccc1526de1167728ccd306]
link EnPlanta to SolicitandoAscensor--><g id="link_EnPlanta_SolicitandoAscensor"><path d="M121.13,250.7158 C92.04,254.2058 54.41,264.1058 34.92,291.1358 C18,314.6158 44.09,329.4458 76.83,338.6058 " fill="none" id="EnPlanta-to-SolicitandoAscensor" style="stroke:#181818;stroke-width:1.0;"/><polygon fill="#181818" points="81.55,339.8558,73.8823,333.6748,76.7184,338.5693,71.8238,341.4054,81.55,339.8558" style="stroke:#181818;stroke-width:1.0;"/><text fill="#000000" font-family="sans-serif" font-size="13" lengthAdjust="spacing" textLength="102" x="35.92" y="306.0328">solicitar ascensor</text></g><!--MD5=[8efd7e80fdab043768580844a3e6d71b]
link SolicitandoAscensor to EnAscensor--><g id="link_SolicitandoAscensor_EnAscensor"><path d="M165.3,378.6158 C168.28,390.4558 173.15,404.3858 180.92,415.1358 C184.44,419.9958 188.68,424.5158 193.24,428.6758 " fill="none" id="SolicitandoAscensor-to-EnAscensor" style="stroke:#181818;stroke-width:1.0;"/><polygon fill="#181818" points="196.76,431.7058,192.5657,422.7947,192.9768,428.4366,187.335,428.8478,196.76,431.7058" style="stroke:#181818;stroke-width:1.0;"/><text fill="#000000" font-family="sans-serif" font-size="13" lengthAdjust="spacing" textLength="118" x="181.92" y="411.0328">ascensor disponible</text></g><!--MD5=[271e9cde89c9dfbfe31d9dd5a318b2ce]
link SolicitandoAscensor to EnPlanta--><g id="link_SolicitandoAscensor_EnPlanta"><path d="M160.92,327.9058 C160.92,313.5658 160.92,295.2758 160.92,279.9258 " fill="none" id="SolicitandoAscensor-to-EnPlanta" style="stroke:#181818;stroke-width:1.0;"/><polygon fill="#181818" points="160.92,275.0558,156.92,284.0558,160.92,280.0558,164.92,284.0558,160.92,275.0558" style="stroke:#181818;stroke-width:1.0;"/><text fill="#000000" font-family="sans-serif" font-size="13" lengthAdjust="spacing" textLength="137" x="161.92" y="306.0328">ascensor no disponible</text></g><!--MD5=[8ca81899b4e95bfa72ca37ee3ed36806]
link EnAscensor to EnPlanta--><g id="link_EnAscensor_EnPlanta"><path d="M286.23,432.6858 C292.13,427.6858 297.33,421.8558 300.92,415.1358 C326.93,366.5458 333.82,335.3558 300.92,291.1358 C279.48,262.3158 238.94,252.5258 206.99,249.5358 " fill="none" id="EnAscensor-to-EnPlanta" style="stroke:#181818;stroke-width:1.0;"/><polygon fill="#181818" points="202.23,249.1458,210.8813,253.8528,207.214,249.5457,211.5211,245.8784,202.23,249.1458" style="stroke:#181818;stroke-width:1.0;"/><text fill="#000000" font-family="sans-serif" font-size="13" lengthAdjust="spacing" textLength="94" x="323.92" y="358.5328">llegada a planta</text></g><!--MD5=[e7bcfa3a71ed34e27a76eeab112cbfa0]
link *start to Usuario--><g id="link_*start_Usuario"><path d="M217.46,66.3179 C217.46,77.0579 217.46,96.2879 217.46,119.3779 " fill="none" id="*start-to-Usuario" style="stroke:#181818;stroke-width:1.0;"/><polygon fill="#181818" points="217.46,124.1479,221.46,115.1479,217.46,119.1479,213.46,115.1479,217.46,124.1479" style="stroke:#181818;stroke-width:1.0;"/></g><!--MD5=[68dae61ec4423aebb2554472413c3c09]
@startuml Diagrama_de_Estados

title Diagrama de Estados del Usuario

skinparam {
    NoteBackgroundColor #whiteSmoke
}

hide empty members

[*] - -> Usuario

state Usuario {
    [*] - -> EnPlanta
    EnPlanta - -> SolicitandoAscensor : solicitar ascensor
    SolicitandoAscensor - -> EnAscensor : ascensor disponible
    SolicitandoAscensor - -> EnPlanta : ascensor no disponible
    EnAscensor - -> EnPlanta : llegada a planta
}

@enduml

PlantUML version 1.2022.7(Mon Aug 22 19:01:30 CEST 2022)
(GPL source distribution)
Java Runtime: OpenJDK Runtime Environment
JVM: OpenJDK 64-Bit Server VM
Default Encoding: UTF-8
Language: es
Country: ES
--></g></svg>