<?xml version="1.0" encoding="UTF-8" standalone="no"?><svg xmlns="http://www.w3.org/2000/svg" xmlns:xlink="http://www.w3.org/1999/xlink" contentStyleType="text/css" height="277px" preserveAspectRatio="none" style="width:389px;height:277px;background:#FFFFFF;" version="1.1" viewBox="0 0 389 277" width="389px" zoomAndPan="magnify"><defs/><g><ellipse cx="196" cy="16" fill="#222222" rx="10" ry="10" style="stroke:none;stroke-width:1.0;"/><path d="M19.5,86 L170.5,86 A12.5,12.5 0 0 1 183,98.5 L183,113.6094 L7,113.6094 L7,98.5 A12.5,12.5 0 0 1 19.5,86 " fill="#F1F1F1" style="stroke:#F1F1F1;stroke-width:1.0;"/><rect fill="none" height="185.6094" rx="12.5" ry="12.5" style="stroke:#181818;stroke-width:0.5;" width="176" x="7" y="86"/><line style="stroke:#181818;stroke-width:0.5;" x1="7" x2="183" y1="113.6094" y2="113.6094"/><text fill="#000000" font-family="sans-serif" font-size="14" lengthAdjust="spacing" textLength="130" x="30" y="105.5332">movimientoAscensor</text><g id="movimientoAscensor.AscensorParadado"><rect fill="#F1F1F1" height="50" rx="12.5" ry="12.5" style="stroke:#181818;stroke-width:0.5;" width="141" x="26" y="125.6094"/><line style="stroke:#181818;stroke-width:0.5;" x1="26" x2="167" y1="153.2188" y2="153.2188"/><text fill="#000000" font-family="sans-serif" font-size="14" lengthAdjust="spacing" textLength="121" x="36" y="145.1426">AscensorParadado</text></g><g id="movimientoAscensor.AscensorMoviendose"><rect fill="#F1F1F1" height="50" rx="12.5" ry="12.5" style="stroke:#181818;stroke-width:0.5;" width="155" x="19" y="211.6094"/><line style="stroke:#181818;stroke-width:0.5;" x1="19" x2="174" y1="239.2188" y2="239.2188"/><text fill="#000000" font-family="sans-serif" font-size="14" lengthAdjust="spacing" textLength="135" x="29" y="231.1426">AscensorMoviendose</text></g><!--MD5=[aad4fb96d9081fa8ac0f8960894557fa]
link AscensorParadado to AscensorMoviendose--><g id="link_AscensorParadado_AscensorMoviendose"><path d="M90.31,175.9094 C89.67,185.3994 89.58,196.3594 90.03,206.2894 " fill="none" id="AscensorParadado-to-AscensorMoviendose" style="stroke:#181818;stroke-width:1.0;"/><polygon fill="#181818" points="90.32,211.3694,93.8248,202.1652,90.0482,206.3768,85.8367,202.6001,90.32,211.3694" style="stroke:#181818;stroke-width:1.0;"/></g><!--MD5=[c94c60a380273c5444779cbe13b529cb]
link AscensorMoviendose to AscensorParadado--><g id="link_AscensorMoviendose_AscensorParadado"><path d="M102.68,211.3694 C103.33,201.8794 103.42,190.9194 102.97,180.9894 " fill="none" id="AscensorMoviendose-to-AscensorParadado" style="stroke:#181818;stroke-width:1.0;"/><polygon fill="#181818" points="102.69,175.9094,99.2115,185.1235,102.9761,180.9012,107.1984,184.6658,102.69,175.9094" style="stroke:#181818;stroke-width:1.0;"/></g><path d="M230.5,86 L363.5,86 A12.5,12.5 0 0 1 376,98.5 L376,113.6094 L218,113.6094 L218,98.5 A12.5,12.5 0 0 1 230.5,86 " fill="#F1F1F1" style="stroke:#F1F1F1;stroke-width:1.0;"/><rect fill="none" height="185.6094" rx="12.5" ry="12.5" style="stroke:#181818;stroke-width:0.5;" width="158" x="218" y="86"/><line style="stroke:#181818;stroke-width:0.5;" x1="218" x2="376" y1="113.6094" y2="113.6094"/><text fill="#000000" font-family="sans-serif" font-size="14" lengthAdjust="spacing" textLength="124" x="235" y="105.5332">ocupaciónAscensor</text><g id="ocupaciónAscensor.AscensorOcupado"><rect fill="#F1F1F1" height="50" rx="12.5" ry="12.5" style="stroke:#181818;stroke-width:0.5;" width="137" x="230" y="125.6094"/><line style="stroke:#181818;stroke-width:0.5;" x1="230" x2="367" y1="153.2188" y2="153.2188"/><text fill="#000000" font-family="sans-serif" font-size="14" lengthAdjust="spacing" textLength="117" x="240" y="145.1426">AscensorOcupado</text></g><g id="ocupaciónAscensor.AscensorLibre"><rect fill="#F1F1F1" height="50" rx="12.5" ry="12.5" style="stroke:#181818;stroke-width:0.5;" width="111" x="243" y="211.6094"/><line style="stroke:#181818;stroke-width:0.5;" x1="243" x2="354" y1="239.2188" y2="239.2188"/><text fill="#000000" font-family="sans-serif" font-size="14" lengthAdjust="spacing" textLength="91" x="253" y="231.1426">AscensorLibre</text></g><!--MD5=[461d58a5fd026d305da6d303e6ef07ea]
link AscensorOcupado to AscensorLibre--><g id="link_AscensorOcupado_AscensorLibre"><path d="M292.31,175.9094 C291.67,185.3994 291.58,196.3594 292.03,206.2894 " fill="none" id="AscensorOcupado-to-AscensorLibre" style="stroke:#181818;stroke-width:1.0;"/><polygon fill="#181818" points="292.32,211.3694,295.8248,202.1652,292.0482,206.3768,287.8367,202.6001,292.32,211.3694" style="stroke:#181818;stroke-width:1.0;"/></g><!--MD5=[effe9e3b6e82b3382120a7f48735bff7]
link AscensorLibre to AscensorOcupado--><g id="link_AscensorLibre_AscensorOcupado"><path d="M304.68,211.3694 C305.33,201.8794 305.42,190.9194 304.97,180.9894 " fill="none" id="AscensorLibre-to-AscensorOcupado" style="stroke:#181818;stroke-width:1.0;"/><polygon fill="#181818" points="304.69,175.9094,301.2115,185.1235,304.9761,180.9012,309.1984,184.6658,304.69,175.9094" style="stroke:#181818;stroke-width:1.0;"/></g><!--MD5=[4ddcfbb76f583ac80389181931a4d29a]
link *start to movimientoAscensor--><g id="link_*start_movimientoAscensor"><path d="M191.13,24.77 C184.15,35.88 170.52,57.62 155.65,81.32 " fill="none" id="*start-to-movimientoAscensor" style="stroke:#181818;stroke-width:1.0;"/><polygon fill="#181818" points="152.86,85.76,161.0353,80.2678,155.5203,81.5264,154.2616,76.0114,152.86,85.76" style="stroke:#181818;stroke-width:1.0;"/></g><!--MD5=[110d88f004311daede1c16b33fb1a348]
link *start to ocupaciónAscensor--><g id="link_*start_ocupaciónAscensor"><path d="M200.87,24.77 C207.85,35.88 221.48,57.62 236.35,81.32 " fill="none" id="*start-to-ocupaciónAscensor" style="stroke:#181818;stroke-width:1.0;"/><polygon fill="#181818" points="239.14,85.76,237.7384,76.0114,236.4797,81.5264,230.9647,80.2678,239.14,85.76" style="stroke:#181818;stroke-width:1.0;"/></g><!--MD5=[f220524b80aaf39e676cac0ae2d96169]
@startuml
[*] - -> movimientoAscensor
[*] - -> ocupaciónAscensor
state movimientoAscensor{
AscensorParadado - -> AscensorMoviendose
AscensorMoviendose - -> AscensorParadado
}
state ocupaciónAscensor{
    AscensorOcupado - -> AscensorLibre
    AscensorLibre - -> AscensorOcupado
}
@enduml

PlantUML version 1.2022.7(Mon Aug 22 19:01:30 CEST 2022)
(GPL source distribution)
Java Runtime: OpenJDK Runtime Environment
JVM: OpenJDK 64-Bit Server VM
Default Encoding: Cp1252
Language: es
Country: ES
--></g></svg>