<?xml version="1.0" encoding="us-ascii" standalone="no"?><svg xmlns="http://www.w3.org/2000/svg" xmlns:xlink="http://www.w3.org/1999/xlink" contentStyleType="text/css" height="759px" preserveAspectRatio="none" style="width:749px;height:759px;background:#FFFFFF;" version="1.1" viewBox="0 0 749 759" width="749px" zoomAndPan="magnify"><defs/><g><text fill="#000000" font-family="sans-serif" font-size="14" font-weight="bold" lengthAdjust="spacing" textLength="169" x="283.25" y="22.9951">Class Diagram - CCCF</text><!--class Time--><g id="elem_Time"><rect codeLine="5" fill="#F1F1F1" height="48" id="Time" rx="2.5" ry="2.5" style="stroke:#181818;stroke-width:0.5;" width="66" x="348" y="547.5669"/><ellipse cx="363" cy="563.5669" fill="#ADD1B2" rx="11" ry="11" style="stroke:#181818;stroke-width:1.0;"/><path d="M365.9688,569.2075 Q365.3906,569.5044 364.75,569.645 Q364.1094,569.8013 363.4063,569.8013 Q360.9063,569.8013 359.5781,568.1606 Q358.2656,566.5044 358.2656,563.3794 Q358.2656,560.2544 359.5781,558.5981 Q360.9063,556.9419 363.4063,556.9419 Q364.1094,556.9419 364.75,557.0981 Q365.4063,557.2544 365.9688,557.5513 L365.9688,560.27 Q365.3438,559.6919 364.75,559.4263 Q364.1563,559.145 363.5313,559.145 Q362.1875,559.145 361.5,560.2231 Q360.8125,561.2856 360.8125,563.3794 Q360.8125,565.4731 361.5,566.5513 Q362.1875,567.6138 363.5313,567.6138 Q364.1563,567.6138 364.75,567.3481 Q365.3438,567.0669 365.9688,566.4888 L365.9688,569.2075 Z " fill="#000000"/><text fill="#000000" font-family="sans-serif" font-size="14" lengthAdjust="spacing" textLength="34" x="377" y="568.4136">Time</text><line style="stroke:#181818;stroke-width:0.5;" x1="349" x2="413" y1="579.5669" y2="579.5669"/><line style="stroke:#181818;stroke-width:0.5;" x1="349" x2="413" y1="587.5669" y2="587.5669"/></g><!--class ShoppingCenter--><g id="elem_ShoppingCenter"><rect codeLine="9" fill="#F1F1F1" height="129.4844" id="ShoppingCenter" rx="2.5" ry="2.5" style="stroke:#181818;stroke-width:0.5;" width="145" x="377.5" y="44.2969"/><ellipse cx="392.5" cy="60.2969" fill="#ADD1B2" rx="11" ry="11" style="stroke:#181818;stroke-width:1.0;"/><path d="M395.4688,65.9375 Q394.8906,66.2344 394.25,66.375 Q393.6094,66.5313 392.9063,66.5313 Q390.4063,66.5313 389.0781,64.8906 Q387.7656,63.2344 387.7656,60.1094 Q387.7656,56.9844 389.0781,55.3281 Q390.4063,53.6719 392.9063,53.6719 Q393.6094,53.6719 394.25,53.8281 Q394.9063,53.9844 395.4688,54.2813 L395.4688,57 Q394.8438,56.4219 394.25,56.1563 Q393.6563,55.875 393.0313,55.875 Q391.6875,55.875 391,56.9531 Q390.3125,58.0156 390.3125,60.1094 Q390.3125,62.2031 391,63.2813 Q391.6875,64.3438 393.0313,64.3438 Q393.6563,64.3438 394.25,64.0781 Q394.8438,63.7969 395.4688,63.2188 L395.4688,65.9375 Z " fill="#000000"/><text fill="#000000" font-family="sans-serif" font-size="14" lengthAdjust="spacing" textLength="113" x="406.5" y="65.1436">ShoppingCenter</text><line style="stroke:#181818;stroke-width:0.5;" x1="378.5" x2="521.5" y1="76.2969" y2="76.2969"/><rect fill="none" height="6" style="stroke:#C82930;stroke-width:1.0;" width="6" x="385.5" y="86.9453"/><text fill="#000000" font-family="sans-serif" font-size="14" lengthAdjust="spacing" textLength="90" x="397.5" y="93.292">openingHour</text><rect fill="none" height="6" style="stroke:#C82930;stroke-width:1.0;" width="6" x="385.5" y="103.2422"/><text fill="#000000" font-family="sans-serif" font-size="14" lengthAdjust="spacing" textLength="82" x="397.5" y="109.5889">closingHour</text><rect fill="none" height="6" style="stroke:#C82930;stroke-width:1.0;" width="6" x="385.5" y="119.5391"/><text fill="#000000" font-family="sans-serif" font-size="14" lengthAdjust="spacing" textLength="30" x="397.5" y="125.8857">time</text><rect fill="none" height="6" style="stroke:#C82930;stroke-width:1.0;" width="6" x="385.5" y="135.8359"/><text fill="#000000" font-family="sans-serif" font-size="14" lengthAdjust="spacing" textLength="109" x="397.5" y="142.1826">arrivalProbability</text><rect fill="none" height="6" style="stroke:#C82930;stroke-width:1.0;" width="6" x="385.5" y="152.1328"/><text fill="#000000" font-family="sans-serif" font-size="14" lengthAdjust="spacing" textLength="49" x="397.5" y="158.4795">isOpen</text><line style="stroke:#181818;stroke-width:0.5;" x1="378.5" x2="521.5" y1="165.7813" y2="165.7813"/></g><!--class AttentionCenter--><g id="elem_AttentionCenter"><rect codeLine="17" fill="#F1F1F1" height="64.2969" id="AttentionCenter" rx="2.5" ry="2.5" style="stroke:#181818;stroke-width:0.5;" width="170" x="296" y="366.2269"/><ellipse cx="323.6" cy="382.2269" fill="#ADD1B2" rx="11" ry="11" style="stroke:#181818;stroke-width:1.0;"/><path d="M326.5688,387.8675 Q325.9906,388.1644 325.35,388.305 Q324.7094,388.4612 324.0063,388.4612 Q321.5063,388.4612 320.1781,386.8206 Q318.8656,385.1644 318.8656,382.0394 Q318.8656,378.9144 320.1781,377.2581 Q321.5063,375.6019 324.0063,375.6019 Q324.7094,375.6019 325.35,375.7581 Q326.0063,375.9144 326.5688,376.2112 L326.5688,378.93 Q325.9438,378.3519 325.35,378.0862 Q324.7563,377.805 324.1313,377.805 Q322.7875,377.805 322.1,378.8831 Q321.4125,379.9456 321.4125,382.0394 Q321.4125,384.1331 322.1,385.2112 Q322.7875,386.2737 324.1313,386.2737 Q324.7563,386.2737 325.35,386.0081 Q325.9438,385.7269 326.5688,385.1487 L326.5688,387.8675 Z " fill="#000000"/><text fill="#000000" font-family="sans-serif" font-size="14" lengthAdjust="spacing" textLength="110" x="340.4" y="387.0736">AttentionCenter</text><line style="stroke:#181818;stroke-width:0.5;" x1="297" x2="465" y1="398.2269" y2="398.2269"/><rect fill="none" height="6" style="stroke:#C82930;stroke-width:1.0;" width="6" x="304" y="408.8753"/><text fill="#000000" font-family="sans-serif" font-size="14" lengthAdjust="spacing" textLength="144" x="316" y="415.222">emptyCashRegisters</text><line style="stroke:#181818;stroke-width:0.5;" x1="297" x2="465" y1="422.5237" y2="422.5237"/></g><!--class CashRegister--><g id="elem_CashRegister"><rect codeLine="21" fill="#F1F1F1" height="145.7813" id="CashRegister" rx="2.5" ry="2.5" style="stroke:#181818;stroke-width:0.5;" width="142" x="48" y="498.6769"/><ellipse cx="70.65" cy="514.6769" fill="#ADD1B2" rx="11" ry="11" style="stroke:#181818;stroke-width:1.0;"/><path d="M73.6188,520.3175 Q73.0406,520.6144 72.4,520.755 Q71.7594,520.9113 71.0563,520.9113 Q68.5563,520.9113 67.2281,519.2706 Q65.9156,517.6144 65.9156,514.4894 Q65.9156,511.3644 67.2281,509.7081 Q68.5563,508.0519 71.0563,508.0519 Q71.7594,508.0519 72.4,508.2081 Q73.0563,508.3644 73.6188,508.6613 L73.6188,511.38 Q72.9938,510.8019 72.4,510.5363 Q71.8063,510.255 71.1813,510.255 Q69.8375,510.255 69.15,511.3331 Q68.4625,512.3956 68.4625,514.4894 Q68.4625,516.5831 69.15,517.6613 Q69.8375,518.7238 71.1813,518.7238 Q71.8063,518.7238 72.4,518.4581 Q72.9938,518.1769 73.6188,517.5988 L73.6188,520.3175 Z " fill="#000000"/><text fill="#000000" font-family="sans-serif" font-size="14" lengthAdjust="spacing" textLength="93" x="86.35" y="519.5236">CashRegister</text><line style="stroke:#181818;stroke-width:0.5;" x1="49" x2="189" y1="530.6769" y2="530.6769"/><rect fill="none" height="6" style="stroke:#C82930;stroke-width:1.0;" width="6" x="56" y="541.3253"/><text fill="#000000" font-family="sans-serif" font-size="14" lengthAdjust="spacing" textLength="12" x="68" y="547.672">id</text><rect fill="none" height="6" style="stroke:#C82930;stroke-width:1.0;" width="6" x="56" y="557.6222"/><text fill="#000000" font-family="sans-serif" font-size="14" lengthAdjust="spacing" textLength="102" x="68" y="563.9689">currentCashier</text><rect fill="none" height="6" style="stroke:#C82930;stroke-width:1.0;" width="6" x="56" y="573.9191"/><text fill="#000000" font-family="sans-serif" font-size="14" lengthAdjust="spacing" textLength="116" x="68" y="580.2657">timePerItemPack</text><rect fill="none" height="6" style="stroke:#C82930;stroke-width:1.0;" width="6" x="56" y="590.2159"/><text fill="#000000" font-family="sans-serif" font-size="14" lengthAdjust="spacing" textLength="78" x="68" y="596.5626">isOcuppied</text><rect fill="none" height="6" style="stroke:#C82930;stroke-width:1.0;" width="6" x="56" y="606.5128"/><text fill="#000000" font-family="sans-serif" font-size="14" lengthAdjust="spacing" textLength="49" x="68" y="612.8595">isOpen</text><rect fill="none" height="6" style="stroke:#C82930;stroke-width:1.0;" width="6" x="56" y="622.8097"/><text fill="#000000" font-family="sans-serif" font-size="14" lengthAdjust="spacing" textLength="109" x="68" y="629.1564">remainingPacks</text><line style="stroke:#181818;stroke-width:0.5;" x1="49" x2="189" y1="636.4581" y2="636.4581"/></g><!--class Customer--><g id="elem_Customer"><rect codeLine="30" fill="#F1F1F1" height="80.5938" id="Customer" rx="2.5" ry="2.5" style="stroke:#181818;stroke-width:0.5;" width="166" x="24" y="358.0769"/><ellipse cx="68.75" cy="374.0769" fill="#ADD1B2" rx="11" ry="11" style="stroke:#181818;stroke-width:1.0;"/><path d="M71.7188,379.7175 Q71.1406,380.0144 70.5,380.155 Q69.8594,380.3113 69.1563,380.3113 Q66.6563,380.3113 65.3281,378.6706 Q64.0156,377.0144 64.0156,373.8894 Q64.0156,370.7644 65.3281,369.1081 Q66.6563,367.4519 69.1563,367.4519 Q69.8594,367.4519 70.5,367.6081 Q71.1563,367.7644 71.7188,368.0613 L71.7188,370.78 Q71.0938,370.2019 70.5,369.9363 Q69.9063,369.655 69.2813,369.655 Q67.9375,369.655 67.25,370.7331 Q66.5625,371.7956 66.5625,373.8894 Q66.5625,375.9831 67.25,377.0613 Q67.9375,378.1238 69.2813,378.1238 Q69.9063,378.1238 70.5,377.8581 Q71.0938,377.5769 71.7188,376.9988 L71.7188,379.7175 Z " fill="#000000"/><text fill="#000000" font-family="sans-serif" font-size="14" lengthAdjust="spacing" textLength="68" x="89.25" y="378.9236">Customer</text><line style="stroke:#181818;stroke-width:0.5;" x1="25" x2="189" y1="390.0769" y2="390.0769"/><rect fill="none" height="6" style="stroke:#C82930;stroke-width:1.0;" width="6" x="32" y="400.7253"/><text fill="#000000" font-family="sans-serif" font-size="14" lengthAdjust="spacing" textLength="12" x="44" y="407.072">id</text><rect fill="none" height="6" style="stroke:#C82930;stroke-width:1.0;" width="6" x="32" y="417.0222"/><text fill="#000000" font-family="sans-serif" font-size="14" lengthAdjust="spacing" textLength="140" x="44" y="423.3689">numberOfItemPacks</text><line style="stroke:#181818;stroke-width:0.5;" x1="25" x2="189" y1="430.6706" y2="430.6706"/></g><!--class Queue--><g id="elem_Queue"><rect codeLine="35" fill="#F1F1F1" height="64.2969" id="Queue" rx="2.5" ry="2.5" style="stroke:#181818;stroke-width:0.5;" width="79" x="272.5" y="233.7869"/><ellipse cx="287.5" cy="249.7869" fill="#ADD1B2" rx="11" ry="11" style="stroke:#181818;stroke-width:1.0;"/><path d="M290.4688,255.4275 Q289.8906,255.7244 289.25,255.865 Q288.6094,256.0213 287.9063,256.0213 Q285.4063,256.0213 284.0781,254.3806 Q282.7656,252.7244 282.7656,249.5994 Q282.7656,246.4744 284.0781,244.8181 Q285.4063,243.1619 287.9063,243.1619 Q288.6094,243.1619 289.25,243.3181 Q289.9063,243.4744 290.4688,243.7713 L290.4688,246.49 Q289.8438,245.9119 289.25,245.6463 Q288.6563,245.365 288.0313,245.365 Q286.6875,245.365 286,246.4431 Q285.3125,247.5056 285.3125,249.5994 Q285.3125,251.6931 286,252.7713 Q286.6875,253.8338 288.0313,253.8338 Q288.6563,253.8338 289.25,253.5681 Q289.8438,253.2869 290.4688,252.7088 L290.4688,255.4275 Z " fill="#000000"/><text fill="#000000" font-family="sans-serif" font-size="14" lengthAdjust="spacing" textLength="47" x="301.5" y="254.6336">Queue</text><line style="stroke:#181818;stroke-width:0.5;" x1="273.5" x2="350.5" y1="265.7869" y2="265.7869"/><rect fill="none" height="6" style="stroke:#C82930;stroke-width:1.0;" width="6" x="280.5" y="276.4353"/><text fill="#000000" font-family="sans-serif" font-size="14" lengthAdjust="spacing" textLength="28" x="292.5" y="282.782">size</text><line style="stroke:#181818;stroke-width:0.5;" x1="273.5" x2="350.5" y1="290.0838" y2="290.0838"/></g><!--class Cashier--><g id="elem_Cashier"><rect codeLine="39" fill="#F1F1F1" height="129.4844" id="Cashier" rx="2.5" ry="2.5" style="stroke:#181818;stroke-width:0.5;" width="99" x="643.5" y="506.8269"/><ellipse cx="665.25" cy="522.8269" fill="#ADD1B2" rx="11" ry="11" style="stroke:#181818;stroke-width:1.0;"/><path d="M668.2188,528.4675 Q667.6406,528.7644 667,528.905 Q666.3594,529.0613 665.6563,529.0613 Q663.1563,529.0613 661.8281,527.4206 Q660.5156,525.7644 660.5156,522.6394 Q660.5156,519.5144 661.8281,517.8581 Q663.1563,516.2019 665.6563,516.2019 Q666.3594,516.2019 667,516.3581 Q667.6563,516.5144 668.2188,516.8113 L668.2188,519.53 Q667.5938,518.9519 667,518.6863 Q666.4063,518.405 665.7813,518.405 Q664.4375,518.405 663.75,519.4831 Q663.0625,520.5456 663.0625,522.6394 Q663.0625,524.7331 663.75,525.8113 Q664.4375,526.8738 665.7813,526.8738 Q666.4063,526.8738 667,526.6081 Q667.5938,526.3269 668.2188,525.7488 L668.2188,528.4675 Z " fill="#000000"/><text fill="#000000" font-family="sans-serif" font-size="14" lengthAdjust="spacing" textLength="52" x="680.75" y="527.6736">Cashier</text><line style="stroke:#181818;stroke-width:0.5;" x1="644.5" x2="741.5" y1="538.8269" y2="538.8269"/><rect fill="none" height="6" style="stroke:#C82930;stroke-width:1.0;" width="6" x="651.5" y="549.4753"/><text fill="#000000" font-family="sans-serif" font-size="14" lengthAdjust="spacing" textLength="12" x="663.5" y="555.822">id</text><rect fill="none" height="6" style="stroke:#C82930;stroke-width:1.0;" width="6" x="651.5" y="565.7722"/><text fill="#000000" font-family="sans-serif" font-size="14" lengthAdjust="spacing" textLength="39" x="663.5" y="572.1189">name</text><rect fill="none" height="6" style="stroke:#C82930;stroke-width:1.0;" width="6" x="651.5" y="582.0691"/><text fill="#000000" font-family="sans-serif" font-size="14" lengthAdjust="spacing" textLength="63" x="663.5" y="588.4157">workShift</text><rect fill="none" height="6" style="stroke:#C82930;stroke-width:1.0;" width="6" x="651.5" y="598.3659"/><text fill="#000000" font-family="sans-serif" font-size="14" lengthAdjust="spacing" textLength="73" x="663.5" y="604.7126">workBreak</text><rect fill="none" height="6" style="stroke:#C82930;stroke-width:1.0;" width="6" x="651.5" y="614.6628"/><text fill="#000000" font-family="sans-serif" font-size="14" lengthAdjust="spacing" textLength="62" x="663.5" y="621.0095">isServing</text><line style="stroke:#181818;stroke-width:0.5;" x1="644.5" x2="741.5" y1="628.3113" y2="628.3113"/></g><!--class DataLog--><g id="elem_DataLog"><rect codeLine="47" fill="#F1F1F1" height="48" id="DataLog" rx="2.5" ry="2.5" style="stroke:#181818;stroke-width:0.5;" width="89" x="198.5" y="704.4569"/><ellipse cx="213.5" cy="720.4569" fill="#ADD1B2" rx="11" ry="11" style="stroke:#181818;stroke-width:1.0;"/><path d="M216.4688,726.0975 Q215.8906,726.3944 215.25,726.535 Q214.6094,726.6913 213.9063,726.6913 Q211.4063,726.6913 210.0781,725.0506 Q208.7656,723.3944 208.7656,720.2694 Q208.7656,717.1444 210.0781,715.4881 Q211.4063,713.8319 213.9063,713.8319 Q214.6094,713.8319 215.25,713.9881 Q215.9063,714.1444 216.4688,714.4413 L216.4688,717.16 Q215.8438,716.5819 215.25,716.3163 Q214.6563,716.035 214.0313,716.035 Q212.6875,716.035 212,717.1131 Q211.3125,718.1756 211.3125,720.2694 Q211.3125,722.3631 212,723.4413 Q212.6875,724.5038 214.0313,724.5038 Q214.6563,724.5038 215.25,724.2381 Q215.8438,723.9569 216.4688,723.3788 L216.4688,726.0975 Z " fill="#000000"/><text fill="#000000" font-family="sans-serif" font-size="14" lengthAdjust="spacing" textLength="57" x="227.5" y="725.3036">DataLog</text><line style="stroke:#181818;stroke-width:0.5;" x1="199.5" x2="286.5" y1="736.4569" y2="736.4569"/><line style="stroke:#181818;stroke-width:0.5;" x1="199.5" x2="286.5" y1="744.4569" y2="744.4569"/></g><!--link ShoppingCenter to Queue--><g id="link_ShoppingCenter_Queue"><path codeLine="52" d="M393.07,173.9369 C374.81,194.4369 355.38,216.2469 340.12,233.3669 " fill="none" id="ShoppingCenter-Queue" style="stroke:#181818;stroke-width:1.0;"/></g><!--reverse link ShoppingCenter to Customer--><g id="link_ShoppingCenter_Customer"><path codeLine="53" d="M366.9779,162.7266 C311.5879,197.8766 255,233.7869 255,233.7869 C255,233.7869 186.63,309.3569 142.83,357.7769 " fill="none" id="ShoppingCenter-backto-Customer" style="stroke:#181818;stroke-width:1.0;"/><polygon fill="none" points="377.11,156.2969,369.9007,156.1344,366.9779,162.7266,374.1872,162.8891,377.11,156.2969" style="stroke:#181818;stroke-width:1.0;"/><text fill="#000000" font-family="sans-serif" font-size="13" lengthAdjust="spacing" textLength="8" x="361.5411" y="157.284">1</text><text fill="#000000" font-family="sans-serif" font-size="13" lengthAdjust="spacing" textLength="7" x="141.1847" y="346.8887">*</text></g><!--reverse link ShoppingCenter to Cashier--><g id="link_ShoppingCenter_Cashier"><path codeLine="54" d="M532.4307,171.4892 C577.0307,204.7392 616,233.7869 616,233.7869 C616,233.7869 655.99,408.7169 678.34,506.4269 " fill="none" id="ShoppingCenter-backto-Cashier" style="stroke:#181818;stroke-width:1.0;"/><polygon fill="#181818" points="522.81,164.3169,525.2295,171.1099,532.4307,171.4892,530.0111,164.6962,522.81,164.3169" style="stroke:#181818;stroke-width:1.0;"/><text fill="#000000" font-family="sans-serif" font-size="13" lengthAdjust="spacing" textLength="8" x="530.731" y="166.3177">1</text><text fill="#000000" font-family="sans-serif" font-size="13" lengthAdjust="spacing" textLength="7" x="669.3538" y="495.5558">*</text></g><!--reverse link ShoppingCenter to CashRegister--><g id="link_ShoppingCenter_CashRegister"><path codeLine="55" d="M366.3325,150.0103 C289.7325,186.6103 191,233.7869 191,233.7869 C191,233.7869 6,358.0769 6,358.0769 C6,358.0769 6,438.6769 6,438.6769 C6,438.6769 30.83,467.6569 57.21,498.4469 " fill="none" id="ShoppingCenter-backto-CashRegister" style="stroke:#181818;stroke-width:1.0;"/><polygon fill="#181818" points="377.16,144.8369,370.0218,143.8144,366.3325,150.0103,373.4707,151.0328,377.16,144.8369" style="stroke:#181818;stroke-width:1.0;"/><text fill="#000000" font-family="sans-serif" font-size="13" lengthAdjust="spacing" textLength="8" x="361.5961" y="144.6959">1</text><text fill="#000000" font-family="sans-serif" font-size="13" lengthAdjust="spacing" textLength="7" x="43.783" y="487.5842">*</text></g><!--link Queue to AttentionCenter--><g id="link_Queue_AttentionCenter"><path codeLine="57" d="M328.7,298.5069 C339.55,319.0169 353.63,345.6369 364.45,366.0969 " fill="none" id="Queue-AttentionCenter" style="stroke:#181818;stroke-width:1.0;"/></g><!--link Queue to Customer--><g id="link_Queue_Customer"><path codeLine="58" d="M272.47,292.0869 C243.27,310.6669 202.93,336.3369 169.39,357.6769 " fill="none" id="Queue-Customer" style="stroke:#181818;stroke-width:1.0;"/></g><!--link Customer to AttentionCenter--><g id="link_Customer_AttentionCenter"><path codeLine="60" d="M190.23,398.3769 C195.25,398.3769 198.33,398.3769 198.33,398.3769 C198.33,398.3769 289.67,398.3769 289.67,398.3769 C289.67,398.3769 291.9,398.3769 295.66,398.3769 " fill="none" id="Customer-AttentionCenter" style="stroke:#181818;stroke-width:1.0;"/></g><!--link AttentionCenter to CashRegister--><g id="link_AttentionCenter_CashRegister"><path codeLine="61" d="M332.64,430.9769 C292.72,457.0569 235.49,494.4569 190.31,523.9769 " fill="none" id="AttentionCenter-CashRegister" style="stroke:#181818;stroke-width:1.0;"/></g><!--link AttentionCenter to Time--><g id="link_AttentionCenter_Time"><path codeLine="62" d="M381,430.7769 C381,464.3669 381,516.8769 381,547.0669 " fill="none" id="AttentionCenter-Time" style="stroke:#181818;stroke-width:1.0;stroke-dasharray:7.0,7.0;"/></g><!--link CashRegister to Cashier--><g id="link_CashRegister_Cashier"><path codeLine="64" d="M190.36,539.4369 C257.4,509.2469 347.5,468.6769 347.5,468.6769 C347.5,468.6769 598.5,468.6769 598.5,468.6769 C598.5,468.6769 620.49,492.6169 643.26,517.4069 " fill="none" id="CashRegister-Cashier" style="stroke:#181818;stroke-width:1.0;"/></g><!--link CashRegister to Customer--><g id="link_CashRegister_Customer"><path codeLine="66" d="M113.95,498.4969 C112.52,478.1469 111.02,456.7669 109.78,439.0869 " fill="none" id="CashRegister-Customer" style="stroke:#181818;stroke-width:1.0;"/></g><!--link CashRegister to Time--><g id="link_CashRegister_Time"><path codeLine="67" d="M190.32,571.5669 C199.8,571.5669 206.33,571.5669 206.33,571.5669 C206.33,571.5669 293.67,571.5669 293.67,571.5669 C293.67,571.5669 323.25,571.5669 347.98,571.5669 " fill="none" id="CashRegister-Time" style="stroke:#181818;stroke-width:1.0;stroke-dasharray:7.0,7.0;"/></g><!--link ShoppingCenter to Time--><g id="link_ShoppingCenter_Time"><path codeLine="69" d="M458.54,174.2369 C468.32,247.7369 483,358.0769 483,358.0769 C483,358.0769 483,438.6769 483,438.6769 C483,438.6769 428.28,509.4269 399,547.2869 " fill="none" id="ShoppingCenter-Time" style="stroke:#181818;stroke-width:1.0;stroke-dasharray:7.0,7.0;"/></g><!--link ShoppingCenter to DataLog--><g id="link_ShoppingCenter_DataLog"><path codeLine="70" d="M473.81,174.0869 C485.03,204.2869 496,233.7869 496,233.7869 C496,233.7869 509,358.0769 509,358.0769 C509,358.0769 509,438.6769 509,438.6769 C509,438.6769 432,644.4569 432,644.4569 C432,644.4569 343.68,683.2469 287.79,707.7869 " fill="none" id="ShoppingCenter-DataLog" style="stroke:#181818;stroke-width:1.0;stroke-dasharray:7.0,7.0;"/></g><!--link Queue to DataLog--><g id="link_Queue_DataLog"><path codeLine="71" d="M300.55,298.5569 C291.02,324.8869 279,358.0769 279,358.0769 C279,358.0769 253.19,622.8769 245.28,704.0669 " fill="none" id="Queue-DataLog" style="stroke:#181818;stroke-width:1.0;stroke-dasharray:7.0,7.0;"/></g><!--link CashRegister to DataLog--><g id="link_CashRegister_DataLog"><path codeLine="72" d="M176.64,644.5669 C193.85,666.0569 211.5,688.1069 224.27,704.0569 " fill="none" id="CashRegister-DataLog" style="stroke:#181818;stroke-width:1.0;stroke-dasharray:7.0,7.0;"/></g><!--SRC=[XL9HReCm3FtFAI8-AmLfHzYefasQrAxT1LBgWjL0K68wiMftNoY415ffVE7tR3y_E_QCTIEDhBZ26gXhW3TQTNt0624fu9cIrl8rog9F4ppBibV6yXlwXHLS6VlryRxKJODraK5DOFYLSVS9hXke7VgcMpCYkT9sZf1hDVvAO_0YrTReWpoWGkf60kt6TGfopqHE27Kzw7avg1hgCcdB7HHe7M53IGnFy-7HZzKQurhrIGZnP5imxmJLLkRdC4lUEhDmd0yt10OgYRtdlYAMRotfwf5qtLO7C9kJbucAFbjeOQgm-0DpF_Ymdvps-QtDUL_YYQBunO0CLlPWBcxOq7OjINxeOhWjMvnLY66a9Puy9LmxCbabaz57EIkVCwxvdnH_BiQ6HJXgSVX015ssoE52mOb4IBZZnLnjoQVfxRapDdj2mc1HafYyBDX8RqRuNWlhQReRY3lSNsIq6W7plXF-1m00]--></g></svg>