<?xml version="1.0" encoding="us-ascii" standalone="no"?><svg xmlns="http://www.w3.org/2000/svg" xmlns:xlink="http://www.w3.org/1999/xlink" contentStyleType="text/css" height="477px" preserveAspectRatio="none" style="width:575px;height:477px;background:#FFFFFF;" version="1.1" viewBox="0 0 575 477" width="575px" zoomAndPan="magnify"><defs/><g><text fill="#000000" font-family="sans-serif" font-size="14" font-weight="bold" lengthAdjust="spacing" textLength="171" x="195" y="22.9951">Class Diagram - CCCF</text><!--class ShoppingCenter--><g id="elem_ShoppingCenter"><rect codeLine="5" fill="#F1F1F1" height="129.4844" id="ShoppingCenter" rx="2.5" ry="2.5" style="stroke:#181818;stroke-width:0.5;" width="151" x="18.5" y="44.2969"/><ellipse cx="33.5" cy="60.2969" fill="#ADD1B2" rx="11" ry="11" style="stroke:#181818;stroke-width:1.0;"/><path d="M35.8438,55.9688 C34.9063,55.5313 34.3125,55.3906 33.4375,55.3906 C30.8125,55.3906 28.8125,57.4688 28.8125,60.1875 L28.8125,61.3125 C28.8125,63.8906 30.9219,65.7813 33.8125,65.7813 C35.0313,65.7813 36.1875,65.4844 36.9375,64.9375 C37.5156,64.5313 37.8438,64.0781 37.8438,63.6875 C37.8438,63.2344 37.4531,62.8438 36.9844,62.8438 C36.7656,62.8438 36.5625,62.9219 36.375,63.1094 C35.9219,63.5938 35.9219,63.5938 35.7344,63.6875 C35.3125,63.9531 34.625,64.0781 33.8594,64.0781 C31.8125,64.0781 30.5156,62.9844 30.5156,61.2813 L30.5156,60.1875 C30.5156,58.4063 31.7656,57.0938 33.5,57.0938 C34.0781,57.0938 34.6875,57.25 35.1563,57.5 C35.6406,57.7813 35.8125,58 35.9063,58.4063 C35.9688,58.8125 36,58.9375 36.1406,59.0625 C36.2813,59.2031 36.5156,59.3125 36.7344,59.3125 C37,59.3125 37.2656,59.1719 37.4375,58.9531 C37.5469,58.7969 37.5781,58.6094 37.5781,58.1875 L37.5781,56.7656 C37.5781,56.3281 37.5625,56.2031 37.4688,56.0469 C37.3125,55.7813 37.0313,55.6406 36.7344,55.6406 C36.4375,55.6406 36.2344,55.7344 36.0156,56.0469 L35.8438,55.9688 Z " fill="#000000"/><text fill="#000000" font-family="sans-serif" font-size="14" lengthAdjust="spacing" textLength="119" x="47.5" y="65.1436">ShoppingCenter</text><line style="stroke:#181818;stroke-width:0.5;" x1="19.5" x2="168.5" y1="76.2969" y2="76.2969"/><rect fill="none" height="6" style="stroke:#C82930;stroke-width:1.0;" width="6" x="26.5" y="86.9453"/><text fill="#000000" font-family="sans-serif" font-size="14" lengthAdjust="spacing" textLength="92" x="38.5" y="93.292">openingHour</text><rect fill="none" height="6" style="stroke:#C82930;stroke-width:1.0;" width="6" x="26.5" y="103.2422"/><text fill="#000000" font-family="sans-serif" font-size="14" lengthAdjust="spacing" textLength="83" x="38.5" y="109.5889">closingHour</text><rect fill="none" height="6" style="stroke:#C82930;stroke-width:1.0;" width="6" x="26.5" y="119.5391"/><text fill="#000000" font-family="sans-serif" font-size="14" lengthAdjust="spacing" textLength="34" x="38.5" y="125.8857">time</text><rect fill="none" height="6" style="stroke:#C82930;stroke-width:1.0;" width="6" x="26.5" y="135.8359"/><text fill="#000000" font-family="sans-serif" font-size="14" lengthAdjust="spacing" textLength="123" x="38.5" y="142.1826">arrivalProbability</text><rect fill="none" height="6" style="stroke:#C82930;stroke-width:1.0;" width="6" x="26.5" y="152.1328"/><text fill="#000000" font-family="sans-serif" font-size="14" lengthAdjust="spacing" textLength="50" x="38.5" y="158.4795">isOpen</text><line style="stroke:#181818;stroke-width:0.5;" x1="19.5" x2="168.5" y1="165.7813" y2="165.7813"/></g><!--class AttentionCenter--><g id="elem_AttentionCenter"><rect codeLine="13" fill="#F1F1F1" height="64.2969" id="AttentionCenter" rx="2.5" ry="2.5" style="stroke:#181818;stroke-width:0.5;" width="176" x="205" y="76.7969"/><ellipse cx="230.35" cy="92.7969" fill="#ADD1B2" rx="11" ry="11" style="stroke:#181818;stroke-width:1.0;"/><path d="M232.6938,88.4688 C231.7563,88.0313 231.1625,87.8906 230.2875,87.8906 C227.6625,87.8906 225.6625,89.9688 225.6625,92.6875 L225.6625,93.8125 C225.6625,96.3906 227.7719,98.2813 230.6625,98.2813 C231.8813,98.2813 233.0375,97.9844 233.7875,97.4375 C234.3656,97.0313 234.6938,96.5781 234.6938,96.1875 C234.6938,95.7344 234.3031,95.3438 233.8344,95.3438 C233.6156,95.3438 233.4125,95.4219 233.225,95.6094 C232.7719,96.0938 232.7719,96.0938 232.5844,96.1875 C232.1625,96.4531 231.475,96.5781 230.7094,96.5781 C228.6625,96.5781 227.3656,95.4844 227.3656,93.7813 L227.3656,92.6875 C227.3656,90.9063 228.6156,89.5938 230.35,89.5938 C230.9281,89.5938 231.5375,89.75 232.0063,90 C232.4906,90.2813 232.6625,90.5 232.7563,90.9063 C232.8188,91.3125 232.85,91.4375 232.9906,91.5625 C233.1313,91.7031 233.3656,91.8125 233.5844,91.8125 C233.85,91.8125 234.1156,91.6719 234.2875,91.4531 C234.3969,91.2969 234.4281,91.1094 234.4281,90.6875 L234.4281,89.2656 C234.4281,88.8281 234.4125,88.7031 234.3188,88.5469 C234.1625,88.2813 233.8813,88.1406 233.5844,88.1406 C233.2875,88.1406 233.0844,88.2344 232.8656,88.5469 L232.6938,88.4688 Z " fill="#000000"/><text fill="#000000" font-family="sans-serif" font-size="14" lengthAdjust="spacing" textLength="121" x="246.65" y="97.6436">AttentionCenter</text><line style="stroke:#181818;stroke-width:0.5;" x1="206" x2="380" y1="108.7969" y2="108.7969"/><rect fill="none" height="6" style="stroke:#C82930;stroke-width:1.0;" width="6" x="213" y="119.4453"/><text fill="#000000" font-family="sans-serif" font-size="14" lengthAdjust="spacing" textLength="150" x="225" y="125.792">emptyCashRegisters</text><line style="stroke:#181818;stroke-width:0.5;" x1="206" x2="380" y1="133.0938" y2="133.0938"/></g><!--class CashRegister--><g id="elem_CashRegister"><rect codeLine="17" fill="#F1F1F1" height="129.4844" id="CashRegister" rx="2.5" ry="2.5" style="stroke:#181818;stroke-width:0.5;" width="152" x="416" y="44.2969"/><ellipse cx="442.25" cy="60.2969" fill="#ADD1B2" rx="11" ry="11" style="stroke:#181818;stroke-width:1.0;"/><path d="M444.5938,55.9688 C443.6563,55.5313 443.0625,55.3906 442.1875,55.3906 C439.5625,55.3906 437.5625,57.4688 437.5625,60.1875 L437.5625,61.3125 C437.5625,63.8906 439.6719,65.7813 442.5625,65.7813 C443.7813,65.7813 444.9375,65.4844 445.6875,64.9375 C446.2656,64.5313 446.5938,64.0781 446.5938,63.6875 C446.5938,63.2344 446.2031,62.8438 445.7344,62.8438 C445.5156,62.8438 445.3125,62.9219 445.125,63.1094 C444.6719,63.5938 444.6719,63.5938 444.4844,63.6875 C444.0625,63.9531 443.375,64.0781 442.6094,64.0781 C440.5625,64.0781 439.2656,62.9844 439.2656,61.2813 L439.2656,60.1875 C439.2656,58.4063 440.5156,57.0938 442.25,57.0938 C442.8281,57.0938 443.4375,57.25 443.9063,57.5 C444.3906,57.7813 444.5625,58 444.6563,58.4063 C444.7188,58.8125 444.75,58.9375 444.8906,59.0625 C445.0313,59.2031 445.2656,59.3125 445.4844,59.3125 C445.75,59.3125 446.0156,59.1719 446.1875,58.9531 C446.2969,58.7969 446.3281,58.6094 446.3281,58.1875 L446.3281,56.7656 C446.3281,56.3281 446.3125,56.2031 446.2188,56.0469 C446.0625,55.7813 445.7813,55.6406 445.4844,55.6406 C445.1875,55.6406 444.9844,55.7344 444.7656,56.0469 L444.5938,55.9688 Z " fill="#000000"/><text fill="#000000" font-family="sans-serif" font-size="14" lengthAdjust="spacing" textLength="95" x="458.75" y="65.1436">CashRegister</text><line style="stroke:#181818;stroke-width:0.5;" x1="417" x2="567" y1="76.2969" y2="76.2969"/><rect fill="none" height="6" style="stroke:#C82930;stroke-width:1.0;" width="6" x="424" y="86.9453"/><text fill="#000000" font-family="sans-serif" font-size="14" lengthAdjust="spacing" textLength="13" x="436" y="93.292">id</text><rect fill="none" height="6" style="stroke:#C82930;stroke-width:1.0;" width="6" x="424" y="103.2422"/><text fill="#000000" font-family="sans-serif" font-size="14" lengthAdjust="spacing" textLength="106" x="436" y="109.5889">currentCashier</text><rect fill="none" height="6" style="stroke:#C82930;stroke-width:1.0;" width="6" x="424" y="119.5391"/><text fill="#000000" font-family="sans-serif" font-size="14" lengthAdjust="spacing" textLength="126" x="436" y="125.8857">timePerItemPack</text><rect fill="none" height="6" style="stroke:#C82930;stroke-width:1.0;" width="6" x="424" y="135.8359"/><text fill="#000000" font-family="sans-serif" font-size="14" lengthAdjust="spacing" textLength="80" x="436" y="142.1826">isOcuppied</text><rect fill="none" height="6" style="stroke:#C82930;stroke-width:1.0;" width="6" x="424" y="152.1328"/><text fill="#000000" font-family="sans-serif" font-size="14" lengthAdjust="spacing" textLength="50" x="436" y="158.4795">isOpen</text><line style="stroke:#181818;stroke-width:0.5;" x1="417" x2="567" y1="165.7813" y2="165.7813"/></g><!--class Customer--><g id="elem_Customer"><rect codeLine="25" fill="#F1F1F1" height="80.5938" id="Customer" rx="2.5" ry="2.5" style="stroke:#181818;stroke-width:0.5;" width="174" x="7" y="257.2969"/><ellipse cx="54.75" cy="273.2969" fill="#ADD1B2" rx="11" ry="11" style="stroke:#181818;stroke-width:1.0;"/><path d="M57.0938,268.9688 C56.1563,268.5313 55.5625,268.3906 54.6875,268.3906 C52.0625,268.3906 50.0625,270.4688 50.0625,273.1875 L50.0625,274.3125 C50.0625,276.8906 52.1719,278.7813 55.0625,278.7813 C56.2813,278.7813 57.4375,278.4844 58.1875,277.9375 C58.7656,277.5313 59.0938,277.0781 59.0938,276.6875 C59.0938,276.2344 58.7031,275.8438 58.2344,275.8438 C58.0156,275.8438 57.8125,275.9219 57.625,276.1094 C57.1719,276.5938 57.1719,276.5938 56.9844,276.6875 C56.5625,276.9531 55.875,277.0781 55.1094,277.0781 C53.0625,277.0781 51.7656,275.9844 51.7656,274.2813 L51.7656,273.1875 C51.7656,271.4063 53.0156,270.0938 54.75,270.0938 C55.3281,270.0938 55.9375,270.25 56.4063,270.5 C56.8906,270.7813 57.0625,271 57.1563,271.4063 C57.2188,271.8125 57.25,271.9375 57.3906,272.0625 C57.5313,272.2031 57.7656,272.3125 57.9844,272.3125 C58.25,272.3125 58.5156,272.1719 58.6875,271.9531 C58.7969,271.7969 58.8281,271.6094 58.8281,271.1875 L58.8281,269.7656 C58.8281,269.3281 58.8125,269.2031 58.7188,269.0469 C58.5625,268.7813 58.2813,268.6406 57.9844,268.6406 C57.6875,268.6406 57.4844,268.7344 57.2656,269.0469 L57.0938,268.9688 Z " fill="#000000"/><text fill="#000000" font-family="sans-serif" font-size="14" lengthAdjust="spacing" textLength="70" x="75.25" y="278.1436">Customer</text><line style="stroke:#181818;stroke-width:0.5;" x1="8" x2="180" y1="289.2969" y2="289.2969"/><rect fill="none" height="6" style="stroke:#C82930;stroke-width:1.0;" width="6" x="15" y="299.9453"/><text fill="#000000" font-family="sans-serif" font-size="14" lengthAdjust="spacing" textLength="13" x="27" y="306.292">id</text><rect fill="none" height="6" style="stroke:#C82930;stroke-width:1.0;" width="6" x="15" y="316.2422"/><text fill="#000000" font-family="sans-serif" font-size="14" lengthAdjust="spacing" textLength="148" x="27" y="322.5889">numberOfItemPacks</text><line style="stroke:#181818;stroke-width:0.5;" x1="8" x2="180" y1="329.8906" y2="329.8906"/></g><!--class Queue--><g id="elem_Queue"><rect codeLine="30" fill="#F1F1F1" height="64.2969" id="Queue" rx="2.5" ry="2.5" style="stroke:#181818;stroke-width:0.5;" width="77" x="216.5" y="265.7969"/><ellipse cx="231.5" cy="281.7969" fill="#ADD1B2" rx="11" ry="11" style="stroke:#181818;stroke-width:1.0;"/><path d="M233.8438,277.4688 C232.9063,277.0313 232.3125,276.8906 231.4375,276.8906 C228.8125,276.8906 226.8125,278.9688 226.8125,281.6875 L226.8125,282.8125 C226.8125,285.3906 228.9219,287.2813 231.8125,287.2813 C233.0313,287.2813 234.1875,286.9844 234.9375,286.4375 C235.5156,286.0313 235.8438,285.5781 235.8438,285.1875 C235.8438,284.7344 235.4531,284.3438 234.9844,284.3438 C234.7656,284.3438 234.5625,284.4219 234.375,284.6094 C233.9219,285.0938 233.9219,285.0938 233.7344,285.1875 C233.3125,285.4531 232.625,285.5781 231.8594,285.5781 C229.8125,285.5781 228.5156,284.4844 228.5156,282.7813 L228.5156,281.6875 C228.5156,279.9063 229.7656,278.5938 231.5,278.5938 C232.0781,278.5938 232.6875,278.75 233.1563,279 C233.6406,279.2813 233.8125,279.5 233.9063,279.9063 C233.9688,280.3125 234,280.4375 234.1406,280.5625 C234.2813,280.7031 234.5156,280.8125 234.7344,280.8125 C235,280.8125 235.2656,280.6719 235.4375,280.4531 C235.5469,280.2969 235.5781,280.1094 235.5781,279.6875 L235.5781,278.2656 C235.5781,277.8281 235.5625,277.7031 235.4688,277.5469 C235.3125,277.2813 235.0313,277.1406 234.7344,277.1406 C234.4375,277.1406 234.2344,277.2344 234.0156,277.5469 L233.8438,277.4688 Z " fill="#000000"/><text fill="#000000" font-family="sans-serif" font-size="14" lengthAdjust="spacing" textLength="45" x="245.5" y="286.6436">Queue</text><line style="stroke:#181818;stroke-width:0.5;" x1="217.5" x2="292.5" y1="297.7969" y2="297.7969"/><rect fill="none" height="6" style="stroke:#C82930;stroke-width:1.0;" width="6" x="224.5" y="308.4453"/><text fill="#000000" font-family="sans-serif" font-size="14" lengthAdjust="spacing" textLength="28" x="236.5" y="314.792">size</text><line style="stroke:#181818;stroke-width:0.5;" x1="217.5" x2="292.5" y1="322.0938" y2="322.0938"/></g><!--class Cashier--><g id="elem_Cashier"><rect codeLine="34" fill="#F1F1F1" height="129.4844" id="Cashier" rx="2.5" ry="2.5" style="stroke:#181818;stroke-width:0.5;" width="103" x="328.5" y="233.2969"/><ellipse cx="351.6" cy="249.2969" fill="#ADD1B2" rx="11" ry="11" style="stroke:#181818;stroke-width:1.0;"/><path d="M353.9438,244.9688 C353.0063,244.5313 352.4125,244.3906 351.5375,244.3906 C348.9125,244.3906 346.9125,246.4688 346.9125,249.1875 L346.9125,250.3125 C346.9125,252.8906 349.0219,254.7813 351.9125,254.7813 C353.1313,254.7813 354.2875,254.4844 355.0375,253.9375 C355.6156,253.5313 355.9438,253.0781 355.9438,252.6875 C355.9438,252.2344 355.5531,251.8438 355.0844,251.8438 C354.8656,251.8438 354.6625,251.9219 354.475,252.1094 C354.0219,252.5938 354.0219,252.5938 353.8344,252.6875 C353.4125,252.9531 352.725,253.0781 351.9594,253.0781 C349.9125,253.0781 348.6156,251.9844 348.6156,250.2813 L348.6156,249.1875 C348.6156,247.4063 349.8656,246.0938 351.6,246.0938 C352.1781,246.0938 352.7875,246.25 353.2563,246.5 C353.7406,246.7813 353.9125,247 354.0063,247.4063 C354.0688,247.8125 354.1,247.9375 354.2406,248.0625 C354.3813,248.2031 354.6156,248.3125 354.8344,248.3125 C355.1,248.3125 355.3656,248.1719 355.5375,247.9531 C355.6469,247.7969 355.6781,247.6094 355.6781,247.1875 L355.6781,245.7656 C355.6781,245.3281 355.6625,245.2031 355.5688,245.0469 C355.4125,244.7813 355.1313,244.6406 354.8344,244.6406 C354.5375,244.6406 354.3344,244.7344 354.1156,245.0469 L353.9438,244.9688 Z " fill="#000000"/><text fill="#000000" font-family="sans-serif" font-size="14" lengthAdjust="spacing" textLength="53" x="367.4" y="254.1436">Cashier</text><line style="stroke:#181818;stroke-width:0.5;" x1="329.5" x2="430.5" y1="265.2969" y2="265.2969"/><rect fill="none" height="6" style="stroke:#C82930;stroke-width:1.0;" width="6" x="336.5" y="275.9453"/><text fill="#000000" font-family="sans-serif" font-size="14" lengthAdjust="spacing" textLength="13" x="348.5" y="282.292">id</text><rect fill="none" height="6" style="stroke:#C82930;stroke-width:1.0;" width="6" x="336.5" y="292.2422"/><text fill="#000000" font-family="sans-serif" font-size="14" lengthAdjust="spacing" textLength="40" x="348.5" y="298.5889">name</text><rect fill="none" height="6" style="stroke:#C82930;stroke-width:1.0;" width="6" x="336.5" y="308.5391"/><text fill="#000000" font-family="sans-serif" font-size="14" lengthAdjust="spacing" textLength="70" x="348.5" y="314.8857">workShift</text><rect fill="none" height="6" style="stroke:#C82930;stroke-width:1.0;" width="6" x="336.5" y="324.8359"/><text fill="#000000" font-family="sans-serif" font-size="14" lengthAdjust="spacing" textLength="77" x="348.5" y="331.1826">workBreak</text><rect fill="none" height="6" style="stroke:#C82930;stroke-width:1.0;" width="6" x="336.5" y="341.1328"/><text fill="#000000" font-family="sans-serif" font-size="14" lengthAdjust="spacing" textLength="65" x="348.5" y="347.4795">isServing</text><line style="stroke:#181818;stroke-width:0.5;" x1="329.5" x2="430.5" y1="354.7813" y2="354.7813"/></g><!--class DataLog--><g id="elem_DataLog"><rect codeLine="42" fill="#F1F1F1" height="48" id="DataLog" rx="2.5" ry="2.5" style="stroke:#181818;stroke-width:0.5;" width="92" x="48" y="422.2969"/><ellipse cx="63" cy="438.2969" fill="#ADD1B2" rx="11" ry="11" style="stroke:#181818;stroke-width:1.0;"/><path d="M65.3438,433.9688 C64.4063,433.5313 63.8125,433.3906 62.9375,433.3906 C60.3125,433.3906 58.3125,435.4688 58.3125,438.1875 L58.3125,439.3125 C58.3125,441.8906 60.4219,443.7813 63.3125,443.7813 C64.5313,443.7813 65.6875,443.4844 66.4375,442.9375 C67.0156,442.5313 67.3438,442.0781 67.3438,441.6875 C67.3438,441.2344 66.9531,440.8438 66.4844,440.8438 C66.2656,440.8438 66.0625,440.9219 65.875,441.1094 C65.4219,441.5938 65.4219,441.5938 65.2344,441.6875 C64.8125,441.9531 64.125,442.0781 63.3594,442.0781 C61.3125,442.0781 60.0156,440.9844 60.0156,439.2813 L60.0156,438.1875 C60.0156,436.4063 61.2656,435.0938 63,435.0938 C63.5781,435.0938 64.1875,435.25 64.6563,435.5 C65.1406,435.7813 65.3125,436 65.4063,436.4063 C65.4688,436.8125 65.5,436.9375 65.6406,437.0625 C65.7813,437.2031 66.0156,437.3125 66.2344,437.3125 C66.5,437.3125 66.7656,437.1719 66.9375,436.9531 C67.0469,436.7969 67.0781,436.6094 67.0781,436.1875 L67.0781,434.7656 C67.0781,434.3281 67.0625,434.2031 66.9688,434.0469 C66.8125,433.7813 66.5313,433.6406 66.2344,433.6406 C65.9375,433.6406 65.7344,433.7344 65.5156,434.0469 L65.3438,433.9688 Z " fill="#000000"/><text fill="#000000" font-family="sans-serif" font-size="14" lengthAdjust="spacing" textLength="60" x="77" y="443.1436">DataLog</text><line style="stroke:#181818;stroke-width:0.5;" x1="49" x2="139" y1="454.2969" y2="454.2969"/><line style="stroke:#181818;stroke-width:0.5;" x1="49" x2="139" y1="462.2969" y2="462.2969"/></g><!--SRC=[TP3hJiCm38N_vodo0di8o8H0GjgWJ-1sNcirDpdEK9dsxgJGswIHNycnVSuNfvvy10QdBNcK8QAEmGxZGoaXiQYDXPJqdg0TstRQ6FEYLFEhLbs8aNnhq0kolYfTpaw7YBweho7pf3Gsf7j5oE5q1MQwW3rogA4cIp9C1Kg7ugHkSzoJI0cYuF_ovZXqKGO3gVl4bb8ff7LaAozyT9gnCdEn6fi8jsH7v3T1TuIcNrcQN3wBft_WJ4uItACKdrsDV3ZFZXkyZumPbub4ttYFJW_zO5dTL-2-wkWic_Sp8wpK5VAbR7wrtOF0UsYlIjr-0000]--></g></svg>