<?xml version="1.0" encoding="us-ascii" standalone="no"?><svg xmlns="http://www.w3.org/2000/svg" xmlns:xlink="http://www.w3.org/1999/xlink" contentStyleType="text/css" height="332px" preserveAspectRatio="none" style="width:1505px;height:332px;background:#FFFFFF;" version="1.1" viewBox="0 0 1505 332" width="1505px" zoomAndPan="magnify"><defs/><g><g id="elem_sc"><rect fill="#F1F1F1" height="36.2969" style="stroke:#181818;stroke-width:0.5;" width="210" x="649" y="7"/><text fill="#000000" font-family="sans-serif" font-size="14" lengthAdjust="spacing" textLength="196" x="656" y="21.9951">Carrefour: ShoppingCenter</text><line style="stroke:#181818;stroke-width:0.5;" x1="650" x2="858" y1="27.2969" y2="27.2969"/></g><g id="elem_queue"><rect fill="#F1F1F1" height="93.4844" style="stroke:#181818;stroke-width:0.5;" width="168" x="670" y="120"/><text fill="#000000" font-family="sans-serif" font-size="14" lengthAdjust="spacing" textLength="106" x="701" y="134.9951">queue1: Queue</text><line style="stroke:#181818;stroke-width:0.5;" x1="671" x2="837" y1="140.2969" y2="140.2969"/><text fill="#000000" font-family="sans-serif" font-size="14" lengthAdjust="spacing" textLength="155" x="676" y="157.292">customer4: Customer</text><text fill="#000000" font-family="sans-serif" font-size="14" lengthAdjust="spacing" textLength="156" x="676" y="173.5889">customer3: Customer</text><text fill="#000000" font-family="sans-serif" font-size="14" lengthAdjust="spacing" textLength="155" x="676" y="189.8857">customer2: Customer</text><text fill="#000000" font-family="sans-serif" font-size="14" lengthAdjust="spacing" textLength="156" x="676" y="206.1826">customer1: Customer</text></g><g id="elem_cr1"><rect fill="#F1F1F1" height="36.2969" style="stroke:#181818;stroke-width:0.5;" width="220" x="7" y="290"/><text fill="#000000" font-family="sans-serif" font-size="14" lengthAdjust="spacing" textLength="206" x="14" y="304.9951">cashRegister1: CashRegister</text><line style="stroke:#181818;stroke-width:0.5;" x1="8" x2="226" y1="310.2969" y2="310.2969"/></g><g id="elem_cr2"><rect fill="#F1F1F1" height="36.2969" style="stroke:#181818;stroke-width:0.5;" width="219" x="262.5" y="290"/><text fill="#000000" font-family="sans-serif" font-size="14" lengthAdjust="spacing" textLength="205" x="269.5" y="304.9951">cashRegister2: CashRegister</text><line style="stroke:#181818;stroke-width:0.5;" x1="263.5" x2="480.5" y1="310.2969" y2="310.2969"/></g><g id="elem_cr3"><rect fill="#F1F1F1" height="36.2969" style="stroke:#181818;stroke-width:0.5;" width="220" x="517" y="290"/><text fill="#000000" font-family="sans-serif" font-size="14" lengthAdjust="spacing" textLength="206" x="524" y="304.9951">cashRegister3: CashRegister</text><line style="stroke:#181818;stroke-width:0.5;" x1="518" x2="736" y1="310.2969" y2="310.2969"/></g><g id="elem_cr4"><rect fill="#F1F1F1" height="36.2969" style="stroke:#181818;stroke-width:0.5;" width="219" x="772.5" y="290"/><text fill="#000000" font-family="sans-serif" font-size="14" lengthAdjust="spacing" textLength="205" x="779.5" y="304.9951">cashRegister4: CashRegister</text><line style="stroke:#181818;stroke-width:0.5;" x1="773.5" x2="990.5" y1="310.2969" y2="310.2969"/></g><g id="elem_cr5"><rect fill="#F1F1F1" height="36.2969" style="stroke:#181818;stroke-width:0.5;" width="219" x="1026.5" y="290"/><text fill="#000000" font-family="sans-serif" font-size="14" lengthAdjust="spacing" textLength="205" x="1033.5" y="304.9951">cashRegister4: CashRegister</text><line style="stroke:#181818;stroke-width:0.5;" x1="1027.5" x2="1244.5" y1="310.2969" y2="310.2969"/></g><g id="elem_cr6"><rect fill="#F1F1F1" height="36.2969" style="stroke:#181818;stroke-width:0.5;" width="219" x="1280.5" y="290"/><text fill="#000000" font-family="sans-serif" font-size="14" lengthAdjust="spacing" textLength="205" x="1287.5" y="304.9951">cashRegister4: CashRegister</text><line style="stroke:#181818;stroke-width:0.5;" x1="1281.5" x2="1498.5" y1="310.2969" y2="310.2969"/></g><!--link sc to queue--><g id="link_sc_queue"><path codeLine="10" d="M754,43.105 C754,62.094 754,93.529 754,119.786 " fill="none" id="sc-queue" style="stroke:#181818;stroke-width:1.0;"/><polygon fill="#000000" points="759,86.5664,761.9389,77.5213,756.0611,77.5213,759,86.5664" style="stroke:#000000;stroke-width:1.0;"/><text fill="#000000" font-family="sans-serif" font-size="13" lengthAdjust="spacing" textLength="54" x="768" y="86.0669">receives</text></g><!--link queue to cr1--><g id="link_queue_cr1"><path codeLine="19" d="M669.949,179.61 C584.172,192.644 447.478,215.283 331,243 C274.601,256.4207 211.092,275.9928 168.012,289.9548 " fill="none" id="queue-cr1" style="stroke:#181818;stroke-width:1.0;"/><polygon fill="#000000" points="331.1166,252.64,340.5818,253.5683,339.3197,247.8275,331.1166,252.64" style="stroke:#000000;stroke-width:1.0;"/><text fill="#000000" font-family="sans-serif" font-size="13" lengthAdjust="spacing" textLength="127" x="345" y="256.0669">delivers a customer</text></g><!--link queue to cr2--><g id="link_queue_cr2"><path codeLine="20" d="M669.89,192.896 C625.565,206.775 570.481,224.81 522,243 C483.165,257.5711 439.655,276.4244 409.538,289.8868 " fill="none" id="queue-cr2" style="stroke:#181818;stroke-width:1.0;"/><polygon fill="#000000" points="522.3146,253.3119,531.8166,252.9083,529.7646,247.4002,522.3146,253.3119" style="stroke:#000000;stroke-width:1.0;"/><text fill="#000000" font-family="sans-serif" font-size="13" lengthAdjust="spacing" textLength="127" x="536" y="256.0669">delivers a customer</text></g><!--link queue to cr3--><g id="link_queue_cr3"><path codeLine="21" d="M712.415,213.178 C688.543,239.3997 659.96,270.7956 642.656,289.8028 " fill="none" id="queue-cr3" style="stroke:#181818;stroke-width:1.0;"/><polygon fill="#000000" points="684.634,255.2637,692.8964,250.5537,688.5499,246.5967,684.634,255.2637" style="stroke:#000000;stroke-width:1.0;"/><text fill="#000000" font-family="sans-serif" font-size="13" lengthAdjust="spacing" textLength="127" x="697" y="256.0669">delivers a customer</text></g><!--link queue to cr4--><g id="link_queue_cr4"><path codeLine="22" d="M804.056,213.084 C813.93,222.695 824.01,232.9693 833,243 C846.543,258.1103 860.464,276.6357 869.99,289.8599 " fill="none" id="queue-cr4" style="stroke:#181818;stroke-width:1.0;"/><polygon fill="#000000" points="856.2575,255.3596,852.5942,246.5829,848.135,250.4124,856.2575,255.3596" style="stroke:#000000;stroke-width:1.0;"/><text fill="#000000" font-family="sans-serif" font-size="13" lengthAdjust="spacing" textLength="127" x="862" y="256.0669">delivers a customer</text></g><!--link queue to cr5--><g id="link_queue_cr5"><path codeLine="23" d="M838.234,190.537 C885.691,204.267 945.749,222.904 998,243 C1034.48,257.0307 1074.9,276.229 1102.52,289.9304 " fill="none" id="queue-cr5" style="stroke:#181818;stroke-width:1.0;"/><polygon fill="#000000" points="1046.68,253.3265,1039.2484,247.3917,1037.1793,252.8933,1046.68,253.3265" style="stroke:#000000;stroke-width:1.0;"/><text fill="#000000" font-family="sans-serif" font-size="13" lengthAdjust="spacing" textLength="127" x="1051" y="256.0669">delivers a customer</text></g><!--link queue to cr6--><g id="link_queue_cr6"><path codeLine="24" d="M838.094,178.783 C925.84,191.343 1067.08,213.779 1187,243 C1240.85,256.1229 1301.29,275.8401 1342.11,289.9184 " fill="none" id="queue-cr6" style="stroke:#181818;stroke-width:1.0;"/><polygon fill="#000000" points="1259.8827,252.643,1251.6826,247.8254,1250.417,253.5654,1259.8827,252.643" style="stroke:#000000;stroke-width:1.0;"/><text fill="#000000" font-family="sans-serif" font-size="13" lengthAdjust="spacing" textLength="127" x="1264" y="256.0669">delivers a customer</text></g><!--SRC=[bT6x3i8W50RWdQSuwTwXG3imkFG9r2T0FBOrMfIBY_7TnRRHcj2Gid3vFm8SzE6Coa5MIsFmfBqHi6_rxTRrJOszGvE1j60L8NgITuyU2m7RJp-ammey2OIcl7NwYeOBgASX_0LiAQ1BGJ4FNeHO1Na-7YesO51Xzq3xkw2IjjrXqratxfrDX-igKqGjZLeQjIngMTJogEKhRBd2LeIC_n5g55uQAdJ4IoYGiI2_9PqJcYOiJNYQb6bInSaR]--></g></svg>