<?xml version="1.0" encoding="us-ascii" standalone="no"?><svg xmlns="http://www.w3.org/2000/svg" xmlns:xlink="http://www.w3.org/1999/xlink" contentStyleType="text/css" height="607px" preserveAspectRatio="none" style="width:434px;height:607px;background:#FFFFFF;" version="1.1" viewBox="0 0 434 607" width="434px" zoomAndPan="magnify"><defs/><g><ellipse cx="214.056" cy="16" fill="#222222" rx="10" ry="10" style="stroke:#222222;stroke-width:1.0;"/><g id="CentroAbierto"><rect fill="#F1F1F1" height="50" rx="12.5" ry="12.5" style="stroke:#181818;stroke-width:0.5;" width="125" x="151.556" y="103"/><line style="stroke:#181818;stroke-width:0.5;" x1="151.556" x2="276.556" y1="129.2969" y2="129.2969"/><text fill="#000000" font-family="sans-serif" font-size="14" lengthAdjust="spacing" textLength="105" x="161.556" y="120.9951">CentroAbierto</text></g><g id="CajaVacia"><rect fill="#F1F1F1" height="50" rx="12.5" ry="12.5" style="stroke:#181818;stroke-width:0.5;" width="88" x="170.056" y="214"/><line style="stroke:#181818;stroke-width:0.5;" x1="170.056" x2="258.056" y1="240.2969" y2="240.2969"/><text fill="#000000" font-family="sans-serif" font-size="14" lengthAdjust="spacing" textLength="68" x="180.056" y="231.9951">CajaVacia</text></g><g id="CajaAtendiendo"><rect fill="#F1F1F1" height="50" rx="12.5" ry="12.5" style="stroke:#181818;stroke-width:0.5;" width="134" x="9.056" y="341"/><line style="stroke:#181818;stroke-width:0.5;" x1="9.056" x2="143.056" y1="367.2969" y2="367.2969"/><text fill="#000000" font-family="sans-serif" font-size="14" lengthAdjust="spacing" textLength="114" x="19.056" y="358.9951">CajaAtendiendo</text></g><g id="CajaCerrada"><rect fill="#F1F1F1" height="50" rx="12.5" ry="12.5" style="stroke:#181818;stroke-width:0.5;" width="106" x="290.056" y="341"/><line style="stroke:#181818;stroke-width:0.5;" x1="290.056" x2="396.056" y1="367.2969" y2="367.2969"/><text fill="#000000" font-family="sans-serif" font-size="14" lengthAdjust="spacing" textLength="86" x="300.056" y="358.9951">CajaCerrada</text></g><g id="CentroCerrado"><rect fill="#F1F1F1" height="50" rx="12.5" ry="12.5" style="stroke:#181818;stroke-width:0.5;" width="127" x="279.556" y="452"/><line style="stroke:#181818;stroke-width:0.5;" x1="279.556" x2="406.556" y1="478.2969" y2="478.2969"/><text fill="#000000" font-family="sans-serif" font-size="14" lengthAdjust="spacing" textLength="107" x="289.556" y="469.9951">CentroCerrado</text></g><ellipse cx="343.056" cy="590" fill="none" rx="11" ry="11" style="stroke:#222222;stroke-width:1.0;"/><ellipse cx="343.056" cy="590" fill="#222222" rx="6" ry="6" style="stroke:#222222;stroke-width:1.0;"/><!--link *start* to CentroAbierto--><g id="link_*start*_CentroAbierto"><path d="M214.056,26.002 C214.056,42.627 214.056,72.655 214.056,96.873 " fill="none" id="*start*-to-CentroAbierto" style="stroke:#181818;stroke-width:1.0;"/><polygon fill="#181818" points="214.056,102.873,218.056,93.873,214.056,97.873,210.056,93.873,214.056,102.873" style="stroke:#181818;stroke-width:1.0;"/><text fill="#000000" font-family="sans-serif" font-size="13" lengthAdjust="spacing" textLength="37" x="215.056" y="69.0669">Iniciar</text></g><!--link CentroAbierto to CajaVacia--><g id="link_CentroAbierto_CajaVacia"><path d="M214.056,153.191 C214.056,171.254 214.056,189.83 214.056,207.877 " fill="none" id="CentroAbierto-to-CajaVacia" style="stroke:#181818;stroke-width:1.0;"/><polygon fill="#181818" points="214.056,213.877,218.056,204.877,214.056,208.877,210.056,204.877,214.056,213.877" style="stroke:#181818;stroke-width:1.0;"/></g><!--link CajaVacia to CajaAtendiendo--><g id="link_CajaVacia_CajaAtendiendo"><path d="M169.629,245.967 C117.651,253.965 36.3426,269.994 18.056,294 C6,309.827 14.853,323.3863 31.8731,336.9463 " fill="none" id="CajaVacia-to-CajaAtendiendo" style="stroke:#181818;stroke-width:1.0;"/><polygon fill="#181818" points="36.5658,340.685,32.0192,331.9484,32.6552,337.5694,27.0342,338.2054,36.5658,340.685" style="stroke:#181818;stroke-width:1.0;"/><text fill="#000000" font-family="sans-serif" font-size="13" lengthAdjust="spacing" textLength="78" x="19.056" y="307.0669">Cliente llega</text></g><!--link CajaAtendiendo to CajaVacia--><g id="link_CajaAtendiendo_CajaVacia"><path d="M102.5821,340.973 C126.993,318.861 158.5652,290.2641 183.0012,268.1291 " fill="none" id="CajaAtendiendo-to-CajaVacia" style="stroke:#181818;stroke-width:1.0;"/><polygon fill="#181818" points="187.448,264.101,178.0923,267.1786,183.7423,267.4578,183.4632,273.1077,187.448,264.101" style="stroke:#181818;stroke-width:1.0;"/><text fill="#000000" font-family="sans-serif" font-size="13" lengthAdjust="spacing" textLength="104" x="155.056" y="307.0669">Cliente atendido</text></g><!--link CajaVacia to CajaCerrada--><g id="link_CajaVacia_CajaCerrada"><path d="M237.407,264.296 C250.874,278.154 268.225,295.747 284.056,311 C294.355,320.924 301.4786,327.5667 311.6206,336.7877 " fill="none" id="CajaVacia-to-CajaCerrada" style="stroke:#181818;stroke-width:1.0;"/><polygon fill="#181818" points="316.06,340.824,312.0917,331.81,312.3605,337.4604,306.71,337.7292,316.06,340.824" style="stroke:#181818;stroke-width:1.0;"/><text fill="#000000" font-family="sans-serif" font-size="13" lengthAdjust="spacing" textLength="70" x="285.056" y="307.0669">Cerrar caja</text></g><!--link CajaCerrada to CajaVacia--><g id="link_CajaCerrada_CajaVacia"><path d="M357.887,340.827 C364.798,326.178 369.617,307.73 360.056,294 C337.277,261.287 298.213,249.2319 264.162,244.1369 " fill="none" id="CajaCerrada-to-CajaVacia" style="stroke:#181818;stroke-width:1.0;"/><polygon fill="#181818" points="258.228,243.249,266.537,248.5368,263.173,243.9889,267.7208,240.6249,258.228,243.249" style="stroke:#181818;stroke-width:1.0;"/><text fill="#000000" font-family="sans-serif" font-size="13" lengthAdjust="spacing" textLength="60" x="366.056" y="307.0669">Abrir caja</text></g><!--link CajaCerrada to CentroCerrado--><g id="link_CajaCerrada_CentroCerrado"><path d="M343.056,391.191 C343.056,409.254 343.056,427.83 343.056,445.877 " fill="none" id="CajaCerrada-to-CentroCerrado" style="stroke:#181818;stroke-width:1.0;"/><polygon fill="#181818" points="343.056,451.877,347.056,442.877,343.056,446.877,339.056,442.877,343.056,451.877" style="stroke:#181818;stroke-width:1.0;"/></g><!--link CentroCerrado to *end*--><g id="link_CentroCerrado_*end*"><path d="M343.056,502.0853 C343.056,526.0597 343.056,555.6954 343.056,572.9353 " fill="none" id="CentroCerrado-to-*end*" style="stroke:#181818;stroke-width:1.0;"/><polygon fill="#181818" points="343.056,578.9353,347.056,569.9353,343.056,573.9353,339.056,569.9353,343.056,578.9353" style="stroke:#181818;stroke-width:1.0;"/><text fill="#000000" font-family="sans-serif" font-size="13" lengthAdjust="spacing" textLength="52" x="344.056" y="545.0669">Finalizar</text></g><!--SRC=[NOyn2iCm34Ltdq9p81VmK326GY_G9MHGOb5KZ0N2KqzVrQ6ftK7mzV_Z2otJ2lDyWKYbgeIDIQk0lnNU6TMDTWFnYNUqq9tgz4EbajX6FCHieXBaJ8-E_QAHL36XSH-Xi9ldnexntAyH6v74TJt_RDYKkzA1QYyTZhXXQ_aohHwkN33p2_KD]--></g></svg>