<?xml version="1.0" encoding="us-ascii" standalone="no"?><svg xmlns="http://www.w3.org/2000/svg" xmlns:xlink="http://www.w3.org/1999/xlink" contentStyleType="text/css" height="742px" preserveAspectRatio="none" style="width:728px;height:742px;background:#FFFFFF;" version="1.1" viewBox="0 0 728 742" width="728px" zoomAndPan="magnify"><defs/><g><text fill="#000000" font-family="sans-serif" font-size="14" font-weight="bold" lengthAdjust="spacing" textLength="171" x="271.5" y="22.9951">Class Diagram - CCCF</text><!--class Time--><g id="elem_Time"><rect codeLine="5" fill="#F1F1F1" height="48" id="Time" rx="2.5" ry="2.5" style="stroke:#181818;stroke-width:0.5;" width="68" x="636" y="538.7969"/><ellipse cx="651" cy="554.7969" fill="#ADD1B2" rx="11" ry="11" style="stroke:#181818;stroke-width:1.0;"/><path d="M653.3438,550.4688 C652.4063,550.0313 651.8125,549.8906 650.9375,549.8906 C648.3125,549.8906 646.3125,551.9688 646.3125,554.6875 L646.3125,555.8125 C646.3125,558.3906 648.4219,560.2813 651.3125,560.2813 C652.5313,560.2813 653.6875,559.9844 654.4375,559.4375 C655.0156,559.0313 655.3438,558.5781 655.3438,558.1875 C655.3438,557.7344 654.9531,557.3438 654.4844,557.3438 C654.2656,557.3438 654.0625,557.4219 653.875,557.6094 C653.4219,558.0938 653.4219,558.0938 653.2344,558.1875 C652.8125,558.4531 652.125,558.5781 651.3594,558.5781 C649.3125,558.5781 648.0156,557.4844 648.0156,555.7813 L648.0156,554.6875 C648.0156,552.9063 649.2656,551.5938 651,551.5938 C651.5781,551.5938 652.1875,551.75 652.6563,552 C653.1406,552.2813 653.3125,552.5 653.4063,552.9063 C653.4688,553.3125 653.5,553.4375 653.6406,553.5625 C653.7813,553.7031 654.0156,553.8125 654.2344,553.8125 C654.5,553.8125 654.7656,553.6719 654.9375,553.4531 C655.0469,553.2969 655.0781,553.1094 655.0781,552.6875 L655.0781,551.2656 C655.0781,550.8281 655.0625,550.7031 654.9688,550.5469 C654.8125,550.2813 654.5313,550.1406 654.2344,550.1406 C653.9375,550.1406 653.7344,550.2344 653.5156,550.5469 L653.3438,550.4688 Z " fill="#000000"/><text fill="#000000" font-family="sans-serif" font-size="14" lengthAdjust="spacing" textLength="36" x="665" y="559.6436">Time</text><line style="stroke:#181818;stroke-width:0.5;" x1="637" x2="703" y1="570.7969" y2="570.7969"/><line style="stroke:#181818;stroke-width:0.5;" x1="637" x2="703" y1="578.7969" y2="578.7969"/></g><!--class ShoppingCenter--><g id="elem_ShoppingCenter"><rect codeLine="9" fill="#F1F1F1" height="129.4844" id="ShoppingCenter" rx="2.5" ry="2.5" style="stroke:#181818;stroke-width:0.5;" width="151" x="384.5" y="44.2969"/><ellipse cx="399.5" cy="60.2969" fill="#ADD1B2" rx="11" ry="11" style="stroke:#181818;stroke-width:1.0;"/><path d="M401.8438,55.9688 C400.9063,55.5313 400.3125,55.3906 399.4375,55.3906 C396.8125,55.3906 394.8125,57.4688 394.8125,60.1875 L394.8125,61.3125 C394.8125,63.8906 396.9219,65.7813 399.8125,65.7813 C401.0313,65.7813 402.1875,65.4844 402.9375,64.9375 C403.5156,64.5313 403.8438,64.0781 403.8438,63.6875 C403.8438,63.2344 403.4531,62.8438 402.9844,62.8438 C402.7656,62.8438 402.5625,62.9219 402.375,63.1094 C401.9219,63.5938 401.9219,63.5938 401.7344,63.6875 C401.3125,63.9531 400.625,64.0781 399.8594,64.0781 C397.8125,64.0781 396.5156,62.9844 396.5156,61.2813 L396.5156,60.1875 C396.5156,58.4063 397.7656,57.0938 399.5,57.0938 C400.0781,57.0938 400.6875,57.25 401.1563,57.5 C401.6406,57.7813 401.8125,58 401.9063,58.4063 C401.9688,58.8125 402,58.9375 402.1406,59.0625 C402.2813,59.2031 402.5156,59.3125 402.7344,59.3125 C403,59.3125 403.2656,59.1719 403.4375,58.9531 C403.5469,58.7969 403.5781,58.6094 403.5781,58.1875 L403.5781,56.7656 C403.5781,56.3281 403.5625,56.2031 403.4688,56.0469 C403.3125,55.7813 403.0313,55.6406 402.7344,55.6406 C402.4375,55.6406 402.2344,55.7344 402.0156,56.0469 L401.8438,55.9688 Z " fill="#000000"/><text fill="#000000" font-family="sans-serif" font-size="14" lengthAdjust="spacing" textLength="119" x="413.5" y="65.1436">ShoppingCenter</text><line style="stroke:#181818;stroke-width:0.5;" x1="385.5" x2="534.5" y1="76.2969" y2="76.2969"/><rect fill="none" height="6" style="stroke:#C82930;stroke-width:1.0;" width="6" x="392.5" y="86.9453"/><text fill="#000000" font-family="sans-serif" font-size="14" lengthAdjust="spacing" textLength="92" x="404.5" y="93.292">openingHour</text><rect fill="none" height="6" style="stroke:#C82930;stroke-width:1.0;" width="6" x="392.5" y="103.2422"/><text fill="#000000" font-family="sans-serif" font-size="14" lengthAdjust="spacing" textLength="83" x="404.5" y="109.5889">closingHour</text><rect fill="none" height="6" style="stroke:#C82930;stroke-width:1.0;" width="6" x="392.5" y="119.5391"/><text fill="#000000" font-family="sans-serif" font-size="14" lengthAdjust="spacing" textLength="34" x="404.5" y="125.8857">time</text><rect fill="none" height="6" style="stroke:#C82930;stroke-width:1.0;" width="6" x="392.5" y="135.8359"/><text fill="#000000" font-family="sans-serif" font-size="14" lengthAdjust="spacing" textLength="123" x="404.5" y="142.1826">arrivalProbability</text><rect fill="none" height="6" style="stroke:#C82930;stroke-width:1.0;" width="6" x="392.5" y="152.1328"/><text fill="#000000" font-family="sans-serif" font-size="14" lengthAdjust="spacing" textLength="50" x="404.5" y="158.4795">isOpen</text><line style="stroke:#181818;stroke-width:0.5;" x1="385.5" x2="534.5" y1="165.7813" y2="165.7813"/></g><!--class AttentionCenter--><g id="elem_AttentionCenter"><rect codeLine="17" fill="#F1F1F1" height="64.2969" id="AttentionCenter" rx="2.5" ry="2.5" style="stroke:#181818;stroke-width:0.5;" width="176" x="233" y="365.7969"/><ellipse cx="258.35" cy="381.7969" fill="#ADD1B2" rx="11" ry="11" style="stroke:#181818;stroke-width:1.0;"/><path d="M260.6938,377.4688 C259.7563,377.0313 259.1625,376.8906 258.2875,376.8906 C255.6625,376.8906 253.6625,378.9688 253.6625,381.6875 L253.6625,382.8125 C253.6625,385.3906 255.7719,387.2813 258.6625,387.2813 C259.8813,387.2813 261.0375,386.9844 261.7875,386.4375 C262.3656,386.0313 262.6938,385.5781 262.6938,385.1875 C262.6938,384.7344 262.3031,384.3438 261.8344,384.3438 C261.6156,384.3438 261.4125,384.4219 261.225,384.6094 C260.7719,385.0938 260.7719,385.0938 260.5844,385.1875 C260.1625,385.4531 259.475,385.5781 258.7094,385.5781 C256.6625,385.5781 255.3656,384.4844 255.3656,382.7813 L255.3656,381.6875 C255.3656,379.9063 256.6156,378.5938 258.35,378.5938 C258.9281,378.5938 259.5375,378.75 260.0063,379 C260.4906,379.2813 260.6625,379.5 260.7563,379.9063 C260.8188,380.3125 260.85,380.4375 260.9906,380.5625 C261.1313,380.7031 261.3656,380.8125 261.5844,380.8125 C261.85,380.8125 262.1156,380.6719 262.2875,380.4531 C262.3969,380.2969 262.4281,380.1094 262.4281,379.6875 L262.4281,378.2656 C262.4281,377.8281 262.4125,377.7031 262.3188,377.5469 C262.1625,377.2813 261.8813,377.1406 261.5844,377.1406 C261.2875,377.1406 261.0844,377.2344 260.8656,377.5469 L260.6938,377.4688 Z " fill="#000000"/><text fill="#000000" font-family="sans-serif" font-size="14" lengthAdjust="spacing" textLength="121" x="274.65" y="386.6436">AttentionCenter</text><line style="stroke:#181818;stroke-width:0.5;" x1="234" x2="408" y1="397.7969" y2="397.7969"/><rect fill="none" height="6" style="stroke:#C82930;stroke-width:1.0;" width="6" x="241" y="408.4453"/><text fill="#000000" font-family="sans-serif" font-size="14" lengthAdjust="spacing" textLength="150" x="253" y="414.792">emptyCashRegisters</text><line style="stroke:#181818;stroke-width:0.5;" x1="234" x2="408" y1="422.0938" y2="422.0938"/></g><!--class CashRegister--><g id="elem_CashRegister"><rect codeLine="21" fill="#F1F1F1" height="129.4844" id="CashRegister" rx="2.5" ry="2.5" style="stroke:#181818;stroke-width:0.5;" width="152" x="239" y="498.2969"/><ellipse cx="265.25" cy="514.2969" fill="#ADD1B2" rx="11" ry="11" style="stroke:#181818;stroke-width:1.0;"/><path d="M267.5938,509.9688 C266.6563,509.5313 266.0625,509.3906 265.1875,509.3906 C262.5625,509.3906 260.5625,511.4688 260.5625,514.1875 L260.5625,515.3125 C260.5625,517.8906 262.6719,519.7813 265.5625,519.7813 C266.7813,519.7813 267.9375,519.4844 268.6875,518.9375 C269.2656,518.5313 269.5938,518.0781 269.5938,517.6875 C269.5938,517.2344 269.2031,516.8438 268.7344,516.8438 C268.5156,516.8438 268.3125,516.9219 268.125,517.1094 C267.6719,517.5938 267.6719,517.5938 267.4844,517.6875 C267.0625,517.9531 266.375,518.0781 265.6094,518.0781 C263.5625,518.0781 262.2656,516.9844 262.2656,515.2813 L262.2656,514.1875 C262.2656,512.4063 263.5156,511.0938 265.25,511.0938 C265.8281,511.0938 266.4375,511.25 266.9063,511.5 C267.3906,511.7813 267.5625,512 267.6563,512.4063 C267.7188,512.8125 267.75,512.9375 267.8906,513.0625 C268.0313,513.2031 268.2656,513.3125 268.4844,513.3125 C268.75,513.3125 269.0156,513.1719 269.1875,512.9531 C269.2969,512.7969 269.3281,512.6094 269.3281,512.1875 L269.3281,510.7656 C269.3281,510.3281 269.3125,510.2031 269.2188,510.0469 C269.0625,509.7813 268.7813,509.6406 268.4844,509.6406 C268.1875,509.6406 267.9844,509.7344 267.7656,510.0469 L267.5938,509.9688 Z " fill="#000000"/><text fill="#000000" font-family="sans-serif" font-size="14" lengthAdjust="spacing" textLength="95" x="281.75" y="519.1436">CashRegister</text><line style="stroke:#181818;stroke-width:0.5;" x1="240" x2="390" y1="530.2969" y2="530.2969"/><rect fill="none" height="6" style="stroke:#C82930;stroke-width:1.0;" width="6" x="247" y="540.9453"/><text fill="#000000" font-family="sans-serif" font-size="14" lengthAdjust="spacing" textLength="13" x="259" y="547.292">id</text><rect fill="none" height="6" style="stroke:#C82930;stroke-width:1.0;" width="6" x="247" y="557.2422"/><text fill="#000000" font-family="sans-serif" font-size="14" lengthAdjust="spacing" textLength="106" x="259" y="563.5889">currentCashier</text><rect fill="none" height="6" style="stroke:#C82930;stroke-width:1.0;" width="6" x="247" y="573.5391"/><text fill="#000000" font-family="sans-serif" font-size="14" lengthAdjust="spacing" textLength="126" x="259" y="579.8857">timePerItemPack</text><rect fill="none" height="6" style="stroke:#C82930;stroke-width:1.0;" width="6" x="247" y="589.8359"/><text fill="#000000" font-family="sans-serif" font-size="14" lengthAdjust="spacing" textLength="80" x="259" y="596.1826">isOcuppied</text><rect fill="none" height="6" style="stroke:#C82930;stroke-width:1.0;" width="6" x="247" y="606.1328"/><text fill="#000000" font-family="sans-serif" font-size="14" lengthAdjust="spacing" textLength="50" x="259" y="612.4795">isOpen</text><line style="stroke:#181818;stroke-width:0.5;" x1="240" x2="390" y1="619.7813" y2="619.7813"/></g><!--class Customer--><g id="elem_Customer"><rect codeLine="29" fill="#F1F1F1" height="80.5938" id="Customer" rx="2.5" ry="2.5" style="stroke:#181818;stroke-width:0.5;" width="174" x="24" y="357.2969"/><ellipse cx="71.75" cy="373.2969" fill="#ADD1B2" rx="11" ry="11" style="stroke:#181818;stroke-width:1.0;"/><path d="M74.0938,368.9688 C73.1563,368.5313 72.5625,368.3906 71.6875,368.3906 C69.0625,368.3906 67.0625,370.4688 67.0625,373.1875 L67.0625,374.3125 C67.0625,376.8906 69.1719,378.7813 72.0625,378.7813 C73.2813,378.7813 74.4375,378.4844 75.1875,377.9375 C75.7656,377.5313 76.0938,377.0781 76.0938,376.6875 C76.0938,376.2344 75.7031,375.8438 75.2344,375.8438 C75.0156,375.8438 74.8125,375.9219 74.625,376.1094 C74.1719,376.5938 74.1719,376.5938 73.9844,376.6875 C73.5625,376.9531 72.875,377.0781 72.1094,377.0781 C70.0625,377.0781 68.7656,375.9844 68.7656,374.2813 L68.7656,373.1875 C68.7656,371.4063 70.0156,370.0938 71.75,370.0938 C72.3281,370.0938 72.9375,370.25 73.4063,370.5 C73.8906,370.7813 74.0625,371 74.1563,371.4063 C74.2188,371.8125 74.25,371.9375 74.3906,372.0625 C74.5313,372.2031 74.7656,372.3125 74.9844,372.3125 C75.25,372.3125 75.5156,372.1719 75.6875,371.9531 C75.7969,371.7969 75.8281,371.6094 75.8281,371.1875 L75.8281,369.7656 C75.8281,369.3281 75.8125,369.2031 75.7188,369.0469 C75.5625,368.7813 75.2813,368.6406 74.9844,368.6406 C74.6875,368.6406 74.4844,368.7344 74.2656,369.0469 L74.0938,368.9688 Z " fill="#000000"/><text fill="#000000" font-family="sans-serif" font-size="14" lengthAdjust="spacing" textLength="70" x="92.25" y="378.1436">Customer</text><line style="stroke:#181818;stroke-width:0.5;" x1="25" x2="197" y1="389.2969" y2="389.2969"/><rect fill="none" height="6" style="stroke:#C82930;stroke-width:1.0;" width="6" x="32" y="399.9453"/><text fill="#000000" font-family="sans-serif" font-size="14" lengthAdjust="spacing" textLength="13" x="44" y="406.292">id</text><rect fill="none" height="6" style="stroke:#C82930;stroke-width:1.0;" width="6" x="32" y="416.2422"/><text fill="#000000" font-family="sans-serif" font-size="14" lengthAdjust="spacing" textLength="148" x="44" y="422.5889">numberOfItemPacks</text><line style="stroke:#181818;stroke-width:0.5;" x1="25" x2="197" y1="429.8906" y2="429.8906"/></g><!--class Queue--><g id="elem_Queue"><rect codeLine="34" fill="#F1F1F1" height="64.2969" id="Queue" rx="2.5" ry="2.5" style="stroke:#181818;stroke-width:0.5;" width="77" x="344.5" y="233.2969"/><ellipse cx="359.5" cy="249.2969" fill="#ADD1B2" rx="11" ry="11" style="stroke:#181818;stroke-width:1.0;"/><path d="M361.8438,244.9688 C360.9063,244.5313 360.3125,244.3906 359.4375,244.3906 C356.8125,244.3906 354.8125,246.4688 354.8125,249.1875 L354.8125,250.3125 C354.8125,252.8906 356.9219,254.7813 359.8125,254.7813 C361.0313,254.7813 362.1875,254.4844 362.9375,253.9375 C363.5156,253.5313 363.8438,253.0781 363.8438,252.6875 C363.8438,252.2344 363.4531,251.8438 362.9844,251.8438 C362.7656,251.8438 362.5625,251.9219 362.375,252.1094 C361.9219,252.5938 361.9219,252.5938 361.7344,252.6875 C361.3125,252.9531 360.625,253.0781 359.8594,253.0781 C357.8125,253.0781 356.5156,251.9844 356.5156,250.2813 L356.5156,249.1875 C356.5156,247.4063 357.7656,246.0938 359.5,246.0938 C360.0781,246.0938 360.6875,246.25 361.1563,246.5 C361.6406,246.7813 361.8125,247 361.9063,247.4063 C361.9688,247.8125 362,247.9375 362.1406,248.0625 C362.2813,248.2031 362.5156,248.3125 362.7344,248.3125 C363,248.3125 363.2656,248.1719 363.4375,247.9531 C363.5469,247.7969 363.5781,247.6094 363.5781,247.1875 L363.5781,245.7656 C363.5781,245.3281 363.5625,245.2031 363.4688,245.0469 C363.3125,244.7813 363.0313,244.6406 362.7344,244.6406 C362.4375,244.6406 362.2344,244.7344 362.0156,245.0469 L361.8438,244.9688 Z " fill="#000000"/><text fill="#000000" font-family="sans-serif" font-size="14" lengthAdjust="spacing" textLength="45" x="373.5" y="254.1436">Queue</text><line style="stroke:#181818;stroke-width:0.5;" x1="345.5" x2="420.5" y1="265.2969" y2="265.2969"/><rect fill="none" height="6" style="stroke:#C82930;stroke-width:1.0;" width="6" x="352.5" y="275.9453"/><text fill="#000000" font-family="sans-serif" font-size="14" lengthAdjust="spacing" textLength="28" x="364.5" y="282.292">size</text><line style="stroke:#181818;stroke-width:0.5;" x1="345.5" x2="420.5" y1="289.5938" y2="289.5938"/></g><!--class Cashier--><g id="elem_Cashier"><rect codeLine="38" fill="#F1F1F1" height="129.4844" id="Cashier" rx="2.5" ry="2.5" style="stroke:#181818;stroke-width:0.5;" width="103" x="497.5" y="498.2969"/><ellipse cx="520.6" cy="514.2969" fill="#ADD1B2" rx="11" ry="11" style="stroke:#181818;stroke-width:1.0;"/><path d="M522.9438,509.9688 C522.0063,509.5313 521.4125,509.3906 520.5375,509.3906 C517.9125,509.3906 515.9125,511.4688 515.9125,514.1875 L515.9125,515.3125 C515.9125,517.8906 518.0219,519.7813 520.9125,519.7813 C522.1313,519.7813 523.2875,519.4844 524.0375,518.9375 C524.6156,518.5313 524.9438,518.0781 524.9438,517.6875 C524.9438,517.2344 524.5531,516.8438 524.0844,516.8438 C523.8656,516.8438 523.6625,516.9219 523.475,517.1094 C523.0219,517.5938 523.0219,517.5938 522.8344,517.6875 C522.4125,517.9531 521.725,518.0781 520.9594,518.0781 C518.9125,518.0781 517.6156,516.9844 517.6156,515.2813 L517.6156,514.1875 C517.6156,512.4063 518.8656,511.0938 520.6,511.0938 C521.1781,511.0938 521.7875,511.25 522.2563,511.5 C522.7406,511.7813 522.9125,512 523.0063,512.4063 C523.0688,512.8125 523.1,512.9375 523.2406,513.0625 C523.3813,513.2031 523.6156,513.3125 523.8344,513.3125 C524.1,513.3125 524.3656,513.1719 524.5375,512.9531 C524.6469,512.7969 524.6781,512.6094 524.6781,512.1875 L524.6781,510.7656 C524.6781,510.3281 524.6625,510.2031 524.5688,510.0469 C524.4125,509.7813 524.1313,509.6406 523.8344,509.6406 C523.5375,509.6406 523.3344,509.7344 523.1156,510.0469 L522.9438,509.9688 Z " fill="#000000"/><text fill="#000000" font-family="sans-serif" font-size="14" lengthAdjust="spacing" textLength="53" x="536.4" y="519.1436">Cashier</text><line style="stroke:#181818;stroke-width:0.5;" x1="498.5" x2="599.5" y1="530.2969" y2="530.2969"/><rect fill="none" height="6" style="stroke:#C82930;stroke-width:1.0;" width="6" x="505.5" y="540.9453"/><text fill="#000000" font-family="sans-serif" font-size="14" lengthAdjust="spacing" textLength="13" x="517.5" y="547.292">id</text><rect fill="none" height="6" style="stroke:#C82930;stroke-width:1.0;" width="6" x="505.5" y="557.2422"/><text fill="#000000" font-family="sans-serif" font-size="14" lengthAdjust="spacing" textLength="40" x="517.5" y="563.5889">name</text><rect fill="none" height="6" style="stroke:#C82930;stroke-width:1.0;" width="6" x="505.5" y="573.5391"/><text fill="#000000" font-family="sans-serif" font-size="14" lengthAdjust="spacing" textLength="70" x="517.5" y="579.8857">workShift</text><rect fill="none" height="6" style="stroke:#C82930;stroke-width:1.0;" width="6" x="505.5" y="589.8359"/><text fill="#000000" font-family="sans-serif" font-size="14" lengthAdjust="spacing" textLength="77" x="517.5" y="596.1826">workBreak</text><rect fill="none" height="6" style="stroke:#C82930;stroke-width:1.0;" width="6" x="505.5" y="606.1328"/><text fill="#000000" font-family="sans-serif" font-size="14" lengthAdjust="spacing" textLength="65" x="517.5" y="612.4795">isServing</text><line style="stroke:#181818;stroke-width:0.5;" x1="498.5" x2="599.5" y1="619.7813" y2="619.7813"/></g><!--class DataLog--><g id="elem_DataLog"><rect codeLine="46" fill="#F1F1F1" height="48" id="DataLog" rx="2.5" ry="2.5" style="stroke:#181818;stroke-width:0.5;" width="92" x="398" y="687.2969"/><ellipse cx="413" cy="703.2969" fill="#ADD1B2" rx="11" ry="11" style="stroke:#181818;stroke-width:1.0;"/><path d="M415.3438,698.9688 C414.4063,698.5313 413.8125,698.3906 412.9375,698.3906 C410.3125,698.3906 408.3125,700.4688 408.3125,703.1875 L408.3125,704.3125 C408.3125,706.8906 410.4219,708.7813 413.3125,708.7813 C414.5313,708.7813 415.6875,708.4844 416.4375,707.9375 C417.0156,707.5313 417.3438,707.0781 417.3438,706.6875 C417.3438,706.2344 416.9531,705.8438 416.4844,705.8438 C416.2656,705.8438 416.0625,705.9219 415.875,706.1094 C415.4219,706.5938 415.4219,706.5938 415.2344,706.6875 C414.8125,706.9531 414.125,707.0781 413.3594,707.0781 C411.3125,707.0781 410.0156,705.9844 410.0156,704.2813 L410.0156,703.1875 C410.0156,701.4063 411.2656,700.0938 413,700.0938 C413.5781,700.0938 414.1875,700.25 414.6563,700.5 C415.1406,700.7813 415.3125,701 415.4063,701.4063 C415.4688,701.8125 415.5,701.9375 415.6406,702.0625 C415.7813,702.2031 416.0156,702.3125 416.2344,702.3125 C416.5,702.3125 416.7656,702.1719 416.9375,701.9531 C417.0469,701.7969 417.0781,701.6094 417.0781,701.1875 L417.0781,699.7656 C417.0781,699.3281 417.0625,699.2031 416.9688,699.0469 C416.8125,698.7813 416.5313,698.6406 416.2344,698.6406 C415.9375,698.6406 415.7344,698.7344 415.5156,699.0469 L415.3438,698.9688 Z " fill="#000000"/><text fill="#000000" font-family="sans-serif" font-size="14" lengthAdjust="spacing" textLength="60" x="427" y="708.1436">DataLog</text><line style="stroke:#181818;stroke-width:0.5;" x1="399" x2="489" y1="719.2969" y2="719.2969"/><line style="stroke:#181818;stroke-width:0.5;" x1="399" x2="489" y1="727.2969" y2="727.2969"/></g><!--link ShoppingCenter to Queue--><g id="link_ShoppingCenter_Queue"><path codeLine="51" d="M428.237,173.5299 C417.963,194.1439 407.028,216.0839 398.484,233.2289 " fill="none" id="ShoppingCenter-Queue" style="stroke:#181818;stroke-width:1.0;"/></g><!--link ShoppingCenter to Customer--><g id="link_ShoppingCenter_Customer"><path codeLine="52" d="M384.272,172.0719 C315.91,228.2889 217.391,309.3059 159.209,357.1519 " fill="none" id="ShoppingCenter-Customer" style="stroke:#181818;stroke-width:1.0;"/></g><!--link ShoppingCenter to Cashier--><g id="link_ShoppingCenter_Cashier"><path codeLine="53" d="M472.563,173.5989 C489.501,259.6219 519.487,411.9109 536.429,497.9549 " fill="none" id="ShoppingCenter-Cashier" style="stroke:#181818;stroke-width:1.0;"/></g><!--link ShoppingCenter to CashRegister--><g id="link_ShoppingCenter_CashRegister"><path codeLine="54" d="M384.35,149.7229 C315.984,185.8059 226,233.2969 226,233.2969 C226,233.2969 6,357.2969 6,357.2969 C6,357.2969 6,438.2969 6,438.2969 C6,438.2969 147.114,494.6969 238.618,531.2689 " fill="none" id="ShoppingCenter-CashRegister" style="stroke:#181818;stroke-width:1.0;"/></g><!--link Queue to AttentionCenter--><g id="link_Queue_AttentionCenter"><path codeLine="56" d="M368.149,297.5549 C358.334,318.2159 345.52,345.1849 335.729,365.7939 " fill="none" id="Queue-AttentionCenter" style="stroke:#181818;stroke-width:1.0;"/></g><!--link Queue to Customer--><g id="link_Queue_Customer"><path codeLine="57" d="M344.318,284.8559 C305.231,303.6089 243.621,333.1679 193.526,357.2029 " fill="none" id="Queue-Customer" style="stroke:#181818;stroke-width:1.0;"/></g><!--link Customer to AttentionCenter--><g id="link_Customer_AttentionCenter"><path codeLine="59" d="M198.303,397.7969 C208.83,397.7969 222.254,397.7969 232.919,397.7969 " fill="none" id="Customer-AttentionCenter" style="stroke:#181818;stroke-width:1.0;"/></g><!--link AttentionCenter to CashRegister--><g id="link_AttentionCenter_CashRegister"><path codeLine="60" d="M319.857,429.8399 C319.147,449.1449 318.207,474.6769 317.343,498.1359 " fill="none" id="AttentionCenter-CashRegister" style="stroke:#181818;stroke-width:1.0;"/></g><!--link CashRegister to Cashier--><g id="link_CashRegister_Cashier"><path codeLine="62" d="M391.072,562.7969 C392.314,562.7969 393,562.7969 393,562.7969 C393,562.7969 471,562.7969 471,562.7969 C471,562.7969 482.902,562.7969 497.407,562.7969 " fill="none" id="CashRegister-Cashier" style="stroke:#181818;stroke-width:1.0;"/></g><!--link CashRegister to Customer--><g id="link_CashRegister_Customer"><path codeLine="64" d="M238.785,500.8989 C212.657,480.0229 184.113,457.2159 160.643,438.4629 " fill="none" id="CashRegister-Customer" style="stroke:#181818;stroke-width:1.0;"/></g><!--link CashRegister to Time--><g id="link_CashRegister_Time"><path codeLine="65" d="M391.075,523.4049 C441.151,497.4749 497.5,468.2969 497.5,468.2969 C497.5,468.2969 600.5,468.2969 600.5,468.2969 C600.5,468.2969 631.51,510.4609 652.102,538.4609 " fill="none" id="CashRegister-Time" style="stroke:#181818;stroke-width:1.0;stroke-dasharray:7.0,7.0;"/></g><!--link ShoppingCenter to Time--><g id="link_ShoppingCenter_Time"><path codeLine="67" d="M489.85,173.3559 C504.061,203.6159 518,233.2969 518,233.2969 C518,233.2969 624.713,463.9239 659.312,538.6979 " fill="none" id="ShoppingCenter-Time" style="stroke:#181818;stroke-width:1.0;stroke-dasharray:7.0,7.0;"/></g><!--link ShoppingCenter to DataLog--><g id="link_ShoppingCenter_DataLog"><path codeLine="68" d="M510.435,173.3559 C534.448,203.6159 558,233.2969 558,233.2969 C558,233.2969 721,498.2969 721,498.2969 C721,498.2969 721,627.2969 721,627.2969 C721,627.2969 568.818,672.8966 490.052,696.498 " fill="none" id="ShoppingCenter-DataLog" style="stroke:#181818;stroke-width:1.0;stroke-dasharray:7.0,7.0;"/></g><!--link Queue to DataLog--><g id="link_Queue_DataLog"><path codeLine="69" d="M397.678,297.3599 C410.135,323.7219 426,357.2969 426,357.2969 C426,357.2969 438.814,608.6029 442.819,687.1356 " fill="none" id="Queue-DataLog" style="stroke:#181818;stroke-width:1.0;stroke-dasharray:7.0,7.0;"/></g><!--link CashRegister to DataLog--><g id="link_CashRegister_DataLog"><path codeLine="70" d="M371.206,627.6279 C389.81,648.7551 409.349,670.9453 423.495,687.0102 " fill="none" id="CashRegister-DataLog" style="stroke:#181818;stroke-width:1.0;stroke-dasharray:7.0,7.0;"/></g><!--SRC=[TL91RiCW4Bpp2ZxW_A4bgbgfKj8a7o3Enbu56mHBAZVgtqjYOx3Z-WGpoypihjq5MoEjRBZ25gWpm8rMtVt2624fu499v_WQPNKlAxWGuesnye4Ui84ROx_nlg-rCTXM0be2os-CXw_Wsa0Rq7VjxO2KIhifGa5gE4fhyIhLrkgZFA92wWO2tIOe9RiNec24kktzeXqqXZeXNRs32bqWN7gImsC-FCLOtjeWTIz2o9DjmNuGD5jPNbAMqeTcuVHFEE4TwMR9fVND4Upc71MpU5yUF8ml7Fx0D3ekwibnTD_QNlOrdYcxlrgGAVKUx3LCFick9SbFNVLhPBCD5aKVQG6F_IrHm_oMcJX-nlfk0pnRP2AI2vlLy4B1cR8OJ_pSRRBwmc9LKuewOpFT2R5w_F9FOrgjTZtnXCVn3Yrbm5HtnFy0]--></g></svg>