<?xml version="1.0" encoding="us-ascii" standalone="no"?><svg xmlns="http://www.w3.org/2000/svg" xmlns:xlink="http://www.w3.org/1999/xlink" contentStyleType="text/css" height="651px" preserveAspectRatio="none" style="width:997px;height:651px;background:#FFFFFF;" version="1.1" viewBox="0 0 997 651" width="997px" zoomAndPan="magnify"><defs/><g><text fill="#000000" font-family="sans-serif" font-size="14" font-weight="bold" lengthAdjust="spacing" textLength="181" x="401.25" y="22.9951">Object Diagram - CCCF</text><g id="elem_sc"><rect fill="#F1F1F1" height="36.2969" style="stroke:#181818;stroke-width:0.5;" width="210" x="394" y="44.2969"/><text fill="#000000" font-family="sans-serif" font-size="14" lengthAdjust="spacing" textLength="196" x="401" y="59.292">Carrefour: ShoppingCenter</text><line style="stroke:#181818;stroke-width:0.5;" x1="395" x2="603" y1="64.5938" y2="64.5938"/></g><g id="elem_cus1"><rect fill="#F1F1F1" height="36.2969" style="stroke:#181818;stroke-width:0.5;" width="170" x="107" y="157.2969"/><text fill="#000000" font-family="sans-serif" font-size="14" lengthAdjust="spacing" textLength="156" x="114" y="172.292">customer1: Customer</text><line style="stroke:#181818;stroke-width:0.5;" x1="108" x2="276" y1="177.5938" y2="177.5938"/></g><g id="elem_cus2"><rect fill="#F1F1F1" height="36.2969" style="stroke:#181818;stroke-width:0.5;" width="169" x="312.5" y="157.2969"/><text fill="#000000" font-family="sans-serif" font-size="14" lengthAdjust="spacing" textLength="155" x="319.5" y="172.292">customer2: Customer</text><line style="stroke:#181818;stroke-width:0.5;" x1="313.5" x2="480.5" y1="177.5938" y2="177.5938"/></g><g id="elem_cus3"><rect fill="#F1F1F1" height="36.2969" style="stroke:#181818;stroke-width:0.5;" width="170" x="517" y="157.2969"/><text fill="#000000" font-family="sans-serif" font-size="14" lengthAdjust="spacing" textLength="156" x="524" y="172.292">customer3: Customer</text><line style="stroke:#181818;stroke-width:0.5;" x1="518" x2="686" y1="177.5938" y2="177.5938"/></g><g id="elem_cus4"><rect fill="#F1F1F1" height="36.2969" style="stroke:#181818;stroke-width:0.5;" width="169" x="722.5" y="157.2969"/><text fill="#000000" font-family="sans-serif" font-size="14" lengthAdjust="spacing" textLength="155" x="729.5" y="172.292">customer4: Customer</text><line style="stroke:#181818;stroke-width:0.5;" x1="723.5" x2="890.5" y1="177.5938" y2="177.5938"/></g><g id="elem_que"><rect fill="#F1F1F1" height="36.2969" style="stroke:#181818;stroke-width:0.5;" width="120" x="439" y="270.2969"/><text fill="#000000" font-family="sans-serif" font-size="14" lengthAdjust="spacing" textLength="106" x="446" y="285.292">queue1: Queue</text><line style="stroke:#181818;stroke-width:0.5;" x1="440" x2="558" y1="290.5938" y2="290.5938"/></g><g id="elem_ac"><rect fill="#F1F1F1" height="36.2969" style="stroke:#181818;stroke-width:0.5;" width="272" x="363" y="383.2969"/><text fill="#000000" font-family="sans-serif" font-size="14" lengthAdjust="spacing" textLength="258" x="370" y="398.292">attentionCenter1: AttentionCenter</text><line style="stroke:#181818;stroke-width:0.5;" x1="364" x2="634" y1="403.5938" y2="403.5938"/></g><g id="elem_cr1"><rect fill="#F1F1F1" height="36.2969" style="stroke:#181818;stroke-width:0.5;" width="220" x="7" y="496.2969"/><text fill="#000000" font-family="sans-serif" font-size="14" lengthAdjust="spacing" textLength="206" x="14" y="511.292">cashRegister1: CashRegister</text><line style="stroke:#181818;stroke-width:0.5;" x1="8" x2="226" y1="516.5938" y2="516.5938"/></g><g id="elem_cr2"><rect fill="#F1F1F1" height="36.2969" style="stroke:#181818;stroke-width:0.5;" width="219" x="262.5" y="496.2969"/><text fill="#000000" font-family="sans-serif" font-size="14" lengthAdjust="spacing" textLength="205" x="269.5" y="511.292">cashRegister2: CashRegister</text><line style="stroke:#181818;stroke-width:0.5;" x1="263.5" x2="480.5" y1="516.5938" y2="516.5938"/></g><g id="elem_cr3"><rect fill="#F1F1F1" height="36.2969" style="stroke:#181818;stroke-width:0.5;" width="220" x="517" y="496.2969"/><text fill="#000000" font-family="sans-serif" font-size="14" lengthAdjust="spacing" textLength="206" x="524" y="511.292">cashRegister3: CashRegister</text><line style="stroke:#181818;stroke-width:0.5;" x1="518" x2="736" y1="516.5938" y2="516.5938"/></g><g id="elem_cr4"><rect fill="#F1F1F1" height="36.2969" style="stroke:#181818;stroke-width:0.5;" width="219" x="772.5" y="496.2969"/><text fill="#000000" font-family="sans-serif" font-size="14" lengthAdjust="spacing" textLength="205" x="779.5" y="511.292">cashRegister4: CashRegister</text><line style="stroke:#181818;stroke-width:0.5;" x1="773.5" x2="990.5" y1="516.5938" y2="516.5938"/></g><g id="elem_c1"><rect fill="#F1F1F1" height="36.2969" style="stroke:#181818;stroke-width:0.5;" width="136" x="49" y="609.2969"/><text fill="#000000" font-family="sans-serif" font-size="14" lengthAdjust="spacing" textLength="122" x="56" y="624.292">cashier1: Cashier</text><line style="stroke:#181818;stroke-width:0.5;" x1="50" x2="184" y1="629.5938" y2="629.5938"/></g><g id="elem_c2"><rect fill="#F1F1F1" height="36.2969" style="stroke:#181818;stroke-width:0.5;" width="135" x="304.5" y="609.2969"/><text fill="#000000" font-family="sans-serif" font-size="14" lengthAdjust="spacing" textLength="121" x="311.5" y="624.292">cashier2: Cashier</text><line style="stroke:#181818;stroke-width:0.5;" x1="305.5" x2="438.5" y1="629.5938" y2="629.5938"/></g><g id="elem_c3"><rect fill="#F1F1F1" height="36.2969" style="stroke:#181818;stroke-width:0.5;" width="136" x="559" y="609.2969"/><text fill="#000000" font-family="sans-serif" font-size="14" lengthAdjust="spacing" textLength="122" x="566" y="624.292">cashier3: Cashier</text><line style="stroke:#181818;stroke-width:0.5;" x1="560" x2="694" y1="629.5938" y2="629.5938"/></g><g id="elem_c4"><rect fill="#F1F1F1" height="36.2969" style="stroke:#181818;stroke-width:0.5;" width="135" x="814.5" y="609.2969"/><text fill="#000000" font-family="sans-serif" font-size="14" lengthAdjust="spacing" textLength="121" x="821.5" y="624.292">cashier4: Cashier</text><line style="stroke:#181818;stroke-width:0.5;" x1="815.5" x2="948.5" y1="629.5938" y2="629.5938"/></g><!--link sc to cus1--><g id="link_sc_cus1"><path codeLine="10" d="M449.608,80.3959 C424.275,89.2229 392.948,100.2269 365,110.2969 C321.616,125.9289 272.3,144.2249 237.454,157.2419 " fill="none" id="sc-cus1" style="stroke:#181818;stroke-width:1.0;"/><polygon fill="#000000" points="365.2989,120.5661,374.8042,120.2489,372.8024,114.7224,365.2989,120.5661" style="stroke:#000000;stroke-width:1.0;"/><text fill="#000000" font-family="sans-serif" font-size="13" lengthAdjust="spacing" textLength="54" x="379" y="123.3638">receives</text></g><!--link sc to cus2--><g id="link_sc_cus2"><path codeLine="11" d="M483.062,80.6409 C463.9,101.4939 431.938,136.2759 412.826,157.0749 " fill="none" id="sc-cus2" style="stroke:#181818;stroke-width:1.0;"/><polygon fill="#000000" points="456.6169,122.5449,464.901,117.8733,460.573,113.8962,456.6169,122.5449" style="stroke:#000000;stroke-width:1.0;"/><text fill="#000000" font-family="sans-serif" font-size="13" lengthAdjust="spacing" textLength="54" x="469" y="123.3638">receives</text></g><!--link sc to cus3--><g id="link_sc_cus3"><path codeLine="12" d="M515.094,80.6409 C534.444,101.4939 566.72,136.2759 586.019,157.0749 " fill="none" id="sc-cus3" style="stroke:#181818;stroke-width:1.0;"/><polygon fill="#000000" points="565.401,122.5284,561.4029,113.8991,557.0942,117.8972,565.401,122.5284" style="stroke:#000000;stroke-width:1.0;"/><text fill="#000000" font-family="sans-serif" font-size="13" lengthAdjust="spacing" textLength="54" x="571" y="123.3638">receives</text></g><!--link sc to cus4--><g id="link_sc_cus4"><path codeLine="13" d="M548.77,80.3669 C574.294,89.1869 605.854,100.1919 634,110.2969 C677.402,125.8789 726.715,144.1809 761.557,157.2129 " fill="none" id="sc-cus4" style="stroke:#181818;stroke-width:1.0;"/><polygon fill="#000000" points="686.7027,120.5616,679.1937,114.7251,677.1972,120.2535,686.7027,120.5616" style="stroke:#000000;stroke-width:1.0;"/><text fill="#000000" font-family="sans-serif" font-size="13" lengthAdjust="spacing" textLength="54" x="691" y="123.3638">receives</text></g><!--link cus1 to que--><g id="link_cus1_que"><path codeLine="17" d="M239.296,193.3969 C297.071,214.2869 394.218,249.4119 451.902,270.2679 " fill="none" id="cus1-que" style="stroke:#181818;stroke-width:1.0;"/><polygon fill="#000000" points="373.7021,233.5634,366.1952,227.724,364.1966,233.2517,373.7021,233.5634" style="stroke:#000000;stroke-width:1.0;"/><text fill="#000000" font-family="sans-serif" font-size="13" lengthAdjust="spacing" textLength="31" x="378" y="236.3638">form</text></g><!--link cus2 to que--><g id="link_cus2_que"><path codeLine="18" d="M412.938,193.6409 C432.1,214.4939 464.062,249.2759 483.174,270.0749 " fill="none" id="cus2-que" style="stroke:#181818;stroke-width:1.0;"/><polygon fill="#000000" points="463.3831,235.5449,459.427,226.8962,455.099,230.8733,463.3831,235.5449" style="stroke:#000000;stroke-width:1.0;"/><text fill="#000000" font-family="sans-serif" font-size="13" lengthAdjust="spacing" textLength="31" x="469" y="236.3638">form</text></g><!--link cus3 to que--><g id="link_cus3_que"><path codeLine="19" d="M585.906,193.6409 C566.556,214.4939 534.28,249.2759 514.981,270.0749 " fill="none" id="cus3-que" style="stroke:#181818;stroke-width:1.0;"/><polygon fill="#000000" points="558.599,235.5284,566.9058,230.8972,562.5971,226.8991,558.599,235.5284" style="stroke:#000000;stroke-width:1.0;"/><text fill="#000000" font-family="sans-serif" font-size="13" lengthAdjust="spacing" textLength="31" x="571" y="236.3638">form</text></g><!--link cus4 to que--><g id="link_cus4_que"><path codeLine="20" d="M759.55,193.3969 C701.587,214.2869 604.124,249.4119 546.251,270.2679 " fill="none" id="cus4-que" style="stroke:#181818;stroke-width:1.0;"/><polygon fill="#000000" points="672.2961,233.5585,681.8019,233.2567,679.8091,227.727,672.2961,233.5585" style="stroke:#000000;stroke-width:1.0;"/><text fill="#000000" font-family="sans-serif" font-size="13" lengthAdjust="spacing" textLength="31" x="686" y="236.3638">form</text></g><!--link que to ac--><g id="link_que_ac"><path codeLine="24" d="M499,306.6409 C499,327.4939 499,362.2759 499,383.0749 " fill="none" id="que-ac" style="stroke:#181818;stroke-width:1.0;"/><polygon fill="#000000" points="504,349.8633,506.9389,340.8182,501.0611,340.8182,504,349.8633" style="stroke:#000000;stroke-width:1.0;"/><text fill="#000000" font-family="sans-serif" font-size="13" lengthAdjust="spacing" textLength="83" x="513" y="349.3638">organized by</text></g><!--link ac to cr1--><g id="link_ac_cr1"><path codeLine="31" d="M382.692,419.3179 C342.665,426.6599 297.894,436.5459 258,449.2969 C219.206,461.6959 176.947,481.8339 148.91,496.2089 " fill="none" id="ac-cr1" style="stroke:#181818;stroke-width:1.0;"/><polygon fill="#000000" points="258.2503,459.4255,267.7608,459.3913,265.9244,453.8077,258.2503,459.4255" style="stroke:#000000;stroke-width:1.0;"/><text fill="#000000" font-family="sans-serif" font-size="13" lengthAdjust="spacing" textLength="127" x="272" y="462.3638">delivers a customer</text></g><!--link ac to cr2--><g id="link_ac_cr2"><path codeLine="32" d="M465.869,419.4489 C451.878,427.5119 435.879,437.8659 423,449.2969 C407.274,463.2549 392.685,482.4649 383.175,496.1889 " fill="none" id="ac-cr2" style="stroke:#181818;stroke-width:1.0;"/><polygon fill="#000000" points="424.335,461.2644,432.9642,457.2659,428.9659,452.9575,424.335,461.2644" style="stroke:#000000;stroke-width:1.0;"/><text fill="#000000" font-family="sans-serif" font-size="13" lengthAdjust="spacing" textLength="127" x="437" y="462.3638">delivers a customer</text></g><!--link ac to cr3--><g id="link_ac_cr3"><path codeLine="33" d="M527.725,419.3449 C540.847,427.6839 556.266,438.2869 569,449.2969 C585.674,463.7139 602.323,482.6759 613.478,496.2109 " fill="none" id="ac-cr3" style="stroke:#181818;stroke-width:1.0;"/><polygon fill="#000000" points="595.7232,461.2006,590.9495,452.9749,587.0262,457.3518,595.7232,461.2006" style="stroke:#000000;stroke-width:1.0;"/><text fill="#000000" font-family="sans-serif" font-size="13" lengthAdjust="spacing" textLength="127" x="601" y="462.3638">delivers a customer</text></g><!--link ac to cr4--><g id="link_ac_cr4"><path codeLine="34" d="M611.975,419.3369 C651.953,426.7449 696.931,436.6679 737,449.2969 C776.76,461.8279 820.243,481.9419 849.117,496.2749 " fill="none" id="ac-cr4" style="stroke:#181818;stroke-width:1.0;"/><polygon fill="#000000" points="791.756,459.4063,784.0593,453.8195,782.2454,459.4104,791.756,459.4063" style="stroke:#000000;stroke-width:1.0;"/><text fill="#000000" font-family="sans-serif" font-size="13" lengthAdjust="spacing" textLength="127" x="796" y="462.3638">delivers a customer</text></g><!--link cr1 to c1--><g id="link_cr1_c1"><path codeLine="41" d="M117,532.6409 C117,553.4938 117,588.2762 117,609.0749 " fill="none" id="cr1-c1" style="stroke:#181818;stroke-width:1.0;"/><polygon fill="#000000" points="122,575.8633,124.9389,566.8182,119.0611,566.8182,122,575.8633" style="stroke:#000000;stroke-width:1.0;"/><text fill="#000000" font-family="sans-serif" font-size="13" lengthAdjust="spacing" textLength="78" x="131" y="575.3638">attended by</text></g><!--link cr2 to c2--><g id="link_cr2_c2"><path codeLine="42" d="M372,532.6409 C372,553.4938 372,588.2762 372,609.0749 " fill="none" id="cr2-c2" style="stroke:#181818;stroke-width:1.0;"/><polygon fill="#000000" points="377,575.8633,379.9389,566.8182,374.0611,566.8182,377,575.8633" style="stroke:#000000;stroke-width:1.0;"/><text fill="#000000" font-family="sans-serif" font-size="13" lengthAdjust="spacing" textLength="78" x="386" y="575.3638">attended by</text></g><!--link cr3 to c3--><g id="link_cr3_c3"><path codeLine="43" d="M627,532.6409 C627,553.4938 627,588.2762 627,609.0749 " fill="none" id="cr3-c3" style="stroke:#181818;stroke-width:1.0;"/><polygon fill="#000000" points="632,575.8633,634.9389,566.8182,629.0611,566.8182,632,575.8633" style="stroke:#000000;stroke-width:1.0;"/><text fill="#000000" font-family="sans-serif" font-size="13" lengthAdjust="spacing" textLength="78" x="641" y="575.3638">attended by</text></g><!--link cr4 to c4--><g id="link_cr4_c4"><path codeLine="44" d="M882,532.6409 C882,553.4938 882,588.2762 882,609.0749 " fill="none" id="cr4-c4" style="stroke:#181818;stroke-width:1.0;"/><polygon fill="#000000" points="887,575.8633,889.9389,566.8182,884.0611,566.8182,887,575.8633" style="stroke:#000000;stroke-width:1.0;"/><text fill="#000000" font-family="sans-serif" font-size="13" lengthAdjust="spacing" textLength="78" x="896" y="575.3638">attended by</text></g><!--SRC=[XPAzRiCW481tdkAKtOE1oKEbYgfhrVO9Y7rng1AJ0gxKFdqFkt5ie8eNcuyFxi_1X1F2o_u3sm1FHlTEdw42fTGpOtR6EwMTmuCTNGFlHtkvcA5NE0HqEz0UV7ipsz47UqPNDw3-FYU7U9r9F9Tu9ebS4faaSqaoe8Vv5gfg2jyyWCCMpHVw6-L5AefKhkcImkU88rAvh_4z1IV2M8mOpz62ZXsiEqV4SoHo91EqnD8XKDkD7URkKzJ7BPdYQve7dOwNw9RkiAxNW_d13lRVgqbfVtp3tlZv8hLQpYrqTT7bHPSNNL5qHT6LHLSofkV-kpZ03a_KVKSrmdNqopw_io_kxCj_zZVPcgLPvffZdGey4NWgY4GGgI0JWRf0zSSiOnEclw2RnqbbHympB28M6POHoot-1G00]--></g></svg>