<?xml version="1.0" encoding="us-ascii" standalone="no"?><svg xmlns="http://www.w3.org/2000/svg" xmlns:xlink="http://www.w3.org/1999/xlink" contentStyleType="text/css" height="759px" preserveAspectRatio="none" style="width:708px;height:759px;background:#FFFFFF;" version="1.1" viewBox="0 0 708 759" width="708px" zoomAndPan="magnify"><defs/><g><text fill="#000000" font-family="sans-serif" font-size="14" font-weight="bold" lengthAdjust="spacing" textLength="169" x="262.5" y="22.9951">Class Diagram - CCCF</text><!--class Time--><g id="elem_Time"><rect codeLine="5" fill="#F1F1F1" height="48" id="Time" rx="2.5" ry="2.5" style="stroke:#181818;stroke-width:0.5;" width="66" x="617" y="547.5669"/><ellipse cx="632" cy="563.5669" fill="#ADD1B2" rx="11" ry="11" style="stroke:#181818;stroke-width:1.0;"/><path d="M634.9688,569.2075 Q634.3906,569.5044 633.75,569.645 Q633.1094,569.8013 632.4063,569.8013 Q629.9063,569.8013 628.5781,568.1606 Q627.2656,566.5044 627.2656,563.3794 Q627.2656,560.2544 628.5781,558.5981 Q629.9063,556.9419 632.4063,556.9419 Q633.1094,556.9419 633.75,557.0981 Q634.4063,557.2544 634.9688,557.5513 L634.9688,560.27 Q634.3438,559.6919 633.75,559.4263 Q633.1563,559.145 632.5313,559.145 Q631.1875,559.145 630.5,560.2231 Q629.8125,561.2856 629.8125,563.3794 Q629.8125,565.4731 630.5,566.5513 Q631.1875,567.6138 632.5313,567.6138 Q633.1563,567.6138 633.75,567.3481 Q634.3438,567.0669 634.9688,566.4888 L634.9688,569.2075 Z " fill="#000000"/><text fill="#000000" font-family="sans-serif" font-size="14" lengthAdjust="spacing" textLength="34" x="646" y="568.4136">Time</text><line style="stroke:#181818;stroke-width:0.5;" x1="618" x2="682" y1="579.5669" y2="579.5669"/><line style="stroke:#181818;stroke-width:0.5;" x1="618" x2="682" y1="587.5669" y2="587.5669"/></g><!--class ShoppingCenter--><g id="elem_ShoppingCenter"><rect codeLine="9" fill="#F1F1F1" height="129.4844" id="ShoppingCenter" rx="2.5" ry="2.5" style="stroke:#181818;stroke-width:0.5;" width="145" x="398.5" y="44.2969"/><ellipse cx="413.5" cy="60.2969" fill="#ADD1B2" rx="11" ry="11" style="stroke:#181818;stroke-width:1.0;"/><path d="M416.4688,65.9375 Q415.8906,66.2344 415.25,66.375 Q414.6094,66.5313 413.9063,66.5313 Q411.4063,66.5313 410.0781,64.8906 Q408.7656,63.2344 408.7656,60.1094 Q408.7656,56.9844 410.0781,55.3281 Q411.4063,53.6719 413.9063,53.6719 Q414.6094,53.6719 415.25,53.8281 Q415.9063,53.9844 416.4688,54.2813 L416.4688,57 Q415.8438,56.4219 415.25,56.1563 Q414.6563,55.875 414.0313,55.875 Q412.6875,55.875 412,56.9531 Q411.3125,58.0156 411.3125,60.1094 Q411.3125,62.2031 412,63.2813 Q412.6875,64.3438 414.0313,64.3438 Q414.6563,64.3438 415.25,64.0781 Q415.8438,63.7969 416.4688,63.2188 L416.4688,65.9375 Z " fill="#000000"/><text fill="#000000" font-family="sans-serif" font-size="14" lengthAdjust="spacing" textLength="113" x="427.5" y="65.1436">ShoppingCenter</text><line style="stroke:#181818;stroke-width:0.5;" x1="399.5" x2="542.5" y1="76.2969" y2="76.2969"/><rect fill="none" height="6" style="stroke:#C82930;stroke-width:1.0;" width="6" x="406.5" y="86.9453"/><text fill="#000000" font-family="sans-serif" font-size="14" lengthAdjust="spacing" textLength="90" x="418.5" y="93.292">openingHour</text><rect fill="none" height="6" style="stroke:#C82930;stroke-width:1.0;" width="6" x="406.5" y="103.2422"/><text fill="#000000" font-family="sans-serif" font-size="14" lengthAdjust="spacing" textLength="82" x="418.5" y="109.5889">closingHour</text><rect fill="none" height="6" style="stroke:#C82930;stroke-width:1.0;" width="6" x="406.5" y="119.5391"/><text fill="#000000" font-family="sans-serif" font-size="14" lengthAdjust="spacing" textLength="30" x="418.5" y="125.8857">time</text><rect fill="none" height="6" style="stroke:#C82930;stroke-width:1.0;" width="6" x="406.5" y="135.8359"/><text fill="#000000" font-family="sans-serif" font-size="14" lengthAdjust="spacing" textLength="109" x="418.5" y="142.1826">arrivalProbability</text><rect fill="none" height="6" style="stroke:#C82930;stroke-width:1.0;" width="6" x="406.5" y="152.1328"/><text fill="#000000" font-family="sans-serif" font-size="14" lengthAdjust="spacing" textLength="49" x="418.5" y="158.4795">isOpen</text><line style="stroke:#181818;stroke-width:0.5;" x1="399.5" x2="542.5" y1="165.7813" y2="165.7813"/></g><!--class AttentionCenter--><g id="elem_AttentionCenter"><rect codeLine="17" fill="#F1F1F1" height="64.2969" id="AttentionCenter" rx="2.5" ry="2.5" style="stroke:#181818;stroke-width:0.5;" width="170" x="225" y="366.2269"/><ellipse cx="252.6" cy="382.2269" fill="#ADD1B2" rx="11" ry="11" style="stroke:#181818;stroke-width:1.0;"/><path d="M255.5688,387.8675 Q254.9906,388.1644 254.35,388.305 Q253.7094,388.4612 253.0063,388.4612 Q250.5063,388.4612 249.1781,386.8206 Q247.8656,385.1644 247.8656,382.0394 Q247.8656,378.9144 249.1781,377.2581 Q250.5063,375.6019 253.0063,375.6019 Q253.7094,375.6019 254.35,375.7581 Q255.0063,375.9144 255.5688,376.2112 L255.5688,378.93 Q254.9438,378.3519 254.35,378.0862 Q253.7563,377.805 253.1313,377.805 Q251.7875,377.805 251.1,378.8831 Q250.4125,379.9456 250.4125,382.0394 Q250.4125,384.1331 251.1,385.2112 Q251.7875,386.2737 253.1313,386.2737 Q253.7563,386.2737 254.35,386.0081 Q254.9438,385.7269 255.5688,385.1487 L255.5688,387.8675 Z " fill="#000000"/><text fill="#000000" font-family="sans-serif" font-size="14" lengthAdjust="spacing" textLength="110" x="269.4" y="387.0736">AttentionCenter</text><line style="stroke:#181818;stroke-width:0.5;" x1="226" x2="394" y1="398.2269" y2="398.2269"/><rect fill="none" height="6" style="stroke:#C82930;stroke-width:1.0;" width="6" x="233" y="408.8753"/><text fill="#000000" font-family="sans-serif" font-size="14" lengthAdjust="spacing" textLength="144" x="245" y="415.222">emptyCashRegisters</text><line style="stroke:#181818;stroke-width:0.5;" x1="226" x2="394" y1="422.5237" y2="422.5237"/></g><!--class CashRegister--><g id="elem_CashRegister"><rect codeLine="21" fill="#F1F1F1" height="145.7813" id="CashRegister" rx="2.5" ry="2.5" style="stroke:#181818;stroke-width:0.5;" width="142" x="234" y="498.6769"/><ellipse cx="256.65" cy="514.6769" fill="#ADD1B2" rx="11" ry="11" style="stroke:#181818;stroke-width:1.0;"/><path d="M259.6188,520.3175 Q259.0406,520.6144 258.4,520.755 Q257.7594,520.9113 257.0563,520.9113 Q254.5562,520.9113 253.2281,519.2706 Q251.9156,517.6144 251.9156,514.4894 Q251.9156,511.3644 253.2281,509.7081 Q254.5562,508.0519 257.0563,508.0519 Q257.7594,508.0519 258.4,508.2081 Q259.0563,508.3644 259.6188,508.6613 L259.6188,511.38 Q258.9938,510.8019 258.4,510.5363 Q257.8063,510.255 257.1813,510.255 Q255.8375,510.255 255.15,511.3331 Q254.4625,512.3956 254.4625,514.4894 Q254.4625,516.5831 255.15,517.6613 Q255.8375,518.7238 257.1813,518.7238 Q257.8063,518.7238 258.4,518.4581 Q258.9938,518.1769 259.6188,517.5988 L259.6188,520.3175 Z " fill="#000000"/><text fill="#000000" font-family="sans-serif" font-size="14" lengthAdjust="spacing" textLength="93" x="272.35" y="519.5236">CashRegister</text><line style="stroke:#181818;stroke-width:0.5;" x1="235" x2="375" y1="530.6769" y2="530.6769"/><rect fill="none" height="6" style="stroke:#C82930;stroke-width:1.0;" width="6" x="242" y="541.3253"/><text fill="#000000" font-family="sans-serif" font-size="14" lengthAdjust="spacing" textLength="12" x="254" y="547.672">id</text><rect fill="none" height="6" style="stroke:#C82930;stroke-width:1.0;" width="6" x="242" y="557.6222"/><text fill="#000000" font-family="sans-serif" font-size="14" lengthAdjust="spacing" textLength="102" x="254" y="563.9689">currentCashier</text><rect fill="none" height="6" style="stroke:#C82930;stroke-width:1.0;" width="6" x="242" y="573.9191"/><text fill="#000000" font-family="sans-serif" font-size="14" lengthAdjust="spacing" textLength="116" x="254" y="580.2657">timePerItemPack</text><rect fill="none" height="6" style="stroke:#C82930;stroke-width:1.0;" width="6" x="242" y="590.2159"/><text fill="#000000" font-family="sans-serif" font-size="14" lengthAdjust="spacing" textLength="78" x="254" y="596.5626">isOcuppied</text><rect fill="none" height="6" style="stroke:#C82930;stroke-width:1.0;" width="6" x="242" y="606.5128"/><text fill="#000000" font-family="sans-serif" font-size="14" lengthAdjust="spacing" textLength="49" x="254" y="612.8595">isOpen</text><rect fill="none" height="6" style="stroke:#C82930;stroke-width:1.0;" width="6" x="242" y="622.8097"/><text fill="#000000" font-family="sans-serif" font-size="14" lengthAdjust="spacing" textLength="109" x="254" y="629.1564">remainingPacks</text><line style="stroke:#181818;stroke-width:0.5;" x1="235" x2="375" y1="636.4581" y2="636.4581"/></g><!--class Customer--><g id="elem_Customer"><rect codeLine="30" fill="#F1F1F1" height="80.5938" id="Customer" rx="2.5" ry="2.5" style="stroke:#181818;stroke-width:0.5;" width="166" x="24" y="358.0769"/><ellipse cx="68.75" cy="374.0769" fill="#ADD1B2" rx="11" ry="11" style="stroke:#181818;stroke-width:1.0;"/><path d="M71.7188,379.7175 Q71.1406,380.0144 70.5,380.155 Q69.8594,380.3113 69.1563,380.3113 Q66.6563,380.3113 65.3281,378.6706 Q64.0156,377.0144 64.0156,373.8894 Q64.0156,370.7644 65.3281,369.1081 Q66.6563,367.4519 69.1563,367.4519 Q69.8594,367.4519 70.5,367.6081 Q71.1563,367.7644 71.7188,368.0613 L71.7188,370.78 Q71.0938,370.2019 70.5,369.9363 Q69.9063,369.655 69.2813,369.655 Q67.9375,369.655 67.25,370.7331 Q66.5625,371.7956 66.5625,373.8894 Q66.5625,375.9831 67.25,377.0613 Q67.9375,378.1238 69.2813,378.1238 Q69.9063,378.1238 70.5,377.8581 Q71.0938,377.5769 71.7188,376.9988 L71.7188,379.7175 Z " fill="#000000"/><text fill="#000000" font-family="sans-serif" font-size="14" lengthAdjust="spacing" textLength="68" x="89.25" y="378.9236">Customer</text><line style="stroke:#181818;stroke-width:0.5;" x1="25" x2="189" y1="390.0769" y2="390.0769"/><rect fill="none" height="6" style="stroke:#C82930;stroke-width:1.0;" width="6" x="32" y="400.7253"/><text fill="#000000" font-family="sans-serif" font-size="14" lengthAdjust="spacing" textLength="12" x="44" y="407.072">id</text><rect fill="none" height="6" style="stroke:#C82930;stroke-width:1.0;" width="6" x="32" y="417.0222"/><text fill="#000000" font-family="sans-serif" font-size="14" lengthAdjust="spacing" textLength="140" x="44" y="423.3689">numberOfItemPacks</text><line style="stroke:#181818;stroke-width:0.5;" x1="25" x2="189" y1="430.6706" y2="430.6706"/></g><!--class Queue--><g id="elem_Queue"><rect codeLine="35" fill="#F1F1F1" height="64.2969" id="Queue" rx="2.5" ry="2.5" style="stroke:#181818;stroke-width:0.5;" width="79" x="327.5" y="233.7869"/><ellipse cx="342.5" cy="249.7869" fill="#ADD1B2" rx="11" ry="11" style="stroke:#181818;stroke-width:1.0;"/><path d="M345.4688,255.4275 Q344.8906,255.7244 344.25,255.865 Q343.6094,256.0213 342.9063,256.0213 Q340.4063,256.0213 339.0781,254.3806 Q337.7656,252.7244 337.7656,249.5994 Q337.7656,246.4744 339.0781,244.8181 Q340.4063,243.1619 342.9063,243.1619 Q343.6094,243.1619 344.25,243.3181 Q344.9063,243.4744 345.4688,243.7713 L345.4688,246.49 Q344.8438,245.9119 344.25,245.6463 Q343.6563,245.365 343.0313,245.365 Q341.6875,245.365 341,246.4431 Q340.3125,247.5056 340.3125,249.5994 Q340.3125,251.6931 341,252.7713 Q341.6875,253.8338 343.0313,253.8338 Q343.6563,253.8338 344.25,253.5681 Q344.8438,253.2869 345.4688,252.7088 L345.4688,255.4275 Z " fill="#000000"/><text fill="#000000" font-family="sans-serif" font-size="14" lengthAdjust="spacing" textLength="47" x="356.5" y="254.6336">Queue</text><line style="stroke:#181818;stroke-width:0.5;" x1="328.5" x2="405.5" y1="265.7869" y2="265.7869"/><rect fill="none" height="6" style="stroke:#C82930;stroke-width:1.0;" width="6" x="335.5" y="276.4353"/><text fill="#000000" font-family="sans-serif" font-size="14" lengthAdjust="spacing" textLength="28" x="347.5" y="282.782">size</text><line style="stroke:#181818;stroke-width:0.5;" x1="328.5" x2="405.5" y1="290.0838" y2="290.0838"/></g><!--class Cashier--><g id="elem_Cashier"><rect codeLine="39" fill="#F1F1F1" height="129.4844" id="Cashier" rx="2.5" ry="2.5" style="stroke:#181818;stroke-width:0.5;" width="99" x="482.5" y="506.8269"/><ellipse cx="504.25" cy="522.8269" fill="#ADD1B2" rx="11" ry="11" style="stroke:#181818;stroke-width:1.0;"/><path d="M507.2188,528.4675 Q506.6406,528.7644 506,528.905 Q505.3594,529.0613 504.6563,529.0613 Q502.1563,529.0613 500.8281,527.4206 Q499.5156,525.7644 499.5156,522.6394 Q499.5156,519.5144 500.8281,517.8581 Q502.1563,516.2019 504.6563,516.2019 Q505.3594,516.2019 506,516.3581 Q506.6563,516.5144 507.2188,516.8113 L507.2188,519.53 Q506.5938,518.9519 506,518.6863 Q505.4063,518.405 504.7813,518.405 Q503.4375,518.405 502.75,519.4831 Q502.0625,520.5456 502.0625,522.6394 Q502.0625,524.7331 502.75,525.8113 Q503.4375,526.8738 504.7813,526.8738 Q505.4063,526.8738 506,526.6081 Q506.5938,526.3269 507.2188,525.7488 L507.2188,528.4675 Z " fill="#000000"/><text fill="#000000" font-family="sans-serif" font-size="14" lengthAdjust="spacing" textLength="52" x="519.75" y="527.6736">Cashier</text><line style="stroke:#181818;stroke-width:0.5;" x1="483.5" x2="580.5" y1="538.8269" y2="538.8269"/><rect fill="none" height="6" style="stroke:#C82930;stroke-width:1.0;" width="6" x="490.5" y="549.4753"/><text fill="#000000" font-family="sans-serif" font-size="14" lengthAdjust="spacing" textLength="12" x="502.5" y="555.822">id</text><rect fill="none" height="6" style="stroke:#C82930;stroke-width:1.0;" width="6" x="490.5" y="565.7722"/><text fill="#000000" font-family="sans-serif" font-size="14" lengthAdjust="spacing" textLength="39" x="502.5" y="572.1189">name</text><rect fill="none" height="6" style="stroke:#C82930;stroke-width:1.0;" width="6" x="490.5" y="582.0691"/><text fill="#000000" font-family="sans-serif" font-size="14" lengthAdjust="spacing" textLength="63" x="502.5" y="588.4157">workShift</text><rect fill="none" height="6" style="stroke:#C82930;stroke-width:1.0;" width="6" x="490.5" y="598.3659"/><text fill="#000000" font-family="sans-serif" font-size="14" lengthAdjust="spacing" textLength="73" x="502.5" y="604.7126">workBreak</text><rect fill="none" height="6" style="stroke:#C82930;stroke-width:1.0;" width="6" x="490.5" y="614.6628"/><text fill="#000000" font-family="sans-serif" font-size="14" lengthAdjust="spacing" textLength="62" x="502.5" y="621.0095">isServing</text><line style="stroke:#181818;stroke-width:0.5;" x1="483.5" x2="580.5" y1="628.3113" y2="628.3113"/></g><!--class DataLog--><g id="elem_DataLog"><rect codeLine="47" fill="#F1F1F1" height="48" id="DataLog" rx="2.5" ry="2.5" style="stroke:#181818;stroke-width:0.5;" width="89" x="384.5" y="704.4569"/><ellipse cx="399.5" cy="720.4569" fill="#ADD1B2" rx="11" ry="11" style="stroke:#181818;stroke-width:1.0;"/><path d="M402.4688,726.0975 Q401.8906,726.3944 401.25,726.535 Q400.6094,726.6913 399.9063,726.6913 Q397.4063,726.6913 396.0781,725.0506 Q394.7656,723.3944 394.7656,720.2694 Q394.7656,717.1444 396.0781,715.4881 Q397.4063,713.8319 399.9063,713.8319 Q400.6094,713.8319 401.25,713.9881 Q401.9063,714.1444 402.4688,714.4413 L402.4688,717.16 Q401.8438,716.5819 401.25,716.3163 Q400.6563,716.035 400.0313,716.035 Q398.6875,716.035 398,717.1131 Q397.3125,718.1756 397.3125,720.2694 Q397.3125,722.3631 398,723.4413 Q398.6875,724.5038 400.0313,724.5038 Q400.6563,724.5038 401.25,724.2381 Q401.8438,723.9569 402.4688,723.3788 L402.4688,726.0975 Z " fill="#000000"/><text fill="#000000" font-family="sans-serif" font-size="14" lengthAdjust="spacing" textLength="57" x="413.5" y="725.3036">DataLog</text><line style="stroke:#181818;stroke-width:0.5;" x1="385.5" x2="472.5" y1="736.4569" y2="736.4569"/><line style="stroke:#181818;stroke-width:0.5;" x1="385.5" x2="472.5" y1="744.4569" y2="744.4569"/></g><!--link ShoppingCenter to Queue--><g id="link_ShoppingCenter_Queue"><path codeLine="52" d="M428.1,173.9369 C414.33,194.4369 399.69,216.2469 388.19,233.3669 " fill="none" id="ShoppingCenter-Queue" style="stroke:#181818;stroke-width:1.0;"/></g><!--link ShoppingCenter to Customer--><g id="link_ShoppingCenter_Customer"><path codeLine="53" d="M398.04,166.1169 C355.44,198.8569 310,233.7869 310,233.7869 C310,233.7869 216.22,309.3569 156.14,357.7769 " fill="none" id="ShoppingCenter-Customer" style="stroke:#181818;stroke-width:1.0;"/></g><!--link ShoppingCenter to Cashier--><g id="link_ShoppingCenter_Cashier"><path codeLine="54" d="M479.48,174.0769 C491.1,261.8169 511.86,418.4969 523.49,506.3369 " fill="none" id="ShoppingCenter-Cashier" style="stroke:#181818;stroke-width:1.0;"/></g><!--link ShoppingCenter to CashRegister--><g id="link_ShoppingCenter_CashRegister"><path codeLine="55" d="M398.19,146.6669 C325.65,183.1569 225,233.7869 225,233.7869 C225,233.7869 6,358.0769 6,358.0769 C6,358.0769 6,438.6769 6,438.6769 C6,438.6769 145.32,500.1369 233.76,539.1469 " fill="none" id="ShoppingCenter-CashRegister" style="stroke:#181818;stroke-width:1.0;"/></g><!--link Queue to AttentionCenter--><g id="link_Queue_AttentionCenter"><path codeLine="57" d="M353.2,298.5069 C344.24,319.0169 332.61,345.6369 323.67,366.0969 " fill="none" id="Queue-AttentionCenter" style="stroke:#181818;stroke-width:1.0;"/></g><!--link Queue to Customer--><g id="link_Queue_Customer"><path codeLine="58" d="M327.23,286.8869 C289.89,305.6269 232.95,334.1869 186.32,357.5869 " fill="none" id="Queue-Customer" style="stroke:#181818;stroke-width:1.0;"/></g><!--link Customer to AttentionCenter--><g id="link_Customer_AttentionCenter"><path codeLine="60" d="M190.36,398.3769 C200.67,398.3769 214.16,398.3769 224.82,398.3769 " fill="none" id="Customer-AttentionCenter" style="stroke:#181818;stroke-width:1.0;"/></g><!--link AttentionCenter to CashRegister--><g id="link_AttentionCenter_CashRegister"><path codeLine="61" d="M309.08,430.7769 C308.53,449.7969 307.8,474.8669 307.1,498.5269 " fill="none" id="AttentionCenter-CashRegister" style="stroke:#181818;stroke-width:1.0;"/></g><!--link CashRegister to Cashier--><g id="link_CashRegister_Cashier"><path codeLine="63" d="M376.16,571.5669 C379,571.5669 380.67,571.5669 380.67,571.5669 C380.67,571.5669 456.33,571.5669 456.33,571.5669 C456.33,571.5669 468.11,571.5669 482.37,571.5669 " fill="none" id="CashRegister-Cashier" style="stroke:#181818;stroke-width:1.0;"/></g><!--link CashRegister to Customer--><g id="link_CashRegister_Customer"><path codeLine="65" d="M233.73,508.9469 C206.81,485.6669 176.91,459.8269 152.92,439.0869 " fill="none" id="CashRegister-Customer" style="stroke:#181818;stroke-width:1.0;"/></g><!--link CashRegister to Time--><g id="link_CashRegister_Time"><path codeLine="66" d="M376.43,530.1569 C425.75,501.5669 482.5,468.6769 482.5,468.6769 C482.5,468.6769 581.5,468.6769 581.5,468.6769 C581.5,468.6769 613.51,516.7569 633.77,547.1869 " fill="none" id="CashRegister-Time" style="stroke:#181818;stroke-width:1.0;stroke-dasharray:7.0,7.0;"/></g><!--link ShoppingCenter to Time--><g id="link_ShoppingCenter_Time"><path codeLine="68" d="M495.89,174.0769 C536.33,278.1269 614.46,479.1369 640.96,547.3069 " fill="none" id="ShoppingCenter-Time" style="stroke:#181818;stroke-width:1.0;stroke-dasharray:7.0,7.0;"/></g><!--link ShoppingCenter to DataLog--><g id="link_ShoppingCenter_DataLog"><path codeLine="69" d="M515.51,174.0869 C536.5,204.2869 557,233.7869 557,233.7869 C557,233.7869 701,498.6769 701,498.6769 C701,498.6769 701,644.4569 701,644.4569 C701,644.4569 551.17,690.1769 473.92,713.7469 " fill="none" id="ShoppingCenter-DataLog" style="stroke:#181818;stroke-width:1.0;stroke-dasharray:7.0,7.0;"/></g><!--link Queue to DataLog--><g id="link_Queue_DataLog"><path codeLine="70" d="M382.61,298.5569 C395.61,324.8869 412,358.0769 412,358.0769 C412,358.0769 424.19,622.8769 427.92,704.0669 " fill="none" id="Queue-DataLog" style="stroke:#181818;stroke-width:1.0;stroke-dasharray:7.0,7.0;"/></g><!--link CashRegister to DataLog--><g id="link_CashRegister_DataLog"><path codeLine="71" d="M362.64,644.5669 C379.85,666.0569 397.5,688.1069 410.27,704.0569 " fill="none" id="CashRegister-DataLog" style="stroke:#181818;stroke-width:1.0;stroke-dasharray:7.0,7.0;"/></g><!--SRC=[RLDHReCm3FtFAN81UeUDQjgaIUtQNI2bBbWD979C9rRjxWk5a43X2xzd-ptRuAxOM4MgbXeRuCw2j4PtVI048skGkLREoIsgia_BP9xdRq8K3_GRQxWByHVYOsMinQRCeM4WUHVIFvaq5XgFlfkMHgJGniqHzgt6LqM4DwNtP4xgX1gv6mbqEzyfohqmUo4qpQ0NvA2stENALGSeqNd2nP8KdlpXETXgYNohFWaXTRO7-c2ezwguHYz5wuU5yzpS413K2lkP-ufKldLiwZNffgrFGBjBa4cAlbfeOQfm-0lpUN2rdvhs-MFeUgpmmadyIg3YA4UWcpSRssuLgqzJ3hSLYxDcsM1f1G_phL7ZKjUPS1CXXcazlBXk9AAAMEJ8JCE54njF_59jzZraX6N5qUg2JVhEYCtZFtXQqsPp68WdFAnt72a1vdqd_1y0]--></g></svg>