<?xml version="1.0" encoding="us-ascii" standalone="no"?><svg xmlns="http://www.w3.org/2000/svg" xmlns:xlink="http://www.w3.org/1999/xlink" contentStyleType="text/css" height="384px" preserveAspectRatio="none" style="width:820px;height:384px;background:#FFFFFF;" version="1.1" viewBox="0 0 820 384" width="820px" zoomAndPan="magnify"><defs/><g><text fill="#000000" font-family="sans-serif" font-size="14" font-weight="bold" lengthAdjust="spacing" textLength="173" x="313.25" y="22.9951">State Diagram - CCCF</text><path d="M19.5,82.7969 L153,82.7969 A12.5,12.5 0 0 1 165.5,95.2969 L165.5,109.0938 L7,109.0938 L7,95.2969 A12.5,12.5 0 0 1 19.5,82.7969 " fill="#F1F1F1" style="stroke:#F1F1F1;stroke-width:1.0;"/><rect fill="none" height="257.2969" rx="12.5" ry="12.5" style="stroke:#181818;stroke-width:0.5;" width="158.5" x="7" y="82.7969"/><line style="stroke:#181818;stroke-width:0.5;" x1="7" x2="165.5" y1="109.0938" y2="109.0938"/><text fill="#000000" font-family="sans-serif" font-size="14" lengthAdjust="spacing" textLength="119" x="26.75" y="100.792">ShoppingCenter</text><ellipse cx="70.5" cy="130.0938" fill="#222222" rx="10" ry="10" style="stroke:#222222;stroke-width:1.0;"/><g id="ShoppingCenter.SC_Closed"><rect fill="#F1F1F1" height="50" rx="12.5" ry="12.5" style="stroke:#181818;stroke-width:0.5;" width="94" x="23.5" y="177.0938"/><line style="stroke:#181818;stroke-width:0.5;" x1="23.5" x2="117.5" y1="203.3906" y2="203.3906"/><text fill="#000000" font-family="sans-serif" font-size="14" lengthAdjust="spacing" textLength="74" x="33.5" y="195.0889">SC_Closed</text></g><ellipse cx="146.5" cy="202.0938" fill="none" rx="11" ry="11" style="stroke:#222222;stroke-width:1.0;"/><ellipse cx="146.5" cy="202.0938" fill="#222222" rx="6" ry="6" style="stroke:#222222;stroke-width:1.0;"/><g id="ShoppingCenter.SC_Opened"><rect fill="#F1F1F1" height="50" rx="12.5" ry="12.5" style="stroke:#181818;stroke-width:0.5;" width="103" x="19" y="280.0938"/><line style="stroke:#181818;stroke-width:0.5;" x1="19" x2="122" y1="306.3906" y2="306.3906"/><text fill="#000000" font-family="sans-serif" font-size="14" lengthAdjust="spacing" textLength="83" x="29" y="298.0889">SC_Opened</text></g><!--link *start*ShoppingCenter to SC_Closed--><g id="link_*start*ShoppingCenter_SC_Closed"><path d="M70.5,140.2448 C70.5,149.5098 70.5,158.2348 70.5,170.8778 " fill="none" id="*start*ShoppingCenter-to-SC_Closed" style="stroke:#181818;stroke-width:1.0;"/><polygon fill="#181818" points="70.5,176.8778,74.5,167.8778,70.5,171.8778,66.5,167.8778,70.5,176.8778" style="stroke:#181818;stroke-width:1.0;"/></g><!--link SC_Closed to *end*ShoppingCenter--><g id="link_SC_Closed_*end*ShoppingCenter"><path d="M117.7031,202.0938 C123.552,202.0938 123.402,202.0938 129.251,202.0938 " fill="none" id="SC_Closed-to-*end*ShoppingCenter" style="stroke:#181818;stroke-width:1.0;"/><polygon fill="#181818" points="135.251,202.0938,126.251,198.0938,130.251,202.0938,126.251,206.0938,135.251,202.0938" style="stroke:#181818;stroke-width:1.0;"/></g><!--link SC_Closed to SC_Opened--><g id="link_SC_Closed_SC_Opened"><path d="M51.0157,227.1828 C47.5117,232.7592 44.3792,238.8871 42.5,245.0938 C38.8859,257.0305 40.3825,264.5048 46.875,274.9621 " fill="none" id="SC_Closed-to-SC_Opened" style="stroke:#181818;stroke-width:1.0;"/><polygon fill="#181818" points="50.0398,280.0596,48.6909,270.3035,47.4025,275.8117,41.8943,274.5232,50.0398,280.0596" style="stroke:#181818;stroke-width:1.0;"/><text fill="#000000" font-family="sans-serif" font-size="13" lengthAdjust="spacing" textLength="33" x="43.5" y="258.1606">9 am</text></g><!--link SC_Opened to SC_Closed--><g id="link_SC_Opened_SC_Closed"><path d="M75.5573,280.02 C77.2321,269.3393 78.4529,256.6071 77.5,245.0938 C77.0244,239.3474 77.1465,239.1268 76.2144,233.3618 " fill="none" id="SC_Opened-to-SC_Closed" style="stroke:#181818;stroke-width:1.0;"/><polygon fill="#181818" points="75.2567,227.4388,72.7445,236.9618,76.0547,232.3747,80.6419,235.6849,75.2567,227.4388" style="stroke:#181818;stroke-width:1.0;"/><text fill="#000000" font-family="sans-serif" font-size="13" lengthAdjust="spacing" textLength="52" x="78.5" y="258.1606">9 pm +-</text></g><path d="M214,110.7969 L521.3961,110.7969 A12.5,12.5 0 0 1 533.8961,123.2969 L533.8961,137.0938 L201.5,137.0938 L201.5,123.2969 A12.5,12.5 0 0 1 214,110.7969 " fill="#F1F1F1" style="stroke:#F1F1F1;stroke-width:1.0;"/><rect fill="none" height="201.2969" rx="12.5" ry="12.5" style="stroke:#181818;stroke-width:0.5;" width="332.3961" x="201.5" y="110.7969"/><line style="stroke:#181818;stroke-width:0.5;" x1="201.5" x2="533.8961" y1="137.0938" y2="137.0938"/><text fill="#000000" font-family="sans-serif" font-size="14" lengthAdjust="spacing" textLength="45" x="345.198" y="128.792">Queue</text><g id="Queue.Q_Empty"><rect fill="#F1F1F1" height="50" rx="12.5" ry="12.5" style="stroke:#181818;stroke-width:0.5;" width="86" x="242.8958" y="149.0938"/><line style="stroke:#181818;stroke-width:0.5;" x1="242.8958" x2="328.8958" y1="175.3906" y2="175.3906"/><text fill="#000000" font-family="sans-serif" font-size="14" lengthAdjust="spacing" textLength="66" x="252.8958" y="167.0889">Q_Empty</text></g><g id="Queue.Q_Receiving"><rect fill="#F1F1F1" height="50" rx="12.5" ry="12.5" style="stroke:#181818;stroke-width:0.5;" width="108" x="231.8958" y="252.0938"/><line style="stroke:#181818;stroke-width:0.5;" x1="231.8958" x2="339.8958" y1="278.3906" y2="278.3906"/><text fill="#000000" font-family="sans-serif" font-size="14" lengthAdjust="spacing" textLength="88" x="241.8958" y="270.0889">Q_Receiving</text></g><!--link Q_Empty to Q_Receiving--><g id="link_Q_Empty_Q_Receiving"><path d="M242.6173,193.8468 C233.5303,199.8958 225.1243,207.5691 219.8958,217.0938 C212.5,230.5666 216.1132,238.9701 229.1616,248.5311 " fill="none" id="Q_Empty-to-Q_Receiving" style="stroke:#181818;stroke-width:1.0;"/><polygon fill="#181818" points="234.0014,252.0774,229.1059,243.5314,229.9682,249.1221,224.3775,249.9845,234.0014,252.0774" style="stroke:#181818;stroke-width:1.0;"/><text fill="#000000" font-family="sans-serif" font-size="13" lengthAdjust="spacing" textLength="109" x="220.8958" y="230.1606">customer arrives</text></g><!--link Q_Receiving to Q_Empty--><g id="link_Q_Receiving_Q_Empty"><path d="M319.7451,251.9625 C329.5581,241.8857 336.3381,229.6177 330.8961,217.0938 C328.0851,210.625 327.8391,209.0741 322.9271,203.8428 " fill="none" id="Q_Receiving-to-Q_Empty" style="stroke:#181818;stroke-width:1.0;"/><polygon fill="#181818" points="318.8201,199.4688,322.0646,208.7678,322.2426,203.1138,327.8967,203.2918,318.8201,199.4688" style="stroke:#181818;stroke-width:1.0;"/><text fill="#000000" font-family="sans-serif" font-size="13" lengthAdjust="spacing" textLength="113" x="332.8961" y="230.1606">no customers left</text></g><!--link Q_Receiving to Q_Receiving--><g id="link_Q_Receiving_Q_Receiving"><path d="M339.9031,268.1359 C350.4241,269.1762 357.8961,272.1622 357.8961,277.0938 C357.8961,282.0254 356.395,284.421 345.874,285.4613 " fill="none" id="Q_Receiving-to-Q_Receiving" style="stroke:#181818;stroke-width:1.0;"/><polygon fill="#181818" points="339.9031,286.0517,349.253,289.1467,344.8788,285.5597,348.4658,281.1855,339.9031,286.0517" style="stroke:#181818;stroke-width:1.0;"/><text fill="#000000" font-family="sans-serif" font-size="13" lengthAdjust="spacing" textLength="155" x="363.8961" y="281.6606">customers keep arriving</text></g><path d="M581.5,44.2969 L794,44.2969 A12.5,12.5 0 0 1 806.5,56.7969 L806.5,70.5938 L569,70.5938 L569,56.7969 A12.5,12.5 0 0 1 581.5,44.2969 " fill="#F1F1F1" style="stroke:#F1F1F1;stroke-width:1.0;"/><rect fill="none" height="334.2969" rx="12.5" ry="12.5" style="stroke:#181818;stroke-width:0.5;" width="237.5" x="569" y="44.2969"/><line style="stroke:#181818;stroke-width:0.5;" x1="569" x2="806.5" y1="70.5938" y2="70.5938"/><text fill="#000000" font-family="sans-serif" font-size="14" lengthAdjust="spacing" textLength="95" x="640.25" y="62.292">CashRegister</text><g id="CashRegister.CR_Closed"><rect fill="#F1F1F1" height="50" rx="12.5" ry="12.5" style="stroke:#181818;stroke-width:0.5;" width="95" x="585.5" y="82.5938"/><line style="stroke:#181818;stroke-width:0.5;" x1="585.5" x2="680.5" y1="108.8906" y2="108.8906"/><text fill="#000000" font-family="sans-serif" font-size="14" lengthAdjust="spacing" textLength="75" x="595.5" y="100.5889">CR_Closed</text></g><g id="CashRegister.CR_Opened"><rect fill="#F1F1F1" height="50" rx="12.5" ry="12.5" style="stroke:#181818;stroke-width:0.5;" width="104" x="581" y="215.5938"/><line style="stroke:#181818;stroke-width:0.5;" x1="581" x2="685" y1="241.8906" y2="241.8906"/><text fill="#000000" font-family="sans-serif" font-size="14" lengthAdjust="spacing" textLength="84" x="591" y="233.5889">CR_Opened</text></g><g id="CashRegister.CR_Serving"><rect fill="#F1F1F1" height="50" rx="12.5" ry="12.5" style="stroke:#181818;stroke-width:0.5;" width="101" x="582.5" y="318.5938"/><line style="stroke:#181818;stroke-width:0.5;" x1="582.5" x2="683.5" y1="344.8906" y2="344.8906"/><text fill="#000000" font-family="sans-serif" font-size="14" lengthAdjust="spacing" textLength="81" x="592.5" y="336.5889">CR_Serving</text></g><!--link CR_Closed to CR_Opened--><g id="link_CR_Closed_CR_Opened"><path d="M602.6574,132.7968 C597.9047,138.1158 593.6834,144.1158 591,150.5938 C583.0062,169.8928 583.0062,178.2948 591,197.5938 C593.6834,204.0718 593.9069,205.5976 598.6596,210.9166 " fill="none" id="CR_Closed-to-CR_Opened" style="stroke:#181818;stroke-width:1.0;"/><polygon fill="#181818" points="602.6574,215.3908,599.6435,206.0144,599.3259,211.6623,593.678,211.3447,602.6574,215.3908" style="stroke:#181818;stroke-width:1.0;"/><text fill="#000000" font-family="sans-serif" font-size="13" lengthAdjust="spacing" textLength="58" x="592" y="171.1606">queue&gt;1</text><text fill="#000000" font-family="sans-serif" font-size="13" lengthAdjust="spacing" textLength="33" x="608.5" y="186.2935">9 am</text></g><!--link CR_Opened to CR_Closed--><g id="link_CR_Opened_CR_Closed"><path d="M648.1175,215.5108 C650.9591,209.8378 653.5053,203.6688 655,197.5938 C659.9908,177.3098 659.9908,170.8778 655,150.5938 C653.5053,144.5188 653.6462,143.7144 650.8046,138.0414 " fill="none" id="CR_Opened-to-CR_Closed" style="stroke:#181818;stroke-width:1.0;"/><polygon fill="#181818" points="648.1175,132.6768,648.5718,142.5151,650.3568,137.1473,655.7246,138.9323,648.1175,132.6768" style="stroke:#181818;stroke-width:1.0;"/><text fill="#000000" font-family="sans-serif" font-size="13" lengthAdjust="spacing" textLength="79" x="659" y="163.6606">shift change</text><text fill="#000000" font-family="sans-serif" font-size="13" lengthAdjust="spacing" textLength="58" x="671.5" y="178.7935">queue&lt;1</text><text fill="#000000" font-family="sans-serif" font-size="13" lengthAdjust="spacing" textLength="48" x="678.5" y="193.9263">9 pm+-</text></g><!--link CR_Opened to CR_Serving--><g id="link_CR_Opened_CR_Serving"><path d="M601.9459,265.6968 C597.079,271.025 592.7541,277.0539 590,283.5938 C584.7856,295.9759 587.178,303.8235 596.5574,313.9204 " fill="none" id="CR_Opened-to-CR_Serving" style="stroke:#181818;stroke-width:1.0;"/><polygon fill="#181818" points="600.641,318.3164,597.4463,309,597.238,314.6531,591.585,314.4448,600.641,318.3164" style="stroke:#181818;stroke-width:1.0;"/><text fill="#000000" font-family="sans-serif" font-size="13" lengthAdjust="spacing" textLength="64" x="591" y="296.6606">items&gt;=5</text></g><!--link CR_Serving to CR_Opened--><g id="link_CR_Serving_CR_Opened"><path d="M649.835,318.344 C655.1729,307.8503 658.9979,295.3096 656,283.5938 C654.4338,277.4728 654.5531,276.6002 651.582,270.9245 " fill="none" id="CR_Serving-to-CR_Opened" style="stroke:#181818;stroke-width:1.0;"/><polygon fill="#181818" points="648.7993,265.6088,649.4295,275.4374,651.1182,270.0385,656.5171,271.7272,648.7993,265.6088" style="stroke:#181818;stroke-width:1.0;"/><text fill="#000000" font-family="sans-serif" font-size="13" lengthAdjust="spacing" textLength="54" x="658" y="296.6606">items=0</text></g><!--link CR_Serving to CR_Serving--><g id="link_CR_Serving_CR_Serving"><path d="M683.784,334.5764 C694.107,335.5587 701.5,338.5645 701.5,343.5938 C701.5,348.6231 700.08,351.0605 689.757,352.0428 " fill="none" id="CR_Serving-to-CR_Serving" style="stroke:#181818;stroke-width:1.0;"/><polygon fill="#181818" points="683.784,352.6112,693.1224,355.7406,688.7615,352.1375,692.3646,347.7766,683.784,352.6112" style="stroke:#181818;stroke-width:1.0;"/><text fill="#000000" font-family="sans-serif" font-size="13" lengthAdjust="spacing" textLength="84" x="707.5" y="348.1606">packItems&gt;1</text></g><!--SRC=[TP2nJiCm48PtFyNDe4XqO22YMKoHc52I4L1aXMjYDNQCVQc4KDyTntRJWbfFjk_xph-F90q8DGb2U9AYiq911fppP-R2PTsFnaZTSTI45dxOsyq7P5a1DM_uC3hyPCiECYkxddpHGmpyEYj5vTMWzgSS7a2e8v8k_tGDY55mcx43IrdA2IVq4MQjR3RAq7UGogR25kNUnyoXdHoDoaSLriezkaGlH3A2dOCU5y71W5kwWbzumC4EqSHdVE4KamlNLzX95mSsD-JL-HpyANuvXw_vIyKAtlLf8alv24Sr1zVBBK7R2ztXR0JvCSb6-L5Tr6kqCRaaLAvOtn-nLFYVAM3hkolKqis8TlSIEgxOuHS0]--></g></svg>