<?xml version="1.0" encoding="us-ascii" standalone="no"?><svg xmlns="http://www.w3.org/2000/svg" xmlns:xlink="http://www.w3.org/1999/xlink" contentStyleType="text/css" height="478px" preserveAspectRatio="none" style="width:552px;height:478px;background:#FFFFFF;" version="1.1" viewBox="0 0 552 478" width="552px" zoomAndPan="magnify"><defs/><g><text fill="#000000" font-family="sans-serif" font-size="14" font-weight="bold" lengthAdjust="spacing" textLength="169" x="184.5" y="22.9951">Class Diagram - CCCF</text><!--class ShoppingCenter--><g id="elem_ShoppingCenter"><rect codeLine="5" fill="#F1F1F1" height="129.4844" id="ShoppingCenter" rx="2.5" ry="2.5" style="stroke:#181818;stroke-width:0.5;" width="145" x="17.5" y="44.2969"/><ellipse cx="32.5" cy="60.2969" fill="#ADD1B2" rx="11" ry="11" style="stroke:#181818;stroke-width:1.0;"/><path d="M35.4688,65.9375 Q34.8906,66.2344 34.25,66.375 Q33.6094,66.5313 32.9063,66.5313 Q30.4063,66.5313 29.0781,64.8906 Q27.7656,63.2344 27.7656,60.1094 Q27.7656,56.9844 29.0781,55.3281 Q30.4063,53.6719 32.9063,53.6719 Q33.6094,53.6719 34.25,53.8281 Q34.9063,53.9844 35.4688,54.2813 L35.4688,57 Q34.8438,56.4219 34.25,56.1563 Q33.6563,55.875 33.0313,55.875 Q31.6875,55.875 31,56.9531 Q30.3125,58.0156 30.3125,60.1094 Q30.3125,62.2031 31,63.2813 Q31.6875,64.3438 33.0313,64.3438 Q33.6563,64.3438 34.25,64.0781 Q34.8438,63.7969 35.4688,63.2188 L35.4688,65.9375 Z " fill="#000000"/><text fill="#000000" font-family="sans-serif" font-size="14" lengthAdjust="spacing" textLength="113" x="46.5" y="65.1436">ShoppingCenter</text><line style="stroke:#181818;stroke-width:0.5;" x1="18.5" x2="161.5" y1="76.2969" y2="76.2969"/><rect fill="none" height="6" style="stroke:#C82930;stroke-width:1.0;" width="6" x="25.5" y="86.9453"/><text fill="#000000" font-family="sans-serif" font-size="14" lengthAdjust="spacing" textLength="90" x="37.5" y="93.292">openingHour</text><rect fill="none" height="6" style="stroke:#C82930;stroke-width:1.0;" width="6" x="25.5" y="103.2422"/><text fill="#000000" font-family="sans-serif" font-size="14" lengthAdjust="spacing" textLength="82" x="37.5" y="109.5889">closingHour</text><rect fill="none" height="6" style="stroke:#C82930;stroke-width:1.0;" width="6" x="25.5" y="119.5391"/><text fill="#000000" font-family="sans-serif" font-size="14" lengthAdjust="spacing" textLength="30" x="37.5" y="125.8857">time</text><rect fill="none" height="6" style="stroke:#C82930;stroke-width:1.0;" width="6" x="25.5" y="135.8359"/><text fill="#000000" font-family="sans-serif" font-size="14" lengthAdjust="spacing" textLength="109" x="37.5" y="142.1826">arrivalProbability</text><rect fill="none" height="6" style="stroke:#C82930;stroke-width:1.0;" width="6" x="25.5" y="152.1328"/><text fill="#000000" font-family="sans-serif" font-size="14" lengthAdjust="spacing" textLength="49" x="37.5" y="158.4795">isOpen</text><line style="stroke:#181818;stroke-width:0.5;" x1="18.5" x2="161.5" y1="165.7813" y2="165.7813"/></g><!--class AttentionCenter--><g id="elem_AttentionCenter"><rect codeLine="13" fill="#F1F1F1" height="64.2969" id="AttentionCenter" rx="2.5" ry="2.5" style="stroke:#181818;stroke-width:0.5;" width="170" x="198" y="76.8869"/><ellipse cx="225.6" cy="92.8869" fill="#ADD1B2" rx="11" ry="11" style="stroke:#181818;stroke-width:1.0;"/><path d="M228.5688,98.5275 Q227.9906,98.8244 227.35,98.965 Q226.7094,99.1213 226.0063,99.1213 Q223.5063,99.1213 222.1781,97.4806 Q220.8656,95.8244 220.8656,92.6994 Q220.8656,89.5744 222.1781,87.9181 Q223.5063,86.2619 226.0063,86.2619 Q226.7094,86.2619 227.35,86.4181 Q228.0063,86.5744 228.5688,86.8713 L228.5688,89.59 Q227.9438,89.0119 227.35,88.7463 Q226.7563,88.465 226.1313,88.465 Q224.7875,88.465 224.1,89.5431 Q223.4125,90.6056 223.4125,92.6994 Q223.4125,94.7931 224.1,95.8713 Q224.7875,96.9338 226.1313,96.9338 Q226.7563,96.9338 227.35,96.6681 Q227.9438,96.3869 228.5688,95.8088 L228.5688,98.5275 Z " fill="#000000"/><text fill="#000000" font-family="sans-serif" font-size="14" lengthAdjust="spacing" textLength="110" x="242.4" y="97.7336">AttentionCenter</text><line style="stroke:#181818;stroke-width:0.5;" x1="199" x2="367" y1="108.8869" y2="108.8869"/><rect fill="none" height="6" style="stroke:#C82930;stroke-width:1.0;" width="6" x="206" y="119.5353"/><text fill="#000000" font-family="sans-serif" font-size="14" lengthAdjust="spacing" textLength="144" x="218" y="125.882">emptyCashRegisters</text><line style="stroke:#181818;stroke-width:0.5;" x1="199" x2="367" y1="133.1838" y2="133.1838"/></g><!--class CashRegister--><g id="elem_CashRegister"><rect codeLine="17" fill="#F1F1F1" height="129.4844" id="CashRegister" rx="2.5" ry="2.5" style="stroke:#181818;stroke-width:0.5;" width="142" x="403" y="44.2969"/><ellipse cx="425.65" cy="60.2969" fill="#ADD1B2" rx="11" ry="11" style="stroke:#181818;stroke-width:1.0;"/><path d="M428.6188,65.9375 Q428.0406,66.2344 427.4,66.375 Q426.7594,66.5313 426.0563,66.5313 Q423.5563,66.5313 422.2281,64.8906 Q420.9156,63.2344 420.9156,60.1094 Q420.9156,56.9844 422.2281,55.3281 Q423.5563,53.6719 426.0563,53.6719 Q426.7594,53.6719 427.4,53.8281 Q428.0563,53.9844 428.6188,54.2813 L428.6188,57 Q427.9938,56.4219 427.4,56.1563 Q426.8063,55.875 426.1813,55.875 Q424.8375,55.875 424.15,56.9531 Q423.4625,58.0156 423.4625,60.1094 Q423.4625,62.2031 424.15,63.2813 Q424.8375,64.3438 426.1813,64.3438 Q426.8063,64.3438 427.4,64.0781 Q427.9938,63.7969 428.6188,63.2188 L428.6188,65.9375 Z " fill="#000000"/><text fill="#000000" font-family="sans-serif" font-size="14" lengthAdjust="spacing" textLength="93" x="441.35" y="65.1436">CashRegister</text><line style="stroke:#181818;stroke-width:0.5;" x1="404" x2="544" y1="76.2969" y2="76.2969"/><rect fill="none" height="6" style="stroke:#C82930;stroke-width:1.0;" width="6" x="411" y="86.9453"/><text fill="#000000" font-family="sans-serif" font-size="14" lengthAdjust="spacing" textLength="12" x="423" y="93.292">id</text><rect fill="none" height="6" style="stroke:#C82930;stroke-width:1.0;" width="6" x="411" y="103.2422"/><text fill="#000000" font-family="sans-serif" font-size="14" lengthAdjust="spacing" textLength="102" x="423" y="109.5889">currentCashier</text><rect fill="none" height="6" style="stroke:#C82930;stroke-width:1.0;" width="6" x="411" y="119.5391"/><text fill="#000000" font-family="sans-serif" font-size="14" lengthAdjust="spacing" textLength="116" x="423" y="125.8857">timePerItemPack</text><rect fill="none" height="6" style="stroke:#C82930;stroke-width:1.0;" width="6" x="411" y="135.8359"/><text fill="#000000" font-family="sans-serif" font-size="14" lengthAdjust="spacing" textLength="78" x="423" y="142.1826">isOcuppied</text><rect fill="none" height="6" style="stroke:#C82930;stroke-width:1.0;" width="6" x="411" y="152.1328"/><text fill="#000000" font-family="sans-serif" font-size="14" lengthAdjust="spacing" textLength="49" x="423" y="158.4795">isOpen</text><line style="stroke:#181818;stroke-width:0.5;" x1="404" x2="544" y1="165.7813" y2="165.7813"/></g><!--class Customer--><g id="elem_Customer"><rect codeLine="25" fill="#F1F1F1" height="80.5938" id="Customer" rx="2.5" ry="2.5" style="stroke:#181818;stroke-width:0.5;" width="166" x="7" y="258.2269"/><ellipse cx="51.75" cy="274.2269" fill="#ADD1B2" rx="11" ry="11" style="stroke:#181818;stroke-width:1.0;"/><path d="M54.7188,279.8675 Q54.1406,280.1644 53.5,280.305 Q52.8594,280.4613 52.1563,280.4613 Q49.6563,280.4613 48.3281,278.8206 Q47.0156,277.1644 47.0156,274.0394 Q47.0156,270.9144 48.3281,269.2581 Q49.6563,267.6019 52.1563,267.6019 Q52.8594,267.6019 53.5,267.7581 Q54.1563,267.9144 54.7188,268.2113 L54.7188,270.93 Q54.0938,270.3519 53.5,270.0863 Q52.9063,269.805 52.2813,269.805 Q50.9375,269.805 50.25,270.8831 Q49.5625,271.9456 49.5625,274.0394 Q49.5625,276.1331 50.25,277.2113 Q50.9375,278.2738 52.2813,278.2738 Q52.9063,278.2738 53.5,278.0081 Q54.0938,277.7269 54.7188,277.1488 L54.7188,279.8675 Z " fill="#000000"/><text fill="#000000" font-family="sans-serif" font-size="14" lengthAdjust="spacing" textLength="68" x="72.25" y="279.0736">Customer</text><line style="stroke:#181818;stroke-width:0.5;" x1="8" x2="172" y1="290.2269" y2="290.2269"/><rect fill="none" height="6" style="stroke:#C82930;stroke-width:1.0;" width="6" x="15" y="300.8753"/><text fill="#000000" font-family="sans-serif" font-size="14" lengthAdjust="spacing" textLength="12" x="27" y="307.222">id</text><rect fill="none" height="6" style="stroke:#C82930;stroke-width:1.0;" width="6" x="15" y="317.1722"/><text fill="#000000" font-family="sans-serif" font-size="14" lengthAdjust="spacing" textLength="140" x="27" y="323.5189">numberOfItemPacks</text><line style="stroke:#181818;stroke-width:0.5;" x1="8" x2="172" y1="330.8206" y2="330.8206"/></g><!--class Queue--><g id="elem_Queue"><rect codeLine="30" fill="#F1F1F1" height="64.2969" id="Queue" rx="2.5" ry="2.5" style="stroke:#181818;stroke-width:0.5;" width="79" x="208.5" y="266.3769"/><ellipse cx="223.5" cy="282.3769" fill="#ADD1B2" rx="11" ry="11" style="stroke:#181818;stroke-width:1.0;"/><path d="M226.4688,288.0175 Q225.8906,288.3144 225.25,288.455 Q224.6094,288.6113 223.9063,288.6113 Q221.4063,288.6113 220.0781,286.9706 Q218.7656,285.3144 218.7656,282.1894 Q218.7656,279.0644 220.0781,277.4081 Q221.4063,275.7519 223.9063,275.7519 Q224.6094,275.7519 225.25,275.9081 Q225.9063,276.0644 226.4688,276.3613 L226.4688,279.08 Q225.8438,278.5019 225.25,278.2363 Q224.6563,277.955 224.0313,277.955 Q222.6875,277.955 222,279.0331 Q221.3125,280.0956 221.3125,282.1894 Q221.3125,284.2831 222,285.3613 Q222.6875,286.4238 224.0313,286.4238 Q224.6563,286.4238 225.25,286.1581 Q225.8438,285.8769 226.4688,285.2988 L226.4688,288.0175 Z " fill="#000000"/><text fill="#000000" font-family="sans-serif" font-size="14" lengthAdjust="spacing" textLength="47" x="237.5" y="287.2236">Queue</text><line style="stroke:#181818;stroke-width:0.5;" x1="209.5" x2="286.5" y1="298.3769" y2="298.3769"/><rect fill="none" height="6" style="stroke:#C82930;stroke-width:1.0;" width="6" x="216.5" y="309.0253"/><text fill="#000000" font-family="sans-serif" font-size="14" lengthAdjust="spacing" textLength="28" x="228.5" y="315.372">size</text><line style="stroke:#181818;stroke-width:0.5;" x1="209.5" x2="286.5" y1="322.6738" y2="322.6738"/></g><!--class Cashier--><g id="elem_Cashier"><rect codeLine="34" fill="#F1F1F1" height="129.4844" id="Cashier" rx="2.5" ry="2.5" style="stroke:#181818;stroke-width:0.5;" width="99" x="322.5" y="233.7869"/><ellipse cx="344.25" cy="249.7869" fill="#ADD1B2" rx="11" ry="11" style="stroke:#181818;stroke-width:1.0;"/><path d="M347.2188,255.4275 Q346.6406,255.7244 346,255.865 Q345.3594,256.0213 344.6563,256.0213 Q342.1563,256.0213 340.8281,254.3806 Q339.5156,252.7244 339.5156,249.5994 Q339.5156,246.4744 340.8281,244.8181 Q342.1563,243.1619 344.6563,243.1619 Q345.3594,243.1619 346,243.3181 Q346.6563,243.4744 347.2188,243.7713 L347.2188,246.49 Q346.5938,245.9119 346,245.6463 Q345.4063,245.365 344.7813,245.365 Q343.4375,245.365 342.75,246.4431 Q342.0625,247.5056 342.0625,249.5994 Q342.0625,251.6931 342.75,252.7713 Q343.4375,253.8338 344.7813,253.8338 Q345.4063,253.8338 346,253.5681 Q346.5938,253.2869 347.2188,252.7088 L347.2188,255.4275 Z " fill="#000000"/><text fill="#000000" font-family="sans-serif" font-size="14" lengthAdjust="spacing" textLength="52" x="359.75" y="254.6336">Cashier</text><line style="stroke:#181818;stroke-width:0.5;" x1="323.5" x2="420.5" y1="265.7869" y2="265.7869"/><rect fill="none" height="6" style="stroke:#C82930;stroke-width:1.0;" width="6" x="330.5" y="276.4353"/><text fill="#000000" font-family="sans-serif" font-size="14" lengthAdjust="spacing" textLength="12" x="342.5" y="282.782">id</text><rect fill="none" height="6" style="stroke:#C82930;stroke-width:1.0;" width="6" x="330.5" y="292.7322"/><text fill="#000000" font-family="sans-serif" font-size="14" lengthAdjust="spacing" textLength="39" x="342.5" y="299.0789">name</text><rect fill="none" height="6" style="stroke:#C82930;stroke-width:1.0;" width="6" x="330.5" y="309.0291"/><text fill="#000000" font-family="sans-serif" font-size="14" lengthAdjust="spacing" textLength="63" x="342.5" y="315.3757">workShift</text><rect fill="none" height="6" style="stroke:#C82930;stroke-width:1.0;" width="6" x="330.5" y="325.3259"/><text fill="#000000" font-family="sans-serif" font-size="14" lengthAdjust="spacing" textLength="73" x="342.5" y="331.6726">workBreak</text><rect fill="none" height="6" style="stroke:#C82930;stroke-width:1.0;" width="6" x="330.5" y="341.6228"/><text fill="#000000" font-family="sans-serif" font-size="14" lengthAdjust="spacing" textLength="62" x="342.5" y="347.9695">isServing</text><line style="stroke:#181818;stroke-width:0.5;" x1="323.5" x2="420.5" y1="355.2713" y2="355.2713"/></g><!--class DataLog--><g id="elem_DataLog"><rect codeLine="42" fill="#F1F1F1" height="48" id="DataLog" rx="2.5" ry="2.5" style="stroke:#181818;stroke-width:0.5;" width="89" x="45.5" y="423.2669"/><ellipse cx="60.5" cy="439.2669" fill="#ADD1B2" rx="11" ry="11" style="stroke:#181818;stroke-width:1.0;"/><path d="M63.4688,444.9075 Q62.8906,445.2044 62.25,445.345 Q61.6094,445.5013 60.9063,445.5013 Q58.4063,445.5013 57.0781,443.8606 Q55.7656,442.2044 55.7656,439.0794 Q55.7656,435.9544 57.0781,434.2981 Q58.4063,432.6419 60.9063,432.6419 Q61.6094,432.6419 62.25,432.7981 Q62.9063,432.9544 63.4688,433.2513 L63.4688,435.97 Q62.8438,435.3919 62.25,435.1263 Q61.6563,434.845 61.0313,434.845 Q59.6875,434.845 59,435.9231 Q58.3125,436.9856 58.3125,439.0794 Q58.3125,441.1731 59,442.2513 Q59.6875,443.3138 61.0313,443.3138 Q61.6563,443.3138 62.25,443.0481 Q62.8438,442.7669 63.4688,442.1888 L63.4688,444.9075 Z " fill="#000000"/><text fill="#000000" font-family="sans-serif" font-size="14" lengthAdjust="spacing" textLength="57" x="74.5" y="444.1136">DataLog</text><line style="stroke:#181818;stroke-width:0.5;" x1="46.5" x2="133.5" y1="455.2669" y2="455.2669"/><line style="stroke:#181818;stroke-width:0.5;" x1="46.5" x2="133.5" y1="463.2669" y2="463.2669"/></g><!--class Time--><g id="elem_Time"><rect codeLine="46" fill="#F1F1F1" height="48" id="Time" rx="2.5" ry="2.5" style="stroke:#181818;stroke-width:0.5;" width="66" x="170" y="423.2669"/><ellipse cx="185" cy="439.2669" fill="#ADD1B2" rx="11" ry="11" style="stroke:#181818;stroke-width:1.0;"/><path d="M187.9688,444.9075 Q187.3906,445.2044 186.75,445.345 Q186.1094,445.5013 185.4063,445.5013 Q182.9063,445.5013 181.5781,443.8606 Q180.2656,442.2044 180.2656,439.0794 Q180.2656,435.9544 181.5781,434.2981 Q182.9063,432.6419 185.4063,432.6419 Q186.1094,432.6419 186.75,432.7981 Q187.4063,432.9544 187.9688,433.2513 L187.9688,435.97 Q187.3438,435.3919 186.75,435.1263 Q186.1563,434.845 185.5313,434.845 Q184.1875,434.845 183.5,435.9231 Q182.8125,436.9856 182.8125,439.0794 Q182.8125,441.1731 183.5,442.2513 Q184.1875,443.3138 185.5313,443.3138 Q186.1563,443.3138 186.75,443.0481 Q187.3438,442.7669 187.9688,442.1888 L187.9688,444.9075 Z " fill="#000000"/><text fill="#000000" font-family="sans-serif" font-size="14" lengthAdjust="spacing" textLength="34" x="199" y="444.1136">Time</text><line style="stroke:#181818;stroke-width:0.5;" x1="171" x2="235" y1="455.2669" y2="455.2669"/><line style="stroke:#181818;stroke-width:0.5;" x1="171" x2="235" y1="463.2669" y2="463.2669"/></g><!--SRC=[TP1lJiCm3CM_vnIvm0u1cH18I2kK2xYTrrfDayXnXigqkvEo_fiqyYb-iT_xER4Z5u2XrvOSoX1G1s-7iL1AI2ngOo56lITenhQTDiQyA5N_gMNhGo3N67I2h2zAvxFJFg3BwgjFF2crzV5U4UfnkW8pdS4Mx2keo98CqmF5GtPIrpdkIIG7aNUtl3aE-o23WTX-OaCnFyHrP2ilV7ISiH9pjXgR2BTa1VARO5z0tQqiTShBul4VE9EY-FvHYajzXNmupOuRl8-42PU9I3zuZquF_M3vkc_FNTdIIJRrCoEir2NoEV_yQhi7WNVVNDGgVUMDRodg-Wi0]--></g></svg>