<?xml version="1.0" encoding="us-ascii" standalone="no"?><svg xmlns="http://www.w3.org/2000/svg" xmlns:xlink="http://www.w3.org/1999/xlink" contentStyleType="text/css" height="711px" preserveAspectRatio="none" style="width:448px;height:711px;background:#FFFFFF;" version="1.1" viewBox="0 0 448 711" width="448px" zoomAndPan="magnify"><defs/><g><!--class ShoppingCenter--><g id="elem_ShoppingCenter"><rect codeLine="1" fill="#F1F1F1" height="129.4844" id="ShoppingCenter" rx="2.5" ry="2.5" style="stroke:#181818;stroke-width:0.5;" width="151" x="86.648" y="7"/><ellipse cx="101.648" cy="23" fill="#ADD1B2" rx="11" ry="11" style="stroke:#181818;stroke-width:1.0;"/><path d="M103.9918,18.6719 C103.0543,18.2344 102.4605,18.0938 101.5855,18.0938 C98.9605,18.0938 96.9605,20.1719 96.9605,22.8906 L96.9605,24.0156 C96.9605,26.5938 99.0699,28.4844 101.9605,28.4844 C103.1793,28.4844 104.3355,28.1875 105.0855,27.6406 C105.6636,27.2344 105.9918,26.7813 105.9918,26.3906 C105.9918,25.9375 105.6011,25.5469 105.1324,25.5469 C104.9136,25.5469 104.7105,25.625 104.523,25.8125 C104.0699,26.2969 104.0699,26.2969 103.8824,26.3906 C103.4605,26.6563 102.773,26.7813 102.0074,26.7813 C99.9605,26.7813 98.6636,25.6875 98.6636,23.9844 L98.6636,22.8906 C98.6636,21.1094 99.9136,19.7969 101.648,19.7969 C102.2261,19.7969 102.8355,19.9531 103.3043,20.2031 C103.7886,20.4844 103.9605,20.7031 104.0543,21.1094 C104.1168,21.5156 104.148,21.6406 104.2886,21.7656 C104.4293,21.9063 104.6636,22.0156 104.8824,22.0156 C105.148,22.0156 105.4136,21.875 105.5855,21.6563 C105.6949,21.5 105.7261,21.3125 105.7261,20.8906 L105.7261,19.4688 C105.7261,19.0313 105.7105,18.9063 105.6168,18.75 C105.4605,18.4844 105.1793,18.3438 104.8824,18.3438 C104.5855,18.3438 104.3824,18.4375 104.1636,18.75 L103.9918,18.6719 Z " fill="#000000"/><text fill="#000000" font-family="sans-serif" font-size="14" lengthAdjust="spacing" textLength="119" x="115.648" y="27.8467">ShoppingCenter</text><line style="stroke:#181818;stroke-width:0.5;" x1="87.648" x2="236.648" y1="39" y2="39"/><rect fill="none" height="6" style="stroke:#C82930;stroke-width:1.0;" width="6" x="94.648" y="49.6484"/><text fill="#000000" font-family="sans-serif" font-size="14" lengthAdjust="spacing" textLength="92" x="106.648" y="55.9951">openingHour</text><rect fill="none" height="6" style="stroke:#C82930;stroke-width:1.0;" width="6" x="94.648" y="65.9453"/><text fill="#000000" font-family="sans-serif" font-size="14" lengthAdjust="spacing" textLength="83" x="106.648" y="72.292">closingHour</text><rect fill="none" height="6" style="stroke:#C82930;stroke-width:1.0;" width="6" x="94.648" y="82.2422"/><text fill="#000000" font-family="sans-serif" font-size="14" lengthAdjust="spacing" textLength="34" x="106.648" y="88.5889">time</text><rect fill="none" height="6" style="stroke:#C82930;stroke-width:1.0;" width="6" x="94.648" y="98.5391"/><text fill="#000000" font-family="sans-serif" font-size="14" lengthAdjust="spacing" textLength="123" x="106.648" y="104.8857">arrivalProbability</text><rect fill="none" height="6" style="stroke:#C82930;stroke-width:1.0;" width="6" x="94.648" y="114.8359"/><text fill="#000000" font-family="sans-serif" font-size="14" lengthAdjust="spacing" textLength="50" x="106.648" y="121.1826">isOpen</text><line style="stroke:#181818;stroke-width:0.5;" x1="87.648" x2="236.648" y1="128.4844" y2="128.4844"/></g><!--class CashRegister--><g id="elem_CashRegister"><rect codeLine="9" fill="#F1F1F1" height="96.8906" id="CashRegister" rx="2.5" ry="2.5" style="stroke:#181818;stroke-width:0.5;" width="152" x="40.148" y="608"/><ellipse cx="66.398" cy="624" fill="#ADD1B2" rx="11" ry="11" style="stroke:#181818;stroke-width:1.0;"/><path d="M68.7418,619.6719 C67.8043,619.2344 67.2105,619.0938 66.3355,619.0938 C63.7105,619.0938 61.7105,621.1719 61.7105,623.8906 L61.7105,625.0156 C61.7105,627.5938 63.8199,629.4844 66.7105,629.4844 C67.9293,629.4844 69.0855,629.1875 69.8355,628.6406 C70.4136,628.2344 70.7418,627.7813 70.7418,627.3906 C70.7418,626.9375 70.3511,626.5469 69.8824,626.5469 C69.6636,626.5469 69.4605,626.625 69.273,626.8125 C68.8199,627.2969 68.8199,627.2969 68.6324,627.3906 C68.2105,627.6563 67.523,627.7813 66.7574,627.7813 C64.7105,627.7813 63.4136,626.6875 63.4136,624.9844 L63.4136,623.8906 C63.4136,622.1094 64.6636,620.7969 66.398,620.7969 C66.9761,620.7969 67.5855,620.9531 68.0543,621.2031 C68.5386,621.4844 68.7105,621.7031 68.8043,622.1094 C68.8668,622.5156 68.898,622.6406 69.0386,622.7656 C69.1793,622.9063 69.4136,623.0156 69.6324,623.0156 C69.898,623.0156 70.1636,622.875 70.3355,622.6563 C70.4449,622.5 70.4761,622.3125 70.4761,621.8906 L70.4761,620.4688 C70.4761,620.0313 70.4605,619.9063 70.3668,619.75 C70.2105,619.4844 69.9293,619.3438 69.6324,619.3438 C69.3355,619.3438 69.1324,619.4375 68.9136,619.75 L68.7418,619.6719 Z " fill="#000000"/><text fill="#000000" font-family="sans-serif" font-size="14" lengthAdjust="spacing" textLength="95" x="82.898" y="628.8467">CashRegister</text><line style="stroke:#181818;stroke-width:0.5;" x1="41.148" x2="191.148" y1="640" y2="640"/><rect fill="none" height="6" style="stroke:#C82930;stroke-width:1.0;" width="6" x="48.148" y="650.6484"/><text fill="#000000" font-family="sans-serif" font-size="14" lengthAdjust="spacing" textLength="13" x="60.148" y="656.9951">id</text><rect fill="none" height="6" style="stroke:#C82930;stroke-width:1.0;" width="6" x="48.148" y="666.9453"/><text fill="#000000" font-family="sans-serif" font-size="14" lengthAdjust="spacing" textLength="113" x="60.148" y="673.292">customerQueue</text><rect fill="none" height="6" style="stroke:#C82930;stroke-width:1.0;" width="6" x="48.148" y="683.2422"/><text fill="#000000" font-family="sans-serif" font-size="14" lengthAdjust="spacing" textLength="126" x="60.148" y="689.5889">timePerItemPack</text><line style="stroke:#181818;stroke-width:0.5;" x1="41.148" x2="191.148" y1="696.8906" y2="696.8906"/></g><!--class Customer--><g id="elem_Customer"><rect codeLine="15" fill="#F1F1F1" height="80.5938" id="Customer" rx="2.5" ry="2.5" style="stroke:#181818;stroke-width:0.5;" width="174" x="75.148" y="213"/><ellipse cx="122.898" cy="229" fill="#ADD1B2" rx="11" ry="11" style="stroke:#181818;stroke-width:1.0;"/><path d="M125.2418,224.6719 C124.3043,224.2344 123.7105,224.0938 122.8355,224.0938 C120.2105,224.0938 118.2105,226.1719 118.2105,228.8906 L118.2105,230.0156 C118.2105,232.5938 120.3199,234.4844 123.2105,234.4844 C124.4293,234.4844 125.5855,234.1875 126.3355,233.6406 C126.9136,233.2344 127.2418,232.7813 127.2418,232.3906 C127.2418,231.9375 126.8511,231.5469 126.3824,231.5469 C126.1636,231.5469 125.9605,231.625 125.773,231.8125 C125.3199,232.2969 125.3199,232.2969 125.1324,232.3906 C124.7105,232.6563 124.023,232.7813 123.2574,232.7813 C121.2105,232.7813 119.9136,231.6875 119.9136,229.9844 L119.9136,228.8906 C119.9136,227.1094 121.1636,225.7969 122.898,225.7969 C123.4761,225.7969 124.0855,225.9531 124.5543,226.2031 C125.0386,226.4844 125.2105,226.7031 125.3043,227.1094 C125.3668,227.5156 125.398,227.6406 125.5386,227.7656 C125.6793,227.9063 125.9136,228.0156 126.1324,228.0156 C126.398,228.0156 126.6636,227.875 126.8355,227.6563 C126.9449,227.5 126.9761,227.3125 126.9761,226.8906 L126.9761,225.4688 C126.9761,225.0313 126.9605,224.9063 126.8668,224.75 C126.7105,224.4844 126.4293,224.3438 126.1324,224.3438 C125.8355,224.3438 125.6324,224.4375 125.4136,224.75 L125.2418,224.6719 Z " fill="#000000"/><text fill="#000000" font-family="sans-serif" font-size="14" lengthAdjust="spacing" textLength="70" x="143.398" y="233.8467">Customer</text><line style="stroke:#181818;stroke-width:0.5;" x1="76.148" x2="248.148" y1="245" y2="245"/><rect fill="none" height="6" style="stroke:#C82930;stroke-width:1.0;" width="6" x="83.148" y="255.6484"/><text fill="#000000" font-family="sans-serif" font-size="14" lengthAdjust="spacing" textLength="13" x="95.148" y="261.9951">id</text><rect fill="none" height="6" style="stroke:#C82930;stroke-width:1.0;" width="6" x="83.148" y="271.9453"/><text fill="#000000" font-family="sans-serif" font-size="14" lengthAdjust="spacing" textLength="148" x="95.148" y="278.292">numberOfItemPacks</text><line style="stroke:#181818;stroke-width:0.5;" x1="76.148" x2="248.148" y1="285.5938" y2="285.5938"/></g><!--class Queue--><g id="elem_Queue"><rect codeLine="20" fill="#F1F1F1" height="64.2969" id="Queue" rx="2.5" ry="2.5" style="stroke:#181818;stroke-width:0.5;" width="176" x="166.1477" y="467"/><ellipse cx="227.3977" cy="483" fill="#ADD1B2" rx="11" ry="11" style="stroke:#181818;stroke-width:1.0;"/><path d="M229.7415,478.6719 C228.804,478.2344 228.2102,478.0938 227.3352,478.0938 C224.7102,478.0938 222.7102,480.1719 222.7102,482.8906 L222.7102,484.0156 C222.7102,486.5938 224.8196,488.4844 227.7102,488.4844 C228.929,488.4844 230.0852,488.1875 230.8352,487.6406 C231.4133,487.2344 231.7415,486.7813 231.7415,486.3906 C231.7415,485.9375 231.3508,485.5469 230.8821,485.5469 C230.6633,485.5469 230.4602,485.625 230.2727,485.8125 C229.8196,486.2969 229.8196,486.2969 229.6321,486.3906 C229.2102,486.6563 228.5227,486.7813 227.7571,486.7813 C225.7102,486.7813 224.4133,485.6875 224.4133,483.9844 L224.4133,482.8906 C224.4133,481.1094 225.6633,479.7969 227.3977,479.7969 C227.9758,479.7969 228.5852,479.9531 229.054,480.2031 C229.5383,480.4844 229.7102,480.7031 229.804,481.1094 C229.8665,481.5156 229.8977,481.6406 230.0383,481.7656 C230.179,481.9063 230.4133,482.0156 230.6321,482.0156 C230.8977,482.0156 231.1633,481.875 231.3352,481.6563 C231.4446,481.5 231.4758,481.3125 231.4758,480.8906 L231.4758,479.4688 C231.4758,479.0313 231.4602,478.9063 231.3665,478.75 C231.2102,478.4844 230.929,478.3438 230.6321,478.3438 C230.3352,478.3438 230.1321,478.4375 229.9133,478.75 L229.7415,478.6719 Z " fill="#000000"/><text fill="#000000" font-family="sans-serif" font-size="14" lengthAdjust="spacing" textLength="45" x="247.8977" y="487.8467">Queue</text><line style="stroke:#181818;stroke-width:0.5;" x1="167.1477" x2="341.1477" y1="499" y2="499"/><rect fill="none" height="6" style="stroke:#C82930;stroke-width:1.0;" width="6" x="174.1477" y="509.6484"/><text fill="#000000" font-family="sans-serif" font-size="14" lengthAdjust="spacing" textLength="150" x="186.1477" y="515.9951">numberOfCustomers</text><line style="stroke:#181818;stroke-width:0.5;" x1="167.1477" x2="341.1477" y1="523.2969" y2="523.2969"/></g><!--class Cashier--><g id="elem_Cashier"><rect codeLine="24" fill="#F1F1F1" height="113.1875" id="Cashier" rx="2.5" ry="2.5" style="stroke:#181818;stroke-width:0.5;" width="96" x="312.1477" y="324"/><ellipse cx="332.0977" cy="340" fill="#ADD1B2" rx="11" ry="11" style="stroke:#181818;stroke-width:1.0;"/><path d="M334.4415,335.6719 C333.504,335.2344 332.9102,335.0938 332.0352,335.0938 C329.4102,335.0938 327.4102,337.1719 327.4102,339.8906 L327.4102,341.0156 C327.4102,343.5938 329.5196,345.4844 332.4102,345.4844 C333.629,345.4844 334.7852,345.1875 335.5352,344.6406 C336.1133,344.2344 336.4415,343.7813 336.4415,343.3906 C336.4415,342.9375 336.0508,342.5469 335.5821,342.5469 C335.3633,342.5469 335.1602,342.625 334.9727,342.8125 C334.5196,343.2969 334.5196,343.2969 334.3321,343.3906 C333.9102,343.6563 333.2227,343.7813 332.4571,343.7813 C330.4102,343.7813 329.1133,342.6875 329.1133,340.9844 L329.1133,339.8906 C329.1133,338.1094 330.3633,336.7969 332.0977,336.7969 C332.6758,336.7969 333.2852,336.9531 333.754,337.2031 C334.2383,337.4844 334.4102,337.7031 334.504,338.1094 C334.5665,338.5156 334.5977,338.6406 334.7383,338.7656 C334.879,338.9063 335.1133,339.0156 335.3321,339.0156 C335.5977,339.0156 335.8633,338.875 336.0352,338.6563 C336.1446,338.5 336.1758,338.3125 336.1758,337.8906 L336.1758,336.4688 C336.1758,336.0313 336.1602,335.9063 336.0665,335.75 C335.9102,335.4844 335.629,335.3438 335.3321,335.3438 C335.0352,335.3438 334.8321,335.4375 334.6133,335.75 L334.4415,335.6719 Z " fill="#000000"/><text fill="#000000" font-family="sans-serif" font-size="14" lengthAdjust="spacing" textLength="53" x="347.1977" y="344.8467">Cashier</text><line style="stroke:#181818;stroke-width:0.5;" x1="313.1477" x2="407.1477" y1="356" y2="356"/><rect fill="none" height="6" style="stroke:#C82930;stroke-width:1.0;" width="6" x="320.1477" y="366.6484"/><text fill="#000000" font-family="sans-serif" font-size="14" lengthAdjust="spacing" textLength="13" x="332.1477" y="372.9951">id</text><rect fill="none" height="6" style="stroke:#C82930;stroke-width:1.0;" width="6" x="320.1477" y="382.9453"/><text fill="#000000" font-family="sans-serif" font-size="14" lengthAdjust="spacing" textLength="40" x="332.1477" y="389.292">name</text><rect fill="none" height="6" style="stroke:#C82930;stroke-width:1.0;" width="6" x="320.1477" y="399.2422"/><text fill="#000000" font-family="sans-serif" font-size="14" lengthAdjust="spacing" textLength="70" x="332.1477" y="405.5889">workShift</text><rect fill="none" height="6" style="stroke:#C82930;stroke-width:1.0;" width="6" x="320.1477" y="415.5391"/><text fill="#000000" font-family="sans-serif" font-size="14" lengthAdjust="spacing" textLength="29" x="332.1477" y="421.8857">rest</text><line style="stroke:#181818;stroke-width:0.5;" x1="313.1477" x2="407.1477" y1="429.1875" y2="429.1875"/></g><!--link ShoppingCenter to CashRegister--><g id="link_ShoppingCenter_CashRegister"><path codeLine="32" d="M103.0433,136.257 C85.3188,158.9 67.782,185.606 57.148,213 C6,344.76 35.0186,391.912 60.148,531 C63.945,552.016 62.3724,558.109 70.148,578 C74.0786,588.055 79.2322,598.32 84.6639,607.9511 " fill="none" id="ShoppingCenter-CashRegister" style="stroke:#181818;stroke-width:1.0;"/><text fill="#000000" font-family="sans-serif" font-size="13" lengthAdjust="spacing" textLength="23" x="42.148" y="385.0669">has</text></g><!--link ShoppingCenter to Customer--><g id="link_ShoppingCenter_Customer"><path codeLine="33" d="M162.1477,136.215 C162.1477,161.801 162.1477,190.495 162.1477,212.978 " fill="none" id="ShoppingCenter-Customer" style="stroke:#181818;stroke-width:1.0;"/><text fill="#000000" font-family="sans-serif" font-size="13" lengthAdjust="spacing" textLength="54" x="163.1477" y="179.0669">receives</text></g><!--link ShoppingCenter to Cashier--><g id="link_ShoppingCenter_Cashier"><path codeLine="34" d="M212.6007,136.273 C230.5317,159.888 250.4067,187.2 267.1477,213 C290.3967,248.83 313.8307,290.828 331.3587,323.68 " fill="none" id="ShoppingCenter-Cashier" style="stroke:#181818;stroke-width:1.0;"/><text fill="#000000" font-family="sans-serif" font-size="13" lengthAdjust="spacing" textLength="23" x="246.1477" y="179.0669">has</text></g><!--link Cashier to CashRegister--><g id="link_Cashier_CashRegister"><path codeLine="36" d="M374.5817,437.077 C382.3127,480.687 384.3897,540.154 351.1477,578 C311.3157,623.3494 244.4207,642.2647 192.1667,650.1017 " fill="none" id="Cashier-CashRegister" style="stroke:#181818;stroke-width:1.0;"/><text fill="#000000" font-family="sans-serif" font-size="13" lengthAdjust="spacing" textLength="60" x="380.1477" y="503.5669">serves at</text></g><!--link Customer to Queue--><g id="link_Customer_Queue"><path codeLine="38" d="M177.1337,294.164 C195.3627,342.41 225.7517,422.843 242.3847,466.865 " fill="none" id="Customer-Queue" style="stroke:#181818;stroke-width:1.0;"/><text fill="#000000" font-family="sans-serif" font-size="13" lengthAdjust="spacing" textLength="49" x="230.1477" y="385.0669">waits in</text></g><!--link Queue to CashRegister--><g id="link_Queue_CashRegister"><path codeLine="40" d="M226.5537,531.094 C207.0467,553.074 180.5337,582.949 158.3787,607.9139 " fill="none" id="Queue-CashRegister" style="stroke:#181818;stroke-width:1.0;"/><text fill="#000000" font-family="sans-serif" font-size="13" lengthAdjust="spacing" textLength="144" x="198.1477" y="574.0669">delivers a customer to</text></g><!--link Customer to CashRegister--><g id="link_Customer_CashRegister"><path codeLine="41" d="M139.4257,294.035 C116.9791,335.553 84.1709,403.507 71.148,467 C61.278,515.12 77.3025,569.664 92.8959,607.6534 " fill="none" id="Customer-CashRegister" style="stroke:#181818;stroke-width:1.0;"/><text fill="#000000" font-family="sans-serif" font-size="13" lengthAdjust="spacing" textLength="75" x="72.148" y="503.5669">is served at</text></g><!--SRC=[TP51SiCW34Ntd88B-0BUPjEkuZOdm5Y9DS7WaKGodKxlNkg0Q-hKAop-VryIrXbcVHh3FAE_7C0BaFvKEdsD3ZFuL7q9aNB5ki1rHN22V3H4U3Ekez2R7XtAHxv0FYQI-bBABd47m-CxN92tOJYKZCWI9g2t214sAHtGgy3K6NlTeB9uZ_5nwe6Ev-BXNzD2NXr5M51SDufFuMQT-XxeUXhnBFcVWEM7eFuijMcgkLiz6dwcoLsq2MG1Ry3_WB0mLEboby10oQ-D94tPKn8juxVwRb1OerVgiO-TVG2NyYa1rZVH4YfKRK1-H0ufyXi0]--></g></svg>