<?xml version="1.0" encoding="us-ascii" standalone="no"?><svg xmlns="http://www.w3.org/2000/svg" xmlns:xlink="http://www.w3.org/1999/xlink" contentStyleType="text/css" height="1036px" preserveAspectRatio="none" style="width:1099px;height:1036px;background:#FFFFFF;" version="1.1" viewBox="0 0 1099 1036" width="1099px" zoomAndPan="magnify"><defs/><g><!--cluster Vistas--><g id="cluster_Vistas"><path d="M726.5,6 L779.5,6 A3.75,3.75 0 0 1 782,8.5 L789,28.2969 L893.5,28.2969 A2.5,2.5 0 0 1 896,30.7969 L896,102.5 A2.5,2.5 0 0 1 893.5,105 L726.5,105 A2.5,2.5 0 0 1 724,102.5 L724,8.5 A2.5,2.5 0 0 1 726.5,6 " fill="none" style="stroke:#000000;stroke-width:1.5;"/><line style="stroke:#000000;stroke-width:1.5;" x1="724" x2="789" y1="28.2969" y2="28.2969"/><text fill="#000000" font-family="sans-serif" font-size="14" font-weight="bold" lengthAdjust="spacing" textLength="52" x="728" y="20.9951">Vistas</text></g><!--cluster Controladores--><g id="cluster_Controladores"><path d="M8.5,6 L124.5,6 A3.75,3.75 0 0 1 127,8.5 L134,28.2969 L692.5,28.2969 A2.5,2.5 0 0 1 695,30.7969 L695,390.5 A2.5,2.5 0 0 1 692.5,393 L8.5,393 A2.5,2.5 0 0 1 6,390.5 L6,8.5 A2.5,2.5 0 0 1 8.5,6 " fill="none" style="stroke:#000000;stroke-width:1.5;"/><line style="stroke:#000000;stroke-width:1.5;" x1="6" x2="134" y1="28.2969" y2="28.2969"/><text fill="#000000" font-family="sans-serif" font-size="14" font-weight="bold" lengthAdjust="spacing" textLength="115" x="10" y="20.9951">Controladores</text></g><!--cluster Models--><g id="cluster_Models"><path d="M721.5,129 L779.5,129 A3.75,3.75 0 0 1 782,131.5 L789,151.2969 L947.5,151.2969 A2.5,2.5 0 0 1 950,153.7969 L950,1026.5 A2.5,2.5 0 0 1 947.5,1029 L721.5,1029 A2.5,2.5 0 0 1 719,1026.5 L719,131.5 A2.5,2.5 0 0 1 721.5,129 " fill="none" style="stroke:#000000;stroke-width:1.5;"/><line style="stroke:#000000;stroke-width:1.5;" x1="719" x2="789" y1="151.2969" y2="151.2969"/><text fill="#000000" font-family="sans-serif" font-size="14" font-weight="bold" lengthAdjust="spacing" textLength="57" x="723" y="143.9951">Models</text></g><!--cluster Utils--><g id="cluster_Utils"><path d="M345.5,675 L384.5,675 A3.75,3.75 0 0 1 387,677.5 L394,697.2969 L692.5,697.2969 A2.5,2.5 0 0 1 695,699.7969 L695,918.5 A2.5,2.5 0 0 1 692.5,921 L345.5,921 A2.5,2.5 0 0 1 343,918.5 L343,677.5 A2.5,2.5 0 0 1 345.5,675 " fill="none" style="stroke:#000000;stroke-width:1.5;"/><line style="stroke:#000000;stroke-width:1.5;" x1="343" x2="394" y1="697.2969" y2="697.2969"/><text fill="#000000" font-family="sans-serif" font-size="14" font-weight="bold" lengthAdjust="spacing" textLength="38" x="347" y="689.9951">Utils</text></g><!--class VistaDelMundo--><g id="elem_VistaDelMundo"><rect codeLine="2" fill="#F1F1F1" height="48" id="VistaDelMundo" rx="2.5" ry="2.5" style="stroke:#181818;stroke-width:0.5;" width="139" x="740.5" y="41"/><ellipse cx="755.5" cy="57" fill="#ADD1B2" rx="11" ry="11" style="stroke:#181818;stroke-width:1.0;"/><path d="M757.8438,52.6719 C756.9063,52.2344 756.3125,52.0938 755.4375,52.0938 C752.8125,52.0938 750.8125,54.1719 750.8125,56.8906 L750.8125,58.0156 C750.8125,60.5938 752.9219,62.4844 755.8125,62.4844 C757.0313,62.4844 758.1875,62.1875 758.9375,61.6406 C759.5156,61.2344 759.8438,60.7813 759.8438,60.3906 C759.8438,59.9375 759.4531,59.5469 758.9844,59.5469 C758.7656,59.5469 758.5625,59.625 758.375,59.8125 C757.9219,60.2969 757.9219,60.2969 757.7344,60.3906 C757.3125,60.6563 756.625,60.7813 755.8594,60.7813 C753.8125,60.7813 752.5156,59.6875 752.5156,57.9844 L752.5156,56.8906 C752.5156,55.1094 753.7656,53.7969 755.5,53.7969 C756.0781,53.7969 756.6875,53.9531 757.1563,54.2031 C757.6406,54.4844 757.8125,54.7031 757.9063,55.1094 C757.9688,55.5156 758,55.6406 758.1406,55.7656 C758.2813,55.9063 758.5156,56.0156 758.7344,56.0156 C759,56.0156 759.2656,55.875 759.4375,55.6563 C759.5469,55.5 759.5781,55.3125 759.5781,54.8906 L759.5781,53.4688 C759.5781,53.0313 759.5625,52.9063 759.4688,52.75 C759.3125,52.4844 759.0313,52.3438 758.7344,52.3438 C758.4375,52.3438 758.2344,52.4375 758.0156,52.75 L757.8438,52.6719 Z " fill="#000000"/><text fill="#000000" font-family="sans-serif" font-size="14" lengthAdjust="spacing" textLength="107" x="769.5" y="61.8467">VistaDelMundo</text><line style="stroke:#181818;stroke-width:0.5;" x1="741.5" x2="878.5" y1="73" y2="73"/><line style="stroke:#181818;stroke-width:0.5;" x1="741.5" x2="878.5" y1="81" y2="81"/></g><!--class controladorDePersonajes--><g id="elem_controladorDePersonajes"><rect codeLine="7" fill="#F1F1F1" height="48" id="controladorDePersonajes" rx="2.5" ry="2.5" style="stroke:#181818;stroke-width:0.5;" width="213" x="248.5" y="41"/><ellipse cx="263.5" cy="57" fill="#ADD1B2" rx="11" ry="11" style="stroke:#181818;stroke-width:1.0;"/><path d="M265.8438,52.6719 C264.9063,52.2344 264.3125,52.0938 263.4375,52.0938 C260.8125,52.0938 258.8125,54.1719 258.8125,56.8906 L258.8125,58.0156 C258.8125,60.5938 260.9219,62.4844 263.8125,62.4844 C265.0313,62.4844 266.1875,62.1875 266.9375,61.6406 C267.5156,61.2344 267.8438,60.7813 267.8438,60.3906 C267.8438,59.9375 267.4531,59.5469 266.9844,59.5469 C266.7656,59.5469 266.5625,59.625 266.375,59.8125 C265.9219,60.2969 265.9219,60.2969 265.7344,60.3906 C265.3125,60.6563 264.625,60.7813 263.8594,60.7813 C261.8125,60.7813 260.5156,59.6875 260.5156,57.9844 L260.5156,56.8906 C260.5156,55.1094 261.7656,53.7969 263.5,53.7969 C264.0781,53.7969 264.6875,53.9531 265.1563,54.2031 C265.6406,54.4844 265.8125,54.7031 265.9063,55.1094 C265.9688,55.5156 266,55.6406 266.1406,55.7656 C266.2813,55.9063 266.5156,56.0156 266.7344,56.0156 C267,56.0156 267.2656,55.875 267.4375,55.6563 C267.5469,55.5 267.5781,55.3125 267.5781,54.8906 L267.5781,53.4688 C267.5781,53.0313 267.5625,52.9063 267.4688,52.75 C267.3125,52.4844 267.0313,52.3438 266.7344,52.3438 C266.4375,52.3438 266.2344,52.4375 266.0156,52.75 L265.8438,52.6719 Z " fill="#000000"/><text fill="#000000" font-family="sans-serif" font-size="14" lengthAdjust="spacing" textLength="181" x="277.5" y="61.8467">controladorDePersonajes</text><line style="stroke:#181818;stroke-width:0.5;" x1="249.5" x2="460.5" y1="73" y2="73"/><line style="stroke:#181818;stroke-width:0.5;" x1="249.5" x2="460.5" y1="81" y2="81"/></g><!--class controladorDeMovimiento--><g id="elem_controladorDeMovimiento"><rect codeLine="10" fill="#F1F1F1" height="48" id="controladorDeMovimiento" rx="2.5" ry="2.5" style="stroke:#181818;stroke-width:0.5;" width="221" x="244.5" y="188.5"/><ellipse cx="259.5" cy="204.5" fill="#ADD1B2" rx="11" ry="11" style="stroke:#181818;stroke-width:1.0;"/><path d="M261.8438,200.1719 C260.9063,199.7344 260.3125,199.5938 259.4375,199.5938 C256.8125,199.5938 254.8125,201.6719 254.8125,204.3906 L254.8125,205.5156 C254.8125,208.0938 256.9219,209.9844 259.8125,209.9844 C261.0313,209.9844 262.1875,209.6875 262.9375,209.1406 C263.5156,208.7344 263.8438,208.2813 263.8438,207.8906 C263.8438,207.4375 263.4531,207.0469 262.9844,207.0469 C262.7656,207.0469 262.5625,207.125 262.375,207.3125 C261.9219,207.7969 261.9219,207.7969 261.7344,207.8906 C261.3125,208.1563 260.625,208.2813 259.8594,208.2813 C257.8125,208.2813 256.5156,207.1875 256.5156,205.4844 L256.5156,204.3906 C256.5156,202.6094 257.7656,201.2969 259.5,201.2969 C260.0781,201.2969 260.6875,201.4531 261.1563,201.7031 C261.6406,201.9844 261.8125,202.2031 261.9063,202.6094 C261.9688,203.0156 262,203.1406 262.1406,203.2656 C262.2813,203.4063 262.5156,203.5156 262.7344,203.5156 C263,203.5156 263.2656,203.375 263.4375,203.1563 C263.5469,203 263.5781,202.8125 263.5781,202.3906 L263.5781,200.9688 C263.5781,200.5313 263.5625,200.4063 263.4688,200.25 C263.3125,199.9844 263.0313,199.8438 262.7344,199.8438 C262.4375,199.8438 262.2344,199.9375 262.0156,200.25 L261.8438,200.1719 Z " fill="#000000"/><text fill="#000000" font-family="sans-serif" font-size="14" lengthAdjust="spacing" textLength="189" x="273.5" y="209.3467">controladorDeMovimiento</text><line style="stroke:#181818;stroke-width:0.5;" x1="245.5" x2="464.5" y1="220.5" y2="220.5"/><line style="stroke:#181818;stroke-width:0.5;" x1="245.5" x2="464.5" y1="228.5" y2="228.5"/></g><!--class controladorDeInput--><g id="elem_controladorDeInput"><rect codeLine="13" fill="#F1F1F1" height="48" id="controladorDeInput" rx="2.5" ry="2.5" style="stroke:#181818;stroke-width:0.5;" width="174" x="106" y="329"/><ellipse cx="121" cy="345" fill="#ADD1B2" rx="11" ry="11" style="stroke:#181818;stroke-width:1.0;"/><path d="M123.3438,340.6719 C122.4063,340.2344 121.8125,340.0938 120.9375,340.0938 C118.3125,340.0938 116.3125,342.1719 116.3125,344.8906 L116.3125,346.0156 C116.3125,348.5938 118.4219,350.4844 121.3125,350.4844 C122.5313,350.4844 123.6875,350.1875 124.4375,349.6406 C125.0156,349.2344 125.3438,348.7813 125.3438,348.3906 C125.3438,347.9375 124.9531,347.5469 124.4844,347.5469 C124.2656,347.5469 124.0625,347.625 123.875,347.8125 C123.4219,348.2969 123.4219,348.2969 123.2344,348.3906 C122.8125,348.6563 122.125,348.7813 121.3594,348.7813 C119.3125,348.7813 118.0156,347.6875 118.0156,345.9844 L118.0156,344.8906 C118.0156,343.1094 119.2656,341.7969 121,341.7969 C121.5781,341.7969 122.1875,341.9531 122.6563,342.2031 C123.1406,342.4844 123.3125,342.7031 123.4063,343.1094 C123.4688,343.5156 123.5,343.6406 123.6406,343.7656 C123.7813,343.9063 124.0156,344.0156 124.2344,344.0156 C124.5,344.0156 124.7656,343.875 124.9375,343.6563 C125.0469,343.5 125.0781,343.3125 125.0781,342.8906 L125.0781,341.4688 C125.0781,341.0313 125.0625,340.9063 124.9688,340.75 C124.8125,340.4844 124.5313,340.3438 124.2344,340.3438 C123.9375,340.3438 123.7344,340.4375 123.5156,340.75 L123.3438,340.6719 Z " fill="#000000"/><text fill="#000000" font-family="sans-serif" font-size="14" lengthAdjust="spacing" textLength="142" x="135" y="349.8467">controladorDeInput</text><line style="stroke:#181818;stroke-width:0.5;" x1="107" x2="279" y1="361" y2="361"/><line style="stroke:#181818;stroke-width:0.5;" x1="107" x2="279" y1="369" y2="369"/></g><!--class controladorDeMovimientoRandom--><g id="elem_controladorDeMovimientoRandom"><rect codeLine="16" fill="#F1F1F1" height="48" id="controladorDeMovimientoRandom" rx="2.5" ry="2.5" style="stroke:#181818;stroke-width:0.5;" width="280" x="315" y="329"/><ellipse cx="330" cy="345" fill="#ADD1B2" rx="11" ry="11" style="stroke:#181818;stroke-width:1.0;"/><path d="M332.3438,340.6719 C331.4063,340.2344 330.8125,340.0938 329.9375,340.0938 C327.3125,340.0938 325.3125,342.1719 325.3125,344.8906 L325.3125,346.0156 C325.3125,348.5938 327.4219,350.4844 330.3125,350.4844 C331.5313,350.4844 332.6875,350.1875 333.4375,349.6406 C334.0156,349.2344 334.3438,348.7813 334.3438,348.3906 C334.3438,347.9375 333.9531,347.5469 333.4844,347.5469 C333.2656,347.5469 333.0625,347.625 332.875,347.8125 C332.4219,348.2969 332.4219,348.2969 332.2344,348.3906 C331.8125,348.6563 331.125,348.7813 330.3594,348.7813 C328.3125,348.7813 327.0156,347.6875 327.0156,345.9844 L327.0156,344.8906 C327.0156,343.1094 328.2656,341.7969 330,341.7969 C330.5781,341.7969 331.1875,341.9531 331.6563,342.2031 C332.1406,342.4844 332.3125,342.7031 332.4063,343.1094 C332.4688,343.5156 332.5,343.6406 332.6406,343.7656 C332.7813,343.9063 333.0156,344.0156 333.2344,344.0156 C333.5,344.0156 333.7656,343.875 333.9375,343.6563 C334.0469,343.5 334.0781,343.3125 334.0781,342.8906 L334.0781,341.4688 C334.0781,341.0313 334.0625,340.9063 333.9688,340.75 C333.8125,340.4844 333.5313,340.3438 333.2344,340.3438 C332.9375,340.3438 332.7344,340.4375 332.5156,340.75 L332.3438,340.6719 Z " fill="#000000"/><text fill="#000000" font-family="sans-serif" font-size="14" lengthAdjust="spacing" textLength="248" x="344" y="349.8467">controladorDeMovimientoRandom</text><line style="stroke:#181818;stroke-width:0.5;" x1="316" x2="594" y1="361" y2="361"/><line style="stroke:#181818;stroke-width:0.5;" x1="316" x2="594" y1="369" y2="369"/></g><!--class controladorDeLimite--><g id="elem_controladorDeLimite"><rect codeLine="19" fill="#F1F1F1" height="48" id="controladorDeLimite" rx="2.5" ry="2.5" style="stroke:#181818;stroke-width:0.5;" width="182" x="497" y="41"/><ellipse cx="512" cy="57" fill="#ADD1B2" rx="11" ry="11" style="stroke:#181818;stroke-width:1.0;"/><path d="M514.3438,52.6719 C513.4063,52.2344 512.8125,52.0938 511.9375,52.0938 C509.3125,52.0938 507.3125,54.1719 507.3125,56.8906 L507.3125,58.0156 C507.3125,60.5938 509.4219,62.4844 512.3125,62.4844 C513.5313,62.4844 514.6875,62.1875 515.4375,61.6406 C516.0156,61.2344 516.3438,60.7813 516.3438,60.3906 C516.3438,59.9375 515.9531,59.5469 515.4844,59.5469 C515.2656,59.5469 515.0625,59.625 514.875,59.8125 C514.4219,60.2969 514.4219,60.2969 514.2344,60.3906 C513.8125,60.6563 513.125,60.7813 512.3594,60.7813 C510.3125,60.7813 509.0156,59.6875 509.0156,57.9844 L509.0156,56.8906 C509.0156,55.1094 510.2656,53.7969 512,53.7969 C512.5781,53.7969 513.1875,53.9531 513.6563,54.2031 C514.1406,54.4844 514.3125,54.7031 514.4063,55.1094 C514.4688,55.5156 514.5,55.6406 514.6406,55.7656 C514.7813,55.9063 515.0156,56.0156 515.2344,56.0156 C515.5,56.0156 515.7656,55.875 515.9375,55.6563 C516.0469,55.5 516.0781,55.3125 516.0781,54.8906 L516.0781,53.4688 C516.0781,53.0313 516.0625,52.9063 515.9688,52.75 C515.8125,52.4844 515.5313,52.3438 515.2344,52.3438 C514.9375,52.3438 514.7344,52.4375 514.5156,52.75 L514.3438,52.6719 Z " fill="#000000"/><text fill="#000000" font-family="sans-serif" font-size="14" lengthAdjust="spacing" textLength="150" x="526" y="61.8467">controladorDeLimite</text><line style="stroke:#181818;stroke-width:0.5;" x1="498" x2="678" y1="73" y2="73"/><line style="stroke:#181818;stroke-width:0.5;" x1="498" x2="678" y1="81" y2="81"/></g><!--class controladorDeTiempo--><g id="elem_controladorDeTiempo"><rect codeLine="22" fill="#F1F1F1" height="48" id="controladorDeTiempo" rx="2.5" ry="2.5" style="stroke:#181818;stroke-width:0.5;" width="191" x="22.5" y="41"/><ellipse cx="37.5" cy="57" fill="#ADD1B2" rx="11" ry="11" style="stroke:#181818;stroke-width:1.0;"/><path d="M39.8438,52.6719 C38.9063,52.2344 38.3125,52.0938 37.4375,52.0938 C34.8125,52.0938 32.8125,54.1719 32.8125,56.8906 L32.8125,58.0156 C32.8125,60.5938 34.9219,62.4844 37.8125,62.4844 C39.0313,62.4844 40.1875,62.1875 40.9375,61.6406 C41.5156,61.2344 41.8438,60.7813 41.8438,60.3906 C41.8438,59.9375 41.4531,59.5469 40.9844,59.5469 C40.7656,59.5469 40.5625,59.625 40.375,59.8125 C39.9219,60.2969 39.9219,60.2969 39.7344,60.3906 C39.3125,60.6563 38.625,60.7813 37.8594,60.7813 C35.8125,60.7813 34.5156,59.6875 34.5156,57.9844 L34.5156,56.8906 C34.5156,55.1094 35.7656,53.7969 37.5,53.7969 C38.0781,53.7969 38.6875,53.9531 39.1563,54.2031 C39.6406,54.4844 39.8125,54.7031 39.9063,55.1094 C39.9688,55.5156 40,55.6406 40.1406,55.7656 C40.2813,55.9063 40.5156,56.0156 40.7344,56.0156 C41,56.0156 41.2656,55.875 41.4375,55.6563 C41.5469,55.5 41.5781,55.3125 41.5781,54.8906 L41.5781,53.4688 C41.5781,53.0313 41.5625,52.9063 41.4688,52.75 C41.3125,52.4844 41.0313,52.3438 40.7344,52.3438 C40.4375,52.3438 40.2344,52.4375 40.0156,52.75 L39.8438,52.6719 Z " fill="#000000"/><text fill="#000000" font-family="sans-serif" font-size="14" lengthAdjust="spacing" textLength="159" x="51.5" y="61.8467">controladorDeTiempo</text><line style="stroke:#181818;stroke-width:0.5;" x1="23.5" x2="212.5" y1="73" y2="73"/><line style="stroke:#181818;stroke-width:0.5;" x1="23.5" x2="212.5" y1="81" y2="81"/></g><!--class mundo--><g id="elem_mundo"><rect codeLine="27" fill="#F1F1F1" height="96.8906" id="mundo" rx="2.5" ry="2.5" style="stroke:#181818;stroke-width:0.5;" width="104" x="758" y="164"/><ellipse cx="783.35" cy="180" fill="#ADD1B2" rx="11" ry="11" style="stroke:#181818;stroke-width:1.0;"/><path d="M785.6938,175.6719 C784.7563,175.2344 784.1625,175.0938 783.2875,175.0938 C780.6625,175.0938 778.6625,177.1719 778.6625,179.8906 L778.6625,181.0156 C778.6625,183.5938 780.7719,185.4844 783.6625,185.4844 C784.8813,185.4844 786.0375,185.1875 786.7875,184.6406 C787.3656,184.2344 787.6938,183.7813 787.6938,183.3906 C787.6938,182.9375 787.3031,182.5469 786.8344,182.5469 C786.6156,182.5469 786.4125,182.625 786.225,182.8125 C785.7719,183.2969 785.7719,183.2969 785.5844,183.3906 C785.1625,183.6563 784.475,183.7813 783.7094,183.7813 C781.6625,183.7813 780.3656,182.6875 780.3656,180.9844 L780.3656,179.8906 C780.3656,178.1094 781.6156,176.7969 783.35,176.7969 C783.9281,176.7969 784.5375,176.9531 785.0063,177.2031 C785.4906,177.4844 785.6625,177.7031 785.7563,178.1094 C785.8188,178.5156 785.85,178.6406 785.9906,178.7656 C786.1313,178.9063 786.3656,179.0156 786.5844,179.0156 C786.85,179.0156 787.1156,178.875 787.2875,178.6563 C787.3969,178.5 787.4281,178.3125 787.4281,177.8906 L787.4281,176.4688 C787.4281,176.0313 787.4125,175.9063 787.3188,175.75 C787.1625,175.4844 786.8813,175.3438 786.5844,175.3438 C786.2875,175.3438 786.0844,175.4375 785.8656,175.75 L785.6938,175.6719 Z " fill="#000000"/><text fill="#000000" font-family="sans-serif" font-size="14" lengthAdjust="spacing" textLength="49" x="799.65" y="184.8467">mundo</text><line style="stroke:#181818;stroke-width:0.5;" x1="759" x2="861" y1="196" y2="196"/><ellipse cx="769" cy="209.6484" fill="none" rx="3" ry="3" style="stroke:#038048;stroke-width:1.0;"/><text fill="#000000" font-family="sans-serif" font-size="14" lengthAdjust="spacing" textLength="53" x="778" y="212.9951">tiempo</text><ellipse cx="769" cy="225.9453" fill="none" rx="3" ry="3" style="stroke:#038048;stroke-width:1.0;"/><text fill="#000000" font-family="sans-serif" font-size="14" lengthAdjust="spacing" textLength="78" x="778" y="229.292">personajes</text><ellipse cx="769" cy="242.2422" fill="none" rx="3" ry="3" style="stroke:#038048;stroke-width:1.0;"/><text fill="#000000" font-family="sans-serif" font-size="14" lengthAdjust="spacing" textLength="40" x="778" y="245.5889">mapa</text><line style="stroke:#181818;stroke-width:0.5;" x1="759" x2="861" y1="252.8906" y2="252.8906"/></g><!--class mapa--><g id="elem_mapa"><rect codeLine="32" fill="#F1F1F1" height="64.2969" id="mapa" rx="2.5" ry="2.5" style="stroke:#181818;stroke-width:0.5;" width="72" x="774" y="321"/><ellipse cx="789" cy="337" fill="#ADD1B2" rx="11" ry="11" style="stroke:#181818;stroke-width:1.0;"/><path d="M791.3438,332.6719 C790.4063,332.2344 789.8125,332.0938 788.9375,332.0938 C786.3125,332.0938 784.3125,334.1719 784.3125,336.8906 L784.3125,338.0156 C784.3125,340.5938 786.4219,342.4844 789.3125,342.4844 C790.5313,342.4844 791.6875,342.1875 792.4375,341.6406 C793.0156,341.2344 793.3438,340.7813 793.3438,340.3906 C793.3438,339.9375 792.9531,339.5469 792.4844,339.5469 C792.2656,339.5469 792.0625,339.625 791.875,339.8125 C791.4219,340.2969 791.4219,340.2969 791.2344,340.3906 C790.8125,340.6563 790.125,340.7813 789.3594,340.7813 C787.3125,340.7813 786.0156,339.6875 786.0156,337.9844 L786.0156,336.8906 C786.0156,335.1094 787.2656,333.7969 789,333.7969 C789.5781,333.7969 790.1875,333.9531 790.6563,334.2031 C791.1406,334.4844 791.3125,334.7031 791.4063,335.1094 C791.4688,335.5156 791.5,335.6406 791.6406,335.7656 C791.7813,335.9063 792.0156,336.0156 792.2344,336.0156 C792.5,336.0156 792.7656,335.875 792.9375,335.6563 C793.0469,335.5 793.0781,335.3125 793.0781,334.8906 L793.0781,333.4688 C793.0781,333.0313 793.0625,332.9063 792.9688,332.75 C792.8125,332.4844 792.5313,332.3438 792.2344,332.3438 C791.9375,332.3438 791.7344,332.4375 791.5156,332.75 L791.3438,332.6719 Z " fill="#000000"/><text fill="#000000" font-family="sans-serif" font-size="14" lengthAdjust="spacing" textLength="40" x="803" y="341.8467">mapa</text><line style="stroke:#181818;stroke-width:0.5;" x1="775" x2="845" y1="353" y2="353"/><ellipse cx="785" cy="366.6484" fill="none" rx="3" ry="3" style="stroke:#038048;stroke-width:1.0;"/><text fill="#000000" font-family="sans-serif" font-size="14" lengthAdjust="spacing" textLength="31" x="794" y="369.9951">tiles</text><line style="stroke:#181818;stroke-width:0.5;" x1="775" x2="845" y1="377.2969" y2="377.2969"/></g><!--class tiles--><g id="elem_tiles"><rect codeLine="35" fill="#F1F1F1" height="64.2969" id="tiles" rx="2.5" ry="2.5" style="stroke:#181818;stroke-width:0.5;" width="162" x="735" y="445"/><ellipse cx="796.25" cy="461" fill="#ADD1B2" rx="11" ry="11" style="stroke:#181818;stroke-width:1.0;"/><path d="M798.5938,456.6719 C797.6563,456.2344 797.0625,456.0938 796.1875,456.0938 C793.5625,456.0938 791.5625,458.1719 791.5625,460.8906 L791.5625,462.0156 C791.5625,464.5938 793.6719,466.4844 796.5625,466.4844 C797.7813,466.4844 798.9375,466.1875 799.6875,465.6406 C800.2656,465.2344 800.5938,464.7813 800.5938,464.3906 C800.5938,463.9375 800.2031,463.5469 799.7344,463.5469 C799.5156,463.5469 799.3125,463.625 799.125,463.8125 C798.6719,464.2969 798.6719,464.2969 798.4844,464.3906 C798.0625,464.6563 797.375,464.7813 796.6094,464.7813 C794.5625,464.7813 793.2656,463.6875 793.2656,461.9844 L793.2656,460.8906 C793.2656,459.1094 794.5156,457.7969 796.25,457.7969 C796.8281,457.7969 797.4375,457.9531 797.9063,458.2031 C798.3906,458.4844 798.5625,458.7031 798.6563,459.1094 C798.7188,459.5156 798.75,459.6406 798.8906,459.7656 C799.0313,459.9063 799.2656,460.0156 799.4844,460.0156 C799.75,460.0156 800.0156,459.875 800.1875,459.6563 C800.2969,459.5 800.3281,459.3125 800.3281,458.8906 L800.3281,457.4688 C800.3281,457.0313 800.3125,456.9063 800.2188,456.75 C800.0625,456.4844 799.7813,456.3438 799.4844,456.3438 C799.1875,456.3438 798.9844,456.4375 798.7656,456.75 L798.5938,456.6719 Z " fill="#000000"/><text fill="#000000" font-family="sans-serif" font-size="14" lengthAdjust="spacing" textLength="31" x="816.75" y="465.8467">tiles</text><line style="stroke:#181818;stroke-width:0.5;" x1="736" x2="896" y1="477" y2="477"/><ellipse cx="746" cy="490.6484" fill="none" rx="3" ry="3" style="stroke:#038048;stroke-width:1.0;"/><text fill="#000000" font-family="sans-serif" font-size="14" lengthAdjust="spacing" textLength="136" x="755" y="493.9951">efectoEnVelocidad</text><line style="stroke:#181818;stroke-width:0.5;" x1="736" x2="896" y1="501.2969" y2="501.2969"/></g><!--class personaje--><g id="elem_personaje"><rect codeLine="38" fill="#F1F1F1" height="96.8906" id="personaje" rx="2.5" ry="2.5" style="stroke:#181818;stroke-width:0.5;" width="147" x="786.5" y="759"/><ellipse cx="821.3" cy="775" fill="#A9DCDF" rx="11" ry="11" style="stroke:#181818;stroke-width:1.0;"/><path d="M823.3781,776.8125 L823.7688,777.7969 L823.3781,777.7969 C822.925,777.7969 822.8156,777.8125 822.6594,777.9219 C822.4094,778.0781 822.2531,778.3594 822.2531,778.6563 C822.2531,778.9219 822.3938,779.1719 822.6125,779.3281 C822.7531,779.4531 822.9563,779.5 823.3781,779.5 L825.7375,779.5 C826.0969,779.5 826.3156,779.4688 826.4563,779.375 C826.7063,779.2344 826.8625,778.9375 826.8625,778.6563 C826.8625,778.375 826.7219,778.125 826.5031,777.9688 C826.3313,777.8281 826.175,777.7969 825.7063,777.7969 L822.3156,769.5938 L818.6438,769.5938 C818.1906,769.5938 818.0656,769.6094 817.9094,769.7031 C817.6594,769.875 817.5031,770.1563 817.5031,770.4375 C817.5031,770.7188 817.6438,770.9688 817.8625,771.1406 C818.0344,771.25 818.2063,771.2813 818.6438,771.2813 L819.7219,771.2813 L817.0813,777.7969 C816.6594,777.7969 816.5031,777.8125 816.3469,777.9219 C816.0969,778.0781 815.9406,778.3594 815.9406,778.6563 C815.9406,779.2188 816.3156,779.5 817.0656,779.5 L819.3313,779.5 C819.6906,779.5 819.9094,779.4688 820.0344,779.375 C820.3,779.2344 820.4406,778.9375 820.4406,778.6563 C820.4406,778.375 820.3156,778.125 820.0969,777.9531 C819.925,777.8281 819.7844,777.7969 819.3313,777.7969 L818.9406,777.7969 L819.3313,776.8125 L823.3781,776.8125 Z M822.675,775.1094 L820.0031,775.1094 L821.3469,771.8438 L822.675,775.1094 Z " fill="#000000"/><text fill="#000000" font-family="sans-serif" font-size="14" font-style="italic" lengthAdjust="spacing" textLength="71" x="839.7" y="779.8467">personaje</text><line style="stroke:#181818;stroke-width:0.5;" x1="787.5" x2="932.5" y1="791" y2="791"/><ellipse cx="797.5" cy="804.6484" fill="none" rx="3" ry="3" style="stroke:#038048;stroke-width:1.0;"/><text fill="#000000" font-family="sans-serif" font-size="14" lengthAdjust="spacing" textLength="68" x="806.5" y="807.9951">velocidad</text><ellipse cx="797.5" cy="820.9453" fill="none" rx="3" ry="3" style="stroke:#038048;stroke-width:1.0;"/><text fill="#000000" font-family="sans-serif" font-size="14" lengthAdjust="spacing" textLength="121" x="806.5" y="824.292">transporteEnUso</text><ellipse cx="797.5" cy="837.2422" fill="none" rx="3" ry="3" style="stroke:#038048;stroke-width:1.0;"/><text fill="#000000" font-family="sans-serif" font-size="14" lengthAdjust="spacing" textLength="60" x="806.5" y="840.5889">posici&#243;n</text><line style="stroke:#181818;stroke-width:0.5;" x1="787.5" x2="932.5" y1="847.8906" y2="847.8906"/></g><!--class transporte--><g id="elem_transporte"><rect codeLine="43" fill="#F1F1F1" height="80.5938" id="transporte" rx="2.5" ry="2.5" style="stroke:#181818;stroke-width:0.5;" width="162" x="735" y="569"/><ellipse cx="773.4" cy="585" fill="#ADD1B2" rx="11" ry="11" style="stroke:#181818;stroke-width:1.0;"/><path d="M775.7438,580.6719 C774.8063,580.2344 774.2125,580.0938 773.3375,580.0938 C770.7125,580.0938 768.7125,582.1719 768.7125,584.8906 L768.7125,586.0156 C768.7125,588.5938 770.8219,590.4844 773.7125,590.4844 C774.9313,590.4844 776.0875,590.1875 776.8375,589.6406 C777.4156,589.2344 777.7438,588.7813 777.7438,588.3906 C777.7438,587.9375 777.3531,587.5469 776.8844,587.5469 C776.6656,587.5469 776.4625,587.625 776.275,587.8125 C775.8219,588.2969 775.8219,588.2969 775.6344,588.3906 C775.2125,588.6563 774.525,588.7813 773.7594,588.7813 C771.7125,588.7813 770.4156,587.6875 770.4156,585.9844 L770.4156,584.8906 C770.4156,583.1094 771.6656,581.7969 773.4,581.7969 C773.9781,581.7969 774.5875,581.9531 775.0563,582.2031 C775.5406,582.4844 775.7125,582.7031 775.8063,583.1094 C775.8688,583.5156 775.9,583.6406 776.0406,583.7656 C776.1813,583.9063 776.4156,584.0156 776.6344,584.0156 C776.9,584.0156 777.1656,583.875 777.3375,583.6563 C777.4469,583.5 777.4781,583.3125 777.4781,582.8906 L777.4781,581.4688 C777.4781,581.0313 777.4625,580.9063 777.3688,580.75 C777.2125,580.4844 776.9313,580.3438 776.6344,580.3438 C776.3375,580.3438 776.1344,580.4375 775.9156,580.75 L775.7438,580.6719 Z " fill="#000000"/><text fill="#000000" font-family="sans-serif" font-size="14" lengthAdjust="spacing" textLength="78" x="792.6" y="589.8467">transporte</text><line style="stroke:#181818;stroke-width:0.5;" x1="736" x2="896" y1="601" y2="601"/><ellipse cx="746" cy="614.6484" fill="none" rx="3" ry="3" style="stroke:#038048;stroke-width:1.0;"/><text fill="#000000" font-family="sans-serif" font-size="14" lengthAdjust="spacing" textLength="93" x="755" y="617.9951">tilesPasables</text><ellipse cx="746" cy="630.9453" fill="none" rx="3" ry="3" style="stroke:#038048;stroke-width:1.0;"/><text fill="#000000" font-family="sans-serif" font-size="14" lengthAdjust="spacing" textLength="136" x="755" y="634.292">efectoEnVelocidad</text><line style="stroke:#181818;stroke-width:0.5;" x1="736" x2="896" y1="641.5938" y2="641.5938"/></g><!--class jugable--><g id="elem_jugable"><rect codeLine="47" fill="#F1F1F1" height="48" id="jugable" rx="2.5" ry="2.5" style="stroke:#181818;stroke-width:0.5;" width="84" x="745" y="965"/><ellipse cx="760" cy="981" fill="#ADD1B2" rx="11" ry="11" style="stroke:#181818;stroke-width:1.0;"/><path d="M762.3438,976.6719 C761.4063,976.2344 760.8125,976.0938 759.9375,976.0938 C757.3125,976.0938 755.3125,978.1719 755.3125,980.8906 L755.3125,982.0156 C755.3125,984.5938 757.4219,986.4844 760.3125,986.4844 C761.5313,986.4844 762.6875,986.1875 763.4375,985.6406 C764.0156,985.2344 764.3438,984.7813 764.3438,984.3906 C764.3438,983.9375 763.9531,983.5469 763.4844,983.5469 C763.2656,983.5469 763.0625,983.625 762.875,983.8125 C762.4219,984.2969 762.4219,984.2969 762.2344,984.3906 C761.8125,984.6563 761.125,984.7813 760.3594,984.7813 C758.3125,984.7813 757.0156,983.6875 757.0156,981.9844 L757.0156,980.8906 C757.0156,979.1094 758.2656,977.7969 760,977.7969 C760.5781,977.7969 761.1875,977.9531 761.6563,978.2031 C762.1406,978.4844 762.3125,978.7031 762.4063,979.1094 C762.4688,979.5156 762.5,979.6406 762.6406,979.7656 C762.7813,979.9063 763.0156,980.0156 763.2344,980.0156 C763.5,980.0156 763.7656,979.875 763.9375,979.6563 C764.0469,979.5 764.0781,979.3125 764.0781,978.8906 L764.0781,977.4688 C764.0781,977.0313 764.0625,976.9063 763.9688,976.75 C763.8125,976.4844 763.5313,976.3438 763.2344,976.3438 C762.9375,976.3438 762.7344,976.4375 762.5156,976.75 L762.3438,976.6719 Z " fill="#000000"/><text fill="#000000" font-family="sans-serif" font-size="14" lengthAdjust="spacing" textLength="52" x="774" y="985.8467">jugable</text><line style="stroke:#181818;stroke-width:0.5;" x1="746" x2="828" y1="997" y2="997"/><line style="stroke:#181818;stroke-width:0.5;" x1="746" x2="828" y1="1005" y2="1005"/></g><!--class npc--><g id="elem_npc"><rect codeLine="48" fill="#F1F1F1" height="48" id="npc" rx="2.5" ry="2.5" style="stroke:#181818;stroke-width:0.5;" width="59" x="864.5" y="965"/><ellipse cx="879.5" cy="981" fill="#ADD1B2" rx="11" ry="11" style="stroke:#181818;stroke-width:1.0;"/><path d="M881.8438,976.6719 C880.9063,976.2344 880.3125,976.0938 879.4375,976.0938 C876.8125,976.0938 874.8125,978.1719 874.8125,980.8906 L874.8125,982.0156 C874.8125,984.5938 876.9219,986.4844 879.8125,986.4844 C881.0313,986.4844 882.1875,986.1875 882.9375,985.6406 C883.5156,985.2344 883.8438,984.7813 883.8438,984.3906 C883.8438,983.9375 883.4531,983.5469 882.9844,983.5469 C882.7656,983.5469 882.5625,983.625 882.375,983.8125 C881.9219,984.2969 881.9219,984.2969 881.7344,984.3906 C881.3125,984.6563 880.625,984.7813 879.8594,984.7813 C877.8125,984.7813 876.5156,983.6875 876.5156,981.9844 L876.5156,980.8906 C876.5156,979.1094 877.7656,977.7969 879.5,977.7969 C880.0781,977.7969 880.6875,977.9531 881.1563,978.2031 C881.6406,978.4844 881.8125,978.7031 881.9063,979.1094 C881.9688,979.5156 882,979.6406 882.1406,979.7656 C882.2813,979.9063 882.5156,980.0156 882.7344,980.0156 C883,980.0156 883.2656,979.875 883.4375,979.6563 C883.5469,979.5 883.5781,979.3125 883.5781,978.8906 L883.5781,977.4688 C883.5781,977.0313 883.5625,976.9063 883.4688,976.75 C883.3125,976.4844 883.0313,976.3438 882.7344,976.3438 C882.4375,976.3438 882.2344,976.4375 882.0156,976.75 L881.8438,976.6719 Z " fill="#000000"/><text fill="#000000" font-family="sans-serif" font-size="14" lengthAdjust="spacing" textLength="27" x="893.5" y="985.8467">npc</text><line style="stroke:#181818;stroke-width:0.5;" x1="865.5" x2="922.5" y1="997" y2="997"/><line style="stroke:#181818;stroke-width:0.5;" x1="865.5" x2="922.5" y1="1005" y2="1005"/></g><!--class Tiles--><g id="elem_Tiles"><rect codeLine="52" fill="#F1F1F1" height="194.6719" id="Tiles" rx="2.5" ry="2.5" style="stroke:#181818;stroke-width:0.5;" width="113" x="359.5" y="710"/><ellipse cx="396.1" cy="726" fill="#EB937F" rx="11" ry="11" style="stroke:#181818;stroke-width:1.0;"/><path d="M394.8969,726.875 L396.35,726.875 L396.35,726.9844 C396.35,727.3906 396.3813,727.5469 396.4594,727.7031 C396.6156,727.9531 396.8969,728.1094 397.1938,728.1094 C397.4438,728.1094 397.7094,727.9688 397.8656,727.75 C397.9906,727.5938 398.0219,727.4375 398.0219,726.9844 L398.0219,725.0625 C398.0219,724.9063 398.0219,724.8594 398.0063,724.7031 C397.9438,724.2344 397.6313,723.9219 397.1781,723.9219 C396.9281,723.9219 396.6625,724.0625 396.4906,724.2813 C396.3813,724.4531 396.35,724.6094 396.35,725.0625 L396.35,725.1875 L394.8969,725.1875 L394.8969,722.7813 L398.8813,722.7813 L398.8813,723.6406 C398.8813,724.0469 398.9125,724.2188 398.9906,724.375 C399.1625,724.625 399.4438,724.7813 399.725,724.7813 C399.9906,724.7813 400.2563,724.6406 400.4281,724.4219 C400.5375,724.25 400.5688,724.1094 400.5688,723.6406 L400.5688,721.0938 L392.9438,721.0938 C392.5063,721.0938 392.3813,721.1094 392.225,721.2031 C391.975,721.3594 391.8188,721.6563 391.8188,721.9375 C391.8188,722.2188 391.9594,722.4688 392.1781,722.6406 C392.3344,722.75 392.5219,722.7813 392.9438,722.7813 L393.1938,722.7813 L393.1938,729.2969 L392.9438,729.2969 C392.5375,729.2969 392.3813,729.3125 392.225,729.4219 C391.975,729.5938 391.8188,729.8594 391.8188,730.1563 C391.8188,730.4219 391.9594,730.6719 392.1781,730.8281 C392.3188,730.9531 392.5531,731 392.9438,731 L400.9438,731 L400.9438,728.4219 C400.9438,727.9844 400.9125,727.8438 400.8344,727.6875 C400.6625,727.4375 400.3813,727.2813 400.1,727.2813 C399.8344,727.2813 399.5688,727.3906 399.3969,727.6406 C399.2875,727.7969 399.2563,727.9375 399.2563,728.4219 L399.2563,729.2969 L394.8969,729.2969 L394.8969,726.875 Z " fill="#000000"/><text fill="#000000" font-family="sans-serif" font-size="14" lengthAdjust="spacing" textLength="33" x="414.9" y="730.8467">Tiles</text><line style="stroke:#181818;stroke-width:0.5;" x1="360.5" x2="471.5" y1="742" y2="742"/><text fill="#000000" font-family="sans-serif" font-size="14" lengthAdjust="spacing" textLength="39" x="365.5" y="758.9951">Suelo</text><text fill="#000000" font-family="sans-serif" font-size="14" lengthAdjust="spacing" textLength="42" x="365.5" y="775.292">Arena</text><text fill="#000000" font-family="sans-serif" font-size="14" lengthAdjust="spacing" textLength="57" x="365.5" y="791.5889">Paredes</text><text fill="#000000" font-family="sans-serif" font-size="14" lengthAdjust="spacing" textLength="88" x="365.5" y="807.8857">Cesped Alto</text><text fill="#000000" font-family="sans-serif" font-size="14" lengthAdjust="spacing" textLength="101" x="365.5" y="824.1826">Cesped Medio</text><text fill="#000000" font-family="sans-serif" font-size="14" lengthAdjust="spacing" textLength="89" x="365.5" y="840.4795">Cesped Bajo</text><text fill="#000000" font-family="sans-serif" font-size="14" lengthAdjust="spacing" textLength="42" x="365.5" y="856.7764">Aguas</text><text fill="#000000" font-family="sans-serif" font-size="14" lengthAdjust="spacing" textLength="98" x="365.5" y="873.0732">Aguas Turbias</text><text fill="#000000" font-family="sans-serif" font-size="14" lengthAdjust="spacing" textLength="62" x="365.5" y="889.3701">Monta&#241;a</text><line style="stroke:#181818;stroke-width:0.5;" x1="360.5" x2="471.5" y1="896.6719" y2="896.6719"/></g><!--class TiposDeTransporte--><g id="elem_TiposDeTransporte"><rect codeLine="65" fill="#F1F1F1" height="113.1875" id="TiposDeTransporte" rx="2.5" ry="2.5" style="stroke:#181818;stroke-width:0.5;" width="171" x="507.5" y="751"/><ellipse cx="522.5" cy="767" fill="#EB937F" rx="11" ry="11" style="stroke:#181818;stroke-width:1.0;"/><path d="M521.2969,767.875 L522.75,767.875 L522.75,767.9844 C522.75,768.3906 522.7813,768.5469 522.8594,768.7031 C523.0156,768.9531 523.2969,769.1094 523.5938,769.1094 C523.8438,769.1094 524.1094,768.9688 524.2656,768.75 C524.3906,768.5938 524.4219,768.4375 524.4219,767.9844 L524.4219,766.0625 C524.4219,765.9063 524.4219,765.8594 524.4063,765.7031 C524.3438,765.2344 524.0313,764.9219 523.5781,764.9219 C523.3281,764.9219 523.0625,765.0625 522.8906,765.2813 C522.7813,765.4531 522.75,765.6094 522.75,766.0625 L522.75,766.1875 L521.2969,766.1875 L521.2969,763.7813 L525.2813,763.7813 L525.2813,764.6406 C525.2813,765.0469 525.3125,765.2188 525.3906,765.375 C525.5625,765.625 525.8438,765.7813 526.125,765.7813 C526.3906,765.7813 526.6563,765.6406 526.8281,765.4219 C526.9375,765.25 526.9688,765.1094 526.9688,764.6406 L526.9688,762.0938 L519.3438,762.0938 C518.9063,762.0938 518.7813,762.1094 518.625,762.2031 C518.375,762.3594 518.2188,762.6563 518.2188,762.9375 C518.2188,763.2188 518.3594,763.4688 518.5781,763.6406 C518.7344,763.75 518.9219,763.7813 519.3438,763.7813 L519.5938,763.7813 L519.5938,770.2969 L519.3438,770.2969 C518.9375,770.2969 518.7813,770.3125 518.625,770.4219 C518.375,770.5938 518.2188,770.8594 518.2188,771.1563 C518.2188,771.4219 518.3594,771.6719 518.5781,771.8281 C518.7188,771.9531 518.9531,772 519.3438,772 L527.3438,772 L527.3438,769.4219 C527.3438,768.9844 527.3125,768.8438 527.2344,768.6875 C527.0625,768.4375 526.7813,768.2813 526.5,768.2813 C526.2344,768.2813 525.9688,768.3906 525.7969,768.6406 C525.6875,768.7969 525.6563,768.9375 525.6563,769.4219 L525.6563,770.2969 L521.2969,770.2969 L521.2969,767.875 Z " fill="#000000"/><text fill="#000000" font-family="sans-serif" font-size="14" lengthAdjust="spacing" textLength="139" x="536.5" y="771.8467">TiposDeTransporte</text><line style="stroke:#181818;stroke-width:0.5;" x1="508.5" x2="677.5" y1="783" y2="783"/><text fill="#000000" font-family="sans-serif" font-size="14" lengthAdjust="spacing" textLength="53" x="513.5" y="799.9951">Caballo</text><text fill="#000000" font-family="sans-serif" font-size="14" lengthAdjust="spacing" textLength="35" x="513.5" y="816.292">Bote</text><text fill="#000000" font-family="sans-serif" font-size="14" lengthAdjust="spacing" textLength="67" x="513.5" y="832.5889">Alfombra</text><text fill="#000000" font-family="sans-serif" font-size="14" lengthAdjust="spacing" textLength="32" x="513.5" y="848.8857">APie</text><line style="stroke:#181818;stroke-width:0.5;" x1="508.5" x2="677.5" y1="856.1875" y2="856.1875"/></g><!--link mundo to mapa--><g id="link_mundo_mapa"><path codeLine="75" d="M810,261.164 C810,280.882 810,303.195 810,320.772 " fill="none" id="mundo-mapa" style="stroke:#181818;stroke-width:1.0;"/></g><!--link mapa to tiles--><g id="link_mapa_tiles"><path codeLine="76" d="M811.53,385.101 C812.432,403.457 813.571,426.61 814.473,444.955 " fill="none" id="mapa-tiles" style="stroke:#181818;stroke-width:1.0;"/></g><!--link mundo to personaje--><g id="link_mundo_personaje"><path codeLine="77" d="M839.11,261.008 C864.971,306.355 900.675,377.57 914,445 C931.663,534.383 929.067,560.143 914,650 C907.679,687.701 893.35,728.469 881.041,758.942 " fill="none" id="mundo-personaje" style="stroke:#181818;stroke-width:1.0;stroke-dasharray:7.0,7.0;"/></g><!--link tiles to transporte--><g id="link_tiles_transporte"><path codeLine="78" d="M816,509.258 C816,527.054 816,549.529 816,568.589 " fill="none" id="tiles-transporte" style="stroke:#181818;stroke-width:1.0;"/></g><!--link transporte to personaje--><g id="link_transporte_personaje"><path codeLine="79" d="M824.904,650.164 C831.96,681.596 841.843,725.617 849.323,758.941 " fill="none" id="transporte-personaje" style="stroke:#181818;stroke-width:1.0;"/></g><!--link personaje to jugable--><g id="link_personaje_jugable"><path codeLine="80" d="M840.629,856.131 C826.352,891.237 807.553,937.461 796.425,964.8251 " fill="none" id="personaje-jugable" style="stroke:#181818;stroke-width:1.0;"/></g><!--link personaje to npc--><g id="link_personaje_npc"><path codeLine="81" d="M869.022,856.131 C875.672,891.237 884.427,937.461 889.61,964.8251 " fill="none" id="personaje-npc" style="stroke:#181818;stroke-width:1.0;"/></g><!--link controladorDeMovimiento to controladorDeInput--><g id="link_controladorDeMovimiento_controladorDeInput"><path codeLine="83" d="M327.885,236.682 C297.89,262.325 249.855,303.393 219.934,328.973 " fill="none" id="controladorDeMovimiento-controladorDeInput" style="stroke:#181818;stroke-width:1.0;"/></g><!--link controladorDeMovimiento to controladorDeMovimientoRandom--><g id="link_controladorDeMovimiento_controladorDeMovimientoRandom"><path codeLine="84" d="M371.738,236.682 C390.197,262.248 419.726,303.146 438.208,328.743 " fill="none" id="controladorDeMovimiento-controladorDeMovimientoRandom" style="stroke:#181818;stroke-width:1.0;"/></g><!--link controladorDePersonajes to controladorDeMovimiento--><g id="link_controladorDePersonajes_controladorDeMovimiento"><path codeLine="85" d="M355,89.055 C355,116.139 355,160.826 355,188.071 " fill="none" id="controladorDePersonajes-controladorDeMovimiento" style="stroke:#181818;stroke-width:1.0;"/></g><!--link controladorDePersonajes to personaje--><g id="link_controladorDePersonajes_personaje"><path codeLine="86" d="M404.237,89.109 C426.546,98.407 453.572,108.079 479,113 C500.822,117.223 860.368,108.88 879,121 C974.002,182.799 987,238.667 987,352 C987,352 987,352 987,478 C987,583.934 928.834,696.938 891.23,758.925 " fill="none" id="controladorDePersonajes-personaje" style="stroke:#181818;stroke-width:1.0;"/></g><!--link controladorDeLimite to mapa--><g id="link_controladorDeLimite_mapa"><path codeLine="87" d="M606.167,89.405 C645.932,140.633 740.706,262.729 785.607,320.575 " fill="none" id="controladorDeLimite-mapa" style="stroke:#181818;stroke-width:1.0;"/></g><!--link controladorDeLimite to personaje--><g id="link_controladorDeLimite_personaje"><path codeLine="88" d="M642.555,89.123 C667.002,98.362 696.474,107.985 724,113 C739.802,115.879 1000.75,110.615 1013,121 C1092.79,188.626 1058,247.403 1058,352 C1058,352 1058,352 1058,478 C1058,557.017 1051.92,581.231 1013,650 C989.326,691.832 951.69,730.536 919.671,758.988 " fill="none" id="controladorDeLimite-personaje" style="stroke:#181818;stroke-width:1.0;"/></g><!--link controladorDeTiempo to mundo--><g id="link_controladorDeTiempo_mundo"><path codeLine="89" d="M162.385,89.021 C182.726,98.364 207.497,108.096 231,113 C281.476,123.532 646.423,103.708 695,121 C720.251,129.989 744.221,146.939 763.677,163.762 " fill="none" id="controladorDeTiempo-mundo" style="stroke:#181818;stroke-width:1.0;"/></g><!--link VistaDelMundo to mundo--><g id="link_VistaDelMundo_mundo"><path codeLine="90" d="M810,89.055 C810,109.088 810,138.75 810,163.863 " fill="none" id="VistaDelMundo-mundo" style="stroke:#181818;stroke-width:1.0;"/></g><!--link transporte to TiposDeTransporte--><g id="link_transporte_TiposDeTransporte"><path codeLine="92" d="M742.336,650.11 C734.213,655.434 726.263,661.105 719,667 C688.72,691.577 659.254,723.607 636.44,750.775 " fill="none" id="transporte-TiposDeTransporte" style="stroke:#181818;stroke-width:1.0;"/></g><!--link tiles to Tiles--><g id="link_tiles_Tiles"><path codeLine="93" d="M736.308,509.087 C664.673,540.254 560.226,594.077 490,667 C477.924,679.54 467.286,694.441 458.116,709.762 " fill="none" id="tiles-Tiles" style="stroke:#181818;stroke-width:1.0;"/></g><!--SRC=[ZLHBRi8m4Dtx5DvNS0SAB2erKjG2-qao85F7jco7JTH3LJq25-lO-RXyWX1Iv9bvRpvlR0oKNt10lXFEW-CjAoKurvahb5cZAatUR_enqsENMdch9LJQOg3mZbCczmfpj4uhE4O0SUz0CdqIjK3bzIJaJPd6Fv7W0wZDUXBuJZ2Fa-6DmDhSJ9df2kM_yUeWHSjUk8zmEfXnHZ9gC43q7ai64GDMKdHmHolwSO-brskrGwbBKK5562YSjr3wljwOdOUYfn58IIqePxJrk5PR5plHJfJY_AjIgH6J-iZ1GH7wcMYWOnwRGq2rWwrCsLu8iwLaKHTKJSqt8NEmFXjAnHOM5R0SB5PKQ8dEOCKNqklXd64bHkCLZaGvDE2wBzyqjX1aPRGVEFy4HHdhwz2GjAjnhb1p2GL8gifVjKUsa7jT5nRO8XVOBPEnk3O-ctKB2fzWT7lfOlDvqfh5G4ICXLWwXa32fWsHkvVjqadQqOsRkFGKlxtiJwElBp-RUdxJn4UKDEMzbpJ8UI_sWDq_jC0EohFBVvdHVINupURJakBb-mC0]--></g></svg>