<?xml version="1.0" encoding="us-ascii" standalone="no"?><svg xmlns="http://www.w3.org/2000/svg" xmlns:xlink="http://www.w3.org/1999/xlink" contentStyleType="text/css" height="742px" preserveAspectRatio="none" style="width:696px;height:742px;background:#FFFFFF;" version="1.1" viewBox="0 0 696 742" width="696px" zoomAndPan="magnify"><defs/><g><text fill="#000000" font-family="sans-serif" font-size="14" font-weight="bold" lengthAdjust="spacing" textLength="171" x="255.75" y="22.9951">Class Diagram - CCCF</text><!--class ShoppingCenter--><g id="elem_ShoppingCenter"><rect codeLine="5" fill="#F1F1F1" height="129.4844" id="ShoppingCenter" rx="2.5" ry="2.5" style="stroke:#181818;stroke-width:0.5;" width="151" x="245.5" y="44.2969"/><ellipse cx="260.5" cy="60.2969" fill="#ADD1B2" rx="11" ry="11" style="stroke:#181818;stroke-width:1.0;"/><path d="M262.8438,55.9688 C261.9063,55.5313 261.3125,55.3906 260.4375,55.3906 C257.8125,55.3906 255.8125,57.4688 255.8125,60.1875 L255.8125,61.3125 C255.8125,63.8906 257.9219,65.7813 260.8125,65.7813 C262.0313,65.7813 263.1875,65.4844 263.9375,64.9375 C264.5156,64.5313 264.8438,64.0781 264.8438,63.6875 C264.8438,63.2344 264.4531,62.8438 263.9844,62.8438 C263.7656,62.8438 263.5625,62.9219 263.375,63.1094 C262.9219,63.5938 262.9219,63.5938 262.7344,63.6875 C262.3125,63.9531 261.625,64.0781 260.8594,64.0781 C258.8125,64.0781 257.5156,62.9844 257.5156,61.2813 L257.5156,60.1875 C257.5156,58.4063 258.7656,57.0938 260.5,57.0938 C261.0781,57.0938 261.6875,57.25 262.1563,57.5 C262.6406,57.7813 262.8125,58 262.9063,58.4063 C262.9688,58.8125 263,58.9375 263.1406,59.0625 C263.2813,59.2031 263.5156,59.3125 263.7344,59.3125 C264,59.3125 264.2656,59.1719 264.4375,58.9531 C264.5469,58.7969 264.5781,58.6094 264.5781,58.1875 L264.5781,56.7656 C264.5781,56.3281 264.5625,56.2031 264.4688,56.0469 C264.3125,55.7813 264.0313,55.6406 263.7344,55.6406 C263.4375,55.6406 263.2344,55.7344 263.0156,56.0469 L262.8438,55.9688 Z " fill="#000000"/><text fill="#000000" font-family="sans-serif" font-size="14" lengthAdjust="spacing" textLength="119" x="274.5" y="65.1436">ShoppingCenter</text><line style="stroke:#181818;stroke-width:0.5;" x1="246.5" x2="395.5" y1="76.2969" y2="76.2969"/><rect fill="none" height="6" style="stroke:#C82930;stroke-width:1.0;" width="6" x="253.5" y="86.9453"/><text fill="#000000" font-family="sans-serif" font-size="14" lengthAdjust="spacing" textLength="92" x="265.5" y="93.292">openingHour</text><rect fill="none" height="6" style="stroke:#C82930;stroke-width:1.0;" width="6" x="253.5" y="103.2422"/><text fill="#000000" font-family="sans-serif" font-size="14" lengthAdjust="spacing" textLength="83" x="265.5" y="109.5889">closingHour</text><rect fill="none" height="6" style="stroke:#C82930;stroke-width:1.0;" width="6" x="253.5" y="119.5391"/><text fill="#000000" font-family="sans-serif" font-size="14" lengthAdjust="spacing" textLength="34" x="265.5" y="125.8857">time</text><rect fill="none" height="6" style="stroke:#C82930;stroke-width:1.0;" width="6" x="253.5" y="135.8359"/><text fill="#000000" font-family="sans-serif" font-size="14" lengthAdjust="spacing" textLength="123" x="265.5" y="142.1826">arrivalProbability</text><rect fill="none" height="6" style="stroke:#C82930;stroke-width:1.0;" width="6" x="253.5" y="152.1328"/><text fill="#000000" font-family="sans-serif" font-size="14" lengthAdjust="spacing" textLength="50" x="265.5" y="158.4795">isOpen</text><line style="stroke:#181818;stroke-width:0.5;" x1="246.5" x2="395.5" y1="165.7813" y2="165.7813"/></g><!--class AttentionCenter--><g id="elem_AttentionCenter"><rect codeLine="13" fill="#F1F1F1" height="64.2969" id="AttentionCenter" rx="2.5" ry="2.5" style="stroke:#181818;stroke-width:0.5;" width="176" x="233" y="365.7969"/><ellipse cx="258.35" cy="381.7969" fill="#ADD1B2" rx="11" ry="11" style="stroke:#181818;stroke-width:1.0;"/><path d="M260.6938,377.4688 C259.7563,377.0313 259.1625,376.8906 258.2875,376.8906 C255.6625,376.8906 253.6625,378.9688 253.6625,381.6875 L253.6625,382.8125 C253.6625,385.3906 255.7719,387.2813 258.6625,387.2813 C259.8813,387.2813 261.0375,386.9844 261.7875,386.4375 C262.3656,386.0313 262.6938,385.5781 262.6938,385.1875 C262.6938,384.7344 262.3031,384.3438 261.8344,384.3438 C261.6156,384.3438 261.4125,384.4219 261.225,384.6094 C260.7719,385.0938 260.7719,385.0938 260.5844,385.1875 C260.1625,385.4531 259.475,385.5781 258.7094,385.5781 C256.6625,385.5781 255.3656,384.4844 255.3656,382.7813 L255.3656,381.6875 C255.3656,379.9063 256.6156,378.5938 258.35,378.5938 C258.9281,378.5938 259.5375,378.75 260.0063,379 C260.4906,379.2813 260.6625,379.5 260.7563,379.9063 C260.8188,380.3125 260.85,380.4375 260.9906,380.5625 C261.1313,380.7031 261.3656,380.8125 261.5844,380.8125 C261.85,380.8125 262.1156,380.6719 262.2875,380.4531 C262.3969,380.2969 262.4281,380.1094 262.4281,379.6875 L262.4281,378.2656 C262.4281,377.8281 262.4125,377.7031 262.3188,377.5469 C262.1625,377.2813 261.8813,377.1406 261.5844,377.1406 C261.2875,377.1406 261.0844,377.2344 260.8656,377.5469 L260.6938,377.4688 Z " fill="#000000"/><text fill="#000000" font-family="sans-serif" font-size="14" lengthAdjust="spacing" textLength="121" x="274.65" y="386.6436">AttentionCenter</text><line style="stroke:#181818;stroke-width:0.5;" x1="234" x2="408" y1="397.7969" y2="397.7969"/><rect fill="none" height="6" style="stroke:#C82930;stroke-width:1.0;" width="6" x="241" y="408.4453"/><text fill="#000000" font-family="sans-serif" font-size="14" lengthAdjust="spacing" textLength="150" x="253" y="414.792">emptyCashRegisters</text><line style="stroke:#181818;stroke-width:0.5;" x1="234" x2="408" y1="422.0938" y2="422.0938"/></g><!--class CashRegister--><g id="elem_CashRegister"><rect codeLine="17" fill="#F1F1F1" height="129.4844" id="CashRegister" rx="2.5" ry="2.5" style="stroke:#181818;stroke-width:0.5;" width="152" x="245" y="498.2969"/><ellipse cx="271.25" cy="514.2969" fill="#ADD1B2" rx="11" ry="11" style="stroke:#181818;stroke-width:1.0;"/><path d="M273.5938,509.9688 C272.6563,509.5313 272.0625,509.3906 271.1875,509.3906 C268.5625,509.3906 266.5625,511.4688 266.5625,514.1875 L266.5625,515.3125 C266.5625,517.8906 268.6719,519.7813 271.5625,519.7813 C272.7813,519.7813 273.9375,519.4844 274.6875,518.9375 C275.2656,518.5313 275.5938,518.0781 275.5938,517.6875 C275.5938,517.2344 275.2031,516.8438 274.7344,516.8438 C274.5156,516.8438 274.3125,516.9219 274.125,517.1094 C273.6719,517.5938 273.6719,517.5938 273.4844,517.6875 C273.0625,517.9531 272.375,518.0781 271.6094,518.0781 C269.5625,518.0781 268.2656,516.9844 268.2656,515.2813 L268.2656,514.1875 C268.2656,512.4063 269.5156,511.0938 271.25,511.0938 C271.8281,511.0938 272.4375,511.25 272.9063,511.5 C273.3906,511.7813 273.5625,512 273.6563,512.4063 C273.7188,512.8125 273.75,512.9375 273.8906,513.0625 C274.0313,513.2031 274.2656,513.3125 274.4844,513.3125 C274.75,513.3125 275.0156,513.1719 275.1875,512.9531 C275.2969,512.7969 275.3281,512.6094 275.3281,512.1875 L275.3281,510.7656 C275.3281,510.3281 275.3125,510.2031 275.2188,510.0469 C275.0625,509.7813 274.7813,509.6406 274.4844,509.6406 C274.1875,509.6406 273.9844,509.7344 273.7656,510.0469 L273.5938,509.9688 Z " fill="#000000"/><text fill="#000000" font-family="sans-serif" font-size="14" lengthAdjust="spacing" textLength="95" x="287.75" y="519.1436">CashRegister</text><line style="stroke:#181818;stroke-width:0.5;" x1="246" x2="396" y1="530.2969" y2="530.2969"/><rect fill="none" height="6" style="stroke:#C82930;stroke-width:1.0;" width="6" x="253" y="540.9453"/><text fill="#000000" font-family="sans-serif" font-size="14" lengthAdjust="spacing" textLength="13" x="265" y="547.292">id</text><rect fill="none" height="6" style="stroke:#C82930;stroke-width:1.0;" width="6" x="253" y="557.2422"/><text fill="#000000" font-family="sans-serif" font-size="14" lengthAdjust="spacing" textLength="106" x="265" y="563.5889">currentCashier</text><rect fill="none" height="6" style="stroke:#C82930;stroke-width:1.0;" width="6" x="253" y="573.5391"/><text fill="#000000" font-family="sans-serif" font-size="14" lengthAdjust="spacing" textLength="126" x="265" y="579.8857">timePerItemPack</text><rect fill="none" height="6" style="stroke:#C82930;stroke-width:1.0;" width="6" x="253" y="589.8359"/><text fill="#000000" font-family="sans-serif" font-size="14" lengthAdjust="spacing" textLength="80" x="265" y="596.1826">isOcuppied</text><rect fill="none" height="6" style="stroke:#C82930;stroke-width:1.0;" width="6" x="253" y="606.1328"/><text fill="#000000" font-family="sans-serif" font-size="14" lengthAdjust="spacing" textLength="50" x="265" y="612.4795">isOpen</text><line style="stroke:#181818;stroke-width:0.5;" x1="246" x2="396" y1="619.7813" y2="619.7813"/></g><!--class Customer--><g id="elem_Customer"><rect codeLine="25" fill="#F1F1F1" height="80.5938" id="Customer" rx="2.5" ry="2.5" style="stroke:#181818;stroke-width:0.5;" width="174" x="24" y="357.2969"/><ellipse cx="71.75" cy="373.2969" fill="#ADD1B2" rx="11" ry="11" style="stroke:#181818;stroke-width:1.0;"/><path d="M74.0938,368.9688 C73.1563,368.5313 72.5625,368.3906 71.6875,368.3906 C69.0625,368.3906 67.0625,370.4688 67.0625,373.1875 L67.0625,374.3125 C67.0625,376.8906 69.1719,378.7813 72.0625,378.7813 C73.2813,378.7813 74.4375,378.4844 75.1875,377.9375 C75.7656,377.5313 76.0938,377.0781 76.0938,376.6875 C76.0938,376.2344 75.7031,375.8438 75.2344,375.8438 C75.0156,375.8438 74.8125,375.9219 74.625,376.1094 C74.1719,376.5938 74.1719,376.5938 73.9844,376.6875 C73.5625,376.9531 72.875,377.0781 72.1094,377.0781 C70.0625,377.0781 68.7656,375.9844 68.7656,374.2813 L68.7656,373.1875 C68.7656,371.4063 70.0156,370.0938 71.75,370.0938 C72.3281,370.0938 72.9375,370.25 73.4063,370.5 C73.8906,370.7813 74.0625,371 74.1563,371.4063 C74.2188,371.8125 74.25,371.9375 74.3906,372.0625 C74.5313,372.2031 74.7656,372.3125 74.9844,372.3125 C75.25,372.3125 75.5156,372.1719 75.6875,371.9531 C75.7969,371.7969 75.8281,371.6094 75.8281,371.1875 L75.8281,369.7656 C75.8281,369.3281 75.8125,369.2031 75.7188,369.0469 C75.5625,368.7813 75.2813,368.6406 74.9844,368.6406 C74.6875,368.6406 74.4844,368.7344 74.2656,369.0469 L74.0938,368.9688 Z " fill="#000000"/><text fill="#000000" font-family="sans-serif" font-size="14" lengthAdjust="spacing" textLength="70" x="92.25" y="378.1436">Customer</text><line style="stroke:#181818;stroke-width:0.5;" x1="25" x2="197" y1="389.2969" y2="389.2969"/><rect fill="none" height="6" style="stroke:#C82930;stroke-width:1.0;" width="6" x="32" y="399.9453"/><text fill="#000000" font-family="sans-serif" font-size="14" lengthAdjust="spacing" textLength="13" x="44" y="406.292">id</text><rect fill="none" height="6" style="stroke:#C82930;stroke-width:1.0;" width="6" x="32" y="416.2422"/><text fill="#000000" font-family="sans-serif" font-size="14" lengthAdjust="spacing" textLength="148" x="44" y="422.5889">numberOfItemPacks</text><line style="stroke:#181818;stroke-width:0.5;" x1="25" x2="197" y1="429.8906" y2="429.8906"/></g><!--class Queue--><g id="elem_Queue"><rect codeLine="30" fill="#F1F1F1" height="64.2969" id="Queue" rx="2.5" ry="2.5" style="stroke:#181818;stroke-width:0.5;" width="77" x="282.5" y="233.2969"/><ellipse cx="297.5" cy="249.2969" fill="#ADD1B2" rx="11" ry="11" style="stroke:#181818;stroke-width:1.0;"/><path d="M299.8438,244.9688 C298.9063,244.5313 298.3125,244.3906 297.4375,244.3906 C294.8125,244.3906 292.8125,246.4688 292.8125,249.1875 L292.8125,250.3125 C292.8125,252.8906 294.9219,254.7813 297.8125,254.7813 C299.0313,254.7813 300.1875,254.4844 300.9375,253.9375 C301.5156,253.5313 301.8438,253.0781 301.8438,252.6875 C301.8438,252.2344 301.4531,251.8438 300.9844,251.8438 C300.7656,251.8438 300.5625,251.9219 300.375,252.1094 C299.9219,252.5938 299.9219,252.5938 299.7344,252.6875 C299.3125,252.9531 298.625,253.0781 297.8594,253.0781 C295.8125,253.0781 294.5156,251.9844 294.5156,250.2813 L294.5156,249.1875 C294.5156,247.4063 295.7656,246.0938 297.5,246.0938 C298.0781,246.0938 298.6875,246.25 299.1563,246.5 C299.6406,246.7813 299.8125,247 299.9063,247.4063 C299.9688,247.8125 300,247.9375 300.1406,248.0625 C300.2813,248.2031 300.5156,248.3125 300.7344,248.3125 C301,248.3125 301.2656,248.1719 301.4375,247.9531 C301.5469,247.7969 301.5781,247.6094 301.5781,247.1875 L301.5781,245.7656 C301.5781,245.3281 301.5625,245.2031 301.4688,245.0469 C301.3125,244.7813 301.0313,244.6406 300.7344,244.6406 C300.4375,244.6406 300.2344,244.7344 300.0156,245.0469 L299.8438,244.9688 Z " fill="#000000"/><text fill="#000000" font-family="sans-serif" font-size="14" lengthAdjust="spacing" textLength="45" x="311.5" y="254.1436">Queue</text><line style="stroke:#181818;stroke-width:0.5;" x1="283.5" x2="358.5" y1="265.2969" y2="265.2969"/><rect fill="none" height="6" style="stroke:#C82930;stroke-width:1.0;" width="6" x="290.5" y="275.9453"/><text fill="#000000" font-family="sans-serif" font-size="14" lengthAdjust="spacing" textLength="28" x="302.5" y="282.292">size</text><line style="stroke:#181818;stroke-width:0.5;" x1="283.5" x2="358.5" y1="289.5938" y2="289.5938"/></g><!--class Cashier--><g id="elem_Cashier"><rect codeLine="34" fill="#F1F1F1" height="129.4844" id="Cashier" rx="2.5" ry="2.5" style="stroke:#181818;stroke-width:0.5;" width="103" x="586.5" y="498.2969"/><ellipse cx="609.6" cy="514.2969" fill="#ADD1B2" rx="11" ry="11" style="stroke:#181818;stroke-width:1.0;"/><path d="M611.9438,509.9688 C611.0063,509.5313 610.4125,509.3906 609.5375,509.3906 C606.9125,509.3906 604.9125,511.4688 604.9125,514.1875 L604.9125,515.3125 C604.9125,517.8906 607.0219,519.7813 609.9125,519.7813 C611.1313,519.7813 612.2875,519.4844 613.0375,518.9375 C613.6156,518.5313 613.9438,518.0781 613.9438,517.6875 C613.9438,517.2344 613.5531,516.8438 613.0844,516.8438 C612.8656,516.8438 612.6625,516.9219 612.475,517.1094 C612.0219,517.5938 612.0219,517.5938 611.8344,517.6875 C611.4125,517.9531 610.725,518.0781 609.9594,518.0781 C607.9125,518.0781 606.6156,516.9844 606.6156,515.2813 L606.6156,514.1875 C606.6156,512.4063 607.8656,511.0938 609.6,511.0938 C610.1781,511.0938 610.7875,511.25 611.2563,511.5 C611.7406,511.7813 611.9125,512 612.0063,512.4063 C612.0688,512.8125 612.1,512.9375 612.2406,513.0625 C612.3813,513.2031 612.6156,513.3125 612.8344,513.3125 C613.1,513.3125 613.3656,513.1719 613.5375,512.9531 C613.6469,512.7969 613.6781,512.6094 613.6781,512.1875 L613.6781,510.7656 C613.6781,510.3281 613.6625,510.2031 613.5688,510.0469 C613.4125,509.7813 613.1313,509.6406 612.8344,509.6406 C612.5375,509.6406 612.3344,509.7344 612.1156,510.0469 L611.9438,509.9688 Z " fill="#000000"/><text fill="#000000" font-family="sans-serif" font-size="14" lengthAdjust="spacing" textLength="53" x="625.4" y="519.1436">Cashier</text><line style="stroke:#181818;stroke-width:0.5;" x1="587.5" x2="688.5" y1="530.2969" y2="530.2969"/><rect fill="none" height="6" style="stroke:#C82930;stroke-width:1.0;" width="6" x="594.5" y="540.9453"/><text fill="#000000" font-family="sans-serif" font-size="14" lengthAdjust="spacing" textLength="13" x="606.5" y="547.292">id</text><rect fill="none" height="6" style="stroke:#C82930;stroke-width:1.0;" width="6" x="594.5" y="557.2422"/><text fill="#000000" font-family="sans-serif" font-size="14" lengthAdjust="spacing" textLength="40" x="606.5" y="563.5889">name</text><rect fill="none" height="6" style="stroke:#C82930;stroke-width:1.0;" width="6" x="594.5" y="573.5391"/><text fill="#000000" font-family="sans-serif" font-size="14" lengthAdjust="spacing" textLength="70" x="606.5" y="579.8857">workShift</text><rect fill="none" height="6" style="stroke:#C82930;stroke-width:1.0;" width="6" x="594.5" y="589.8359"/><text fill="#000000" font-family="sans-serif" font-size="14" lengthAdjust="spacing" textLength="77" x="606.5" y="596.1826">workBreak</text><rect fill="none" height="6" style="stroke:#C82930;stroke-width:1.0;" width="6" x="594.5" y="606.1328"/><text fill="#000000" font-family="sans-serif" font-size="14" lengthAdjust="spacing" textLength="65" x="606.5" y="612.4795">isServing</text><line style="stroke:#181818;stroke-width:0.5;" x1="587.5" x2="688.5" y1="619.7813" y2="619.7813"/></g><!--class DataLog--><g id="elem_DataLog"><rect codeLine="42" fill="#F1F1F1" height="48" id="DataLog" rx="2.5" ry="2.5" style="stroke:#181818;stroke-width:0.5;" width="92" x="416" y="687.2969"/><ellipse cx="431" cy="703.2969" fill="#ADD1B2" rx="11" ry="11" style="stroke:#181818;stroke-width:1.0;"/><path d="M433.3438,698.9688 C432.4063,698.5313 431.8125,698.3906 430.9375,698.3906 C428.3125,698.3906 426.3125,700.4688 426.3125,703.1875 L426.3125,704.3125 C426.3125,706.8906 428.4219,708.7813 431.3125,708.7813 C432.5313,708.7813 433.6875,708.4844 434.4375,707.9375 C435.0156,707.5313 435.3438,707.0781 435.3438,706.6875 C435.3438,706.2344 434.9531,705.8438 434.4844,705.8438 C434.2656,705.8438 434.0625,705.9219 433.875,706.1094 C433.4219,706.5938 433.4219,706.5938 433.2344,706.6875 C432.8125,706.9531 432.125,707.0781 431.3594,707.0781 C429.3125,707.0781 428.0156,705.9844 428.0156,704.2813 L428.0156,703.1875 C428.0156,701.4063 429.2656,700.0938 431,700.0938 C431.5781,700.0938 432.1875,700.25 432.6563,700.5 C433.1406,700.7813 433.3125,701 433.4063,701.4063 C433.4688,701.8125 433.5,701.9375 433.6406,702.0625 C433.7813,702.2031 434.0156,702.3125 434.2344,702.3125 C434.5,702.3125 434.7656,702.1719 434.9375,701.9531 C435.0469,701.7969 435.0781,701.6094 435.0781,701.1875 L435.0781,699.7656 C435.0781,699.3281 435.0625,699.2031 434.9688,699.0469 C434.8125,698.7813 434.5313,698.6406 434.2344,698.6406 C433.9375,698.6406 433.7344,698.7344 433.5156,699.0469 L433.3438,698.9688 Z " fill="#000000"/><text fill="#000000" font-family="sans-serif" font-size="14" lengthAdjust="spacing" textLength="60" x="445" y="708.1436">DataLog</text><line style="stroke:#181818;stroke-width:0.5;" x1="417" x2="507" y1="719.2969" y2="719.2969"/><line style="stroke:#181818;stroke-width:0.5;" x1="417" x2="507" y1="727.2969" y2="727.2969"/></g><!--link ShoppingCenter to Queue--><g id="link_ShoppingCenter_Queue"><path codeLine="47" d="M321,173.5299 C321,194.1439 321,216.0839 321,233.2289 " fill="none" id="ShoppingCenter-Queue" style="stroke:#181818;stroke-width:1.0;"/></g><!--link ShoppingCenter to Customer--><g id="link_ShoppingCenter_Customer"><path codeLine="48" d="M274.394,173.4919 C233.31,229.6399 174.737,309.6889 140.02,357.1359 " fill="none" id="ShoppingCenter-Customer" style="stroke:#181818;stroke-width:1.0;"/></g><!--link ShoppingCenter to Cashier--><g id="link_ShoppingCenter_Cashier"><path codeLine="49" d="M396.632,149.0429 C466.322,185.2049 559,233.2969 559,233.2969 C559,233.2969 599.701,402.5399 622.674,498.0689 " fill="none" id="ShoppingCenter-Cashier" style="stroke:#181818;stroke-width:1.0;"/></g><!--link ShoppingCenter to CashRegister--><g id="link_ShoppingCenter_CashRegister"><path codeLine="50" d="M245.149,169.3939 C151.941,242.6289 6,357.2969 6,357.2969 C6,357.2969 6,438.2969 6,438.2969 C6,438.2969 151.522,495.3509 244.747,531.9009 " fill="none" id="ShoppingCenter-CashRegister" style="stroke:#181818;stroke-width:1.0;"/></g><!--link Queue to AttentionCenter--><g id="link_Queue_AttentionCenter"><path codeLine="52" d="M321,297.5549 C321,318.2159 321,345.1849 321,365.7939 " fill="none" id="Queue-AttentionCenter" style="stroke:#181818;stroke-width:1.0;"/></g><!--link Queue to Customer--><g id="link_Queue_Customer"><path codeLine="53" d="M282.483,290.2329 C252.407,308.9229 209.969,335.2949 174.835,357.1279 " fill="none" id="Queue-Customer" style="stroke:#181818;stroke-width:1.0;"/></g><!--link Customer to AttentionCenter--><g id="link_Customer_AttentionCenter"><path codeLine="55" d="M198.303,397.7969 C208.83,397.7969 222.254,397.7969 232.919,397.7969 " fill="none" id="Customer-AttentionCenter" style="stroke:#181818;stroke-width:1.0;"/></g><!--link AttentionCenter to CashRegister--><g id="link_AttentionCenter_CashRegister"><path codeLine="56" d="M321,429.8399 C321,449.1449 321,474.6769 321,498.1359 " fill="none" id="AttentionCenter-CashRegister" style="stroke:#181818;stroke-width:1.0;"/></g><!--link CashRegister to Cashier--><g id="link_CashRegister_Cashier"><path codeLine="58" d="M397.233,562.7969 C413.895,562.7969 426.667,562.7969 426.667,562.7969 C426.667,562.7969 532.333,562.7969 532.333,562.7969 C532.333,562.7969 559.582,562.7969 586.405,562.7969 " fill="none" id="CashRegister-Cashier" style="stroke:#181818;stroke-width:1.0;"/></g><!--link CashRegister to Customer--><g id="link_CashRegister_Customer"><path codeLine="60" d="M244.969,502.7819 C217.423,481.4019 186.992,457.7809 162.103,438.4629 " fill="none" id="CashRegister-Customer" style="stroke:#181818;stroke-width:1.0;"/></g><!--link ShoppingCenter to DataLog--><g id="link_ShoppingCenter_DataLog"><path codeLine="62" d="M355.766,173.5339 C395.765,246.8669 456,357.2969 456,357.2969 C456,357.2969 473,498.2969 473,498.2969 C473,498.2969 473,627.2969 473,627.2969 C473,627.2969 468.319,662.6177 465.064,687.1768 " fill="none" id="ShoppingCenter-DataLog" style="stroke:#181818;stroke-width:1.0;stroke-dasharray:7.0,7.0;"/></g><!--link Queue to DataLog--><g id="link_Queue_DataLog"><path codeLine="63" d="M356.841,297.3599 C387.259,323.7219 426,357.2969 426,357.2969 C426,357.2969 451.629,608.6029 459.638,687.1356 " fill="none" id="Queue-DataLog" style="stroke:#181818;stroke-width:1.0;stroke-dasharray:7.0,7.0;"/></g><!--link CashRegister to DataLog--><g id="link_CashRegister_DataLog"><path codeLine="64" d="M382.434,627.6279 C402.769,648.7551 424.126,670.9453 439.588,687.0102 " fill="none" id="CashRegister-DataLog" style="stroke:#181818;stroke-width:1.0;stroke-dasharray:7.0,7.0;"/></g><!--SRC=[TL5HRiCW3Ftd55mWlSEMQjgaIUlM4z3KJQmIGCPqoghTVMGDXMGPN_2UUU_PzcSqJf7gfKO3F3YGpkfXV0Z1o1fahPNtSekg7SigMTVran3DBxhlh7DesXeC0ychaF5KqZem4NssWIQaqTRF4SOUfgiYmelIEx87TK2DF4m4-hUe9BwJtGDpD49hRdx93dh7Gwryzm4j-aZu_AM4x_dmc685eYWr5Y6KoNP0BmpzJZNddAK9iLau_XEk3fvjl-PYGdy0UZibnIBUUu00znyUls0U7LVrr7rqdvRE-mvFNBmV2LHElGUwnCbdsQrYzMhRgnWXiTXWLTqYhU2flpLgcjywayOlnAtR22yMcOdi8XOrij9muYB67txfDbjzHTXsdACks49tsSLcaqOsnIo0cKZ6Vm00]--></g></svg>