<?xml version="1.0" encoding="us-ascii" standalone="no"?><svg xmlns="http://www.w3.org/2000/svg" xmlns:xlink="http://www.w3.org/1999/xlink" contentStyleType="text/css" height="1021px" preserveAspectRatio="none" style="width:790px;height:1021px;background:#FFFFFF;" version="1.1" viewBox="0 0 790 1021" width="790px" zoomAndPan="magnify"><defs/><g><text fill="#000000" font-family="sans-serif" font-size="14" font-weight="bold" lengthAdjust="spacing" textLength="168" x="301" y="22.9951">State Diagram - CCCF</text><path d="M19.5,44.2969 L764.5,44.2969 A12.5,12.5 0 0 1 777,56.7969 L777,70.5938 L7,70.5938 L7,56.7969 A12.5,12.5 0 0 1 19.5,44.2969 " fill="#F1F1F1" style="stroke:#F1F1F1;stroke-width:1.0;"/><rect fill="none" height="971.5969" rx="12.5" ry="12.5" style="stroke:#181818;stroke-width:0.5;" width="770" x="7" y="44.2969"/><line style="stroke:#181818;stroke-width:0.5;" x1="7" x2="777" y1="70.5938" y2="70.5938"/><text fill="#000000" font-family="sans-serif" font-size="14" lengthAdjust="spacing" textLength="113" x="335.5" y="62.292">ShoppingCenter</text><!--cluster Queue--><g id="cluster_Queue"><path d="M451.5,405.8937 L674.5,405.8937 A12.5,12.5 0 0 1 687,418.3937 L687,427.1906 L439,427.1906 L439,418.3937 A12.5,12.5 0 0 1 451.5,405.8937 " fill="#F1F1F1" style="stroke:#F1F1F1;stroke-width:1.0;"/><rect fill="none" height="268" rx="12.5" ry="12.5" style="stroke:#181818;stroke-width:0.5;" width="248" x="439" y="405.8937"/><line style="stroke:#181818;stroke-width:0.5;" x1="439" x2="687" y1="427.1906" y2="427.1906"/><text fill="#000000" font-family="sans-serif" font-size="14" lengthAdjust="spacing" textLength="47" x="539.5" y="422.8889">Queue</text></g><!--cluster CashRegister--><g id="cluster_CashRegister"><path d="M31.5,564.8938 L394.5,564.8938 A12.5,12.5 0 0 1 407,577.3938 L407,586.1906 L19,586.1906 L19,577.3938 A12.5,12.5 0 0 1 31.5,564.8938 " fill="#F1F1F1" style="stroke:#F1F1F1;stroke-width:1.0;"/><rect fill="none" height="441" rx="12.5" ry="12.5" style="stroke:#181818;stroke-width:0.5;" width="388" x="19" y="564.8938"/><line style="stroke:#181818;stroke-width:0.5;" x1="19" x2="407" y1="586.1906" y2="586.1906"/><text fill="#000000" font-family="sans-serif" font-size="14" lengthAdjust="spacing" textLength="93" x="166.5" y="581.8889">CashRegister</text></g><!--cluster CR_Opened--><g id="cluster_CR_Opened"><path d="M102.5,745.8938 L346.5,745.8938 A12.5,12.5 0 0 1 359,758.3938 L359,767.1906 L90,767.1906 L90,758.3938 A12.5,12.5 0 0 1 102.5,745.8938 " fill="#F1F1F1" style="stroke:#F1F1F1;stroke-width:1.0;"/><rect fill="none" height="220" rx="12.5" ry="12.5" style="stroke:#181818;stroke-width:0.5;" width="269" x="90" y="745.8938"/><line style="stroke:#181818;stroke-width:0.5;" x1="90" x2="359" y1="767.1906" y2="767.1906"/><text fill="#000000" font-family="sans-serif" font-size="14" lengthAdjust="spacing" textLength="83" x="183" y="762.8889">CR_Opened</text></g><g id="ShoppingCenter.Queue.Q_Empty"><rect fill="#F1F1F1" height="50" rx="12.5" ry="12.5" style="stroke:#181818;stroke-width:0.5;" width="81" x="455.5" y="440.8937"/><line style="stroke:#181818;stroke-width:0.5;" x1="455.5" x2="536.5" y1="467.1906" y2="467.1906"/><text fill="#000000" font-family="sans-serif" font-size="14" lengthAdjust="spacing" textLength="61" x="465.5" y="458.8889">Q_Empty</text></g><g id="ShoppingCenter.Queue.Q_Receiving"><rect fill="#F1F1F1" height="50" rx="12.5" ry="12.5" style="stroke:#181818;stroke-width:0.5;" width="105" x="454.5" y="607.8938"/><line style="stroke:#181818;stroke-width:0.5;" x1="454.5" x2="559.5" y1="634.1906" y2="634.1906"/><text fill="#000000" font-family="sans-serif" font-size="14" lengthAdjust="spacing" textLength="85" x="464.5" y="625.8889">Q_Receiving</text></g><g id="ShoppingCenter.CashRegister.CR_Closed"><rect fill="#F1F1F1" height="50" rx="12.5" ry="12.5" style="stroke:#181818;stroke-width:0.5;" width="95" x="112.5" y="607.8938"/><line style="stroke:#181818;stroke-width:0.5;" x1="112.5" x2="207.5" y1="634.1906" y2="634.1906"/><text fill="#000000" font-family="sans-serif" font-size="14" lengthAdjust="spacing" textLength="75" x="122.5" y="625.8889">CR_Closed</text></g><g id="ShoppingCenter.CashRegister.CR_Opened.CR_Empty"><rect fill="#F1F1F1" height="50" rx="12.5" ry="12.5" style="stroke:#181818;stroke-width:0.5;" width="90" x="186" y="788.8938"/><line style="stroke:#181818;stroke-width:0.5;" x1="186" x2="276" y1="815.1906" y2="815.1906"/><text fill="#000000" font-family="sans-serif" font-size="14" lengthAdjust="spacing" textLength="70" x="196" y="806.8889">CR_Empty</text></g><g id="ShoppingCenter.CashRegister.CR_Opened.CR_Serving"><rect fill="#F1F1F1" height="50" rx="12.5" ry="12.5" style="stroke:#181818;stroke-width:0.5;" width="98" x="114" y="891.8938"/><line style="stroke:#181818;stroke-width:0.5;" x1="114" x2="212" y1="918.1906" y2="918.1906"/><text fill="#000000" font-family="sans-serif" font-size="14" lengthAdjust="spacing" textLength="78" x="124" y="909.8889">CR_Serving</text></g><ellipse cx="139" cy="211.2437" fill="#222222" rx="10" ry="10" style="stroke:#222222;stroke-width:1.0;"/><g id="ShoppingCenter.SC_Closed"><rect fill="#F1F1F1" height="50" rx="12.5" ry="12.5" style="stroke:#181818;stroke-width:0.5;" width="94" x="125" y="440.8937"/><line style="stroke:#181818;stroke-width:0.5;" x1="125" x2="219" y1="467.1906" y2="467.1906"/><text fill="#000000" font-family="sans-serif" font-size="14" lengthAdjust="spacing" textLength="74" x="135" y="458.8889">SC_Closed</text></g><ellipse cx="248" cy="465.8937" fill="none" rx="11" ry="11" style="stroke:#222222;stroke-width:1.0;"/><ellipse cx="248" cy="465.8937" fill="#222222" rx="6" ry="6" style="stroke:#222222;stroke-width:1.0;"/><path d="M269,82.5938 L401,82.5938 A12.5,12.5 0 0 1 413.5,95.0938 L413.5,108.8906 L256.5,108.8906 L256.5,95.0938 A12.5,12.5 0 0 1 269,82.5938 " fill="#F1F1F1" style="stroke:#F1F1F1;stroke-width:1.0;"/><rect fill="none" height="257.2969" rx="12.5" ry="12.5" style="stroke:#181818;stroke-width:0.5;" width="157" x="256.5" y="82.5938"/><line style="stroke:#181818;stroke-width:0.5;" x1="256.5" x2="413.5" y1="108.8906" y2="108.8906"/><text fill="#000000" font-family="sans-serif" font-size="14" lengthAdjust="spacing" textLength="82" x="294" y="100.5889">SC_Opened</text><ellipse cx="336.5" cy="129.8906" fill="#222222" rx="10" ry="10" style="stroke:#222222;stroke-width:1.0;"/><g id="ShoppingCenter.SC_Opened.SC_OpenDoors"><rect fill="#F1F1F1" height="50" rx="12.5" ry="12.5" style="stroke:#181818;stroke-width:0.5;" width="126" x="273.5" y="176.8906"/><line style="stroke:#181818;stroke-width:0.5;" x1="273.5" x2="399.5" y1="203.1875" y2="203.1875"/><text fill="#000000" font-family="sans-serif" font-size="14" lengthAdjust="spacing" textLength="106" x="283.5" y="194.8857">SC_OpenDoors</text></g><g id="ShoppingCenter.SC_Opened.SC_ClosedDoors"><rect fill="#F1F1F1" height="50" rx="12.5" ry="12.5" style="stroke:#181818;stroke-width:0.5;" width="136" x="268.5" y="279.8906"/><line style="stroke:#181818;stroke-width:0.5;" x1="268.5" x2="404.5" y1="306.1875" y2="306.1875"/><text fill="#000000" font-family="sans-serif" font-size="14" lengthAdjust="spacing" textLength="116" x="278.5" y="297.8857">SC_ClosedDoors</text></g><!--link *start*SC_Opened to SC_OpenDoors--><g id="link_*start*SC_Opened_SC_OpenDoors"><path d="M336.5,140.3306 C336.5,149.5906 336.5,158.0806 336.5,170.5706 " fill="none" id="*start*SC_Opened-to-SC_OpenDoors" style="stroke:#181818;stroke-width:1.0;"/><polygon fill="#181818" points="336.5,176.5706,340.5,167.5706,336.5,171.5706,332.5,167.5706,336.5,176.5706" style="stroke:#181818;stroke-width:1.0;"/></g><!--link SC_OpenDoors to SC_ClosedDoors--><g id="link_SC_OpenDoors_SC_ClosedDoors"><path d="M336.5,227.3406 C336.5,243.2206 336.5,257.8306 336.5,273.6706 " fill="none" id="SC_OpenDoors-to-SC_ClosedDoors" style="stroke:#181818;stroke-width:1.0;"/><polygon fill="#181818" points="336.5,279.6706,340.5,270.6706,336.5,274.6706,332.5,270.6706,336.5,279.6706" style="stroke:#181818;stroke-width:1.0;"/><text fill="#000000" font-family="sans-serif" font-size="13" lengthAdjust="spacing" textLength="53" x="337.5" y="257.9575">8:40 pm</text></g><!--link *start*ShoppingCenter to SC_Closed--><g id="link_*start*ShoppingCenter_SC_Closed"><path d="M139.18,221.5637 C139.81,248.0637 142.48,326.0938 153,389.8937 C155.82,406.9938 159.0037,420.1256 163.0737,434.6756 " fill="none" id="*start*ShoppingCenter-to-SC_Closed" style="stroke:#181818;stroke-width:1.0;"/><polygon fill="#181818" points="164.69,440.4537,166.1177,430.7089,163.3431,435.6386,158.4134,432.864,164.69,440.4537" style="stroke:#181818;stroke-width:1.0;"/></g><!--link SC_Closed to *end*ShoppingCenter--><g id="link_SC_Closed_*end*ShoppingCenter"><path d="M219.5,465.8937 C225.29,465.8937 225.08,465.8937 230.87,465.8937 " fill="none" id="SC_Closed-to-*end*ShoppingCenter" style="stroke:#181818;stroke-width:1.0;"/><polygon fill="#181818" points="236.87,465.8937,227.87,461.8937,231.87,465.8937,227.87,469.8937,236.87,465.8937" style="stroke:#181818;stroke-width:1.0;"/></g><!--link SC_Closed to SC_Opened--><g id="link_SC_Closed_SC_Opened"><path d="M186.45,440.6537 C196.36,426.1038 210.81,408.4237 228,397.8937 C241.61,389.5537 250.85,400.2338 263,389.8937 C272.63,381.6937 280.5362,368.2328 290.1962,345.5828 " fill="none" id="SC_Closed-to-SC_Opened" style="stroke:#181818;stroke-width:1.0;"/><polygon fill="#181818" points="292.55,340.0637,285.3399,346.7731,290.5885,344.6629,292.6986,349.9115,292.55,340.0637" style="stroke:#181818;stroke-width:1.0;"/><text fill="#000000" font-family="sans-serif" font-size="13" lengthAdjust="spacing" textLength="33" x="284" y="378.4606">9 am</text></g><!--link SC_Opened to SC_Closed--><g id="link_SC_Opened_SC_Closed"><path d="M256.39,259.2537 C222.85,283.9738 187.27,317.5537 169,357.8937 C157.04,384.3037 159.5331,412.3826 164.2731,434.8826 " fill="none" id="SC_Opened-to-SC_Closed" style="stroke:#181818;stroke-width:1.0;"/><polygon fill="#181818" points="165.51,440.7537,167.5688,431.1225,164.4793,435.8611,159.7406,432.7716,165.51,440.7537" style="stroke:#181818;stroke-width:1.0;"/><text fill="#000000" font-family="sans-serif" font-size="13" lengthAdjust="spacing" textLength="88" x="170" y="370.9606">no customers</text><text fill="#000000" font-family="sans-serif" font-size="13" lengthAdjust="spacing" textLength="20" x="204" y="386.0935">left</text></g><!--link Q_Empty to Q_Receiving--><g id="link_Q_Empty_Q_Receiving"><path d="M488.53,491.1138 C487.07,496.8837 485.75,503.0637 485,508.8937 C480.57,543.3138 488.4442,577.0483 496.3442,601.7783 " fill="none" id="Q_Empty-to-Q_Receiving" style="stroke:#181818;stroke-width:1.0;"/><polygon fill="#181818" points="498.17,607.4938,499.2416,597.7034,496.6485,602.7309,491.621,600.1378,498.17,607.4938" style="stroke:#181818;stroke-width:1.0;"/><text fill="#000000" font-family="sans-serif" font-size="13" lengthAdjust="spacing" textLength="61" x="486" y="521.9606">customer</text><text fill="#000000" font-family="sans-serif" font-size="13" lengthAdjust="spacing" textLength="43" x="495" y="537.0935">arrives</text></g><!--link Q_Receiving to Q_Empty--><g id="link_Q_Receiving_Q_Empty"><path d="M525.88,607.6338 C543.13,582.3138 563.72,541.7937 548,508.8937 C544.85,502.2937 544.4344,500.5526 539.0644,495.4126 " fill="none" id="Q_Receiving-to-Q_Empty" style="stroke:#181818;stroke-width:1.0;"/><polygon fill="#181818" points="534.73,491.2637,538.4658,500.3766,538.342,494.7211,543.9975,494.5973,534.73,491.2637" style="stroke:#181818;stroke-width:1.0;"/><text fill="#000000" font-family="sans-serif" font-size="13" lengthAdjust="spacing" textLength="88" x="554" y="521.9606">no customers</text><text fill="#000000" font-family="sans-serif" font-size="13" lengthAdjust="spacing" textLength="20" x="588" y="537.0935">left</text></g><!--link Q_Receiving to Q_Receiving--><g id="link_Q_Receiving_Q_Receiving"><path d="M559.88,619.8138 C570.18,621.3338 577.5,625.6937 577.5,632.8938 C577.5,640.0938 576.1157,643.5778 565.8157,645.0978 " fill="none" id="Q_Receiving-to-Q_Receiving" style="stroke:#181818;stroke-width:1.0;"/><polygon fill="#181818" points="559.88,645.9737,569.3675,648.617,564.8264,645.2438,568.1996,640.7027,559.88,645.9737" style="stroke:#181818;stroke-width:1.0;"/><text fill="#000000" font-family="sans-serif" font-size="13" lengthAdjust="spacing" textLength="68" x="590.5" y="629.9606">customers</text><text fill="#000000" font-family="sans-serif" font-size="13" lengthAdjust="spacing" textLength="82" x="583.5" y="645.0935">keep arriving</text></g><!--link SC_Opened to Q_Empty--><g id="link_SC_Opened_Q_Empty"><path d="M413.85,335.9838 C439.19,375.7338 461.5161,410.7735 477.2461,435.4635 " fill="none" id="SC_Opened-to-Q_Empty" style="stroke:#181818;stroke-width:1.0;"/><polygon fill="#181818" points="480.47,440.5237,479.0077,430.7841,477.7834,436.3068,472.2606,435.0826,480.47,440.5237" style="stroke:#181818;stroke-width:1.0;"/><text fill="#000000" font-family="sans-serif" font-size="13" lengthAdjust="spacing" textLength="33" x="444" y="378.4606">9 am</text></g><!--reverse link SC_Opened to CashRegister--><g id="link_SC_Opened_CashRegister"><path d="M332.9419,346.188 C335.0419,394.258 340.78,442.8738 355,490.8937 C363.36,519.1238 377.63,520.9837 387,548.8938 C388.4363,553.1725 389.7006,557.632 390.8137,562.1658 C390.9528,562.7325 391.0896,563.3004 391.224,563.8693 C391.2913,564.1537 391.3579,564.4383 391.424,564.7232 " fill="none" id="SC_Opened-backto-CashRegister" style="stroke:#181818;stroke-width:1.0;"/><polygon fill="#181818" points="332.68,340.1937,329.0766,349.3598,332.8982,345.189,337.069,349.0106,332.68,340.1937" style="stroke:#181818;stroke-width:1.0;"/><text fill="#000000" font-family="sans-serif" font-size="13" lengthAdjust="spacing" textLength="86" x="356" y="462.9606">all customers</text><text fill="#000000" font-family="sans-serif" font-size="13" lengthAdjust="spacing" textLength="43" x="377.5" y="478.0935">served</text></g><!--link CR_Closed to CR_Empty--><g id="link_CR_Closed_CR_Empty"><path d="M112.06,649.2137 C92.97,657.9337 72.97,670.9938 62,689.8938 C54.86,702.1937 54.71,709.6837 62,721.8938 C88.57,766.3838 139.469,788.6833 179.849,800.6933 " fill="none" id="CR_Closed-to-CR_Empty" style="stroke:#181818;stroke-width:1.0;"/><polygon fill="#181818" points="185.6,802.4038,178.1138,796.004,180.8075,800.9783,175.8331,803.672,185.6,802.4038" style="stroke:#181818;stroke-width:1.0;"/><text fill="#000000" font-family="sans-serif" font-size="13" lengthAdjust="spacing" textLength="145" x="63" y="710.4606">(queue/(nCRO+1)) &gt; 5</text></g><!--link CR_Empty to CR_Closed--><g id="link_CR_Empty_CR_Closed"><path d="M230.46,788.6038 C229.05,762.9137 224.31,721.7638 209,689.8938 C203.46,678.3638 198.9531,671.7894 190.5031,662.6494 " fill="none" id="CR_Empty-to-CR_Closed" style="stroke:#181818;stroke-width:1.0;"/><polygon fill="#181818" points="186.43,658.2438,189.6025,667.5677,189.8242,661.9151,195.4767,662.1369,186.43,658.2438" style="stroke:#181818;stroke-width:1.0;"/><text fill="#000000" font-family="sans-serif" font-size="13" lengthAdjust="spacing" textLength="78" x="253" y="702.9606">shift change</text><text fill="#000000" font-family="sans-serif" font-size="13" lengthAdjust="spacing" textLength="142" x="221" y="718.0935">queue &lt; ((nCRO-1)*5)</text></g><!--link CR_Empty to CR_Serving--><g id="link_CR_Empty_CR_Serving"><path d="M185.58,828.8238 C172.44,835.2037 159.6,844.2438 152,856.8938 C145.77,867.2538 145.574,874.6446 149.264,885.8546 " fill="none" id="CR_Empty-to-CR_Serving" style="stroke:#181818;stroke-width:1.0;"/><polygon fill="#181818" points="151.14,891.5537,152.1255,881.7543,149.5767,886.8044,144.5265,884.2557,151.14,891.5537" style="stroke:#181818;stroke-width:1.0;"/><text fill="#000000" font-family="sans-serif" font-size="13" lengthAdjust="spacing" textLength="66" x="153" y="869.9606">items&gt;=5</text></g><!--link CR_Serving to CR_Empty--><g id="link_CR_Serving_CR_Empty"><path d="M204.33,891.4637 C210.35,886.3338 215.89,880.4537 220,873.8938 C226.42,863.6538 228.6378,856.5493 229.8478,845.3093 " fill="none" id="CR_Serving-to-CR_Empty" style="stroke:#181818;stroke-width:1.0;"/><polygon fill="#181818" points="230.49,839.3438,225.5497,847.8639,229.9548,844.315,233.5037,848.7202,230.49,839.3438" style="stroke:#181818;stroke-width:1.0;"/><text fill="#000000" font-family="sans-serif" font-size="13" lengthAdjust="spacing" textLength="55" x="229" y="869.9606">items=0</text></g><!--link CR_Serving to CR_Serving--><g id="link_CR_Serving_CR_Serving"><path d="M212.38,907.5738 C222.63,908.5537 230,911.6637 230,916.8938 C230,922.1238 228.6028,924.6627 218.3528,925.6427 " fill="none" id="CR_Serving-to-CR_Serving" style="stroke:#181818;stroke-width:1.0;"/><polygon fill="#181818" points="212.38,926.2137,221.7198,929.339,217.3573,925.7379,220.9584,921.3753,212.38,926.2137" style="stroke:#181818;stroke-width:1.0;"/><text fill="#000000" font-family="sans-serif" font-size="13" lengthAdjust="spacing" textLength="85" x="236" y="921.4606">packItems&gt;1</text></g><!--link Q_Receiving to CR_Empty--><g id="link_Q_Receiving_CR_Empty"><path d="M482.81,658.1138 C460.17,679.0638 424.32,708.1138 387,721.8938 C364.63,730.1538 300.25,717.3038 280,729.8938 C258.82,743.0538 247.8055,763.3953 240.5355,782.7953 " fill="none" id="Q_Receiving-to-CR_Empty" style="stroke:#181818;stroke-width:1.0;"/><polygon fill="#181818" points="238.43,788.4137,245.3338,781.3897,240.1846,783.7317,237.8426,778.5824,238.43,788.4137" style="stroke:#181818;stroke-width:1.0;"/></g><!--link SC_Opened to CR_Opened--><g id="link_SC_Opened_CR_Opened"><path d="M413.62,229.2138 C497.11,251.8937 624.87,301.0037 683,397.8937 C747.93,506.1337 754.01,577.5437 683,681.8938 C638.73,746.9537 556.675,779.7013 485.22,796.185 C449.4925,804.4269 416.415,808.6028 392.0356,810.7189 C379.8459,811.777 369.8308,812.32 362.7462,812.5989 C361.8606,812.6338 361.0208,812.6645 360.2283,812.6916 C359.832,812.7052 365.4446,812.528 365.0721,812.5398 " fill="none" id="SC_Opened-to-CR_Opened" style="stroke:#181818;stroke-width:1.0;"/><polygon fill="#181818" points="359.0751,812.7296,368.1972,816.4428,364.0726,812.5714,367.9441,808.4468,359.0751,812.7296" style="stroke:#181818;stroke-width:1.0;"/><text fill="#000000" font-family="sans-serif" font-size="13" lengthAdjust="spacing" textLength="33" x="734" y="529.4606">9 am</text></g><!--SRC=[TLBVRu8m47xlNt6FuaAcoKmsCdcfMx8d8ppEnJJiX4OehAqcY_5_NwcbWbEUuExxSNSVckiI8TLC8omuooMh80HAwJjHjfWMTTDmaLCK6YKSoUVu2y8mXfHkQ5ah_2R-3KB9yqARfW4HC4-lTQOi6nJcAu8NO9M5E1lVEjfgpwMjB-fQgaxH5uPps584pz7J19gg3xxOks4Y43LaUwNh2gLQYnAtsX9EXBYzLtlSenjcjNch6lrhHLQR13Fa1tEIo4ki1PEI7r0vk8SuYgNVDVsFls5X23l41goHwTpOp_lOsvfLA5D5WZbNRN9XwzSF8G9MbdrzXV9WudG7692FlQXeqWK_g9r5pq0FiNEPBpVOwAUzwkD8q6JvC0q2Y67M4Iudzkm8LC6t6hA2YHpNmhBX5KPM89m6urbmavwQJUprkCPAnNDluXfNOrdKV787vCKQbkq-hE3K_ImdSfrT9qg6qVZxk738wGy0]--></g></svg>