<?xml version="1.0" encoding="us-ascii" standalone="no"?><svg xmlns="http://www.w3.org/2000/svg" xmlns:xlink="http://www.w3.org/1999/xlink" contentStyleType="text/css" height="765px" preserveAspectRatio="none" style="width:245px;height:765px;background:#FFFFFF;" version="1.1" viewBox="0 0 245 765" width="245px" zoomAndPan="magnify"><defs/><g><!--class mundo--><g id="elem_mundo"><rect codeLine="1" fill="#F1F1F1" height="96.8906" id="mundo" rx="2.5" ry="2.5" style="stroke:#181818;stroke-width:0.5;" width="104" x="125" y="7"/><ellipse cx="150.35" cy="23" fill="#ADD1B2" rx="11" ry="11" style="stroke:#181818;stroke-width:1.0;"/><path d="M152.6938,18.6719 C151.7563,18.2344 151.1625,18.0938 150.2875,18.0938 C147.6625,18.0938 145.6625,20.1719 145.6625,22.8906 L145.6625,24.0156 C145.6625,26.5938 147.7719,28.4844 150.6625,28.4844 C151.8813,28.4844 153.0375,28.1875 153.7875,27.6406 C154.3656,27.2344 154.6938,26.7813 154.6938,26.3906 C154.6938,25.9375 154.3031,25.5469 153.8344,25.5469 C153.6156,25.5469 153.4125,25.625 153.225,25.8125 C152.7719,26.2969 152.7719,26.2969 152.5844,26.3906 C152.1625,26.6563 151.475,26.7813 150.7094,26.7813 C148.6625,26.7813 147.3656,25.6875 147.3656,23.9844 L147.3656,22.8906 C147.3656,21.1094 148.6156,19.7969 150.35,19.7969 C150.9281,19.7969 151.5375,19.9531 152.0063,20.2031 C152.4906,20.4844 152.6625,20.7031 152.7563,21.1094 C152.8188,21.5156 152.85,21.6406 152.9906,21.7656 C153.1313,21.9063 153.3656,22.0156 153.5844,22.0156 C153.85,22.0156 154.1156,21.875 154.2875,21.6563 C154.3969,21.5 154.4281,21.3125 154.4281,20.8906 L154.4281,19.4688 C154.4281,19.0313 154.4125,18.9063 154.3188,18.75 C154.1625,18.4844 153.8813,18.3438 153.5844,18.3438 C153.2875,18.3438 153.0844,18.4375 152.8656,18.75 L152.6938,18.6719 Z " fill="#000000"/><text fill="#000000" font-family="sans-serif" font-size="14" lengthAdjust="spacing" textLength="49" x="166.65" y="27.8467">mundo</text><line style="stroke:#181818;stroke-width:0.5;" x1="126" x2="228" y1="39" y2="39"/><ellipse cx="136" cy="52.6484" fill="none" rx="3" ry="3" style="stroke:#038048;stroke-width:1.0;"/><text fill="#000000" font-family="sans-serif" font-size="14" lengthAdjust="spacing" textLength="53" x="145" y="55.9951">tiempo</text><ellipse cx="136" cy="68.9453" fill="none" rx="3" ry="3" style="stroke:#038048;stroke-width:1.0;"/><text fill="#000000" font-family="sans-serif" font-size="14" lengthAdjust="spacing" textLength="78" x="145" y="72.292">personajes</text><ellipse cx="136" cy="85.2422" fill="none" rx="3" ry="3" style="stroke:#038048;stroke-width:1.0;"/><text fill="#000000" font-family="sans-serif" font-size="14" lengthAdjust="spacing" textLength="40" x="145" y="88.5889">mapa</text><line style="stroke:#181818;stroke-width:0.5;" x1="126" x2="228" y1="95.8906" y2="95.8906"/></g><!--class mapa--><g id="elem_mapa"><rect codeLine="6" fill="#F1F1F1" height="64.2969" id="mapa" rx="2.5" ry="2.5" style="stroke:#181818;stroke-width:0.5;" width="72" x="74" y="164"/><ellipse cx="89" cy="180" fill="#ADD1B2" rx="11" ry="11" style="stroke:#181818;stroke-width:1.0;"/><path d="M91.3438,175.6719 C90.4063,175.2344 89.8125,175.0938 88.9375,175.0938 C86.3125,175.0938 84.3125,177.1719 84.3125,179.8906 L84.3125,181.0156 C84.3125,183.5938 86.4219,185.4844 89.3125,185.4844 C90.5313,185.4844 91.6875,185.1875 92.4375,184.6406 C93.0156,184.2344 93.3438,183.7813 93.3438,183.3906 C93.3438,182.9375 92.9531,182.5469 92.4844,182.5469 C92.2656,182.5469 92.0625,182.625 91.875,182.8125 C91.4219,183.2969 91.4219,183.2969 91.2344,183.3906 C90.8125,183.6563 90.125,183.7813 89.3594,183.7813 C87.3125,183.7813 86.0156,182.6875 86.0156,180.9844 L86.0156,179.8906 C86.0156,178.1094 87.2656,176.7969 89,176.7969 C89.5781,176.7969 90.1875,176.9531 90.6563,177.2031 C91.1406,177.4844 91.3125,177.7031 91.4063,178.1094 C91.4688,178.5156 91.5,178.6406 91.6406,178.7656 C91.7813,178.9063 92.0156,179.0156 92.2344,179.0156 C92.5,179.0156 92.7656,178.875 92.9375,178.6563 C93.0469,178.5 93.0781,178.3125 93.0781,177.8906 L93.0781,176.4688 C93.0781,176.0313 93.0625,175.9063 92.9688,175.75 C92.8125,175.4844 92.5313,175.3438 92.2344,175.3438 C91.9375,175.3438 91.7344,175.4375 91.5156,175.75 L91.3438,175.6719 Z " fill="#000000"/><text fill="#000000" font-family="sans-serif" font-size="14" lengthAdjust="spacing" textLength="40" x="103" y="184.8467">mapa</text><line style="stroke:#181818;stroke-width:0.5;" x1="75" x2="145" y1="196" y2="196"/><ellipse cx="85" cy="209.6484" fill="none" rx="3" ry="3" style="stroke:#038048;stroke-width:1.0;"/><text fill="#000000" font-family="sans-serif" font-size="14" lengthAdjust="spacing" textLength="31" x="94" y="212.9951">tiles</text><line style="stroke:#181818;stroke-width:0.5;" x1="75" x2="145" y1="220.2969" y2="220.2969"/></g><!--class tiles--><g id="elem_tiles"><rect codeLine="9" fill="#F1F1F1" height="64.2969" id="tiles" rx="2.5" ry="2.5" style="stroke:#181818;stroke-width:0.5;" width="162" x="7" y="288"/><ellipse cx="68.25" cy="304" fill="#ADD1B2" rx="11" ry="11" style="stroke:#181818;stroke-width:1.0;"/><path d="M70.5938,299.6719 C69.6563,299.2344 69.0625,299.0938 68.1875,299.0938 C65.5625,299.0938 63.5625,301.1719 63.5625,303.8906 L63.5625,305.0156 C63.5625,307.5938 65.6719,309.4844 68.5625,309.4844 C69.7813,309.4844 70.9375,309.1875 71.6875,308.6406 C72.2656,308.2344 72.5938,307.7813 72.5938,307.3906 C72.5938,306.9375 72.2031,306.5469 71.7344,306.5469 C71.5156,306.5469 71.3125,306.625 71.125,306.8125 C70.6719,307.2969 70.6719,307.2969 70.4844,307.3906 C70.0625,307.6563 69.375,307.7813 68.6094,307.7813 C66.5625,307.7813 65.2656,306.6875 65.2656,304.9844 L65.2656,303.8906 C65.2656,302.1094 66.5156,300.7969 68.25,300.7969 C68.8281,300.7969 69.4375,300.9531 69.9063,301.2031 C70.3906,301.4844 70.5625,301.7031 70.6563,302.1094 C70.7188,302.5156 70.75,302.6406 70.8906,302.7656 C71.0313,302.9063 71.2656,303.0156 71.4844,303.0156 C71.75,303.0156 72.0156,302.875 72.1875,302.6563 C72.2969,302.5 72.3281,302.3125 72.3281,301.8906 L72.3281,300.4688 C72.3281,300.0313 72.3125,299.9063 72.2188,299.75 C72.0625,299.4844 71.7813,299.3438 71.4844,299.3438 C71.1875,299.3438 70.9844,299.4375 70.7656,299.75 L70.5938,299.6719 Z " fill="#000000"/><text fill="#000000" font-family="sans-serif" font-size="14" lengthAdjust="spacing" textLength="31" x="88.75" y="308.8467">tiles</text><line style="stroke:#181818;stroke-width:0.5;" x1="8" x2="168" y1="320" y2="320"/><ellipse cx="18" cy="333.6484" fill="none" rx="3" ry="3" style="stroke:#038048;stroke-width:1.0;"/><text fill="#000000" font-family="sans-serif" font-size="14" lengthAdjust="spacing" textLength="136" x="27" y="336.9951">efectoEnVelocidad</text><line style="stroke:#181818;stroke-width:0.5;" x1="8" x2="168" y1="344.2969" y2="344.2969"/></g><!--class personaje--><g id="elem_personaje"><rect codeLine="12" fill="#F1F1F1" height="96.8906" id="personaje" rx="2.5" ry="2.5" style="stroke:#181818;stroke-width:0.5;" width="147" x="81.5" y="553"/><ellipse cx="116.3" cy="569" fill="#A9DCDF" rx="11" ry="11" style="stroke:#181818;stroke-width:1.0;"/><path d="M118.3781,570.8125 L118.7688,571.7969 L118.3781,571.7969 C117.925,571.7969 117.8156,571.8125 117.6594,571.9219 C117.4094,572.0781 117.2531,572.3594 117.2531,572.6563 C117.2531,572.9219 117.3938,573.1719 117.6125,573.3281 C117.7531,573.4531 117.9563,573.5 118.3781,573.5 L120.7375,573.5 C121.0969,573.5 121.3156,573.4688 121.4563,573.375 C121.7063,573.2344 121.8625,572.9375 121.8625,572.6563 C121.8625,572.375 121.7219,572.125 121.5031,571.9688 C121.3313,571.8281 121.175,571.7969 120.7063,571.7969 L117.3156,563.5938 L113.6438,563.5938 C113.1906,563.5938 113.0656,563.6094 112.9094,563.7031 C112.6594,563.875 112.5031,564.1563 112.5031,564.4375 C112.5031,564.7188 112.6438,564.9688 112.8625,565.1406 C113.0344,565.25 113.2063,565.2813 113.6438,565.2813 L114.7219,565.2813 L112.0813,571.7969 C111.6594,571.7969 111.5031,571.8125 111.3469,571.9219 C111.0969,572.0781 110.9406,572.3594 110.9406,572.6563 C110.9406,573.2188 111.3156,573.5 112.0656,573.5 L114.3313,573.5 C114.6906,573.5 114.9094,573.4688 115.0344,573.375 C115.3,573.2344 115.4406,572.9375 115.4406,572.6563 C115.4406,572.375 115.3156,572.125 115.0969,571.9531 C114.925,571.8281 114.7844,571.7969 114.3313,571.7969 L113.9406,571.7969 L114.3313,570.8125 L118.3781,570.8125 Z M117.675,569.1094 L115.0031,569.1094 L116.3469,565.8438 L117.675,569.1094 Z " fill="#000000"/><text fill="#000000" font-family="sans-serif" font-size="14" font-style="italic" lengthAdjust="spacing" textLength="71" x="134.7" y="573.8467">personaje</text><line style="stroke:#181818;stroke-width:0.5;" x1="82.5" x2="227.5" y1="585" y2="585"/><ellipse cx="92.5" cy="598.6484" fill="none" rx="3" ry="3" style="stroke:#038048;stroke-width:1.0;"/><text fill="#000000" font-family="sans-serif" font-size="14" lengthAdjust="spacing" textLength="68" x="101.5" y="601.9951">velocidad</text><ellipse cx="92.5" cy="614.9453" fill="none" rx="3" ry="3" style="stroke:#038048;stroke-width:1.0;"/><text fill="#000000" font-family="sans-serif" font-size="14" lengthAdjust="spacing" textLength="121" x="101.5" y="618.292">transporteEnUso</text><ellipse cx="92.5" cy="631.2422" fill="none" rx="3" ry="3" style="stroke:#038048;stroke-width:1.0;"/><text fill="#000000" font-family="sans-serif" font-size="14" lengthAdjust="spacing" textLength="60" x="101.5" y="634.5889">posici&#243;n</text><line style="stroke:#181818;stroke-width:0.5;" x1="82.5" x2="227.5" y1="641.8906" y2="641.8906"/></g><!--class transporte--><g id="elem_transporte"><rect codeLine="17" fill="#F1F1F1" height="80.5938" id="transporte" rx="2.5" ry="2.5" style="stroke:#181818;stroke-width:0.5;" width="162" x="7" y="412"/><ellipse cx="45.4" cy="428" fill="#ADD1B2" rx="11" ry="11" style="stroke:#181818;stroke-width:1.0;"/><path d="M47.7438,423.6719 C46.8063,423.2344 46.2125,423.0938 45.3375,423.0938 C42.7125,423.0938 40.7125,425.1719 40.7125,427.8906 L40.7125,429.0156 C40.7125,431.5938 42.8219,433.4844 45.7125,433.4844 C46.9313,433.4844 48.0875,433.1875 48.8375,432.6406 C49.4156,432.2344 49.7438,431.7813 49.7438,431.3906 C49.7438,430.9375 49.3531,430.5469 48.8844,430.5469 C48.6656,430.5469 48.4625,430.625 48.275,430.8125 C47.8219,431.2969 47.8219,431.2969 47.6344,431.3906 C47.2125,431.6563 46.525,431.7813 45.7594,431.7813 C43.7125,431.7813 42.4156,430.6875 42.4156,428.9844 L42.4156,427.8906 C42.4156,426.1094 43.6656,424.7969 45.4,424.7969 C45.9781,424.7969 46.5875,424.9531 47.0563,425.2031 C47.5406,425.4844 47.7125,425.7031 47.8063,426.1094 C47.8688,426.5156 47.9,426.6406 48.0406,426.7656 C48.1813,426.9063 48.4156,427.0156 48.6344,427.0156 C48.9,427.0156 49.1656,426.875 49.3375,426.6563 C49.4469,426.5 49.4781,426.3125 49.4781,425.8906 L49.4781,424.4688 C49.4781,424.0313 49.4625,423.9063 49.3688,423.75 C49.2125,423.4844 48.9313,423.3438 48.6344,423.3438 C48.3375,423.3438 48.1344,423.4375 47.9156,423.75 L47.7438,423.6719 Z " fill="#000000"/><text fill="#000000" font-family="sans-serif" font-size="14" lengthAdjust="spacing" textLength="78" x="64.6" y="432.8467">transporte</text><line style="stroke:#181818;stroke-width:0.5;" x1="8" x2="168" y1="444" y2="444"/><ellipse cx="18" cy="457.6484" fill="none" rx="3" ry="3" style="stroke:#038048;stroke-width:1.0;"/><text fill="#000000" font-family="sans-serif" font-size="14" lengthAdjust="spacing" textLength="93" x="27" y="460.9951">tilesPasables</text><ellipse cx="18" cy="473.9453" fill="none" rx="3" ry="3" style="stroke:#038048;stroke-width:1.0;"/><text fill="#000000" font-family="sans-serif" font-size="14" lengthAdjust="spacing" textLength="136" x="27" y="477.292">efectoEnVelocidad</text><line style="stroke:#181818;stroke-width:0.5;" x1="8" x2="168" y1="484.5938" y2="484.5938"/></g><!--class jugable--><g id="elem_jugable"><rect codeLine="21" fill="#F1F1F1" height="48" id="jugable" rx="2.5" ry="2.5" style="stroke:#181818;stroke-width:0.5;" width="84" x="60" y="710"/><ellipse cx="75" cy="726" fill="#ADD1B2" rx="11" ry="11" style="stroke:#181818;stroke-width:1.0;"/><path d="M77.3438,721.6719 C76.4063,721.2344 75.8125,721.0938 74.9375,721.0938 C72.3125,721.0938 70.3125,723.1719 70.3125,725.8906 L70.3125,727.0156 C70.3125,729.5938 72.4219,731.4844 75.3125,731.4844 C76.5313,731.4844 77.6875,731.1875 78.4375,730.6406 C79.0156,730.2344 79.3438,729.7813 79.3438,729.3906 C79.3438,728.9375 78.9531,728.5469 78.4844,728.5469 C78.2656,728.5469 78.0625,728.625 77.875,728.8125 C77.4219,729.2969 77.4219,729.2969 77.2344,729.3906 C76.8125,729.6563 76.125,729.7813 75.3594,729.7813 C73.3125,729.7813 72.0156,728.6875 72.0156,726.9844 L72.0156,725.8906 C72.0156,724.1094 73.2656,722.7969 75,722.7969 C75.5781,722.7969 76.1875,722.9531 76.6563,723.2031 C77.1406,723.4844 77.3125,723.7031 77.4063,724.1094 C77.4688,724.5156 77.5,724.6406 77.6406,724.7656 C77.7813,724.9063 78.0156,725.0156 78.2344,725.0156 C78.5,725.0156 78.7656,724.875 78.9375,724.6563 C79.0469,724.5 79.0781,724.3125 79.0781,723.8906 L79.0781,722.4688 C79.0781,722.0313 79.0625,721.9063 78.9688,721.75 C78.8125,721.4844 78.5313,721.3438 78.2344,721.3438 C77.9375,721.3438 77.7344,721.4375 77.5156,721.75 L77.3438,721.6719 Z " fill="#000000"/><text fill="#000000" font-family="sans-serif" font-size="14" lengthAdjust="spacing" textLength="52" x="89" y="730.8467">jugable</text><line style="stroke:#181818;stroke-width:0.5;" x1="61" x2="143" y1="742" y2="742"/><line style="stroke:#181818;stroke-width:0.5;" x1="61" x2="143" y1="750" y2="750"/></g><!--class npc--><g id="elem_npc"><rect codeLine="22" fill="#F1F1F1" height="48" id="npc" rx="2.5" ry="2.5" style="stroke:#181818;stroke-width:0.5;" width="59" x="179.5" y="710"/><ellipse cx="194.5" cy="726" fill="#ADD1B2" rx="11" ry="11" style="stroke:#181818;stroke-width:1.0;"/><path d="M196.8438,721.6719 C195.9063,721.2344 195.3125,721.0938 194.4375,721.0938 C191.8125,721.0938 189.8125,723.1719 189.8125,725.8906 L189.8125,727.0156 C189.8125,729.5938 191.9219,731.4844 194.8125,731.4844 C196.0313,731.4844 197.1875,731.1875 197.9375,730.6406 C198.5156,730.2344 198.8438,729.7813 198.8438,729.3906 C198.8438,728.9375 198.4531,728.5469 197.9844,728.5469 C197.7656,728.5469 197.5625,728.625 197.375,728.8125 C196.9219,729.2969 196.9219,729.2969 196.7344,729.3906 C196.3125,729.6563 195.625,729.7813 194.8594,729.7813 C192.8125,729.7813 191.5156,728.6875 191.5156,726.9844 L191.5156,725.8906 C191.5156,724.1094 192.7656,722.7969 194.5,722.7969 C195.0781,722.7969 195.6875,722.9531 196.1563,723.2031 C196.6406,723.4844 196.8125,723.7031 196.9063,724.1094 C196.9688,724.5156 197,724.6406 197.1406,724.7656 C197.2813,724.9063 197.5156,725.0156 197.7344,725.0156 C198,725.0156 198.2656,724.875 198.4375,724.6563 C198.5469,724.5 198.5781,724.3125 198.5781,723.8906 L198.5781,722.4688 C198.5781,722.0313 198.5625,721.9063 198.4688,721.75 C198.3125,721.4844 198.0313,721.3438 197.7344,721.3438 C197.4375,721.3438 197.2344,721.4375 197.0156,721.75 L196.8438,721.6719 Z " fill="#000000"/><text fill="#000000" font-family="sans-serif" font-size="14" lengthAdjust="spacing" textLength="27" x="208.5" y="730.8467">npc</text><line style="stroke:#181818;stroke-width:0.5;" x1="180.5" x2="237.5" y1="742" y2="742"/><line style="stroke:#181818;stroke-width:0.5;" x1="180.5" x2="237.5" y1="750" y2="750"/></g><!--link mundo to mapa--><g id="link_mundo_mapa"><path codeLine="24" d="M153.942,104.164 C144.403,123.882 133.609,146.195 125.107,163.772 " fill="none" id="mundo-mapa" style="stroke:#181818;stroke-width:1.0;"/></g><!--link mapa to tiles--><g id="link_mapa_tiles"><path codeLine="25" d="M104.3915,228.101 C101.0816,246.457 96.9064,269.61 93.5982,287.955 " fill="none" id="mapa-tiles" style="stroke:#181818;stroke-width:1.0;"/></g><!--link mundo to personaje--><g id="link_mundo_personaje"><path codeLine="26" d="M182.967,104.273 C191.926,184.884 205.805,352.841 186,493 C183.174,513.002 177.527,534.494 171.819,552.964 " fill="none" id="mundo-personaje" style="stroke:#181818;stroke-width:1.0;stroke-dasharray:7.0,7.0;"/></g><!--link tiles to transporte--><g id="link_tiles_transporte"><path codeLine="27" d="M88,352.258 C88,370.054 88,392.529 88,411.589 " fill="none" id="tiles-transporte" style="stroke:#181818;stroke-width:1.0;"/></g><!--link transporte to personaje--><g id="link_transporte_personaje"><path codeLine="28" d="M106.1312,493.28 C114.502,511.647 124.508,533.599 133.279,552.843 " fill="none" id="transporte-personaje" style="stroke:#181818;stroke-width:1.0;"/></g><!--link personaje to jugable--><g id="link_personaje_jugable"><path codeLine="29" d="M135.566,650.352 C127.353,670.575 118.163,693.2029 111.478,709.6622 " fill="none" id="personaje-jugable" style="stroke:#181818;stroke-width:1.0;"/></g><!--link personaje to npc--><g id="link_personaje_npc"><path codeLine="30" d="M174.801,650.352 C183.169,670.575 192.532,693.2029 199.343,709.6622 " fill="none" id="personaje-npc" style="stroke:#181818;stroke-width:1.0;"/></g><!--SRC=[TOyn3iCW34LtJi5U9RV8tgNT7U9MH0b6c7I9UgeUeHUhWGRKeGlo_txOtsO1PhrkRg9TdNIqk7gImcDWSZ0ZYrZ1WtegKrWHkzA9NQHxs5bb7sze8WtkYWiPEy4a38mS0vYe2rodwxJqKK4P6i2nfn1nS1VEIOYjiU-NQwigqtASWM5CUVu4A3_dxPwe_T3E6wbLFbztNJaqFKcK-qglxrjcbHkPg45KArEZiUrIiR_hVqt9y040]--></g></svg>