<?xml version="1.0" encoding="UTF-8" standalone="no"?><svg xmlns="http://www.w3.org/2000/svg" xmlns:xlink="http://www.w3.org/1999/xlink" contentStyleType="text/css" height="708px" preserveAspectRatio="none" style="width:797px;height:708px;background:#FFFFFF;" version="1.1" viewBox="0 0 797 708" width="797px" zoomAndPan="magnify"><defs/><g><!--MD5=[883c1ea44c7257ac45dd5476f6348943]
class Ascensores--><g id="elem_Ascensores"><rect codeLine="1" fill="#F1F1F1" height="48" id="Ascensores" rx="2.5" ry="2.5" style="stroke:#181818;stroke-width:0.5;" width="106" x="299" y="7"/><ellipse cx="314" cy="23" fill="#ADD1B2" rx="11" ry="11" style="stroke:#181818;stroke-width:1.0;"/><path d="M316.7656,18.875 Q316.9219,18.6563 317.1094,18.5469 Q317.2969,18.4375 317.5156,18.4375 Q317.8906,18.4375 318.125,18.7031 Q318.3594,18.9531 318.3594,19.5625 L318.3594,21.0156 Q318.3594,21.625 318.125,21.8906 Q317.8906,22.1563 317.5156,22.1563 Q317.1719,22.1563 316.9688,21.9531 Q316.7656,21.7656 316.6563,21.25 Q316.6094,20.8906 316.4219,20.7031 Q316.0938,20.3281 315.4844,20.1094 Q314.875,19.8906 314.25,19.8906 Q313.4844,19.8906 312.8438,20.2188 Q312.2188,20.5469 311.7188,21.2969 Q311.2344,22.0469 311.2344,23.0781 L311.2344,24.1719 Q311.2344,25.4063 312.125,26.2344 Q313.0156,27.0469 314.6094,27.0469 Q315.5469,27.0469 316.2031,26.7969 Q316.5938,26.6406 317.0156,26.2031 Q317.2813,25.9375 317.4219,25.8594 Q317.5781,25.7813 317.7813,25.7813 Q318.1094,25.7813 318.3594,26.0469 Q318.625,26.2969 318.625,26.6406 Q318.625,26.9844 318.2813,27.3906 Q317.7813,27.9688 316.9844,28.2969 Q315.9063,28.75 314.6094,28.75 Q313.0938,28.75 311.8906,28.125 Q310.9063,27.625 310.2188,26.5625 Q309.5313,25.4844 309.5313,24.2031 L309.5313,23.0469 Q309.5313,21.7188 310.1406,20.5781 Q310.7656,19.4219 311.8594,18.8125 Q312.9531,18.1875 314.1875,18.1875 Q314.9219,18.1875 315.5625,18.3594 Q316.2188,18.5156 316.7656,18.875 Z " fill="#000000"/><text fill="#000000" font-family="sans-serif" font-size="14" lengthAdjust="spacing" textLength="74" x="328" y="28.7285">Ascensores</text><line style="stroke:#181818;stroke-width:0.5;" x1="300" x2="404" y1="39" y2="39"/><line style="stroke:#181818;stroke-width:0.5;" x1="300" x2="404" y1="47" y2="47"/></g><!--MD5=[d8d03b24c4544ca4a39c0d97aa14b2ef]
class Control del Ascensor--><g id="elem_Control del Ascensor"><rect codeLine="2" fill="#F1F1F1" height="65.6094" id="Control del Ascensor" rx="2.5" ry="2.5" style="stroke:#181818;stroke-width:0.5;" width="236" x="63" y="124.5"/><ellipse cx="110.75" cy="140.5" fill="#ADD1B2" rx="11" ry="11" style="stroke:#181818;stroke-width:1.0;"/><path d="M113.5156,136.375 Q113.6719,136.1563 113.8594,136.0469 Q114.0469,135.9375 114.2656,135.9375 Q114.6406,135.9375 114.875,136.2031 Q115.1094,136.4531 115.1094,137.0625 L115.1094,138.5156 Q115.1094,139.125 114.875,139.3906 Q114.6406,139.6563 114.2656,139.6563 Q113.9219,139.6563 113.7188,139.4531 Q113.5156,139.2656 113.4063,138.75 Q113.3594,138.3906 113.1719,138.2031 Q112.8438,137.8281 112.2344,137.6094 Q111.625,137.3906 111,137.3906 Q110.2344,137.3906 109.5938,137.7188 Q108.9688,138.0469 108.4688,138.7969 Q107.9844,139.5469 107.9844,140.5781 L107.9844,141.6719 Q107.9844,142.9063 108.875,143.7344 Q109.7656,144.5469 111.3594,144.5469 Q112.2969,144.5469 112.9531,144.2969 Q113.3438,144.1406 113.7656,143.7031 Q114.0313,143.4375 114.1719,143.3594 Q114.3281,143.2813 114.5313,143.2813 Q114.8594,143.2813 115.1094,143.5469 Q115.375,143.7969 115.375,144.1406 Q115.375,144.4844 115.0313,144.8906 Q114.5313,145.4688 113.7344,145.7969 Q112.6563,146.25 111.3594,146.25 Q109.8438,146.25 108.6406,145.625 Q107.6563,145.125 106.9688,144.0625 Q106.2813,142.9844 106.2813,141.7031 L106.2813,140.5469 Q106.2813,139.2188 106.8906,138.0781 Q107.5156,136.9219 108.6094,136.3125 Q109.7031,135.6875 110.9375,135.6875 Q111.6719,135.6875 112.3125,135.8594 Q112.9688,136.0156 113.5156,136.375 Z " fill="#000000"/><text fill="#000000" font-family="sans-serif" font-size="14" lengthAdjust="spacing" textLength="132" x="131.25" y="146.2285">Control del Ascensor</text><line style="stroke:#181818;stroke-width:0.5;" x1="64" x2="298" y1="156.5" y2="156.5"/><text fill="#000000" font-family="sans-serif" font-size="14" lengthAdjust="spacing" textLength="224" x="69" y="175.0332">Ascensor2 : Ascensor al que enviar</text><line style="stroke:#181818;stroke-width:0.5;" x1="64" x2="298" y1="182.1094" y2="182.1094"/></g><!--MD5=[5f3d38f7bf346f5a083444ab7b285c2a]
class Ascensor1--><g id="elem_Ascensor1"><rect codeLine="6" fill="#F1F1F1" height="100.8281" id="Ascensor1" rx="2.5" ry="2.5" style="stroke:#181818;stroke-width:0.5;" width="134" x="7" y="277"/><ellipse cx="37.75" cy="293" fill="#ADD1B2" rx="11" ry="11" style="stroke:#181818;stroke-width:1.0;"/><path d="M40.5156,288.875 Q40.6719,288.6563 40.8594,288.5469 Q41.0469,288.4375 41.2656,288.4375 Q41.6406,288.4375 41.875,288.7031 Q42.1094,288.9531 42.1094,289.5625 L42.1094,291.0156 Q42.1094,291.625 41.875,291.8906 Q41.6406,292.1563 41.2656,292.1563 Q40.9219,292.1563 40.7188,291.9531 Q40.5156,291.7656 40.4063,291.25 Q40.3594,290.8906 40.1719,290.7031 Q39.8438,290.3281 39.2344,290.1094 Q38.625,289.8906 38,289.8906 Q37.2344,289.8906 36.5938,290.2188 Q35.9688,290.5469 35.4688,291.2969 Q34.9844,292.0469 34.9844,293.0781 L34.9844,294.1719 Q34.9844,295.4063 35.875,296.2344 Q36.7656,297.0469 38.3594,297.0469 Q39.2969,297.0469 39.9531,296.7969 Q40.3438,296.6406 40.7656,296.2031 Q41.0313,295.9375 41.1719,295.8594 Q41.3281,295.7813 41.5313,295.7813 Q41.8594,295.7813 42.1094,296.0469 Q42.375,296.2969 42.375,296.6406 Q42.375,296.9844 42.0313,297.3906 Q41.5313,297.9688 40.7344,298.2969 Q39.6563,298.75 38.3594,298.75 Q36.8438,298.75 35.6406,298.125 Q34.6563,297.625 33.9688,296.5625 Q33.2813,295.4844 33.2813,294.2031 L33.2813,293.0469 Q33.2813,291.7188 33.8906,290.5781 Q34.5156,289.4219 35.6094,288.8125 Q36.7031,288.1875 37.9375,288.1875 Q38.6719,288.1875 39.3125,288.3594 Q39.9688,288.5156 40.5156,288.875 Z " fill="#000000"/><text fill="#000000" font-family="sans-serif" font-size="14" lengthAdjust="spacing" textLength="67" x="55.25" y="298.7285">Ascensor1</text><line style="stroke:#181818;stroke-width:0.5;" x1="8" x2="140" y1="309" y2="309"/><text fill="#000000" font-family="sans-serif" font-size="14" lengthAdjust="spacing" textLength="122" x="13" y="327.5332">Planta -1 : Posición</text><text fill="#000000" font-family="sans-serif" font-size="14" lengthAdjust="spacing" textLength="117" x="13" y="345.1426">Parado : Dirección</text><text fill="#000000" font-family="sans-serif" font-size="14" lengthAdjust="spacing" textLength="108" x="13" y="362.752">6 : Disponibilidad</text><line style="stroke:#181818;stroke-width:0.5;" x1="8" x2="140" y1="369.8281" y2="369.8281"/></g><!--MD5=[63f01298f5951ffaa42473d5d9b7543f]
class Ascensor2--><g id="elem_Ascensor2"><rect codeLine="12" fill="#F1F1F1" height="100.8281" id="Ascensor2" rx="2.5" ry="2.5" style="stroke:#181818;stroke-width:0.5;" width="135" x="176.5" y="277"/><ellipse cx="207.7" cy="293" fill="#ADD1B2" rx="11" ry="11" style="stroke:#181818;stroke-width:1.0;"/><path d="M210.4656,288.875 Q210.6219,288.6563 210.8094,288.5469 Q210.9969,288.4375 211.2156,288.4375 Q211.5906,288.4375 211.825,288.7031 Q212.0594,288.9531 212.0594,289.5625 L212.0594,291.0156 Q212.0594,291.625 211.825,291.8906 Q211.5906,292.1563 211.2156,292.1563 Q210.8719,292.1563 210.6688,291.9531 Q210.4656,291.7656 210.3563,291.25 Q210.3094,290.8906 210.1219,290.7031 Q209.7938,290.3281 209.1844,290.1094 Q208.575,289.8906 207.95,289.8906 Q207.1844,289.8906 206.5438,290.2188 Q205.9188,290.5469 205.4188,291.2969 Q204.9344,292.0469 204.9344,293.0781 L204.9344,294.1719 Q204.9344,295.4063 205.825,296.2344 Q206.7156,297.0469 208.3094,297.0469 Q209.2469,297.0469 209.9031,296.7969 Q210.2938,296.6406 210.7156,296.2031 Q210.9813,295.9375 211.1219,295.8594 Q211.2781,295.7813 211.4813,295.7813 Q211.8094,295.7813 212.0594,296.0469 Q212.325,296.2969 212.325,296.6406 Q212.325,296.9844 211.9813,297.3906 Q211.4813,297.9688 210.6844,298.2969 Q209.6063,298.75 208.3094,298.75 Q206.7938,298.75 205.5906,298.125 Q204.6063,297.625 203.9188,296.5625 Q203.2313,295.4844 203.2313,294.2031 L203.2313,293.0469 Q203.2313,291.7188 203.8406,290.5781 Q204.4656,289.4219 205.5594,288.8125 Q206.6531,288.1875 207.8875,288.1875 Q208.6219,288.1875 209.2625,288.3594 Q209.9188,288.5156 210.4656,288.875 Z " fill="#000000"/><text fill="#000000" font-family="sans-serif" font-size="14" lengthAdjust="spacing" textLength="67" x="225.3" y="298.7285">Ascensor2</text><line style="stroke:#181818;stroke-width:0.5;" x1="177.5" x2="310.5" y1="309" y2="309"/><text fill="#000000" font-family="sans-serif" font-size="14" lengthAdjust="spacing" textLength="117" x="182.5" y="327.5332">Planta 3 : Posición</text><text fill="#000000" font-family="sans-serif" font-size="14" lengthAdjust="spacing" textLength="123" x="182.5" y="345.1426">Bajando : Dirección</text><text fill="#000000" font-family="sans-serif" font-size="14" lengthAdjust="spacing" textLength="108" x="182.5" y="362.752">5 : Disponibilidad</text><line style="stroke:#181818;stroke-width:0.5;" x1="177.5" x2="310.5" y1="369.8281" y2="369.8281"/></g><!--MD5=[0fddcff310bd7812318bc3a8ade08716]
class Paco--><g id="elem_Paco"><rect codeLine="18" fill="#F1F1F1" height="65.6094" id="Paco" rx="2.5" ry="2.5" style="stroke:#181818;stroke-width:0.5;" width="126" x="411" y="294.5"/><ellipse cx="453.9" cy="310.5" fill="#ADD1B2" rx="11" ry="11" style="stroke:#181818;stroke-width:1.0;"/><path d="M456.6656,306.375 Q456.8219,306.1563 457.0094,306.0469 Q457.1969,305.9375 457.4156,305.9375 Q457.7906,305.9375 458.025,306.2031 Q458.2594,306.4531 458.2594,307.0625 L458.2594,308.5156 Q458.2594,309.125 458.025,309.3906 Q457.7906,309.6563 457.4156,309.6563 Q457.0719,309.6563 456.8688,309.4531 Q456.6656,309.2656 456.5563,308.75 Q456.5094,308.3906 456.3219,308.2031 Q455.9938,307.8281 455.3844,307.6094 Q454.775,307.3906 454.15,307.3906 Q453.3844,307.3906 452.7438,307.7188 Q452.1188,308.0469 451.6188,308.7969 Q451.1344,309.5469 451.1344,310.5781 L451.1344,311.6719 Q451.1344,312.9063 452.025,313.7344 Q452.9156,314.5469 454.5094,314.5469 Q455.4469,314.5469 456.1031,314.2969 Q456.4938,314.1406 456.9156,313.7031 Q457.1813,313.4375 457.3219,313.3594 Q457.4781,313.2813 457.6813,313.2813 Q458.0094,313.2813 458.2594,313.5469 Q458.525,313.7969 458.525,314.1406 Q458.525,314.4844 458.1813,314.8906 Q457.6813,315.4688 456.8844,315.7969 Q455.8063,316.25 454.5094,316.25 Q452.9938,316.25 451.7906,315.625 Q450.8063,315.125 450.1188,314.0625 Q449.4313,312.9844 449.4313,311.7031 L449.4313,310.5469 Q449.4313,309.2188 450.0406,308.0781 Q450.6656,306.9219 451.7594,306.3125 Q452.8531,305.6875 454.0875,305.6875 Q454.8219,305.6875 455.4625,305.8594 Q456.1188,306.0156 456.6656,306.375 Z " fill="#000000"/><text fill="#000000" font-family="sans-serif" font-size="14" lengthAdjust="spacing" textLength="32" x="474.1" y="316.2285">Paco</text><line style="stroke:#181818;stroke-width:0.5;" x1="412" x2="536" y1="326.5" y2="326.5"/><text fill="#000000" font-family="sans-serif" font-size="14" lengthAdjust="spacing" textLength="114" x="417" y="345.0332">Planta B :Posición</text><line style="stroke:#181818;stroke-width:0.5;" x1="412" x2="536" y1="352.1094" y2="352.1094"/></g><!--MD5=[3cea6d87ac38715e8791901bf6727bbc]
class Pepe--><g id="elem_Pepe"><rect codeLine="22" fill="#F1F1F1" height="65.6094" id="Pepe" rx="2.5" ry="2.5" style="stroke:#181818;stroke-width:0.5;" width="129" x="630.5" y="294.5"/><ellipse cx="674.3" cy="310.5" fill="#ADD1B2" rx="11" ry="11" style="stroke:#181818;stroke-width:1.0;"/><path d="M677.0656,306.375 Q677.2219,306.1563 677.4094,306.0469 Q677.5969,305.9375 677.8156,305.9375 Q678.1906,305.9375 678.425,306.2031 Q678.6594,306.4531 678.6594,307.0625 L678.6594,308.5156 Q678.6594,309.125 678.425,309.3906 Q678.1906,309.6563 677.8156,309.6563 Q677.4719,309.6563 677.2688,309.4531 Q677.0656,309.2656 676.9563,308.75 Q676.9094,308.3906 676.7219,308.2031 Q676.3938,307.8281 675.7844,307.6094 Q675.175,307.3906 674.55,307.3906 Q673.7844,307.3906 673.1438,307.7188 Q672.5188,308.0469 672.0188,308.7969 Q671.5344,309.5469 671.5344,310.5781 L671.5344,311.6719 Q671.5344,312.9063 672.425,313.7344 Q673.3156,314.5469 674.9094,314.5469 Q675.8469,314.5469 676.5031,314.2969 Q676.8938,314.1406 677.3156,313.7031 Q677.5813,313.4375 677.7219,313.3594 Q677.8781,313.2813 678.0813,313.2813 Q678.4094,313.2813 678.6594,313.5469 Q678.925,313.7969 678.925,314.1406 Q678.925,314.4844 678.5813,314.8906 Q678.0813,315.4688 677.2844,315.7969 Q676.2063,316.25 674.9094,316.25 Q673.3938,316.25 672.1906,315.625 Q671.2063,315.125 670.5188,314.0625 Q669.8313,312.9844 669.8313,311.7031 L669.8313,310.5469 Q669.8313,309.2188 670.4406,308.0781 Q671.0656,306.9219 672.1594,306.3125 Q673.2531,305.6875 674.4875,305.6875 Q675.2219,305.6875 675.8625,305.8594 Q676.5188,306.0156 677.0656,306.375 Z " fill="#000000"/><text fill="#000000" font-family="sans-serif" font-size="14" lengthAdjust="spacing" textLength="33" x="694.7" y="316.2285">Pepe</text><line style="stroke:#181818;stroke-width:0.5;" x1="631.5" x2="758.5" y1="326.5" y2="326.5"/><text fill="#000000" font-family="sans-serif" font-size="14" lengthAdjust="spacing" textLength="117" x="636.5" y="345.0332">Planta 1 : Posición</text><line style="stroke:#181818;stroke-width:0.5;" x1="631.5" x2="758.5" y1="352.1094" y2="352.1094"/></g><!--MD5=[a019848ffa44ba9079e0585a7cafae13]
class Juan--><g id="elem_Juan"><rect codeLine="26" fill="#F1F1F1" height="65.6094" id="Juan" rx="2.5" ry="2.5" style="stroke:#181818;stroke-width:0.5;" width="148" x="170" y="456.5"/><ellipse cx="224.75" cy="472.5" fill="#ADD1B2" rx="11" ry="11" style="stroke:#181818;stroke-width:1.0;"/><path d="M227.5156,468.375 Q227.6719,468.1563 227.8594,468.0469 Q228.0469,467.9375 228.2656,467.9375 Q228.6406,467.9375 228.875,468.2031 Q229.1094,468.4531 229.1094,469.0625 L229.1094,470.5156 Q229.1094,471.125 228.875,471.3906 Q228.6406,471.6563 228.2656,471.6563 Q227.9219,471.6563 227.7188,471.4531 Q227.5156,471.2656 227.4063,470.75 Q227.3594,470.3906 227.1719,470.2031 Q226.8438,469.8281 226.2344,469.6094 Q225.625,469.3906 225,469.3906 Q224.2344,469.3906 223.5938,469.7188 Q222.9688,470.0469 222.4688,470.7969 Q221.9844,471.5469 221.9844,472.5781 L221.9844,473.6719 Q221.9844,474.9063 222.875,475.7344 Q223.7656,476.5469 225.3594,476.5469 Q226.2969,476.5469 226.9531,476.2969 Q227.3438,476.1406 227.7656,475.7031 Q228.0313,475.4375 228.1719,475.3594 Q228.3281,475.2813 228.5313,475.2813 Q228.8594,475.2813 229.1094,475.5469 Q229.375,475.7969 229.375,476.1406 Q229.375,476.4844 229.0313,476.8906 Q228.5313,477.4688 227.7344,477.7969 Q226.6563,478.25 225.3594,478.25 Q223.8438,478.25 222.6406,477.625 Q221.6563,477.125 220.9688,476.0625 Q220.2813,474.9844 220.2813,473.7031 L220.2813,472.5469 Q220.2813,471.2188 220.8906,470.0781 Q221.5156,468.9219 222.6094,468.3125 Q223.7031,467.6875 224.9375,467.6875 Q225.6719,467.6875 226.3125,467.8594 Q226.9688,468.0156 227.5156,468.375 Z " fill="#000000"/><text fill="#000000" font-family="sans-serif" font-size="14" lengthAdjust="spacing" textLength="30" x="245.25" y="478.2285">Juan</text><line style="stroke:#181818;stroke-width:0.5;" x1="171" x2="317" y1="488.5" y2="488.5"/><text fill="#000000" font-family="sans-serif" font-size="14" lengthAdjust="spacing" textLength="136" x="176" y="507.0332">Ascensor 2 : Posición</text><line style="stroke:#181818;stroke-width:0.5;" x1="171" x2="317" y1="514.1094" y2="514.1094"/></g><!--MD5=[af7e5f84e12b4070746ff03cd786b251]
class Planta B--><g id="elem_Planta B"><rect codeLine="30" fill="#F1F1F1" height="83.2188" id="Planta B" rx="2.5" ry="2.5" style="stroke:#181818;stroke-width:0.5;" width="164" x="405" y="116"/><ellipse cx="456.25" cy="132" fill="#ADD1B2" rx="11" ry="11" style="stroke:#181818;stroke-width:1.0;"/><path d="M459.0156,127.875 Q459.1719,127.6563 459.3594,127.5469 Q459.5469,127.4375 459.7656,127.4375 Q460.1406,127.4375 460.375,127.7031 Q460.6094,127.9531 460.6094,128.5625 L460.6094,130.0156 Q460.6094,130.625 460.375,130.8906 Q460.1406,131.1563 459.7656,131.1563 Q459.4219,131.1563 459.2188,130.9531 Q459.0156,130.7656 458.9063,130.25 Q458.8594,129.8906 458.6719,129.7031 Q458.3438,129.3281 457.7344,129.1094 Q457.125,128.8906 456.5,128.8906 Q455.7344,128.8906 455.0938,129.2188 Q454.4688,129.5469 453.9688,130.2969 Q453.4844,131.0469 453.4844,132.0781 L453.4844,133.1719 Q453.4844,134.4063 454.375,135.2344 Q455.2656,136.0469 456.8594,136.0469 Q457.7969,136.0469 458.4531,135.7969 Q458.8438,135.6406 459.2656,135.2031 Q459.5313,134.9375 459.6719,134.8594 Q459.8281,134.7813 460.0313,134.7813 Q460.3594,134.7813 460.6094,135.0469 Q460.875,135.2969 460.875,135.6406 Q460.875,135.9844 460.5313,136.3906 Q460.0313,136.9688 459.2344,137.2969 Q458.1563,137.75 456.8594,137.75 Q455.3438,137.75 454.1406,137.125 Q453.1563,136.625 452.4688,135.5625 Q451.7813,134.4844 451.7813,133.2031 L451.7813,132.0469 Q451.7813,130.7188 452.3906,129.5781 Q453.0156,128.4219 454.1094,127.8125 Q455.2031,127.1875 456.4375,127.1875 Q457.1719,127.1875 457.8125,127.3594 Q458.4688,127.5156 459.0156,127.875 Z " fill="#000000"/><text fill="#000000" font-family="sans-serif" font-size="14" lengthAdjust="spacing" textLength="53" x="476.75" y="137.7285">Planta B</text><line style="stroke:#181818;stroke-width:0.5;" x1="406" x2="568" y1="148" y2="148"/><text fill="#000000" font-family="sans-serif" font-size="14" lengthAdjust="spacing" textLength="143" x="411" y="166.5332">0 : Personas en planta</text><text fill="#000000" font-family="sans-serif" font-size="14" lengthAdjust="spacing" textLength="152" x="411" y="184.1426">1 : Personas esperando</text><line style="stroke:#181818;stroke-width:0.5;" x1="406" x2="568" y1="191.2188" y2="191.2188"/></g><!--MD5=[dffbb8a9197155a103a1baa6ec0a27ec]
class Planta 1--><g id="elem_Planta 1"><rect codeLine="35" fill="#F1F1F1" height="83.2188" id="Planta 1" rx="2.5" ry="2.5" style="stroke:#181818;stroke-width:0.5;" width="164" x="607" y="116"/><ellipse cx="658.75" cy="132" fill="#ADD1B2" rx="11" ry="11" style="stroke:#181818;stroke-width:1.0;"/><path d="M661.5156,127.875 Q661.6719,127.6563 661.8594,127.5469 Q662.0469,127.4375 662.2656,127.4375 Q662.6406,127.4375 662.875,127.7031 Q663.1094,127.9531 663.1094,128.5625 L663.1094,130.0156 Q663.1094,130.625 662.875,130.8906 Q662.6406,131.1563 662.2656,131.1563 Q661.9219,131.1563 661.7188,130.9531 Q661.5156,130.7656 661.4063,130.25 Q661.3594,129.8906 661.1719,129.7031 Q660.8438,129.3281 660.2344,129.1094 Q659.625,128.8906 659,128.8906 Q658.2344,128.8906 657.5938,129.2188 Q656.9688,129.5469 656.4688,130.2969 Q655.9844,131.0469 655.9844,132.0781 L655.9844,133.1719 Q655.9844,134.4063 656.875,135.2344 Q657.7656,136.0469 659.3594,136.0469 Q660.2969,136.0469 660.9531,135.7969 Q661.3438,135.6406 661.7656,135.2031 Q662.0313,134.9375 662.1719,134.8594 Q662.3281,134.7813 662.5313,134.7813 Q662.8594,134.7813 663.1094,135.0469 Q663.375,135.2969 663.375,135.6406 Q663.375,135.9844 663.0313,136.3906 Q662.5313,136.9688 661.7344,137.2969 Q660.6563,137.75 659.3594,137.75 Q657.8438,137.75 656.6406,137.125 Q655.6563,136.625 654.9688,135.5625 Q654.2813,134.4844 654.2813,133.2031 L654.2813,132.0469 Q654.2813,130.7188 654.8906,129.5781 Q655.5156,128.4219 656.6094,127.8125 Q657.7031,127.1875 658.9375,127.1875 Q659.6719,127.1875 660.3125,127.3594 Q660.9688,127.5156 661.5156,127.875 Z " fill="#000000"/><text fill="#000000" font-family="sans-serif" font-size="14" lengthAdjust="spacing" textLength="52" x="679.25" y="137.7285">Planta 1</text><line style="stroke:#181818;stroke-width:0.5;" x1="608" x2="770" y1="148" y2="148"/><text fill="#000000" font-family="sans-serif" font-size="14" lengthAdjust="spacing" textLength="143" x="613" y="166.5332">1 : Personas en planta</text><text fill="#000000" font-family="sans-serif" font-size="14" lengthAdjust="spacing" textLength="152" x="613" y="184.1426">0 : Personas esperando</text><line style="stroke:#181818;stroke-width:0.5;" x1="608" x2="770" y1="191.2188" y2="191.2188"/></g><!--MD5=[525c9d69e09e78d9196bce9175607bfd]
class Lista de Tareas de Paco--><g id="elem_Lista de Tareas de Paco"><rect codeLine="40" fill="#F1F1F1" height="100.8281" id="Lista de Tareas de Paco" rx="2.5" ry="2.5" style="stroke:#181818;stroke-width:0.5;" width="188" x="379" y="439"/><ellipse cx="394.45" cy="455" fill="#ADD1B2" rx="11" ry="11" style="stroke:#181818;stroke-width:1.0;"/><path d="M397.2156,450.875 Q397.3719,450.6563 397.5594,450.5469 Q397.7469,450.4375 397.9656,450.4375 Q398.3406,450.4375 398.575,450.7031 Q398.8094,450.9531 398.8094,451.5625 L398.8094,453.0156 Q398.8094,453.625 398.575,453.8906 Q398.3406,454.1563 397.9656,454.1563 Q397.6219,454.1563 397.4188,453.9531 Q397.2156,453.7656 397.1063,453.25 Q397.0594,452.8906 396.8719,452.7031 Q396.5438,452.3281 395.9344,452.1094 Q395.325,451.8906 394.7,451.8906 Q393.9344,451.8906 393.2938,452.2188 Q392.6688,452.5469 392.1688,453.2969 Q391.6844,454.0469 391.6844,455.0781 L391.6844,456.1719 Q391.6844,457.4063 392.575,458.2344 Q393.4656,459.0469 395.0594,459.0469 Q395.9969,459.0469 396.6531,458.7969 Q397.0438,458.6406 397.4656,458.2031 Q397.7313,457.9375 397.8719,457.8594 Q398.0281,457.7813 398.2313,457.7813 Q398.5594,457.7813 398.8094,458.0469 Q399.075,458.2969 399.075,458.6406 Q399.075,458.9844 398.7313,459.3906 Q398.2313,459.9688 397.4344,460.2969 Q396.3563,460.75 395.0594,460.75 Q393.5438,460.75 392.3406,460.125 Q391.3563,459.625 390.6688,458.5625 Q389.9813,457.4844 389.9813,456.2031 L389.9813,455.0469 Q389.9813,453.7188 390.5906,452.5781 Q391.2156,451.4219 392.3094,450.8125 Q393.4031,450.1875 394.6375,450.1875 Q395.3719,450.1875 396.0125,450.3594 Q396.6688,450.5156 397.2156,450.875 Z " fill="#000000"/><text fill="#000000" font-family="sans-serif" font-size="14" lengthAdjust="spacing" textLength="155" x="408.55" y="460.7285">Lista de Tareas de Paco</text><line style="stroke:#181818;stroke-width:0.5;" x1="380" x2="566" y1="471" y2="471"/><text fill="#000000" font-family="sans-serif" font-size="14" lengthAdjust="spacing" textLength="176" x="385" y="489.5332">Planta -1 : Planta a la que ir</text><text fill="#000000" font-family="sans-serif" font-size="14" lengthAdjust="spacing" textLength="142" x="385" y="507.1426">15 m : Tiempo a pasar</text><text fill="#000000" font-family="sans-serif" font-size="14" lengthAdjust="spacing" textLength="105" x="385" y="524.752">No : Completado</text><line style="stroke:#181818;stroke-width:0.5;" x1="380" x2="566" y1="531.8281" y2="531.8281"/></g><!--MD5=[1aa7c3cc3e6c6492cc3621dcdcb34d9f]
class Lista de Tareas de Pepe--><g id="elem_Lista de Tareas de Pepe"><rect codeLine="46" fill="#F1F1F1" height="100.8281" id="Lista de Tareas de Pepe" rx="2.5" ry="2.5" style="stroke:#181818;stroke-width:0.5;" width="188" x="602" y="439"/><ellipse cx="617" cy="455" fill="#ADD1B2" rx="11" ry="11" style="stroke:#181818;stroke-width:1.0;"/><path d="M619.7656,450.875 Q619.9219,450.6563 620.1094,450.5469 Q620.2969,450.4375 620.5156,450.4375 Q620.8906,450.4375 621.125,450.7031 Q621.3594,450.9531 621.3594,451.5625 L621.3594,453.0156 Q621.3594,453.625 621.125,453.8906 Q620.8906,454.1563 620.5156,454.1563 Q620.1719,454.1563 619.9688,453.9531 Q619.7656,453.7656 619.6563,453.25 Q619.6094,452.8906 619.4219,452.7031 Q619.0938,452.3281 618.4844,452.1094 Q617.875,451.8906 617.25,451.8906 Q616.4844,451.8906 615.8438,452.2188 Q615.2188,452.5469 614.7188,453.2969 Q614.2344,454.0469 614.2344,455.0781 L614.2344,456.1719 Q614.2344,457.4063 615.125,458.2344 Q616.0156,459.0469 617.6094,459.0469 Q618.5469,459.0469 619.2031,458.7969 Q619.5938,458.6406 620.0156,458.2031 Q620.2813,457.9375 620.4219,457.8594 Q620.5781,457.7813 620.7813,457.7813 Q621.1094,457.7813 621.3594,458.0469 Q621.625,458.2969 621.625,458.6406 Q621.625,458.9844 621.2813,459.3906 Q620.7813,459.9688 619.9844,460.2969 Q618.9063,460.75 617.6094,460.75 Q616.0938,460.75 614.8906,460.125 Q613.9063,459.625 613.2188,458.5625 Q612.5313,457.4844 612.5313,456.2031 L612.5313,455.0469 Q612.5313,453.7188 613.1406,452.5781 Q613.7656,451.4219 614.8594,450.8125 Q615.9531,450.1875 617.1875,450.1875 Q617.9219,450.1875 618.5625,450.3594 Q619.2188,450.5156 619.7656,450.875 Z " fill="#000000"/><text fill="#000000" font-family="sans-serif" font-size="14" lengthAdjust="spacing" textLength="156" x="631" y="460.7285">Lista de Tareas de Pepe</text><line style="stroke:#181818;stroke-width:0.5;" x1="603" x2="789" y1="471" y2="471"/><text fill="#000000" font-family="sans-serif" font-size="14" lengthAdjust="spacing" textLength="171" x="608" y="489.5332">Planta 1 : Planta a la que ir</text><text fill="#000000" font-family="sans-serif" font-size="14" lengthAdjust="spacing" textLength="142" x="608" y="507.1426">30 m : Tiempo a pasar</text><text fill="#000000" font-family="sans-serif" font-size="14" lengthAdjust="spacing" textLength="105" x="608" y="524.752">No : Completado</text><line style="stroke:#181818;stroke-width:0.5;" x1="603" x2="789" y1="531.8281" y2="531.8281"/></g><!--MD5=[8fd981579a4ebc1553a6a525854d8f52]
class Lista de Tareas de Juan--><g id="elem_Lista de Tareas de Juan"><rect codeLine="52" fill="#F1F1F1" height="100.8281" id="Lista de Tareas de Juan" rx="2.5" ry="2.5" style="stroke:#181818;stroke-width:0.5;" width="185" x="151.5" y="601"/><ellipse cx="166.5" cy="617" fill="#ADD1B2" rx="11" ry="11" style="stroke:#181818;stroke-width:1.0;"/><path d="M169.2656,612.875 Q169.4219,612.6563 169.6094,612.5469 Q169.7969,612.4375 170.0156,612.4375 Q170.3906,612.4375 170.625,612.7031 Q170.8594,612.9531 170.8594,613.5625 L170.8594,615.0156 Q170.8594,615.625 170.625,615.8906 Q170.3906,616.1563 170.0156,616.1563 Q169.6719,616.1563 169.4688,615.9531 Q169.2656,615.7656 169.1563,615.25 Q169.1094,614.8906 168.9219,614.7031 Q168.5938,614.3281 167.9844,614.1094 Q167.375,613.8906 166.75,613.8906 Q165.9844,613.8906 165.3438,614.2188 Q164.7188,614.5469 164.2188,615.2969 Q163.7344,616.0469 163.7344,617.0781 L163.7344,618.1719 Q163.7344,619.4063 164.625,620.2344 Q165.5156,621.0469 167.1094,621.0469 Q168.0469,621.0469 168.7031,620.7969 Q169.0938,620.6406 169.5156,620.2031 Q169.7813,619.9375 169.9219,619.8594 Q170.0781,619.7813 170.2813,619.7813 Q170.6094,619.7813 170.8594,620.0469 Q171.125,620.2969 171.125,620.6406 Q171.125,620.9844 170.7813,621.3906 Q170.2813,621.9688 169.4844,622.2969 Q168.4063,622.75 167.1094,622.75 Q165.5938,622.75 164.3906,622.125 Q163.4063,621.625 162.7188,620.5625 Q162.0313,619.4844 162.0313,618.2031 L162.0313,617.0469 Q162.0313,615.7188 162.6406,614.5781 Q163.2656,613.4219 164.3594,612.8125 Q165.4531,612.1875 166.6875,612.1875 Q167.4219,612.1875 168.0625,612.3594 Q168.7188,612.5156 169.2656,612.875 Z " fill="#000000"/><text fill="#000000" font-family="sans-serif" font-size="14" lengthAdjust="spacing" textLength="153" x="180.5" y="622.7285">Lista de Tareas de Juan</text><line style="stroke:#181818;stroke-width:0.5;" x1="152.5" x2="335.5" y1="633" y2="633"/><text fill="#000000" font-family="sans-serif" font-size="14" lengthAdjust="spacing" textLength="171" x="157.5" y="651.5332">Planta 3 : Planta a la que ir</text><text fill="#000000" font-family="sans-serif" font-size="14" lengthAdjust="spacing" textLength="138" x="157.5" y="669.1426">45 m :Tiempo a pasar</text><text fill="#000000" font-family="sans-serif" font-size="14" lengthAdjust="spacing" textLength="100" x="157.5" y="686.752">Si : Completado</text><line style="stroke:#181818;stroke-width:0.5;" x1="152.5" x2="335.5" y1="693.8281" y2="693.8281"/></g><!--MD5=[fe8e6b97d8d0e0374270e05ff05fd842]
link Ascensores to Ascensor1--><g id="link_Ascensores_Ascensor1"><path codeLine="58" d="M298.83,38.79 C219.37,50.15 75.67,75.81 45,116 C11.14,160.37 27.43,225.82 46.43,271.94 " fill="none" id="Ascensores-to-Ascensor1" style="stroke:#181818;stroke-width:1.0;"/><polygon fill="#181818" points="48.39,276.62,48.584,266.7731,46.4497,272.0118,41.2109,269.8775,48.39,276.62" style="stroke:#181818;stroke-width:1.0;"/></g><!--MD5=[2d115f959d14cc3dabe7413b03e1eac7]
link Ascensores to Ascensor2--><g id="link_Ascensores_Ascensor2"><path codeLine="59" d="M349.27,55.04 C344.89,87.84 334.81,149.51 316,199 C306.43,224.17 292.45,250.35 279.35,272.38 " fill="none" id="Ascensores-to-Ascensor2" style="stroke:#181818;stroke-width:1.0;"/><polygon fill="#181818" points="276.75,276.73,284.8104,271.0705,279.3225,272.4425,277.9505,266.9546,276.75,276.73" style="stroke:#181818;stroke-width:1.0;"/></g><!--MD5=[e81ba30f09d45625eccdaae30ae6ea8a]
link Ascensores to Planta 1--><g id="link_Ascensores_Planta 1"><path codeLine="60" d="M405.14,50.56 C452.68,67.29 524.19,92.76 586,116 C591.16,117.94 596.46,119.96 601.81,122.01 " fill="none" id="Ascensores-to-Planta 1" style="stroke:#181818;stroke-width:1.0;"/><polygon fill="#181818" points="606.72,123.89,599.7486,116.933,602.0514,122.0999,596.8845,124.4027,606.72,123.89" style="stroke:#181818;stroke-width:1.0;"/></g><!--MD5=[48602b3716f86794edefe891140bb810]
link Ascensores to Planta B--><g id="link_Ascensores_Planta B"><path codeLine="61" d="M377.08,55.13 C394.45,71.15 418.12,92.98 439.05,112.28 " fill="none" id="Ascensores-to-Planta B" style="stroke:#181818;stroke-width:1.0;"/><polygon fill="#181818" points="442.93,115.86,439.0255,106.8182,439.2543,112.4704,433.6021,112.6992,442.93,115.86" style="stroke:#181818;stroke-width:1.0;"/></g><!--MD5=[c47c56df97dcb8aad75f91e4f90e141d]
link Ascensores to Control del Ascensor--><g id="link_Ascensores_Control del Ascensor"><path codeLine="62" d="M320.24,55.13 C294.74,73.69 258.51,100.07 229.4,121.26 " fill="none" id="Ascensores-to-Control del Ascensor" style="stroke:#181818;stroke-width:1.0;"/><polygon fill="#181818" points="225.16,124.35,234.7904,122.2874,229.2024,121.4074,230.0824,115.8194,225.16,124.35" style="stroke:#181818;stroke-width:1.0;"/></g><!--MD5=[93f0189e650c335551b901ebff1a2be3]
link Control del Ascensor to Ascensor1--><g id="link_Control del Ascensor_Ascensor1"><path codeLine="63" d="M160.37,190.89 C145.67,213.97 125.57,245.54 108.45,272.41 " fill="none" id="Control del Ascensor-to-Ascensor1" style="stroke:#181818;stroke-width:1.0;"/><polygon fill="#181818" points="105.73,276.68,113.9401,271.2399,108.4172,272.4635,107.1936,266.9405,105.73,276.68" style="stroke:#181818;stroke-width:1.0;"/><text fill="#000000" font-family="sans-serif" font-size="13" lengthAdjust="spacing" textLength="46" x="135" y="243.4951">controla</text></g><!--MD5=[f1b3d1f7022a2318a3ca2db1d2120046]
link Control del Ascensor to Ascensor2--><g id="link_Control del Ascensor_Ascensor2"><path codeLine="64" d="M193.15,190.89 C201.73,213.78 213.44,245.02 223.47,271.74 " fill="none" id="Control del Ascensor-to-Ascensor2" style="stroke:#181818;stroke-width:1.0;"/><polygon fill="#181818" points="225.32,276.68,225.9052,266.8485,223.5644,271.9984,218.4146,269.6575,225.32,276.68" style="stroke:#181818;stroke-width:1.0;"/><text fill="#000000" font-family="sans-serif" font-size="13" lengthAdjust="spacing" textLength="46" x="214" y="243.4951">controla</text></g><!--MD5=[4a0ac3a48884c4aaefcfe0eca6996465]
link Planta B to Paco--><g id="link_Planta B_Paco"><path codeLine="65" d="M483.85,199.17 C481.73,226.57 478.96,262.45 476.89,289.13 " fill="none" id="Planta B-to-Paco" style="stroke:#181818;stroke-width:1.0;"/><polygon fill="#181818" points="476.49,294.34,481.1723,285.6753,476.8757,289.3549,473.1961,285.0583,476.49,294.34" style="stroke:#181818;stroke-width:1.0;"/></g><!--MD5=[acff26c4de87aa5218cb88b8d1a69e4c]
link Planta 1 to Pepe--><g id="link_Planta 1_Pepe"><path codeLine="66" d="M690.45,199.17 C691.43,226.57 692.71,262.45 693.67,289.13 " fill="none" id="Planta 1-to-Pepe" style="stroke:#181818;stroke-width:1.0;"/><polygon fill="#181818" points="693.85,294.34,697.5132,285.1977,693.6644,289.3434,689.5187,285.4947,693.85,294.34" style="stroke:#181818;stroke-width:1.0;"/></g><!--MD5=[203d6c836b884d7a75624d12be219045]
link Ascensor2 to Juan--><g id="link_Ascensor2_Juan"><path codeLine="67" d="M244,378.25 C244,401.86 244,429.59 244,451.33 " fill="none" id="Ascensor2-to-Juan" style="stroke:#181818;stroke-width:1.0;"/><polygon fill="#181818" points="244,456.44,248,447.44,244,451.44,240,447.44,244,456.44" style="stroke:#181818;stroke-width:1.0;"/></g><!--MD5=[9df90b7dd20617e5837663046f7bb722]
link Paco to Lista de Tareas de Paco--><g id="link_Paco_Lista de Tareas de Paco"><path codeLine="68" d="M473.8,360.88 C473.67,381.76 473.49,409.46 473.34,433.71 " fill="none" id="Paco-to-Lista de Tareas de Paco" style="stroke:#181818;stroke-width:1.0;"/><polygon fill="#181818" points="473.31,438.83,477.3614,429.853,473.3386,433.8301,469.3615,429.8073,473.31,438.83" style="stroke:#181818;stroke-width:1.0;"/></g><!--MD5=[9060b965d3e9c6a65a222286f38816dd]
link Pepe to Lista de Tareas de Pepe--><g id="link_Pepe_Lista de Tareas de Pepe"><path codeLine="69" d="M695.2,360.88 C695.33,381.76 695.51,409.46 695.66,433.71 " fill="none" id="Pepe-to-Lista de Tareas de Pepe" style="stroke:#181818;stroke-width:1.0;"/><polygon fill="#181818" points="695.69,438.83,699.6385,429.8073,695.6614,433.8301,691.6386,429.853,695.69,438.83" style="stroke:#181818;stroke-width:1.0;"/></g><!--MD5=[566731ebbe53ea29862a870a2ab5396a]
link Juan to Lista de Tareas de Juan--><g id="link_Juan_Lista de Tareas de Juan"><path codeLine="70" d="M244,522.88 C244,543.76 244,571.46 244,595.71 " fill="none" id="Juan-to-Lista de Tareas de Juan" style="stroke:#181818;stroke-width:1.0;"/><polygon fill="#181818" points="244,600.83,248,591.83,244,595.83,240,591.83,244,600.83" style="stroke:#181818;stroke-width:1.0;"/></g><!--MD5=[acff383a4331b2bf5d022c48b8a007a7]
@startuml
Class Ascensores
Class "Control del Ascensor"
{
    Ascensor2 : Ascensor al que enviar
}
Class Ascensor1
{
    Planta -1 : Posición
    Parado : Dirección
    6 : Disponibilidad
}
Class Ascensor2
{
    Planta 3 : Posición
    Bajando : Dirección
    5 : Disponibilidad
}
Class Paco
{
    Planta B :Posición
}
Class Pepe
{
    Planta 1 : Posición
}
Class Juan
{
    Ascensor 2 : Posición
}
Class "Planta B"
{
   0 : Personas en planta
   1 : Personas esperando
}
Class "Planta 1"
{
   1 : Personas en planta
   0 : Personas esperando
}
Class "Lista de Tareas de Paco"
{
    Planta -1 : Planta a la que ir
    15 m : Tiempo a pasar
    No : Completado
}
Class "Lista de Tareas de Pepe"
{
    Planta 1 : Planta a la que ir
    30 m : Tiempo a pasar
    No : Completado
}
Class "Lista de Tareas de Juan"
{
    Planta 3 : Planta a la que ir
    45 m :Tiempo a pasar
    Si : Completado
}
Ascensores - -> Ascensor1
Ascensores - -> Ascensor2
Ascensores - -> "Planta 1"
Ascensores - -> "Planta B"
Ascensores - -> "Control del Ascensor"
"Control del Ascensor" - -> Ascensor1 : controla
"Control del Ascensor" - -> Ascensor2 : controla
"Planta B" - -> Paco
"Planta 1" - -> Pepe
"Ascensor2" - -> Juan
Paco - -> "Lista de Tareas de Paco"
Pepe - -> "Lista de Tareas de Pepe"
Juan - -> "Lista de Tareas de Juan"
@end

PlantUML version 1.2022.7(Mon Aug 22 19:01:30 CEST 2022)
(GPL source distribution)
Java Runtime: OpenJDK Runtime Environment
JVM: OpenJDK 64-Bit Server VM
Default Encoding: Cp1252
Language: es
Country: ES
--></g></svg>