<?xml version="1.0" encoding="us-ascii" standalone="no"?><svg xmlns="http://www.w3.org/2000/svg" xmlns:xlink="http://www.w3.org/1999/xlink" contentStyleType="text/css" height="645px" preserveAspectRatio="none" style="width:760px;height:645px;background:#FFFFFF;" version="1.1" viewBox="0 0 760 645" width="760px" zoomAndPan="magnify"><defs/><g><text fill="#000000" font-family="sans-serif" font-size="14" font-weight="bold" lengthAdjust="spacing" textLength="370" x="188" y="24.9659">Diagrama de Arquitectura (Relacioens Controladores)</text><!--cluster Controllers--><g id="cluster_Controllers"><path d="M8.5,101.0679 L86.5,101.0679 A3.75,3.75 0 0 1 89,103.5679 L96,126.1358 L574.5,126.1358 A2.5,2.5 0 0 1 577,128.6358 L577,460.5679 A2.5,2.5 0 0 1 574.5,463.0679 L8.5,463.0679 A2.5,2.5 0 0 1 6,460.5679 L6,103.5679 A2.5,2.5 0 0 1 8.5,101.0679 " fill="none" style="stroke:#000000;stroke-width:1.5;"/><line style="stroke:#000000;stroke-width:1.5;" x1="6" x2="96" y1="126.1358" y2="126.1358"/><text fill="#000000" font-family="sans-serif" font-size="14" font-weight="bold" lengthAdjust="spacing" textLength="77" x="10" y="118.0339">Controllers</text></g><!--cluster Views--><g id="cluster_Views"><path d="M603.5,193.0679 L644.5,193.0679 A3.75,3.75 0 0 1 647,195.5679 L654,218.1358 L750.5,218.1358 A2.5,2.5 0 0 1 753,220.6358 L753,276.5679 A2.5,2.5 0 0 1 750.5,279.0679 L603.5,279.0679 A2.5,2.5 0 0 1 601,276.5679 L601,195.5679 A2.5,2.5 0 0 1 603.5,193.0679 " fill="none" style="stroke:#000000;stroke-width:1.5;"/><line style="stroke:#000000;stroke-width:1.5;" x1="601" x2="654" y1="218.1358" y2="218.1358"/><text fill="#000000" font-family="sans-serif" font-size="14" font-weight="bold" lengthAdjust="spacing" textLength="40" x="605" y="210.0339">Views</text></g><!--cluster Enums--><g id="cluster_Enums"><path d="M215.5,487.0679 L263.5,487.0679 A3.75,3.75 0 0 1 266,489.5679 L273,512.1358 L336.5,512.1358 A2.5,2.5 0 0 1 339,514.6358 L339,635.7679 A2.5,2.5 0 0 1 336.5,638.2679 L215.5,638.2679 A2.5,2.5 0 0 1 213,635.7679 L213,489.5679 A2.5,2.5 0 0 1 215.5,487.0679 " fill="none" style="stroke:#000000;stroke-width:1.5;"/><line style="stroke:#000000;stroke-width:1.5;" x1="213" x2="273" y1="512.1358" y2="512.1358"/><text fill="#000000" font-family="sans-serif" font-size="14" font-weight="bold" lengthAdjust="spacing" textLength="47" x="217" y="504.0339">Enums</text></g><!--cluster Models--><g id="cluster_Models"><path d="M603.5,377.0679 L654.5,377.0679 A3.75,3.75 0 0 1 657,379.5679 L664,402.1358 L718.5,402.1358 A2.5,2.5 0 0 1 721,404.6358 L721,460.5679 A2.5,2.5 0 0 1 718.5,463.0679 L603.5,463.0679 A2.5,2.5 0 0 1 601,460.5679 L601,379.5679 A2.5,2.5 0 0 1 603.5,377.0679 " fill="none" style="stroke:#000000;stroke-width:1.5;"/><line style="stroke:#000000;stroke-width:1.5;" x1="601" x2="664" y1="402.1358" y2="402.1358"/><text fill="#000000" font-family="sans-serif" font-size="14" font-weight="bold" lengthAdjust="spacing" textLength="50" x="605" y="394.0339">Models</text></g><!--class BuildingController--><g id="elem_BuildingController"><rect codeLine="14" fill="#F1F1F1" height="32" id="BuildingController" rx="2.5" ry="2.5" style="stroke:#181818;stroke-width:0.5;" width="156" x="327" y="323.0679"/><ellipse cx="342" cy="339.0679" fill="#ADD1B2" rx="11" ry="11" style="stroke:#181818;stroke-width:1.0;"/><path d="M341.4688,345.9898 Q339.7188,345.9898 338.5781,345.2554 Q337.4531,344.5054 336.8906,343.1617 Q336.3438,341.8023 336.3438,340.0054 Q336.3438,337.9742 337,336.521 Q337.6563,335.0679 338.9375,334.2867 Q340.2188,333.5054 342.0938,333.5054 Q342.9844,333.5054 343.6563,333.6929 Q344.3281,333.8648 345.0156,334.2085 L344.2031,336.2242 Q343.5781,335.9117 343.0313,335.7867 Q342.5,335.6617 342.0156,335.6617 Q340.8438,335.6617 340.1406,336.1929 Q339.4375,336.7242 339.1406,337.6773 Q338.8438,338.6304 338.8438,339.896 Q338.8438,341.9117 339.5625,342.8804 Q340.2813,343.8335 341.875,343.8335 Q342.4688,343.8335 343.0938,343.6773 Q343.7188,343.521 344.5469,343.146 L344.5469,345.3648 Q343.8125,345.6773 343.0156,345.8335 Q342.2344,345.9898 341.4688,345.9898 Z " fill="#000000"/><text fill="#000000" font-family="sans-serif" font-size="14" lengthAdjust="spacing" textLength="124" x="356" y="344.4999">BuildingController</text></g><!--class ElevatorController--><g id="elem_ElevatorController"><rect codeLine="17" fill="#F1F1F1" height="32" id="ElevatorController" rx="2.5" ry="2.5" style="stroke:#181818;stroke-width:0.5;" width="153" x="22.5" y="415.0679"/><ellipse cx="37.5" cy="431.0679" fill="#ADD1B2" rx="11" ry="11" style="stroke:#181818;stroke-width:1.0;"/><path d="M36.9688,437.9898 Q35.2188,437.9898 34.0781,437.2554 Q32.9531,436.5054 32.3906,435.1617 Q31.8438,433.8023 31.8438,432.0054 Q31.8438,429.9742 32.5,428.521 Q33.1563,427.0679 34.4375,426.2867 Q35.7188,425.5054 37.5938,425.5054 Q38.4844,425.5054 39.1563,425.6929 Q39.8281,425.8648 40.5156,426.2085 L39.7031,428.2242 Q39.0781,427.9117 38.5313,427.7867 Q38,427.6617 37.5156,427.6617 Q36.3438,427.6617 35.6406,428.1929 Q34.9375,428.7242 34.6406,429.6773 Q34.3438,430.6304 34.3438,431.896 Q34.3438,433.9117 35.0625,434.8804 Q35.7813,435.8335 37.375,435.8335 Q37.9688,435.8335 38.5938,435.6773 Q39.2188,435.521 40.0469,435.146 L40.0469,437.3648 Q39.3125,437.6773 38.5156,437.8335 Q37.7344,437.9898 36.9688,437.9898 Z " fill="#000000"/><text fill="#000000" font-family="sans-serif" font-size="14" lengthAdjust="spacing" textLength="121" x="51.5" y="436.4999">ElevatorController</text></g><!--class Values--><g id="elem_Values"><rect codeLine="20" fill="#F1F1F1" height="32" id="Values" rx="2.5" ry="2.5" style="stroke:#181818;stroke-width:0.5;" width="76" x="261" y="231.0679"/><ellipse cx="276" cy="247.0679" fill="#ADD1B2" rx="11" ry="11" style="stroke:#181818;stroke-width:1.0;"/><path d="M275.4688,253.9898 Q273.7188,253.9898 272.5781,253.2554 Q271.4531,252.5054 270.8906,251.1617 Q270.3438,249.8023 270.3438,248.0054 Q270.3438,245.9742 271,244.521 Q271.6563,243.0679 272.9375,242.2867 Q274.2188,241.5054 276.0938,241.5054 Q276.9844,241.5054 277.6563,241.6929 Q278.3281,241.8648 279.0156,242.2085 L278.2031,244.2242 Q277.5781,243.9117 277.0313,243.7867 Q276.5,243.6617 276.0156,243.6617 Q274.8438,243.6617 274.1406,244.1929 Q273.4375,244.7242 273.1406,245.6773 Q272.8438,246.6304 272.8438,247.896 Q272.8438,249.9117 273.5625,250.8804 Q274.2813,251.8335 275.875,251.8335 Q276.4688,251.8335 277.0938,251.6773 Q277.7188,251.521 278.5469,251.146 L278.5469,253.3648 Q277.8125,253.6773 277.0156,253.8335 Q276.2344,253.9898 275.4688,253.9898 Z " fill="#000000"/><text fill="#000000" font-family="sans-serif" font-size="14" lengthAdjust="spacing" textLength="44" x="290" y="252.4999">Values</text></g><!--class Simulation--><g id="elem_Simulation"><rect codeLine="23" fill="#F1F1F1" height="32" id="Simulation" rx="2.5" ry="2.5" style="stroke:#181818;stroke-width:0.5;" width="104" x="405" y="139.0679"/><ellipse cx="420" cy="155.0679" fill="#ADD1B2" rx="11" ry="11" style="stroke:#181818;stroke-width:1.0;"/><path d="M419.4688,161.9898 Q417.7188,161.9898 416.5781,161.2554 Q415.4531,160.5054 414.8906,159.1617 Q414.3438,157.8023 414.3438,156.0054 Q414.3438,153.9742 415,152.521 Q415.6563,151.0679 416.9375,150.2867 Q418.2188,149.5054 420.0938,149.5054 Q420.9844,149.5054 421.6563,149.6929 Q422.3281,149.8648 423.0156,150.2085 L422.2031,152.2242 Q421.5781,151.9117 421.0313,151.7867 Q420.5,151.6617 420.0156,151.6617 Q418.8438,151.6617 418.1406,152.1929 Q417.4375,152.7242 417.1406,153.6773 Q416.8438,154.6304 416.8438,155.896 Q416.8438,157.9117 417.5625,158.8804 Q418.2813,159.8335 419.875,159.8335 Q420.4688,159.8335 421.0938,159.6773 Q421.7188,159.521 422.5469,159.146 L422.5469,161.3648 Q421.8125,161.6773 421.0156,161.8335 Q420.2344,161.9898 419.4688,161.9898 Z " fill="#000000"/><text fill="#000000" font-family="sans-serif" font-size="14" lengthAdjust="spacing" textLength="72" x="434" y="160.4999">Simulation</text></g><!--class Time--><g id="elem_Time"><rect codeLine="26" fill="#F1F1F1" height="32" id="Time" rx="2.5" ry="2.5" style="stroke:#181818;stroke-width:0.5;" width="65" x="372.5" y="231.0679"/><ellipse cx="387.5" cy="247.0679" fill="#ADD1B2" rx="11" ry="11" style="stroke:#181818;stroke-width:1.0;"/><path d="M386.9688,253.9898 Q385.2188,253.9898 384.0781,253.2554 Q382.9531,252.5054 382.3906,251.1617 Q381.8438,249.8023 381.8438,248.0054 Q381.8438,245.9742 382.5,244.521 Q383.1563,243.0679 384.4375,242.2867 Q385.7188,241.5054 387.5938,241.5054 Q388.4844,241.5054 389.1563,241.6929 Q389.8281,241.8648 390.5156,242.2085 L389.7031,244.2242 Q389.0781,243.9117 388.5313,243.7867 Q388,243.6617 387.5156,243.6617 Q386.3438,243.6617 385.6406,244.1929 Q384.9375,244.7242 384.6406,245.6773 Q384.3438,246.6304 384.3438,247.896 Q384.3438,249.9117 385.0625,250.8804 Q385.7813,251.8335 387.375,251.8335 Q387.9688,251.8335 388.5938,251.6773 Q389.2188,251.521 390.0469,251.146 L390.0469,253.3648 Q389.3125,253.6773 388.5156,253.8335 Q387.7344,253.9898 386.9688,253.9898 Z " fill="#000000"/><text fill="#000000" font-family="sans-serif" font-size="14" lengthAdjust="spacing" textLength="33" x="401.5" y="252.4999">Time</text></g><!--class FloorController--><g id="elem_FloorController"><rect codeLine="29" fill="#F1F1F1" height="32" id="FloorController" rx="2.5" ry="2.5" style="stroke:#181818;stroke-width:0.5;" width="132" x="210" y="415.0679"/><ellipse cx="225" cy="431.0679" fill="#ADD1B2" rx="11" ry="11" style="stroke:#181818;stroke-width:1.0;"/><path d="M224.4688,437.9898 Q222.7188,437.9898 221.5781,437.2554 Q220.4531,436.5054 219.8906,435.1617 Q219.3438,433.8023 219.3438,432.0054 Q219.3438,429.9742 220,428.521 Q220.6563,427.0679 221.9375,426.2867 Q223.2188,425.5054 225.0938,425.5054 Q225.9844,425.5054 226.6563,425.6929 Q227.3281,425.8648 228.0156,426.2085 L227.2031,428.2242 Q226.5781,427.9117 226.0313,427.7867 Q225.5,427.6617 225.0156,427.6617 Q223.8438,427.6617 223.1406,428.1929 Q222.4375,428.7242 222.1406,429.6773 Q221.8438,430.6304 221.8438,431.896 Q221.8438,433.9117 222.5625,434.8804 Q223.2813,435.8335 224.875,435.8335 Q225.4688,435.8335 226.0938,435.6773 Q226.7188,435.521 227.5469,435.146 L227.5469,437.3648 Q226.8125,437.6773 226.0156,437.8335 Q225.2344,437.9898 224.4688,437.9898 Z " fill="#000000"/><text fill="#000000" font-family="sans-serif" font-size="14" lengthAdjust="spacing" textLength="100" x="239" y="436.4999">FloorController</text></g><!--class ControlPanelController--><g id="elem_ControlPanelController"><rect codeLine="32" fill="#F1F1F1" height="32" id="ControlPanelController" rx="2.5" ry="2.5" style="stroke:#181818;stroke-width:0.5;" width="185" x="376.5" y="415.0679"/><ellipse cx="391.5" cy="431.0679" fill="#ADD1B2" rx="11" ry="11" style="stroke:#181818;stroke-width:1.0;"/><path d="M390.9688,437.9898 Q389.2188,437.9898 388.0781,437.2554 Q386.9531,436.5054 386.3906,435.1617 Q385.8438,433.8023 385.8438,432.0054 Q385.8438,429.9742 386.5,428.521 Q387.1563,427.0679 388.4375,426.2867 Q389.7188,425.5054 391.5938,425.5054 Q392.4844,425.5054 393.1563,425.6929 Q393.8281,425.8648 394.5156,426.2085 L393.7031,428.2242 Q393.0781,427.9117 392.5313,427.7867 Q392,427.6617 391.5156,427.6617 Q390.3438,427.6617 389.6406,428.1929 Q388.9375,428.7242 388.6406,429.6773 Q388.3438,430.6304 388.3438,431.896 Q388.3438,433.9117 389.0625,434.8804 Q389.7813,435.8335 391.375,435.8335 Q391.9688,435.8335 392.5938,435.6773 Q393.2188,435.521 394.0469,435.146 L394.0469,437.3648 Q393.3125,437.6773 392.5156,437.8335 Q391.7344,437.9898 390.9688,437.9898 Z " fill="#000000"/><text fill="#000000" font-family="sans-serif" font-size="14" lengthAdjust="spacing" textLength="153" x="405.5" y="436.4999">ControlPanelController</text></g><!--class Creation--><g id="elem_Creation"><rect codeLine="35" fill="#F1F1F1" height="32" id="Creation" rx="2.5" ry="2.5" style="stroke:#181818;stroke-width:0.5;" width="89" x="472.5" y="231.0679"/><ellipse cx="487.5" cy="247.0679" fill="#ADD1B2" rx="11" ry="11" style="stroke:#181818;stroke-width:1.0;"/><path d="M486.9688,253.9898 Q485.2188,253.9898 484.0781,253.2554 Q482.9531,252.5054 482.3906,251.1617 Q481.8438,249.8023 481.8438,248.0054 Q481.8438,245.9742 482.5,244.521 Q483.1563,243.0679 484.4375,242.2867 Q485.7188,241.5054 487.5938,241.5054 Q488.4844,241.5054 489.1563,241.6929 Q489.8281,241.8648 490.5156,242.2085 L489.7031,244.2242 Q489.0781,243.9117 488.5313,243.7867 Q488,243.6617 487.5156,243.6617 Q486.3438,243.6617 485.6406,244.1929 Q484.9375,244.7242 484.6406,245.6773 Q484.3438,246.6304 484.3438,247.896 Q484.3438,249.9117 485.0625,250.8804 Q485.7813,251.8335 487.375,251.8335 Q487.9688,251.8335 488.5938,251.6773 Q489.2188,251.521 490.0469,251.146 L490.0469,253.3648 Q489.3125,253.6773 488.5156,253.8335 Q487.7344,253.9898 486.9688,253.9898 Z " fill="#000000"/><text fill="#000000" font-family="sans-serif" font-size="14" lengthAdjust="spacing" textLength="57" x="501.5" y="252.4999">Creation</text></g><!--class BuildingView--><g id="elem_BuildingView"><rect codeLine="40" fill="#F1F1F1" height="32" id="BuildingView" rx="2.5" ry="2.5" style="stroke:#181818;stroke-width:0.5;" width="120" x="617" y="231.0679"/><ellipse cx="632" cy="247.0679" fill="#ADD1B2" rx="11" ry="11" style="stroke:#181818;stroke-width:1.0;"/><path d="M631.4688,253.9898 Q629.7188,253.9898 628.5781,253.2554 Q627.4531,252.5054 626.8906,251.1617 Q626.3438,249.8023 626.3438,248.0054 Q626.3438,245.9742 627,244.521 Q627.6563,243.0679 628.9375,242.2867 Q630.2188,241.5054 632.0938,241.5054 Q632.9844,241.5054 633.6563,241.6929 Q634.3281,241.8648 635.0156,242.2085 L634.2031,244.2242 Q633.5781,243.9117 633.0313,243.7867 Q632.5,243.6617 632.0156,243.6617 Q630.8438,243.6617 630.1406,244.1929 Q629.4375,244.7242 629.1406,245.6773 Q628.8438,246.6304 628.8438,247.896 Q628.8438,249.9117 629.5625,250.8804 Q630.2813,251.8335 631.875,251.8335 Q632.4688,251.8335 633.0938,251.6773 Q633.7188,251.521 634.5469,251.146 L634.5469,253.3648 Q633.8125,253.6773 633.0156,253.8335 Q632.2344,253.9898 631.4688,253.9898 Z " fill="#000000"/><text fill="#000000" font-family="sans-serif" font-size="14" lengthAdjust="spacing" textLength="88" x="646" y="252.4999">BuildingView</text></g><!--class Direction--><g id="elem_Direction"><rect codeLine="45" fill="#F1F1F1" height="97.2038" id="Direction" rx="2.5" ry="2.5" style="stroke:#181818;stroke-width:0.5;" width="93" x="229.5" y="525.0679"/><ellipse cx="244.5" cy="541.0679" fill="#EB937F" rx="11" ry="11" style="stroke:#181818;stroke-width:1.0;"/><path d="M240.8594,547.5679 L240.8594,535.4273 L248.5156,535.4273 L248.5156,537.5523 L243.2344,537.5523 L243.2344,540.2085 L248.25,540.2085 L248.25,542.3335 L243.2344,542.3335 L243.2344,545.4429 L248.5156,545.4429 L248.5156,547.5679 L240.8594,547.5679 Z " fill="#000000"/><text fill="#000000" font-family="sans-serif" font-size="14" lengthAdjust="spacing" textLength="61" x="258.5" y="546.4999">Direction</text><line style="stroke:#181818;stroke-width:0.5;" x1="230.5" x2="321.5" y1="557.0679" y2="557.0679"/><text fill="#000000" font-family="sans-serif" font-size="14" lengthAdjust="spacing" textLength="18" x="235.5" y="576.0339">UP</text><text fill="#000000" font-family="sans-serif" font-size="14" lengthAdjust="spacing" textLength="35" x="235.5" y="595.1018">STOP</text><text fill="#000000" font-family="sans-serif" font-size="14" lengthAdjust="spacing" textLength="45" x="235.5" y="614.1697">DOWN</text></g><!--class Building--><g id="elem_Building"><rect codeLine="54" fill="#F1F1F1" height="32" id="Building" rx="2.5" ry="2.5" style="stroke:#181818;stroke-width:0.5;" width="89" x="616.5" y="415.0679"/><ellipse cx="631.5" cy="431.0679" fill="#ADD1B2" rx="11" ry="11" style="stroke:#181818;stroke-width:1.0;"/><path d="M630.9688,437.9898 Q629.2188,437.9898 628.0781,437.2554 Q626.9531,436.5054 626.3906,435.1617 Q625.8438,433.8023 625.8438,432.0054 Q625.8438,429.9742 626.5,428.521 Q627.1563,427.0679 628.4375,426.2867 Q629.7188,425.5054 631.5938,425.5054 Q632.4844,425.5054 633.1563,425.6929 Q633.8281,425.8648 634.5156,426.2085 L633.7031,428.2242 Q633.0781,427.9117 632.5313,427.7867 Q632,427.6617 631.5156,427.6617 Q630.3438,427.6617 629.6406,428.1929 Q628.9375,428.7242 628.6406,429.6773 Q628.3438,430.6304 628.3438,431.896 Q628.3438,433.9117 629.0625,434.8804 Q629.7813,435.8335 631.375,435.8335 Q631.9688,435.8335 632.5938,435.6773 Q633.2188,435.521 634.0469,435.146 L634.0469,437.3648 Q633.3125,437.6773 632.5156,437.8335 Q631.7344,437.9898 630.9688,437.9898 Z " fill="#000000"/><text fill="#000000" font-family="sans-serif" font-size="14" lengthAdjust="spacing" textLength="57" x="645.5" y="436.4999">Building</text></g><!--class App--><g id="elem_App"><rect codeLine="10" fill="#F1F1F1" height="32" id="App" rx="2.5" ry="2.5" style="stroke:#181818;stroke-width:0.5;" width="59" x="427.5" y="47.0679"/><ellipse cx="442.5" cy="63.0679" fill="#ADD1B2" rx="11" ry="11" style="stroke:#181818;stroke-width:1.0;"/><path d="M441.9688,69.9898 Q440.2188,69.9898 439.0781,69.2554 Q437.9531,68.5054 437.3906,67.1617 Q436.8438,65.8023 436.8438,64.0054 Q436.8438,61.9742 437.5,60.521 Q438.1563,59.0679 439.4375,58.2867 Q440.7188,57.5054 442.5938,57.5054 Q443.4844,57.5054 444.1563,57.6929 Q444.8281,57.8648 445.5156,58.2085 L444.7031,60.2242 Q444.0781,59.9117 443.5313,59.7867 Q443,59.6617 442.5156,59.6617 Q441.3438,59.6617 440.6406,60.1929 Q439.9375,60.7242 439.6406,61.6773 Q439.3438,62.6304 439.3438,63.896 Q439.3438,65.9117 440.0625,66.8804 Q440.7813,67.8335 442.375,67.8335 Q442.9688,67.8335 443.5938,67.6773 Q444.2188,67.521 445.0469,67.146 L445.0469,69.3648 Q444.3125,69.6773 443.5156,69.8335 Q442.7344,69.9898 441.9688,69.9898 Z " fill="#000000"/><text fill="#000000" font-family="sans-serif" font-size="14" lengthAdjust="spacing" textLength="27" x="456.5" y="68.4999">App</text></g><!--link App to Simulation--><g id="link_App_Simulation"><path codeLine="60" d="M457,79.3279 C457,95.8779 457,116.1479 457,132.7179 " fill="none" id="App-to-Simulation" style="stroke:#181818;stroke-width:1.0;"/><polygon fill="#181818" points="457,138.7179,461,129.7179,457,133.7179,453,129.7179,457,138.7179" style="stroke:#181818;stroke-width:1.0;"/></g><!--reverse link Simulation to Values--><g id="link_Simulation_Values"><path codeLine="62" d="M393.0318,168.1292 C376.3518,172.4992 369.97,175.8379 355,185.0679 C335.91,196.8379 319.29,216.9079 309.22,230.7979 " fill="none" id="Simulation-backto-Values" style="stroke:#181818;stroke-width:1.0;"/><polygon fill="#181818" points="404.64,165.0879,397.8221,162.7391,393.0318,168.1292,399.8496,170.4779,404.64,165.0879" style="stroke:#181818;stroke-width:1.0;"/></g><!--link Simulation to Creation--><g id="link_Simulation_Creation"><path codeLine="63" d="M467.18,171.3279 C478.21,187.8779 495.72,214.1479 506.77,230.7179 " fill="none" id="Simulation-Creation" style="stroke:#181818;stroke-width:1.0;"/></g><!--link Simulation to Time--><g id="link_Simulation_Time"><path codeLine="64" d="M448.18,171.3279 C438.62,187.8779 423.44,214.1479 413.86,230.7179 " fill="none" id="Simulation-Time" style="stroke:#181818;stroke-width:1.0;"/></g><!--link Simulation to BuildingView--><g id="link_Simulation_BuildingView"><path codeLine="65" d="M509.21,164.9979 C530.68,169.6079 555.51,176.1679 577,185.0679 C606.12,197.1179 636.64,216.9379 656.19,230.6979 " fill="none" id="Simulation-BuildingView" style="stroke:#181818;stroke-width:1.0;"/></g><!--link Time to BuildingController--><g id="link_Time_BuildingController"><path codeLine="67" d="M405,263.3279 C405,279.8779 405,306.1479 405,322.7179 " fill="none" id="Time-BuildingController" style="stroke:#181818;stroke-width:1.0;"/></g><!--reverse link BuildingController to Building--><g id="link_BuildingController_Building"><path codeLine="69" d="M495.2216,347.1871 C525.3716,351.2671 547.68,356.7579 577,369.0679 C603.09,380.0179 628.77,400.4779 644.73,414.6679 " fill="none" id="BuildingController-backto-Building" style="stroke:#181818;stroke-width:1.0;"/><polygon fill="#181818" points="483.33,345.5779,488.7394,350.3464,495.2216,347.1871,489.8122,342.4187,483.33,345.5779" style="stroke:#181818;stroke-width:1.0;"/></g><!--reverse link BuildingController to FloorController--><g id="link_BuildingController_FloorController"><path codeLine="70" d="M369.8057,361.7925 C362.9457,366.1125 365.71,364.4879 359,369.0679 C337.13,383.9679 312.81,402.0279 296.17,414.6079 " fill="none" id="BuildingController-backto-FloorController" style="stroke:#181818;stroke-width:1.0;"/><polygon fill="#181818" points="379.96,355.3979,372.7513,355.2104,369.8057,361.7925,377.0144,361.98,379.96,355.3979" style="stroke:#181818;stroke-width:1.0;"/></g><!--reverse link BuildingController to ElevatorController--><g id="link_BuildingController_ElevatorController"><path codeLine="71" d="M314.7596,343.5619 C273.8696,346.8919 235.57,353.2479 193,369.0679 C164.19,379.7679 135.13,400.4979 117.11,414.7979 " fill="none" id="BuildingController-backto-ElevatorController" style="stroke:#181818;stroke-width:1.0;"/><polygon fill="#181818" points="326.72,342.5879,320.4151,339.0881,314.7596,343.5619,321.0645,347.0617,326.72,342.5879" style="stroke:#181818;stroke-width:1.0;"/></g><!--reverse link BuildingController to ControlPanelController--><g id="link_BuildingController_ControlPanelController"><path codeLine="72" d="M422.8147,365.1071 C434.5847,381.6571 446.3,398.1479 458.09,414.7179 " fill="none" id="BuildingController-backto-ControlPanelController" style="stroke:#181818;stroke-width:1.0;"/><polygon fill="#181818" points="415.86,355.3279,416.0776,362.5357,422.8147,365.1071,422.5971,357.8993,415.86,355.3279" style="stroke:#181818;stroke-width:1.0;"/></g><!--link ElevatorController to Building--><g id="link_ElevatorController_Building"><path codeLine="74" d="M116.16,414.7779 C136.66,396.7479 172.95,369.2979 210.5,362.0679 C248.58,354.7279 521.42,354.7279 559.5,362.0679 C594.65,368.8379 623.1165,392.2162 641.4665,410.3862 " fill="none" id="ElevatorController-to-Building" style="stroke:#181818;stroke-width:1.0;"/><polygon fill="#181818" points="645.73,414.6079,642.1492,405.4331,642.1771,411.0899,636.5203,411.1177,645.73,414.6079" style="stroke:#181818;stroke-width:1.0;"/></g><!--link ElevatorController to Direction--><g id="link_ElevatorController_Direction"><path codeLine="75" d="M118.28,447.3779 C144.71,468.3779 193.04,506.7679 229.26,535.5379 " fill="none" id="ElevatorController-Direction" style="stroke:#181818;stroke-width:1.0;"/></g><!--link FloorController to Building--><g id="link_FloorController_Building"><path codeLine="77" d="M294.8,414.7679 C311.02,401.2779 335.47,382.2579 359,369.0679 C366.31,364.9679 368.27,363.6479 376.5,362.0679 C416.43,354.3779 519.57,354.3779 559.5,362.0679 C594.65,368.8379 623.1165,392.2162 641.4665,410.3862 " fill="none" id="FloorController-to-Building" style="stroke:#181818;stroke-width:1.0;"/><polygon fill="#181818" points="645.73,414.6079,642.1492,405.4331,642.1771,411.0899,636.5203,411.1177,645.73,414.6079" style="stroke:#181818;stroke-width:1.0;"/></g><!--link FloorController to Direction--><g id="link_FloorController_Direction"><path codeLine="78" d="M276,447.3779 C276,465.8079 276,497.6579 276,524.6279 " fill="none" id="FloorController-Direction" style="stroke:#181818;stroke-width:1.0;"/></g><!--link ControlPanelController to Building--><g id="link_ControlPanelController_Building"><path codeLine="80" d="M561.62,431.0679 C579.87,431.0679 592.11,431.0679 610.36,431.0679 " fill="none" id="ControlPanelController-to-Building" style="stroke:#181818;stroke-width:1.0;"/><polygon fill="#181818" points="616.36,431.0679,607.36,427.0679,611.36,431.0679,607.36,435.0679,616.36,431.0679" style="stroke:#181818;stroke-width:1.0;"/></g><!--link ControlPanelController to Direction--><g id="link_ControlPanelController_Direction"><path codeLine="81" d="M447.98,447.3779 C418.18,469.0879 362.86,509.3879 322.99,538.4379 " fill="none" id="ControlPanelController-Direction" style="stroke:#181818;stroke-width:1.0;"/></g><!--SRC=[XLBBJiCm4BplLrZY0fNy2vNwuaPRqLBE9bcbLlq8Vb0XnB_ZG8BTn6bzScPdnvkPTTm994lEAiCa8oMIcNdtt67Xl67a_Xa5AxX6PSb2AsUqOAKsQ1y0x8chceKsyWKadBLsE6V5gJBQgtAXXJRaxdmCMZkfJmZV04SU7a1PkqyYKRwXiG25ODQIMLq7cK2fWmAhi7jD14wh_qUSUovAhgfORykXDx9M0Z-Oq-Owwy24HvkhxBZqWZckLQwwvn9p-AFGjvvigrkcKDnW6hmS837dmF6SjwMfv3fMoikk0yCzH6v2nb6_EI_R_-jkluaVoythkXimqNpI9Ohy6Ea804sub4uJLm4IXoUKjb6aQ00x2tfmOtyFIdyVu3UV18r60sJsPq8DhuukylCasiztZ3PSlZ5cVXi0CklRpZYDG-P8DEOAq5_7eSI0ST4_igj3cJ7YXHhy0000]--></g></svg>