<svg xmlns="http://www.w3.org/2000/svg" xmlns:xlink="http://www.w3.org/1999/xlink" contentStyleType="text/css" height="282px" preserveAspectRatio="none" style="width:633px;height:282px;background:#FFFFFF;" version="1.1" viewBox="0 0 633 282" width="633px" zoomAndPan="magnify"><defs/><g><text fill="#000000" font-family="sans-serif" font-size="14" font-weight="bold" lengthAdjust="spacing" textLength="283" x="168.25" y="22.9951">Detalle Caso de Uso Entregar Turno</text><g id="CONTROLANDO"><rect fill="#FAF4B4" height="50" rx="12.5" ry="12.5" style="stroke:#C90000;stroke-width:0.5;" width="129" x="168.5" y="66.2969"/><line style="stroke:#C90000;stroke-width:0.5;" x1="168.5" x2="297.5" y1="92.5938" y2="92.5938"/><text fill="#000000" font-family="sans-serif" font-size="14" lengthAdjust="spacing" textLength="109" x="178.5" y="84.292">CONTROLANDO</text></g><g id=":entregarTurno"><rect fill="#FAF4B4" height="50" rx="12.5" ry="12.5" style="stroke:#C90000;stroke-width:0.5;" width="125" x="167.5" y="226.2969"/><line style="stroke:#C90000;stroke-width:0.5;" x1="167.5" x2="292.5" y1="252.5938" y2="252.5938"/><text fill="#000000" font-family="sans-serif" font-size="14" lengthAdjust="spacing" textLength="105" x="177.5" y="244.292">:entregarTurno</text></g><g id="TURNO_HEROE"><rect fill="#FAF4B4" height="50" rx="12.5" ry="12.5" style="stroke:#C90000;stroke-width:0.5;" width="126" x="7" y="226.2969"/><line style="stroke:#C90000;stroke-width:0.5;" x1="7" x2="133" y1="252.5938" y2="252.5938"/><text fill="#000000" font-family="sans-serif" font-size="14" lengthAdjust="spacing" textLength="106" x="17" y="244.292">TURNO_HEROE</text></g><g id="TURNO_VILLANO"><rect fill="#FAF4B4" height="50" rx="12.5" ry="12.5" style="stroke:#C90000;stroke-width:0.5;" width="133" x="327.5" y="226.2969"/><line style="stroke:#C90000;stroke-width:0.5;" x1="327.5" x2="460.5" y1="252.5938" y2="252.5938"/><text fill="#000000" font-family="sans-serif" font-size="14" lengthAdjust="spacing" textLength="113" x="337.5" y="244.292">TURNO_VILLANO</text></g><g id=":declararGanador"><rect fill="#FAF4B4" height="50" rx="12.5" ry="12.5" style="stroke:#C90000;stroke-width:0.5;" width="139" x="487.5" y="66.2969"/><line style="stroke:#C90000;stroke-width:0.5;" x1="487.5" x2="626.5" y1="92.5938" y2="92.5938"/><text fill="#000000" font-family="sans-serif" font-size="14" lengthAdjust="spacing" textLength="119" x="497.5" y="84.292">:declararGanador</text></g><g id="FIN_DEL_JUEGO"><rect fill="#FAF4B4" height="50" rx="12.5" ry="12.5" style="stroke:#C90000;stroke-width:0.5;" width="126" x="495" y="226.2969"/><line style="stroke:#C90000;stroke-width:0.5;" x1="495" x2="621" y1="252.5938" y2="252.5938"/><text fill="#000000" font-family="sans-serif" font-size="14" lengthAdjust="spacing" textLength="106" x="505" y="244.292">FIN_DEL_JUEGO</text></g><!--link CONTROLANDO to :entregarTurno--><g id="link_CONTROLANDO_:entregarTurno"><path d="M232.54,116.6369 C231.97,146.3269 231.1451,190.228 230.5751,219.928 " fill="none" id="CONTROLANDO-to-:entregarTurno" style="stroke:#008000;stroke-width:1.0;"/><polygon fill="#008000" points="230.46,225.9269,234.632,217.0053,230.5559,220.9278,226.6334,216.8518,230.46,225.9269" style="stroke:#008000;stroke-width:1.0;"/><path d="M237,151.2969 L237,191.2969 L361,191.2969 L361,161.2969 L351,151.2969 L237,151.2969 " fill="#F5F5F5" style="stroke:#181818;stroke-width:0.5;"/><path d="M351,151.2969 L351,161.2969 L361,161.2969 L351,151.2969 " fill="#F5F5F5" style="stroke:#181818;stroke-width:0.5;"/><text fill="#000000" font-family="sans-serif" font-size="13" font-weight="bold" lengthAdjust="spacing" textLength="103" x="243" y="168.3638">Juego solicita:</text><text fill="#000000" font-family="sans-serif" font-size="13" lengthAdjust="spacing" textLength="102" x="243" y="183.4966">- Entregar turno</text></g><!--reverse link TURNO_HEROE to :entregarTurno--><g id="link_TURNO_HEROE_:entregarTurno"><path d="M139.24,251.2969 C150.42,251.2969 156.06,251.2969 167.22,251.2969 " fill="none" id="TURNO_HEROE-backto-:entregarTurno" style="stroke:#008000;stroke-width:1.0;"/><polygon fill="#008000" points="133.24,251.2969,142.24,255.2969,138.24,251.2969,142.24,247.2969,133.24,251.2969" style="stroke:#008000;stroke-width:1.0;"/></g><!--link :entregarTurno to TURNO_VILLANO--><g id="link_:entregarTurno_TURNO_VILLANO"><path d="M292.94,251.2969 C304.14,251.2969 309.84,251.2969 321.15,251.2969 " fill="none" id=":entregarTurno-to-TURNO_VILLANO" style="stroke:#008000;stroke-width:1.0;"/><polygon fill="#008000" points="327.15,251.2969,318.15,247.2969,322.15,251.2969,318.15,255.2969,327.15,251.2969" style="stroke:#008000;stroke-width:1.0;"/></g><!--link CONTROLANDO to :declararGanador--><g id="link_CONTROLANDO_:declararGanador"><path d="M297.79,91.2969 C352.63,91.2969 425.07,91.2969 481.28,91.2969 " fill="none" id="CONTROLANDO-to-:declararGanador" style="stroke:#008000;stroke-width:1.0;"/><polygon fill="#008000" points="487.28,91.2969,478.28,87.2969,482.28,91.2969,478.28,95.2969,487.28,91.2969" style="stroke:#008000;stroke-width:1.0;"/><path d="M322,43.2969 L322,83.2969 L463,83.2969 L463,53.2969 L453,43.2969 L322,43.2969 " fill="#F5F5F5" style="stroke:#181818;stroke-width:0.5;"/><path d="M453,43.2969 L453,53.2969 L463,53.2969 L453,43.2969 " fill="#F5F5F5" style="stroke:#181818;stroke-width:0.5;"/><text fill="#000000" font-family="sans-serif" font-size="13" font-weight="bold" lengthAdjust="spacing" textLength="103" x="328" y="60.3638">Juego solicita:</text><text fill="#000000" font-family="sans-serif" font-size="13" lengthAdjust="spacing" textLength="120" x="328" y="75.4966">- Declarar ganador</text></g><!--link :declararGanador to FIN_DEL_JUEGO--><g id="link_:declararGanador_FIN_DEL_JUEGO"><path d="M557.15,116.6369 C557.34,146.3269 557.6216,190.227 557.8116,219.927 " fill="none" id=":declararGanador-to-FIN_DEL_JUEGO" style="stroke:#008000;stroke-width:1.0;"/><polygon fill="#008000" points="557.85,225.9269,561.7923,216.9015,557.818,220.927,553.7925,216.9526,557.85,225.9269" style="stroke:#008000;stroke-width:1.0;"/></g><!--SRC=[ZP11IyGm48Nl-HK3UoiKFAm7Un2qhUikfO6owqLaYSriAOsPCaqFY_ZVJMlHraKmEGoPlFVcIxgcjgrYzGQTKmxXNG3SgxAfc7ghOpB4i3gfq_frFTmGQ-IfMzvS-IK-XEY-GopzcN4zxANQr1RTkKLeoPo7Wn2kTWOXGQUChx7g23J2mPVKEiPACUnxjYH4BFDz8RExF94GwkTLnOZs9Ro522Vbbt148ZiCQpnO4Enwh0WwCdLPEnK5WU-6F_5kTA7LusE4MCP1Q6QZzeSYbyV7j93ffP0lX4_RpFDAiO1Vw2ADfV5_mnjbbIR-BtqosQ2QV3F-Nv4GpkOzRFDZacR7tI7To4y0]--></g></svg>