<svg xmlns="http://www.w3.org/2000/svg" xmlns:xlink="http://www.w3.org/1999/xlink" contentStyleType="text/css" height="420px" preserveAspectRatio="none" style="width:571px;height:420px;background:#FFFFFF;" version="1.1" viewBox="0 0 571 420" width="571px" zoomAndPan="magnify"><defs/><g><text fill="#000000" font-family="sans-serif" font-size="14" font-weight="bold" lengthAdjust="spacing" textLength="384" x="86.5" y="22.9951">Detalle Caso de Uso Seleccionar Movida (Villano)</text><g id="TURNO_VILLANO"><rect fill="#FAF4B4" height="50" rx="12.5" ry="12.5" style="stroke:#C90000;stroke-width:0.5;" width="133" x="155.5" y="44.2969"/><line style="stroke:#C90000;stroke-width:0.5;" x1="155.5" x2="288.5" y1="70.5938" y2="70.5938"/><text fill="#000000" font-family="sans-serif" font-size="14" lengthAdjust="spacing" textLength="113" x="165.5" y="62.292">TURNO_VILLANO</text></g><g id=":seleccionarMovida"><rect fill="#FAF4B4" height="50" rx="12.5" ry="12.5" style="stroke:#C90000;stroke-width:0.5;" width="152" x="146" y="204.2969"/><line style="stroke:#C90000;stroke-width:0.5;" x1="146" x2="298" y1="230.5938" y2="230.5938"/><text fill="#000000" font-family="sans-serif" font-size="14" lengthAdjust="spacing" textLength="132" x="156" y="222.292">:seleccionarMovida</text></g><g id="CONTROLADOR"><rect fill="#FAF4B4" height="50" rx="12.5" ry="12.5" style="stroke:#C90000;stroke-width:0.5;" width="129" x="157.5" y="364.2969"/><line style="stroke:#C90000;stroke-width:0.5;" x1="157.5" x2="286.5" y1="390.5938" y2="390.5938"/><text fill="#000000" font-family="sans-serif" font-size="14" lengthAdjust="spacing" textLength="109" x="167.5" y="382.292">CONTROLADOR</text></g><!--link TURNO_VILLANO to :seleccionarMovida--><g id="link_TURNO_VILLANO_:seleccionarMovida"><path d="M222,94.6369 C222,124.3269 222,168.2269 222,197.9269 " fill="none" id="TURNO_VILLANO-to-:seleccionarMovida" style="stroke:#008000;stroke-width:1.0;"/><polygon fill="#008000" points="222,203.9269,226,194.9269,222,198.9269,218,194.9269,222,203.9269" style="stroke:#008000;stroke-width:1.0;"/><path d="M227,129.2969 L227,169.2969 L380,169.2969 L380,139.2969 L370,129.2969 L227,129.2969 " fill="#F5F5F5" style="stroke:#181818;stroke-width:0.5;"/><path d="M370,129.2969 L370,139.2969 L380,139.2969 L370,129.2969 " fill="#F5F5F5" style="stroke:#181818;stroke-width:0.5;"/><text fill="#000000" font-family="sans-serif" font-size="13" font-weight="bold" lengthAdjust="spacing" textLength="111" x="233" y="146.3638">Villano solicita:</text><text fill="#000000" font-family="sans-serif" font-size="13" lengthAdjust="spacing" textLength="132" x="233" y="161.4966">- Seleccionar Movida</text></g><!--link :seleccionarMovida to CONTROLADOR--><g id="link_:seleccionarMovida_CONTROLADOR"><path d="M145.54,249.4069 C83.41,264.9469 6,284.2969 6,284.2969 C6,284.2969 6,334.2969 6,334.2969 C6,334.2969 87.7493,354.7312 151.3693,370.6412 " fill="none" id=":seleccionarMovida-to-CONTROLADOR" style="stroke:#008000;stroke-width:1.0;"/><polygon fill="#008000" points="157.19,372.0969,149.4293,366.0329,152.3394,370.8838,147.4884,373.7939,157.19,372.0969" style="stroke:#008000;stroke-width:1.0;"/><path d="M11,289.2969 L11,329.2969 L174,329.2969 L174,299.2969 L164,289.2969 L11,289.2969 " fill="#F5F5F5" style="stroke:#181818;stroke-width:0.5;"/><path d="M164,289.2969 L164,299.2969 L174,299.2969 L164,289.2969 " fill="#F5F5F5" style="stroke:#181818;stroke-width:0.5;"/><text fill="#000000" font-family="sans-serif" font-size="13" font-weight="bold" lengthAdjust="spacing" textLength="142" x="17" y="306.3638">Usuario selecciona:</text><text fill="#000000" font-family="sans-serif" font-size="13" lengthAdjust="spacing" textLength="51" x="17" y="321.4966">- Atacar</text></g><!--link :seleccionarMovida to CONTROLADOR--><g id="link_:seleccionarMovida_CONTROLADOR"><path d="M220.64,254.7669 C219.85,269.0569 219,284.2969 219,284.2969 C219,284.2969 219,334.2969 219,334.2969 C219,334.2969 219.5188,343.546 220.3088,357.836 " fill="none" id=":seleccionarMovida-to-CONTROLADOR-1" style="stroke:#008000;stroke-width:1.0;"/><polygon fill="#008000" points="220.64,363.8269,224.1371,354.6198,220.364,358.8345,216.1493,355.0614,220.64,363.8269" style="stroke:#008000;stroke-width:1.0;"/><path d="M224,289.2969 L224,329.2969 L387,329.2969 L387,299.2969 L377,289.2969 L224,289.2969 " fill="#F5F5F5" style="stroke:#181818;stroke-width:0.5;"/><path d="M377,289.2969 L377,299.2969 L387,299.2969 L377,289.2969 " fill="#F5F5F5" style="stroke:#181818;stroke-width:0.5;"/><text fill="#000000" font-family="sans-serif" font-size="13" font-weight="bold" lengthAdjust="spacing" textLength="142" x="230" y="306.3638">Usuario selecciona:</text><text fill="#000000" font-family="sans-serif" font-size="13" lengthAdjust="spacing" textLength="68" x="230" y="321.4966">- Defender</text></g><!--link :seleccionarMovida to CONTROLADOR--><g id="link_:seleccionarMovida_CONTROLADOR"><path d="M298.32,253.9869 C345.07,268.4869 396,284.2969 396,284.2969 C396,284.2969 396,334.2969 396,334.2969 C396,334.2969 341.9905,351.0588 292.5205,366.4088 " fill="none" id=":seleccionarMovida-to-CONTROLADOR-2" style="stroke:#008000;stroke-width:1.0;"/><polygon fill="#008000" points="286.79,368.1869,296.5711,369.34,291.5654,366.7051,294.2003,361.6994,286.79,368.1869" style="stroke:#008000;stroke-width:1.0;"/><path d="M401,289.2969 L401,329.2969 L564,329.2969 L564,299.2969 L554,289.2969 L401,289.2969 " fill="#F5F5F5" style="stroke:#181818;stroke-width:0.5;"/><path d="M554,289.2969 L554,299.2969 L564,299.2969 L554,289.2969 " fill="#F5F5F5" style="stroke:#181818;stroke-width:0.5;"/><text fill="#000000" font-family="sans-serif" font-size="13" font-weight="bold" lengthAdjust="spacing" textLength="142" x="407" y="306.3638">Usuario selecciona:</text><text fill="#000000" font-family="sans-serif" font-size="13" lengthAdjust="spacing" textLength="66" x="407" y="321.4966">- Bloquear</text></g><!--SRC=[lO_1JiCm38RlUGfBkq2bIHp6WHsGklQ2L5gfhBiWXBp4dQA6k2GfqeHuTz8n1jFW2F71iXt_ts_VQTkZmoVm0GF1gm1OeEmsZWUhCZRiOD9YErlFnWaxHMxVbLSNyOat8Vn1nFAl6fTZ7FyssbBOzWGzc-rO215qC0Gv1JGnP-WP544JqnqPabApHGUt_A8LmjbA6uEMpuLODdLPFQvkYY8jAvYg-yd64Tc7wJNC_TVcnwBOsMGx6kYYsIJP2u5dewKEE4-Is9_-01LarUvC8Kw5Zy5PLIxhgaZpgZubDdv0foFneF79J0DAT7_FoQcD3Fe7qiBmyq3VRde7]--></g></svg>