<svg xmlns="http://www.w3.org/2000/svg" xmlns:xlink="http://www.w3.org/1999/xlink" contentStyleType="text/css" height="420px" preserveAspectRatio="none" style="width:752px;height:420px;background:#FFFFFF;" version="1.1" viewBox="0 0 752 420" width="752px" zoomAndPan="magnify"><defs/><g><text fill="#000000" font-family="sans-serif" font-size="14" font-weight="bold" lengthAdjust="spacing" textLength="380" x="179" y="22.9951">Detalle Caso de Uso Seleccionar Movida (Heroe)</text><g id="TURNO_HEROE"><rect fill="#FAF4B4" height="50" rx="12.5" ry="12.5" style="stroke:#C90000;stroke-width:0.5;" width="126" x="265" y="44.2969"/><line style="stroke:#C90000;stroke-width:0.5;" x1="265" x2="391" y1="70.5938" y2="70.5938"/><text fill="#000000" font-family="sans-serif" font-size="14" lengthAdjust="spacing" textLength="106" x="275" y="62.292">TURNO_HEROE</text></g><g id=":seleccionarMovida"><rect fill="#FAF4B4" height="50" rx="12.5" ry="12.5" style="stroke:#C90000;stroke-width:0.5;" width="152" x="252" y="204.2969"/><line style="stroke:#C90000;stroke-width:0.5;" x1="252" x2="404" y1="230.5938" y2="230.5938"/><text fill="#000000" font-family="sans-serif" font-size="14" lengthAdjust="spacing" textLength="132" x="262" y="222.292">:seleccionarMovida</text></g><g id="CONTROLADOR"><rect fill="#FAF4B4" height="50" rx="12.5" ry="12.5" style="stroke:#C90000;stroke-width:0.5;" width="129" x="263.5" y="364.2969"/><line style="stroke:#C90000;stroke-width:0.5;" x1="263.5" x2="392.5" y1="390.5938" y2="390.5938"/><text fill="#000000" font-family="sans-serif" font-size="14" lengthAdjust="spacing" textLength="109" x="273.5" y="382.292">CONTROLADOR</text></g><!--link TURNO_HEROE to :seleccionarMovida--><g id="link_TURNO_HEROE_:seleccionarMovida"><path d="M328,94.6369 C328,124.3269 328,168.2269 328,197.9269 " fill="none" id="TURNO_HEROE-to-:seleccionarMovida" style="stroke:#008000;stroke-width:1.0;"/><polygon fill="#008000" points="328,203.9269,332,194.9269,328,198.9269,324,194.9269,328,203.9269" style="stroke:#008000;stroke-width:1.0;"/><path d="M333,129.2969 L333,169.2969 L486,169.2969 L486,139.2969 L476,129.2969 L333,129.2969 " fill="#F5F5F5" style="stroke:#181818;stroke-width:0.5;"/><path d="M476,129.2969 L476,139.2969 L486,139.2969 L476,129.2969 " fill="#F5F5F5" style="stroke:#181818;stroke-width:0.5;"/><text fill="#000000" font-family="sans-serif" font-size="13" font-weight="bold" lengthAdjust="spacing" textLength="117" x="339" y="146.3638">Usuario solicita:</text><text fill="#000000" font-family="sans-serif" font-size="13" lengthAdjust="spacing" textLength="132" x="339" y="161.4966">- Seleccionar Movida</text></g><!--link :seleccionarMovida to CONTROLADOR--><g id="link_:seleccionarMovida_CONTROLADOR"><path d="M251.69,243.0969 C156.47,259.0669 6,284.2969 6,284.2969 C6,284.2969 6,334.2969 6,334.2969 C6,334.2969 163.2826,360.6745 257.3126,376.4445 " fill="none" id=":seleccionarMovida-to-CONTROLADOR" style="stroke:#008000;stroke-width:1.0;"/><polygon fill="#008000" points="263.23,377.4369,255.0156,372.0033,258.2989,376.6099,253.6924,379.8932,263.23,377.4369" style="stroke:#008000;stroke-width:1.0;"/><path d="M11,289.2969 L11,329.2969 L174,329.2969 L174,299.2969 L164,289.2969 L11,289.2969 " fill="#F5F5F5" style="stroke:#181818;stroke-width:0.5;"/><path d="M164,289.2969 L164,299.2969 L174,299.2969 L164,289.2969 " fill="#F5F5F5" style="stroke:#181818;stroke-width:0.5;"/><text fill="#000000" font-family="sans-serif" font-size="13" font-weight="bold" lengthAdjust="spacing" textLength="142" x="17" y="306.3638">Usuario selecciona:</text><text fill="#000000" font-family="sans-serif" font-size="13" lengthAdjust="spacing" textLength="51" x="17" y="321.4966">- Atacar</text></g><!--link :seleccionarMovida to CONTROLADOR--><g id="link_:seleccionarMovida_CONTROLADOR"><path d="M278.6,254.7669 C249.76,269.0569 219,284.2969 219,284.2969 C219,284.2969 219,334.2969 219,334.2969 C219,334.2969 244.3838,346.873 273.2238,361.163 " fill="none" id=":seleccionarMovida-to-CONTROLADOR-1" style="stroke:#008000;stroke-width:1.0;"/><polygon fill="#008000" points="278.6,363.8269,272.3116,356.2469,274.1198,361.607,268.7597,363.4152,278.6,363.8269" style="stroke:#008000;stroke-width:1.0;"/><path d="M224,289.2969 L224,329.2969 L387,329.2969 L387,299.2969 L377,289.2969 L224,289.2969 " fill="#F5F5F5" style="stroke:#181818;stroke-width:0.5;"/><path d="M377,289.2969 L377,299.2969 L387,299.2969 L377,289.2969 " fill="#F5F5F5" style="stroke:#181818;stroke-width:0.5;"/><text fill="#000000" font-family="sans-serif" font-size="13" font-weight="bold" lengthAdjust="spacing" textLength="142" x="230" y="306.3638">Usuario selecciona:</text><text fill="#000000" font-family="sans-serif" font-size="13" lengthAdjust="spacing" textLength="68" x="230" y="321.4966">- Defender</text></g><!--link :seleccionarMovida to CONTROLADOR--><g id="link_:seleccionarMovida_CONTROLADOR"><path d="M358.82,254.7669 C376.81,269.0569 396,284.2969 396,284.2969 C396,284.2969 396,334.2969 396,334.2969 C396,334.2969 381.5082,345.805 363.5182,360.095 " fill="none" id=":seleccionarMovida-to-CONTROLADOR-2" style="stroke:#008000;stroke-width:1.0;"/><polygon fill="#008000" points="358.82,363.8269,368.3552,361.3611,362.7351,360.717,363.3793,355.0969,358.82,363.8269" style="stroke:#008000;stroke-width:1.0;"/><path d="M401,289.2969 L401,329.2969 L564,329.2969 L564,299.2969 L554,289.2969 L401,289.2969 " fill="#F5F5F5" style="stroke:#181818;stroke-width:0.5;"/><path d="M554,289.2969 L554,299.2969 L564,299.2969 L554,289.2969 " fill="#F5F5F5" style="stroke:#181818;stroke-width:0.5;"/><text fill="#000000" font-family="sans-serif" font-size="13" font-weight="bold" lengthAdjust="spacing" textLength="142" x="407" y="306.3638">Usuario selecciona:</text><text fill="#000000" font-family="sans-serif" font-size="13" lengthAdjust="spacing" textLength="66" x="407" y="321.4966">- Bloquear</text></g><!--link :seleccionarMovida to CONTROLADOR--><g id="link_:seleccionarMovida_CONTROLADOR"><path d="M404.4,246.8669 C477.6,262.7369 577,284.2969 577,284.2969 C577,284.2969 577,334.2969 577,334.2969 C577,334.2969 472.4137,356.9753 398.6337,372.9753 " fill="none" id=":seleccionarMovida-to-CONTROLADOR-3" style="stroke:#008000;stroke-width:1.0;"/><polygon fill="#008000" points="392.77,374.2469,402.4133,376.2486,397.6564,373.1872,400.7178,368.4303,392.77,374.2469" style="stroke:#008000;stroke-width:1.0;"/><path d="M582,289.2969 L582,329.2969 L745,329.2969 L745,299.2969 L735,289.2969 L582,289.2969 " fill="#F5F5F5" style="stroke:#181818;stroke-width:0.5;"/><path d="M735,289.2969 L735,299.2969 L745,299.2969 L735,289.2969 " fill="#F5F5F5" style="stroke:#181818;stroke-width:0.5;"/><text fill="#000000" font-family="sans-serif" font-size="13" font-weight="bold" lengthAdjust="spacing" textLength="142" x="588" y="306.3638">Usuario selecciona:</text><text fill="#000000" font-family="sans-serif" font-size="13" lengthAdjust="spacing" textLength="96" x="588" y="321.4966">- Tomar Poci&#243;n</text></g><!--SRC=[lP7DIiD04CVl-nG3lMWWuA4Ux45eqq8FsaXCJY8oxaxAakrEtDq8HNmg7y4NSrCrKlousPt3C5__tmph6srRTBW17p0GF0c06SfcxRYpAcF33aOrrkFxSLzXfyXzPENPINpYMGW_Y5Z-LUEqj_rkeos5RKlGijdsWH111qCmfu0c-WmzWoAeehicGr9gjkZWaX-rGZXQacCw5gAiYbL-jrmK-G9ITJDQEo9xcvx3n7zDlG-9tOfiUtWJ5qsIodVeD8DdewKEE4cIc4z_00goQdUY4D-5zy5PlYgB_68wpui_Y8F69tCQKABxVywSwiYW0v1cXXywEiHD9M_YJrsnrAylTi2z0G00]--></g></svg>