<svg xmlns="http://www.w3.org/2000/svg" xmlns:xlink="http://www.w3.org/1999/xlink" contentStyleType="text/css" height="315px" preserveAspectRatio="none" style="width:1015px;height:315px;background:#FFFFFF;" version="1.1" viewBox="0 0 1015 315" width="1015px" zoomAndPan="magnify"><defs/><g><ellipse cx="16" cy="158.15" fill="#222222" rx="10" ry="10" style="stroke:#222222;stroke-width:1.0;"/><path d="M98.5,41 L303.5,41 A12.5,12.5 0 0 1 316,53.5 L316,67.2969 L86,67.2969 L86,53.5 A12.5,12.5 0 0 1 98.5,41 " fill="#F1F1F1" style="stroke:#F1F1F1;stroke-width:1.0;"/><rect fill="none" height="234.2969" rx="12.5" ry="12.5" style="stroke:#181818;stroke-width:0.5;" width="230" x="86" y="41"/><line style="stroke:#181818;stroke-width:0.5;" x1="86" x2="316" y1="67.2969" y2="67.2969"/><text fill="#000000" font-family="sans-serif" font-size="14" lengthAdjust="spacing" textLength="53" x="174.5" y="58.9951">DISE&#209;O</text><g id="DISE&#209;O.Estrategias"><rect fill="#F1F1F1" height="50" rx="12.5" ry="12.5" style="stroke:#181818;stroke-width:0.5;" width="205" x="100" y="215.2969"/><line style="stroke:#181818;stroke-width:0.5;" x1="100" x2="305" y1="241.5938" y2="241.5938"/><text fill="#000000" font-family="sans-serif" font-size="14" lengthAdjust="spacing" textLength="185" x="110" y="233.292">Estrategias de clasificaci&#243;n</text></g><g id="DISE&#209;O.Relaciones"><rect fill="#F1F1F1" height="50" rx="12.5" ry="12.5" style="stroke:#181818;stroke-width:0.5;" width="185" x="110" y="147.2969"/><line style="stroke:#181818;stroke-width:0.5;" x1="110" x2="295" y1="173.5938" y2="173.5938"/><text fill="#000000" font-family="sans-serif" font-size="14" lengthAdjust="spacing" textLength="165" x="120" y="165.292">Relaciones entre clases</text></g><g id="DISE&#209;O.Colaboracion_Transmision"><rect fill="#F1F1F1" height="50" rx="12.5" ry="12.5" style="stroke:#181818;stroke-width:0.5;" width="209" x="98" y="79.2969"/><line style="stroke:#181818;stroke-width:0.5;" x1="98" x2="307" y1="105.5938" y2="105.5938"/><text fill="#000000" font-family="sans-serif" font-size="14" lengthAdjust="spacing" textLength="189" x="108" y="97.292">Colaboraci&#243;n y Transmisi&#243;n</text></g><path d="M388.5,7 L606.5,7 A12.5,12.5 0 0 1 619,19.5 L619,33.2969 L376,33.2969 L376,19.5 A12.5,12.5 0 0 1 388.5,7 " fill="#F1F1F1" style="stroke:#F1F1F1;stroke-width:1.0;"/><rect fill="none" height="302.2969" rx="12.5" ry="12.5" style="stroke:#181818;stroke-width:0.5;" width="243" x="376" y="7"/><line style="stroke:#181818;stroke-width:0.5;" x1="376" x2="619" y1="33.2969" y2="33.2969"/><text fill="#000000" font-family="sans-serif" font-size="14" lengthAdjust="spacing" textLength="130" x="432.5" y="24.9951">DISE&#209;O_MODULAR</text><g id="DISE&#209;O_MODULAR.Cohesion"><rect fill="#F1F1F1" height="50" rx="12.5" ry="12.5" style="stroke:#181818;stroke-width:0.5;" width="86" x="456" y="249.2969"/><line style="stroke:#181818;stroke-width:0.5;" x1="456" x2="542" y1="275.5938" y2="275.5938"/><text fill="#000000" font-family="sans-serif" font-size="14" lengthAdjust="spacing" textLength="66" x="466" y="267.292">Cohesi&#243;n</text></g><g id="DISE&#209;O_MODULAR.Acoplamiento"><rect fill="#F1F1F1" height="50" rx="12.5" ry="12.5" style="stroke:#181818;stroke-width:0.5;" width="114" x="442" y="181.2969"/><line style="stroke:#181818;stroke-width:0.5;" x1="442" x2="556" y1="207.5938" y2="207.5938"/><text fill="#000000" font-family="sans-serif" font-size="14" lengthAdjust="spacing" textLength="94" x="452" y="199.292">Acoplamiento</text></g><g id="DISE&#209;O_MODULAR.Granularidad"><rect fill="#F1F1F1" height="50" rx="12.5" ry="12.5" style="stroke:#181818;stroke-width:0.5;" width="107" x="445.5" y="113.2969"/><line style="stroke:#181818;stroke-width:0.5;" x1="445.5" x2="552.5" y1="139.5938" y2="139.5938"/><text fill="#000000" font-family="sans-serif" font-size="14" lengthAdjust="spacing" textLength="87" x="455.5" y="131.292">Granularidad</text></g><g id="DISE&#209;O_MODULAR.Smell_Codes"><rect fill="#F1F1F1" height="50" rx="12.5" ry="12.5" style="stroke:#181818;stroke-width:0.5;" width="222" x="388" y="45.2969"/><line style="stroke:#181818;stroke-width:0.5;" x1="388" x2="610" y1="71.5938" y2="71.5938"/><text fill="#000000" font-family="sans-serif" font-size="14" lengthAdjust="spacing" textLength="202" x="398" y="63.292">Identificaci&#243;n de Smell Codes</text></g><path d="M691.5,41 L914.5,41 A12.5,12.5 0 0 1 927,53.5 L927,67.2969 L679,67.2969 L679,53.5 A12.5,12.5 0 0 1 691.5,41 " fill="#F1F1F1" style="stroke:#F1F1F1;stroke-width:1.0;"/><rect fill="none" height="234.2969" rx="12.5" ry="12.5" style="stroke:#181818;stroke-width:0.5;" width="248" x="679" y="41"/><line style="stroke:#181818;stroke-width:0.5;" x1="679" x2="927" y1="67.2969" y2="67.2969"/><text fill="#000000" font-family="sans-serif" font-size="14" lengthAdjust="spacing" textLength="228" x="689" y="58.9951">DISE&#209;O_ORIENTADO_A_OBJETOS</text><g id="DISE&#209;O_ORIENTADO_A_OBJETOS.SOLID"><rect fill="#F1F1F1" height="50" rx="12.5" ry="12.5" style="stroke:#181818;stroke-width:0.5;" width="131" x="731.5" y="215.2969"/><line style="stroke:#181818;stroke-width:0.5;" x1="731.5" x2="862.5" y1="241.5938" y2="241.5938"/><text fill="#000000" font-family="sans-serif" font-size="14" lengthAdjust="spacing" textLength="111" x="741.5" y="233.292">Principios SOLID</text></g><g id="DISE&#209;O_ORIENTADO_A_OBJETOS.Patrones"><rect fill="#F1F1F1" height="50" rx="12.5" ry="12.5" style="stroke:#181818;stroke-width:0.5;" width="155" x="719.5" y="147.2969"/><line style="stroke:#181818;stroke-width:0.5;" x1="719.5" x2="874.5" y1="173.5938" y2="173.5938"/><text fill="#000000" font-family="sans-serif" font-size="14" lengthAdjust="spacing" textLength="135" x="729.5" y="165.292">Patrones de dise&#241;o</text></g><g id="DISE&#209;O_ORIENTADO_A_OBJETOS.Inyeccion"><rect fill="#F1F1F1" height="50" rx="12.5" ry="12.5" style="stroke:#181818;stroke-width:0.5;" width="212" x="691" y="79.2969"/><line style="stroke:#181818;stroke-width:0.5;" x1="691" x2="903" y1="105.5938" y2="105.5938"/><text fill="#000000" font-family="sans-serif" font-size="14" lengthAdjust="spacing" textLength="192" x="701" y="97.292">Inyecci&#243;n de Dependencias</text></g><ellipse cx="998" cy="158.15" fill="none" rx="11" ry="11" style="stroke:#222222;stroke-width:1.0;"/><ellipse cx="998" cy="158.15" fill="#222222" rx="6" ry="6" style="stroke:#222222;stroke-width:1.0;"/><!--link *start* to DISE?O--><g id="link_*start*_DISE&#209;O"><path d="M26.33,158.15 C38.42,158.15 54.92,158.15 79.82,158.15 " fill="none" id="*start*-to-DISE&#209;O" style="stroke:#181818;stroke-width:1.0;"/><polygon fill="#181818" points="85.82,158.15,76.82,154.15,80.82,158.15,76.82,162.15,85.82,158.15" style="stroke:#181818;stroke-width:1.0;"/></g><!--link DISE?O to DISE?O_MODULAR--><g id="link_DISE&#209;O_DISE&#209;O_MODULAR"><path d="M316.28,158.15 C335.85,158.15 350.23,158.15 369.95,158.15 " fill="none" id="DISE&#209;O-to-DISE&#209;O_MODULAR" style="stroke:#181818;stroke-width:1.0;"/><polygon fill="#181818" points="375.95,158.15,366.95,154.15,370.95,158.15,366.95,162.15,375.95,158.15" style="stroke:#181818;stroke-width:1.0;"/></g><!--link DISE?O_MODULAR to DISE?O_ORIENTADO_A_OBJETOS--><g id="link_DISE&#209;O_MODULAR_DISE&#209;O_ORIENTADO_A_OBJETOS"><path d="M619.32,158.15 C638.83,158.15 653.05,158.15 672.61,158.15 " fill="none" id="DISE&#209;O_MODULAR-to-DISE&#209;O_ORIENTADO_A_OBJETOS" style="stroke:#181818;stroke-width:1.0;"/><polygon fill="#181818" points="678.61,158.15,669.61,154.15,673.61,158.15,669.61,162.15,678.61,158.15" style="stroke:#181818;stroke-width:1.0;"/></g><!--link DISE?O_ORIENTADO_A_OBJETOS to *end*--><g id="link_DISE&#209;O_ORIENTADO_A_OBJETOS_*end*"><path d="M927.32,158.15 C952.15,158.15 968.4,158.15 980.76,158.15 " fill="none" id="DISE&#209;O_ORIENTADO_A_OBJETOS-to-*end*" style="stroke:#181818;stroke-width:1.0;"/><polygon fill="#181818" points="986.76,158.15,977.76,154.15,981.76,158.15,977.76,162.15,986.76,158.15" style="stroke:#181818;stroke-width:1.0;"/></g><!--SRC=[RP9HQWCX48RVFONaiP0h5BRPfMn9QadIfr8MgvDam6XG-n1A3z6Zb1uX5-kiczsu8Juvl_yuyuqQs4GU7VUutKMkqOEAw2nZRtVlV3gzvsMzgau_Wh4GPOG-v5-Cq-gqIHMYfyqMPU0Qk38ou0QLL7ZwinDEQkR84vTWoEGi10us-YuLGagvdEKPCsVaX_FTrVp8rrxQiCSmLBeOd6s6KoBwPgnlFkDg5g9ydHVBAxvU7dFEt0xoIcr4DsUEGhc3aNia6fTCkP0R7wcpJoCzQgcJCHToOwqfzJBDThwhFHX3vVLvKYbkKfnH3WWvhLZMrVEwA4LJDEBXgLgBrJNv3Sju2YyUhS83EgeivdNPzT3kHYuPVNfOQbXZWDDlDv1U7p7Q8wW1huG3MA9Mz5bIolbuz8Otssn9wT_-0m00]--></g></svg>