<?xml version="1.0" encoding="UTF-8" standalone="no"?><svg xmlns="http://www.w3.org/2000/svg" xmlns:xlink="http://www.w3.org/1999/xlink" contentStyleType="text/css" height="755px" preserveAspectRatio="none" style="width:352px;height:755px;background:#FFFFFF;" version="1.1" viewBox="0 0 352 755" width="352px" zoomAndPan="magnify"><defs/><g><!--MD5=[883c1ea44c7257ac45dd5476f6348943]
class Ascensores--><g id="elem_Ascensores"><rect codeLine="1" fill="#F1F1F1" height="48" id="Ascensores" rx="2.5" ry="2.5" style="stroke:#181818;stroke-width:0.5;" width="106" x="85.1" y="7"/><ellipse cx="100.1" cy="23" fill="#ADD1B2" rx="11" ry="11" style="stroke:#181818;stroke-width:1.0;"/><path d="M102.8656,18.875 Q103.0219,18.6563 103.2094,18.5469 Q103.3969,18.4375 103.6156,18.4375 Q103.9906,18.4375 104.225,18.7031 Q104.4594,18.9531 104.4594,19.5625 L104.4594,21.0156 Q104.4594,21.625 104.225,21.8906 Q103.9906,22.1563 103.6156,22.1563 Q103.2719,22.1563 103.0688,21.9531 Q102.8656,21.7656 102.7563,21.25 Q102.7094,20.8906 102.5219,20.7031 Q102.1938,20.3281 101.5844,20.1094 Q100.975,19.8906 100.35,19.8906 Q99.5844,19.8906 98.9438,20.2188 Q98.3188,20.5469 97.8188,21.2969 Q97.3344,22.0469 97.3344,23.0781 L97.3344,24.1719 Q97.3344,25.4063 98.225,26.2344 Q99.1156,27.0469 100.7094,27.0469 Q101.6469,27.0469 102.3031,26.7969 Q102.6938,26.6406 103.1156,26.2031 Q103.3813,25.9375 103.5219,25.8594 Q103.6781,25.7813 103.8813,25.7813 Q104.2094,25.7813 104.4594,26.0469 Q104.725,26.2969 104.725,26.6406 Q104.725,26.9844 104.3813,27.3906 Q103.8813,27.9688 103.0844,28.2969 Q102.0063,28.75 100.7094,28.75 Q99.1938,28.75 97.9906,28.125 Q97.0063,27.625 96.3188,26.5625 Q95.6313,25.4844 95.6313,24.2031 L95.6313,23.0469 Q95.6313,21.7188 96.2406,20.5781 Q96.8656,19.4219 97.9594,18.8125 Q99.0531,18.1875 100.2875,18.1875 Q101.0219,18.1875 101.6625,18.3594 Q102.3188,18.5156 102.8656,18.875 Z " fill="#000000"/><text fill="#000000" font-family="sans-serif" font-size="14" lengthAdjust="spacing" textLength="74" x="114.1" y="28.7285">Ascensores</text><line style="stroke:#181818;stroke-width:0.5;" x1="86.1" x2="190.1" y1="39" y2="39"/><line style="stroke:#181818;stroke-width:0.5;" x1="86.1" x2="190.1" y1="47" y2="47"/></g><!--MD5=[52fa14dea17687a83e910449d3bc68aa]
class Ascensor--><g id="elem_Ascensor"><rect codeLine="2" fill="#F1F1F1" height="100.8281" id="Ascensor" rx="2.5" ry="2.5" style="stroke:#181818;stroke-width:0.5;" width="134" x="69.1" y="325"/><ellipse cx="103.45" cy="341" fill="#ADD1B2" rx="11" ry="11" style="stroke:#181818;stroke-width:1.0;"/><path d="M106.2156,336.875 Q106.3719,336.6563 106.5594,336.5469 Q106.7469,336.4375 106.9656,336.4375 Q107.3406,336.4375 107.575,336.7031 Q107.8094,336.9531 107.8094,337.5625 L107.8094,339.0156 Q107.8094,339.625 107.575,339.8906 Q107.3406,340.1563 106.9656,340.1563 Q106.6219,340.1563 106.4187,339.9531 Q106.2156,339.7656 106.1062,339.25 Q106.0594,338.8906 105.8719,338.7031 Q105.5437,338.3281 104.9344,338.1094 Q104.325,337.8906 103.7,337.8906 Q102.9344,337.8906 102.2937,338.2188 Q101.6687,338.5469 101.1687,339.2969 Q100.6844,340.0469 100.6844,341.0781 L100.6844,342.1719 Q100.6844,343.4063 101.575,344.2344 Q102.4656,345.0469 104.0594,345.0469 Q104.9969,345.0469 105.6531,344.7969 Q106.0437,344.6406 106.4656,344.2031 Q106.7312,343.9375 106.8719,343.8594 Q107.0281,343.7813 107.2312,343.7813 Q107.5594,343.7813 107.8094,344.0469 Q108.075,344.2969 108.075,344.6406 Q108.075,344.9844 107.7312,345.3906 Q107.2312,345.9688 106.4344,346.2969 Q105.3562,346.75 104.0594,346.75 Q102.5437,346.75 101.3406,346.125 Q100.3562,345.625 99.6687,344.5625 Q98.9812,343.4844 98.9812,342.2031 L98.9812,341.0469 Q98.9812,339.7188 99.5906,338.5781 Q100.2156,337.4219 101.3094,336.8125 Q102.4031,336.1875 103.6375,336.1875 Q104.3719,336.1875 105.0125,336.3594 Q105.6687,336.5156 106.2156,336.875 Z " fill="#000000"/><text fill="#000000" font-family="sans-serif" font-size="14" lengthAdjust="spacing" textLength="59" x="121.75" y="346.7285">Ascensor</text><line style="stroke:#181818;stroke-width:0.5;" x1="70.1" x2="202.1" y1="357" y2="357"/><text fill="#000000" font-family="sans-serif" font-size="14" lengthAdjust="spacing" textLength="53" x="75.1" y="375.5332">Posición</text><text fill="#000000" font-family="sans-serif" font-size="14" lengthAdjust="spacing" textLength="59" x="75.1" y="393.1426">Dirección</text><text fill="#000000" font-family="sans-serif" font-size="14" lengthAdjust="spacing" textLength="122" x="75.1" y="410.752">Huecos disponibles</text><line style="stroke:#181818;stroke-width:0.5;" x1="70.1" x2="202.1" y1="417.8281" y2="417.8281"/></g><!--MD5=[8f63dadf5c643e74a34e53c8f0a15d23]
class Persona--><g id="elem_Persona"><rect codeLine="8" fill="#F1F1F1" height="65.6094" id="Persona" rx="2.5" ry="2.5" style="stroke:#181818;stroke-width:0.5;" width="85" x="161.6" y="504"/><ellipse cx="176.6" cy="520" fill="#ADD1B2" rx="11" ry="11" style="stroke:#181818;stroke-width:1.0;"/><path d="M179.3656,515.875 Q179.5219,515.6563 179.7094,515.5469 Q179.8969,515.4375 180.1156,515.4375 Q180.4906,515.4375 180.725,515.7031 Q180.9594,515.9531 180.9594,516.5625 L180.9594,518.0156 Q180.9594,518.625 180.725,518.8906 Q180.4906,519.1563 180.1156,519.1563 Q179.7719,519.1563 179.5688,518.9531 Q179.3656,518.7656 179.2563,518.25 Q179.2094,517.8906 179.0219,517.7031 Q178.6938,517.3281 178.0844,517.1094 Q177.475,516.8906 176.85,516.8906 Q176.0844,516.8906 175.4438,517.2188 Q174.8188,517.5469 174.3188,518.2969 Q173.8344,519.0469 173.8344,520.0781 L173.8344,521.1719 Q173.8344,522.4063 174.725,523.2344 Q175.6156,524.0469 177.2094,524.0469 Q178.1469,524.0469 178.8031,523.7969 Q179.1938,523.6406 179.6156,523.2031 Q179.8813,522.9375 180.0219,522.8594 Q180.1781,522.7813 180.3813,522.7813 Q180.7094,522.7813 180.9594,523.0469 Q181.225,523.2969 181.225,523.6406 Q181.225,523.9844 180.8813,524.3906 Q180.3813,524.9688 179.5844,525.2969 Q178.5063,525.75 177.2094,525.75 Q175.6938,525.75 174.4906,525.125 Q173.5063,524.625 172.8188,523.5625 Q172.1313,522.4844 172.1313,521.2031 L172.1313,520.0469 Q172.1313,518.7188 172.7406,517.5781 Q173.3656,516.4219 174.4594,515.8125 Q175.5531,515.1875 176.7875,515.1875 Q177.5219,515.1875 178.1625,515.3594 Q178.8188,515.5156 179.3656,515.875 Z " fill="#000000"/><text fill="#000000" font-family="sans-serif" font-size="14" lengthAdjust="spacing" textLength="53" x="190.6" y="525.7285">Persona</text><line style="stroke:#181818;stroke-width:0.5;" x1="162.6" x2="245.6" y1="536" y2="536"/><text fill="#000000" font-family="sans-serif" font-size="14" lengthAdjust="spacing" textLength="53" x="167.6" y="554.5332">Posición</text><line style="stroke:#181818;stroke-width:0.5;" x1="162.6" x2="245.6" y1="561.6094" y2="561.6094"/></g><!--MD5=[d2474268c91e55a03a3bf66e529fdd78]
class Planta--><g id="elem_Planta"><rect codeLine="12" fill="#F1F1F1" height="83.2188" id="Planta" rx="2.5" ry="2.5" style="stroke:#181818;stroke-width:0.5;" width="144" x="201.1" y="212"/><ellipse cx="248.85" cy="228" fill="#ADD1B2" rx="11" ry="11" style="stroke:#181818;stroke-width:1.0;"/><path d="M251.6156,223.875 Q251.7719,223.6563 251.9594,223.5469 Q252.1469,223.4375 252.3656,223.4375 Q252.7406,223.4375 252.975,223.7031 Q253.2094,223.9531 253.2094,224.5625 L253.2094,226.0156 Q253.2094,226.625 252.975,226.8906 Q252.7406,227.1563 252.3656,227.1563 Q252.0219,227.1563 251.8188,226.9531 Q251.6156,226.7656 251.5063,226.25 Q251.4594,225.8906 251.2719,225.7031 Q250.9438,225.3281 250.3344,225.1094 Q249.725,224.8906 249.1,224.8906 Q248.3344,224.8906 247.6938,225.2188 Q247.0688,225.5469 246.5688,226.2969 Q246.0844,227.0469 246.0844,228.0781 L246.0844,229.1719 Q246.0844,230.4063 246.975,231.2344 Q247.8656,232.0469 249.4594,232.0469 Q250.3969,232.0469 251.0531,231.7969 Q251.4438,231.6406 251.8656,231.2031 Q252.1313,230.9375 252.2719,230.8594 Q252.4281,230.7813 252.6313,230.7813 Q252.9594,230.7813 253.2094,231.0469 Q253.475,231.2969 253.475,231.6406 Q253.475,231.9844 253.1313,232.3906 Q252.6313,232.9688 251.8344,233.2969 Q250.7563,233.75 249.4594,233.75 Q247.9438,233.75 246.7406,233.125 Q245.7563,232.625 245.0688,231.5625 Q244.3813,230.4844 244.3813,229.2031 L244.3813,228.0469 Q244.3813,226.7188 244.9906,225.5781 Q245.6156,224.4219 246.7094,223.8125 Q247.8031,223.1875 249.0375,223.1875 Q249.7719,223.1875 250.4125,223.3594 Q251.0688,223.5156 251.6156,223.875 Z " fill="#000000"/><text fill="#000000" font-family="sans-serif" font-size="14" lengthAdjust="spacing" textLength="40" x="269.35" y="233.7285">Planta</text><line style="stroke:#181818;stroke-width:0.5;" x1="202.1" x2="344.1" y1="244" y2="244"/><text fill="#000000" font-family="sans-serif" font-size="14" lengthAdjust="spacing" textLength="123" x="207.1" y="262.5332">Personas en planta</text><text fill="#000000" font-family="sans-serif" font-size="14" lengthAdjust="spacing" textLength="132" x="207.1" y="280.1426">Personas esperando</text><line style="stroke:#181818;stroke-width:0.5;" x1="202.1" x2="344.1" y1="287.2188" y2="287.2188"/></g><!--MD5=[fbdff18af582baf4f8d6f63a9b20d3fd]
class Lista de Tareas--><g id="elem_Lista de Tareas"><rect codeLine="17" fill="#F1F1F1" height="100.8281" id="Lista de Tareas" rx="2.5" ry="2.5" style="stroke:#181818;stroke-width:0.5;" width="131" x="138.6" y="648"/><ellipse cx="153.6" cy="664" fill="#ADD1B2" rx="11" ry="11" style="stroke:#181818;stroke-width:1.0;"/><path d="M156.3656,659.875 Q156.5219,659.6563 156.7094,659.5469 Q156.8969,659.4375 157.1156,659.4375 Q157.4906,659.4375 157.725,659.7031 Q157.9594,659.9531 157.9594,660.5625 L157.9594,662.0156 Q157.9594,662.625 157.725,662.8906 Q157.4906,663.1563 157.1156,663.1563 Q156.7719,663.1563 156.5688,662.9531 Q156.3656,662.7656 156.2563,662.25 Q156.2094,661.8906 156.0219,661.7031 Q155.6938,661.3281 155.0844,661.1094 Q154.475,660.8906 153.85,660.8906 Q153.0844,660.8906 152.4438,661.2188 Q151.8188,661.5469 151.3188,662.2969 Q150.8344,663.0469 150.8344,664.0781 L150.8344,665.1719 Q150.8344,666.4063 151.725,667.2344 Q152.6156,668.0469 154.2094,668.0469 Q155.1469,668.0469 155.8031,667.7969 Q156.1938,667.6406 156.6156,667.2031 Q156.8813,666.9375 157.0219,666.8594 Q157.1781,666.7813 157.3813,666.7813 Q157.7094,666.7813 157.9594,667.0469 Q158.225,667.2969 158.225,667.6406 Q158.225,667.9844 157.8813,668.3906 Q157.3813,668.9688 156.5844,669.2969 Q155.5063,669.75 154.2094,669.75 Q152.6938,669.75 151.4906,669.125 Q150.5063,668.625 149.8188,667.5625 Q149.1313,666.4844 149.1313,665.2031 L149.1313,664.0469 Q149.1313,662.7188 149.7406,661.5781 Q150.3656,660.4219 151.4594,659.8125 Q152.5531,659.1875 153.7875,659.1875 Q154.5219,659.1875 155.1625,659.3594 Q155.8188,659.5156 156.3656,659.875 Z " fill="#000000"/><text fill="#000000" font-family="sans-serif" font-size="14" lengthAdjust="spacing" textLength="99" x="167.6" y="669.7285">Lista de Tareas</text><line style="stroke:#181818;stroke-width:0.5;" x1="139.6" x2="268.6" y1="680" y2="680"/><text fill="#000000" font-family="sans-serif" font-size="14" lengthAdjust="spacing" textLength="107" x="144.6" y="698.5332">Planta a la que ir</text><text fill="#000000" font-family="sans-serif" font-size="14" lengthAdjust="spacing" textLength="99" x="144.6" y="716.1426">Tiempo a pasar</text><text fill="#000000" font-family="sans-serif" font-size="14" lengthAdjust="spacing" textLength="76" x="144.6" y="733.752">Completado</text><line style="stroke:#181818;stroke-width:0.5;" x1="139.6" x2="268.6" y1="740.8281" y2="740.8281"/></g><!--MD5=[d8d03b24c4544ca4a39c0d97aa14b2ef]
class Control del Ascensor--><g id="elem_Control del Ascensor"><rect codeLine="23" fill="#F1F1F1" height="65.6094" id="Control del Ascensor" rx="2.5" ry="2.5" style="stroke:#181818;stroke-width:0.5;" width="164" x="56.1" y="116"/><ellipse cx="71.1" cy="132" fill="#ADD1B2" rx="11" ry="11" style="stroke:#181818;stroke-width:1.0;"/><path d="M73.8656,127.875 Q74.0219,127.6563 74.2094,127.5469 Q74.3969,127.4375 74.6156,127.4375 Q74.9906,127.4375 75.225,127.7031 Q75.4594,127.9531 75.4594,128.5625 L75.4594,130.0156 Q75.4594,130.625 75.225,130.8906 Q74.9906,131.1563 74.6156,131.1563 Q74.2719,131.1563 74.0688,130.9531 Q73.8656,130.7656 73.7563,130.25 Q73.7094,129.8906 73.5219,129.7031 Q73.1938,129.3281 72.5844,129.1094 Q71.975,128.8906 71.35,128.8906 Q70.5844,128.8906 69.9438,129.2188 Q69.3188,129.5469 68.8188,130.2969 Q68.3344,131.0469 68.3344,132.0781 L68.3344,133.1719 Q68.3344,134.4063 69.225,135.2344 Q70.1156,136.0469 71.7094,136.0469 Q72.6469,136.0469 73.3031,135.7969 Q73.6938,135.6406 74.1156,135.2031 Q74.3813,134.9375 74.5219,134.8594 Q74.6781,134.7813 74.8813,134.7813 Q75.2094,134.7813 75.4594,135.0469 Q75.725,135.2969 75.725,135.6406 Q75.725,135.9844 75.3813,136.3906 Q74.8813,136.9688 74.0844,137.2969 Q73.0063,137.75 71.7094,137.75 Q70.1938,137.75 68.9906,137.125 Q68.0063,136.625 67.3188,135.5625 Q66.6313,134.4844 66.6313,133.2031 L66.6313,132.0469 Q66.6313,130.7188 67.2406,129.5781 Q67.8656,128.4219 68.9594,127.8125 Q70.0531,127.1875 71.2875,127.1875 Q72.0219,127.1875 72.6625,127.3594 Q73.3188,127.5156 73.8656,127.875 Z " fill="#000000"/><text fill="#000000" font-family="sans-serif" font-size="14" lengthAdjust="spacing" textLength="132" x="85.1" y="137.7285">Control del Ascensor</text><line style="stroke:#181818;stroke-width:0.5;" x1="57.1" x2="219.1" y1="148" y2="148"/><text fill="#000000" font-family="sans-serif" font-size="14" lengthAdjust="spacing" textLength="145" x="62.1" y="166.5332">Ascensor al que enviar</text><line style="stroke:#181818;stroke-width:0.5;" x1="57.1" x2="219.1" y1="173.6094" y2="173.6094"/></g><!--MD5=[14abc7e8830ec2055213d007f17db809]
link Ascensores to Ascensor--><g id="link_Ascensores_Ascensor"><path codeLine="27" d="M96.01,55.12 C74.39,69.52 50.12,90.21 38.1,116 C6,184.9 51.12,267.48 90.21,320.45 " fill="none" id="Ascensores-to-Ascensor" style="stroke:#181818;stroke-width:1.0;"/><polygon fill="#181818" points="93.25,324.53,91.072,314.925,90.2592,320.5231,84.661,319.7103,93.25,324.53" style="stroke:#181818;stroke-width:1.0;"/></g><!--MD5=[bec5a102f7cefb924655da7407a9c5bf]
link Ascensores to Planta--><g id="link_Ascensores_Planta"><path codeLine="28" d="M176.02,55.23 C197.26,70.11 222.53,91.24 238.1,116 C255.33,143.39 264.1,178.91 268.55,206.86 " fill="none" id="Ascensores-to-Planta" style="stroke:#181818;stroke-width:1.0;"/><polygon fill="#181818" points="269.34,211.98,271.958,202.4855,268.5969,207.0355,264.0468,203.6744,269.34,211.98" style="stroke:#181818;stroke-width:1.0;"/></g><!--MD5=[515f0135e130844a428c7e0402f39fed]
link Ascensor to Persona--><g id="link_Ascensor_Persona"><path codeLine="29" d="M157.25,426.09 C167.25,449.56 179,477.11 188.22,498.75 " fill="none" id="Ascensor-to-Persona" style="stroke:#181818;stroke-width:1.0;"/><polygon fill="#181818" points="190.27,503.56,190.4013,493.712,188.3004,498.9643,183.0481,496.8634,190.27,503.56" style="stroke:#181818;stroke-width:1.0;"/><text fill="#000000" font-family="sans-serif" font-size="13" lengthAdjust="spacing" textLength="28" x="177.1" y="470.4951">tiene</text></g><!--MD5=[6506752611e45c7ced435318ad56358f]
link Planta to Persona--><g id="link_Planta_Persona"><path codeLine="30" d="M263.14,295.13 C249.77,349.71 226.18,445.92 213.24,498.72 " fill="none" id="Planta-to-Persona" style="stroke:#181818;stroke-width:1.0;"/><polygon fill="#181818" points="212.02,503.69,218.0403,495.8954,213.2058,498.8326,210.2685,493.9981,212.02,503.69" style="stroke:#181818;stroke-width:1.0;"/><text fill="#000000" font-family="sans-serif" font-size="13" lengthAdjust="spacing" textLength="28" x="256.1" y="380.9951">tiene</text></g><!--MD5=[2a212c98d1885b5a4bb45c5cf5c23c43]
link Persona to Lista de Tareas--><g id="link_Persona_Lista de Tareas"><path codeLine="31" d="M204.1,570.28 C204.1,591.1 204.1,618.71 204.1,642.88 " fill="none" id="Persona-to-Lista de Tareas" style="stroke:#181818;stroke-width:1.0;"/><polygon fill="#181818" points="204.1,647.99,208.1,638.99,204.1,642.99,200.1,638.99,204.1,647.99" style="stroke:#181818;stroke-width:1.0;"/><text fill="#000000" font-family="sans-serif" font-size="13" lengthAdjust="spacing" textLength="28" x="205.1" y="614.4951">tiene</text></g><!--MD5=[c47c56df97dcb8aad75f91e4f90e141d]
link Ascensores to Control del Ascensor--><g id="link_Ascensores_Control del Ascensor"><path codeLine="32" d="M138.1,55.2 C138.1,71.03 138.1,92.36 138.1,110.57 " fill="none" id="Ascensores-to-Control del Ascensor" style="stroke:#181818;stroke-width:1.0;"/><polygon fill="#181818" points="138.1,115.62,142.1,106.62,138.1,110.62,134.1,106.62,138.1,115.62" style="stroke:#181818;stroke-width:1.0;"/></g><!--MD5=[98915450fc404847dae5e69c44136bb2]
link Control del Ascensor to Ascensor--><g id="link_Control del Ascensor_Ascensor"><path codeLine="33" d="M136.87,182.17 C136.55,191.77 136.26,202.31 136.1,212 C135.53,247.73 135.52,287.89 135.66,319.34 " fill="none" id="Control del Ascensor-to-Ascensor" style="stroke:#181818;stroke-width:1.0;"/><polygon fill="#181818" points="135.69,324.71,139.6385,315.6873,135.6614,319.7101,131.6386,315.733,135.69,324.71" style="stroke:#181818;stroke-width:1.0;"/><text fill="#000000" font-family="sans-serif" font-size="13" lengthAdjust="spacing" textLength="46" x="137.1" y="258.9951">controla</text></g><!--MD5=[b9cb72715c53908cafd253d088163c61]
@startuml
Class Ascensores
Class Ascensor
{
    Posición
    Dirección
    Huecos disponibles
}
Class Persona
{
    Posición
}
Class Planta
{
    Personas en planta
    Personas esperando
}
Class "Lista de Tareas"
{
    Planta a la que ir
    Tiempo a pasar
    Completado
}
Class "Control del Ascensor"
{
    Ascensor al que enviar
}
Ascensores - -> Ascensor
Ascensores - -> Planta
Ascensor - -> Persona : tiene
Planta - -> Persona : tiene
Persona - -> "Lista de Tareas" : tiene
Ascensores - -> "Control del Ascensor"
"Control del Ascensor" - -> Ascensor : controla
@end

PlantUML version 1.2022.7(Mon Aug 22 19:01:30 CEST 2022)
(GPL source distribution)
Java Runtime: OpenJDK Runtime Environment
JVM: OpenJDK 64-Bit Server VM
Default Encoding: Cp1252
Language: es
Country: ES
--></g></svg>