<?xml version="1.0" encoding="us-ascii" standalone="no"?><svg xmlns="http://www.w3.org/2000/svg" xmlns:xlink="http://www.w3.org/1999/xlink" contentStyleType="text/css" height="613px" preserveAspectRatio="none" style="width:422px;height:613px;background:#FFFFFF;" version="1.1" viewBox="0 0 422 613" width="422px" zoomAndPan="magnify"><defs/><g><!--class ShoppingCenter--><g id="elem_ShoppingCenter"><rect codeLine="1" fill="#F1F1F1" height="129.4844" id="ShoppingCenter" rx="2.5" ry="2.5" style="stroke:#181818;stroke-width:0.5;" width="151" x="75.4799" y="7"/><ellipse cx="90.4799" cy="23" fill="#ADD1B2" rx="11" ry="11" style="stroke:#181818;stroke-width:1.0;"/><path d="M92.8237,18.6719 C91.8862,18.2344 91.2924,18.0938 90.4174,18.0938 C87.7924,18.0938 85.7924,20.1719 85.7924,22.8906 L85.7924,24.0156 C85.7924,26.5938 87.9018,28.4844 90.7924,28.4844 C92.0112,28.4844 93.1674,28.1875 93.9174,27.6406 C94.4955,27.2344 94.8237,26.7813 94.8237,26.3906 C94.8237,25.9375 94.433,25.5469 93.9643,25.5469 C93.7455,25.5469 93.5424,25.625 93.3549,25.8125 C92.9018,26.2969 92.9018,26.2969 92.7143,26.3906 C92.2924,26.6563 91.6049,26.7813 90.8393,26.7813 C88.7924,26.7813 87.4955,25.6875 87.4955,23.9844 L87.4955,22.8906 C87.4955,21.1094 88.7455,19.7969 90.4799,19.7969 C91.058,19.7969 91.6674,19.9531 92.1362,20.2031 C92.6205,20.4844 92.7924,20.7031 92.8862,21.1094 C92.9487,21.5156 92.9799,21.6406 93.1205,21.7656 C93.2612,21.9063 93.4955,22.0156 93.7143,22.0156 C93.9799,22.0156 94.2455,21.875 94.4174,21.6563 C94.5268,21.5 94.558,21.3125 94.558,20.8906 L94.558,19.4688 C94.558,19.0313 94.5424,18.9063 94.4487,18.75 C94.2924,18.4844 94.0112,18.3438 93.7143,18.3438 C93.4174,18.3438 93.2143,18.4375 92.9955,18.75 L92.8237,18.6719 Z " fill="#000000"/><text fill="#000000" font-family="sans-serif" font-size="14" lengthAdjust="spacing" textLength="119" x="104.4799" y="27.8467">ShoppingCenter</text><line style="stroke:#181818;stroke-width:0.5;" x1="76.4799" x2="225.4799" y1="39" y2="39"/><rect fill="none" height="6" style="stroke:#C82930;stroke-width:1.0;" width="6" x="83.4799" y="49.6484"/><text fill="#000000" font-family="sans-serif" font-size="14" lengthAdjust="spacing" textLength="92" x="95.4799" y="55.9951">openingHour</text><rect fill="none" height="6" style="stroke:#C82930;stroke-width:1.0;" width="6" x="83.4799" y="65.9453"/><text fill="#000000" font-family="sans-serif" font-size="14" lengthAdjust="spacing" textLength="83" x="95.4799" y="72.292">closingHour</text><rect fill="none" height="6" style="stroke:#C82930;stroke-width:1.0;" width="6" x="83.4799" y="82.2422"/><text fill="#000000" font-family="sans-serif" font-size="14" lengthAdjust="spacing" textLength="34" x="95.4799" y="88.5889">time</text><rect fill="none" height="6" style="stroke:#C82930;stroke-width:1.0;" width="6" x="83.4799" y="98.5391"/><text fill="#000000" font-family="sans-serif" font-size="14" lengthAdjust="spacing" textLength="123" x="95.4799" y="104.8857">arrivalProbability</text><rect fill="none" height="6" style="stroke:#C82930;stroke-width:1.0;" width="6" x="83.4799" y="114.8359"/><text fill="#000000" font-family="sans-serif" font-size="14" lengthAdjust="spacing" textLength="50" x="95.4799" y="121.1826">isOpen</text><line style="stroke:#181818;stroke-width:0.5;" x1="76.4799" x2="225.4799" y1="128.4844" y2="128.4844"/></g><!--class CashRegister--><g id="elem_CashRegister"><rect codeLine="9" fill="#F1F1F1" height="96.8906" id="CashRegister" rx="2.5" ry="2.5" style="stroke:#181818;stroke-width:0.5;" width="152" x="49.9799" y="510"/><ellipse cx="76.2299" cy="526" fill="#ADD1B2" rx="11" ry="11" style="stroke:#181818;stroke-width:1.0;"/><path d="M78.5737,521.6719 C77.6362,521.2344 77.0424,521.0938 76.1674,521.0938 C73.5424,521.0938 71.5424,523.1719 71.5424,525.8906 L71.5424,527.0156 C71.5424,529.5938 73.6518,531.4844 76.5424,531.4844 C77.7612,531.4844 78.9174,531.1875 79.6674,530.6406 C80.2455,530.2344 80.5737,529.7813 80.5737,529.3906 C80.5737,528.9375 80.183,528.5469 79.7143,528.5469 C79.4955,528.5469 79.2924,528.625 79.1049,528.8125 C78.6518,529.2969 78.6518,529.2969 78.4643,529.3906 C78.0424,529.6563 77.3549,529.7813 76.5893,529.7813 C74.5424,529.7813 73.2455,528.6875 73.2455,526.9844 L73.2455,525.8906 C73.2455,524.1094 74.4955,522.7969 76.2299,522.7969 C76.808,522.7969 77.4174,522.9531 77.8862,523.2031 C78.3705,523.4844 78.5424,523.7031 78.6362,524.1094 C78.6987,524.5156 78.7299,524.6406 78.8705,524.7656 C79.0112,524.9063 79.2455,525.0156 79.4643,525.0156 C79.7299,525.0156 79.9955,524.875 80.1674,524.6563 C80.2768,524.5 80.308,524.3125 80.308,523.8906 L80.308,522.4688 C80.308,522.0313 80.2924,521.9063 80.1987,521.75 C80.0424,521.4844 79.7612,521.3438 79.4643,521.3438 C79.1674,521.3438 78.9643,521.4375 78.7455,521.75 L78.5737,521.6719 Z " fill="#000000"/><text fill="#000000" font-family="sans-serif" font-size="14" lengthAdjust="spacing" textLength="95" x="92.7299" y="530.8467">CashRegister</text><line style="stroke:#181818;stroke-width:0.5;" x1="50.9799" x2="200.9799" y1="542" y2="542"/><rect fill="none" height="6" style="stroke:#C82930;stroke-width:1.0;" width="6" x="57.9799" y="552.6484"/><text fill="#000000" font-family="sans-serif" font-size="14" lengthAdjust="spacing" textLength="13" x="69.9799" y="558.9951">id</text><rect fill="none" height="6" style="stroke:#C82930;stroke-width:1.0;" width="6" x="57.9799" y="568.9453"/><text fill="#000000" font-family="sans-serif" font-size="14" lengthAdjust="spacing" textLength="113" x="69.9799" y="575.292">customerQueue</text><rect fill="none" height="6" style="stroke:#C82930;stroke-width:1.0;" width="6" x="57.9799" y="585.2422"/><text fill="#000000" font-family="sans-serif" font-size="14" lengthAdjust="spacing" textLength="126" x="69.9799" y="591.5889">timePerItemPack</text><line style="stroke:#181818;stroke-width:0.5;" x1="50.9799" x2="200.9799" y1="598.8906" y2="598.8906"/></g><!--class Customer--><g id="elem_Customer"><rect codeLine="15" fill="#F1F1F1" height="80.5938" id="Customer" rx="2.5" ry="2.5" style="stroke:#181818;stroke-width:0.5;" width="174" x="63.9799" y="196"/><ellipse cx="111.7299" cy="212" fill="#ADD1B2" rx="11" ry="11" style="stroke:#181818;stroke-width:1.0;"/><path d="M114.0737,207.6719 C113.1362,207.2344 112.5424,207.0938 111.6674,207.0938 C109.0424,207.0938 107.0424,209.1719 107.0424,211.8906 L107.0424,213.0156 C107.0424,215.5938 109.1518,217.4844 112.0424,217.4844 C113.2612,217.4844 114.4174,217.1875 115.1674,216.6406 C115.7455,216.2344 116.0737,215.7813 116.0737,215.3906 C116.0737,214.9375 115.683,214.5469 115.2143,214.5469 C114.9955,214.5469 114.7924,214.625 114.6049,214.8125 C114.1518,215.2969 114.1518,215.2969 113.9643,215.3906 C113.5424,215.6563 112.8549,215.7813 112.0893,215.7813 C110.0424,215.7813 108.7455,214.6875 108.7455,212.9844 L108.7455,211.8906 C108.7455,210.1094 109.9955,208.7969 111.7299,208.7969 C112.308,208.7969 112.9174,208.9531 113.3862,209.2031 C113.8705,209.4844 114.0424,209.7031 114.1362,210.1094 C114.1987,210.5156 114.2299,210.6406 114.3705,210.7656 C114.5112,210.9063 114.7455,211.0156 114.9643,211.0156 C115.2299,211.0156 115.4955,210.875 115.6674,210.6563 C115.7768,210.5 115.808,210.3125 115.808,209.8906 L115.808,208.4688 C115.808,208.0313 115.7924,207.9063 115.6987,207.75 C115.5424,207.4844 115.2612,207.3438 114.9643,207.3438 C114.6674,207.3438 114.4643,207.4375 114.2455,207.75 L114.0737,207.6719 Z " fill="#000000"/><text fill="#000000" font-family="sans-serif" font-size="14" lengthAdjust="spacing" textLength="70" x="132.2299" y="216.8467">Customer</text><line style="stroke:#181818;stroke-width:0.5;" x1="64.9799" x2="236.9799" y1="228" y2="228"/><rect fill="none" height="6" style="stroke:#C82930;stroke-width:1.0;" width="6" x="71.9799" y="238.6484"/><text fill="#000000" font-family="sans-serif" font-size="14" lengthAdjust="spacing" textLength="13" x="83.9799" y="244.9951">id</text><rect fill="none" height="6" style="stroke:#C82930;stroke-width:1.0;" width="6" x="71.9799" y="254.9453"/><text fill="#000000" font-family="sans-serif" font-size="14" lengthAdjust="spacing" textLength="148" x="83.9799" y="261.292">numberOfItemPacks</text><line style="stroke:#181818;stroke-width:0.5;" x1="64.9799" x2="236.9799" y1="268.5938" y2="268.5938"/></g><!--class Queue--><g id="elem_Queue"><rect codeLine="20" fill="#F1F1F1" height="64.2969" id="Queue" rx="2.5" ry="2.5" style="stroke:#181818;stroke-width:0.5;" width="176" x="108.9799" y="361.5"/><ellipse cx="170.2299" cy="377.5" fill="#ADD1B2" rx="11" ry="11" style="stroke:#181818;stroke-width:1.0;"/><path d="M172.5737,373.1719 C171.6362,372.7344 171.0424,372.5938 170.1674,372.5938 C167.5424,372.5938 165.5424,374.6719 165.5424,377.3906 L165.5424,378.5156 C165.5424,381.0938 167.6518,382.9844 170.5424,382.9844 C171.7612,382.9844 172.9174,382.6875 173.6674,382.1406 C174.2455,381.7344 174.5737,381.2813 174.5737,380.8906 C174.5737,380.4375 174.183,380.0469 173.7143,380.0469 C173.4955,380.0469 173.2924,380.125 173.1049,380.3125 C172.6518,380.7969 172.6518,380.7969 172.4643,380.8906 C172.0424,381.1563 171.3549,381.2813 170.5893,381.2813 C168.5424,381.2813 167.2455,380.1875 167.2455,378.4844 L167.2455,377.3906 C167.2455,375.6094 168.4955,374.2969 170.2299,374.2969 C170.808,374.2969 171.4174,374.4531 171.8862,374.7031 C172.3705,374.9844 172.5424,375.2031 172.6362,375.6094 C172.6987,376.0156 172.7299,376.1406 172.8705,376.2656 C173.0112,376.4063 173.2455,376.5156 173.4643,376.5156 C173.7299,376.5156 173.9955,376.375 174.1674,376.1563 C174.2768,376 174.308,375.8125 174.308,375.3906 L174.308,373.9688 C174.308,373.5313 174.2924,373.4063 174.1987,373.25 C174.0424,372.9844 173.7612,372.8438 173.4643,372.8438 C173.1674,372.8438 172.9643,372.9375 172.7455,373.25 L172.5737,373.1719 Z " fill="#000000"/><text fill="#000000" font-family="sans-serif" font-size="14" lengthAdjust="spacing" textLength="45" x="190.7299" y="382.3467">Queue</text><line style="stroke:#181818;stroke-width:0.5;" x1="109.9799" x2="283.9799" y1="393.5" y2="393.5"/><rect fill="none" height="6" style="stroke:#C82930;stroke-width:1.0;" width="6" x="116.9799" y="404.1484"/><text fill="#000000" font-family="sans-serif" font-size="14" lengthAdjust="spacing" textLength="150" x="128.9799" y="410.4951">numberOfCustomers</text><line style="stroke:#181818;stroke-width:0.5;" x1="109.9799" x2="283.9799" y1="417.7969" y2="417.7969"/></g><!--class Cashier--><g id="elem_Cashier"><rect codeLine="24" fill="#F1F1F1" height="113.1875" id="Cashier" rx="2.5" ry="2.5" style="stroke:#181818;stroke-width:0.5;" width="96" x="319.9797" y="337"/><ellipse cx="339.9297" cy="353" fill="#ADD1B2" rx="11" ry="11" style="stroke:#181818;stroke-width:1.0;"/><path d="M342.2734,348.6719 C341.3359,348.2344 340.7422,348.0938 339.8672,348.0938 C337.2422,348.0938 335.2422,350.1719 335.2422,352.8906 L335.2422,354.0156 C335.2422,356.5938 337.3516,358.4844 340.2422,358.4844 C341.4609,358.4844 342.6172,358.1875 343.3672,357.6406 C343.9453,357.2344 344.2734,356.7813 344.2734,356.3906 C344.2734,355.9375 343.8828,355.5469 343.4141,355.5469 C343.1953,355.5469 342.9922,355.625 342.8047,355.8125 C342.3516,356.2969 342.3516,356.2969 342.1641,356.3906 C341.7422,356.6563 341.0547,356.7813 340.2891,356.7813 C338.2422,356.7813 336.9453,355.6875 336.9453,353.9844 L336.9453,352.8906 C336.9453,351.1094 338.1953,349.7969 339.9297,349.7969 C340.5078,349.7969 341.1172,349.9531 341.5859,350.2031 C342.0703,350.4844 342.2422,350.7031 342.3359,351.1094 C342.3984,351.5156 342.4297,351.6406 342.5703,351.7656 C342.7109,351.9063 342.9453,352.0156 343.1641,352.0156 C343.4297,352.0156 343.6953,351.875 343.8672,351.6563 C343.9766,351.5 344.0078,351.3125 344.0078,350.8906 L344.0078,349.4688 C344.0078,349.0313 343.9922,348.9063 343.8984,348.75 C343.7422,348.4844 343.4609,348.3438 343.1641,348.3438 C342.8672,348.3438 342.6641,348.4375 342.4453,348.75 L342.2734,348.6719 Z " fill="#000000"/><text fill="#000000" font-family="sans-serif" font-size="14" lengthAdjust="spacing" textLength="53" x="355.0297" y="357.8467">Cashier</text><line style="stroke:#181818;stroke-width:0.5;" x1="320.9797" x2="414.9797" y1="369" y2="369"/><rect fill="none" height="6" style="stroke:#C82930;stroke-width:1.0;" width="6" x="327.9797" y="379.6484"/><text fill="#000000" font-family="sans-serif" font-size="14" lengthAdjust="spacing" textLength="13" x="339.9797" y="385.9951">id</text><rect fill="none" height="6" style="stroke:#C82930;stroke-width:1.0;" width="6" x="327.9797" y="395.9453"/><text fill="#000000" font-family="sans-serif" font-size="14" lengthAdjust="spacing" textLength="40" x="339.9797" y="402.292">name</text><rect fill="none" height="6" style="stroke:#C82930;stroke-width:1.0;" width="6" x="327.9797" y="412.2422"/><text fill="#000000" font-family="sans-serif" font-size="14" lengthAdjust="spacing" textLength="70" x="339.9797" y="418.5889">workShift</text><rect fill="none" height="6" style="stroke:#C82930;stroke-width:1.0;" width="6" x="327.9797" y="428.5391"/><text fill="#000000" font-family="sans-serif" font-size="14" lengthAdjust="spacing" textLength="29" x="339.9797" y="434.8857">rest</text><line style="stroke:#181818;stroke-width:0.5;" x1="320.9797" x2="414.9797" y1="442.1875" y2="442.1875"/></g><!--link ShoppingCenter to CashRegister--><g id="link_ShoppingCenter_CashRegister"><path codeLine="32" d="M82.4337,136.085 C67.5777,153.885 53.943,174.34 45.9799,196 C6,304.746 61.9807,439.573 98.6103,509.841 " fill="none" id="ShoppingCenter-CashRegister" style="stroke:#181818;stroke-width:1.0;"/></g><!--link ShoppingCenter to Customer--><g id="link_ShoppingCenter_Customer"><path codeLine="33" d="M150.9797,136.454 C150.9797,156.433 150.9797,177.888 150.9797,195.704 " fill="none" id="ShoppingCenter-Customer" style="stroke:#181818;stroke-width:1.0;"/></g><!--link ShoppingCenter to Cashier--><g id="link_ShoppingCenter_Cashier"><path codeLine="34" d="M208.9237,136.051 C224.9167,154.789 241.7657,175.72 255.9797,196 C287.7577,241.339 318.5067,296.344 339.7197,336.614 " fill="none" id="ShoppingCenter-Cashier" style="stroke:#181818;stroke-width:1.0;"/></g><!--link Cashier to CashRegister--><g id="link_Cashier_CashRegister"><path codeLine="36" d="M319.6867,437.192 C314.1517,441.644 308.5107,445.999 302.9797,450 C271.0827,473.075 234.0897,496.077 202.1947,514.8482 " fill="none" id="Cashier-CashRegister" style="stroke:#181818;stroke-width:1.0;"/></g><!--link Customer to Queue--><g id="link_Customer_Queue"><path codeLine="38" d="M162.7067,277.014 C170.4797,303.204 180.5337,337.084 187.7397,361.364 " fill="none" id="Customer-Queue" style="stroke:#181818;stroke-width:1.0;"/></g><!--link Queue to CashRegister--><g id="link_Queue_CashRegister"><path codeLine="40" d="M183.4587,425.543 C173.0777,449.374 158.5637,482.695 146.7177,509.8898 " fill="none" id="Queue-CashRegister" style="stroke:#181818;stroke-width:1.0;"/></g><!--link Customer to CashRegister--><g id="link_Customer_CashRegister"><path codeLine="41" d="M120.6857,277.363 C109.3238,294.717 97.7685,315.889 91.9799,337 C75.9505,395.46 92.2261,464.85 107.2994,509.9574 " fill="none" id="Customer-CashRegister" style="stroke:#181818;stroke-width:1.0;"/></g><!--SRC=[TL1B4e8m3Dtd55o0Kx3HbIWdA1WW8r0cQNKSnxjRiSM2oAhaVPEgKo99qUfnfA79S338oGCIzwM97d5mqvssx2TLfsKvCTIZVofckgekPrsgaZeoTm-G79mJF06gAIvJqfwm8Od3w1moh1ZT8nyjMenISkIzmJvNrIMoykHVcy7s9VAX3XhvYYRdMH68mKgMHMdJNCrRtpHVYfPgu_yPnRmTO7NKD5tilGNx0d-KhWX0QBHsW_aG3lbS3ZvhhfanCGPU]--></g></svg>