<?xml version="1.0" encoding="us-ascii" standalone="no"?><svg xmlns="http://www.w3.org/2000/svg" xmlns:xlink="http://www.w3.org/1999/xlink" contentStyleType="text/css" height="316px" preserveAspectRatio="none" style="width:574px;height:316px;background:#FFFFFF;" version="1.1" viewBox="0 0 574 316" width="574px" zoomAndPan="magnify"><defs/><g><!--class ShoppingCenter--><g id="elem_ShoppingCenter"><rect codeLine="1" fill="#F1F1F1" height="129.4844" id="ShoppingCenter" rx="2.5" ry="2.5" style="stroke:#181818;stroke-width:0.5;" width="151" x="19.5" y="7"/><ellipse cx="34.5" cy="23" fill="#ADD1B2" rx="11" ry="11" style="stroke:#181818;stroke-width:1.0;"/><path d="M36.8438,18.6719 C35.9063,18.2344 35.3125,18.0938 34.4375,18.0938 C31.8125,18.0938 29.8125,20.1719 29.8125,22.8906 L29.8125,24.0156 C29.8125,26.5938 31.9219,28.4844 34.8125,28.4844 C36.0313,28.4844 37.1875,28.1875 37.9375,27.6406 C38.5156,27.2344 38.8438,26.7813 38.8438,26.3906 C38.8438,25.9375 38.4531,25.5469 37.9844,25.5469 C37.7656,25.5469 37.5625,25.625 37.375,25.8125 C36.9219,26.2969 36.9219,26.2969 36.7344,26.3906 C36.3125,26.6563 35.625,26.7813 34.8594,26.7813 C32.8125,26.7813 31.5156,25.6875 31.5156,23.9844 L31.5156,22.8906 C31.5156,21.1094 32.7656,19.7969 34.5,19.7969 C35.0781,19.7969 35.6875,19.9531 36.1563,20.2031 C36.6406,20.4844 36.8125,20.7031 36.9063,21.1094 C36.9688,21.5156 37,21.6406 37.1406,21.7656 C37.2813,21.9063 37.5156,22.0156 37.7344,22.0156 C38,22.0156 38.2656,21.875 38.4375,21.6563 C38.5469,21.5 38.5781,21.3125 38.5781,20.8906 L38.5781,19.4688 C38.5781,19.0313 38.5625,18.9063 38.4688,18.75 C38.3125,18.4844 38.0313,18.3438 37.7344,18.3438 C37.4375,18.3438 37.2344,18.4375 37.0156,18.75 L36.8438,18.6719 Z " fill="#000000"/><text fill="#000000" font-family="sans-serif" font-size="14" lengthAdjust="spacing" textLength="119" x="48.5" y="27.8467">ShoppingCenter</text><line style="stroke:#181818;stroke-width:0.5;" x1="20.5" x2="169.5" y1="39" y2="39"/><rect fill="none" height="6" style="stroke:#C82930;stroke-width:1.0;" width="6" x="27.5" y="49.6484"/><text fill="#000000" font-family="sans-serif" font-size="14" lengthAdjust="spacing" textLength="92" x="39.5" y="55.9951">openingHour</text><rect fill="none" height="6" style="stroke:#C82930;stroke-width:1.0;" width="6" x="27.5" y="65.9453"/><text fill="#000000" font-family="sans-serif" font-size="14" lengthAdjust="spacing" textLength="83" x="39.5" y="72.292">closingHour</text><rect fill="none" height="6" style="stroke:#C82930;stroke-width:1.0;" width="6" x="27.5" y="82.2422"/><text fill="#000000" font-family="sans-serif" font-size="14" lengthAdjust="spacing" textLength="34" x="39.5" y="88.5889">time</text><rect fill="none" height="6" style="stroke:#C82930;stroke-width:1.0;" width="6" x="27.5" y="98.5391"/><text fill="#000000" font-family="sans-serif" font-size="14" lengthAdjust="spacing" textLength="123" x="39.5" y="104.8857">arrivalProbability</text><rect fill="none" height="6" style="stroke:#C82930;stroke-width:1.0;" width="6" x="27.5" y="114.8359"/><text fill="#000000" font-family="sans-serif" font-size="14" lengthAdjust="spacing" textLength="50" x="39.5" y="121.1826">isOpen</text><line style="stroke:#181818;stroke-width:0.5;" x1="20.5" x2="169.5" y1="128.4844" y2="128.4844"/></g><!--class CashRegister--><g id="elem_CashRegister"><rect codeLine="9" fill="#F1F1F1" height="96.8906" id="CashRegister" rx="2.5" ry="2.5" style="stroke:#181818;stroke-width:0.5;" width="152" x="206" y="23"/><ellipse cx="232.25" cy="39" fill="#ADD1B2" rx="11" ry="11" style="stroke:#181818;stroke-width:1.0;"/><path d="M234.5938,34.6719 C233.6563,34.2344 233.0625,34.0938 232.1875,34.0938 C229.5625,34.0938 227.5625,36.1719 227.5625,38.8906 L227.5625,40.0156 C227.5625,42.5938 229.6719,44.4844 232.5625,44.4844 C233.7813,44.4844 234.9375,44.1875 235.6875,43.6406 C236.2656,43.2344 236.5938,42.7813 236.5938,42.3906 C236.5938,41.9375 236.2031,41.5469 235.7344,41.5469 C235.5156,41.5469 235.3125,41.625 235.125,41.8125 C234.6719,42.2969 234.6719,42.2969 234.4844,42.3906 C234.0625,42.6563 233.375,42.7813 232.6094,42.7813 C230.5625,42.7813 229.2656,41.6875 229.2656,39.9844 L229.2656,38.8906 C229.2656,37.1094 230.5156,35.7969 232.25,35.7969 C232.8281,35.7969 233.4375,35.9531 233.9063,36.2031 C234.3906,36.4844 234.5625,36.7031 234.6563,37.1094 C234.7188,37.5156 234.75,37.6406 234.8906,37.7656 C235.0313,37.9063 235.2656,38.0156 235.4844,38.0156 C235.75,38.0156 236.0156,37.875 236.1875,37.6563 C236.2969,37.5 236.3281,37.3125 236.3281,36.8906 L236.3281,35.4688 C236.3281,35.0313 236.3125,34.9063 236.2188,34.75 C236.0625,34.4844 235.7813,34.3438 235.4844,34.3438 C235.1875,34.3438 234.9844,34.4375 234.7656,34.75 L234.5938,34.6719 Z " fill="#000000"/><text fill="#000000" font-family="sans-serif" font-size="14" lengthAdjust="spacing" textLength="95" x="248.75" y="43.8467">CashRegister</text><line style="stroke:#181818;stroke-width:0.5;" x1="207" x2="357" y1="55" y2="55"/><rect fill="none" height="6" style="stroke:#C82930;stroke-width:1.0;" width="6" x="214" y="65.6484"/><text fill="#000000" font-family="sans-serif" font-size="14" lengthAdjust="spacing" textLength="13" x="226" y="71.9951">id</text><rect fill="none" height="6" style="stroke:#C82930;stroke-width:1.0;" width="6" x="214" y="81.9453"/><text fill="#000000" font-family="sans-serif" font-size="14" lengthAdjust="spacing" textLength="113" x="226" y="88.292">customerQueue</text><rect fill="none" height="6" style="stroke:#C82930;stroke-width:1.0;" width="6" x="214" y="98.2422"/><text fill="#000000" font-family="sans-serif" font-size="14" lengthAdjust="spacing" textLength="126" x="226" y="104.5889">timePerItemPack</text><line style="stroke:#181818;stroke-width:0.5;" x1="207" x2="357" y1="111.8906" y2="111.8906"/></g><!--class Customer--><g id="elem_Customer"><rect codeLine="15" fill="#F1F1F1" height="80.5938" id="Customer" rx="2.5" ry="2.5" style="stroke:#181818;stroke-width:0.5;" width="174" x="393" y="31"/><ellipse cx="440.75" cy="47" fill="#ADD1B2" rx="11" ry="11" style="stroke:#181818;stroke-width:1.0;"/><path d="M443.0938,42.6719 C442.1563,42.2344 441.5625,42.0938 440.6875,42.0938 C438.0625,42.0938 436.0625,44.1719 436.0625,46.8906 L436.0625,48.0156 C436.0625,50.5938 438.1719,52.4844 441.0625,52.4844 C442.2813,52.4844 443.4375,52.1875 444.1875,51.6406 C444.7656,51.2344 445.0938,50.7813 445.0938,50.3906 C445.0938,49.9375 444.7031,49.5469 444.2344,49.5469 C444.0156,49.5469 443.8125,49.625 443.625,49.8125 C443.1719,50.2969 443.1719,50.2969 442.9844,50.3906 C442.5625,50.6563 441.875,50.7813 441.1094,50.7813 C439.0625,50.7813 437.7656,49.6875 437.7656,47.9844 L437.7656,46.8906 C437.7656,45.1094 439.0156,43.7969 440.75,43.7969 C441.3281,43.7969 441.9375,43.9531 442.4063,44.2031 C442.8906,44.4844 443.0625,44.7031 443.1563,45.1094 C443.2188,45.5156 443.25,45.6406 443.3906,45.7656 C443.5313,45.9063 443.7656,46.0156 443.9844,46.0156 C444.25,46.0156 444.5156,45.875 444.6875,45.6563 C444.7969,45.5 444.8281,45.3125 444.8281,44.8906 L444.8281,43.4688 C444.8281,43.0313 444.8125,42.9063 444.7188,42.75 C444.5625,42.4844 444.2813,42.3438 443.9844,42.3438 C443.6875,42.3438 443.4844,42.4375 443.2656,42.75 L443.0938,42.6719 Z " fill="#000000"/><text fill="#000000" font-family="sans-serif" font-size="14" lengthAdjust="spacing" textLength="70" x="461.25" y="51.8467">Customer</text><line style="stroke:#181818;stroke-width:0.5;" x1="394" x2="566" y1="63" y2="63"/><rect fill="none" height="6" style="stroke:#C82930;stroke-width:1.0;" width="6" x="401" y="73.6484"/><text fill="#000000" font-family="sans-serif" font-size="14" lengthAdjust="spacing" textLength="13" x="413" y="79.9951">id</text><rect fill="none" height="6" style="stroke:#C82930;stroke-width:1.0;" width="6" x="401" y="89.9453"/><text fill="#000000" font-family="sans-serif" font-size="14" lengthAdjust="spacing" textLength="148" x="413" y="96.292">numberOfItemPacks</text><line style="stroke:#181818;stroke-width:0.5;" x1="394" x2="566" y1="103.5938" y2="103.5938"/></g><!--class Queue--><g id="elem_Queue"><rect codeLine="20" fill="#F1F1F1" height="64.2969" id="Queue" rx="2.5" ry="2.5" style="stroke:#181818;stroke-width:0.5;" width="176" x="7" y="220.5"/><ellipse cx="68.25" cy="236.5" fill="#ADD1B2" rx="11" ry="11" style="stroke:#181818;stroke-width:1.0;"/><path d="M70.5938,232.1719 C69.6563,231.7344 69.0625,231.5938 68.1875,231.5938 C65.5625,231.5938 63.5625,233.6719 63.5625,236.3906 L63.5625,237.5156 C63.5625,240.0938 65.6719,241.9844 68.5625,241.9844 C69.7813,241.9844 70.9375,241.6875 71.6875,241.1406 C72.2656,240.7344 72.5938,240.2813 72.5938,239.8906 C72.5938,239.4375 72.2031,239.0469 71.7344,239.0469 C71.5156,239.0469 71.3125,239.125 71.125,239.3125 C70.6719,239.7969 70.6719,239.7969 70.4844,239.8906 C70.0625,240.1563 69.375,240.2813 68.6094,240.2813 C66.5625,240.2813 65.2656,239.1875 65.2656,237.4844 L65.2656,236.3906 C65.2656,234.6094 66.5156,233.2969 68.25,233.2969 C68.8281,233.2969 69.4375,233.4531 69.9063,233.7031 C70.3906,233.9844 70.5625,234.2031 70.6563,234.6094 C70.7188,235.0156 70.75,235.1406 70.8906,235.2656 C71.0313,235.4063 71.2656,235.5156 71.4844,235.5156 C71.75,235.5156 72.0156,235.375 72.1875,235.1563 C72.2969,235 72.3281,234.8125 72.3281,234.3906 L72.3281,232.9688 C72.3281,232.5313 72.3125,232.4063 72.2188,232.25 C72.0625,231.9844 71.7813,231.8438 71.4844,231.8438 C71.1875,231.8438 70.9844,231.9375 70.7656,232.25 L70.5938,232.1719 Z " fill="#000000"/><text fill="#000000" font-family="sans-serif" font-size="14" lengthAdjust="spacing" textLength="45" x="88.75" y="241.3467">Queue</text><line style="stroke:#181818;stroke-width:0.5;" x1="8" x2="182" y1="252.5" y2="252.5"/><rect fill="none" height="6" style="stroke:#C82930;stroke-width:1.0;" width="6" x="15" y="263.1484"/><text fill="#000000" font-family="sans-serif" font-size="14" lengthAdjust="spacing" textLength="150" x="27" y="269.4951">numberOfCustomers</text><line style="stroke:#181818;stroke-width:0.5;" x1="8" x2="182" y1="276.7969" y2="276.7969"/></g><!--class Cashier--><g id="elem_Cashier"><rect codeLine="24" fill="#F1F1F1" height="113.1875" id="Cashier" rx="2.5" ry="2.5" style="stroke:#181818;stroke-width:0.5;" width="96" x="218" y="196"/><ellipse cx="237.95" cy="212" fill="#ADD1B2" rx="11" ry="11" style="stroke:#181818;stroke-width:1.0;"/><path d="M240.2938,207.6719 C239.3563,207.2344 238.7625,207.0938 237.8875,207.0938 C235.2625,207.0938 233.2625,209.1719 233.2625,211.8906 L233.2625,213.0156 C233.2625,215.5938 235.3719,217.4844 238.2625,217.4844 C239.4813,217.4844 240.6375,217.1875 241.3875,216.6406 C241.9656,216.2344 242.2938,215.7813 242.2938,215.3906 C242.2938,214.9375 241.9031,214.5469 241.4344,214.5469 C241.2156,214.5469 241.0125,214.625 240.825,214.8125 C240.3719,215.2969 240.3719,215.2969 240.1844,215.3906 C239.7625,215.6563 239.075,215.7813 238.3094,215.7813 C236.2625,215.7813 234.9656,214.6875 234.9656,212.9844 L234.9656,211.8906 C234.9656,210.1094 236.2156,208.7969 237.95,208.7969 C238.5281,208.7969 239.1375,208.9531 239.6063,209.2031 C240.0906,209.4844 240.2625,209.7031 240.3563,210.1094 C240.4188,210.5156 240.45,210.6406 240.5906,210.7656 C240.7313,210.9063 240.9656,211.0156 241.1844,211.0156 C241.45,211.0156 241.7156,210.875 241.8875,210.6563 C241.9969,210.5 242.0281,210.3125 242.0281,209.8906 L242.0281,208.4688 C242.0281,208.0313 242.0125,207.9063 241.9188,207.75 C241.7625,207.4844 241.4813,207.3438 241.1844,207.3438 C240.8875,207.3438 240.6844,207.4375 240.4656,207.75 L240.2938,207.6719 Z " fill="#000000"/><text fill="#000000" font-family="sans-serif" font-size="14" lengthAdjust="spacing" textLength="53" x="253.05" y="216.8467">Cashier</text><line style="stroke:#181818;stroke-width:0.5;" x1="219" x2="313" y1="228" y2="228"/><rect fill="none" height="6" style="stroke:#C82930;stroke-width:1.0;" width="6" x="226" y="238.6484"/><text fill="#000000" font-family="sans-serif" font-size="14" lengthAdjust="spacing" textLength="13" x="238" y="244.9951">id</text><rect fill="none" height="6" style="stroke:#C82930;stroke-width:1.0;" width="6" x="226" y="254.9453"/><text fill="#000000" font-family="sans-serif" font-size="14" lengthAdjust="spacing" textLength="40" x="238" y="261.292">name</text><rect fill="none" height="6" style="stroke:#C82930;stroke-width:1.0;" width="6" x="226" y="271.2422"/><text fill="#000000" font-family="sans-serif" font-size="14" lengthAdjust="spacing" textLength="70" x="238" y="277.5889">workShift</text><rect fill="none" height="6" style="stroke:#C82930;stroke-width:1.0;" width="6" x="226" y="287.5391"/><text fill="#000000" font-family="sans-serif" font-size="14" lengthAdjust="spacing" textLength="29" x="238" y="293.8857">rest</text><line style="stroke:#181818;stroke-width:0.5;" x1="219" x2="313" y1="301.1875" y2="301.1875"/></g><!--SRC=[ROzD3eCW48Ntd88Bz1HksfMqdW3fg1FvCJFGfccyUuq1gsbP3M_U-nuOgvbbCuHfGjzNu2EGV0kvd9CC4_X5FOT4MJ4sy569w22FcWWVsYeAhMxHOdpb1NAzaCGiX5dhAit33NhaVHdUIqVY61pGDK62NOi2kaHmIfjnXyhcNunFhWMgkvBXRsWbRubYB2W-FXJ_mlNswsUWiHcmY_bEm57C7m00]--></g></svg>