<?xml version="1.0" encoding="us-ascii" standalone="no"?><svg xmlns="http://www.w3.org/2000/svg" xmlns:xlink="http://www.w3.org/1999/xlink" contentStyleType="text/css" height="728px" preserveAspectRatio="none" style="width:482px;height:728px;background:#FFFFFF;" version="1.1" viewBox="0 0 482 728" width="482px" zoomAndPan="magnify"><defs/><g><!--class ShoppingCenter--><g id="elem_ShoppingCenter"><rect codeLine="1" fill="#F1F1F1" height="162.0781" id="ShoppingCenter" rx="2.5" ry="2.5" style="stroke:#181818;stroke-width:0.5;" width="151" x="54.4508" y="7"/><ellipse cx="69.4508" cy="23" fill="#ADD1B2" rx="11" ry="11" style="stroke:#181818;stroke-width:1.0;"/><path d="M71.7946,18.6719 C70.8571,18.2344 70.2633,18.0938 69.3883,18.0938 C66.7633,18.0938 64.7633,20.1719 64.7633,22.8906 L64.7633,24.0156 C64.7633,26.5938 66.8727,28.4844 69.7633,28.4844 C70.9821,28.4844 72.1383,28.1875 72.8883,27.6406 C73.4664,27.2344 73.7946,26.7813 73.7946,26.3906 C73.7946,25.9375 73.4039,25.5469 72.9352,25.5469 C72.7164,25.5469 72.5133,25.625 72.3258,25.8125 C71.8727,26.2969 71.8727,26.2969 71.6852,26.3906 C71.2633,26.6563 70.5758,26.7813 69.8102,26.7813 C67.7633,26.7813 66.4664,25.6875 66.4664,23.9844 L66.4664,22.8906 C66.4664,21.1094 67.7164,19.7969 69.4508,19.7969 C70.0289,19.7969 70.6383,19.9531 71.1071,20.2031 C71.5914,20.4844 71.7633,20.7031 71.8571,21.1094 C71.9196,21.5156 71.9508,21.6406 72.0914,21.7656 C72.2321,21.9063 72.4664,22.0156 72.6852,22.0156 C72.9508,22.0156 73.2164,21.875 73.3883,21.6563 C73.4977,21.5 73.5289,21.3125 73.5289,20.8906 L73.5289,19.4688 C73.5289,19.0313 73.5133,18.9063 73.4196,18.75 C73.2633,18.4844 72.9821,18.3438 72.6852,18.3438 C72.3883,18.3438 72.1852,18.4375 71.9664,18.75 L71.7946,18.6719 Z " fill="#000000"/><text fill="#000000" font-family="sans-serif" font-size="14" lengthAdjust="spacing" textLength="119" x="83.4508" y="27.8467">ShoppingCenter</text><line style="stroke:#181818;stroke-width:0.5;" x1="55.4508" x2="204.4508" y1="39" y2="39"/><rect fill="none" height="6" style="stroke:#C82930;stroke-width:1.0;" width="6" x="62.4508" y="49.6484"/><text fill="#000000" font-family="sans-serif" font-size="14" lengthAdjust="spacing" textLength="92" x="74.4508" y="55.9951">openingHour</text><rect fill="none" height="6" style="stroke:#C82930;stroke-width:1.0;" width="6" x="62.4508" y="65.9453"/><text fill="#000000" font-family="sans-serif" font-size="14" lengthAdjust="spacing" textLength="83" x="74.4508" y="72.292">closingHour</text><rect fill="none" height="6" style="stroke:#C82930;stroke-width:1.0;" width="6" x="62.4508" y="82.2422"/><text fill="#000000" font-family="sans-serif" font-size="14" lengthAdjust="spacing" textLength="34" x="74.4508" y="88.5889">time</text><rect fill="none" height="6" style="stroke:#C82930;stroke-width:1.0;" width="6" x="62.4508" y="98.5391"/><text fill="#000000" font-family="sans-serif" font-size="14" lengthAdjust="spacing" textLength="123" x="74.4508" y="104.8857">arrivalProbability</text><rect fill="none" height="6" style="stroke:#C82930;stroke-width:1.0;" width="6" x="62.4508" y="114.8359"/><text fill="#000000" font-family="sans-serif" font-size="14" lengthAdjust="spacing" textLength="50" x="74.4508" y="121.1826">isOpen</text><rect fill="none" height="6" style="stroke:#C82930;stroke-width:1.0;" width="6" x="62.4508" y="131.1328"/><text fill="#000000" font-family="sans-serif" font-size="14" lengthAdjust="spacing" textLength="100" x="74.4508" y="137.4795">cashRegisters</text><rect fill="none" height="6" style="stroke:#C82930;stroke-width:1.0;" width="6" x="62.4508" y="147.4297"/><text fill="#000000" font-family="sans-serif" font-size="14" lengthAdjust="spacing" textLength="58" x="74.4508" y="153.7764">cashiers</text><line style="stroke:#181818;stroke-width:0.5;" x1="55.4508" x2="204.4508" y1="161.0781" y2="161.0781"/></g><!--class CashRegister--><g id="elem_CashRegister"><rect codeLine="11" fill="#F1F1F1" height="96.8906" id="CashRegister" rx="2.5" ry="2.5" style="stroke:#181818;stroke-width:0.5;" width="152" x="78.9508" y="625"/><ellipse cx="105.2008" cy="641" fill="#ADD1B2" rx="11" ry="11" style="stroke:#181818;stroke-width:1.0;"/><path d="M107.5446,636.6719 C106.6071,636.2344 106.0133,636.0938 105.1383,636.0938 C102.5133,636.0938 100.5133,638.1719 100.5133,640.8906 L100.5133,642.0156 C100.5133,644.5938 102.6227,646.4844 105.5133,646.4844 C106.7321,646.4844 107.8883,646.1875 108.6383,645.6406 C109.2164,645.2344 109.5446,644.7813 109.5446,644.3906 C109.5446,643.9375 109.1539,643.5469 108.6852,643.5469 C108.4664,643.5469 108.2633,643.625 108.0758,643.8125 C107.6227,644.2969 107.6227,644.2969 107.4352,644.3906 C107.0133,644.6563 106.3258,644.7813 105.5602,644.7813 C103.5133,644.7813 102.2164,643.6875 102.2164,641.9844 L102.2164,640.8906 C102.2164,639.1094 103.4664,637.7969 105.2008,637.7969 C105.7789,637.7969 106.3883,637.9531 106.8571,638.2031 C107.3414,638.4844 107.5133,638.7031 107.6071,639.1094 C107.6696,639.5156 107.7008,639.6406 107.8414,639.7656 C107.9821,639.9063 108.2164,640.0156 108.4352,640.0156 C108.7008,640.0156 108.9664,639.875 109.1383,639.6563 C109.2477,639.5 109.2789,639.3125 109.2789,638.8906 L109.2789,637.4688 C109.2789,637.0313 109.2633,636.9063 109.1696,636.75 C109.0133,636.4844 108.7321,636.3438 108.4352,636.3438 C108.1383,636.3438 107.9352,636.4375 107.7164,636.75 L107.5446,636.6719 Z " fill="#000000"/><text fill="#000000" font-family="sans-serif" font-size="14" lengthAdjust="spacing" textLength="95" x="121.7008" y="645.8467">CashRegister</text><line style="stroke:#181818;stroke-width:0.5;" x1="79.9508" x2="229.9508" y1="657" y2="657"/><rect fill="none" height="6" style="stroke:#C82930;stroke-width:1.0;" width="6" x="86.9508" y="667.6484"/><text fill="#000000" font-family="sans-serif" font-size="14" lengthAdjust="spacing" textLength="13" x="98.9508" y="673.9951">id</text><rect fill="none" height="6" style="stroke:#C82930;stroke-width:1.0;" width="6" x="86.9508" y="683.9453"/><text fill="#000000" font-family="sans-serif" font-size="14" lengthAdjust="spacing" textLength="113" x="98.9508" y="690.292">customerQueue</text><rect fill="none" height="6" style="stroke:#C82930;stroke-width:1.0;" width="6" x="86.9508" y="700.2422"/><text fill="#000000" font-family="sans-serif" font-size="14" lengthAdjust="spacing" textLength="126" x="98.9508" y="706.5889">timePerItemPack</text><line style="stroke:#181818;stroke-width:0.5;" x1="79.9508" x2="229.9508" y1="713.8906" y2="713.8906"/></g><!--class Customer--><g id="elem_Customer"><rect codeLine="17" fill="#F1F1F1" height="80.5938" id="Customer" rx="2.5" ry="2.5" style="stroke:#181818;stroke-width:0.5;" width="140" x="59.9508" y="246"/><ellipse cx="92.0508" cy="262" fill="#ADD1B2" rx="11" ry="11" style="stroke:#181818;stroke-width:1.0;"/><path d="M94.3946,257.6719 C93.4571,257.2344 92.8633,257.0938 91.9883,257.0938 C89.3633,257.0938 87.3633,259.1719 87.3633,261.8906 L87.3633,263.0156 C87.3633,265.5938 89.4727,267.4844 92.3633,267.4844 C93.5821,267.4844 94.7383,267.1875 95.4883,266.6406 C96.0664,266.2344 96.3946,265.7813 96.3946,265.3906 C96.3946,264.9375 96.0039,264.5469 95.5352,264.5469 C95.3164,264.5469 95.1133,264.625 94.9258,264.8125 C94.4727,265.2969 94.4727,265.2969 94.2852,265.3906 C93.8633,265.6563 93.1758,265.7813 92.4102,265.7813 C90.3633,265.7813 89.0664,264.6875 89.0664,262.9844 L89.0664,261.8906 C89.0664,260.1094 90.3164,258.7969 92.0508,258.7969 C92.6289,258.7969 93.2383,258.9531 93.7071,259.2031 C94.1914,259.4844 94.3633,259.7031 94.4571,260.1094 C94.5196,260.5156 94.5508,260.6406 94.6914,260.7656 C94.8321,260.9063 95.0664,261.0156 95.2852,261.0156 C95.5508,261.0156 95.8164,260.875 95.9883,260.6563 C96.0977,260.5 96.1289,260.3125 96.1289,259.8906 L96.1289,258.4688 C96.1289,258.0313 96.1133,257.9063 96.0196,257.75 C95.8633,257.4844 95.5821,257.3438 95.2852,257.3438 C94.9883,257.3438 94.7852,257.4375 94.5664,257.75 L94.3946,257.6719 Z " fill="#000000"/><text fill="#000000" font-family="sans-serif" font-size="14" lengthAdjust="spacing" textLength="70" x="109.8508" y="266.8467">Customer</text><line style="stroke:#181818;stroke-width:0.5;" x1="60.9508" x2="198.9508" y1="278" y2="278"/><rect fill="none" height="6" style="stroke:#C82930;stroke-width:1.0;" width="6" x="67.9508" y="288.6484"/><text fill="#000000" font-family="sans-serif" font-size="14" lengthAdjust="spacing" textLength="13" x="79.9508" y="294.9951">id</text><rect fill="none" height="6" style="stroke:#C82930;stroke-width:1.0;" width="6" x="67.9508" y="304.9453"/><text fill="#000000" font-family="sans-serif" font-size="14" lengthAdjust="spacing" textLength="114" x="79.9508" y="311.292">numberOfPacks</text><line style="stroke:#181818;stroke-width:0.5;" x1="60.9508" x2="198.9508" y1="318.5938" y2="318.5938"/></g><!--class Queue--><g id="elem_Queue"><rect codeLine="22" fill="#F1F1F1" height="64.2969" id="Queue" rx="2.5" ry="2.5" style="stroke:#181818;stroke-width:0.5;" width="176" x="204.951" y="484"/><ellipse cx="266.201" cy="500" fill="#ADD1B2" rx="11" ry="11" style="stroke:#181818;stroke-width:1.0;"/><path d="M268.5448,495.6719 C267.6073,495.2344 267.0135,495.0938 266.1385,495.0938 C263.5135,495.0938 261.5135,497.1719 261.5135,499.8906 L261.5135,501.0156 C261.5135,503.5938 263.6229,505.4844 266.5135,505.4844 C267.7323,505.4844 268.8885,505.1875 269.6385,504.6406 C270.2166,504.2344 270.5448,503.7813 270.5448,503.3906 C270.5448,502.9375 270.1541,502.5469 269.6854,502.5469 C269.4666,502.5469 269.2635,502.625 269.076,502.8125 C268.6229,503.2969 268.6229,503.2969 268.4354,503.3906 C268.0135,503.6563 267.326,503.7813 266.5604,503.7813 C264.5135,503.7813 263.2166,502.6875 263.2166,500.9844 L263.2166,499.8906 C263.2166,498.1094 264.4666,496.7969 266.201,496.7969 C266.7791,496.7969 267.3885,496.9531 267.8573,497.2031 C268.3416,497.4844 268.5135,497.7031 268.6073,498.1094 C268.6698,498.5156 268.701,498.6406 268.8416,498.7656 C268.9823,498.9063 269.2166,499.0156 269.4354,499.0156 C269.701,499.0156 269.9666,498.875 270.1385,498.6563 C270.2479,498.5 270.2791,498.3125 270.2791,497.8906 L270.2791,496.4688 C270.2791,496.0313 270.2635,495.9063 270.1698,495.75 C270.0135,495.4844 269.7323,495.3438 269.4354,495.3438 C269.1385,495.3438 268.9354,495.4375 268.7166,495.75 L268.5448,495.6719 Z " fill="#000000"/><text fill="#000000" font-family="sans-serif" font-size="14" lengthAdjust="spacing" textLength="45" x="286.701" y="504.8467">Queue</text><line style="stroke:#181818;stroke-width:0.5;" x1="205.951" x2="379.951" y1="516" y2="516"/><rect fill="none" height="6" style="stroke:#C82930;stroke-width:1.0;" width="6" x="212.951" y="526.6484"/><text fill="#000000" font-family="sans-serif" font-size="14" lengthAdjust="spacing" textLength="150" x="224.951" y="532.9951">numberOfCustomers</text><line style="stroke:#181818;stroke-width:0.5;" x1="205.951" x2="379.951" y1="540.2969" y2="540.2969"/></g><!--class Cashier--><g id="elem_Cashier"><rect codeLine="26" fill="#F1F1F1" height="96.8906" id="Cashier" rx="2.5" ry="2.5" style="stroke:#181818;stroke-width:0.5;" width="96" x="339.951" y="357"/><ellipse cx="359.901" cy="373" fill="#ADD1B2" rx="11" ry="11" style="stroke:#181818;stroke-width:1.0;"/><path d="M362.2447,368.6719 C361.3072,368.2344 360.7135,368.0938 359.8385,368.0938 C357.2135,368.0938 355.2135,370.1719 355.2135,372.8906 L355.2135,374.0156 C355.2135,376.5938 357.3229,378.4844 360.2135,378.4844 C361.4322,378.4844 362.5885,378.1875 363.3385,377.6406 C363.9166,377.2344 364.2447,376.7813 364.2447,376.3906 C364.2447,375.9375 363.8541,375.5469 363.3854,375.5469 C363.1666,375.5469 362.9635,375.625 362.776,375.8125 C362.3229,376.2969 362.3229,376.2969 362.1354,376.3906 C361.7135,376.6563 361.026,376.7813 360.2604,376.7813 C358.2135,376.7813 356.9166,375.6875 356.9166,373.9844 L356.9166,372.8906 C356.9166,371.1094 358.1666,369.7969 359.901,369.7969 C360.4791,369.7969 361.0885,369.9531 361.5572,370.2031 C362.0416,370.4844 362.2135,370.7031 362.3072,371.1094 C362.3697,371.5156 362.401,371.6406 362.5416,371.7656 C362.6822,371.9063 362.9166,372.0156 363.1354,372.0156 C363.401,372.0156 363.6666,371.875 363.8385,371.6563 C363.9479,371.5 363.9791,371.3125 363.9791,370.8906 L363.9791,369.4688 C363.9791,369.0313 363.9635,368.9063 363.8697,368.75 C363.7135,368.4844 363.4322,368.3438 363.1354,368.3438 C362.8385,368.3438 362.6354,368.4375 362.4166,368.75 L362.2447,368.6719 Z " fill="#000000"/><text fill="#000000" font-family="sans-serif" font-size="14" lengthAdjust="spacing" textLength="53" x="375.001" y="377.8467">Cashier</text><line style="stroke:#181818;stroke-width:0.5;" x1="340.951" x2="434.951" y1="389" y2="389"/><rect fill="none" height="6" style="stroke:#C82930;stroke-width:1.0;" width="6" x="347.951" y="399.6484"/><text fill="#000000" font-family="sans-serif" font-size="14" lengthAdjust="spacing" textLength="13" x="359.951" y="405.9951">id</text><rect fill="none" height="6" style="stroke:#C82930;stroke-width:1.0;" width="6" x="347.951" y="415.9453"/><text fill="#000000" font-family="sans-serif" font-size="14" lengthAdjust="spacing" textLength="70" x="359.951" y="422.292">workShift</text><rect fill="none" height="6" style="stroke:#C82930;stroke-width:1.0;" width="6" x="347.951" y="432.2422"/><text fill="#000000" font-family="sans-serif" font-size="14" lengthAdjust="spacing" textLength="42" x="359.951" y="438.5889">break</text><line style="stroke:#181818;stroke-width:0.5;" x1="340.951" x2="434.951" y1="445.8906" y2="445.8906"/></g><!--link ShoppingCenter to CashRegister--><g id="link_ShoppingCenter_CashRegister"><path codeLine="33" d="M74.7434,169.132 C61.3254,192.835 48.859,219.546 41.9509,246 C6,383.668 81.7117,546.097 125.9716,624.8767 " fill="none" id="ShoppingCenter-CashRegister" style="stroke:#181818;stroke-width:1.0;"/><text fill="#000000" font-family="sans-serif" font-size="13" lengthAdjust="spacing" textLength="23" x="53.9508" y="410.0669">has</text></g><!--link ShoppingCenter to Customer--><g id="link_ShoppingCenter_Customer"><path codeLine="34" d="M129.9508,169.207 C129.9508,195.632 129.9508,223.859 129.9508,245.886 " fill="none" id="ShoppingCenter-Customer" style="stroke:#181818;stroke-width:1.0;"/><text fill="#000000" font-family="sans-serif" font-size="13" lengthAdjust="spacing" textLength="54" x="130.9508" y="212.0669">receives</text></g><!--link ShoppingCenter to Cashier--><g id="link_ShoppingCenter_Cashier"><path codeLine="35" d="M195.389,169.022 C243.907,228.353 308.418,307.242 349.07,356.954 " fill="none" id="ShoppingCenter-Cashier" style="stroke:#181818;stroke-width:1.0;"/><text fill="#000000" font-family="sans-serif" font-size="13" lengthAdjust="spacing" textLength="23" x="231.951" y="212.0669">has</text></g><!--link Cashier to CashRegister--><g id="link_Cashier_CashRegister"><path codeLine="37" d="M404.491,454.394 C415.732,496.611 423.211,557.133 389.951,595 C350.119,640.3494 283.224,659.2647 230.969,667.1017 " fill="none" id="Cashier-CashRegister" style="stroke:#181818;stroke-width:1.0;"/><text fill="#000000" font-family="sans-serif" font-size="13" lengthAdjust="spacing" textLength="60" x="414.951" y="520.5669">serves at</text></g><!--link Customer to Queue--><g id="link_Customer_Queue"><path codeLine="39" d="M158.343,327.127 C190.268,371.684 241.448,443.116 270.639,483.859 " fill="none" id="Customer-Queue" style="stroke:#181818;stroke-width:1.0;"/><text fill="#000000" font-family="sans-serif" font-size="13" lengthAdjust="spacing" textLength="49" x="249.951" y="410.0669">waits in</text></g><!--link Queue to CashRegister--><g id="link_Queue_CashRegister"><path codeLine="41" d="M265.356,548.094 C245.849,570.074 219.337,599.949 197.182,624.9139 " fill="none" id="Queue-CashRegister" style="stroke:#181818;stroke-width:1.0;"/><text fill="#000000" font-family="sans-serif" font-size="13" lengthAdjust="spacing" textLength="144" x="236.951" y="591.0669">delivers a customer to</text></g><!--link Customer to CashRegister--><g id="link_Customer_CashRegister"><path codeLine="42" d="M121.1593,327.066 C111.1062,378.367 97.6516,470.457 110.9508,548 C115.4267,574.097 124.8203,601.988 133.783,624.7426 " fill="none" id="Customer-CashRegister" style="stroke:#181818;stroke-width:1.0;"/><text fill="#000000" font-family="sans-serif" font-size="13" lengthAdjust="spacing" textLength="75" x="111.9508" y="520.5669">is served at</text></g><!--SRC=[TP51ai8W44Ntd88Bv0BPkfbP6SSJaAGrNH98TOEMDJLtjusG8iPX1StlzpzDPmspFWv-cj2TT-02aFvLMbQb_GHEgby-KgfqrlEw4d24j3L4U3Ms8T-Q5Ys6Uxf0tWif8mmFFt165YSkQlWy_YdLpObsXMh9WttMHmv-13f4Y504QO2-0uoDwIu5Aect61V75cX_UkeBxvcwgBCeOzv2uYVmpTFbEE0ff7DBOEP4wctILRLwQQq7mvyqoRlM11tW5VWV46Q6ojas3Wma_Te4qUJ9Y6X-TArl1WDhT4gzfh1fxy6AFmbW-GKT_0grRa1-MVPY-G00]--></g></svg>