<?xml version="1.0" encoding="us-ascii" standalone="no"?><svg xmlns="http://www.w3.org/2000/svg" xmlns:xlink="http://www.w3.org/1999/xlink" contentStyleType="text/css" height="570px" preserveAspectRatio="none" style="width:917px;height:570px;background:#FFFFFF;" version="1.1" viewBox="0 0 917 570" width="917px" zoomAndPan="magnify"><defs/><g><ellipse cx="549.5" cy="16" fill="#222222" rx="10" ry="10" style="stroke:#222222;stroke-width:1.0;"/><g id="ShoppingCenterClosed"><rect fill="#F1F1F1" height="50" rx="12.5" ry="12.5" style="stroke:#181818;stroke-width:0.5;" width="187" x="456" y="103"/><line style="stroke:#181818;stroke-width:0.5;" x1="456" x2="643" y1="129.2969" y2="129.2969"/><text fill="#000000" font-family="sans-serif" font-size="14" lengthAdjust="spacing" textLength="167" x="466" y="120.9951">ShoppingCenterClosed</text></g><g id="ShoppingCenterOpened"><rect fill="#F1F1F1" height="50" rx="12.5" ry="12.5" style="stroke:#181818;stroke-width:0.5;" width="196" x="258.5" y="230"/><line style="stroke:#181818;stroke-width:0.5;" x1="258.5" x2="454.5" y1="256.2969" y2="256.2969"/><text fill="#000000" font-family="sans-serif" font-size="14" lengthAdjust="spacing" textLength="176" x="268.5" y="247.9951">ShoppingCenterOpened</text></g><g id="CashRegisterEmpty"><rect fill="#F1F1F1" height="50" rx="12.5" ry="12.5" style="stroke:#181818;stroke-width:0.5;" width="163" x="275" y="372"/><line style="stroke:#181818;stroke-width:0.5;" x1="275" x2="438" y1="398.2969" y2="398.2969"/><text fill="#000000" font-family="sans-serif" font-size="14" lengthAdjust="spacing" textLength="143" x="285" y="389.9951">CashRegisterEmpty</text></g><g id="CashRegisterServing"><rect fill="#F1F1F1" height="50" rx="12.5" ry="12.5" style="stroke:#181818;stroke-width:0.5;" width="169" x="7" y="514"/><line style="stroke:#181818;stroke-width:0.5;" x1="7" x2="176" y1="540.2969" y2="540.2969"/><text fill="#000000" font-family="sans-serif" font-size="14" lengthAdjust="spacing" textLength="149" x="17" y="531.9951">CashRegisterServing</text></g><g id="CashRegisterClosed"><rect fill="#F1F1F1" height="50" rx="12.5" ry="12.5" style="stroke:#181818;stroke-width:0.5;" width="163" x="417" y="514"/><line style="stroke:#181818;stroke-width:0.5;" x1="417" x2="580" y1="540.2969" y2="540.2969"/><text fill="#000000" font-family="sans-serif" font-size="14" lengthAdjust="spacing" textLength="143" x="427" y="531.9951">CashRegisterClosed</text></g><ellipse cx="549.5" cy="255" fill="none" rx="11" ry="11" style="stroke:#222222;stroke-width:1.0;"/><ellipse cx="549.5" cy="255" fill="#222222" rx="6" ry="6" style="stroke:#222222;stroke-width:1.0;"/><!--link *start* to ShoppingCenterClosed--><g id="link_*start*_ShoppingCenterClosed"><path d="M549.5,26.002 C549.5,42.627 549.5,72.655 549.5,96.873 " fill="none" id="*start*-to-ShoppingCenterClosed" style="stroke:#181818;stroke-width:1.0;"/><polygon fill="#181818" points="549.5,102.873,553.5,93.873,549.5,97.873,545.5,93.873,549.5,102.873" style="stroke:#181818;stroke-width:1.0;"/><text fill="#000000" font-family="sans-serif" font-size="13" lengthAdjust="spacing" textLength="78" x="550.5" y="69.0669">Start of Day</text></g><!--link ShoppingCenterClosed to ShoppingCenterOpened--><g id="link_ShoppingCenterClosed_ShoppingCenterOpened"><path d="M455.664,144.863 C430.487,152.869 404.901,164.906 385.5,183 C372.257,195.351 366.4086,208.8097 362.4216,224.1577 " fill="none" id="ShoppingCenterClosed-to-ShoppingCenterOpened" style="stroke:#181818;stroke-width:1.0;"/><polygon fill="#181818" points="360.913,229.965,367.0474,222.2598,362.1701,225.1256,359.3044,220.2484,360.913,229.965" style="stroke:#181818;stroke-width:1.0;"/><text fill="#000000" font-family="sans-serif" font-size="13" lengthAdjust="spacing" textLength="151" x="386.5" y="196.0669">Shopping Center Opens</text></g><!--link ShoppingCenterOpened to CashRegisterEmpty--><g id="link_ShoppingCenterOpened_CashRegisterEmpty"><path d="M356.5,280.067 C356.5,305.71 356.5,340.077 356.5,365.779 " fill="none" id="ShoppingCenterOpened-to-CashRegisterEmpty" style="stroke:#181818;stroke-width:1.0;"/><polygon fill="#181818" points="356.5,371.779,360.5,362.779,356.5,366.779,352.5,362.779,356.5,371.779" style="stroke:#181818;stroke-width:1.0;"/><text fill="#000000" font-family="sans-serif" font-size="13" lengthAdjust="spacing" textLength="151" x="357.5" y="330.5669">Initialize Cash Registers</text></g><!--link CashRegisterEmpty to CashRegisterServing--><g id="link_CashRegisterEmpty_CashRegisterServing"><path d="M274.837,399.553 C186.85,403.158 55.1446,414.81 23.5,452 C6.1078,472.4398 23.6761,492.8886 47.3062,510.3381 " fill="none" id="CashRegisterEmpty-to-CashRegisterServing" style="stroke:#181818;stroke-width:1.0;"/><polygon fill="#181818" points="52.1328,513.9023,47.269,505.3382,48.1106,510.9321,42.5167,511.7738,52.1328,513.9023" style="stroke:#181818;stroke-width:1.0;"/><text fill="#000000" font-family="sans-serif" font-size="13" lengthAdjust="spacing" textLength="112" x="24.5" y="472.5669">Customer Arrives</text></g><!--link CashRegisterServing to CashRegisterEmpty--><g id="link_CashRegisterServing_CashRegisterEmpty"><path d="M116.766,513.7224 C137.586,494.7904 168.611,468.9498 199.5,452 C222.874,439.174 244.1634,430.4649 269.0914,422.1479 " fill="none" id="CashRegisterServing-to-CashRegisterEmpty" style="stroke:#181818;stroke-width:1.0;"/><polygon fill="#181818" points="274.783,420.249,264.9797,419.303,270.04,421.8315,267.5116,426.8918,274.783,420.249" style="stroke:#181818;stroke-width:1.0;"/><text fill="#000000" font-family="sans-serif" font-size="13" lengthAdjust="spacing" textLength="143" x="200.5" y="465.0669">Last Customer Served</text><text fill="#000000" font-family="sans-serif" font-size="13" lengthAdjust="spacing" textLength="63" x="240.5" y="480.1997">No Queue</text></g><!--link CashRegisterServing to CashRegisterServing--><g id="link_CashRegisterServing_CashRegisterServing"><path d="M176.081,526.1203 C196.157,527.1531 211,531.4463 211,539 C211,546.5537 202.1491,550.5386 182.0731,551.5714 " fill="none" id="CashRegisterServing-to-CashRegisterServing" style="stroke:#181818;stroke-width:1.0;"/><polygon fill="#181818" points="176.081,551.8797,185.2746,555.412,181.0744,551.6228,184.8636,547.4226,176.081,551.8797" style="stroke:#181818;stroke-width:1.0;"/><text fill="#000000" font-family="sans-serif" font-size="13" lengthAdjust="spacing" textLength="112" x="217" y="536.0669">Customer Served</text><text fill="#000000" font-family="sans-serif" font-size="13" lengthAdjust="spacing" textLength="91" x="227.5" y="551.1997">Next in Queue</text></g><!--link CashRegisterEmpty to CashRegisterClosed--><g id="link_CashRegisterEmpty_CashRegisterClosed"><path d="M351.729,422.218 C349.466,440.868 349.604,466.3593 362.5,484 C375.693,502.0477 390.2856,511.9154 411.1076,519.9202 " fill="none" id="CashRegisterEmpty-to-CashRegisterClosed" style="stroke:#181818;stroke-width:1.0;"/><polygon fill="#181818" points="416.708,522.0732,409.7427,515.1101,412.041,520.279,406.8721,522.5773,416.708,522.0732" style="stroke:#181818;stroke-width:1.0;"/><text fill="#000000" font-family="sans-serif" font-size="13" lengthAdjust="spacing" textLength="91" x="363.5" y="465.0669">No Customers</text><text fill="#000000" font-family="sans-serif" font-size="13" lengthAdjust="spacing" textLength="74" x="372" y="480.1997">End of Shift</text></g><!--link CashRegisterClosed to CashRegisterEmpty--><g id="link_CashRegisterClosed_CashRegisterEmpty"><path d="M492.189,513.649 C486.308,494.9263 475.935,469.4013 459.5,452 C448.063,439.89 438.5936,432.8015 423.8366,424.9275 " fill="none" id="CashRegisterClosed-to-CashRegisterEmpty" style="stroke:#181818;stroke-width:1.0;"/><polygon fill="#181818" points="418.543,422.103,424.6003,429.8689,422.9543,424.4568,428.3664,422.8107,418.543,422.103" style="stroke:#181818;stroke-width:1.0;"/><text fill="#000000" font-family="sans-serif" font-size="13" lengthAdjust="spacing" textLength="71" x="507" y="465.0669">Shift Starts</text><text fill="#000000" font-family="sans-serif" font-size="13" lengthAdjust="spacing" textLength="122" x="481.5" y="480.1997">Customers Waiting</text></g><!--link CashRegisterClosed to ShoppingCenterClosed--><g id="link_CashRegisterClosed_ShoppingCenterClosed"><path d="M578.791,513.8397 C592.054,506.3454 604.174,496.61 612.5,484 C910.462,32.734 641.77,218.949 623.5,183 C617.447,171.09 612.2289,164.7418 601.4599,156.8048 " fill="none" id="CashRegisterClosed-to-ShoppingCenterClosed" style="stroke:#181818;stroke-width:1.0;"/><polygon fill="#181818" points="596.63,153.245,601.5017,161.8046,600.6549,156.2115,606.2481,155.3647,596.63,153.245" style="stroke:#181818;stroke-width:1.0;"/><text fill="#000000" font-family="sans-serif" font-size="13" lengthAdjust="spacing" textLength="152" x="717.5" y="323.0669">Shopping Center Closes</text><text fill="#000000" font-family="sans-serif" font-size="13" lengthAdjust="spacing" textLength="71" x="758" y="338.1997">End of Day</text></g><!--link ShoppingCenterClosed to *end*--><g id="link_ShoppingCenterClosed_*end*"><path d="M547.631,153.311 C546.789,167.018 546.069,184.461 546.5,200 C546.922,215.205 547.6016,226.805 548.3446,237.669 " fill="none" id="ShoppingCenterClosed-to-*end*" style="stroke:#181818;stroke-width:1.0;"/><polygon fill="#181818" points="548.754,243.655,552.1306,234.403,548.4128,238.6667,544.1492,234.9489,548.754,243.655" style="stroke:#181818;stroke-width:1.0;"/><text fill="#000000" font-family="sans-serif" font-size="13" lengthAdjust="spacing" textLength="71" x="547.5" y="196.0669">End of Day</text></g><!--SRC=[ZPB12i8m38RlVOgS1LzW1q6c1q4KtS63UYWiRWLDHvE9-lIscswWdNZD_-VhdoRxqH76umbafQqgGqMA9EZIisNC8O5Cj1Em9vZfkr9HqtVtka9gkrzbQEiG15PHSw2aciij5ePzUNwfvEuH2p9YzDayi97XhRDIt_PFI8Rk6fvF8ArPxCL7c3fdhiWgPXlAiDGiFI6uCJ_GoiAcnXh_GaMIT1oy2HXwmVwOgbkEJ_2cyO7cb8T5PQKvYOhuXwPh6jf5Uqe7X9tsFq-56c8DNSp7pXkXZ_VxZlR-6XFehKy0]--></g></svg>