<?xml version="1.0" encoding="us-ascii" standalone="no"?><svg xmlns="http://www.w3.org/2000/svg" xmlns:xlink="http://www.w3.org/1999/xlink" contentStyleType="text/css" height="607px" preserveAspectRatio="none" style="width:617px;height:607px;background:#FFFFFF;" version="1.1" viewBox="0 0 617 607" width="617px" zoomAndPan="magnify"><defs/><g><ellipse cx="269.5" cy="16" fill="#222222" rx="10" ry="10" style="stroke:#222222;stroke-width:1.0;"/><g id="CenterOpened"><rect fill="#F1F1F1" height="50" rx="12.5" ry="12.5" style="stroke:#181818;stroke-width:0.5;" width="127" x="206" y="103"/><line style="stroke:#181818;stroke-width:0.5;" x1="206" x2="333" y1="129.2969" y2="129.2969"/><text fill="#000000" font-family="sans-serif" font-size="14" lengthAdjust="spacing" textLength="107" x="216" y="120.9951">CenterOpened</text></g><g id="CashRegisterEmpty"><rect fill="#F1F1F1" height="50" rx="12.5" ry="12.5" style="stroke:#181818;stroke-width:0.5;" width="163" x="188" y="214"/><line style="stroke:#181818;stroke-width:0.5;" x1="188" x2="351" y1="240.2969" y2="240.2969"/><text fill="#000000" font-family="sans-serif" font-size="14" lengthAdjust="spacing" textLength="143" x="198" y="231.9951">CashRegisterEmpty</text></g><g id="CashRegisterServing"><rect fill="#F1F1F1" height="50" rx="12.5" ry="12.5" style="stroke:#181818;stroke-width:0.5;" width="169" x="7" y="341"/><line style="stroke:#181818;stroke-width:0.5;" x1="7" x2="176" y1="367.2969" y2="367.2969"/><text fill="#000000" font-family="sans-serif" font-size="14" lengthAdjust="spacing" textLength="149" x="17" y="358.9951">CashRegisterServing</text></g><g id="CashRegisterClosed"><rect fill="#F1F1F1" height="50" rx="12.5" ry="12.5" style="stroke:#181818;stroke-width:0.5;" width="163" x="350" y="341"/><line style="stroke:#181818;stroke-width:0.5;" x1="350" x2="513" y1="367.2969" y2="367.2969"/><text fill="#000000" font-family="sans-serif" font-size="14" lengthAdjust="spacing" textLength="143" x="360" y="358.9951">CashRegisterClosed</text></g><g id="CenterClosed"><rect fill="#F1F1F1" height="50" rx="12.5" ry="12.5" style="stroke:#181818;stroke-width:0.5;" width="118" x="372.5" y="452"/><line style="stroke:#181818;stroke-width:0.5;" x1="372.5" x2="490.5" y1="478.2969" y2="478.2969"/><text fill="#000000" font-family="sans-serif" font-size="14" lengthAdjust="spacing" textLength="98" x="382.5" y="469.9951">CenterClosed</text></g><ellipse cx="431.5" cy="590" fill="none" rx="11" ry="11" style="stroke:#222222;stroke-width:1.0;"/><ellipse cx="431.5" cy="590" fill="#222222" rx="6" ry="6" style="stroke:#222222;stroke-width:1.0;"/><!--link *start* to CenterOpened--><g id="link_*start*_CenterOpened"><path d="M269.5,26.002 C269.5,42.627 269.5,72.655 269.5,96.873 " fill="none" id="*start*-to-CenterOpened" style="stroke:#181818;stroke-width:1.0;"/><polygon fill="#181818" points="269.5,102.873,273.5,93.873,269.5,97.873,265.5,93.873,269.5,102.873" style="stroke:#181818;stroke-width:1.0;"/><text fill="#000000" font-family="sans-serif" font-size="13" lengthAdjust="spacing" textLength="31" x="270.5" y="69.0669">Start</text></g><!--link CenterOpened to CashRegisterEmpty--><g id="link_CenterOpened_CashRegisterEmpty"><path d="M269.5,153.191 C269.5,171.254 269.5,189.83 269.5,207.877 " fill="none" id="CenterOpened-to-CashRegisterEmpty" style="stroke:#181818;stroke-width:1.0;"/><polygon fill="#181818" points="269.5,213.877,273.5,204.877,269.5,208.877,265.5,204.877,269.5,213.877" style="stroke:#181818;stroke-width:1.0;"/></g><!--link CashRegisterEmpty to CashRegisterServing--><g id="link_CashRegisterEmpty_CashRegisterServing"><path d="M187.818,248.109 C128.145,255.919 54.4802,270.141 35.5,294 C23.0877,309.603 32.1167,323.4148 49.0605,337.1858 " fill="none" id="CashRegisterEmpty-to-CashRegisterServing" style="stroke:#181818;stroke-width:1.0;"/><polygon fill="#181818" points="53.7166,340.97,49.2552,332.1896,49.8365,337.8165,44.2096,338.3977,53.7166,340.97" style="stroke:#181818;stroke-width:1.0;"/><text fill="#000000" font-family="sans-serif" font-size="13" lengthAdjust="spacing" textLength="112" x="36.5" y="307.0669">Customer Arrives</text></g><!--link CashRegisterServing to CashRegisterEmpty--><g id="link_CashRegisterServing_CashRegisterEmpty"><path d="M125.715,340.973 C157.201,318.861 198.7498,289.6842 230.2698,267.5492 " fill="none" id="CashRegisterServing-to-CashRegisterEmpty" style="stroke:#181818;stroke-width:1.0;"/><polygon fill="#181818" points="235.18,264.101,225.5159,265.9998,231.0882,266.9745,230.1135,272.5467,235.18,264.101" style="stroke:#181818;stroke-width:1.0;"/><text fill="#000000" font-family="sans-serif" font-size="13" lengthAdjust="spacing" textLength="112" x="192.5" y="307.0669">Customer Served</text></g><!--link CashRegisterEmpty to CashRegisterClosed--><g id="link_CashRegisterEmpty_CashRegisterClosed"><path d="M291.996,264.056 C306.095,278.487 325.04,296.745 343.5,311 C357.404,321.736 368.4127,329.0795 383.0577,337.8645 " fill="none" id="CashRegisterEmpty-to-CashRegisterClosed" style="stroke:#181818;stroke-width:1.0;"/><polygon fill="#181818" points="388.203,340.951,382.5427,332.8911,383.9153,338.379,378.4275,339.7515,388.203,340.951" style="stroke:#181818;stroke-width:1.0;"/><text fill="#000000" font-family="sans-serif" font-size="13" lengthAdjust="spacing" textLength="128" x="344.5" y="307.0669">Close Cash Register</text></g><!--link CashRegisterClosed to CashRegisterEmpty--><g id="link_CashRegisterClosed_CashRegisterEmpty"><path d="M462.79,340.981 C477.322,326.898 489.092,308.986 477.5,294 C461.721,273.601 408.2391,260.4857 356.9361,251.8167 " fill="none" id="CashRegisterClosed-to-CashRegisterEmpty" style="stroke:#181818;stroke-width:1.0;"/><polygon fill="#181818" points="351.02,250.817,359.2277,256.2606,355.9501,251.6501,360.5607,248.3724,351.02,250.817" style="stroke:#181818;stroke-width:1.0;"/><text fill="#000000" font-family="sans-serif" font-size="13" lengthAdjust="spacing" textLength="127" x="482.5" y="307.0669">Open Cash Register</text></g><!--link CashRegisterClosed to CenterClosed--><g id="link_CashRegisterClosed_CenterClosed"><path d="M431.5,391.191 C431.5,409.254 431.5,427.83 431.5,445.877 " fill="none" id="CashRegisterClosed-to-CenterClosed" style="stroke:#181818;stroke-width:1.0;"/><polygon fill="#181818" points="431.5,451.877,435.5,442.877,431.5,446.877,427.5,442.877,431.5,451.877" style="stroke:#181818;stroke-width:1.0;"/></g><!--link CenterClosed to *end*--><g id="link_CenterClosed_*end*"><path d="M431.5,502.0853 C431.5,526.0597 431.5,555.6954 431.5,572.9353 " fill="none" id="CenterClosed-to-*end*" style="stroke:#181818;stroke-width:1.0;"/><polygon fill="#181818" points="431.5,578.9353,435.5,569.9353,431.5,573.9353,427.5,569.9353,431.5,578.9353" style="stroke:#181818;stroke-width:1.0;"/><text fill="#000000" font-family="sans-serif" font-size="13" lengthAdjust="spacing" textLength="24" x="432.5" y="545.0669">End</text></g><!--SRC=[YzQALT3LjLDmJiqhIItoBqZDIqrHi588BaaiAk524GIhIYpE24fDpom62hlc5fHKSc68OAWBJYqgoynB1nhgN5fSaf-RMgJWM5IKMPPQJ8HcvvpyOh23m0omb09CZWkRBLXTYMmtI65g2XSMIt1f1VaVZyt8ki7X1HNWGk61fAE1OMsbu9gN0W00]--></g></svg>