<?xml version="1.0" encoding="us-ascii" standalone="no"?><svg xmlns="http://www.w3.org/2000/svg" xmlns:xlink="http://www.w3.org/1999/xlink" contentStyleType="text/css" height="295px" preserveAspectRatio="none" style="width:380px;height:295px;background:#FFFFFF;" version="1.1" viewBox="0 0 380 295" width="380px" zoomAndPan="magnify"><defs/><g><text fill="#000000" font-family="sans-serif" font-size="14" font-weight="bold" lengthAdjust="spacing" textLength="335" x="15.75" y="22.9951">Diagrama de Estados - Heroe vs. Vampiro</text><ellipse cx="294.5" cy="53.2969" fill="#222222" rx="10" ry="10" style="stroke:#222222;stroke-width:1.0;"/><g id="TurnoHeroe"><rect fill="#F1F1F1" height="50" rx="12.5" ry="12.5" style="stroke:#181818;stroke-width:0.5;" width="104" x="242.5" y="140.2969"/><line style="stroke:#181818;stroke-width:0.5;" x1="242.5" x2="346.5" y1="166.5938" y2="166.5938"/><text fill="#000000" font-family="sans-serif" font-size="14" lengthAdjust="spacing" textLength="84" x="252.5" y="158.292">TurnoHeroe</text></g><g id="TurnoVillano"><rect fill="#F1F1F1" height="50" rx="12.5" ry="12.5" style="stroke:#181818;stroke-width:0.5;" width="109" x="7" y="140.2969"/><line style="stroke:#181818;stroke-width:0.5;" x1="7" x2="116" y1="166.5938" y2="166.5938"/><text fill="#000000" font-family="sans-serif" font-size="14" lengthAdjust="spacing" textLength="89" x="17" y="158.292">TurnoVillano</text></g><ellipse cx="191.5" cy="278.2969" fill="none" rx="11" ry="11" style="stroke:#222222;stroke-width:1.0;"/><ellipse cx="191.5" cy="278.2969" fill="#222222" rx="6" ry="6" style="stroke:#222222;stroke-width:1.0;"/><!--link *start* to TurnoHeroe--><g id="link_*start*_TurnoHeroe"><path d="M294.5,63.2989 C294.5,79.9239 294.5,109.9519 294.5,134.1699 " fill="none" id="*start*-to-TurnoHeroe" style="stroke:#181818;stroke-width:1.0;"/><polygon fill="#181818" points="294.5,140.1699,298.5,131.1699,294.5,135.1699,290.5,131.1699,294.5,140.1699" style="stroke:#181818;stroke-width:1.0;"/><text fill="#000000" font-family="sans-serif" font-size="13" lengthAdjust="spacing" textLength="77" x="295.5" y="106.3638">Iniciar Juego</text></g><!--reverse link TurnoVillano to TurnoHeroe--><g id="link_TurnoVillano_TurnoHeroe"><path d="M122.128,165.2969 C160.194,165.2969 204.674,165.2969 242.216,165.2969 " fill="none" id="TurnoVillano-backto-TurnoHeroe" style="stroke:#181818;stroke-width:1.0;"/><polygon fill="#181818" points="116.128,165.2969,125.128,169.2969,121.128,165.2969,125.128,161.2969,116.128,165.2969" style="stroke:#181818;stroke-width:1.0;"/><text fill="#000000" font-family="sans-serif" font-size="13" lengthAdjust="spacing" textLength="90" x="134.25" y="158.3638">Escoje Movida</text></g><!--reverse link TurnoHeroe to TurnoVillano--><g id="link_TurnoHeroe_TurnoVillano"><path d="M236.5488,179.9288 C223.6718,182.6738 215.717,183.8999 202.75,185.2969 C181.981,187.5339 176.525,187.4769 155.75,185.2969 C142.774,183.9349 128.956,181.5469 116.013,178.8839 " fill="none" id="TurnoHeroe-backto-TurnoVillano" style="stroke:#181818;stroke-width:1.0;"/><polygon fill="#181818" points="242.417,178.6779,232.7808,176.6422,237.5269,179.7203,234.4487,184.4664,242.417,178.6779" style="stroke:#181818;stroke-width:1.0;"/><text fill="#000000" font-family="sans-serif" font-size="13" lengthAdjust="spacing" textLength="45" x="156.75" y="181.3638">Movida</text></g><!--link TurnoHeroe to *end*--><g id="link_TurnoHeroe_*end*"><path d="M272.151,190.3822 C248.957,215.3768 218.0842,248.648 202.9732,264.9326 " fill="none" id="TurnoHeroe-to-*end*" style="stroke:#181818;stroke-width:1.0;"/><polygon fill="#181818" points="198.892,269.3308,207.9459,265.4543,202.293,265.6656,202.0817,260.0127,198.892,269.3308" style="stroke:#181818;stroke-width:1.0;"/><text fill="#000000" font-family="sans-serif" font-size="13" lengthAdjust="spacing" textLength="85" x="243.5" y="233.3638">Muere Villano</text></g><!--link TurnoVillano to *end*--><g id="link_TurnoVillano_*end*"><path d="M87.0216,190.5115 C102.0288,204.4997 121.529,222.2497 139.5,237.2969 C154.346,249.7272 167.575,259.728 178.034,267.4361 " fill="none" id="TurnoVillano-to-*end*" style="stroke:#181818;stroke-width:1.0;"/><polygon fill="#181818" points="182.864,270.9958,177.9921,262.4363,178.839,268.0294,173.2459,268.8763,182.864,270.9958" style="stroke:#181818;stroke-width:1.0;"/><text fill="#000000" font-family="sans-serif" font-size="13" lengthAdjust="spacing" textLength="81" x="140.5" y="233.3638">Muere Heroe</text></g><!--SRC=[NSw_2i903CVnlK_ncuNp0JeuML2XctGHXz0B9NAzoFtfyrkrBQTpFlacIP9Z78M6G2F1CfgOo6g4mOc3CgQuHqVZKu9MrMrtXp47N7Fm-ftNE7lfXG8kcOVP53FZDjo9S-HrvatizS5eTH9BFtgsxmCrsio1iQminJLGDDS7ojJ6_c8V-m80]--></g></svg>