<?xml version="1.0" encoding="us-ascii" standalone="no"?><svg xmlns="http://www.w3.org/2000/svg" xmlns:xlink="http://www.w3.org/1999/xlink" contentStyleType="text/css" height="652px" preserveAspectRatio="none" style="width:449px;height:652px;background:#FFFFFF;" version="1.1" viewBox="0 0 449 652" width="449px" zoomAndPan="magnify"><defs/><g><!--class Juego--><g id="elem_Juego"><rect codeLine="1" fill="#F1F1F1" height="145.7813" id="Juego" rx="2.5" ry="2.5" style="stroke:#181818;stroke-width:0.5;" width="227" x="19.5" y="7"/><ellipse cx="109.25" cy="23" fill="#ADD1B2" rx="11" ry="11" style="stroke:#181818;stroke-width:1.0;"/><path d="M111.5938,18.6719 C110.6563,18.2344 110.0625,18.0938 109.1875,18.0938 C106.5625,18.0938 104.5625,20.1719 104.5625,22.8906 L104.5625,24.0156 C104.5625,26.5938 106.6719,28.4844 109.5625,28.4844 C110.7813,28.4844 111.9375,28.1875 112.6875,27.6406 C113.2656,27.2344 113.5938,26.7813 113.5938,26.3906 C113.5938,25.9375 113.2031,25.5469 112.7344,25.5469 C112.5156,25.5469 112.3125,25.625 112.125,25.8125 C111.6719,26.2969 111.6719,26.2969 111.4844,26.3906 C111.0625,26.6563 110.375,26.7813 109.6094,26.7813 C107.5625,26.7813 106.2656,25.6875 106.2656,23.9844 L106.2656,22.8906 C106.2656,21.1094 107.5156,19.7969 109.25,19.7969 C109.8281,19.7969 110.4375,19.9531 110.9063,20.2031 C111.3906,20.4844 111.5625,20.7031 111.6563,21.1094 C111.7188,21.5156 111.75,21.6406 111.8906,21.7656 C112.0313,21.9063 112.2656,22.0156 112.4844,22.0156 C112.75,22.0156 113.0156,21.875 113.1875,21.6563 C113.2969,21.5 113.3281,21.3125 113.3281,20.8906 L113.3281,19.4688 C113.3281,19.0313 113.3125,18.9063 113.2188,18.75 C113.0625,18.4844 112.7813,18.3438 112.4844,18.3438 C112.1875,18.3438 111.9844,18.4375 111.7656,18.75 L111.5938,18.6719 Z " fill="#000000"/><text fill="#000000" font-family="sans-serif" font-size="14" lengthAdjust="spacing" textLength="39" x="129.75" y="27.8467">Juego</text><line style="stroke:#181818;stroke-width:0.5;" x1="20.5" x2="245.5" y1="39" y2="39"/><rect fill="none" height="6" style="stroke:#C82930;stroke-width:1.0;" width="6" x="27.5" y="49.6484"/><text fill="#000000" font-family="sans-serif" font-size="14" lengthAdjust="spacing" textLength="75" x="39.5" y="55.9951">turnos: int</text><rect fill="none" height="6" style="stroke:#C82930;stroke-width:1.0;" width="6" x="27.5" y="65.9453"/><text fill="#000000" font-family="sans-serif" font-size="14" lengthAdjust="spacing" textLength="167" x="39.5" y="72.292">personajes[]: Personaje</text><rect fill="none" height="6" style="stroke:#C82930;stroke-width:1.0;" width="6" x="27.5" y="82.2422"/><text fill="#000000" font-family="sans-serif" font-size="14" lengthAdjust="spacing" textLength="137" x="39.5" y="88.5889">ganador: Personaje</text><line style="stroke:#181818;stroke-width:0.5;" x1="20.5" x2="245.5" y1="95.8906" y2="95.8906"/><ellipse cx="30.5" cy="109.5391" fill="#84BE84" rx="3" ry="3" style="stroke:#038048;stroke-width:1.0;"/><text fill="#000000" font-family="sans-serif" font-size="14" lengthAdjust="spacing" textLength="200" x="39.5" y="112.8857">elegirPersonaje(): Personaje</text><ellipse cx="30.5" cy="125.8359" fill="#84BE84" rx="3" ry="3" style="stroke:#038048;stroke-width:1.0;"/><text fill="#000000" font-family="sans-serif" font-size="14" lengthAdjust="spacing" textLength="201" x="39.5" y="129.1826">iniciar(Personaje, Personaje)</text><ellipse cx="30.5" cy="142.1328" fill="#84BE84" rx="3" ry="3" style="stroke:#038048;stroke-width:1.0;"/><text fill="#000000" font-family="sans-serif" font-size="14" lengthAdjust="spacing" textLength="161" x="39.5" y="145.4795">gestionarTurnos():void</text></g><!--class Personaje--><g id="elem_Personaje"><rect codeLine="10" fill="#F1F1F1" height="276.1563" id="Personaje" rx="2.5" ry="2.5" style="stroke:#181818;stroke-width:0.5;" width="236" x="15" y="213"/><ellipse cx="93.75" cy="229" fill="#B4A7E5" rx="11" ry="11" style="stroke:#181818;stroke-width:1.0;"/><path d="M94.7031,225.7813 L96.4219,225.7813 C96.8125,225.7813 97,225.75 97.125,225.6719 C97.3906,225.5156 97.5313,225.2344 97.5313,224.9375 C97.5313,224.6719 97.4219,224.4063 97.1875,224.2344 C97.0156,224.125 96.875,224.0938 96.4219,224.0938 L91.2813,224.0938 C90.8438,224.0938 90.7188,224.1094 90.5625,224.2031 C90.3125,224.3594 90.1563,224.6563 90.1563,224.9375 C90.1563,225.2188 90.2969,225.4688 90.5156,225.6406 C90.6719,225.75 90.8594,225.7813 91.2813,225.7813 L93,225.7813 L93,232.2969 L91.2813,232.2969 C90.8438,232.2969 90.7188,232.3125 90.5625,232.4219 C90.3125,232.5781 90.1563,232.8594 90.1563,233.1563 C90.1563,233.4063 90.2969,233.6719 90.5156,233.8281 C90.6719,233.9531 90.875,234 91.2813,234 L96.4219,234 C97.1719,234 97.5313,233.7188 97.5313,233.1563 C97.5313,232.875 97.4219,232.625 97.1875,232.4531 C97.0156,232.3281 96.875,232.2969 96.4219,232.2969 L94.7031,232.2969 L94.7031,225.7813 Z " fill="#000000"/><text fill="#000000" font-family="sans-serif" font-size="14" font-style="italic" lengthAdjust="spacing" textLength="70" x="114.25" y="233.8467">Personaje</text><line style="stroke:#181818;stroke-width:0.5;" x1="16" x2="250" y1="245" y2="245"/><rect fill="none" height="6" style="stroke:#C82930;stroke-width:1.0;" width="6" x="23" y="255.6484"/><text fill="#000000" font-family="sans-serif" font-size="14" lengthAdjust="spacing" textLength="72" x="35" y="261.9951">poder: int</text><rect fill="none" height="6" style="stroke:#C82930;stroke-width:1.0;" width="6" x="23" y="271.9453"/><text fill="#000000" font-family="sans-serif" font-size="14" lengthAdjust="spacing" textLength="78" x="35" y="278.292">ataque: int</text><rect fill="none" height="6" style="stroke:#C82930;stroke-width:1.0;" width="6" x="23" y="288.2422"/><text fill="#000000" font-family="sans-serif" font-size="14" lengthAdjust="spacing" textLength="83" x="35" y="294.5889">energia: int</text><rect fill="none" height="6" style="stroke:#C82930;stroke-width:1.0;" width="6" x="23" y="304.5391"/><text fill="#000000" font-family="sans-serif" font-size="14" lengthAdjust="spacing" textLength="137" x="35" y="310.8857">prob_exito: double</text><rect fill="none" height="6" style="stroke:#C82930;stroke-width:1.0;" width="6" x="23" y="320.8359"/><text fill="#000000" font-family="sans-serif" font-size="14" lengthAdjust="spacing" textLength="108" x="35" y="327.1826">nombre: string</text><rect fill="none" height="6" style="stroke:#C82930;stroke-width:1.0;" width="6" x="23" y="337.1328"/><text fill="#000000" font-family="sans-serif" font-size="14" lengthAdjust="spacing" textLength="123" x="35" y="343.4795">random: Random</text><rect fill="none" height="6" style="stroke:#C82930;stroke-width:1.0;" width="6" x="23" y="353.4297"/><text fill="#000000" font-family="sans-serif" font-size="14" lengthAdjust="spacing" textLength="166" x="35" y="359.7764">UMBRAL_DESMAYO: int</text><rect fill="none" height="6" style="stroke:#C82930;stroke-width:1.0;" width="6" x="23" y="369.7266"/><text fill="#000000" font-family="sans-serif" font-size="14" lengthAdjust="spacing" textLength="210" x="35" y="376.0732">RECUPERACION_ENERGIA: int</text><rect fill="none" height="6" style="stroke:#C82930;stroke-width:1.0;" width="6" x="23" y="386.0234"/><text fill="#000000" font-family="sans-serif" font-size="14" lengthAdjust="spacing" textLength="100" x="35" y="392.3701">armas[]: Arma</text><line style="stroke:#181818;stroke-width:0.5;" x1="16" x2="250" y1="399.6719" y2="399.6719"/><ellipse cx="26" cy="413.3203" fill="#84BE84" rx="3" ry="3" style="stroke:#038048;stroke-width:1.0;"/><text fill="#000000" font-family="sans-serif" font-size="14" lengthAdjust="spacing" textLength="139" x="35" y="416.667">estaVivo(): boolean</text><ellipse cx="26" cy="429.6172" fill="#84BE84" rx="3" ry="3" style="stroke:#038048;stroke-width:1.0;"/><text fill="#000000" font-family="sans-serif" font-size="14" lengthAdjust="spacing" textLength="191" x="35" y="432.9639">estaDesmayado(): boolean</text><ellipse cx="26" cy="445.9141" fill="#84BE84" rx="3" ry="3" style="stroke:#038048;stroke-width:1.0;"/><text fill="#000000" font-family="sans-serif" font-size="14" lengthAdjust="spacing" textLength="173" x="35" y="449.2607">recuperarEnergia(): void</text><ellipse cx="26" cy="462.2109" fill="#84BE84" rx="3" ry="3" style="stroke:#038048;stroke-width:1.0;"/><text fill="#000000" font-family="sans-serif" font-size="14" lengthAdjust="spacing" textLength="164" x="35" y="465.5576">atacar(Personaje): void</text><ellipse cx="26" cy="478.5078" fill="#84BE84" rx="3" ry="3" style="stroke:#038048;stroke-width:1.0;"/><text fill="#000000" font-family="sans-serif" font-size="14" lengthAdjust="spacing" textLength="153" x="35" y="481.8545">recibirDano(int): void</text></g><!--class Heroe--><g id="elem_Heroe"><rect codeLine="27" fill="#F1F1F1" height="96.8906" id="Heroe" rx="2.5" ry="2.5" style="stroke:#181818;stroke-width:0.5;" width="252" x="7" y="549"/><ellipse cx="106.75" cy="565" fill="#B4A7E5" rx="11" ry="11" style="stroke:#181818;stroke-width:1.0;"/><path d="M107.7031,561.7813 L109.4219,561.7813 C109.8125,561.7813 110,561.75 110.125,561.6719 C110.3906,561.5156 110.5313,561.2344 110.5313,560.9375 C110.5313,560.6719 110.4219,560.4063 110.1875,560.2344 C110.0156,560.125 109.875,560.0938 109.4219,560.0938 L104.2813,560.0938 C103.8438,560.0938 103.7188,560.1094 103.5625,560.2031 C103.3125,560.3594 103.1563,560.6563 103.1563,560.9375 C103.1563,561.2188 103.2969,561.4688 103.5156,561.6406 C103.6719,561.75 103.8594,561.7813 104.2813,561.7813 L106,561.7813 L106,568.2969 L104.2813,568.2969 C103.8438,568.2969 103.7188,568.3125 103.5625,568.4219 C103.3125,568.5781 103.1563,568.8594 103.1563,569.1563 C103.1563,569.4063 103.2969,569.6719 103.5156,569.8281 C103.6719,569.9531 103.875,570 104.2813,570 L109.4219,570 C110.1719,570 110.5313,569.7188 110.5313,569.1563 C110.5313,568.875 110.4219,568.625 110.1875,568.4531 C110.0156,568.3281 109.875,568.2969 109.4219,568.2969 L107.7031,568.2969 L107.7031,561.7813 Z " fill="#000000"/><text fill="#000000" font-family="sans-serif" font-size="14" font-style="italic" lengthAdjust="spacing" textLength="44" x="127.25" y="569.8467">Heroe</text><line style="stroke:#181818;stroke-width:0.5;" x1="8" x2="258" y1="581" y2="581"/><rect fill="none" height="6" style="stroke:#C82930;stroke-width:1.0;" width="6" x="15" y="591.6484"/><text fill="#000000" font-family="sans-serif" font-size="14" lengthAdjust="spacing" textLength="158" x="27" y="597.9951">defendiendo: boolean</text><rect fill="none" height="6" style="stroke:#C82930;stroke-width:1.0;" width="6" x="15" y="607.9453"/><text fill="#000000" font-family="sans-serif" font-size="14" lengthAdjust="spacing" textLength="226" x="27" y="614.292">turnosRestantesParaAtacar: int</text><line style="stroke:#181818;stroke-width:0.5;" x1="8" x2="258" y1="621.5938" y2="621.5938"/><ellipse cx="18" cy="635.2422" fill="#84BE84" rx="3" ry="3" style="stroke:#038048;stroke-width:1.0;"/><text fill="#000000" font-family="sans-serif" font-size="14" lengthAdjust="spacing" textLength="141" x="27" y="638.5889">tomarPocion(): void</text></g><!--class Arma--><g id="elem_Arma"><rect codeLine="33" fill="#F1F1F1" height="96.8906" id="Arma" rx="2.5" ry="2.5" style="stroke:#181818;stroke-width:0.5;" width="156" x="286" y="302.5"/><ellipse cx="340.75" cy="318.5" fill="#ADD1B2" rx="11" ry="11" style="stroke:#181818;stroke-width:1.0;"/><path d="M343.0938,314.1719 C342.1563,313.7344 341.5625,313.5938 340.6875,313.5938 C338.0625,313.5938 336.0625,315.6719 336.0625,318.3906 L336.0625,319.5156 C336.0625,322.0938 338.1719,323.9844 341.0625,323.9844 C342.2813,323.9844 343.4375,323.6875 344.1875,323.1406 C344.7656,322.7344 345.0938,322.2813 345.0938,321.8906 C345.0938,321.4375 344.7031,321.0469 344.2344,321.0469 C344.0156,321.0469 343.8125,321.125 343.625,321.3125 C343.1719,321.7969 343.1719,321.7969 342.9844,321.8906 C342.5625,322.1563 341.875,322.2813 341.1094,322.2813 C339.0625,322.2813 337.7656,321.1875 337.7656,319.4844 L337.7656,318.3906 C337.7656,316.6094 339.0156,315.2969 340.75,315.2969 C341.3281,315.2969 341.9375,315.4531 342.4063,315.7031 C342.8906,315.9844 343.0625,316.2031 343.1563,316.6094 C343.2188,317.0156 343.25,317.1406 343.3906,317.2656 C343.5313,317.4063 343.7656,317.5156 343.9844,317.5156 C344.25,317.5156 344.5156,317.375 344.6875,317.1563 C344.7969,317 344.8281,316.8125 344.8281,316.3906 L344.8281,314.9688 C344.8281,314.5313 344.8125,314.4063 344.7188,314.25 C344.5625,313.9844 344.2813,313.8438 343.9844,313.8438 C343.6875,313.8438 343.4844,313.9375 343.2656,314.25 L343.0938,314.1719 Z " fill="#000000"/><text fill="#000000" font-family="sans-serif" font-size="14" lengthAdjust="spacing" textLength="38" x="361.25" y="323.3467">Arma</text><line style="stroke:#181818;stroke-width:0.5;" x1="287" x2="441" y1="334.5" y2="334.5"/><rect fill="none" height="6" style="stroke:#C82930;stroke-width:1.0;" width="6" x="294" y="345.1484"/><text fill="#000000" font-family="sans-serif" font-size="14" lengthAdjust="spacing" textLength="108" x="306" y="351.4951">nombre: string</text><rect fill="none" height="6" style="stroke:#C82930;stroke-width:1.0;" width="6" x="294" y="361.4453"/><text fill="#000000" font-family="sans-serif" font-size="14" lengthAdjust="spacing" textLength="64" x="306" y="367.792">da&#241;o: int</text><rect fill="none" height="6" style="stroke:#C82930;stroke-width:1.0;" width="6" x="294" y="377.7422"/><text fill="#000000" font-family="sans-serif" font-size="14" lengthAdjust="spacing" textLength="130" x="306" y="384.0889">probExito: double</text><line style="stroke:#181818;stroke-width:0.5;" x1="287" x2="441" y1="391.3906" y2="391.3906"/></g><!--link Juego to Personaje--><g id="link_Juego_Personaje"><path codeLine="39" d="M133,153.087 C133,171.607 133,192.155 133,212.788 " fill="none" id="Juego-Personaje" style="stroke:#181818;stroke-width:1.0;"/></g><!--link Personaje to Arma--><g id="link_Personaje_Arma"><path codeLine="40" d="M251.207,351 C262.663,351 274.118,351 285.574,351 " fill="none" id="Personaje-Arma" style="stroke:#181818;stroke-width:1.0;"/></g><!--reverse link Personaje to Heroe--><g id="link_Personaje_Heroe"><path codeLine="41" d="M133,507.259 C133,528.594 133,531.31 133,548.7548 " fill="none" id="Personaje-backto-Heroe" style="stroke:#181818;stroke-width:1.0;"/><polygon fill="none" points="133,489.259,127,507.259,139,507.259,133,489.259" style="stroke:#181818;stroke-width:1.0;"/></g><!--SRC=[RLBRJeD047tdA_QHfl83n1TiYTRObk0bCSOq0qp96jYfiz1er8_o6_mnbqLkZG-4dJCpk-UScRG0hSLrZJbzE49uegfPaVQ5L9MD3yYQ5BoWVdhsHTH5DfU3Wenu2iy55fXBxZ5tTbeWbKmbiDkZPqF1p5Rag2jfOhwpTCmLHvAPy-KuXXVo7b8SMbhY1ygG1zvGmMkDGumAEPSm4iQKxF1DLkIBZEgaQ3KfAXCsVRfYgN8BCQYCIb_4zc-X-_L57Dpibk7jEdZS3fV6uU8-2kDWiTfkTk4cZ2zNmOWJbs1j3CoXjKfNy22Fr7YK41K8giUNg4juDmQV9XdJsem5E6mrDNbhJvCqkjEnjUESQPI9v2KeSWsdBZLnzGgPKBIMPhX7bKdpqPX1joHnmz8qwWWO0ljkftKkAYg18qhD5DtHGwdTjqR_tnl_-9t1ppTD1nLEvcJkiHihF6-qMVr9UEor5W_G-QUfjTf-0G00]--></g></svg>