<?xml version="1.0" encoding="us-ascii" standalone="no"?><svg xmlns="http://www.w3.org/2000/svg" xmlns:xlink="http://www.w3.org/1999/xlink" contentStyleType="text/css" height="505px" preserveAspectRatio="none" style="width:572px;height:505px;background:#FFFFFF;" version="1.1" viewBox="0 0 572 505" width="572px" zoomAndPan="magnify"><defs/><g><!--class Juego--><g id="elem_Juego"><rect codeLine="1" fill="#F1F1F1" height="145.7813" id="Juego" rx="2.5" ry="2.5" style="stroke:#181818;stroke-width:0.5;" width="227" x="215.5" y="7"/><ellipse cx="305.25" cy="23" fill="#ADD1B2" rx="11" ry="11" style="stroke:#181818;stroke-width:1.0;"/><path d="M307.5938,18.6719 C306.6563,18.2344 306.0625,18.0938 305.1875,18.0938 C302.5625,18.0938 300.5625,20.1719 300.5625,22.8906 L300.5625,24.0156 C300.5625,26.5938 302.6719,28.4844 305.5625,28.4844 C306.7813,28.4844 307.9375,28.1875 308.6875,27.6406 C309.2656,27.2344 309.5938,26.7813 309.5938,26.3906 C309.5938,25.9375 309.2031,25.5469 308.7344,25.5469 C308.5156,25.5469 308.3125,25.625 308.125,25.8125 C307.6719,26.2969 307.6719,26.2969 307.4844,26.3906 C307.0625,26.6563 306.375,26.7813 305.6094,26.7813 C303.5625,26.7813 302.2656,25.6875 302.2656,23.9844 L302.2656,22.8906 C302.2656,21.1094 303.5156,19.7969 305.25,19.7969 C305.8281,19.7969 306.4375,19.9531 306.9063,20.2031 C307.3906,20.4844 307.5625,20.7031 307.6563,21.1094 C307.7188,21.5156 307.75,21.6406 307.8906,21.7656 C308.0313,21.9063 308.2656,22.0156 308.4844,22.0156 C308.75,22.0156 309.0156,21.875 309.1875,21.6563 C309.2969,21.5 309.3281,21.3125 309.3281,20.8906 L309.3281,19.4688 C309.3281,19.0313 309.3125,18.9063 309.2188,18.75 C309.0625,18.4844 308.7813,18.3438 308.4844,18.3438 C308.1875,18.3438 307.9844,18.4375 307.7656,18.75 L307.5938,18.6719 Z " fill="#000000"/><text fill="#000000" font-family="sans-serif" font-size="14" lengthAdjust="spacing" textLength="39" x="325.75" y="27.8467">Juego</text><line style="stroke:#181818;stroke-width:0.5;" x1="216.5" x2="441.5" y1="39" y2="39"/><rect fill="none" height="6" style="stroke:#C82930;stroke-width:1.0;" width="6" x="223.5" y="49.6484"/><text fill="#000000" font-family="sans-serif" font-size="14" lengthAdjust="spacing" textLength="75" x="235.5" y="55.9951">turnos: int</text><rect fill="none" height="6" style="stroke:#C82930;stroke-width:1.0;" width="6" x="223.5" y="65.9453"/><text fill="#000000" font-family="sans-serif" font-size="14" lengthAdjust="spacing" textLength="167" x="235.5" y="72.292">personajes[]: Personaje</text><rect fill="none" height="6" style="stroke:#C82930;stroke-width:1.0;" width="6" x="223.5" y="82.2422"/><text fill="#000000" font-family="sans-serif" font-size="14" lengthAdjust="spacing" textLength="137" x="235.5" y="88.5889">ganador: Personaje</text><line style="stroke:#181818;stroke-width:0.5;" x1="216.5" x2="441.5" y1="95.8906" y2="95.8906"/><ellipse cx="226.5" cy="109.5391" fill="#84BE84" rx="3" ry="3" style="stroke:#038048;stroke-width:1.0;"/><text fill="#000000" font-family="sans-serif" font-size="14" lengthAdjust="spacing" textLength="200" x="235.5" y="112.8857">elegirPersonaje(): Personaje</text><ellipse cx="226.5" cy="125.8359" fill="#84BE84" rx="3" ry="3" style="stroke:#038048;stroke-width:1.0;"/><text fill="#000000" font-family="sans-serif" font-size="14" lengthAdjust="spacing" textLength="201" x="235.5" y="129.1826">iniciar(Personaje, Personaje)</text><ellipse cx="226.5" cy="142.1328" fill="#84BE84" rx="3" ry="3" style="stroke:#038048;stroke-width:1.0;"/><text fill="#000000" font-family="sans-serif" font-size="14" lengthAdjust="spacing" textLength="161" x="235.5" y="145.4795">gestionarTurnos():void</text></g><!--class Personaje--><g id="elem_Personaje"><rect codeLine="10" fill="#F1F1F1" height="129.4844" id="Personaje" rx="2.5" ry="2.5" style="stroke:#181818;stroke-width:0.5;" width="160" x="249" y="213"/><ellipse cx="290.1" cy="229" fill="#A9DCDF" rx="11" ry="11" style="stroke:#181818;stroke-width:1.0;"/><path d="M292.1781,230.8125 L292.5688,231.7969 L292.1781,231.7969 C291.725,231.7969 291.6156,231.8125 291.4594,231.9219 C291.2094,232.0781 291.0531,232.3594 291.0531,232.6563 C291.0531,232.9219 291.1938,233.1719 291.4125,233.3281 C291.5531,233.4531 291.7563,233.5 292.1781,233.5 L294.5375,233.5 C294.8969,233.5 295.1156,233.4688 295.2563,233.375 C295.5063,233.2344 295.6625,232.9375 295.6625,232.6563 C295.6625,232.375 295.5219,232.125 295.3031,231.9688 C295.1313,231.8281 294.975,231.7969 294.5063,231.7969 L291.1156,223.5938 L287.4438,223.5938 C286.9906,223.5938 286.8656,223.6094 286.7094,223.7031 C286.4594,223.875 286.3031,224.1563 286.3031,224.4375 C286.3031,224.7188 286.4438,224.9688 286.6625,225.1406 C286.8344,225.25 287.0063,225.2813 287.4438,225.2813 L288.5219,225.2813 L285.8813,231.7969 C285.4594,231.7969 285.3031,231.8125 285.1469,231.9219 C284.8969,232.0781 284.7406,232.3594 284.7406,232.6563 C284.7406,233.2188 285.1156,233.5 285.8656,233.5 L288.1313,233.5 C288.4906,233.5 288.7094,233.4688 288.8344,233.375 C289.1,233.2344 289.2406,232.9375 289.2406,232.6563 C289.2406,232.375 289.1156,232.125 288.8969,231.9531 C288.725,231.8281 288.5844,231.7969 288.1313,231.7969 L287.7406,231.7969 L288.1313,230.8125 L292.1781,230.8125 Z M291.475,229.1094 L288.8031,229.1094 L290.1469,225.8438 L291.475,229.1094 Z " fill="#000000"/><text fill="#000000" font-family="sans-serif" font-size="14" font-style="italic" lengthAdjust="spacing" textLength="70" x="309.9" y="233.8467">Personaje</text><line style="stroke:#181818;stroke-width:0.5;" x1="250" x2="408" y1="245" y2="245"/><line style="stroke:#181818;stroke-width:0.5;" x1="250" x2="408" y1="253" y2="253"/><ellipse cx="260" cy="266.6484" fill="#84BE84" rx="3" ry="3" style="stroke:#038048;stroke-width:1.0;"/><text fill="#000000" font-family="sans-serif" font-size="14" lengthAdjust="spacing" textLength="72" x="269" y="269.9951">estaVivo()</text><ellipse cx="260" cy="282.9453" fill="#84BE84" rx="3" ry="3" style="stroke:#038048;stroke-width:1.0;"/><text fill="#000000" font-family="sans-serif" font-size="14" lengthAdjust="spacing" textLength="124" x="269" y="286.292">estaDesmayado()</text><ellipse cx="260" cy="299.2422" fill="#84BE84" rx="3" ry="3" style="stroke:#038048;stroke-width:1.0;"/><text fill="#000000" font-family="sans-serif" font-size="14" lengthAdjust="spacing" textLength="134" x="269" y="302.5889">recuperarEnergia()</text><ellipse cx="260" cy="315.5391" fill="#84BE84" rx="3" ry="3" style="stroke:#038048;stroke-width:1.0;"/><text fill="#000000" font-family="sans-serif" font-size="14" lengthAdjust="spacing" textLength="125" x="269" y="318.8857">atacar(Personaje)</text><ellipse cx="260" cy="331.8359" fill="#84BE84" rx="3" ry="3" style="stroke:#038048;stroke-width:1.0;"/><text fill="#000000" font-family="sans-serif" font-size="14" lengthAdjust="spacing" textLength="114" x="269" y="335.1826">recibirDano(int)</text></g><!--class Heroe--><g id="elem_Heroe"><rect codeLine="18" fill="#F1F1F1" height="96.8906" id="Heroe" rx="2.5" ry="2.5" style="stroke:#181818;stroke-width:0.5;" width="252" x="7" y="402"/><ellipse cx="107.25" cy="418" fill="#ADD1B2" rx="11" ry="11" style="stroke:#181818;stroke-width:1.0;"/><path d="M109.5938,413.6719 C108.6563,413.2344 108.0625,413.0938 107.1875,413.0938 C104.5625,413.0938 102.5625,415.1719 102.5625,417.8906 L102.5625,419.0156 C102.5625,421.5938 104.6719,423.4844 107.5625,423.4844 C108.7813,423.4844 109.9375,423.1875 110.6875,422.6406 C111.2656,422.2344 111.5938,421.7813 111.5938,421.3906 C111.5938,420.9375 111.2031,420.5469 110.7344,420.5469 C110.5156,420.5469 110.3125,420.625 110.125,420.8125 C109.6719,421.2969 109.6719,421.2969 109.4844,421.3906 C109.0625,421.6563 108.375,421.7813 107.6094,421.7813 C105.5625,421.7813 104.2656,420.6875 104.2656,418.9844 L104.2656,417.8906 C104.2656,416.1094 105.5156,414.7969 107.25,414.7969 C107.8281,414.7969 108.4375,414.9531 108.9063,415.2031 C109.3906,415.4844 109.5625,415.7031 109.6563,416.1094 C109.7188,416.5156 109.75,416.6406 109.8906,416.7656 C110.0313,416.9063 110.2656,417.0156 110.4844,417.0156 C110.75,417.0156 111.0156,416.875 111.1875,416.6563 C111.2969,416.5 111.3281,416.3125 111.3281,415.8906 L111.3281,414.4688 C111.3281,414.0313 111.3125,413.9063 111.2188,413.75 C111.0625,413.4844 110.7813,413.3438 110.4844,413.3438 C110.1875,413.3438 109.9844,413.4375 109.7656,413.75 L109.5938,413.6719 Z " fill="#000000"/><text fill="#000000" font-family="sans-serif" font-size="14" lengthAdjust="spacing" textLength="43" x="127.75" y="422.8467">Heroe</text><line style="stroke:#181818;stroke-width:0.5;" x1="8" x2="258" y1="434" y2="434"/><rect fill="none" height="6" style="stroke:#C82930;stroke-width:1.0;" width="6" x="15" y="444.6484"/><text fill="#000000" font-family="sans-serif" font-size="14" lengthAdjust="spacing" textLength="158" x="27" y="450.9951">defendiendo: boolean</text><rect fill="none" height="6" style="stroke:#C82930;stroke-width:1.0;" width="6" x="15" y="460.9453"/><text fill="#000000" font-family="sans-serif" font-size="14" lengthAdjust="spacing" textLength="226" x="27" y="467.292">turnosRestantesParaAtacar: int</text><line style="stroke:#181818;stroke-width:0.5;" x1="8" x2="258" y1="474.5938" y2="474.5938"/><ellipse cx="18" cy="488.2422" fill="#84BE84" rx="3" ry="3" style="stroke:#038048;stroke-width:1.0;"/><text fill="#000000" font-family="sans-serif" font-size="14" lengthAdjust="spacing" textLength="141" x="27" y="491.5889">tomarPocion(): void</text></g><!--class Villano--><g id="elem_Villano"><rect codeLine="24" fill="#F1F1F1" height="48" id="Villano" rx="2.5" ry="2.5" style="stroke:#181818;stroke-width:0.5;" width="80" x="485" y="426.5"/><ellipse cx="500" cy="442.5" fill="#ADD1B2" rx="11" ry="11" style="stroke:#181818;stroke-width:1.0;"/><path d="M502.3438,438.1719 C501.4063,437.7344 500.8125,437.5938 499.9375,437.5938 C497.3125,437.5938 495.3125,439.6719 495.3125,442.3906 L495.3125,443.5156 C495.3125,446.0938 497.4219,447.9844 500.3125,447.9844 C501.5313,447.9844 502.6875,447.6875 503.4375,447.1406 C504.0156,446.7344 504.3438,446.2813 504.3438,445.8906 C504.3438,445.4375 503.9531,445.0469 503.4844,445.0469 C503.2656,445.0469 503.0625,445.125 502.875,445.3125 C502.4219,445.7969 502.4219,445.7969 502.2344,445.8906 C501.8125,446.1563 501.125,446.2813 500.3594,446.2813 C498.3125,446.2813 497.0156,445.1875 497.0156,443.4844 L497.0156,442.3906 C497.0156,440.6094 498.2656,439.2969 500,439.2969 C500.5781,439.2969 501.1875,439.4531 501.6563,439.7031 C502.1406,439.9844 502.3125,440.2031 502.4063,440.6094 C502.4688,441.0156 502.5,441.1406 502.6406,441.2656 C502.7813,441.4063 503.0156,441.5156 503.2344,441.5156 C503.5,441.5156 503.7656,441.375 503.9375,441.1563 C504.0469,441 504.0781,440.8125 504.0781,440.3906 L504.0781,438.9688 C504.0781,438.5313 504.0625,438.4063 503.9688,438.25 C503.8125,437.9844 503.5313,437.8438 503.2344,437.8438 C502.9375,437.8438 502.7344,437.9375 502.5156,438.25 L502.3438,438.1719 Z " fill="#000000"/><text fill="#000000" font-family="sans-serif" font-size="14" lengthAdjust="spacing" textLength="48" x="514" y="447.3467">Villano</text><line style="stroke:#181818;stroke-width:0.5;" x1="486" x2="564" y1="458.5" y2="458.5"/><line style="stroke:#181818;stroke-width:0.5;" x1="486" x2="564" y1="466.5" y2="466.5"/></g><!--class Arma--><g id="elem_Arma"><rect codeLine="28" fill="#F1F1F1" height="96.8906" id="Arma" rx="2.5" ry="2.5" style="stroke:#181818;stroke-width:0.5;" width="156" x="294" y="402"/><ellipse cx="348.75" cy="418" fill="#ADD1B2" rx="11" ry="11" style="stroke:#181818;stroke-width:1.0;"/><path d="M351.0938,413.6719 C350.1563,413.2344 349.5625,413.0938 348.6875,413.0938 C346.0625,413.0938 344.0625,415.1719 344.0625,417.8906 L344.0625,419.0156 C344.0625,421.5938 346.1719,423.4844 349.0625,423.4844 C350.2813,423.4844 351.4375,423.1875 352.1875,422.6406 C352.7656,422.2344 353.0938,421.7813 353.0938,421.3906 C353.0938,420.9375 352.7031,420.5469 352.2344,420.5469 C352.0156,420.5469 351.8125,420.625 351.625,420.8125 C351.1719,421.2969 351.1719,421.2969 350.9844,421.3906 C350.5625,421.6563 349.875,421.7813 349.1094,421.7813 C347.0625,421.7813 345.7656,420.6875 345.7656,418.9844 L345.7656,417.8906 C345.7656,416.1094 347.0156,414.7969 348.75,414.7969 C349.3281,414.7969 349.9375,414.9531 350.4063,415.2031 C350.8906,415.4844 351.0625,415.7031 351.1563,416.1094 C351.2188,416.5156 351.25,416.6406 351.3906,416.7656 C351.5313,416.9063 351.7656,417.0156 351.9844,417.0156 C352.25,417.0156 352.5156,416.875 352.6875,416.6563 C352.7969,416.5 352.8281,416.3125 352.8281,415.8906 L352.8281,414.4688 C352.8281,414.0313 352.8125,413.9063 352.7188,413.75 C352.5625,413.4844 352.2813,413.3438 351.9844,413.3438 C351.6875,413.3438 351.4844,413.4375 351.2656,413.75 L351.0938,413.6719 Z " fill="#000000"/><text fill="#000000" font-family="sans-serif" font-size="14" lengthAdjust="spacing" textLength="38" x="369.25" y="422.8467">Arma</text><line style="stroke:#181818;stroke-width:0.5;" x1="295" x2="449" y1="434" y2="434"/><rect fill="none" height="6" style="stroke:#C82930;stroke-width:1.0;" width="6" x="302" y="444.6484"/><text fill="#000000" font-family="sans-serif" font-size="14" lengthAdjust="spacing" textLength="108" x="314" y="450.9951">nombre: string</text><rect fill="none" height="6" style="stroke:#C82930;stroke-width:1.0;" width="6" x="302" y="460.9453"/><text fill="#000000" font-family="sans-serif" font-size="14" lengthAdjust="spacing" textLength="64" x="314" y="467.292">da&#241;o: int</text><rect fill="none" height="6" style="stroke:#C82930;stroke-width:1.0;" width="6" x="302" y="477.2422"/><text fill="#000000" font-family="sans-serif" font-size="14" lengthAdjust="spacing" textLength="130" x="314" y="483.5889">probExito: double</text><line style="stroke:#181818;stroke-width:0.5;" x1="295" x2="449" y1="490.8906" y2="490.8906"/></g><!--link Juego to Personaje--><g id="link_Juego_Personaje"><path codeLine="34" d="M329,153.242 C329,172.82 329,193.867 329,212.93 " fill="none" id="Juego-Personaje" style="stroke:#181818;stroke-width:1.0;"/></g><!--link Heroe to Arma--><g id="link_Heroe_Arma"><path codeLine="35" d="M259.035,450.5 C270.655,450.5 282.275,450.5 293.895,450.5 " fill="none" id="Heroe-Arma" style="stroke:#181818;stroke-width:1.0;"/></g><!--link Arma to Villano--><g id="link_Arma_Villano"><path codeLine="36" d="M450.293,450.5 C461.771,450.5 473.25,450.5 484.728,450.5 " fill="none" id="Arma-Villano" style="stroke:#181818;stroke-width:1.0;"/></g><!--reverse link Personaje to Heroe--><g id="link_Personaje_Heroe"><path codeLine="37" d="M242.4534,354.0073 C219.8144,373.7583 208.831,383.341 187.662,401.8101 " fill="none" id="Personaje-backto-Heroe" style="stroke:#181818;stroke-width:1.0;"/><polygon fill="none" points="256.017,342.174,238.5089,349.4861,246.3978,358.5286,256.017,342.174" style="stroke:#181818;stroke-width:1.0;"/></g><!--reverse link Personaje to Villano--><g id="link_Personaje_Villano"><path codeLine="38" d="M415.5464,354.0076 C449.2864,383.4446 473.703,404.7462 498.42,426.3103 " fill="none" id="Personaje-backto-Villano" style="stroke:#181818;stroke-width:1.0;"/><polygon fill="none" points="401.983,342.174,411.6019,358.5287,419.4909,349.4865,401.983,342.174" style="stroke:#181818;stroke-width:1.0;"/></g><!--SRC=[NL51JiD03Bpd5JucAlb0nALIAo5ELOLwGHoSZOcCDclatLIWmADu0nzZiqdJqCCUF3lsZCV6elVms5ChGmPGGkZLYQ-0NKZrEwaNXs_adrygE5ogzDUYmqRqFxm1ijIoBbXUt1BOiM7KV47lheGYCLhoWMEjJybE774MRhBlBCFQ1qKJhXt39Ee3dlWiUR6KE_8TVaQ7CwPa-hWEwjwHjempZ07Dsin2vffrXqxoc4KnQfiKrWEf44nfDVHAhk7uf89Qn1AwLOp7qOOBv0-ek4qwbsGt4AH3FOY9UuuHNHQSH4viRPGUiYkqrGvdMITThLH1Z89TEpd1tnzPdKsbtdzmY50ZVMrfd9FE36MvEiUqJAbb6f_Dib3Q6LYOSFyL6nFz5foR_W00]--></g></svg>