<?xml version="1.0" encoding="us-ascii" standalone="no"?><svg xmlns="http://www.w3.org/2000/svg" xmlns:xlink="http://www.w3.org/1999/xlink" contentStyleType="text/css" height="398px" preserveAspectRatio="none" style="width:882px;height:398px;background:#FFFFFF;" version="1.1" viewBox="0 0 882 398" width="882px" zoomAndPan="magnify"><defs/><g><!--class Guerrero--><g id="elem_Guerrero"><rect codeLine="1" fill="#F1F1F1" height="243.5625" id="Guerrero" rx="2.5" ry="2.5" style="stroke:#181818;stroke-width:0.5;" width="253" x="250.5" y="7"/><ellipse cx="340.75" cy="23" fill="#ADD1B2" rx="11" ry="11" style="stroke:#181818;stroke-width:1.0;"/><path d="M343.0938,18.6719 C342.1563,18.2344 341.5625,18.0938 340.6875,18.0938 C338.0625,18.0938 336.0625,20.1719 336.0625,22.8906 L336.0625,24.0156 C336.0625,26.5938 338.1719,28.4844 341.0625,28.4844 C342.2813,28.4844 343.4375,28.1875 344.1875,27.6406 C344.7656,27.2344 345.0938,26.7813 345.0938,26.3906 C345.0938,25.9375 344.7031,25.5469 344.2344,25.5469 C344.0156,25.5469 343.8125,25.625 343.625,25.8125 C343.1719,26.2969 343.1719,26.2969 342.9844,26.3906 C342.5625,26.6563 341.875,26.7813 341.1094,26.7813 C339.0625,26.7813 337.7656,25.6875 337.7656,23.9844 L337.7656,22.8906 C337.7656,21.1094 339.0156,19.7969 340.75,19.7969 C341.3281,19.7969 341.9375,19.9531 342.4063,20.2031 C342.8906,20.4844 343.0625,20.7031 343.1563,21.1094 C343.2188,21.5156 343.25,21.6406 343.3906,21.7656 C343.5313,21.9063 343.7656,22.0156 343.9844,22.0156 C344.25,22.0156 344.5156,21.875 344.6875,21.6563 C344.7969,21.5 344.8281,21.3125 344.8281,20.8906 L344.8281,19.4688 C344.8281,19.0313 344.8125,18.9063 344.7188,18.75 C344.5625,18.4844 344.2813,18.3438 343.9844,18.3438 C343.6875,18.3438 343.4844,18.4375 343.2656,18.75 L343.0938,18.6719 Z " fill="#000000"/><text fill="#000000" font-family="sans-serif" font-size="14" lengthAdjust="spacing" textLength="64" x="361.25" y="27.8467">Guerrero</text><line style="stroke:#181818;stroke-width:0.5;" x1="251.5" x2="502.5" y1="39" y2="39"/><rect fill="none" height="6" style="stroke:#C82930;stroke-width:1.0;" width="6" x="258.5" y="49.6484"/><text fill="#000000" font-family="sans-serif" font-size="14" lengthAdjust="spacing" textLength="108" x="270.5" y="55.9951">poder: int = 20</text><rect fill="none" height="6" style="stroke:#C82930;stroke-width:1.0;" width="6" x="258.5" y="65.9453"/><text fill="#000000" font-family="sans-serif" font-size="14" lengthAdjust="spacing" textLength="105" x="270.5" y="72.292">ataque: int = 2</text><rect fill="none" height="6" style="stroke:#C82930;stroke-width:1.0;" width="6" x="258.5" y="82.2422"/><text fill="#000000" font-family="sans-serif" font-size="14" lengthAdjust="spacing" textLength="223" x="270.5" y="88.5889">probExitoAtaque: double = 0.5</text><rect fill="none" height="6" style="stroke:#C82930;stroke-width:1.0;" width="6" x="258.5" y="98.5391"/><text fill="#000000" font-family="sans-serif" font-size="14" lengthAdjust="spacing" textLength="170" x="270.5" y="104.8857">energiaInicial: int = 150</text><rect fill="none" height="6" style="stroke:#C82930;stroke-width:1.0;" width="6" x="258.5" y="114.8359"/><text fill="#000000" font-family="sans-serif" font-size="14" lengthAdjust="spacing" textLength="92" x="270.5" y="121.1826">arma1: Arma</text><rect fill="none" height="6" style="stroke:#C82930;stroke-width:1.0;" width="6" x="258.5" y="131.1328"/><text fill="#000000" font-family="sans-serif" font-size="14" lengthAdjust="spacing" textLength="91" x="270.5" y="137.4795">arma2: Arma</text><rect fill="none" height="6" style="stroke:#C82930;stroke-width:1.0;" width="6" x="258.5" y="147.4297"/><text fill="#000000" font-family="sans-serif" font-size="14" lengthAdjust="spacing" textLength="92" x="270.5" y="153.7764">arma3: Arma</text><rect fill="none" height="6" style="stroke:#C82930;stroke-width:1.0;" width="6" x="258.5" y="163.7266"/><text fill="#000000" font-family="sans-serif" font-size="14" lengthAdjust="spacing" textLength="125" x="270.5" y="170.0732">defensa: Defensa</text><rect fill="none" height="6" style="stroke:#C82930;stroke-width:1.0;" width="6" x="258.5" y="180.0234"/><text fill="#000000" font-family="sans-serif" font-size="14" lengthAdjust="spacing" textLength="106" x="270.5" y="186.3701">pocion: Pocion</text><line style="stroke:#181818;stroke-width:0.5;" x1="251.5" x2="502.5" y1="193.6719" y2="193.6719"/><ellipse cx="261.5" cy="207.3203" fill="#84BE84" rx="3" ry="3" style="stroke:#038048;stroke-width:1.0;"/><text fill="#000000" font-family="sans-serif" font-size="14" lengthAdjust="spacing" textLength="227" x="270.5" y="210.667">batalla(vampiro: Vampiro): void</text><ellipse cx="261.5" cy="223.6172" fill="#84BE84" rx="3" ry="3" style="stroke:#038048;stroke-width:1.0;"/><text fill="#000000" font-family="sans-serif" font-size="14" lengthAdjust="spacing" textLength="131" x="270.5" y="226.9639">defenderse(): void</text><ellipse cx="261.5" cy="239.9141" fill="#84BE84" rx="3" ry="3" style="stroke:#038048;stroke-width:1.0;"/><text fill="#000000" font-family="sans-serif" font-size="14" lengthAdjust="spacing" textLength="141" x="270.5" y="243.2607">beberPocion(): void</text></g><!--class Vampiro--><g id="elem_Vampiro"><rect codeLine="16" fill="#F1F1F1" height="178.375" id="Vampiro" rx="2.5" ry="2.5" style="stroke:#181818;stroke-width:0.5;" width="259" x="616.5" y="40"/><ellipse cx="711.25" cy="56" fill="#ADD1B2" rx="11" ry="11" style="stroke:#181818;stroke-width:1.0;"/><path d="M713.5938,51.6719 C712.6563,51.2344 712.0625,51.0938 711.1875,51.0938 C708.5625,51.0938 706.5625,53.1719 706.5625,55.8906 L706.5625,57.0156 C706.5625,59.5938 708.6719,61.4844 711.5625,61.4844 C712.7813,61.4844 713.9375,61.1875 714.6875,60.6406 C715.2656,60.2344 715.5938,59.7813 715.5938,59.3906 C715.5938,58.9375 715.2031,58.5469 714.7344,58.5469 C714.5156,58.5469 714.3125,58.625 714.125,58.8125 C713.6719,59.2969 713.6719,59.2969 713.4844,59.3906 C713.0625,59.6563 712.375,59.7813 711.6094,59.7813 C709.5625,59.7813 708.2656,58.6875 708.2656,56.9844 L708.2656,55.8906 C708.2656,54.1094 709.5156,52.7969 711.25,52.7969 C711.8281,52.7969 712.4375,52.9531 712.9063,53.2031 C713.3906,53.4844 713.5625,53.7031 713.6563,54.1094 C713.7188,54.5156 713.75,54.6406 713.8906,54.7656 C714.0313,54.9063 714.2656,55.0156 714.4844,55.0156 C714.75,55.0156 715.0156,54.875 715.1875,54.6563 C715.2969,54.5 715.3281,54.3125 715.3281,53.8906 L715.3281,52.4688 C715.3281,52.0313 715.3125,51.9063 715.2188,51.75 C715.0625,51.4844 714.7813,51.3438 714.4844,51.3438 C714.1875,51.3438 713.9844,51.4375 713.7656,51.75 L713.5938,51.6719 Z " fill="#000000"/><text fill="#000000" font-family="sans-serif" font-size="14" lengthAdjust="spacing" textLength="61" x="731.75" y="60.8467">Vampiro</text><line style="stroke:#181818;stroke-width:0.5;" x1="617.5" x2="874.5" y1="72" y2="72"/><rect fill="none" height="6" style="stroke:#C82930;stroke-width:1.0;" width="6" x="624.5" y="82.6484"/><text fill="#000000" font-family="sans-serif" font-size="14" lengthAdjust="spacing" textLength="109" x="636.5" y="88.9951">poder: int = 10</text><rect fill="none" height="6" style="stroke:#C82930;stroke-width:1.0;" width="6" x="624.5" y="98.9453"/><text fill="#000000" font-family="sans-serif" font-size="14" lengthAdjust="spacing" textLength="105" x="636.5" y="105.292">ataque: int = 4</text><rect fill="none" height="6" style="stroke:#C82930;stroke-width:1.0;" width="6" x="624.5" y="115.2422"/><text fill="#000000" font-family="sans-serif" font-size="14" lengthAdjust="spacing" textLength="223" x="636.5" y="121.5889">probExitoAtaque: double = 0.5</text><rect fill="none" height="6" style="stroke:#C82930;stroke-width:1.0;" width="6" x="624.5" y="131.5391"/><text fill="#000000" font-family="sans-serif" font-size="14" lengthAdjust="spacing" textLength="161" x="636.5" y="137.8857">energiaInicial: int = 60</text><rect fill="none" height="6" style="stroke:#C82930;stroke-width:1.0;" width="6" x="624.5" y="147.8359"/><text fill="#000000" font-family="sans-serif" font-size="14" lengthAdjust="spacing" textLength="118" x="636.5" y="154.1826">ataque1: Ataque</text><rect fill="none" height="6" style="stroke:#C82930;stroke-width:1.0;" width="6" x="624.5" y="164.1328"/><text fill="#000000" font-family="sans-serif" font-size="14" lengthAdjust="spacing" textLength="117" x="636.5" y="170.4795">ataque2: Ataque</text><rect fill="none" height="6" style="stroke:#C82930;stroke-width:1.0;" width="6" x="624.5" y="180.4297"/><text fill="#000000" font-family="sans-serif" font-size="14" lengthAdjust="spacing" textLength="118" x="636.5" y="186.7764">ataque3: Ataque</text><line style="stroke:#181818;stroke-width:0.5;" x1="617.5" x2="874.5" y1="194.0781" y2="194.0781"/><ellipse cx="627.5" cy="207.7266" fill="#84BE84" rx="3" ry="3" style="stroke:#038048;stroke-width:1.0;"/><text fill="#000000" font-family="sans-serif" font-size="14" lengthAdjust="spacing" textLength="233" x="636.5" y="211.0732">batalla(guerrero: Guerrero): void</text></g><!--class Arma--><g id="elem_Arma"><rect codeLine="27" fill="#F1F1F1" height="80.5938" id="Arma" rx="2.5" ry="2.5" style="stroke:#181818;stroke-width:0.5;" width="156" x="7" y="311"/><ellipse cx="61.75" cy="327" fill="#ADD1B2" rx="11" ry="11" style="stroke:#181818;stroke-width:1.0;"/><path d="M64.0938,322.6719 C63.1563,322.2344 62.5625,322.0938 61.6875,322.0938 C59.0625,322.0938 57.0625,324.1719 57.0625,326.8906 L57.0625,328.0156 C57.0625,330.5938 59.1719,332.4844 62.0625,332.4844 C63.2813,332.4844 64.4375,332.1875 65.1875,331.6406 C65.7656,331.2344 66.0938,330.7813 66.0938,330.3906 C66.0938,329.9375 65.7031,329.5469 65.2344,329.5469 C65.0156,329.5469 64.8125,329.625 64.625,329.8125 C64.1719,330.2969 64.1719,330.2969 63.9844,330.3906 C63.5625,330.6563 62.875,330.7813 62.1094,330.7813 C60.0625,330.7813 58.7656,329.6875 58.7656,327.9844 L58.7656,326.8906 C58.7656,325.1094 60.0156,323.7969 61.75,323.7969 C62.3281,323.7969 62.9375,323.9531 63.4063,324.2031 C63.8906,324.4844 64.0625,324.7031 64.1563,325.1094 C64.2188,325.5156 64.25,325.6406 64.3906,325.7656 C64.5313,325.9063 64.7656,326.0156 64.9844,326.0156 C65.25,326.0156 65.5156,325.875 65.6875,325.6563 C65.7969,325.5 65.8281,325.3125 65.8281,324.8906 L65.8281,323.4688 C65.8281,323.0313 65.8125,322.9063 65.7188,322.75 C65.5625,322.4844 65.2813,322.3438 64.9844,322.3438 C64.6875,322.3438 64.4844,322.4375 64.2656,322.75 L64.0938,322.6719 Z " fill="#000000"/><text fill="#000000" font-family="sans-serif" font-size="14" lengthAdjust="spacing" textLength="38" x="82.25" y="331.8467">Arma</text><line style="stroke:#181818;stroke-width:0.5;" x1="8" x2="162" y1="343" y2="343"/><rect fill="none" height="6" style="stroke:#C82930;stroke-width:1.0;" width="6" x="15" y="353.6484"/><text fill="#000000" font-family="sans-serif" font-size="14" lengthAdjust="spacing" textLength="68" x="27" y="359.9951">danio: int</text><rect fill="none" height="6" style="stroke:#C82930;stroke-width:1.0;" width="6" x="15" y="369.9453"/><text fill="#000000" font-family="sans-serif" font-size="14" lengthAdjust="spacing" textLength="130" x="27" y="376.292">probExito: double</text><line style="stroke:#181818;stroke-width:0.5;" x1="8" x2="162" y1="383.5938" y2="383.5938"/></g><!--class Defensa--><g id="elem_Defensa"><rect codeLine="32" fill="#F1F1F1" height="80.5938" id="Defensa" rx="2.5" ry="2.5" style="stroke:#181818;stroke-width:0.5;" width="204" x="198" y="311"/><ellipse cx="266.25" cy="327" fill="#ADD1B2" rx="11" ry="11" style="stroke:#181818;stroke-width:1.0;"/><path d="M268.5938,322.6719 C267.6563,322.2344 267.0625,322.0938 266.1875,322.0938 C263.5625,322.0938 261.5625,324.1719 261.5625,326.8906 L261.5625,328.0156 C261.5625,330.5938 263.6719,332.4844 266.5625,332.4844 C267.7813,332.4844 268.9375,332.1875 269.6875,331.6406 C270.2656,331.2344 270.5938,330.7813 270.5938,330.3906 C270.5938,329.9375 270.2031,329.5469 269.7344,329.5469 C269.5156,329.5469 269.3125,329.625 269.125,329.8125 C268.6719,330.2969 268.6719,330.2969 268.4844,330.3906 C268.0625,330.6563 267.375,330.7813 266.6094,330.7813 C264.5625,330.7813 263.2656,329.6875 263.2656,327.9844 L263.2656,326.8906 C263.2656,325.1094 264.5156,323.7969 266.25,323.7969 C266.8281,323.7969 267.4375,323.9531 267.9063,324.2031 C268.3906,324.4844 268.5625,324.7031 268.6563,325.1094 C268.7188,325.5156 268.75,325.6406 268.8906,325.7656 C269.0313,325.9063 269.2656,326.0156 269.4844,326.0156 C269.75,326.0156 270.0156,325.875 270.1875,325.6563 C270.2969,325.5 270.3281,325.3125 270.3281,324.8906 L270.3281,323.4688 C270.3281,323.0313 270.3125,322.9063 270.2188,322.75 C270.0625,322.4844 269.7813,322.3438 269.4844,322.3438 C269.1875,322.3438 268.9844,322.4375 268.7656,322.75 L268.5938,322.6719 Z " fill="#000000"/><text fill="#000000" font-family="sans-serif" font-size="14" lengthAdjust="spacing" textLength="59" x="286.75" y="331.8467">Defensa</text><line style="stroke:#181818;stroke-width:0.5;" x1="199" x2="401" y1="343" y2="343"/><rect fill="none" height="6" style="stroke:#C82930;stroke-width:1.0;" width="6" x="206" y="353.6484"/><text fill="#000000" font-family="sans-serif" font-size="14" lengthAdjust="spacing" textLength="171" x="218" y="359.9951">probExito: double = 0.8</text><rect fill="none" height="6" style="stroke:#C82930;stroke-width:1.0;" width="6" x="206" y="369.9453"/><text fill="#000000" font-family="sans-serif" font-size="14" lengthAdjust="spacing" textLength="178" x="218" y="376.292">reduccionAtaque: int = 5</text><line style="stroke:#181818;stroke-width:0.5;" x1="199" x2="401" y1="383.5938" y2="383.5938"/></g><!--class Pocion--><g id="elem_Pocion"><rect codeLine="37" fill="#F1F1F1" height="80.5938" id="Pocion" rx="2.5" ry="2.5" style="stroke:#181818;stroke-width:0.5;" width="195" x="437.5" y="311"/><ellipse cx="506.75" cy="327" fill="#ADD1B2" rx="11" ry="11" style="stroke:#181818;stroke-width:1.0;"/><path d="M509.0938,322.6719 C508.1563,322.2344 507.5625,322.0938 506.6875,322.0938 C504.0625,322.0938 502.0625,324.1719 502.0625,326.8906 L502.0625,328.0156 C502.0625,330.5938 504.1719,332.4844 507.0625,332.4844 C508.2813,332.4844 509.4375,332.1875 510.1875,331.6406 C510.7656,331.2344 511.0938,330.7813 511.0938,330.3906 C511.0938,329.9375 510.7031,329.5469 510.2344,329.5469 C510.0156,329.5469 509.8125,329.625 509.625,329.8125 C509.1719,330.2969 509.1719,330.2969 508.9844,330.3906 C508.5625,330.6563 507.875,330.7813 507.1094,330.7813 C505.0625,330.7813 503.7656,329.6875 503.7656,327.9844 L503.7656,326.8906 C503.7656,325.1094 505.0156,323.7969 506.75,323.7969 C507.3281,323.7969 507.9375,323.9531 508.4063,324.2031 C508.8906,324.4844 509.0625,324.7031 509.1563,325.1094 C509.2188,325.5156 509.25,325.6406 509.3906,325.7656 C509.5313,325.9063 509.7656,326.0156 509.9844,326.0156 C510.25,326.0156 510.5156,325.875 510.6875,325.6563 C510.7969,325.5 510.8281,325.3125 510.8281,324.8906 L510.8281,323.4688 C510.8281,323.0313 510.8125,322.9063 510.7188,322.75 C510.5625,322.4844 510.2813,322.3438 509.9844,322.3438 C509.6875,322.3438 509.4844,322.4375 509.2656,322.75 L509.0938,322.6719 Z " fill="#000000"/><text fill="#000000" font-family="sans-serif" font-size="14" lengthAdjust="spacing" textLength="48" x="527.25" y="331.8467">Pocion</text><line style="stroke:#181818;stroke-width:0.5;" x1="438.5" x2="631.5" y1="343" y2="343"/><rect fill="none" height="6" style="stroke:#C82930;stroke-width:1.0;" width="6" x="445.5" y="353.6484"/><text fill="#000000" font-family="sans-serif" font-size="14" lengthAdjust="spacing" textLength="152" x="457.5" y="359.9951">turnosEspera: int = 3</text><rect fill="none" height="6" style="stroke:#C82930;stroke-width:1.0;" width="6" x="445.5" y="369.9453"/><text fill="#000000" font-family="sans-serif" font-size="14" lengthAdjust="spacing" textLength="169" x="457.5" y="376.292">recuperacion: int = 150</text><line style="stroke:#181818;stroke-width:0.5;" x1="438.5" x2="631.5" y1="383.5938" y2="383.5938"/></g><!--class Ataque--><g id="elem_Ataque"><rect codeLine="42" fill="#F1F1F1" height="80.5938" id="Ataque" rx="2.5" ry="2.5" style="stroke:#181818;stroke-width:0.5;" width="156" x="668" y="311"/><ellipse cx="716.25" cy="327" fill="#ADD1B2" rx="11" ry="11" style="stroke:#181818;stroke-width:1.0;"/><path d="M718.5938,322.6719 C717.6563,322.2344 717.0625,322.0938 716.1875,322.0938 C713.5625,322.0938 711.5625,324.1719 711.5625,326.8906 L711.5625,328.0156 C711.5625,330.5938 713.6719,332.4844 716.5625,332.4844 C717.7813,332.4844 718.9375,332.1875 719.6875,331.6406 C720.2656,331.2344 720.5938,330.7813 720.5938,330.3906 C720.5938,329.9375 720.2031,329.5469 719.7344,329.5469 C719.5156,329.5469 719.3125,329.625 719.125,329.8125 C718.6719,330.2969 718.6719,330.2969 718.4844,330.3906 C718.0625,330.6563 717.375,330.7813 716.6094,330.7813 C714.5625,330.7813 713.2656,329.6875 713.2656,327.9844 L713.2656,326.8906 C713.2656,325.1094 714.5156,323.7969 716.25,323.7969 C716.8281,323.7969 717.4375,323.9531 717.9063,324.2031 C718.3906,324.4844 718.5625,324.7031 718.6563,325.1094 C718.7188,325.5156 718.75,325.6406 718.8906,325.7656 C719.0313,325.9063 719.2656,326.0156 719.4844,326.0156 C719.75,326.0156 720.0156,325.875 720.1875,325.6563 C720.2969,325.5 720.3281,325.3125 720.3281,324.8906 L720.3281,323.4688 C720.3281,323.0313 720.3125,322.9063 720.2188,322.75 C720.0625,322.4844 719.7813,322.3438 719.4844,322.3438 C719.1875,322.3438 718.9844,322.4375 718.7656,322.75 L718.5938,322.6719 Z " fill="#000000"/><text fill="#000000" font-family="sans-serif" font-size="14" lengthAdjust="spacing" textLength="51" x="736.75" y="331.8467">Ataque</text><line style="stroke:#181818;stroke-width:0.5;" x1="669" x2="823" y1="343" y2="343"/><rect fill="none" height="6" style="stroke:#C82930;stroke-width:1.0;" width="6" x="676" y="353.6484"/><text fill="#000000" font-family="sans-serif" font-size="14" lengthAdjust="spacing" textLength="68" x="688" y="359.9951">danio: int</text><rect fill="none" height="6" style="stroke:#C82930;stroke-width:1.0;" width="6" x="676" y="369.9453"/><text fill="#000000" font-family="sans-serif" font-size="14" lengthAdjust="spacing" textLength="130" x="688" y="376.292">probExito: double</text><line style="stroke:#181818;stroke-width:0.5;" x1="669" x2="823" y1="383.5938" y2="383.5938"/></g><!--link Guerrero to Arma--><g id="link_Guerrero_Arma"><path codeLine="47" d="M250.198,225.753 C210.489,255.738 183.2165,276.3328 151.6775,300.1493 " fill="none" id="Guerrero-to-Arma" style="stroke:#181818;stroke-width:1.0;"/><polygon fill="none" points="137.313,310.9965,155.2932,304.9374,148.0617,295.3611,137.313,310.9965" style="stroke:#181818;stroke-width:1.0;"/></g><!--link Guerrero to Defensa--><g id="link_Guerrero_Defensa"><path codeLine="48" d="M334.671,251.216 C327.122,272.832 325.7057,276.8857 319.7307,293.9977 " fill="none" id="Guerrero-to-Defensa" style="stroke:#181818;stroke-width:1.0;"/><polygon fill="none" points="313.797,310.9915,325.3954,295.9756,314.0661,292.0197,313.797,310.9915" style="stroke:#181818;stroke-width:1.0;"/></g><!--link Guerrero to Pocion--><g id="link_Guerrero_Pocion"><path codeLine="49" d="M463.858,251.216 C479.346,272.832 483.9436,279.2481 496.2056,296.3601 " fill="none" id="Guerrero-to-Pocion" style="stroke:#181818;stroke-width:1.0;"/><polygon fill="none" points="506.69,310.9915,501.0827,292.8653,491.3284,299.855,506.69,310.9915" style="stroke:#181818;stroke-width:1.0;"/></g><!--link Guerrero to Ataque--><g id="link_Guerrero_Ataque"><path codeLine="50" d="M503.731,205.729 C562.959,241.122 615.5705,272.5608 664.4435,301.7653 " fill="none" id="Guerrero-to-Ataque" style="stroke:#181818;stroke-width:1.0;"/><polygon fill="none" points="679.895,310.9985,667.5212,296.6148,661.3658,306.9158,679.895,310.9985" style="stroke:#181818;stroke-width:1.0;"/></g><!--link Vampiro to Ataque--><g id="link_Vampiro_Ataque"><path codeLine="52" d="M746,218.098 C746,250.246 746,267.016 746,292.8542 " fill="none" id="Vampiro-to-Ataque" style="stroke:#181818;stroke-width:1.0;"/><polygon fill="none" points="746,310.8542,752,292.8542,740,292.8542,746,310.8542" style="stroke:#181818;stroke-width:1.0;"/></g><!--SRC=[fL9DIyGm4BttLynnHIhRree450ekuisJzxGPbq0tgKcp2Ef_jyr7czPUP4-PUJFpClDccfPg3Sy6bK8buIi1IA6J31K1BdfuW7nlCThJ3uCJwFAKh0-Vl9UL3p9fwXQ7-Fwcj1aeK1qvVH6yuRGDrLdfETM9PWIguPdyVEKNaS_m7OMc19wSuPjjk1G4NkqxGDTG3yssBTsTwQdZIX9uSyOLWRFapEPOhc5CZRiOhh56vQWc_2T96YkJfzbIATjIwVOYbUvYob4cQqHOle4L4JOBSVJx9TEc_ymsYkm7OrHmQRjOzXywduly7e8WwqGxuhsDAMIc6LMj5WgLCvSJtLFrHWcf3xf3HKDkuOaQCw9kwVCzpOFO3_unodJyQVhzw8vj2OLhMwB-tbRLJliaN4e4_W80]--></g></svg>