<?xml version="1.0" encoding="us-ascii" standalone="no"?><svg xmlns="http://www.w3.org/2000/svg" xmlns:xlink="http://www.w3.org/1999/xlink" contentStyleType="text/css" height="398px" preserveAspectRatio="none" style="width:708px;height:398px;background:#FFFFFF;" version="1.1" viewBox="0 0 708 398" width="708px" zoomAndPan="magnify"><defs/><g><!--class Guerrero--><g id="elem_Guerrero"><rect codeLine="1" fill="#F1F1F1" height="243.5625" id="Guerrero" rx="2.5" ry="2.5" style="stroke:#181818;stroke-width:0.5;" width="253" x="154.5" y="7"/><ellipse cx="244.75" cy="23" fill="#ADD1B2" rx="11" ry="11" style="stroke:#181818;stroke-width:1.0;"/><path d="M247.0938,18.6719 C246.1563,18.2344 245.5625,18.0938 244.6875,18.0938 C242.0625,18.0938 240.0625,20.1719 240.0625,22.8906 L240.0625,24.0156 C240.0625,26.5938 242.1719,28.4844 245.0625,28.4844 C246.2813,28.4844 247.4375,28.1875 248.1875,27.6406 C248.7656,27.2344 249.0938,26.7813 249.0938,26.3906 C249.0938,25.9375 248.7031,25.5469 248.2344,25.5469 C248.0156,25.5469 247.8125,25.625 247.625,25.8125 C247.1719,26.2969 247.1719,26.2969 246.9844,26.3906 C246.5625,26.6563 245.875,26.7813 245.1094,26.7813 C243.0625,26.7813 241.7656,25.6875 241.7656,23.9844 L241.7656,22.8906 C241.7656,21.1094 243.0156,19.7969 244.75,19.7969 C245.3281,19.7969 245.9375,19.9531 246.4063,20.2031 C246.8906,20.4844 247.0625,20.7031 247.1563,21.1094 C247.2188,21.5156 247.25,21.6406 247.3906,21.7656 C247.5313,21.9063 247.7656,22.0156 247.9844,22.0156 C248.25,22.0156 248.5156,21.875 248.6875,21.6563 C248.7969,21.5 248.8281,21.3125 248.8281,20.8906 L248.8281,19.4688 C248.8281,19.0313 248.8125,18.9063 248.7188,18.75 C248.5625,18.4844 248.2813,18.3438 247.9844,18.3438 C247.6875,18.3438 247.4844,18.4375 247.2656,18.75 L247.0938,18.6719 Z " fill="#000000"/><text fill="#000000" font-family="sans-serif" font-size="14" lengthAdjust="spacing" textLength="64" x="265.25" y="27.8467">Guerrero</text><line style="stroke:#181818;stroke-width:0.5;" x1="155.5" x2="406.5" y1="39" y2="39"/><rect fill="none" height="6" style="stroke:#C82930;stroke-width:1.0;" width="6" x="162.5" y="49.6484"/><text fill="#000000" font-family="sans-serif" font-size="14" lengthAdjust="spacing" textLength="108" x="174.5" y="55.9951">poder: int = 20</text><rect fill="none" height="6" style="stroke:#C82930;stroke-width:1.0;" width="6" x="162.5" y="65.9453"/><text fill="#000000" font-family="sans-serif" font-size="14" lengthAdjust="spacing" textLength="105" x="174.5" y="72.292">ataque: int = 2</text><rect fill="none" height="6" style="stroke:#C82930;stroke-width:1.0;" width="6" x="162.5" y="82.2422"/><text fill="#000000" font-family="sans-serif" font-size="14" lengthAdjust="spacing" textLength="223" x="174.5" y="88.5889">probExitoAtaque: double = 0.5</text><rect fill="none" height="6" style="stroke:#C82930;stroke-width:1.0;" width="6" x="162.5" y="98.5391"/><text fill="#000000" font-family="sans-serif" font-size="14" lengthAdjust="spacing" textLength="170" x="174.5" y="104.8857">energiaInicial: int = 150</text><rect fill="none" height="6" style="stroke:#C82930;stroke-width:1.0;" width="6" x="162.5" y="114.8359"/><text fill="#000000" font-family="sans-serif" font-size="14" lengthAdjust="spacing" textLength="92" x="174.5" y="121.1826">arma1: Arma</text><rect fill="none" height="6" style="stroke:#C82930;stroke-width:1.0;" width="6" x="162.5" y="131.1328"/><text fill="#000000" font-family="sans-serif" font-size="14" lengthAdjust="spacing" textLength="91" x="174.5" y="137.4795">arma2: Arma</text><rect fill="none" height="6" style="stroke:#C82930;stroke-width:1.0;" width="6" x="162.5" y="147.4297"/><text fill="#000000" font-family="sans-serif" font-size="14" lengthAdjust="spacing" textLength="92" x="174.5" y="153.7764">arma3: Arma</text><rect fill="none" height="6" style="stroke:#C82930;stroke-width:1.0;" width="6" x="162.5" y="163.7266"/><text fill="#000000" font-family="sans-serif" font-size="14" lengthAdjust="spacing" textLength="125" x="174.5" y="170.0732">defensa: Defensa</text><rect fill="none" height="6" style="stroke:#C82930;stroke-width:1.0;" width="6" x="162.5" y="180.0234"/><text fill="#000000" font-family="sans-serif" font-size="14" lengthAdjust="spacing" textLength="106" x="174.5" y="186.3701">pocion: Pocion</text><line style="stroke:#181818;stroke-width:0.5;" x1="155.5" x2="406.5" y1="193.6719" y2="193.6719"/><ellipse cx="165.5" cy="207.3203" fill="#84BE84" rx="3" ry="3" style="stroke:#038048;stroke-width:1.0;"/><text fill="#000000" font-family="sans-serif" font-size="14" lengthAdjust="spacing" textLength="227" x="174.5" y="210.667">batalla(vampiro: Vampiro): void</text><ellipse cx="165.5" cy="223.6172" fill="#84BE84" rx="3" ry="3" style="stroke:#038048;stroke-width:1.0;"/><text fill="#000000" font-family="sans-serif" font-size="14" lengthAdjust="spacing" textLength="131" x="174.5" y="226.9639">defenderse(): void</text><ellipse cx="165.5" cy="239.9141" fill="#84BE84" rx="3" ry="3" style="stroke:#038048;stroke-width:1.0;"/><text fill="#000000" font-family="sans-serif" font-size="14" lengthAdjust="spacing" textLength="141" x="174.5" y="243.2607">beberPocion(): void</text></g><!--class Vampiro--><g id="elem_Vampiro"><rect codeLine="16" fill="#F1F1F1" height="178.375" id="Vampiro" rx="2.5" ry="2.5" style="stroke:#181818;stroke-width:0.5;" width="259" x="442.5" y="40"/><ellipse cx="537.25" cy="56" fill="#ADD1B2" rx="11" ry="11" style="stroke:#181818;stroke-width:1.0;"/><path d="M539.5938,51.6719 C538.6563,51.2344 538.0625,51.0938 537.1875,51.0938 C534.5625,51.0938 532.5625,53.1719 532.5625,55.8906 L532.5625,57.0156 C532.5625,59.5938 534.6719,61.4844 537.5625,61.4844 C538.7813,61.4844 539.9375,61.1875 540.6875,60.6406 C541.2656,60.2344 541.5938,59.7813 541.5938,59.3906 C541.5938,58.9375 541.2031,58.5469 540.7344,58.5469 C540.5156,58.5469 540.3125,58.625 540.125,58.8125 C539.6719,59.2969 539.6719,59.2969 539.4844,59.3906 C539.0625,59.6563 538.375,59.7813 537.6094,59.7813 C535.5625,59.7813 534.2656,58.6875 534.2656,56.9844 L534.2656,55.8906 C534.2656,54.1094 535.5156,52.7969 537.25,52.7969 C537.8281,52.7969 538.4375,52.9531 538.9063,53.2031 C539.3906,53.4844 539.5625,53.7031 539.6563,54.1094 C539.7188,54.5156 539.75,54.6406 539.8906,54.7656 C540.0313,54.9063 540.2656,55.0156 540.4844,55.0156 C540.75,55.0156 541.0156,54.875 541.1875,54.6563 C541.2969,54.5 541.3281,54.3125 541.3281,53.8906 L541.3281,52.4688 C541.3281,52.0313 541.3125,51.9063 541.2188,51.75 C541.0625,51.4844 540.7813,51.3438 540.4844,51.3438 C540.1875,51.3438 539.9844,51.4375 539.7656,51.75 L539.5938,51.6719 Z " fill="#000000"/><text fill="#000000" font-family="sans-serif" font-size="14" lengthAdjust="spacing" textLength="61" x="557.75" y="60.8467">Vampiro</text><line style="stroke:#181818;stroke-width:0.5;" x1="443.5" x2="700.5" y1="72" y2="72"/><rect fill="none" height="6" style="stroke:#C82930;stroke-width:1.0;" width="6" x="450.5" y="82.6484"/><text fill="#000000" font-family="sans-serif" font-size="14" lengthAdjust="spacing" textLength="109" x="462.5" y="88.9951">poder: int = 10</text><rect fill="none" height="6" style="stroke:#C82930;stroke-width:1.0;" width="6" x="450.5" y="98.9453"/><text fill="#000000" font-family="sans-serif" font-size="14" lengthAdjust="spacing" textLength="105" x="462.5" y="105.292">ataque: int = 4</text><rect fill="none" height="6" style="stroke:#C82930;stroke-width:1.0;" width="6" x="450.5" y="115.2422"/><text fill="#000000" font-family="sans-serif" font-size="14" lengthAdjust="spacing" textLength="223" x="462.5" y="121.5889">probExitoAtaque: double = 0.5</text><rect fill="none" height="6" style="stroke:#C82930;stroke-width:1.0;" width="6" x="450.5" y="131.5391"/><text fill="#000000" font-family="sans-serif" font-size="14" lengthAdjust="spacing" textLength="161" x="462.5" y="137.8857">energiaInicial: int = 60</text><rect fill="none" height="6" style="stroke:#C82930;stroke-width:1.0;" width="6" x="450.5" y="147.8359"/><text fill="#000000" font-family="sans-serif" font-size="14" lengthAdjust="spacing" textLength="118" x="462.5" y="154.1826">ataque1: Ataque</text><rect fill="none" height="6" style="stroke:#C82930;stroke-width:1.0;" width="6" x="450.5" y="164.1328"/><text fill="#000000" font-family="sans-serif" font-size="14" lengthAdjust="spacing" textLength="117" x="462.5" y="170.4795">ataque2: Ataque</text><rect fill="none" height="6" style="stroke:#C82930;stroke-width:1.0;" width="6" x="450.5" y="180.4297"/><text fill="#000000" font-family="sans-serif" font-size="14" lengthAdjust="spacing" textLength="118" x="462.5" y="186.7764">ataque3: Ataque</text><line style="stroke:#181818;stroke-width:0.5;" x1="443.5" x2="700.5" y1="194.0781" y2="194.0781"/><ellipse cx="453.5" cy="207.7266" fill="#84BE84" rx="3" ry="3" style="stroke:#038048;stroke-width:1.0;"/><text fill="#000000" font-family="sans-serif" font-size="14" lengthAdjust="spacing" textLength="233" x="462.5" y="211.0732">batalla(guerrero: Guerrero): void</text></g><!--class Arma--><g id="elem_Arma"><rect codeLine="27" fill="#F1F1F1" height="80.5938" id="Arma" rx="2.5" ry="2.5" style="stroke:#181818;stroke-width:0.5;" width="156" x="7" y="311"/><ellipse cx="61.75" cy="327" fill="#ADD1B2" rx="11" ry="11" style="stroke:#181818;stroke-width:1.0;"/><path d="M64.0938,322.6719 C63.1563,322.2344 62.5625,322.0938 61.6875,322.0938 C59.0625,322.0938 57.0625,324.1719 57.0625,326.8906 L57.0625,328.0156 C57.0625,330.5938 59.1719,332.4844 62.0625,332.4844 C63.2813,332.4844 64.4375,332.1875 65.1875,331.6406 C65.7656,331.2344 66.0938,330.7813 66.0938,330.3906 C66.0938,329.9375 65.7031,329.5469 65.2344,329.5469 C65.0156,329.5469 64.8125,329.625 64.625,329.8125 C64.1719,330.2969 64.1719,330.2969 63.9844,330.3906 C63.5625,330.6563 62.875,330.7813 62.1094,330.7813 C60.0625,330.7813 58.7656,329.6875 58.7656,327.9844 L58.7656,326.8906 C58.7656,325.1094 60.0156,323.7969 61.75,323.7969 C62.3281,323.7969 62.9375,323.9531 63.4063,324.2031 C63.8906,324.4844 64.0625,324.7031 64.1563,325.1094 C64.2188,325.5156 64.25,325.6406 64.3906,325.7656 C64.5313,325.9063 64.7656,326.0156 64.9844,326.0156 C65.25,326.0156 65.5156,325.875 65.6875,325.6563 C65.7969,325.5 65.8281,325.3125 65.8281,324.8906 L65.8281,323.4688 C65.8281,323.0313 65.8125,322.9063 65.7188,322.75 C65.5625,322.4844 65.2813,322.3438 64.9844,322.3438 C64.6875,322.3438 64.4844,322.4375 64.2656,322.75 L64.0938,322.6719 Z " fill="#000000"/><text fill="#000000" font-family="sans-serif" font-size="14" lengthAdjust="spacing" textLength="38" x="82.25" y="331.8467">Arma</text><line style="stroke:#181818;stroke-width:0.5;" x1="8" x2="162" y1="343" y2="343"/><rect fill="none" height="6" style="stroke:#C82930;stroke-width:1.0;" width="6" x="15" y="353.6484"/><text fill="#000000" font-family="sans-serif" font-size="14" lengthAdjust="spacing" textLength="68" x="27" y="359.9951">danio: int</text><rect fill="none" height="6" style="stroke:#C82930;stroke-width:1.0;" width="6" x="15" y="369.9453"/><text fill="#000000" font-family="sans-serif" font-size="14" lengthAdjust="spacing" textLength="130" x="27" y="376.292">probExito: double</text><line style="stroke:#181818;stroke-width:0.5;" x1="8" x2="162" y1="383.5938" y2="383.5938"/></g><!--class Defensa--><g id="elem_Defensa"><rect codeLine="32" fill="#F1F1F1" height="80.5938" id="Defensa" rx="2.5" ry="2.5" style="stroke:#181818;stroke-width:0.5;" width="204" x="198" y="311"/><ellipse cx="266.25" cy="327" fill="#ADD1B2" rx="11" ry="11" style="stroke:#181818;stroke-width:1.0;"/><path d="M268.5938,322.6719 C267.6563,322.2344 267.0625,322.0938 266.1875,322.0938 C263.5625,322.0938 261.5625,324.1719 261.5625,326.8906 L261.5625,328.0156 C261.5625,330.5938 263.6719,332.4844 266.5625,332.4844 C267.7813,332.4844 268.9375,332.1875 269.6875,331.6406 C270.2656,331.2344 270.5938,330.7813 270.5938,330.3906 C270.5938,329.9375 270.2031,329.5469 269.7344,329.5469 C269.5156,329.5469 269.3125,329.625 269.125,329.8125 C268.6719,330.2969 268.6719,330.2969 268.4844,330.3906 C268.0625,330.6563 267.375,330.7813 266.6094,330.7813 C264.5625,330.7813 263.2656,329.6875 263.2656,327.9844 L263.2656,326.8906 C263.2656,325.1094 264.5156,323.7969 266.25,323.7969 C266.8281,323.7969 267.4375,323.9531 267.9063,324.2031 C268.3906,324.4844 268.5625,324.7031 268.6563,325.1094 C268.7188,325.5156 268.75,325.6406 268.8906,325.7656 C269.0313,325.9063 269.2656,326.0156 269.4844,326.0156 C269.75,326.0156 270.0156,325.875 270.1875,325.6563 C270.2969,325.5 270.3281,325.3125 270.3281,324.8906 L270.3281,323.4688 C270.3281,323.0313 270.3125,322.9063 270.2188,322.75 C270.0625,322.4844 269.7813,322.3438 269.4844,322.3438 C269.1875,322.3438 268.9844,322.4375 268.7656,322.75 L268.5938,322.6719 Z " fill="#000000"/><text fill="#000000" font-family="sans-serif" font-size="14" lengthAdjust="spacing" textLength="59" x="286.75" y="331.8467">Defensa</text><line style="stroke:#181818;stroke-width:0.5;" x1="199" x2="401" y1="343" y2="343"/><rect fill="none" height="6" style="stroke:#C82930;stroke-width:1.0;" width="6" x="206" y="353.6484"/><text fill="#000000" font-family="sans-serif" font-size="14" lengthAdjust="spacing" textLength="171" x="218" y="359.9951">probExito: double = 0.8</text><rect fill="none" height="6" style="stroke:#C82930;stroke-width:1.0;" width="6" x="206" y="369.9453"/><text fill="#000000" font-family="sans-serif" font-size="14" lengthAdjust="spacing" textLength="178" x="218" y="376.292">reduccionAtaque: int = 5</text><line style="stroke:#181818;stroke-width:0.5;" x1="199" x2="401" y1="383.5938" y2="383.5938"/></g><!--class Ataque--><g id="elem_Ataque"><rect codeLine="37" fill="#F1F1F1" height="80.5938" id="Ataque" rx="2.5" ry="2.5" style="stroke:#181818;stroke-width:0.5;" width="156" x="456" y="311"/><ellipse cx="504.25" cy="327" fill="#ADD1B2" rx="11" ry="11" style="stroke:#181818;stroke-width:1.0;"/><path d="M506.5938,322.6719 C505.6563,322.2344 505.0625,322.0938 504.1875,322.0938 C501.5625,322.0938 499.5625,324.1719 499.5625,326.8906 L499.5625,328.0156 C499.5625,330.5938 501.6719,332.4844 504.5625,332.4844 C505.7813,332.4844 506.9375,332.1875 507.6875,331.6406 C508.2656,331.2344 508.5938,330.7813 508.5938,330.3906 C508.5938,329.9375 508.2031,329.5469 507.7344,329.5469 C507.5156,329.5469 507.3125,329.625 507.125,329.8125 C506.6719,330.2969 506.6719,330.2969 506.4844,330.3906 C506.0625,330.6563 505.375,330.7813 504.6094,330.7813 C502.5625,330.7813 501.2656,329.6875 501.2656,327.9844 L501.2656,326.8906 C501.2656,325.1094 502.5156,323.7969 504.25,323.7969 C504.8281,323.7969 505.4375,323.9531 505.9063,324.2031 C506.3906,324.4844 506.5625,324.7031 506.6563,325.1094 C506.7188,325.5156 506.75,325.6406 506.8906,325.7656 C507.0313,325.9063 507.2656,326.0156 507.4844,326.0156 C507.75,326.0156 508.0156,325.875 508.1875,325.6563 C508.2969,325.5 508.3281,325.3125 508.3281,324.8906 L508.3281,323.4688 C508.3281,323.0313 508.3125,322.9063 508.2188,322.75 C508.0625,322.4844 507.7813,322.3438 507.4844,322.3438 C507.1875,322.3438 506.9844,322.4375 506.7656,322.75 L506.5938,322.6719 Z " fill="#000000"/><text fill="#000000" font-family="sans-serif" font-size="14" lengthAdjust="spacing" textLength="51" x="524.75" y="331.8467">Ataque</text><line style="stroke:#181818;stroke-width:0.5;" x1="457" x2="611" y1="343" y2="343"/><rect fill="none" height="6" style="stroke:#C82930;stroke-width:1.0;" width="6" x="464" y="353.6484"/><text fill="#000000" font-family="sans-serif" font-size="14" lengthAdjust="spacing" textLength="68" x="476" y="359.9951">danio: int</text><rect fill="none" height="6" style="stroke:#C82930;stroke-width:1.0;" width="6" x="464" y="369.9453"/><text fill="#000000" font-family="sans-serif" font-size="14" lengthAdjust="spacing" textLength="130" x="476" y="376.292">probExito: double</text><line style="stroke:#181818;stroke-width:0.5;" x1="457" x2="611" y1="383.5938" y2="383.5938"/></g><!--link Guerrero to Arma--><g id="link_Guerrero_Arma"><path codeLine="42" d="M173.253,251.216 C154.039,272.832 147.2873,280.4259 132.0773,297.5379 " fill="none" id="Guerrero-to-Arma" style="stroke:#181818;stroke-width:1.0;"/><polygon fill="none" points="120.119,310.9915,136.5618,301.524,127.5927,293.5518,120.119,310.9915" style="stroke:#181818;stroke-width:1.0;"/></g><!--link Guerrero to Defensa--><g id="link_Guerrero_Defensa"><path codeLine="43" d="M291.445,251.216 C293.307,272.832 293.5752,275.946 295.0502,293.058 " fill="none" id="Guerrero-to-Defensa" style="stroke:#181818;stroke-width:1.0;"/><polygon fill="none" points="296.596,310.9915,301.028,292.5427,289.0724,293.5733,296.596,310.9915" style="stroke:#181818;stroke-width:1.0;"/></g><!--link Guerrero to Ataque--><g id="link_Guerrero_Ataque"><path codeLine="44" d="M407.871,240.573 C436.845,265.825 452.2235,279.2274 475.0655,299.1356 " fill="none" id="Guerrero-to-Ataque" style="stroke:#181818;stroke-width:1.0;"/><polygon fill="none" points="488.635,310.9622,479.0077,294.6124,471.1233,303.6587,488.635,310.9622" style="stroke:#181818;stroke-width:1.0;"/></g><!--link Vampiro to Ataque--><g id="link_Vampiro_Ataque"><path codeLine="46" d="M556.818,218.098 C551.277,250.246 548.3421,267.2775 543.8891,293.1157 " fill="none" id="Vampiro-to-Ataque" style="stroke:#181818;stroke-width:1.0;"/><polygon fill="none" points="540.832,310.8542,549.8019,294.1347,537.9763,292.0967,540.832,310.8542" style="stroke:#181818;stroke-width:1.0;"/></g><!--SRC=[fL9DIyGm4BttLynnHIhRhXK9A1GKyUR9UzACIw2Rh6cx2Ef_jvryR5fx4K-PUJDvl7apJSkx3fu6j1QjWSyC88UZaMWPADt37PHRmdZFtmUCeEkpHZn-gDxKlYZD85eSwzkhYZfGezqh_gnLetWRVXULvxG7NZ2enoVcvIBV9Rd4DzGTP_3W0Y-sKKOpUA5tX2v1Z6BRbczE_71KrZ1uTS45WvDHadg8QnopmqqA2nHe7LN4lxEi8PiypPfBnPfBr_zowIQbd6oY8C7A5MoNO6SZzdw_B6xwrsoJoNumoRKof6AkFoW_V_9x28Oi6sd4MwfPb4CpkLhF7AeI0LJuWuHuj7d-TU-EP0w5AraqEdkoiCm4_040]--></g></svg>