<?xml version="1.0" encoding="us-ascii" standalone="no"?><svg xmlns="http://www.w3.org/2000/svg" xmlns:xlink="http://www.w3.org/1999/xlink" contentStyleType="text/css" height="1081px" preserveAspectRatio="none" style="width:1586px;height:1081px;background:#FFFFFF;" version="1.1" viewBox="0 0 1586 1081" width="1586px" zoomAndPan="magnify"><defs/><g><ellipse cx="1110.437" cy="16" fill="#222222" rx="10" ry="10" style="stroke:#222222;stroke-width:1.0;"/><g id="Inicio"><rect fill="#F1F1F1" height="50" rx="12.5" ry="12.5" style="stroke:#181818;stroke-width:0.5;" width="58" x="1081.437" y="103"/><line style="stroke:#181818;stroke-width:0.5;" x1="1081.437" x2="1139.437" y1="129.2969" y2="129.2969"/><text fill="#000000" font-family="sans-serif" font-size="14" lengthAdjust="spacing" textLength="38" x="1091.437" y="120.9951">Inicio</text></g><g id="SeleccionArma"><rect fill="#F1F1F1" height="50" rx="12.5" ry="12.5" style="stroke:#181818;stroke-width:0.5;" width="127" x="659.941" y="230"/><line style="stroke:#181818;stroke-width:0.5;" x1="659.941" x2="786.941" y1="256.2969" y2="256.2969"/><text fill="#000000" font-family="sans-serif" font-size="14" lengthAdjust="spacing" textLength="107" x="669.941" y="247.9951">SeleccionArma</text></g><g id="AtaqueVampiro"><rect fill="#F1F1F1" height="50" rx="12.5" ry="12.5" style="stroke:#181818;stroke-width:0.5;" width="132" x="1066.437" y="771"/><line style="stroke:#181818;stroke-width:0.5;" x1="1066.437" x2="1198.437" y1="797.2969" y2="797.2969"/><text fill="#000000" font-family="sans-serif" font-size="14" lengthAdjust="spacing" textLength="112" x="1076.437" y="788.9951">AtaqueVampiro</text></g><g id="AtaqueHeroe"><rect fill="#F1F1F1" height="50" rx="12.5" ry="12.5" style="stroke:#181818;stroke-width:0.5;" width="114" x="564.441" y="357"/><line style="stroke:#181818;stroke-width:0.5;" x1="564.441" x2="678.441" y1="383.2969" y2="383.2969"/><text fill="#000000" font-family="sans-serif" font-size="14" lengthAdjust="spacing" textLength="94" x="574.441" y="374.9951">AtaqueHeroe</text></g><g id="DefensaHeroe"><rect fill="#F1F1F1" height="50" rx="12.5" ry="12.5" style="stroke:#181818;stroke-width:0.5;" width="122" x="881.441" y="898"/><line style="stroke:#181818;stroke-width:0.5;" x1="881.441" x2="1003.441" y1="924.2969" y2="924.2969"/><text fill="#000000" font-family="sans-serif" font-size="14" lengthAdjust="spacing" textLength="102" x="891.441" y="915.9951">DefensaHeroe</text></g><g id="RecibeAtaque"><rect fill="#F1F1F1" height="50" rx="12.5" ry="12.5" style="stroke:#181818;stroke-width:0.5;" width="121" x="893.941" y="611"/><line style="stroke:#181818;stroke-width:0.5;" x1="893.941" x2="1014.941" y1="637.2969" y2="637.2969"/><text fill="#000000" font-family="sans-serif" font-size="14" lengthAdjust="spacing" textLength="101" x="903.941" y="628.9951">RecibeAtaque</text></g><g id="AtaqueDefendido"><rect fill="#F1F1F1" height="50" rx="12.5" ry="12.5" style="stroke:#181818;stroke-width:0.5;" width="146" x="869.441" y="1025"/><line style="stroke:#181818;stroke-width:0.5;" x1="869.441" x2="1015.441" y1="1051.2969" y2="1051.2969"/><text fill="#000000" font-family="sans-serif" font-size="14" lengthAdjust="spacing" textLength="126" x="879.441" y="1042.9951">AtaqueDefendido</text></g><g id="RecibeAtaqueVampiro"><rect fill="#F1F1F1" height="50" rx="12.5" ry="12.5" style="stroke:#181818;stroke-width:0.5;" width="182" x="530.441" y="484"/><line style="stroke:#181818;stroke-width:0.5;" x1="530.441" x2="712.441" y1="510.2969" y2="510.2969"/><text fill="#000000" font-family="sans-serif" font-size="14" lengthAdjust="spacing" textLength="162" x="540.441" y="501.9951">RecibeAtaqueVampiro</text></g><g id="HeroeDesmayado"><rect fill="#F1F1F1" height="50" rx="12.5" ry="12.5" style="stroke:#181818;stroke-width:0.5;" width="146" x="306.441" y="484"/><line style="stroke:#181818;stroke-width:0.5;" x1="306.441" x2="452.441" y1="510.2969" y2="510.2969"/><text fill="#000000" font-family="sans-serif" font-size="14" lengthAdjust="spacing" textLength="126" x="316.441" y="501.9951">HeroeDesmayado</text></g><g id="VampiroDesmayado"><rect fill="#F1F1F1" height="50" rx="12.5" ry="12.5" style="stroke:#181818;stroke-width:0.5;" width="164" x="1321.437" y="898"/><line style="stroke:#181818;stroke-width:0.5;" x1="1321.437" x2="1485.437" y1="924.2969" y2="924.2969"/><text fill="#000000" font-family="sans-serif" font-size="14" lengthAdjust="spacing" textLength="144" x="1331.437" y="915.9951">VampiroDesmayado</text></g><g id="RecuperacionHeroe"><rect fill="#F1F1F1" height="50" rx="12.5" ry="12.5" style="stroke:#181818;stroke-width:0.5;" width="161" x="84.941" y="611"/><line style="stroke:#181818;stroke-width:0.5;" x1="84.941" x2="245.941" y1="637.2969" y2="637.2969"/><text fill="#000000" font-family="sans-serif" font-size="14" lengthAdjust="spacing" textLength="141" x="94.941" y="628.9951">RecuperacionHeroe</text></g><g id="RecuperacionVampiro"><rect fill="#F1F1F1" height="50" rx="12.5" ry="12.5" style="stroke:#181818;stroke-width:0.5;" width="179" x="1128.937" y="1025"/><line style="stroke:#181818;stroke-width:0.5;" x1="1128.937" x2="1307.937" y1="1051.2969" y2="1051.2969"/><text fill="#000000" font-family="sans-serif" font-size="14" lengthAdjust="spacing" textLength="159" x="1138.937" y="1042.9951">RecuperacionVampiro</text></g><g id="UsoPocion"><rect fill="#F1F1F1" height="50" rx="12.5" ry="12.5" style="stroke:#181818;stroke-width:0.5;" width="93" x="1025.941" y="357"/><line style="stroke:#181818;stroke-width:0.5;" x1="1025.941" x2="1118.941" y1="383.2969" y2="383.2969"/><text fill="#000000" font-family="sans-serif" font-size="14" lengthAdjust="spacing" textLength="73" x="1035.941" y="374.9951">UsoPocion</text></g><g id="EsperaPocion"><rect fill="#F1F1F1" height="50" rx="12.5" ry="12.5" style="stroke:#181818;stroke-width:0.5;" width="117" x="895.941" y="484"/><line style="stroke:#181818;stroke-width:0.5;" x1="895.941" x2="1012.941" y1="510.2969" y2="510.2969"/><text fill="#000000" font-family="sans-serif" font-size="14" lengthAdjust="spacing" textLength="97" x="905.941" y="501.9951">EsperaPocion</text></g><g id="RecuperacionTotalHeroe"><rect fill="#F1F1F1" height="50" rx="12.5" ry="12.5" style="stroke:#181818;stroke-width:0.5;" width="198" x="660.441" y="611"/><line style="stroke:#181818;stroke-width:0.5;" x1="660.441" x2="858.441" y1="637.2969" y2="637.2969"/><text fill="#000000" font-family="sans-serif" font-size="14" lengthAdjust="spacing" textLength="178" x="670.441" y="628.9951">RecuperacionTotalHeroe</text></g><g id="FinVampiroGana"><rect fill="#F1F1F1" height="50" rx="12.5" ry="12.5" style="stroke:#181818;stroke-width:0.5;" width="138" x="681.441" y="771"/><line style="stroke:#181818;stroke-width:0.5;" x1="681.441" x2="819.441" y1="797.2969" y2="797.2969"/><text fill="#000000" font-family="sans-serif" font-size="14" lengthAdjust="spacing" textLength="118" x="691.441" y="788.9951">FinVampiroGana</text></g><g id="FinHeroeGana"><rect fill="#F1F1F1" height="50" rx="12.5" ry="12.5" style="stroke:#181818;stroke-width:0.5;" width="120" x="561.441" y="691"/><line style="stroke:#181818;stroke-width:0.5;" x1="561.441" x2="681.441" y1="717.2969" y2="717.2969"/><text fill="#000000" font-family="sans-serif" font-size="14" lengthAdjust="spacing" textLength="100" x="571.441" y="708.9951">FinHeroeGana</text></g><ellipse cx="668.441" cy="923" fill="none" rx="11" ry="11" style="stroke:#222222;stroke-width:1.0;"/><ellipse cx="668.441" cy="923" fill="#222222" rx="6" ry="6" style="stroke:#222222;stroke-width:1.0;"/><!--link *start* to Inicio--><g id="link_*start*_Inicio"><path d="M1110.437,26 C1110.437,42.63 1110.437,72.655 1110.437,96.873 " fill="none" id="*start*-to-Inicio" style="stroke:#181818;stroke-width:1.0;"/><polygon fill="#181818" points="1110.437,102.873,1114.437,93.873,1110.437,97.873,1106.437,93.873,1110.437,102.873" style="stroke:#181818;stroke-width:1.0;"/><text fill="#000000" font-family="sans-serif" font-size="13" lengthAdjust="spacing" textLength="94" x="1111.437" y="69.0669">Inicia la batalla</text></g><!--link Inicio to SeleccionArma--><g id="link_Inicio_SeleccionArma"><path d="M1081.357,138.395 C1019.214,158.466 877.9756,204.0859 792.9486,231.5489 " fill="none" id="Inicio-to-SeleccionArma" style="stroke:#181818;stroke-width:1.0;"/><polygon fill="#181818" points="787.239,233.393,797.0328,234.4332,791.997,231.8562,794.5739,226.8204,787.239,233.393" style="stroke:#181818;stroke-width:1.0;"/><text fill="#000000" font-family="sans-serif" font-size="13" lengthAdjust="spacing" textLength="110" x="940.441" y="196.0669">H&#233;roe elige arma</text></g><!--link Inicio to AtaqueVampiro--><g id="link_Inicio_AtaqueVampiro"><path d="M1139.567,135.654 C1189.097,148.887 1284.437,183.515 1284.437,254 C1284.437,254 1284.437,254 1284.437,637 C1284.437,684.539 1290.147,704.712 1259.437,741 C1243.807,759.472 1226.3815,769.7108 1204.1815,777.8358 " fill="none" id="Inicio-to-AtaqueVampiro" style="stroke:#181818;stroke-width:1.0;"/><polygon fill="#181818" points="1198.547,779.898,1208.3735,780.5611,1203.2424,778.1795,1205.624,773.0484,1198.547,779.898" style="stroke:#181818;stroke-width:1.0;"/><text fill="#000000" font-family="sans-serif" font-size="13" lengthAdjust="spacing" textLength="94" x="1285.437" y="450.0669">Vampiro ataca</text></g><!--link SeleccionArma to AtaqueHeroe--><g id="link_SeleccionArma_AtaqueHeroe"><path d="M703.774,280.101 C685.712,302.236 662.8833,330.2122 644.8403,352.3242 " fill="none" id="SeleccionArma-to-AtaqueHeroe" style="stroke:#181818;stroke-width:1.0;"/><polygon fill="#181818" points="641.047,356.973,649.8361,352.5287,644.2081,353.099,643.6378,347.471,641.047,356.973" style="stroke:#181818;stroke-width:1.0;"/><text fill="#000000" font-family="sans-serif" font-size="13" lengthAdjust="spacing" textLength="78" x="680.441" y="323.0669">H&#233;roe ataca</text></g><!--link AtaqueVampiro to DefensaHeroe--><g id="link_AtaqueVampiro_DefensaHeroe"><path d="M1065.997,807.787 C1018.559,816.97 960.577,831.736 945.441,851 C935.227,864 934.0942,876.8952 936.0872,891.9032 " fill="none" id="AtaqueVampiro-to-DefensaHeroe" style="stroke:#181818;stroke-width:1.0;"/><polygon fill="#181818" points="936.877,897.851,939.6574,888.4028,936.2188,892.8945,931.727,889.4559,936.877,897.851" style="stroke:#181818;stroke-width:1.0;"/><text fill="#000000" font-family="sans-serif" font-size="13" lengthAdjust="spacing" textLength="161" x="946.441" y="864.0669">H&#233;roe decide defenderse</text></g><!--link AtaqueVampiro to RecibeAtaque--><g id="link_AtaqueVampiro_RecibeAtaque"><path d="M1128.377,770.923 C1123.277,747.661 1112.397,712.829 1090.437,691 C1070.087,670.761 1046.9245,659.6558 1021.0105,651.5668 " fill="none" id="AtaqueVampiro-to-RecibeAtaque" style="stroke:#181818;stroke-width:1.0;"/><polygon fill="#181818" points="1015.283,649.779,1022.6823,656.279,1020.0559,651.2688,1025.0661,648.6424,1015.283,649.779" style="stroke:#181818;stroke-width:1.0;"/><text fill="#000000" font-family="sans-serif" font-size="13" lengthAdjust="spacing" textLength="130" x="1120.437" y="720.5669">H&#233;roe recibe ataque</text></g><!--link RecibeAtaque to AtaqueVampiro--><g id="link_RecibeAtaque_AtaqueVampiro"><path d="M943.771,661.428 C935.598,684.296 928.339,718.26 945.441,741 C960.217,760.647 1012.71,774.2821 1060.363,783.3611 " fill="none" id="RecibeAtaque-to-AtaqueVampiro" style="stroke:#181818;stroke-width:1.0;"/><polygon fill="#181818" points="1066.257,784.484,1058.1647,778.8703,1061.3453,783.5482,1056.6674,786.7289,1066.257,784.484" style="stroke:#181818;stroke-width:1.0;"/><text fill="#000000" font-family="sans-serif" font-size="13" lengthAdjust="spacing" textLength="135" x="946.441" y="720.5669">Vampiro contraataca</text></g><!--link DefensaHeroe to AtaqueDefendido--><g id="link_DefensaHeroe_AtaqueDefendido"><path d="M942.441,948.101 C942.441,970.236 942.441,996.8615 942.441,1018.9727 " fill="none" id="DefensaHeroe-to-AtaqueDefendido" style="stroke:#181818;stroke-width:1.0;"/><polygon fill="#181818" points="942.441,1024.9727,946.441,1015.9727,942.441,1019.9727,938.441,1015.9727,942.441,1024.9727" style="stroke:#181818;stroke-width:1.0;"/><text fill="#000000" font-family="sans-serif" font-size="13" lengthAdjust="spacing" textLength="105" x="943.441" y="991.0669">Defensa exitosa</text></g><!--link DefensaHeroe to RecibeAtaque--><g id="link_DefensaHeroe_RecibeAtaque"><path d="M935.44,897.744 C933.084,888.513 930.728,877.848 929.441,868 C920.702,801.117 921.22,712.41 926.441,691 C928.968,680.638 930.9529,675.2952 935.9499,666.2692 " fill="none" id="DefensaHeroe-to-RecibeAtaque" style="stroke:#181818;stroke-width:1.0;"/><polygon fill="#181818" points="938.856,661.02,930.9974,666.9565,936.4342,665.3944,937.9963,670.8313,938.856,661.02" style="stroke:#181818;stroke-width:1.0;"/><text fill="#000000" font-family="sans-serif" font-size="13" lengthAdjust="spacing" textLength="96" x="925.441" y="800.5669">Defensa fallida</text></g><!--link AtaqueHeroe to RecibeAtaqueVampiro--><g id="link_AtaqueHeroe_RecibeAtaqueVampiro"><path d="M619.572,407.311 C618.73,421.018 618.01,438.461 618.441,454 C618.712,463.761 618.9024,468.5145 619.4554,477.8295 " fill="none" id="AtaqueHeroe-to-RecibeAtaqueVampiro" style="stroke:#181818;stroke-width:1.0;"/><polygon fill="#181818" points="619.811,483.819,623.2706,474.5978,619.5147,478.8278,615.2847,475.0719,619.811,483.819" style="stroke:#181818;stroke-width:1.0;"/><text fill="#000000" font-family="sans-serif" font-size="13" lengthAdjust="spacing" textLength="146" x="619.441" y="450.0669">Vampiro recibe ataque</text></g><!--link RecibeAtaqueVampiro to SeleccionArma--><g id="link_RecibeAtaqueVampiro_SeleccionArma"><path d="M712.543,494.095 C735.087,486.114 756.698,473.599 770.441,454 C807.194,401.588 789.611,370.052 767.441,310 C763.42,299.109 760.1369,293.345 752.7159,284.703 " fill="none" id="RecibeAtaqueVampiro-to-SeleccionArma" style="stroke:#181818;stroke-width:1.0;"/><polygon fill="#181818" points="748.807,280.151,751.6356,289.5849,752.0644,283.9443,757.705,284.3731,748.807,280.151" style="stroke:#181818;stroke-width:1.0;"/><text fill="#000000" font-family="sans-serif" font-size="13" lengthAdjust="spacing" textLength="196" x="792.441" y="386.5669">H&#233;roe elige arma nuevamente</text></g><!--link AtaqueHeroe to HeroeDesmayado--><g id="link_AtaqueHeroe_HeroeDesmayado"><path d="M564.209,402.364 C539.161,411.646 509.772,423.65 484.441,437 C458.744,450.542 436.4856,465.4699 416.2486,480.1689 " fill="none" id="AtaqueHeroe-to-HeroeDesmayado" style="stroke:#181818;stroke-width:1.0;"/><polygon fill="#181818" points="411.394,483.695,421.0266,481.6423,415.4395,480.7566,416.3251,475.1695,411.394,483.695" style="stroke:#181818;stroke-width:1.0;"/><text fill="#000000" font-family="sans-serif" font-size="13" lengthAdjust="spacing" textLength="124" x="485.441" y="450.0669">Energ&#237;a H&#233;roe &lt; 30</text></g><!--link AtaqueVampiro to VampiroDesmayado--><g id="link_AtaqueVampiro_VampiroDesmayado"><path d="M1184.697,821.101 C1232.677,843.236 1297.9688,873.3475 1345.8988,895.4595 " fill="none" id="AtaqueVampiro-to-VampiroDesmayado" style="stroke:#181818;stroke-width:1.0;"/><polygon fill="#181818" points="1351.347,897.973,1344.8504,890.5707,1346.8069,895.8785,1341.4991,897.8349,1351.347,897.973" style="stroke:#181818;stroke-width:1.0;"/><text fill="#000000" font-family="sans-serif" font-size="13" lengthAdjust="spacing" textLength="140" x="1284.437" y="864.0669">Energ&#237;a Vampiro &lt; 20</text></g><!--link HeroeDesmayado to RecuperacionHeroe--><g id="link_HeroeDesmayado_RecuperacionHeroe"><path d="M338.18,534.101 C300.285,556.236 249.6109,585.8347 211.7569,607.9467 " fill="none" id="HeroeDesmayado-to-RecuperacionHeroe" style="stroke:#181818;stroke-width:1.0;"/><polygon fill="#181818" points="206.576,610.973,216.3648,609.8874,210.8934,608.451,212.3297,602.9796,206.576,610.973" style="stroke:#181818;stroke-width:1.0;"/><text fill="#000000" font-family="sans-serif" font-size="13" lengthAdjust="spacing" textLength="256" x="286.441" y="577.0669">Recupera 2 puntos de energ&#237;a por turno</text></g><!--link VampiroDesmayado to RecuperacionVampiro--><g id="link_VampiroDesmayado_RecuperacionVampiro"><path d="M1367.767,948.101 C1335.007,970.236 1291.6988,999.5027 1258.9688,1021.6139 " fill="none" id="VampiroDesmayado-to-RecuperacionVampiro" style="stroke:#181818;stroke-width:1.0;"/><polygon fill="#181818" points="1253.997,1024.9727,1263.6939,1023.2491,1258.1402,1022.1737,1259.2155,1016.62,1253.997,1024.9727" style="stroke:#181818;stroke-width:1.0;"/><text fill="#000000" font-family="sans-serif" font-size="13" lengthAdjust="spacing" textLength="256" x="1322.437" y="991.0669">Recupera 2 puntos de energ&#237;a por turno</text></g><!--link RecuperacionHeroe to SeleccionArma--><g id="link_RecuperacionHeroe_SeleccionArma"><path d="M132.4381,610.939 C84.5967,573.067 6,497.619 47.441,437 C117.3792,334.696 499.1593,281.1879 653.7933,263.3929 " fill="none" id="RecuperacionHeroe-to-SeleccionArma" style="stroke:#181818;stroke-width:1.0;"/><polygon fill="#181818" points="659.754,262.707,650.3557,259.7621,654.7868,263.2786,651.2703,267.7097,659.754,262.707" style="stroke:#181818;stroke-width:1.0;"/><text fill="#000000" font-family="sans-serif" font-size="13" lengthAdjust="spacing" textLength="134" x="48.441" y="450.0669">Energ&#237;a H&#233;roe &gt;= 30</text></g><!--link RecuperacionVampiro to AtaqueVampiro--><g id="link_RecuperacionVampiro_AtaqueVampiro"><path d="M1198.247,1024.9637 C1183.047,1005.4913 1163.077,976.6725 1152.437,948 C1136.577,905.232 1133.131,857.5387 1132.501,827.0627 " fill="none" id="RecuperacionVampiro-to-AtaqueVampiro" style="stroke:#181818;stroke-width:1.0;"/><polygon fill="#181818" points="1132.377,821.064,1128.5639,830.1447,1132.4803,826.0629,1136.5622,829.9794,1132.377,821.064" style="stroke:#181818;stroke-width:1.0;"/><text fill="#000000" font-family="sans-serif" font-size="13" lengthAdjust="spacing" textLength="150" x="1153.437" y="927.5669">Energ&#237;a Vampiro &gt;= 20</text></g><!--link SeleccionArma to UsoPocion--><g id="link_SeleccionArma_UsoPocion"><path d="M787.047,278.782 C855.958,303.463 958.6174,340.2329 1020.0884,362.2489 " fill="none" id="SeleccionArma-to-UsoPocion" style="stroke:#181818;stroke-width:1.0;"/><polygon fill="#181818" points="1025.737,364.272,1018.6128,357.4716,1021.0298,362.5861,1015.9153,365.0031,1025.737,364.272" style="stroke:#181818;stroke-width:1.0;"/><text fill="#000000" font-family="sans-serif" font-size="13" lengthAdjust="spacing" textLength="111" x="919.441" y="323.0669">H&#233;roe usa poci&#243;n</text></g><!--link UsoPocion to EsperaPocion--><g id="link_UsoPocion_EsperaPocion"><path d="M1049.687,407.101 C1028.794,429.236 1002.1146,457.4979 981.2416,479.6099 " fill="none" id="UsoPocion-to-EsperaPocion" style="stroke:#181818;stroke-width:1.0;"/><polygon fill="#181818" points="977.123,483.973,986.2097,480.1741,980.5552,480.3371,980.3922,474.6826,977.123,483.973" style="stroke:#181818;stroke-width:1.0;"/><text fill="#000000" font-family="sans-serif" font-size="13" lengthAdjust="spacing" textLength="101" x="1021.441" y="450.0669">Espera 3 turnos</text></g><!--link EsperaPocion to RecibeAtaque--><g id="link_EsperaPocion_RecibeAtaque"><path d="M954.441,534.101 C954.441,556.236 954.441,582.861 954.441,604.973 " fill="none" id="EsperaPocion-to-RecibeAtaque" style="stroke:#181818;stroke-width:1.0;"/><polygon fill="#181818" points="954.441,610.973,958.441,601.973,954.441,605.973,950.441,601.973,954.441,610.973" style="stroke:#181818;stroke-width:1.0;"/><text fill="#000000" font-family="sans-serif" font-size="13" lengthAdjust="spacing" textLength="239" x="955.441" y="577.0669">H&#233;roe recibe ataques durante espera</text></g><!--link EsperaPocion to RecuperacionTotalHeroe--><g id="link_EsperaPocion_RecuperacionTotalHeroe"><path d="M902.864,534.036 C885.488,542.781 866.251,553.19 849.441,564 C827.512,578.101 809.0593,592.5101 791.7753,606.9821 " fill="none" id="EsperaPocion-to-RecuperacionTotalHeroe" style="stroke:#181818;stroke-width:1.0;"/><polygon fill="#181818" points="787.175,610.834,796.6434,608.1231,791.0086,607.6241,791.5076,601.9893,787.175,610.834" style="stroke:#181818;stroke-width:1.0;"/><text fill="#000000" font-family="sans-serif" font-size="13" lengthAdjust="spacing" textLength="95" x="850.441" y="577.0669">Finaliza espera</text></g><!--link RecibeAtaque to FinVampiroGana--><g id="link_RecibeAtaque_FinVampiroGana"><path d="M893.603,655.912 C887.809,657.655 882.018,659.375 876.441,661 C828.201,675.057 801.028,653.629 767.441,691 C747.996,712.635 745.7911,741.5246 747.1811,764.8506 " fill="none" id="RecibeAtaque-to-FinVampiroGana" style="stroke:#181818;stroke-width:1.0;"/><polygon fill="#181818" points="747.538,770.84,750.9956,761.618,747.2406,765.8489,743.0097,762.0939,747.538,770.84" style="stroke:#181818;stroke-width:1.0;"/><text fill="#000000" font-family="sans-serif" font-size="13" lengthAdjust="spacing" textLength="95" x="768.441" y="720.5669">H&#233;roe HP &lt;= 0</text></g><!--link RecibeAtaqueVampiro to FinHeroeGana--><g id="link_RecibeAtaqueVampiro_FinHeroeGana"><path d="M621.441,534.321 C621.441,573.775 621.441,645.277 621.441,684.71 " fill="none" id="RecibeAtaqueVampiro-to-FinHeroeGana" style="stroke:#181818;stroke-width:1.0;"/><polygon fill="#181818" points="621.441,690.71,625.441,681.71,621.441,685.71,617.441,681.71,621.441,690.71" style="stroke:#181818;stroke-width:1.0;"/><text fill="#000000" font-family="sans-serif" font-size="13" lengthAdjust="spacing" textLength="111" x="622.441" y="577.0669">Vampiro HP &lt;= 0</text></g><!--link RecuperacionTotalHeroe to SeleccionArma--><g id="link_RecuperacionTotalHeroe_SeleccionArma"><path d="M660.366,631.207 C520.785,624.861 280.069,609.848 252.441,581 C91.8574,413.325 221.5,470.193 244.441,437 C339.338,299.695 546.6986,266.88 653.7086,258.904 " fill="none" id="RecuperacionTotalHeroe-to-SeleccionArma" style="stroke:#181818;stroke-width:1.0;"/><polygon fill="#181818" points="659.692,258.458,650.4196,255.138,654.7058,258.8296,651.0142,263.1159,659.692,258.458" style="stroke:#181818;stroke-width:1.0;"/><text fill="#000000" font-family="sans-serif" font-size="13" lengthAdjust="spacing" textLength="203" x="245.441" y="450.0669">H&#233;roe recupera toda su energ&#237;a</text></g><!--link FinHeroeGana to *end*--><g id="link_FinHeroeGana_*end*"><path d="M627.017,741.321 C637.327,786.29 657.6282,874.8387 664.7632,905.9597 " fill="none" id="FinHeroeGana-to-*end*" style="stroke:#181818;stroke-width:1.0;"/><polygon fill="#181818" points="666.104,911.808,667.9916,902.1417,664.9867,906.9344,660.1939,903.9295,666.104,911.808" style="stroke:#181818;stroke-width:1.0;"/></g><!--link FinVampiroGana to *end*--><g id="link_FinVampiroGana_*end*"><path d="M734.631,821.101 C716.108,849.337 689.6769,889.6271 677.3599,908.4041 " fill="none" id="FinVampiroGana-to-*end*" style="stroke:#181818;stroke-width:1.0;"/><polygon fill="#181818" points="674.069,913.421,682.35,908.0895,676.8114,909.2402,675.6608,903.7016,674.069,913.421" style="stroke:#181818;stroke-width:1.0;"/></g><!--SRC=[ZLJDRi8m3BxdANoUX8JWXW092JPsG_kx80wcDIXIILZIJjlUQ8UTzWYys9oqwLgQ8Kv9xS-VxSzErpSRwFMcSAza8lMeF14oX2tcc6KeIey7FL962N-ecJdW29QdBwC9A9Dx0cHJ4plByRMW5pmSfM7UwW9Ccg0GBQO6VadCM3ENu1QJnyvfHyfY6vnI8bDti2ybOoaI-C2OBPNsEj1ueql6Lj7aRXJcpQbCkPKA0VGkSssn6z7E4k0xLbEcePqukYDNkxOcz9B8YLQvmLAz2FrLimHLq1iUIEKaEZNxsvpi0J_GIR9GPFQdRmmqOnZs8_9NzrXWW8rXq1UYpHzaAevaq9LS3JwOO037Gl4iUFX0WV6e3UI5KLgSf-tmrG9UozWf9YRfkIZJYLCbaZSsoeum7EsKwJwSPwjNsbdg8HRMrPh8quyIjTTZ5zQb3l3o2uPbKrOqlLS-5nQeCCWx0kI3ennrlq-QVodLy6wbman-OWZiBZSZgkRlKFsjw785umdq_rri3lCfog3WQKH5ohdm8anOYLod2BQerq68PYRFiBxPY7RLmVmB]--></g></svg>