<?xml version="1.0" encoding="us-ascii" standalone="no"?><svg xmlns="http://www.w3.org/2000/svg" xmlns:xlink="http://www.w3.org/1999/xlink" contentStyleType="text/css" height="914px" preserveAspectRatio="none" style="width:965px;height:914px;background:#FFFFFF;" version="1.1" viewBox="0 0 965 914" width="965px" zoomAndPan="magnify"><defs/><g><ellipse cx="644.5" cy="16" fill="#222222" rx="10" ry="10" style="stroke:#222222;stroke-width:1.0;"/><g id="Inicio"><rect fill="#F1F1F1" height="50" rx="12.5" ry="12.5" style="stroke:#181818;stroke-width:0.5;" width="52" x="618.5" y="102"/><line style="stroke:#181818;stroke-width:0.5;" x1="618.5" x2="670.5" y1="127.6406" y2="127.6406"/><text fill="#000000" font-family="sans-serif" font-size="14" lengthAdjust="spacing" textLength="32" x="628.5" y="119.6738">Inicio</text></g><g id="SeleccionArma"><rect fill="#F1F1F1" height="50" rx="12.5" ry="12.5" style="stroke:#181818;stroke-width:0.5;" width="114" x="422.5" y="228"/><line style="stroke:#181818;stroke-width:0.5;" x1="422.5" x2="536.5" y1="253.6406" y2="253.6406"/><text fill="#000000" font-family="sans-serif" font-size="14" lengthAdjust="spacing" textLength="94" x="432.5" y="245.6738">SeleccionArma</text></g><g id="AtaqueVampiro"><rect fill="#F1F1F1" height="50" rx="12.5" ry="12.5" style="stroke:#181818;stroke-width:0.5;" width="117" x="673" y="606"/><line style="stroke:#181818;stroke-width:0.5;" x1="673" x2="790" y1="631.6406" y2="631.6406"/><text fill="#000000" font-family="sans-serif" font-size="14" lengthAdjust="spacing" textLength="97" x="683" y="623.6738">AtaqueVampiro</text></g><g id="AtaqueHeroe"><rect fill="#F1F1F1" height="50" rx="12.5" ry="12.5" style="stroke:#181818;stroke-width:0.5;" width="103" x="190" y="354"/><line style="stroke:#181818;stroke-width:0.5;" x1="190" x2="293" y1="379.6406" y2="379.6406"/><text fill="#000000" font-family="sans-serif" font-size="14" lengthAdjust="spacing" textLength="83" x="200" y="371.6738">AtaqueHeroe</text></g><g id="DefensaHeroe"><rect fill="#F1F1F1" height="50" rx="12.5" ry="12.5" style="stroke:#181818;stroke-width:0.5;" width="111" x="485" y="732"/><line style="stroke:#181818;stroke-width:0.5;" x1="485" x2="596" y1="757.6406" y2="757.6406"/><text fill="#000000" font-family="sans-serif" font-size="14" lengthAdjust="spacing" textLength="91" x="495" y="749.6738">DefensaHeroe</text></g><g id="RecibeAtaque"><rect fill="#F1F1F1" height="50" rx="12.5" ry="12.5" style="stroke:#181818;stroke-width:0.5;" width="109" x="457" y="480"/><line style="stroke:#181818;stroke-width:0.5;" x1="457" x2="566" y1="505.6406" y2="505.6406"/><text fill="#000000" font-family="sans-serif" font-size="14" lengthAdjust="spacing" textLength="89" x="467" y="497.6738">RecibeAtaque</text></g><g id="AtaqueDefendido"><rect fill="#F1F1F1" height="50" rx="12.5" ry="12.5" style="stroke:#181818;stroke-width:0.5;" width="130" x="475.5" y="858"/><line style="stroke:#181818;stroke-width:0.5;" x1="475.5" x2="605.5" y1="883.6406" y2="883.6406"/><text fill="#000000" font-family="sans-serif" font-size="14" lengthAdjust="spacing" textLength="110" x="485.5" y="875.6738">AtaqueDefendido</text></g><g id="RecibeAtaqueVampiro"><rect fill="#F1F1F1" height="50" rx="12.5" ry="12.5" style="stroke:#181818;stroke-width:0.5;" width="161" x="175" y="480"/><line style="stroke:#181818;stroke-width:0.5;" x1="175" x2="336" y1="505.6406" y2="505.6406"/><text fill="#000000" font-family="sans-serif" font-size="14" lengthAdjust="spacing" textLength="141" x="185" y="497.6738">RecibeAtaqueVampiro</text></g><g id="HeroeDesmayado"><rect fill="#F1F1F1" height="50" rx="12.5" ry="12.5" style="stroke:#181818;stroke-width:0.5;" width="133" x="7" y="480"/><line style="stroke:#181818;stroke-width:0.5;" x1="7" x2="140" y1="505.6406" y2="505.6406"/><text fill="#000000" font-family="sans-serif" font-size="14" lengthAdjust="spacing" textLength="113" x="17" y="497.6738">HeroeDesmayado</text></g><g id="VampiroDesmayado"><rect fill="#F1F1F1" height="50" rx="12.5" ry="12.5" style="stroke:#181818;stroke-width:0.5;" width="147" x="681" y="732"/><line style="stroke:#181818;stroke-width:0.5;" x1="681" x2="828" y1="757.6406" y2="757.6406"/><text fill="#000000" font-family="sans-serif" font-size="14" lengthAdjust="spacing" textLength="127" x="691" y="749.6738">VampiroDesmayado</text></g><g id="EsperaPocion"><rect fill="#F1F1F1" height="50" rx="12.5" ry="12.5" style="stroke:#181818;stroke-width:0.5;" width="108" x="604.5" y="354"/><line style="stroke:#181818;stroke-width:0.5;" x1="604.5" x2="712.5" y1="379.6406" y2="379.6406"/><text fill="#000000" font-family="sans-serif" font-size="14" lengthAdjust="spacing" textLength="88" x="614.5" y="371.6738">EsperaPocion</text></g><g id="RecuperacionTotalHeroe"><rect fill="#F1F1F1" height="50" rx="12.5" ry="12.5" style="stroke:#181818;stroke-width:0.5;" width="178" x="641.5" y="480"/><line style="stroke:#181818;stroke-width:0.5;" x1="641.5" x2="819.5" y1="505.6406" y2="505.6406"/><text fill="#000000" font-family="sans-serif" font-size="14" lengthAdjust="spacing" textLength="158" x="651.5" y="497.6738">RecuperacionTotalHeroe</text></g><g id="FinVampiroGana"><rect fill="#F1F1F1" height="50" rx="12.5" ry="12.5" style="stroke:#181818;stroke-width:0.5;" width="127" x="314" y="606"/><line style="stroke:#181818;stroke-width:0.5;" x1="314" x2="441" y1="631.6406" y2="631.6406"/><text fill="#000000" font-family="sans-serif" font-size="14" lengthAdjust="spacing" textLength="107" x="324" y="623.6738">FinVampiroGana</text></g><g id="FinHeroeGana"><rect fill="#F1F1F1" height="50" rx="12.5" ry="12.5" style="stroke:#181818;stroke-width:0.5;" width="113" x="166" y="606"/><line style="stroke:#181818;stroke-width:0.5;" x1="166" x2="279" y1="631.6406" y2="631.6406"/><text fill="#000000" font-family="sans-serif" font-size="14" lengthAdjust="spacing" textLength="93" x="176" y="623.6738">FinHeroeGana</text></g><ellipse cx="300.5" cy="757" fill="none" rx="11" ry="11" style="stroke:#222222;stroke-width:1.0;"/><ellipse cx="300.5" cy="757" fill="#222222" rx="6" ry="6" style="stroke:#222222;stroke-width:1.0;"/><!--link *start* to Inicio--><g id="link_*start*_Inicio"><path d="M644.5,26.29 C644.5,42.87 644.5,72.03 644.5,95.85 " fill="none" id="*start*-to-Inicio" style="stroke:#181818;stroke-width:1.0;"/><polygon fill="#181818" points="644.5,101.85,648.5,92.85,644.5,96.85,640.5,92.85,644.5,101.85" style="stroke:#181818;stroke-width:1.0;"/><text fill="#000000" font-family="sans-serif" font-size="13" lengthAdjust="spacing" textLength="86" x="645.5" y="68.7686">Inicia la batalla</text></g><!--link Inicio to SeleccionArma--><g id="link_Inicio_SeleccionArma"><path d="M618.36,147.65 C589.37,169.43 547.3967,200.9756 516.2567,224.3756 " fill="none" id="Inicio-to-SeleccionArma" style="stroke:#181818;stroke-width:1.0;"/><polygon fill="#181818" points="511.46,227.98,521.058,225.7711,515.4572,224.9763,516.252,219.3756,511.46,227.98" style="stroke:#181818;stroke-width:1.0;"/><text fill="#000000" font-family="sans-serif" font-size="13" lengthAdjust="spacing" textLength="98" x="572.5" y="194.7686">H&#233;roe elige arma</text></g><!--link Inicio to AtaqueVampiro--><g id="link_Inicio_AtaqueVampiro"><path d="M670.65,130.07 C730.54,136.4 872.5,160.98 872.5,252 C872.5,252 872.5,252 872.5,506 C872.5,552.45 834.1263,582.8284 795.3863,603.0984 " fill="none" id="Inicio-to-AtaqueVampiro" style="stroke:#181818;stroke-width:1.0;"/><polygon fill="#181818" points="790.07,605.88,799.8988,605.2517,794.5002,603.562,796.19,598.1634,790.07,605.88" style="stroke:#181818;stroke-width:1.0;"/><text fill="#000000" font-family="sans-serif" font-size="13" lengthAdjust="spacing" textLength="84" x="873.5" y="383.7686">Vampiro ataca</text></g><!--link SeleccionArma to AtaqueHeroe--><g id="link_SeleccionArma_AtaqueHeroe"><path d="M422.34,262.07 C384.71,269.44 335.73,283.15 298.5,308 C280.9,319.75 269.3443,333.5817 259.2043,348.7517 " fill="none" id="SeleccionArma-to-AtaqueHeroe" style="stroke:#181818;stroke-width:1.0;"/><polygon fill="#181818" points="255.87,353.74,264.1969,348.4805,258.6486,349.5831,257.5459,344.0348,255.87,353.74" style="stroke:#181818;stroke-width:1.0;"/><text fill="#000000" font-family="sans-serif" font-size="13" lengthAdjust="spacing" textLength="70" x="299.5" y="320.7686">H&#233;roe ataca</text></g><!--link AtaqueVampiro to DefensaHeroe--><g id="link_AtaqueVampiro_DefensaHeroe"><path d="M672.76,645.41 C645.17,653.79 613.03,666.75 588.5,686 C572.97,698.19 563.4536,711.5549 555.1436,726.5149 " fill="none" id="AtaqueVampiro-to-DefensaHeroe" style="stroke:#181818;stroke-width:1.0;"/><polygon fill="#181818" points="552.23,731.76,560.0971,725.8347,554.658,727.3891,553.1036,721.95,552.23,731.76" style="stroke:#181818;stroke-width:1.0;"/><text fill="#000000" font-family="sans-serif" font-size="13" lengthAdjust="spacing" textLength="143" x="589.5" y="698.7686">H&#233;roe decide defenderse</text></g><!--link AtaqueVampiro to RecibeAtaque--><g id="link_AtaqueVampiro_RecibeAtaque"><path d="M723.42,605.75 C717.19,590.58 707.15,571.75 692.5,560 C672.93,544.3 617.9479,529.4225 572.1679,518.9125 " fill="none" id="AtaqueVampiro-to-RecibeAtaque" style="stroke:#181818;stroke-width:1.0;"/><polygon fill="#181818" points="566.32,517.57,574.1968,523.4824,571.1932,518.6888,575.9868,515.6852,566.32,517.57" style="stroke:#181818;stroke-width:1.0;"/><text fill="#000000" font-family="sans-serif" font-size="13" lengthAdjust="spacing" textLength="116" x="707.5" y="572.7686">H&#233;roe recibe ataque</text></g><!--link RecibeAtaque to AtaqueVampiro--><g id="link_RecibeAtaque_AtaqueVampiro"><path d="M523.88,530.17 C532.76,545.3 546.04,564.12 562.5,576 C595.09,599.53 632.5115,611.8047 667.1115,619.4547 " fill="none" id="RecibeAtaque-to-AtaqueVampiro" style="stroke:#181818;stroke-width:1.0;"/><polygon fill="#181818" points="672.97,620.75,665.0458,614.9014,668.0879,619.6706,663.3187,622.7127,672.97,620.75" style="stroke:#181818;stroke-width:1.0;"/><text fill="#000000" font-family="sans-serif" font-size="13" lengthAdjust="spacing" textLength="120" x="563.5" y="572.7686">Vampiro contraataca</text></g><!--link DefensaHeroe to AtaqueDefendido--><g id="link_DefensaHeroe_AtaqueDefendido"><path d="M540.5,782.2 C540.5,804.05 540.5,830.03 540.5,851.86 " fill="none" id="DefensaHeroe-to-AtaqueDefendido" style="stroke:#181818;stroke-width:1.0;"/><polygon fill="#181818" points="540.5,857.86,544.5,848.86,540.5,852.86,536.5,848.86,540.5,857.86" style="stroke:#181818;stroke-width:1.0;"/><text fill="#000000" font-family="sans-serif" font-size="13" lengthAdjust="spacing" textLength="93" x="541.5" y="824.7686">Defensa exitosa</text></g><!--link DefensaHeroe to RecibeAtaque--><g id="link_DefensaHeroe_RecibeAtaque"><path d="M537.7,731.84 C532.16,684.14 520.5817,584.3 515.0217,536.39 " fill="none" id="DefensaHeroe-to-RecibeAtaque" style="stroke:#181818;stroke-width:1.0;"/><polygon fill="#181818" points="514.33,530.43,511.3942,539.8311,514.9064,535.3967,519.3408,538.9089,514.33,530.43" style="stroke:#181818;stroke-width:1.0;"/><text fill="#000000" font-family="sans-serif" font-size="13" lengthAdjust="spacing" textLength="84" x="529.5" y="635.7686">Defensa fallida</text></g><!--link AtaqueHeroe to RecibeAtaqueVampiro--><g id="link_AtaqueHeroe_RecibeAtaqueVampiro"><path d="M238.16,404.1 C236.86,417.66 236.17,434.85 238.5,450 C240.04,460.01 241.176,465.0135 244.276,474.2235 " fill="none" id="AtaqueHeroe-to-RecibeAtaqueVampiro" style="stroke:#181818;stroke-width:1.0;"/><polygon fill="#181818" points="246.19,479.91,247.11,470.1042,244.595,475.1712,239.5279,472.6562,246.19,479.91" style="stroke:#181818;stroke-width:1.0;"/><text fill="#000000" font-family="sans-serif" font-size="13" lengthAdjust="spacing" textLength="130" x="239.5" y="446.7686">Vampiro recibe ataque</text></g><!--link RecibeAtaqueVampiro to SeleccionArma--><g id="link_RecibeAtaqueVampiro_SeleccionArma"><path d="M331.16,479.97 C346.93,472.3 362.42,462.46 374.5,450 C406.67,416.81 392.93,394.88 414.5,354 C428.71,327.08 444.5847,303.0122 458.4647,283.2222 " fill="none" id="RecibeAtaqueVampiro-to-SeleccionArma" style="stroke:#181818;stroke-width:1.0;"/><polygon fill="#181818" points="461.91,278.31,453.4673,283.3815,459.0389,282.4035,460.0169,287.9752,461.91,278.31" style="stroke:#181818;stroke-width:1.0;"/><text fill="#000000" font-family="sans-serif" font-size="13" lengthAdjust="spacing" textLength="171" x="415.5" y="383.7686">H&#233;roe elige arma nuevamente</text></g><!--link AtaqueHeroe to HeroeDesmayado--><g id="link_AtaqueHeroe_HeroeDesmayado"><path d="M189.71,393.66 C164.85,402.18 135.91,415.17 114.5,434 C100.33,446.47 92.2676,459.6091 85.4176,474.4991 " fill="none" id="AtaqueHeroe-to-HeroeDesmayado" style="stroke:#181818;stroke-width:1.0;"/><polygon fill="#181818" points="82.91,479.95,90.3053,473.4455,84.9997,475.4076,83.0375,470.102,82.91,479.95" style="stroke:#181818;stroke-width:1.0;"/><text fill="#000000" font-family="sans-serif" font-size="13" lengthAdjust="spacing" textLength="112" x="115.5" y="446.7686">Energ&#237;a H&#233;roe &lt; 30</text></g><!--link AtaqueVampiro to VampiroDesmayado--><g id="link_AtaqueVampiro_VampiroDesmayado"><path d="M735.99,656.2 C740.04,678.05 744.8755,704.1307 748.9255,725.9607 " fill="none" id="AtaqueVampiro-to-VampiroDesmayado" style="stroke:#181818;stroke-width:1.0;"/><polygon fill="#181818" points="750.02,731.86,752.3112,722.2814,749.1079,726.9439,744.4454,723.7406,750.02,731.86" style="stroke:#181818;stroke-width:1.0;"/><text fill="#000000" font-family="sans-serif" font-size="13" lengthAdjust="spacing" textLength="126" x="744.5" y="698.7686">Energ&#237;a Vampiro &lt; 20</text></g><!--link SeleccionArma to EsperaPocion--><g id="link_SeleccionArma_EsperaPocion"><path d="M514.44,278.2 C545.98,300.05 587.208,328.6131 618.718,350.4431 " fill="none" id="SeleccionArma-to-EsperaPocion" style="stroke:#181818;stroke-width:1.0;"/><polygon fill="#181818" points="623.65,353.86,618.5299,345.4467,619.54,351.0126,613.974,352.0227,623.65,353.86" style="stroke:#181818;stroke-width:1.0;"/><text fill="#000000" font-family="sans-serif" font-size="13" lengthAdjust="spacing" textLength="101" x="580.5" y="320.7686">H&#233;roe usa poci&#243;n</text></g><!--link EsperaPocion to RecibeAtaque--><g id="link_EsperaPocion_RecibeAtaque"><path d="M604.08,396.28 C595.2,398.89 586.1,401.54 577.5,404 C529.19,417.8 498.95,394.03 468.5,434 C457.44,448.52 464.0035,461.7219 477.5135,475.5919 " fill="none" id="EsperaPocion-to-RecibeAtaque" style="stroke:#181818;stroke-width:1.0;"/><polygon fill="#181818" points="481.7,479.89,478.2856,470.6519,478.2113,476.3083,472.5549,476.2339,481.7,479.89" style="stroke:#181818;stroke-width:1.0;"/><text fill="#000000" font-family="sans-serif" font-size="13" lengthAdjust="spacing" textLength="213" x="469.5" y="446.7686">H&#233;roe recibe ataques durante espera</text></g><!--link EsperaPocion to RecuperacionTotalHeroe--><g id="link_EsperaPocion_RecuperacionTotalHeroe"><path d="M673.49,404.07 C679.21,413.37 685.74,424.13 691.5,434 C700.34,449.14 707.0279,461.073 714.4879,474.633 " fill="none" id="EsperaPocion-to-RecuperacionTotalHeroe" style="stroke:#181818;stroke-width:1.0;"/><polygon fill="#181818" points="717.38,479.89,716.5465,470.0765,714.9699,475.5092,709.5372,473.9326,717.38,479.89" style="stroke:#181818;stroke-width:1.0;"/><text fill="#000000" font-family="sans-serif" font-size="13" lengthAdjust="spacing" textLength="88" x="700.5" y="446.7686">Finaliza espera</text></g><!--link RecibeAtaque to FinVampiroGana--><g id="link_RecibeAtaque_FinVampiroGana"><path d="M456.88,520.64 C435.31,528.95 412.03,541.5 396.5,560 C385.73,572.83 381.8402,585.2763 379.8102,599.9863 " fill="none" id="RecibeAtaque-to-FinVampiroGana" style="stroke:#181818;stroke-width:1.0;"/><polygon fill="#181818" points="378.99,605.93,384.1828,597.5613,379.6735,600.9769,376.2579,596.4677,378.99,605.93" style="stroke:#181818;stroke-width:1.0;"/><text fill="#000000" font-family="sans-serif" font-size="13" lengthAdjust="spacing" textLength="87" x="397.5" y="572.7686">H&#233;roe HP &lt;= 0</text></g><!--link RecibeAtaqueVampiro to FinHeroeGana--><g id="link_RecibeAtaqueVampiro_FinHeroeGana"><path d="M249.06,530.2 C243.24,552.05 236.2732,578.2318 230.4632,600.0618 " fill="none" id="RecibeAtaqueVampiro-to-FinHeroeGana" style="stroke:#181818;stroke-width:1.0;"/><polygon fill="#181818" points="228.92,605.86,235.1002,598.1915,230.206,601.0282,227.3693,596.134,228.92,605.86" style="stroke:#181818;stroke-width:1.0;"/><text fill="#000000" font-family="sans-serif" font-size="13" lengthAdjust="spacing" textLength="101" x="241.5" y="572.7686">Vampiro HP &lt;= 0</text></g><!--link FinHeroeGana to *end*--><g id="link_FinHeroeGana_*end*"><path d="M237.72,656.2 C255.28,684.11 280.0339,723.4721 291.8039,742.1721 " fill="none" id="FinHeroeGana-to-*end*" style="stroke:#181818;stroke-width:1.0;"/><polygon fill="#181818" points="295,747.25,293.5911,737.5024,292.3366,743.0184,286.8206,741.7639,295,747.25" style="stroke:#181818;stroke-width:1.0;"/></g><!--link FinVampiroGana to *end*--><g id="link_FinVampiroGana_*end*"><path d="M362.47,656.2 C345.14,684.11 320.7168,723.4538 309.0968,742.1538 " fill="none" id="FinVampiroGana-to-*end*" style="stroke:#181818;stroke-width:1.0;"/><polygon fill="#181818" points="305.93,747.25,314.0776,741.7168,308.569,743.0031,307.2826,737.4945,305.93,747.25" style="stroke:#181818;stroke-width:1.0;"/></g><!--SRC=[ZLFBJiCm4BpxA_PSgL84joeWLMeXt2f0NAeUjl6sifGumKaGy4SSEF49_J4sJXmSnKKzsPcTcNqvszaEvlDRUD0gLSMYEn4oX3tMc6KekeWbFL56AN_efSbn0SdfonG4bAaZ0JBaSvSrlZRqWdcf3Fls5s3J58KOENdyXDXnSEx88oVBNT61T8LZigHKoVRWc2HJKK3uo9mzTVWWD1Piap4gV6-lC0jB9RcLdW7qhkgYmgbYdCNH3pnD9LqxOVPaNEFQVEf_GquBNHlifXUmlsYNe1jwmvnqJM9IixsjgChn0zkHh3MPu-aRdKqCrr5W_Fqz97Iq6AwYqFDOLoKPt1GjE5JRy5XBXau_MlY42tTTWMmCSeD0LXpqQ5ge1PuB_X_w9tUdD6Rg4vrmkXbcz2tTe_wRRxA1-0QYirjXcKtHYLp4gOJmurQmdUt4EDS0_m80]--></g></svg>