<?xml version="1.0" encoding="us-ascii" standalone="no"?><svg xmlns="http://www.w3.org/2000/svg" xmlns:xlink="http://www.w3.org/1999/xlink" contentStyleType="text/css" height="366px" preserveAspectRatio="none" style="width:537px;height:366px;background:#FFFFFF;" version="1.1" viewBox="0 0 537 366" width="537px" zoomAndPan="magnify"><defs/><g><!--class Guerrero--><g id="elem_Guerrero"><rect codeLine="1" fill="#F1F1F1" height="210.9688" id="Guerrero" rx="2.5" ry="2.5" style="stroke:#181818;stroke-width:0.5;" width="254" x="7" y="7"/><ellipse cx="97.75" cy="23" fill="#ADD1B2" rx="11" ry="11" style="stroke:#181818;stroke-width:1.0;"/><path d="M100.0938,18.6719 C99.1563,18.2344 98.5625,18.0938 97.6875,18.0938 C95.0625,18.0938 93.0625,20.1719 93.0625,22.8906 L93.0625,24.0156 C93.0625,26.5938 95.1719,28.4844 98.0625,28.4844 C99.2813,28.4844 100.4375,28.1875 101.1875,27.6406 C101.7656,27.2344 102.0938,26.7813 102.0938,26.3906 C102.0938,25.9375 101.7031,25.5469 101.2344,25.5469 C101.0156,25.5469 100.8125,25.625 100.625,25.8125 C100.1719,26.2969 100.1719,26.2969 99.9844,26.3906 C99.5625,26.6563 98.875,26.7813 98.1094,26.7813 C96.0625,26.7813 94.7656,25.6875 94.7656,23.9844 L94.7656,22.8906 C94.7656,21.1094 96.0156,19.7969 97.75,19.7969 C98.3281,19.7969 98.9375,19.9531 99.4063,20.2031 C99.8906,20.4844 100.0625,20.7031 100.1563,21.1094 C100.2188,21.5156 100.25,21.6406 100.3906,21.7656 C100.5313,21.9063 100.7656,22.0156 100.9844,22.0156 C101.25,22.0156 101.5156,21.875 101.6875,21.6563 C101.7969,21.5 101.8281,21.3125 101.8281,20.8906 L101.8281,19.4688 C101.8281,19.0313 101.8125,18.9063 101.7188,18.75 C101.5625,18.4844 101.2813,18.3438 100.9844,18.3438 C100.6875,18.3438 100.4844,18.4375 100.2656,18.75 L100.0938,18.6719 Z " fill="#000000"/><text fill="#000000" font-family="sans-serif" font-size="14" lengthAdjust="spacing" textLength="64" x="118.25" y="27.8467">Guerrero</text><line style="stroke:#181818;stroke-width:0.5;" x1="8" x2="260" y1="39" y2="39"/><rect fill="none" height="6" style="stroke:#C82930;stroke-width:1.0;" width="6" x="15" y="49.6484"/><text fill="#000000" font-family="sans-serif" font-size="14" lengthAdjust="spacing" textLength="91" x="27" y="55.9951">Poder: 20 HP</text><rect fill="none" height="6" style="stroke:#C82930;stroke-width:1.0;" width="6" x="15" y="65.9453"/><text fill="#000000" font-family="sans-serif" font-size="14" lengthAdjust="spacing" textLength="68" x="27" y="72.292">Ataque: 2</text><rect fill="none" height="6" style="stroke:#C82930;stroke-width:1.0;" width="6" x="15" y="82.2422"/><text fill="#000000" font-family="sans-serif" font-size="14" lengthAdjust="spacing" textLength="174" x="27" y="88.5889">Prob. &#233;xito ataque: 50%</text><line style="stroke:#181818;stroke-width:0.5;" x1="8" x2="260" y1="95.8906" y2="95.8906"/><rect fill="#F24D5C" height="6" style="stroke:#C82930;stroke-width:1.0;" width="6" x="15" y="106.5391"/><text fill="#000000" font-family="sans-serif" font-size="14" lengthAdjust="spacing" textLength="217" x="27" y="112.8857">Energ&#237;a inicial (Reto ext.): 150</text><rect fill="#F24D5C" height="6" style="stroke:#C82930;stroke-width:1.0;" width="6" x="15" y="122.8359"/><text fill="#000000" font-family="sans-serif" font-size="14" lengthAdjust="spacing" textLength="114" x="27" y="129.1826">Arma 1 (7, 50%)</text><rect fill="#F24D5C" height="6" style="stroke:#C82930;stroke-width:1.0;" width="6" x="15" y="139.1328"/><text fill="#000000" font-family="sans-serif" font-size="14" lengthAdjust="spacing" textLength="121" x="27" y="145.4795">Arma 2 (15, 25%)</text><rect fill="#F24D5C" height="6" style="stroke:#C82930;stroke-width:1.0;" width="6" x="15" y="155.4297"/><text fill="#000000" font-family="sans-serif" font-size="14" lengthAdjust="spacing" textLength="122" x="27" y="161.7764">Arma 3 (30, 12%)</text><rect fill="#F24D5C" height="6" style="stroke:#C82930;stroke-width:1.0;" width="6" x="15" y="171.7266"/><text fill="#000000" font-family="sans-serif" font-size="14" lengthAdjust="spacing" textLength="228" x="27" y="178.0732">Defensa (Reto adicional 1): 80%</text><rect fill="#F24D5C" height="6" style="stroke:#C82930;stroke-width:1.0;" width="6" x="15" y="188.0234"/><text fill="#000000" font-family="sans-serif" font-size="14" lengthAdjust="spacing" textLength="177" x="27" y="194.3701">Poci&#243;n (Reto adicional 3)</text><ellipse cx="18" cy="207.3203" fill="#84BE84" rx="3" ry="3" style="stroke:#038048;stroke-width:1.0;"/><text fill="#000000" font-family="sans-serif" font-size="14" lengthAdjust="spacing" textLength="59" x="27" y="210.667">batalla()</text></g><!--class Vampiro--><g id="elem_Vampiro"><rect codeLine="14" fill="#F1F1F1" height="178.375" id="Vampiro" rx="2.5" ry="2.5" style="stroke:#181818;stroke-width:0.5;" width="234" x="296" y="23.5"/><ellipse cx="378.25" cy="39.5" fill="#ADD1B2" rx="11" ry="11" style="stroke:#181818;stroke-width:1.0;"/><path d="M380.5938,35.1719 C379.6563,34.7344 379.0625,34.5938 378.1875,34.5938 C375.5625,34.5938 373.5625,36.6719 373.5625,39.3906 L373.5625,40.5156 C373.5625,43.0938 375.6719,44.9844 378.5625,44.9844 C379.7813,44.9844 380.9375,44.6875 381.6875,44.1406 C382.2656,43.7344 382.5938,43.2813 382.5938,42.8906 C382.5938,42.4375 382.2031,42.0469 381.7344,42.0469 C381.5156,42.0469 381.3125,42.125 381.125,42.3125 C380.6719,42.7969 380.6719,42.7969 380.4844,42.8906 C380.0625,43.1563 379.375,43.2813 378.6094,43.2813 C376.5625,43.2813 375.2656,42.1875 375.2656,40.4844 L375.2656,39.3906 C375.2656,37.6094 376.5156,36.2969 378.25,36.2969 C378.8281,36.2969 379.4375,36.4531 379.9063,36.7031 C380.3906,36.9844 380.5625,37.2031 380.6563,37.6094 C380.7188,38.0156 380.75,38.1406 380.8906,38.2656 C381.0313,38.4063 381.2656,38.5156 381.4844,38.5156 C381.75,38.5156 382.0156,38.375 382.1875,38.1563 C382.2969,38 382.3281,37.8125 382.3281,37.3906 L382.3281,35.9688 C382.3281,35.5313 382.3125,35.4063 382.2188,35.25 C382.0625,34.9844 381.7813,34.8438 381.4844,34.8438 C381.1875,34.8438 380.9844,34.9375 380.7656,35.25 L380.5938,35.1719 Z " fill="#000000"/><text fill="#000000" font-family="sans-serif" font-size="14" lengthAdjust="spacing" textLength="61" x="398.75" y="44.3467">Vampiro</text><line style="stroke:#181818;stroke-width:0.5;" x1="297" x2="529" y1="55.5" y2="55.5"/><rect fill="none" height="6" style="stroke:#C82930;stroke-width:1.0;" width="6" x="304" y="66.1484"/><text fill="#000000" font-family="sans-serif" font-size="14" lengthAdjust="spacing" textLength="92" x="316" y="72.4951">Poder: 10 HP</text><rect fill="none" height="6" style="stroke:#C82930;stroke-width:1.0;" width="6" x="304" y="82.4453"/><text fill="#000000" font-family="sans-serif" font-size="14" lengthAdjust="spacing" textLength="68" x="316" y="88.792">Ataque: 4</text><rect fill="none" height="6" style="stroke:#C82930;stroke-width:1.0;" width="6" x="304" y="98.7422"/><text fill="#000000" font-family="sans-serif" font-size="14" lengthAdjust="spacing" textLength="174" x="316" y="105.0889">Prob. &#233;xito ataque: 50%</text><line style="stroke:#181818;stroke-width:0.5;" x1="297" x2="529" y1="112.3906" y2="112.3906"/><rect fill="#F24D5C" height="6" style="stroke:#C82930;stroke-width:1.0;" width="6" x="304" y="123.0391"/><text fill="#000000" font-family="sans-serif" font-size="14" lengthAdjust="spacing" textLength="208" x="316" y="129.3857">Energ&#237;a inicial (Reto ext.): 60</text><rect fill="#F24D5C" height="6" style="stroke:#C82930;stroke-width:1.0;" width="6" x="304" y="139.3359"/><text fill="#000000" font-family="sans-serif" font-size="14" lengthAdjust="spacing" textLength="127" x="316" y="145.6826">Ataque 1 (5, 90%)</text><rect fill="#F24D5C" height="6" style="stroke:#C82930;stroke-width:1.0;" width="6" x="304" y="155.6328"/><text fill="#000000" font-family="sans-serif" font-size="14" lengthAdjust="spacing" textLength="135" x="316" y="161.9795">Ataque 2 (10, 60%)</text><rect fill="#F24D5C" height="6" style="stroke:#C82930;stroke-width:1.0;" width="6" x="304" y="171.9297"/><text fill="#000000" font-family="sans-serif" font-size="14" lengthAdjust="spacing" textLength="134" x="316" y="178.2764">Ataque 3 (20, 40%)</text><ellipse cx="307" cy="191.2266" fill="#84BE84" rx="3" ry="3" style="stroke:#038048;stroke-width:1.0;"/><text fill="#000000" font-family="sans-serif" font-size="14" lengthAdjust="spacing" textLength="59" x="316" y="194.5732">batalla()</text></g><!--class BatallaSimulador--><g id="elem_BatallaSimulador"><rect codeLine="25" fill="#F1F1F1" height="64.2969" id="BatallaSimulador" rx="2.5" ry="2.5" style="stroke:#181818;stroke-width:0.5;" width="269" x="138.5" y="295"/><ellipse cx="208.75" cy="311" fill="#ADD1B2" rx="11" ry="11" style="stroke:#181818;stroke-width:1.0;"/><path d="M211.0938,306.6719 C210.1563,306.2344 209.5625,306.0938 208.6875,306.0938 C206.0625,306.0938 204.0625,308.1719 204.0625,310.8906 L204.0625,312.0156 C204.0625,314.5938 206.1719,316.4844 209.0625,316.4844 C210.2813,316.4844 211.4375,316.1875 212.1875,315.6406 C212.7656,315.2344 213.0938,314.7813 213.0938,314.3906 C213.0938,313.9375 212.7031,313.5469 212.2344,313.5469 C212.0156,313.5469 211.8125,313.625 211.625,313.8125 C211.1719,314.2969 211.1719,314.2969 210.9844,314.3906 C210.5625,314.6563 209.875,314.7813 209.1094,314.7813 C207.0625,314.7813 205.7656,313.6875 205.7656,311.9844 L205.7656,310.8906 C205.7656,309.1094 207.0156,307.7969 208.75,307.7969 C209.3281,307.7969 209.9375,307.9531 210.4063,308.2031 C210.8906,308.4844 211.0625,308.7031 211.1563,309.1094 C211.2188,309.5156 211.25,309.6406 211.3906,309.7656 C211.5313,309.9063 211.7656,310.0156 211.9844,310.0156 C212.25,310.0156 212.5156,309.875 212.6875,309.6563 C212.7969,309.5 212.8281,309.3125 212.8281,308.8906 L212.8281,307.4688 C212.8281,307.0313 212.8125,306.9063 212.7188,306.75 C212.5625,306.4844 212.2813,306.3438 211.9844,306.3438 C211.6875,306.3438 211.4844,306.4375 211.2656,306.75 L211.0938,306.6719 Z " fill="#000000"/><text fill="#000000" font-family="sans-serif" font-size="14" lengthAdjust="spacing" textLength="120" x="229.25" y="315.8467">BatallaSimulador</text><line style="stroke:#181818;stroke-width:0.5;" x1="139.5" x2="406.5" y1="327" y2="327"/><line style="stroke:#181818;stroke-width:0.5;" x1="139.5" x2="406.5" y1="335" y2="335"/><ellipse cx="149.5" cy="348.6484" fill="#84BE84" rx="3" ry="3" style="stroke:#038048;stroke-width:1.0;"/><text fill="#000000" font-family="sans-serif" font-size="14" lengthAdjust="spacing" textLength="243" x="158.5" y="351.9951">simularBatalla(Guerrero, Vampiro)</text></g><!--link Guerrero to BatallaSimulador--><g id="link_Guerrero_BatallaSimulador"><path codeLine="29" d="M202.482,218.194 C220.71,246.061 235.7475,269.0492 249.1455,289.5317 " fill="none" id="Guerrero-to-BatallaSimulador" style="stroke:#181818;stroke-width:1.0;"/><polygon fill="#181818" points="252.43,294.5529,250.8508,284.8315,249.693,290.3686,244.1559,289.2108,252.43,294.5529" style="stroke:#181818;stroke-width:1.0;"/><text fill="#000000" font-family="sans-serif" font-size="13" lengthAdjust="spacing" textLength="23" x="233" y="261.0669">usa</text></g><!--link Vampiro to BatallaSimulador--><g id="link_Vampiro_BatallaSimulador"><path codeLine="30" d="M354.844,201.773 C333.057,234.842 312.995,265.2939 296.83,289.829 " fill="none" id="Vampiro-to-BatallaSimulador" style="stroke:#181818;stroke-width:1.0;"/><polygon fill="#181818" points="293.529,294.8393,301.8208,289.5245,296.2799,290.6641,295.1404,285.1232,293.529,294.8393" style="stroke:#181818;stroke-width:1.0;"/><text fill="#000000" font-family="sans-serif" font-size="13" lengthAdjust="spacing" textLength="23" x="324" y="261.0669">usa</text></g><!--SRC=[fPB1JeGm54NtVCNTc9GCJ2WCCyh2HAFH9T74_Hlec2P0jK0oYV63NBZo4_WnIu5nCkZAPSzxlU_TssO5rJNkMg6rq0fl3k0ZLRdG2S80zwa5LmszjiAGeQpLTedkOoyR1HfBSN1cYxULqC_T9q5MCfDKW3q8qoRspT9DmEDW4DGbWODjlFwY-yD2C1vx2EDZ6855WGSUZl16x4HLqoXDkHcaAZEAcmddunwfocJtLSrwebvYWQtPkoY8kSwxusGsX2SgN-Hf1doMmUg_6Qo38xq-1EFtuX32GFiOZEFr2JP1X0Ql1lohY-i1FSgoBIXNsjfPeBPdFLRPzE3UvDeg7Bw1xr_EXHAqDJbJId-tV0C0]--></g></svg>