<?xml version="1.0" encoding="us-ascii" standalone="no"?><svg xmlns="http://www.w3.org/2000/svg" xmlns:xlink="http://www.w3.org/1999/xlink" contentStyleType="text/css" height="358px" preserveAspectRatio="none" style="width:488px;height:358px;background:#FFFFFF;" version="1.1" viewBox="0 0 488 358" width="488px" zoomAndPan="magnify"><defs/><g><!--class Guerrero--><g id="elem_Guerrero"><rect codeLine="2" fill="#F1F1F1" height="204.4063" id="Guerrero" rx="2.5" ry="2.5" style="stroke:#181818;stroke-width:0.5;" width="231" x="7" y="147"/><ellipse cx="89.25" cy="163" fill="#ADD1B2" rx="11" ry="11" style="stroke:#181818;stroke-width:1.0;"/><path d="M92.0156,158.875 Q92.1719,158.6563 92.3594,158.5469 Q92.5469,158.4375 92.7656,158.4375 Q93.1406,158.4375 93.375,158.7031 Q93.6094,158.9531 93.6094,159.5625 L93.6094,161.0156 Q93.6094,161.625 93.375,161.8906 Q93.1406,162.1563 92.7656,162.1563 Q92.4219,162.1563 92.2188,161.9531 Q92.0156,161.7656 91.9063,161.25 Q91.8594,160.8906 91.6719,160.7031 Q91.3438,160.3281 90.7344,160.1094 Q90.125,159.8906 89.5,159.8906 Q88.7344,159.8906 88.0938,160.2188 Q87.4688,160.5469 86.9688,161.2969 Q86.4844,162.0469 86.4844,163.0781 L86.4844,164.1719 Q86.4844,165.4063 87.375,166.2344 Q88.2656,167.0469 89.8594,167.0469 Q90.7969,167.0469 91.4531,166.7969 Q91.8438,166.6406 92.2656,166.2031 Q92.5313,165.9375 92.6719,165.8594 Q92.8281,165.7813 93.0313,165.7813 Q93.3594,165.7813 93.6094,166.0469 Q93.875,166.2969 93.875,166.6406 Q93.875,166.9844 93.5313,167.3906 Q93.0313,167.9688 92.2344,168.2969 Q91.1563,168.75 89.8594,168.75 Q88.3438,168.75 87.1406,168.125 Q86.1563,167.625 85.4688,166.5625 Q84.7813,165.4844 84.7813,164.2031 L84.7813,163.0469 Q84.7813,161.7188 85.3906,160.5781 Q86.0156,159.4219 87.1094,158.8125 Q88.2031,158.1875 89.4375,158.1875 Q90.1719,158.1875 90.8125,158.3594 Q91.4688,158.5156 92.0156,158.875 Z " fill="#000000"/><text fill="#000000" font-family="sans-serif" font-size="14" lengthAdjust="spacing" textLength="58" x="109.75" y="167.8535">Guerrero</text><line style="stroke:#181818;stroke-width:0.5;" x1="8" x2="237" y1="179" y2="179"/><rect fill="none" height="6" style="stroke:#C82930;stroke-width:1.0;" width="6" x="15" y="189.3203"/><text fill="#000000" font-family="sans-serif" font-size="14" lengthAdjust="spacing" textLength="84" x="27" y="195.6738">Poder: 20 HP</text><rect fill="none" height="6" style="stroke:#C82930;stroke-width:1.0;" width="6" x="15" y="204.9609"/><text fill="#000000" font-family="sans-serif" font-size="14" lengthAdjust="spacing" textLength="61" x="27" y="211.3145">Ataque: 2</text><rect fill="none" height="6" style="stroke:#C82930;stroke-width:1.0;" width="6" x="15" y="220.6016"/><text fill="#000000" font-family="sans-serif" font-size="14" lengthAdjust="spacing" textLength="151" x="27" y="226.9551">Prob. &#233;xito ataque: 50%</text><line style="stroke:#181818;stroke-width:0.5;" x1="8" x2="237" y1="233.9219" y2="233.9219"/><rect fill="#F24D5C" height="6" style="stroke:#C82930;stroke-width:1.0;" width="6" x="15" y="244.2422"/><text fill="#000000" font-family="sans-serif" font-size="14" lengthAdjust="spacing" textLength="190" x="27" y="250.5957">Energ&#237;a inicial (Reto ext.): 150</text><rect fill="#F24D5C" height="6" style="stroke:#C82930;stroke-width:1.0;" width="6" x="15" y="259.8828"/><text fill="#000000" font-family="sans-serif" font-size="14" lengthAdjust="spacing" textLength="103" x="27" y="266.2363">Arma 1 (7, 50%)</text><rect fill="#F24D5C" height="6" style="stroke:#C82930;stroke-width:1.0;" width="6" x="15" y="275.5234"/><text fill="#000000" font-family="sans-serif" font-size="14" lengthAdjust="spacing" textLength="111" x="27" y="281.877">Arma 2 (15, 25%)</text><rect fill="#F24D5C" height="6" style="stroke:#C82930;stroke-width:1.0;" width="6" x="15" y="291.1641"/><text fill="#000000" font-family="sans-serif" font-size="14" lengthAdjust="spacing" textLength="111" x="27" y="297.5176">Arma 3 (30, 12%)</text><rect fill="#F24D5C" height="6" style="stroke:#C82930;stroke-width:1.0;" width="6" x="15" y="306.8047"/><text fill="#000000" font-family="sans-serif" font-size="14" lengthAdjust="spacing" textLength="205" x="27" y="313.1582">Defensa (Reto adicional 1): 80%</text><rect fill="#F24D5C" height="6" style="stroke:#C82930;stroke-width:1.0;" width="6" x="15" y="322.4453"/><text fill="#000000" font-family="sans-serif" font-size="14" lengthAdjust="spacing" textLength="159" x="27" y="328.7988">Poci&#243;n (Reto adicional 3)</text><ellipse cx="18" cy="341.0859" fill="#84BE84" rx="3" ry="3" style="stroke:#038048;stroke-width:1.0;"/><text fill="#000000" font-family="sans-serif" font-size="14" lengthAdjust="spacing" textLength="52" x="27" y="344.4395">batalla()</text></g><!--class Vampiro--><g id="elem_Vampiro"><rect codeLine="15" fill="#F1F1F1" height="173.125" id="Vampiro" rx="2.5" ry="2.5" style="stroke:#181818;stroke-width:0.5;" width="208" x="273.5" y="162.5"/><ellipse cx="347.25" cy="178.5" fill="#ADD1B2" rx="11" ry="11" style="stroke:#181818;stroke-width:1.0;"/><path d="M350.0156,174.375 Q350.1719,174.1563 350.3594,174.0469 Q350.5469,173.9375 350.7656,173.9375 Q351.1406,173.9375 351.375,174.2031 Q351.6094,174.4531 351.6094,175.0625 L351.6094,176.5156 Q351.6094,177.125 351.375,177.3906 Q351.1406,177.6563 350.7656,177.6563 Q350.4219,177.6563 350.2188,177.4531 Q350.0156,177.2656 349.9063,176.75 Q349.8594,176.3906 349.6719,176.2031 Q349.3438,175.8281 348.7344,175.6094 Q348.125,175.3906 347.5,175.3906 Q346.7344,175.3906 346.0938,175.7188 Q345.4688,176.0469 344.9688,176.7969 Q344.4844,177.5469 344.4844,178.5781 L344.4844,179.6719 Q344.4844,180.9063 345.375,181.7344 Q346.2656,182.5469 347.8594,182.5469 Q348.7969,182.5469 349.4531,182.2969 Q349.8438,182.1406 350.2656,181.7031 Q350.5313,181.4375 350.6719,181.3594 Q350.8281,181.2813 351.0313,181.2813 Q351.3594,181.2813 351.6094,181.5469 Q351.875,181.7969 351.875,182.1406 Q351.875,182.4844 351.5313,182.8906 Q351.0313,183.4688 350.2344,183.7969 Q349.1563,184.25 347.8594,184.25 Q346.3438,184.25 345.1406,183.625 Q344.1563,183.125 343.4688,182.0625 Q342.7813,180.9844 342.7813,179.7031 L342.7813,178.5469 Q342.7813,177.2188 343.3906,176.0781 Q344.0156,174.9219 345.1094,174.3125 Q346.2031,173.6875 347.4375,173.6875 Q348.1719,173.6875 348.8125,173.8594 Q349.4688,174.0156 350.0156,174.375 Z " fill="#000000"/><text fill="#000000" font-family="sans-serif" font-size="14" lengthAdjust="spacing" textLength="52" x="367.75" y="183.3535">Vampiro</text><line style="stroke:#181818;stroke-width:0.5;" x1="274.5" x2="480.5" y1="194.5" y2="194.5"/><rect fill="none" height="6" style="stroke:#C82930;stroke-width:1.0;" width="6" x="281.5" y="204.8203"/><text fill="#000000" font-family="sans-serif" font-size="14" lengthAdjust="spacing" textLength="84" x="293.5" y="211.1738">Poder: 10 HP</text><rect fill="none" height="6" style="stroke:#C82930;stroke-width:1.0;" width="6" x="281.5" y="220.4609"/><text fill="#000000" font-family="sans-serif" font-size="14" lengthAdjust="spacing" textLength="61" x="293.5" y="226.8145">Ataque: 4</text><rect fill="none" height="6" style="stroke:#C82930;stroke-width:1.0;" width="6" x="281.5" y="236.1016"/><text fill="#000000" font-family="sans-serif" font-size="14" lengthAdjust="spacing" textLength="151" x="293.5" y="242.4551">Prob. &#233;xito ataque: 50%</text><line style="stroke:#181818;stroke-width:0.5;" x1="274.5" x2="480.5" y1="249.4219" y2="249.4219"/><rect fill="#F24D5C" height="6" style="stroke:#C82930;stroke-width:1.0;" width="6" x="281.5" y="259.7422"/><text fill="#000000" font-family="sans-serif" font-size="14" lengthAdjust="spacing" textLength="182" x="293.5" y="266.0957">Energ&#237;a inicial (Reto ext.): 60</text><rect fill="#F24D5C" height="6" style="stroke:#C82930;stroke-width:1.0;" width="6" x="281.5" y="275.3828"/><text fill="#000000" font-family="sans-serif" font-size="14" lengthAdjust="spacing" textLength="115" x="293.5" y="281.7363">Ataque 1 (5, 90%)</text><rect fill="#F24D5C" height="6" style="stroke:#C82930;stroke-width:1.0;" width="6" x="281.5" y="291.0234"/><text fill="#000000" font-family="sans-serif" font-size="14" lengthAdjust="spacing" textLength="123" x="293.5" y="297.377">Ataque 2 (10, 60%)</text><rect fill="#F24D5C" height="6" style="stroke:#C82930;stroke-width:1.0;" width="6" x="281.5" y="306.6641"/><text fill="#000000" font-family="sans-serif" font-size="14" lengthAdjust="spacing" textLength="123" x="293.5" y="313.0176">Ataque 3 (20, 40%)</text><ellipse cx="284.5" cy="325.3047" fill="#84BE84" rx="3" ry="3" style="stroke:#038048;stroke-width:1.0;"/><text fill="#000000" font-family="sans-serif" font-size="14" lengthAdjust="spacing" textLength="52" x="293.5" y="328.6582">batalla()</text></g><!--class BatallaSimulador--><g id="elem_BatallaSimulador"><rect codeLine="26" fill="#F1F1F1" height="63.6406" id="BatallaSimulador" rx="2.5" ry="2.5" style="stroke:#181818;stroke-width:0.5;" width="242" x="128.5" y="7"/><ellipse cx="192.25" cy="23" fill="#ADD1B2" rx="11" ry="11" style="stroke:#181818;stroke-width:1.0;"/><path d="M195.0156,18.875 Q195.1719,18.6563 195.3594,18.5469 Q195.5469,18.4375 195.7656,18.4375 Q196.1406,18.4375 196.375,18.7031 Q196.6094,18.9531 196.6094,19.5625 L196.6094,21.0156 Q196.6094,21.625 196.375,21.8906 Q196.1406,22.1563 195.7656,22.1563 Q195.4219,22.1563 195.2188,21.9531 Q195.0156,21.7656 194.9063,21.25 Q194.8594,20.8906 194.6719,20.7031 Q194.3438,20.3281 193.7344,20.1094 Q193.125,19.8906 192.5,19.8906 Q191.7344,19.8906 191.0938,20.2188 Q190.4688,20.5469 189.9688,21.2969 Q189.4844,22.0469 189.4844,23.0781 L189.4844,24.1719 Q189.4844,25.4063 190.375,26.2344 Q191.2656,27.0469 192.8594,27.0469 Q193.7969,27.0469 194.4531,26.7969 Q194.8438,26.6406 195.2656,26.2031 Q195.5313,25.9375 195.6719,25.8594 Q195.8281,25.7813 196.0313,25.7813 Q196.3594,25.7813 196.6094,26.0469 Q196.875,26.2969 196.875,26.6406 Q196.875,26.9844 196.5313,27.3906 Q196.0313,27.9688 195.2344,28.2969 Q194.1563,28.75 192.8594,28.75 Q191.3438,28.75 190.1406,28.125 Q189.1563,27.625 188.4688,26.5625 Q187.7813,25.4844 187.7813,24.2031 L187.7813,23.0469 Q187.7813,21.7188 188.3906,20.5781 Q189.0156,19.4219 190.1094,18.8125 Q191.2031,18.1875 192.4375,18.1875 Q193.1719,18.1875 193.8125,18.3594 Q194.4688,18.5156 195.0156,18.875 Z " fill="#000000"/><text fill="#000000" font-family="sans-serif" font-size="14" lengthAdjust="spacing" textLength="106" x="212.75" y="27.8535">BatallaSimulador</text><line style="stroke:#181818;stroke-width:0.5;" x1="129.5" x2="369.5" y1="39" y2="39"/><line style="stroke:#181818;stroke-width:0.5;" x1="129.5" x2="369.5" y1="47" y2="47"/><ellipse cx="139.5" cy="60.3203" fill="#84BE84" rx="3" ry="3" style="stroke:#038048;stroke-width:1.0;"/><text fill="#000000" font-family="sans-serif" font-size="14" lengthAdjust="spacing" textLength="216" x="148.5" y="63.6738">simularBatalla(Guerrero, Vampiro)</text></g><!--link BatallaSimulador to Guerrero--><g id="link_BatallaSimulador_Guerrero"><path codeLine="30" d="M230.49,71.14 C218.1,91.43 204.3069,114.0192 187.5269,141.4992 " fill="none" id="BatallaSimulador-to-Guerrero" style="stroke:#181818;stroke-width:1.0;"/><polygon fill="#181818" points="184.4,146.62,192.5042,141.0234,187.0057,142.3527,185.6765,136.8542,184.4,146.62" style="stroke:#181818;stroke-width:1.0;"/><text fill="#000000" font-family="sans-serif" font-size="13" lengthAdjust="spacing" textLength="21" x="213.5" y="113.7686">usa</text></g><!--link BatallaSimulador to Vampiro--><g id="link_BatallaSimulador_Vampiro"><path codeLine="31" d="M268.66,71.14 C283.52,95.28 301.7057,124.8299 321.5557,157.0899 " fill="none" id="BatallaSimulador-to-Vampiro" style="stroke:#181818;stroke-width:1.0;"/><polygon fill="#181818" points="324.7,162.2,323.3903,152.4386,322.0797,157.9416,316.5768,156.631,324.7,162.2" style="stroke:#181818;stroke-width:1.0;"/><text fill="#000000" font-family="sans-serif" font-size="13" lengthAdjust="spacing" textLength="21" x="296.5" y="113.7686">usa</text></g><!--SRC=[fPB1JeGm54NtVCNTc9GCJ2WpZCh2HAFH9T74_HkefWbGBP1COlmW5wxy17xCqe8p6MRdikUztlVkRVEIcWRtdT1QQ8KF3mYHgKBe5764Xyo2wvRUEs68AskrNQB_sibMWSPI4ftPubqjz6l_JP2rp2MLO8_2j8bTk_HJy2HoWheYSB3pOBZexraCnfC0SN88Ls2hA02FHtWhNaJTq2XDXHcaQZEAcmaNunwPocN_KyzwLeF40bkpTraIyxrFpyjj2CzKlSdZ3FWiW_L_CzX41tf32CRlvLy8ZWun6CUR8so2Y0rUEtpInOr3JxBgIYgKjdOMQEnPZrKsFNWmkROAixjXUBN_6ocwXaxtJD6vbby0]--></g></svg>