<svg xmlns="http://www.w3.org/2000/svg" xmlns:xlink="http://www.w3.org/1999/xlink" contentStyleType="text/css" height="949px" preserveAspectRatio="none" style="width:525px;height:949px;background:#FFFFFF;" version="1.1" viewBox="0 0 525 949" width="525px" zoomAndPan="magnify"><defs><filter height="300%" id="f164ydypyxazxx" width="300%" x="-1" y="-1"><feGaussianBlur result="blurOut" stdDeviation="2.0"/><feColorMatrix in="blurOut" result="blurOut2" type="matrix" values="0 0 0 0 0 0 0 0 0 0 0 0 0 0 0 0 0 0 .4 0"/><feOffset dx="4.0" dy="4.0" in="blurOut2" result="blurOut3"/><feBlend in="SourceGraphic" in2="blurOut3" mode="normal"/></filter></defs><g><text fill="#000000" font-family="sans-serif" font-size="14" font-weight="bold" lengthAdjust="spacing" textLength="307" x="102" y="22.9951">Caso de Uso: Execute Simulation Cycle</text><g id="SIMULATION_RUNNING"><rect fill="#FEFECE" filter="url(#f164ydypyxazxx)" height="50" rx="12.5" ry="12.5" style="stroke:#A80036;stroke-width:1.0;" width="153" x="149.5" y="123.2969"/><line style="stroke:#A80036;stroke-width:1.0;" x1="149.5" x2="302.5" y1="149.5938" y2="149.5938"/><text fill="#000000" font-family="sans-serif" font-size="14" lengthAdjust="spacing" textLength="133" x="159.5" y="141.292">Simulation Running</text></g><g id="ExecuteSimulationCycle"><rect fill="#FEFECE" filter="url(#f164ydypyxazxx)" height="50" rx="12.5" ry="12.5" style="stroke:#A80036;stroke-width:1.0;" width="192" x="7" y="250.2969"/><line style="stroke:#A80036;stroke-width:1.0;" x1="7" x2="199" y1="276.5938" y2="276.5938"/><text fill="#000000" font-family="sans-serif" font-size="14" lengthAdjust="spacing" textLength="172" x="17" y="268.292">Execute Simulation Cycle</text></g><g id="MoveTime"><rect fill="#FEFECE" filter="url(#f164ydypyxazxx)" height="50" rx="12.5" ry="12.5" style="stroke:#A80036;stroke-width:1.0;" width="95" x="38.5" y="377.2969"/><line style="stroke:#A80036;stroke-width:1.0;" x1="38.5" x2="133.5" y1="403.5938" y2="403.5938"/><text fill="#000000" font-family="sans-serif" font-size="14" lengthAdjust="spacing" textLength="75" x="48.5" y="395.292">Move Time</text></g><g id="MoveNPC"><rect fill="#FEFECE" filter="url(#f164ydypyxazxx)" height="50" rx="12.5" ry="12.5" style="stroke:#A80036;stroke-width:1.0;" width="90" x="43" y="504.2969"/><line style="stroke:#A80036;stroke-width:1.0;" x1="43" x2="133" y1="530.5938" y2="530.5938"/><text fill="#000000" font-family="sans-serif" font-size="14" lengthAdjust="spacing" textLength="70" x="53" y="522.292">Move NPC</text></g><g id="InitializeMap"><rect fill="#FEFECE" filter="url(#f164ydypyxazxx)" height="50" rx="12.5" ry="12.5" style="stroke:#A80036;stroke-width:1.0;" width="107" x="92.5" y="631.2969"/><line style="stroke:#A80036;stroke-width:1.0;" x1="92.5" x2="199.5" y1="657.5938" y2="657.5938"/><text fill="#000000" font-family="sans-serif" font-size="14" lengthAdjust="spacing" textLength="87" x="102.5" y="649.292">Initialize Map</text></g><g id="InitializeEntities"><rect fill="#FEFECE" filter="url(#f164ydypyxazxx)" height="50" rx="12.5" ry="12.5" style="stroke:#A80036;stroke-width:1.0;" width="129" x="97.5" y="758.2969"/><line style="stroke:#A80036;stroke-width:1.0;" x1="97.5" x2="226.5" y1="784.5938" y2="784.5938"/><text fill="#000000" font-family="sans-serif" font-size="14" lengthAdjust="spacing" textLength="109" x="107.5" y="776.292">Initialize Entities</text></g><g id="MoveTransport"><rect fill="#FEFECE" filter="url(#f164ydypyxazxx)" height="50" rx="12.5" ry="12.5" style="stroke:#A80036;stroke-width:1.0;" width="128" x="191" y="885.2969"/><line style="stroke:#A80036;stroke-width:1.0;" x1="191" x2="319" y1="911.5938" y2="911.5938"/><text fill="#000000" font-family="sans-serif" font-size="14" lengthAdjust="spacing" textLength="108" x="201" y="903.292">Move Transport</text></g><ellipse cx="226" cy="53.2969" fill="#000000" filter="url(#f164ydypyxazxx)" rx="10" ry="10" style="stroke:#000000;stroke-width:1.0;"/><!--link *start* to SIMULATION_RUNNING--><g id="link_*start*_SIMULATION_RUNNING"><path d="M226,63.5569 C226,77.2469 226,97.3669 226,116.8169 " fill="none" id="*start*-to-SIMULATION_RUNNING" style="stroke:#A80036;stroke-width:1.0;"/><polygon fill="#A80036" points="226,122.8169,230,113.8169,226,117.8169,222,113.8169,226,122.8169" style="stroke:#A80036;stroke-width:1.0;"/></g><!--link SIMULATION_RUNNING to ExecuteSimulationCycle--><g id="link_SIMULATION_RUNNING_ExecuteSimulationCycle"><path d="M149.18,167.1769 C131.04,175.1669 113.84,186.6969 103,203.2969 C94.1,216.9169 93.4277,229.4429 95.7877,244.1229 " fill="none" id="SIMULATION_RUNNING-to-ExecuteSimulationCycle" style="stroke:#0000FF;stroke-width:1.0;"/><polygon fill="#0000FF" points="96.74,250.0469,99.2608,240.5261,95.9464,245.1103,91.3622,241.7959,96.74,250.0469" style="stroke:#0000FF;stroke-width:1.0;"/><text fill="#000000" font-family="sans-serif" font-size="13" lengthAdjust="spacing" textLength="217" x="104" y="216.3638">System executes simulation cycle</text></g><!--link ExecuteSimulationCycle to MoveTime--><g id="link_ExecuteSimulationCycle_MoveTime"><path d="M99.68,300.6969 C96.69,322.7169 93.108,349.0115 90.118,371.0115 " fill="none" id="ExecuteSimulationCycle-to-MoveTime" style="stroke:#0000FF;stroke-width:1.0;"/><polygon fill="#0000FF" points="89.31,376.9569,94.4856,368.5775,89.9834,372.0024,86.5585,367.5002,89.31,376.9569" style="stroke:#0000FF;stroke-width:1.0;"/><text fill="#000000" font-family="sans-serif" font-size="13" lengthAdjust="spacing" textLength="129" x="97" y="343.3638">System moves time</text></g><!--link MoveTime to MoveNPC--><g id="link_MoveTime_MoveNPC"><path d="M82.04,427.6069 C80.29,441.3069 78.85,458.7569 80,474.2969 C80.72,484.0369 81.2136,488.7504 82.6736,497.9904 " fill="none" id="MoveTime-to-MoveNPC" style="stroke:#0000FF;stroke-width:1.0;"/><polygon fill="#0000FF" points="83.61,503.9169,86.1563,494.4029,82.8296,498.9781,78.2544,495.6515,83.61,503.9169" style="stroke:#0000FF;stroke-width:1.0;"/><text fill="#000000" font-family="sans-serif" font-size="13" lengthAdjust="spacing" textLength="240" x="81" y="470.3638">System moves non-player characters</text></g><!--link MoveNPC to InitializeMap--><g id="link_MoveNPC_InitializeMap"><path d="M99.32,554.6969 C109.54,576.7169 121.9742,603.5144 132.1842,625.5144 " fill="none" id="MoveNPC-to-InitializeMap" style="stroke:#0000FF;stroke-width:1.0;"/><polygon fill="#0000FF" points="134.71,630.9569,134.5496,621.1093,132.6052,626.4215,127.293,624.4771,134.71,630.9569" style="stroke:#0000FF;stroke-width:1.0;"/><text fill="#000000" font-family="sans-serif" font-size="13" lengthAdjust="spacing" textLength="144" x="122" y="597.3638">System initializes map</text></g><!--link InitializeMap to InitializeEntities--><g id="link_InitializeMap_InitializeEntities"><path d="M149.12,681.6969 C151.94,703.7169 155.3098,730.0052 158.1198,752.0052 " fill="none" id="InitializeMap-to-InitializeEntities" style="stroke:#0000FF;stroke-width:1.0;"/><polygon fill="#0000FF" points="158.88,757.9569,161.7075,748.5226,158.2465,752.9972,153.772,749.5362,158.88,757.9569" style="stroke:#0000FF;stroke-width:1.0;"/><text fill="#000000" font-family="sans-serif" font-size="13" lengthAdjust="spacing" textLength="162" x="156" y="724.3638">System initializes entities</text></g><!--link InitializeEntities to MoveTransport--><g id="link_InitializeEntities_MoveTransport"><path d="M155.73,808.5569 C153.36,823.0569 152.91,841.3169 161,855.2969 C168.07,867.5169 173.9999,873.9985 186.0099,881.5985 " fill="none" id="InitializeEntities-to-MoveTransport" style="stroke:#0000FF;stroke-width:1.0;"/><polygon fill="#0000FF" points="191.08,884.8069,185.6138,876.6142,186.8549,882.1332,181.3359,883.3744,191.08,884.8069" style="stroke:#0000FF;stroke-width:1.0;"/><text fill="#000000" font-family="sans-serif" font-size="13" lengthAdjust="spacing" textLength="159" x="162" y="851.3638">System moves transport</text></g><!--link MoveTransport to SIMULATION_RUNNING--><g id="link_MoveTransport_SIMULATION_RUNNING"><path d="M295.76,885.0369 C306.86,876.7769 318.01,866.7169 326,855.2969 C344.94,828.2269 348,817.3369 348,784.2969 C348,274.2969 348,274.2969 348,274.2969 C348,241.2569 346.98,228.8169 326,203.2969 C316.1,191.2569 308.0137,184.4586 294.3337,176.7286 " fill="none" id="MoveTransport-to-SIMULATION_RUNNING" style="stroke:#0000FF;stroke-width:1.0;"/><polygon fill="#0000FF" points="289.11,173.7769,294.9778,181.6869,293.4631,176.2366,298.9134,174.722,289.11,173.7769" style="stroke:#0000FF;stroke-width:1.0;"/><text fill="#000000" font-family="sans-serif" font-size="13" lengthAdjust="spacing" textLength="168" x="349" y="533.8638">Simulation cycle complete</text></g><!--SRC=[TLBBQeGm5DtdAoxJNS4VS54eCXIXsZ8pheQXfFRI2Os9vCPI-_LLnyHeTPdpCZb7-X8AZ2PaLbY9a73Iy85Ga8vX_uDbOn6Eeceajq8hIDfI8cDaUO-dMV7yU4fVyhT3aUTf_WISO1V83urIGdtkHiCOE0c6kC6qzIrdpVGtdaHr4_S7w4yXcxyc4zaT79SgOGMNuXSpNW-A2O4E-g_RgwuCWRGKEtns9yCLrThOu68EsZ5slhz053siLCLMselET- -omKjdsAWgXcDB5Yl06qz0Ks7bCCw6CyZsNVgqgaC8R8SnJouCVRqBlT8ggYLlqK1vvOQN5Wqn9mxyymbyYl0mGSLhDfUj-lqqgo4uicp5i7o_tsrPWYFON1RuLvQBmnzts05ANTKIBVu1]--></g></svg>