<svg xmlns="http://www.w3.org/2000/svg" xmlns:xlink="http://www.w3.org/1999/xlink" contentStyleType="text/css" height="822px" preserveAspectRatio="none" style="width:409px;height:822px;background:#FFFFFF;" version="1.1" viewBox="0 0 409 822" width="409px" zoomAndPan="magnify"><defs><filter height="300%" id="f36ptn4iebquv" width="300%" x="-1" y="-1"><feGaussianBlur result="blurOut" stdDeviation="2.0"/><feColorMatrix in="blurOut" result="blurOut2" type="matrix" values="0 0 0 0 0 0 0 0 0 0 0 0 0 0 0 0 0 0 .4 0"/><feOffset dx="4.0" dy="4.0" in="blurOut2" result="blurOut3"/><feBlend in="SourceGraphic" in2="blurOut3" mode="normal"/></filter></defs><g><text fill="#000000" font-family="sans-serif" font-size="14" font-weight="bold" lengthAdjust="spacing" textLength="307" x="44.25" y="22.9951">Caso de Uso: Execute Simulation Cycle</text><g id="SIMULATION_ACTIVE"><rect fill="#FEFECE" filter="url(#f36ptn4iebquv)" height="50" rx="12.5" ry="12.5" style="stroke:#A80036;stroke-width:1.0;" width="136" x="100.5" y="123.2969"/><line style="stroke:#A80036;stroke-width:1.0;" x1="100.5" x2="236.5" y1="149.5938" y2="149.5938"/><text fill="#000000" font-family="sans-serif" font-size="14" lengthAdjust="spacing" textLength="116" x="110.5" y="141.292">Simulation Active</text></g><g id="InitializeMap"><rect fill="#FEFECE" filter="url(#f36ptn4iebquv)" height="50" rx="12.5" ry="12.5" style="stroke:#A80036;stroke-width:1.0;" width="107" x="7" y="250.2969"/><line style="stroke:#A80036;stroke-width:1.0;" x1="7" x2="114" y1="276.5938" y2="276.5938"/><text fill="#000000" font-family="sans-serif" font-size="14" lengthAdjust="spacing" textLength="87" x="17" y="268.292">Initialize Map</text></g><g id="InitializeEntities"><rect fill="#FEFECE" filter="url(#f36ptn4iebquv)" height="50" rx="12.5" ry="12.5" style="stroke:#A80036;stroke-width:1.0;" width="129" x="52" y="377.2969"/><line style="stroke:#A80036;stroke-width:1.0;" x1="52" x2="181" y1="403.5938" y2="403.5938"/><text fill="#000000" font-family="sans-serif" font-size="14" lengthAdjust="spacing" textLength="109" x="62" y="395.292">Initialize Entities</text></g><g id="AdvanceTime"><rect fill="#FEFECE" filter="url(#f36ptn4iebquv)" height="50" rx="12.5" ry="12.5" style="stroke:#A80036;stroke-width:1.0;" width="172" x="51.5" y="504.2969"/><line style="stroke:#A80036;stroke-width:1.0;" x1="51.5" x2="223.5" y1="530.5938" y2="530.5938"/><text fill="#000000" font-family="sans-serif" font-size="14" lengthAdjust="spacing" textLength="152" x="61.5" y="522.292">Advance Precise Time</text></g><g id="MoveNPC"><rect fill="#FEFECE" filter="url(#f36ptn4iebquv)" height="50" rx="12.5" ry="12.5" style="stroke:#A80036;stroke-width:1.0;" width="90" x="119.5" y="631.2969"/><line style="stroke:#A80036;stroke-width:1.0;" x1="119.5" x2="209.5" y1="657.5938" y2="657.5938"/><text fill="#000000" font-family="sans-serif" font-size="14" lengthAdjust="spacing" textLength="70" x="129.5" y="649.292">Move NPC</text></g><g id="UpdateTransport"><rect fill="#FEFECE" filter="url(#f36ptn4iebquv)" height="50" rx="12.5" ry="12.5" style="stroke:#A80036;stroke-width:1.0;" width="141" x="154" y="758.2969"/><line style="stroke:#A80036;stroke-width:1.0;" x1="154" x2="295" y1="784.5938" y2="784.5938"/><text fill="#000000" font-family="sans-serif" font-size="14" lengthAdjust="spacing" textLength="121" x="164" y="776.292">Update Transport</text></g><ellipse cx="168.5" cy="53.2969" fill="#000000" filter="url(#f36ptn4iebquv)" rx="10" ry="10" style="stroke:#000000;stroke-width:1.0;"/><!--link *start* to SIMULATION_ACTIVE--><g id="link_*start*_SIMULATION_ACTIVE"><path d="M168.5,63.5569 C168.5,77.2469 168.5,97.3669 168.5,116.8169 " fill="none" id="*start*-to-SIMULATION_ACTIVE" style="stroke:#A80036;stroke-width:1.0;"/><polygon fill="#A80036" points="168.5,122.8169,172.5,113.8169,168.5,117.8169,164.5,113.8169,168.5,122.8169" style="stroke:#A80036;stroke-width:1.0;"/></g><!--link SIMULATION_ACTIVE to InitializeMap--><g id="link_SIMULATION_ACTIVE_InitializeMap"><path d="M100.2,166.1669 C81.56,174.2469 63.49,186.0669 52.5,203.2969 C43.76,216.9969 44.3518,229.5152 48.6818,244.0952 " fill="none" id="SIMULATION_ACTIVE-to-InitializeMap" style="stroke:#0000FF;stroke-width:1.0;"/><polygon fill="#0000FF" points="50.39,249.8469,51.6622,240.0805,48.9665,245.0538,43.9933,242.3581,50.39,249.8469" style="stroke:#0000FF;stroke-width:1.0;"/><text fill="#000000" font-family="sans-serif" font-size="13" lengthAdjust="spacing" textLength="202" x="53.5" y="216.3638">System starts map initialization</text></g><!--link InitializeMap to InitializeEntities--><g id="link_InitializeMap_InitializeEntities"><path d="M71.43,300.6969 C81.3,322.7169 93.2861,349.4816 103.1461,371.4816 " fill="none" id="InitializeMap-to-InitializeEntities" style="stroke:#0000FF;stroke-width:1.0;"/><polygon fill="#0000FF" points="105.6,376.9569,105.5693,367.1081,103.5551,372.3942,98.269,370.3799,105.6,376.9569" style="stroke:#0000FF;stroke-width:1.0;"/><text fill="#000000" font-family="sans-serif" font-size="13" lengthAdjust="spacing" textLength="90" x="93.5" y="343.3638">Map initialized</text></g><!--link InitializeEntities to AdvanceTime--><g id="link_InitializeEntities_AdvanceTime"><path d="M120.09,427.6469 C122.16,441.3569 124.87,458.8069 127.5,474.2969 C129.15,483.9769 129.9881,488.7089 131.7181,497.9689 " fill="none" id="InitializeEntities-to-AdvanceTime" style="stroke:#0000FF;stroke-width:1.0;"/><polygon fill="#0000FF" points="132.82,503.8669,135.0991,494.2854,131.9018,498.9519,127.2352,495.7545,132.82,503.8669" style="stroke:#0000FF;stroke-width:1.0;"/><text fill="#000000" font-family="sans-serif" font-size="13" lengthAdjust="spacing" textLength="110" x="128.5" y="470.3638">Entities initialized</text></g><!--link AdvanceTime to MoveNPC--><g id="link_AdvanceTime_MoveNPC"><path d="M142.77,554.6969 C147.53,576.7169 153.2237,603.092 157.9737,625.092 " fill="none" id="AdvanceTime-to-MoveNPC" style="stroke:#0000FF;stroke-width:1.0;"/><polygon fill="#0000FF" points="159.24,630.9569,161.2505,621.3154,158.1848,626.0695,153.4307,623.0038,159.24,630.9569" style="stroke:#0000FF;stroke-width:1.0;"/><text fill="#000000" font-family="sans-serif" font-size="13" lengthAdjust="spacing" textLength="97" x="154.5" y="597.3638">Time advanced</text></g><!--link MoveNPC to UpdateTransport--><g id="link_MoveNPC_UpdateTransport"><path d="M163.43,681.6869 C163.72,695.8969 165.69,713.8169 172.5,728.2969 C177.65,739.2469 181.6774,745.1342 190.1174,753.5742 " fill="none" id="MoveNPC-to-UpdateTransport" style="stroke:#0000FF;stroke-width:1.0;"/><polygon fill="#0000FF" points="194.36,757.8169,190.8245,748.6245,190.8245,754.2813,185.1676,754.2813,194.36,757.8169" style="stroke:#0000FF;stroke-width:1.0;"/><text fill="#000000" font-family="sans-serif" font-size="13" lengthAdjust="spacing" textLength="82" x="173.5" y="724.3638">NPCs moved</text></g><!--link UpdateTransport to SIMULATION_ACTIVE--><g id="link_UpdateTransport_SIMULATION_ACTIVE"><path d="M243.49,757.9869 C260.41,733.8569 282.5,695.0969 282.5,657.2969 C282.5,274.2969 282.5,274.2969 282.5,274.2969 C282.5,241.2569 281.02,229.1869 260.5,203.2969 C251.07,191.3969 243.3857,184.6627 230.2957,176.8127 " fill="none" id="UpdateTransport-to-SIMULATION_ACTIVE" style="stroke:#0000FF;stroke-width:1.0;"/><polygon fill="#0000FF" points="225.15,173.7269,230.8113,181.786,229.438,176.2984,234.9257,174.9252,225.15,173.7269" style="stroke:#0000FF;stroke-width:1.0;"/><text fill="#000000" font-family="sans-serif" font-size="13" lengthAdjust="spacing" textLength="118" x="283.5" y="470.3638">Transport updated</text></g><!--SRC=[RP71QeGm48RlUOh1tWg-G0u54Gz2tIwizh8i9JLp2DL4J9HkdxunRZJgdZJ_V3DnFlMFaD0hZSG8qo2aJ2lW29LM5B9Vh0U3S17jq30Zb8JqNZT8Y3PiolEYUa_A_EFqbQHb_fa1qn05T58RCMBqm7CfZ62D-CE2TGvT4x3HaSka_Ig1UW_xt7SaV6IonbAqwD376Suzra8ZJ0NF5ch4qpbrtFGEzk1hLSVje-oPr9tgZMFc39Om8kJwUeCuVZlkJuv6uklBTpFWpUBR_IbSxjfW2_RgtcXeRIOyuVIHRSFJIOiXEXbS1o0dJw1WHAYCBa8t0q8awFG2ASo-PueJdmVetYUTPDjLBSd9lXZq7JNIzGV0u1hvFm00]--></g></svg>