<?xml version="1.0" encoding="UTF-8" standalone="no"?><svg xmlns="http://www.w3.org/2000/svg" xmlns:xlink="http://www.w3.org/1999/xlink" contentStyleType="text/css" height="581px" preserveAspectRatio="none" style="width:274px;height:581px;background:#FFFFFF;" version="1.1" viewBox="0 0 274 581" width="274px" zoomAndPan="magnify"><defs/><g><!--MD5=[e80896688fdcdff1ec203b48a8b7f882]
class Universidad--><g id="elem_Universidad"><rect codeLine="1" fill="#F1F1F1" height="48" id="Universidad" rx="2.5" ry="2.5" style="stroke:#181818;stroke-width:0.5;" width="106" x="7" y="7"/><ellipse cx="22" cy="23" fill="#ADD1B2" rx="11" ry="11" style="stroke:#181818;stroke-width:1.0;"/><path d="M24.7656,18.875 Q24.9219,18.6563 25.1094,18.5469 Q25.2969,18.4375 25.5156,18.4375 Q25.8906,18.4375 26.125,18.7031 Q26.3594,18.9531 26.3594,19.5625 L26.3594,21.0156 Q26.3594,21.625 26.125,21.8906 Q25.8906,22.1563 25.5156,22.1563 Q25.1719,22.1563 24.9688,21.9531 Q24.7656,21.7656 24.6563,21.25 Q24.6094,20.8906 24.4219,20.7031 Q24.0938,20.3281 23.4844,20.1094 Q22.875,19.8906 22.25,19.8906 Q21.4844,19.8906 20.8438,20.2188 Q20.2188,20.5469 19.7188,21.2969 Q19.2344,22.0469 19.2344,23.0781 L19.2344,24.1719 Q19.2344,25.4063 20.125,26.2344 Q21.0156,27.0469 22.6094,27.0469 Q23.5469,27.0469 24.2031,26.7969 Q24.5938,26.6406 25.0156,26.2031 Q25.2813,25.9375 25.4219,25.8594 Q25.5781,25.7813 25.7813,25.7813 Q26.1094,25.7813 26.3594,26.0469 Q26.625,26.2969 26.625,26.6406 Q26.625,26.9844 26.2813,27.3906 Q25.7813,27.9688 24.9844,28.2969 Q23.9063,28.75 22.6094,28.75 Q21.0938,28.75 19.8906,28.125 Q18.9063,27.625 18.2188,26.5625 Q17.5313,25.4844 17.5313,24.2031 L17.5313,23.0469 Q17.5313,21.7188 18.1406,20.5781 Q18.7656,19.4219 19.8594,18.8125 Q20.9531,18.1875 22.1875,18.1875 Q22.9219,18.1875 23.5625,18.3594 Q24.2188,18.5156 24.7656,18.875 Z " fill="#000000"/><text fill="#000000" font-family="sans-serif" font-size="14" lengthAdjust="spacing" textLength="74" x="36" y="28.7285">Universidad</text><line style="stroke:#181818;stroke-width:0.5;" x1="8" x2="112" y1="39" y2="39"/><line style="stroke:#181818;stroke-width:0.5;" x1="8" x2="112" y1="47" y2="47"/></g><!--MD5=[52fa14dea17687a83e910449d3bc68aa]
class Ascensor--><g id="elem_Ascensor"><rect codeLine="2" fill="#F1F1F1" height="100.8281" id="Ascensor" rx="2.5" ry="2.5" style="stroke:#181818;stroke-width:0.5;" width="91" x="93.5" y="277"/><ellipse cx="108.5" cy="293" fill="#ADD1B2" rx="11" ry="11" style="stroke:#181818;stroke-width:1.0;"/><path d="M111.2656,288.875 Q111.4219,288.6563 111.6094,288.5469 Q111.7969,288.4375 112.0156,288.4375 Q112.3906,288.4375 112.625,288.7031 Q112.8594,288.9531 112.8594,289.5625 L112.8594,291.0156 Q112.8594,291.625 112.625,291.8906 Q112.3906,292.1563 112.0156,292.1563 Q111.6719,292.1563 111.4688,291.9531 Q111.2656,291.7656 111.1563,291.25 Q111.1094,290.8906 110.9219,290.7031 Q110.5938,290.3281 109.9844,290.1094 Q109.375,289.8906 108.75,289.8906 Q107.9844,289.8906 107.3438,290.2188 Q106.7188,290.5469 106.2188,291.2969 Q105.7344,292.0469 105.7344,293.0781 L105.7344,294.1719 Q105.7344,295.4063 106.625,296.2344 Q107.5156,297.0469 109.1094,297.0469 Q110.0469,297.0469 110.7031,296.7969 Q111.0938,296.6406 111.5156,296.2031 Q111.7813,295.9375 111.9219,295.8594 Q112.0781,295.7813 112.2813,295.7813 Q112.6094,295.7813 112.8594,296.0469 Q113.125,296.2969 113.125,296.6406 Q113.125,296.9844 112.7813,297.3906 Q112.2813,297.9688 111.4844,298.2969 Q110.4063,298.75 109.1094,298.75 Q107.5938,298.75 106.3906,298.125 Q105.4063,297.625 104.7188,296.5625 Q104.0313,295.4844 104.0313,294.2031 L104.0313,293.0469 Q104.0313,291.7188 104.6406,290.5781 Q105.2656,289.4219 106.3594,288.8125 Q107.4531,288.1875 108.6875,288.1875 Q109.4219,288.1875 110.0625,288.3594 Q110.7188,288.5156 111.2656,288.875 Z " fill="#000000"/><text fill="#000000" font-family="sans-serif" font-size="14" lengthAdjust="spacing" textLength="59" x="122.5" y="298.7285">Ascensor</text><line style="stroke:#181818;stroke-width:0.5;" x1="94.5" x2="183.5" y1="309" y2="309"/><text fill="#000000" font-family="sans-serif" font-size="14" lengthAdjust="spacing" textLength="53" x="99.5" y="327.5332">Posici贸n</text><text fill="#000000" font-family="sans-serif" font-size="14" lengthAdjust="spacing" textLength="48" x="99.5" y="345.1426">Destino</text><text fill="#000000" font-family="sans-serif" font-size="14" lengthAdjust="spacing" textLength="69" x="99.5" y="362.752">Ocupantes</text><line style="stroke:#181818;stroke-width:0.5;" x1="94.5" x2="183.5" y1="369.8281" y2="369.8281"/></g><!--MD5=[35a64b983c79880384a2fd9b61f0c24b]
class Usuario--><g id="elem_Usuario"><rect codeLine="8" fill="#F1F1F1" height="118.4375" id="Usuario" rx="2.5" ry="2.5" style="stroke:#181818;stroke-width:0.5;" width="87" x="104.5" y="456"/><ellipse cx="122.65" cy="472" fill="#ADD1B2" rx="11" ry="11" style="stroke:#181818;stroke-width:1.0;"/><path d="M125.4156,467.875 Q125.5719,467.6563 125.7594,467.5469 Q125.9469,467.4375 126.1656,467.4375 Q126.5406,467.4375 126.775,467.7031 Q127.0094,467.9531 127.0094,468.5625 L127.0094,470.0156 Q127.0094,470.625 126.775,470.8906 Q126.5406,471.1563 126.1656,471.1563 Q125.8219,471.1563 125.6188,470.9531 Q125.4156,470.7656 125.3063,470.25 Q125.2594,469.8906 125.0719,469.7031 Q124.7438,469.3281 124.1344,469.1094 Q123.525,468.8906 122.9,468.8906 Q122.1344,468.8906 121.4938,469.2188 Q120.8688,469.5469 120.3688,470.2969 Q119.8844,471.0469 119.8844,472.0781 L119.8844,473.1719 Q119.8844,474.4063 120.775,475.2344 Q121.6656,476.0469 123.2594,476.0469 Q124.1969,476.0469 124.8531,475.7969 Q125.2438,475.6406 125.6656,475.2031 Q125.9313,474.9375 126.0719,474.8594 Q126.2281,474.7813 126.4313,474.7813 Q126.7594,474.7813 127.0094,475.0469 Q127.275,475.2969 127.275,475.6406 Q127.275,475.9844 126.9313,476.3906 Q126.4313,476.9688 125.6344,477.2969 Q124.5563,477.75 123.2594,477.75 Q121.7438,477.75 120.5406,477.125 Q119.5563,476.625 118.8688,475.5625 Q118.1813,474.4844 118.1813,473.2031 L118.1813,472.0469 Q118.1813,470.7188 118.7906,469.5781 Q119.4156,468.4219 120.5094,467.8125 Q121.6031,467.1875 122.8375,467.1875 Q123.5719,467.1875 124.2125,467.3594 Q124.8688,467.5156 125.4156,467.875 Z " fill="#000000"/><text fill="#000000" font-family="sans-serif" font-size="14" lengthAdjust="spacing" textLength="48" x="137.35" y="477.7285">Usuario</text><line style="stroke:#181818;stroke-width:0.5;" x1="105.5" x2="190.5" y1="488" y2="488"/><text fill="#000000" font-family="sans-serif" font-size="14" lengthAdjust="spacing" textLength="53" x="110.5" y="506.5332">Posici贸n</text><text fill="#000000" font-family="sans-serif" font-size="14" lengthAdjust="spacing" textLength="48" x="110.5" y="524.1426">Destino</text><text fill="#000000" font-family="sans-serif" font-size="14" lengthAdjust="spacing" textLength="69" x="110.5" y="541.752">Esperando</text><text fill="#000000" font-family="sans-serif" font-size="14" lengthAdjust="spacing" textLength="75" x="110.5" y="559.3613">TiempoAula</text><line style="stroke:#181818;stroke-width:0.5;" x1="105.5" x2="190.5" y1="566.4375" y2="566.4375"/></g><!--MD5=[823809bbc7993443cc5325b8490a55cc]
class Controlador--><g id="elem_Controlador"><rect codeLine="15" fill="#F1F1F1" height="83.2188" id="Controlador" rx="2.5" ry="2.5" style="stroke:#181818;stroke-width:0.5;" width="129" x="93.5" y="116"/><ellipse cx="118.4" cy="132" fill="#ADD1B2" rx="11" ry="11" style="stroke:#181818;stroke-width:1.0;"/><path d="M121.1656,127.875 Q121.3219,127.6563 121.5094,127.5469 Q121.6969,127.4375 121.9156,127.4375 Q122.2906,127.4375 122.525,127.7031 Q122.7594,127.9531 122.7594,128.5625 L122.7594,130.0156 Q122.7594,130.625 122.525,130.8906 Q122.2906,131.1563 121.9156,131.1563 Q121.5719,131.1563 121.3688,130.9531 Q121.1656,130.7656 121.0563,130.25 Q121.0094,129.8906 120.8219,129.7031 Q120.4938,129.3281 119.8844,129.1094 Q119.275,128.8906 118.65,128.8906 Q117.8844,128.8906 117.2438,129.2188 Q116.6188,129.5469 116.1188,130.2969 Q115.6344,131.0469 115.6344,132.0781 L115.6344,133.1719 Q115.6344,134.4063 116.525,135.2344 Q117.4156,136.0469 119.0094,136.0469 Q119.9469,136.0469 120.6031,135.7969 Q120.9938,135.6406 121.4156,135.2031 Q121.6813,134.9375 121.8219,134.8594 Q121.9781,134.7813 122.1813,134.7813 Q122.5094,134.7813 122.7594,135.0469 Q123.025,135.2969 123.025,135.6406 Q123.025,135.9844 122.6813,136.3906 Q122.1813,136.9688 121.3844,137.2969 Q120.3063,137.75 119.0094,137.75 Q117.4938,137.75 116.2906,137.125 Q115.3063,136.625 114.6188,135.5625 Q113.9313,134.4844 113.9313,133.2031 L113.9313,132.0469 Q113.9313,130.7188 114.5406,129.5781 Q115.1656,128.4219 116.2594,127.8125 Q117.3531,127.1875 118.5875,127.1875 Q119.3219,127.1875 119.9625,127.3594 Q120.6188,127.5156 121.1656,127.875 Z " fill="#000000"/><text fill="#000000" font-family="sans-serif" font-size="14" lengthAdjust="spacing" textLength="75" x="134.6" y="137.7285">Controlador</text><line style="stroke:#181818;stroke-width:0.5;" x1="94.5" x2="221.5" y1="148" y2="148"/><text fill="#000000" font-family="sans-serif" font-size="14" lengthAdjust="spacing" textLength="104" x="99.5" y="166.5332">ListaAscensores</text><text fill="#000000" font-family="sans-serif" font-size="14" lengthAdjust="spacing" textLength="117" x="99.5" y="184.1426">UsuarioEsperando</text><line style="stroke:#181818;stroke-width:0.5;" x1="94.5" x2="221.5" y1="191.2188" y2="191.2188"/></g><!--MD5=[35b73ee8336392985356d2d2135e843c]
link Universidad to Controlador--><g id="link_Universidad_Controlador"><path codeLine="20" d="M78.2,55.13 C90.66,70.95 107.57,92.44 122.63,111.56 " fill="none" id="Universidad-to-Controlador" style="stroke:#181818;stroke-width:1.0;"/><polygon fill="#181818" points="126.01,115.86,123.5964,106.3115,122.9215,111.9279,117.3051,111.253,126.01,115.86" style="stroke:#181818;stroke-width:1.0;"/></g><!--MD5=[25fa74fab5afb975d1eaca9f99ef04c8]
link Universidad to Usuario--><g id="link_Universidad_Usuario"><path codeLine="21" d="M57.82,55.16 C53.19,111.52 45.22,259.87 76,378 C82.6,403.33 94.69,429.19 107.11,451.46 " fill="none" id="Universidad-to-Usuario" style="stroke:#181818;stroke-width:1.0;"/><polygon fill="#181818" points="109.59,455.87,108.6533,446.0658,107.1339,451.5148,101.6849,449.9955,109.59,455.87" style="stroke:#181818;stroke-width:1.0;"/></g><!--MD5=[6a65d2b8824655d17d93c8e9526de632]
link Controlador to Ascensor--><g id="link_Controlador_Ascensor"><path codeLine="22" d="M153.4,199.17 C150.93,221.02 147.85,248.25 145.17,271.92 " fill="none" id="Controlador-to-Ascensor" style="stroke:#181818;stroke-width:1.0;"/><polygon fill="#181818" points="144.61,276.91,149.5875,268.4115,145.1669,271.9411,141.6372,267.5205,144.61,276.91" style="stroke:#181818;stroke-width:1.0;"/><text fill="#000000" font-family="sans-serif" font-size="13" lengthAdjust="spacing" textLength="31" x="150" y="243.4951">dirige</text></g><!--MD5=[f7fd1312cadc16e29e9167bc8e53bf45]
link Controlador to Usuario--><g id="link_Controlador_Usuario"><path codeLine="23" d="M178.06,199.37 C182.34,208.96 186.59,219.23 190,229 C211.88,291.73 213.25,312.52 202,378 C197.44,404.54 187.4,432.42 177.19,455.98 " fill="none" id="Controlador-Usuario" style="stroke:#181818;stroke-width:1.0;stroke-dasharray:7.0,7.0;"/><text fill="#000000" font-family="sans-serif" font-size="13" lengthAdjust="spacing" textLength="57" x="209" y="332.9951">interactua</text></g><!--MD5=[3318a8e772778d7066abbca4b10348d7]
link Ascensor to Usuario--><g id="link_Ascensor_Usuario"><path codeLine="24" d="M114.33,378.19 C109.47,393.39 106.75,410.26 110,426 C111.7,434.23 114.21,442.64 117.14,450.84 " fill="none" id="Ascensor-to-Usuario" style="stroke:#181818;stroke-width:1.0;stroke-dasharray:7.0,7.0;"/><polygon fill="#181818" points="119.02,455.91,119.6676,446.0825,117.2941,451.2173,112.1593,448.8439,119.02,455.91" style="stroke:#181818;stroke-width:1.0;"/><text fill="#000000" font-family="sans-serif" font-size="13" lengthAdjust="spacing" textLength="28" x="111" y="422.4951">tiene</text></g><!--MD5=[0ebf386249c563fd64631e051e73f9be]
reverse link Ascensor to Usuario--><g id="link_Ascensor_Usuario"><path codeLine="25" d="M142.62,383.24 C143.12,391.54 143.6,399.99 144,408 C144.78,423.54 145.48,440.37 146.07,455.95 " fill="none" id="Ascensor-backto-Usuario" style="stroke:#181818;stroke-width:1.0;stroke-dasharray:7.0,7.0;"/><polygon fill="#181818" points="142.31,378.11,138.8578,387.334,142.6103,383.101,146.8433,386.8535,142.31,378.11" style="stroke:#181818;stroke-width:1.0;"/><text fill="#000000" font-family="sans-serif" font-size="13" lengthAdjust="spacing" textLength="31" x="145" y="422.4951">llama</text></g><!--MD5=[b960545d08abdf1591b4cf85c04b45b4]
@startuml
Class Universidad
Class Ascensor
{
    Posici贸n
    Destino
    Ocupantes
}
Class Usuario
{
    Posici贸n
    Destino
    Esperando
    TiempoAula
}
Class Controlador
{
    ListaAscensores
    UsuarioEsperando
}
Universidad - -> Controlador
Universidad - -> Usuario
Controlador - -> Ascensor : dirige
Controlador .. Usuario : interactua
Ascensor ..> Usuario : tiene
Ascensor <.. Usuario : llama
@end

PlantUML version 1.2022.7(Mon Aug 22 19:01:30 CEST 2022)
(GPL source distribution)
Java Runtime: OpenJDK Runtime Environment
JVM: OpenJDK 64-Bit Server VM
Default Encoding: Cp1252
Language: es
Country: ES
--></g></svg>