
<svg xmlns="http://www.w3.org/2000/svg" xmlns:xlink="http://www.w3.org/1999/xlink" contentStyleType="text/css" height="221px" preserveAspectRatio="none" style="width:358px;height:221px;background:#FFFFFF;" version="1.1" viewBox="0 0 358 221" width="358px" zoomAndPan="magnify"><defs/><g><text fill="#000000" font-family="sans-serif" font-size="14" font-weight="bold" lengthAdjust="spacing" textLength="330" x="10" y="22.9951">Caso de Uso Castlevania - Entregar Turno</text><!--entity user--><g id="elem_user"><ellipse cx="74.7802" cy="99.3569" fill="#F1F1F1" rx="8" ry="8" style="stroke:#181818;stroke-width:0.5;"/><path d="M74.7802,107.3569 L74.7802,134.3569 M61.7802,115.3569 L87.7802,115.3569 M74.7802,134.3569 L61.7802,149.3569 M74.7802,134.3569 L87.7802,149.3569 " fill="none" style="stroke:#181818;stroke-width:0.5;"/><text fill="#000000" font-family="sans-serif" font-size="14" lengthAdjust="spacing" textLength="39" x="55.2802" y="163.852">Juego</text></g><g id="elem_h"><ellipse cx="234.5032" cy="60.0075" fill="#F1F1F1" rx="71.5529" ry="16.7106" style="stroke:#181818;stroke-width:0.5;"/><text fill="#000000" font-family="sans-serif" font-size="14" lengthAdjust="spacing" textLength="97" x="183.0032" y="63.755">Escojer Heroe</text></g><g id="elem_v"><ellipse cx="234.4976" cy="129.0083" fill="#F1F1F1" rx="72.3073" ry="16.8615" style="stroke:#181818;stroke-width:0.5;"/><text fill="#000000" font-family="sans-serif" font-size="14" lengthAdjust="spacing" textLength="99" x="181.9976" y="132.7559">Escojer Villano</text></g><g id="elem_f"><ellipse cx="234.5" cy="198.0108" fill="#F1F1F1" rx="74.2198" ry="17.244" style="stroke:#181818;stroke-width:0.5;"/><text fill="#000000" font-family="sans-serif" font-size="14" lengthAdjust="spacing" textLength="104" x="179.5" y="201.7584">Terminar Juego</text></g><!--link user to h--><g id="link_user_h"><path d="M94.4702,118.8569 C103.3902,114.1369 114.2902,108.5769 124.2802,104.0069 C147.5102,93.3669 174.1002,82.6269 195.2202,74.4169 " fill="none" id="user-h" style="stroke:#181818;stroke-width:1.0;"/><text fill="#000000" font-family="sans-serif" font-size="13" lengthAdjust="spacing" textLength="4" x="125.2802" y="98.0738">&#160;</text></g><!--link user to v--><g id="link_user_v"><path d="M94.4902,129.0069 C111.3002,129.0069 137.0902,129.0069 161.9002,129.0069 " fill="none" id="user-v" style="stroke:#181818;stroke-width:1.0;"/><text fill="#000000" font-family="sans-serif" font-size="13" lengthAdjust="spacing" textLength="4" x="125.2802" y="125.0738">&#160;</text></g><!--link user to f--><g id="link_user_f"><path d="M94.4702,139.1469 C103.3902,143.8669 114.2902,149.4269 124.2802,154.0069 C147.1402,164.4769 173.2502,175.0369 194.2002,183.1969 " fill="none" id="user-f" style="stroke:#181818;stroke-width:1.0;"/><text fill="#000000" font-family="sans-serif" font-size="13" lengthAdjust="spacing" textLength="4" x="125.2802" y="150.0738">&#160;</text></g><!--SRC=[POsn3i8m34JtVCKfUt-05I4Xvi9kfMvh56B9SVlzX0Y141xiEz-JxUAPSQIgc1ZNDffkgvsA40QSYXilP1WtAnf2vjdX2fDbTKnYd5oqX439rN3PU55GnLRPGcWzKMN4KqrwPyEPJJc-WFK_l4dELBJ7ErfzaP7j8ONU3penz_E6OS2A0sBysFtNpjq-0G00]--></g></svg>