<svg xmlns="http://www.w3.org/2000/svg" xmlns:xlink="http://www.w3.org/1999/xlink" contentStyleType="text/css" height="404px" preserveAspectRatio="none" style="width:787px;height:404px;background:#FFFFFF;" version="1.1" viewBox="0 0 787 404" width="787px" zoomAndPan="magnify"><defs/><g><ellipse cx="394" cy="16" fill="#222222" rx="10" ry="10" style="stroke:#222222;stroke-width:1.0;"/><g id="INICIO"><rect fill="#FAF4B4" height="50" rx="12.5" ry="12.5" style="stroke:#C90000;stroke-width:0.5;" width="60" x="364" y="86"/><line style="stroke:#C90000;stroke-width:0.5;" x1="364" x2="424" y1="112.2969" y2="112.2969"/><text fill="#000000" font-family="sans-serif" font-size="14" lengthAdjust="spacing" textLength="40" x="374" y="103.9951">INICIO</text></g><g id="CONTROLANDO"><rect fill="#FAF4B4" height="50" rx="12.5" ry="12.5" style="stroke:#C90000;stroke-width:0.5;" width="129" x="329.5" y="231"/><line style="stroke:#C90000;stroke-width:0.5;" x1="329.5" x2="458.5" y1="257.2969" y2="257.2969"/><text fill="#000000" font-family="sans-serif" font-size="14" lengthAdjust="spacing" textLength="109" x="339.5" y="248.9951">CONTROLANDO</text></g><g id="TURNO_HEROE"><rect fill="#FAF4B4" height="50" rx="12.5" ry="12.5" style="stroke:#C90000;stroke-width:0.5;" width="126" x="7" y="231"/><line style="stroke:#C90000;stroke-width:0.5;" x1="7" x2="133" y1="257.2969" y2="257.2969"/><text fill="#000000" font-family="sans-serif" font-size="14" lengthAdjust="spacing" textLength="106" x="17" y="248.9951">TURNO_HEROE</text></g><g id="TURNO_VILLANO"><rect fill="#FAF4B4" height="50" rx="12.5" ry="12.5" style="stroke:#C90000;stroke-width:0.5;" width="133" x="647.5" y="231"/><line style="stroke:#C90000;stroke-width:0.5;" x1="647.5" x2="780.5" y1="257.2969" y2="257.2969"/><text fill="#000000" font-family="sans-serif" font-size="14" lengthAdjust="spacing" textLength="113" x="657.5" y="248.9951">TURNO_VILLANO</text></g><ellipse cx="394" cy="387" fill="none" rx="11" ry="11" style="stroke:#222222;stroke-width:1.0;"/><ellipse cx="394" cy="387" fill="#222222" rx="6" ry="6" style="stroke:#222222;stroke-width:1.0;"/><!--link *start* to INICIO--><g id="link_*start*_INICIO"><path d="M394,26.26 C394,39.95 394,60.07 394,79.52 " fill="none" id="*start*-to-INICIO" style="stroke:#218C00;stroke-width:1.0;"/><polygon fill="#218C00" points="394,85.52,398,76.52,394,80.52,390,76.52,394,85.52" style="stroke:#218C00;stroke-width:1.0;"/></g><!--link INICIO to CONTROLANDO--><g id="link_INICIO_CONTROLANDO"><path d="M394,136.26 C394,162.55 394,198.28 394,224.62 " fill="none" id="INICIO-to-CONTROLANDO" style="stroke:#218C00;stroke-width:1.0;"/><polygon fill="#218C00" points="394,230.62,398,221.62,394,225.62,390,221.62,394,230.62" style="stroke:#218C00;stroke-width:1.0;"/><path d="M399,171 L399,196 L561,196 L561,181 L551,171 L399,171 " fill="#F5F5F5" style="stroke:#C90000;stroke-width:0.5;"/><path d="M551,171 L551,181 L561,181 L551,171 " fill="#F5F5F5" style="stroke:#C90000;stroke-width:0.5;"/><text fill="#000000" font-family="sans-serif" font-size="13" lengthAdjust="spacing" textLength="141" x="405" y="188.0669">Seleccionar Personaje</text></g><!--link TURNO_HEROE to CONTROLANDO--><g id="link_TURNO_HEROE_CONTROLANDO"><path d="M133.24,256 C189.78,256 266.27,256 323.26,256 " fill="none" id="TURNO_HEROE-to-CONTROLANDO" style="stroke:#218C00;stroke-width:1.0;"/><polygon fill="#218C00" points="329.26,256,320.26,252,324.26,256,320.26,260,329.26,256" style="stroke:#218C00;stroke-width:1.0;"/><path d="M155.25,223 L155.25,248 L307.25,248 L307.25,233 L297.25,223 L155.25,223 " fill="#F5F5F5" style="stroke:#C90000;stroke-width:0.5;"/><path d="M297.25,223 L297.25,233 L307.25,233 L297.25,223 " fill="#F5F5F5" style="stroke:#C90000;stroke-width:0.5;"/><text fill="#000000" font-family="sans-serif" font-size="13" lengthAdjust="spacing" textLength="123" x="161.25" y="240.0669">Seleccionar Movida</text></g><!--reverse link TURNO_HEROE to CONTROLANDO--><g id="link_TURNO_HEROE_CONTROLANDO"><path d="M138.9267,282.6627 C157.9467,290.0127 168.25,294 168.25,294 C168.25,294 294.25,294 294.25,294 C294.25,294 310.09,287.97 329.14,280.71 " fill="none" id="TURNO_HEROE-backto-CONTROLANDO" style="stroke:#218C00;stroke-width:1.0;"/><polygon fill="#218C00" points="133.33,280.5,140.2832,287.4752,137.9939,282.3023,143.1668,280.013,133.33,280.5" style="stroke:#218C00;stroke-width:1.0;"/><path d="M173.25,264 L173.25,289 L289.25,289 L289.25,274 L279.25,264 L173.25,264 " fill="#F5F5F5" style="stroke:#C90000;stroke-width:0.5;"/><path d="M279.25,264 L279.25,274 L289.25,274 L279.25,264 " fill="#F5F5F5" style="stroke:#C90000;stroke-width:0.5;"/><text fill="#000000" font-family="sans-serif" font-size="13" lengthAdjust="spacing" textLength="95" x="179.25" y="281.0669">Entregar Turno</text></g><!--link CONTROLANDO to TURNO_VILLANO--><g id="link_CONTROLANDO_TURNO_VILLANO"><path d="M458.3,281.45 C475.79,288.37 490,294 490,294 C490,294 616,294 616,294 C616,294 624.9157,290.5388 642.7657,283.6188 " fill="none" id="CONTROLANDO-to-TURNO_VILLANO" style="stroke:#218C00;stroke-width:1.0;"/><polygon fill="#218C00" points="648.36,281.45,638.5227,280.9736,643.6981,283.2573,641.4144,288.4327,648.36,281.45" style="stroke:#218C00;stroke-width:1.0;"/><path d="M495,264 L495,289 L611,289 L611,274 L601,264 L495,264 " fill="#F5F5F5" style="stroke:#C90000;stroke-width:0.5;"/><path d="M601,264 L601,274 L611,274 L601,264 " fill="#F5F5F5" style="stroke:#C90000;stroke-width:0.5;"/><text fill="#000000" font-family="sans-serif" font-size="13" lengthAdjust="spacing" textLength="95" x="501" y="281.0669">Entregar Turno</text></g><!--reverse link CONTROLANDO to TURNO_VILLANO--><g id="link_CONTROLANDO_TURNO_VILLANO"><path d="M464.76,256 C519.54,256 591.76,256 647.14,256 " fill="none" id="CONTROLANDO-backto-TURNO_VILLANO" style="stroke:#218C00;stroke-width:1.0;"/><polygon fill="#218C00" points="458.76,256,467.76,260,463.76,256,467.76,252,458.76,256" style="stroke:#218C00;stroke-width:1.0;"/><path d="M481,223 L481,248 L625,248 L625,233 L615,223 L481,223 " fill="#F5F5F5" style="stroke:#C90000;stroke-width:0.5;"/><path d="M615,223 L615,233 L625,233 L615,223 " fill="#F5F5F5" style="stroke:#C90000;stroke-width:0.5;"/><text fill="#000000" font-family="sans-serif" font-size="13" lengthAdjust="spacing" textLength="123" x="487" y="240.0669">Seleccionar Movida</text></g><!--link CONTROLANDO to *end*--><g id="link_CONTROLANDO_*end*"><path d="M394,281.26 C394,309.58 394,349.13 394,369.53 " fill="none" id="CONTROLANDO-to-*end*" style="stroke:#218C00;stroke-width:1.0;"/><polygon fill="#218C00" points="394,375.53,398,366.53,394,370.53,390,366.53,394,375.53" style="stroke:#218C00;stroke-width:1.0;"/><path d="M399,316 L399,341 L515,341 L515,326 L505,316 L399,316 " fill="#F5F5F5" style="stroke:#C90000;stroke-width:0.5;"/><path d="M505,316 L505,326 L515,326 L505,316 " fill="#F5F5F5" style="stroke:#C90000;stroke-width:0.5;"/><text fill="#000000" font-family="sans-serif" font-size="13" lengthAdjust="spacing" textLength="95" x="405" y="333.0669">Entregar Turno</text></g><!--SRC=[bP7VIyCm4CVVxwyuy4q8E9cWBmEj1GkpaLfzaI4nlStQcYkNJjb_Rpgdj5F7J1wIt7tlSp_Ygz8rHimhEcxfmjXg8RnqHSGr2nxCJxeDVgXYAKWs2djs55PFOKJuVUCy7ftQWTEtvhSiPZv-6l-GxKnJbuxQLKFOSBtg7jibvC-bhHnvZoE0XyCPAZN194sYH0Dydge8faYdUQQdv-cbHkZQGtOTlGB4Mwh9sfAT4RmXyU7oGa2kMCy18B_BKlru5MSwLZ9axK9TyrjP6CHl4WBqGbMj9ZtoDYbshT0YOFAbEFwB8L-C-sGQB7f_oY2ig-L_RVLGsAzeFV_m3tiMyW40]--></g></svg>