<?xml version="1.0" encoding="us-ascii" standalone="no"?><svg xmlns="http://www.w3.org/2000/svg" xmlns:xlink="http://www.w3.org/1999/xlink" contentStyleType="text/css" height="867px" preserveAspectRatio="none" style="width:1157px;height:867px;background:#FFFFFF;" version="1.1" viewBox="0 0 1157 867" width="1157px" zoomAndPan="magnify"><defs/><g><text fill="#000000" font-family="sans-serif" font-size="14" font-weight="bold" lengthAdjust="spacing" textLength="277" x="433" y="24.9659">Diagrama de Arquitectura(Listas Clases)</text><!--cluster Lists--><g id="cluster_Lists"><path d="M8.5,46.6699 L41.5,46.6699 A3.75,3.75 0 0 1 44,49.1699 L51,71.7378 L1147.5,71.7378 A2.5,2.5 0 0 1 1150,74.2378 L1150,857.9399 A2.5,2.5 0 0 1 1147.5,860.4399 L8.5,860.4399 A2.5,2.5 0 0 1 6,857.9399 L6,49.1699 A2.5,2.5 0 0 1 8.5,46.6699 " fill="none" style="stroke:#000000;stroke-width:1.5;"/><line style="stroke:#000000;stroke-width:1.5;" x1="6" x2="51" y1="71.7378" y2="71.7378"/><text fill="#000000" font-family="sans-serif" font-size="14" font-weight="bold" lengthAdjust="spacing" textLength="32" x="10" y="63.6358">Lists</text></g><!--class Counters--><g id="elem_Counters"><rect codeLine="11" fill="#F1F1F1" height="257.7471" id="Counters" rx="2.5" ry="2.5" style="stroke:#181818;stroke-width:0.5;" width="247" x="42.5" y="84.6699"/><ellipse cx="131.25" cy="100.6699" fill="#ADD1B2" rx="11" ry="11" style="stroke:#181818;stroke-width:1.0;"/><path d="M130.7188,107.5918 Q128.9688,107.5918 127.8281,106.8574 Q126.7031,106.1074 126.1406,104.7636 Q125.5938,103.4043 125.5938,101.6074 Q125.5938,99.5761 126.25,98.123 Q126.9063,96.6699 128.1875,95.8886 Q129.4688,95.1074 131.3438,95.1074 Q132.2344,95.1074 132.9063,95.2949 Q133.5781,95.4668 134.2656,95.8105 L133.4531,97.8261 Q132.8281,97.5136 132.2813,97.3886 Q131.75,97.2636 131.2656,97.2636 Q130.0938,97.2636 129.3906,97.7949 Q128.6875,98.3261 128.3906,99.2793 Q128.0938,100.2324 128.0938,101.498 Q128.0938,103.5136 128.8125,104.4824 Q129.5313,105.4355 131.125,105.4355 Q131.7188,105.4355 132.3438,105.2793 Q132.9688,105.123 133.7969,104.748 L133.7969,106.9668 Q133.0625,107.2793 132.2656,107.4355 Q131.4844,107.5918 130.7188,107.5918 Z " fill="#000000"/><text fill="#000000" font-family="sans-serif" font-size="14" lengthAdjust="spacing" textLength="61" x="151.75" y="106.1019">Counters</text><line style="stroke:#181818;stroke-width:0.5;" x1="43.5" x2="288.5" y1="116.6699" y2="116.6699"/><rect fill="none" height="6" style="stroke:#C82930;stroke-width:1.0;" width="6" x="50.5" y="128.7039"/><text fill="#000000" font-family="sans-serif" font-size="14" lengthAdjust="spacing" textLength="111" x="62.5" y="135.6358">floorCounter: int</text><rect fill="none" height="6" style="stroke:#C82930;stroke-width:1.0;" width="6" x="50.5" y="147.7718"/><text fill="#000000" font-family="sans-serif" font-size="14" lengthAdjust="spacing" textLength="134" x="62.5" y="154.7038">elevatorCounter: int</text><rect fill="none" height="6" style="stroke:#C82930;stroke-width:1.0;" width="6" x="50.5" y="166.8397"/><text fill="#000000" font-family="sans-serif" font-size="14" lengthAdjust="spacing" textLength="127" x="62.5" y="173.7717">personCounter: int</text><rect fill="none" height="6" style="stroke:#C82930;stroke-width:1.0;" width="6" x="50.5" y="185.9076"/><text fill="#000000" font-family="sans-serif" font-size="14" lengthAdjust="spacing" textLength="164" x="62.5" y="192.8396">controlPanelCounter: int</text><line style="stroke:#181818;stroke-width:0.5;" x1="43.5" x2="288.5" y1="200.9416" y2="200.9416"/><ellipse cx="53.5" cy="215.9755" fill="#84BE84" rx="3" ry="3" style="stroke:#038048;stroke-width:1.0;"/><text fill="#000000" font-family="sans-serif" font-size="14" lengthAdjust="spacing" textLength="143" x="62.5" y="219.9075">getFloorCounter(): int</text><ellipse cx="53.5" cy="235.0434" fill="#84BE84" rx="3" ry="3" style="stroke:#038048;stroke-width:1.0;"/><text fill="#000000" font-family="sans-serif" font-size="14" lengthAdjust="spacing" textLength="164" x="62.5" y="238.9754">getElevatorCounter(): int</text><ellipse cx="53.5" cy="254.1114" fill="#84BE84" rx="3" ry="3" style="stroke:#038048;stroke-width:1.0;"/><text fill="#000000" font-family="sans-serif" font-size="14" lengthAdjust="spacing" textLength="156" x="62.5" y="258.0433">getPersonCounter(): int</text><ellipse cx="53.5" cy="273.1793" fill="#84BE84" rx="3" ry="3" style="stroke:#038048;stroke-width:1.0;"/><text fill="#000000" font-family="sans-serif" font-size="14" lengthAdjust="spacing" textLength="196" x="62.5" y="277.1113">getControlPanelCounter(): int</text><ellipse cx="53.5" cy="292.2472" fill="#84BE84" rx="3" ry="3" style="stroke:#038048;stroke-width:1.0;"/><text fill="#000000" font-family="sans-serif" font-size="14" lengthAdjust="spacing" textLength="200" x="62.5" y="296.1792">incrementFloorCounter(): void</text><ellipse cx="53.5" cy="311.3151" fill="#84BE84" rx="3" ry="3" style="stroke:#038048;stroke-width:1.0;"/><text fill="#000000" font-family="sans-serif" font-size="14" lengthAdjust="spacing" textLength="221" x="62.5" y="315.2471">incrementElevatorCounter(): void</text><ellipse cx="53.5" cy="330.383" fill="#84BE84" rx="3" ry="3" style="stroke:#038048;stroke-width:1.0;"/><text fill="#000000" font-family="sans-serif" font-size="14" lengthAdjust="spacing" textLength="213" x="62.5" y="334.315">incrementPersonCounter(): void</text></g><!--class ElevatorList--><g id="elem_ElevatorList"><rect codeLine="25" fill="#F1F1F1" height="181.4754" id="ElevatorList" rx="2.5" ry="2.5" style="stroke:#181818;stroke-width:0.5;" width="345" x="324.5" y="122.8099"/><ellipse cx="454.25" cy="138.8099" fill="#ADD1B2" rx="11" ry="11" style="stroke:#181818;stroke-width:1.0;"/><path d="M453.7188,145.7318 Q451.9688,145.7318 450.8281,144.9974 Q449.7031,144.2474 449.1406,142.9036 Q448.5938,141.5443 448.5938,139.7474 Q448.5938,137.7161 449.25,136.263 Q449.9063,134.8099 451.1875,134.0286 Q452.4688,133.2474 454.3438,133.2474 Q455.2344,133.2474 455.9063,133.4349 Q456.5781,133.6068 457.2656,133.9505 L456.4531,135.9661 Q455.8281,135.6536 455.2813,135.5286 Q454.75,135.4036 454.2656,135.4036 Q453.0938,135.4036 452.3906,135.9349 Q451.6875,136.4661 451.3906,137.4193 Q451.0938,138.3724 451.0938,139.638 Q451.0938,141.6536 451.8125,142.6224 Q452.5313,143.5755 454.125,143.5755 Q454.7188,143.5755 455.3438,143.4193 Q455.9688,143.263 456.7969,142.888 L456.7969,145.1068 Q456.0625,145.4193 455.2656,145.5755 Q454.4844,145.7318 453.7188,145.7318 Z " fill="#000000"/><text fill="#000000" font-family="sans-serif" font-size="14" lengthAdjust="spacing" textLength="77" x="474.75" y="144.2419">ElevatorList</text><line style="stroke:#181818;stroke-width:0.5;" x1="325.5" x2="668.5" y1="154.8099" y2="154.8099"/><rect fill="none" height="6" style="stroke:#C82930;stroke-width:1.0;" width="6" x="332.5" y="166.8439"/><text fill="#000000" font-family="sans-serif" font-size="14" lengthAdjust="spacing" textLength="204" x="344.5" y="173.7758">elevators: ModelList&lt;Elevator&gt;</text><line style="stroke:#181818;stroke-width:0.5;" x1="325.5" x2="668.5" y1="181.8778" y2="181.8778"/><ellipse cx="335.5" cy="196.9118" fill="#84BE84" rx="3" ry="3" style="stroke:#038048;stroke-width:1.0;"/><text fill="#000000" font-family="sans-serif" font-size="14" lengthAdjust="spacing" textLength="182" x="344.5" y="200.8438">index(): ArrayList&lt;Elevator&gt;</text><ellipse cx="335.5" cy="215.9797" fill="#84BE84" rx="3" ry="3" style="stroke:#038048;stroke-width:1.0;"/><text fill="#000000" font-family="sans-serif" font-size="14" lengthAdjust="spacing" textLength="127" x="344.5" y="219.9117">get(int id): Elevator</text><ellipse cx="335.5" cy="235.0476" fill="#84BE84" rx="3" ry="3" style="stroke:#038048;stroke-width:1.0;"/><text fill="#000000" font-family="sans-serif" font-size="14" lengthAdjust="spacing" textLength="319" x="344.5" y="238.9796">create(int id, int capacity, int currentFloor): void</text><ellipse cx="335.5" cy="254.1155" fill="#84BE84" rx="3" ry="3" style="stroke:#038048;stroke-width:1.0;"/><text fill="#000000" font-family="sans-serif" font-size="14" lengthAdjust="spacing" textLength="304" x="344.5" y="258.0475">update(int id, Elevator updatedElevator): void</text><ellipse cx="335.5" cy="273.1834" fill="#84BE84" rx="3" ry="3" style="stroke:#038048;stroke-width:1.0;"/><text fill="#000000" font-family="sans-serif" font-size="14" lengthAdjust="spacing" textLength="121" x="344.5" y="277.1154">delete(int id): void</text><ellipse cx="335.5" cy="292.2514" fill="#84BE84" rx="3" ry="3" style="stroke:#038048;stroke-width:1.0;"/><text fill="#000000" font-family="sans-serif" font-size="14" lengthAdjust="spacing" textLength="182" x="344.5" y="296.1833">add(Elevator elevator): void</text></g><!--class ElevatorRequestList--><g id="elem_ElevatorRequestList"><rect codeLine="35" fill="#F1F1F1" height="162.4075" id="ElevatorRequestList" rx="2.5" ry="2.5" style="stroke:#181818;stroke-width:0.5;" width="395" x="704.5" y="132.3399"/><ellipse cx="831.75" cy="148.3399" fill="#ADD1B2" rx="11" ry="11" style="stroke:#181818;stroke-width:1.0;"/><path d="M831.2188,155.2618 Q829.4688,155.2618 828.3281,154.5274 Q827.2031,153.7774 826.6406,152.4336 Q826.0938,151.0743 826.0938,149.2774 Q826.0938,147.2461 826.75,145.793 Q827.4063,144.3399 828.6875,143.5586 Q829.9688,142.7774 831.8438,142.7774 Q832.7344,142.7774 833.4063,142.9649 Q834.0781,143.1368 834.7656,143.4805 L833.9531,145.4961 Q833.3281,145.1836 832.7813,145.0586 Q832.25,144.9336 831.7656,144.9336 Q830.5938,144.9336 829.8906,145.4649 Q829.1875,145.9961 828.8906,146.9493 Q828.5938,147.9024 828.5938,149.168 Q828.5938,151.1836 829.3125,152.1524 Q830.0313,153.1055 831.625,153.1055 Q832.2188,153.1055 832.8438,152.9493 Q833.4688,152.793 834.2969,152.418 L834.2969,154.6368 Q833.5625,154.9493 832.7656,155.1055 Q831.9844,155.2618 831.2188,155.2618 Z " fill="#000000"/><text fill="#000000" font-family="sans-serif" font-size="14" lengthAdjust="spacing" textLength="132" x="852.25" y="153.7719">ElevatorRequestList</text><line style="stroke:#181818;stroke-width:0.5;" x1="705.5" x2="1098.5" y1="164.3399" y2="164.3399"/><rect fill="none" height="6" style="stroke:#C82930;stroke-width:1.0;" width="6" x="712.5" y="176.3739"/><text fill="#000000" font-family="sans-serif" font-size="14" lengthAdjust="spacing" textLength="308" x="724.5" y="183.3058">elevatorRequests: ArrayList&lt;ElevatorRequest&gt;</text><line style="stroke:#181818;stroke-width:0.5;" x1="705.5" x2="1098.5" y1="191.4078" y2="191.4078"/><ellipse cx="715.5" cy="206.4418" fill="#84BE84" rx="3" ry="3" style="stroke:#038048;stroke-width:1.0;"/><text fill="#000000" font-family="sans-serif" font-size="14" lengthAdjust="spacing" textLength="237" x="724.5" y="210.3738">index(): ArrayList&lt;ElevatorRequest&gt;</text><ellipse cx="715.5" cy="225.5097" fill="#84BE84" rx="3" ry="3" style="stroke:#038048;stroke-width:1.0;"/><text fill="#000000" font-family="sans-serif" font-size="14" lengthAdjust="spacing" textLength="292" x="724.5" y="229.4417">add(ElevatorRequest elevatorRequest): void</text><ellipse cx="715.5" cy="244.5776" fill="#84BE84" rx="3" ry="3" style="stroke:#038048;stroke-width:1.0;"/><text fill="#000000" font-family="sans-serif" font-size="14" lengthAdjust="spacing" textLength="316" x="724.5" y="248.5096">remove(ElevatorRequest elevatorRequest): void</text><ellipse cx="715.5" cy="263.6455" fill="#84BE84" rx="3" ry="3" style="stroke:#038048;stroke-width:1.0;"/><text fill="#000000" font-family="sans-serif" font-size="14" lengthAdjust="spacing" textLength="369" x="724.5" y="267.5775">get(ElevatorRequest elevatorRequest): ElevatorRequest</text><ellipse cx="715.5" cy="282.7134" fill="#84BE84" rx="3" ry="3" style="stroke:#038048;stroke-width:1.0;"/><text fill="#000000" font-family="sans-serif" font-size="14" lengthAdjust="spacing" textLength="123" x="724.5" y="286.6454">isEmpty(): boolean</text></g><!--class FloorList--><g id="elem_FloorList"><rect codeLine="44" fill="#F1F1F1" height="181.4754" id="FloorList" rx="2.5" ry="2.5" style="stroke:#181818;stroke-width:0.5;" width="288" x="22" y="411.9599"/><ellipse cx="133.75" cy="427.9599" fill="#ADD1B2" rx="11" ry="11" style="stroke:#181818;stroke-width:1.0;"/><path d="M133.2188,434.8818 Q131.4688,434.8818 130.3281,434.1474 Q129.2031,433.3974 128.6406,432.0536 Q128.0938,430.6943 128.0938,428.8974 Q128.0938,426.8661 128.75,425.413 Q129.4063,423.9599 130.6875,423.1786 Q131.9688,422.3974 133.8438,422.3974 Q134.7344,422.3974 135.4063,422.5849 Q136.0781,422.7568 136.7656,423.1005 L135.9531,425.1161 Q135.3281,424.8036 134.7813,424.6786 Q134.25,424.5536 133.7656,424.5536 Q132.5938,424.5536 131.8906,425.0849 Q131.1875,425.6161 130.8906,426.5693 Q130.5938,427.5224 130.5938,428.788 Q130.5938,430.8036 131.3125,431.7724 Q132.0313,432.7255 133.625,432.7255 Q134.2188,432.7255 134.8438,432.5693 Q135.4688,432.413 136.2969,432.038 L136.2969,434.2568 Q135.5625,434.5693 134.7656,434.7255 Q133.9844,434.8818 133.2188,434.8818 Z " fill="#000000"/><text fill="#000000" font-family="sans-serif" font-size="14" lengthAdjust="spacing" textLength="56" x="154.25" y="433.3919">FloorList</text><line style="stroke:#181818;stroke-width:0.5;" x1="23" x2="309" y1="443.9599" y2="443.9599"/><rect fill="none" height="6" style="stroke:#C82930;stroke-width:1.0;" width="6" x="30" y="455.9939"/><text fill="#000000" font-family="sans-serif" font-size="14" lengthAdjust="spacing" textLength="160" x="42" y="462.9258">floors: ModelList&lt;Floor&gt;</text><line style="stroke:#181818;stroke-width:0.5;" x1="23" x2="309" y1="471.0278" y2="471.0278"/><ellipse cx="33" cy="486.0618" fill="#84BE84" rx="3" ry="3" style="stroke:#038048;stroke-width:1.0;"/><text fill="#000000" font-family="sans-serif" font-size="14" lengthAdjust="spacing" textLength="161" x="42" y="489.9938">index(): ArrayList&lt;Floor&gt;</text><ellipse cx="33" cy="505.1297" fill="#84BE84" rx="3" ry="3" style="stroke:#038048;stroke-width:1.0;"/><text fill="#000000" font-family="sans-serif" font-size="14" lengthAdjust="spacing" textLength="106" x="42" y="509.0617">get(int id): Floor</text><ellipse cx="33" cy="524.1976" fill="#84BE84" rx="3" ry="3" style="stroke:#038048;stroke-width:1.0;"/><text fill="#000000" font-family="sans-serif" font-size="14" lengthAdjust="spacing" textLength="207" x="42" y="528.1296">create(int id, String label): void</text><ellipse cx="33" cy="543.2655" fill="#84BE84" rx="3" ry="3" style="stroke:#038048;stroke-width:1.0;"/><text fill="#000000" font-family="sans-serif" font-size="14" lengthAdjust="spacing" textLength="262" x="42" y="547.1975">update(int id, Floor updatedFloor): void</text><ellipse cx="33" cy="562.3334" fill="#84BE84" rx="3" ry="3" style="stroke:#038048;stroke-width:1.0;"/><text fill="#000000" font-family="sans-serif" font-size="14" lengthAdjust="spacing" textLength="121" x="42" y="566.2654">delete(int id): void</text><ellipse cx="33" cy="581.4014" fill="#84BE84" rx="3" ry="3" style="stroke:#038048;stroke-width:1.0;"/><text fill="#000000" font-family="sans-serif" font-size="14" lengthAdjust="spacing" textLength="138" x="42" y="585.3333">add(Floor floor): void</text></g><!--class FloorRequestList--><g id="elem_FloorRequestList"><rect codeLine="54" fill="#F1F1F1" height="143.3396" id="FloorRequestList" rx="2.5" ry="2.5" style="stroke:#181818;stroke-width:0.5;" width="298" x="345" y="431.0199"/><ellipse cx="434.25" cy="447.0199" fill="#ADD1B2" rx="11" ry="11" style="stroke:#181818;stroke-width:1.0;"/><path d="M433.7188,453.9418 Q431.9688,453.9418 430.8281,453.2074 Q429.7031,452.4574 429.1406,451.1136 Q428.5938,449.7543 428.5938,447.9574 Q428.5938,445.9261 429.25,444.473 Q429.9063,443.0199 431.1875,442.2386 Q432.4688,441.4574 434.3438,441.4574 Q435.2344,441.4574 435.9063,441.6449 Q436.5781,441.8168 437.2656,442.1605 L436.4531,444.1761 Q435.8281,443.8636 435.2813,443.7386 Q434.75,443.6136 434.2656,443.6136 Q433.0938,443.6136 432.3906,444.1449 Q431.6875,444.6761 431.3906,445.6293 Q431.0938,446.5824 431.0938,447.848 Q431.0938,449.8636 431.8125,450.8324 Q432.5313,451.7855 434.125,451.7855 Q434.7188,451.7855 435.3438,451.6293 Q435.9688,451.473 436.7969,451.098 L436.7969,453.3168 Q436.0625,453.6293 435.2656,453.7855 Q434.4844,453.9418 433.7188,453.9418 Z " fill="#000000"/><text fill="#000000" font-family="sans-serif" font-size="14" lengthAdjust="spacing" textLength="111" x="454.75" y="452.4519">FloorRequestList</text><line style="stroke:#181818;stroke-width:0.5;" x1="346" x2="642" y1="463.0199" y2="463.0199"/><rect fill="none" height="6" style="stroke:#C82930;stroke-width:1.0;" width="6" x="353" y="475.0539"/><text fill="#000000" font-family="sans-serif" font-size="14" lengthAdjust="spacing" textLength="264" x="365" y="481.9858">floorRequests: ArrayList&lt;FloorRequest&gt;</text><line style="stroke:#181818;stroke-width:0.5;" x1="346" x2="642" y1="490.0878" y2="490.0878"/><ellipse cx="356" cy="505.1218" fill="#84BE84" rx="3" ry="3" style="stroke:#038048;stroke-width:1.0;"/><text fill="#000000" font-family="sans-serif" font-size="14" lengthAdjust="spacing" textLength="216" x="365" y="509.0538">index(): ArrayList&lt;FloorRequest&gt;</text><ellipse cx="356" cy="524.1897" fill="#84BE84" rx="3" ry="3" style="stroke:#038048;stroke-width:1.0;"/><text fill="#000000" font-family="sans-serif" font-size="14" lengthAdjust="spacing" textLength="248" x="365" y="528.1217">add(FloorRequest floorRequest): void</text><ellipse cx="356" cy="543.2576" fill="#84BE84" rx="3" ry="3" style="stroke:#038048;stroke-width:1.0;"/><text fill="#000000" font-family="sans-serif" font-size="14" lengthAdjust="spacing" textLength="272" x="365" y="547.1896">remove(FloorRequest floorRequest): void</text><ellipse cx="356" cy="562.3255" fill="#84BE84" rx="3" ry="3" style="stroke:#038048;stroke-width:1.0;"/><text fill="#000000" font-family="sans-serif" font-size="14" lengthAdjust="spacing" textLength="123" x="365" y="566.2575">isEmpty(): boolean</text></g><!--class FloorsToGoList--><g id="elem_FloorsToGoList"><rect codeLine="62" fill="#F1F1F1" height="200.5433" id="FloorsToGoList" rx="2.5" ry="2.5" style="stroke:#181818;stroke-width:0.5;" width="457" x="677.5" y="402.4199"/><ellipse cx="853.25" cy="418.4199" fill="#ADD1B2" rx="11" ry="11" style="stroke:#181818;stroke-width:1.0;"/><path d="M852.7188,425.3418 Q850.9688,425.3418 849.8281,424.6074 Q848.7031,423.8574 848.1406,422.5136 Q847.5938,421.1543 847.5938,419.3574 Q847.5938,417.3261 848.25,415.873 Q848.9063,414.4199 850.1875,413.6386 Q851.4688,412.8574 853.3438,412.8574 Q854.2344,412.8574 854.9063,413.0449 Q855.5781,413.2168 856.2656,413.5605 L855.4531,415.5761 Q854.8281,415.2636 854.2813,415.1386 Q853.75,415.0136 853.2656,415.0136 Q852.0938,415.0136 851.3906,415.5449 Q850.6875,416.0761 850.3906,417.0293 Q850.0938,417.9824 850.0938,419.248 Q850.0938,421.2636 850.8125,422.2324 Q851.5313,423.1855 853.125,423.1855 Q853.7188,423.1855 854.3438,423.0293 Q854.9688,422.873 855.7969,422.498 L855.7969,424.7168 Q855.0625,425.0293 854.2656,425.1855 Q853.4844,425.3418 852.7188,425.3418 Z " fill="#000000"/><text fill="#000000" font-family="sans-serif" font-size="14" lengthAdjust="spacing" textLength="97" x="873.75" y="423.8519">FloorsToGoList</text><line style="stroke:#181818;stroke-width:0.5;" x1="678.5" x2="1133.5" y1="434.4199" y2="434.4199"/><rect fill="none" height="6" style="stroke:#C82930;stroke-width:1.0;" width="6" x="685.5" y="446.4539"/><text fill="#000000" font-family="sans-serif" font-size="14" lengthAdjust="spacing" textLength="205" x="697.5" y="453.3858">floorsToGo: ArrayList&lt;Integer&gt;</text><line style="stroke:#181818;stroke-width:0.5;" x1="678.5" x2="1133.5" y1="461.4878" y2="461.4878"/><ellipse cx="688.5" cy="476.5218" fill="#84BE84" rx="3" ry="3" style="stroke:#038048;stroke-width:1.0;"/><text fill="#000000" font-family="sans-serif" font-size="14" lengthAdjust="spacing" textLength="369" x="697.5" y="480.4538">add(int floor, Direction direction, int currentFloor): void</text><ellipse cx="688.5" cy="495.5897" fill="#84BE84" rx="3" ry="3" style="stroke:#038048;stroke-width:1.0;"/><text fill="#000000" font-family="sans-serif" font-size="14" lengthAdjust="spacing" textLength="139" x="697.5" y="499.5217">delete(int floor): void</text><ellipse cx="688.5" cy="514.6576" fill="#84BE84" rx="3" ry="3" style="stroke:#038048;stroke-width:1.0;"/><text fill="#000000" font-family="sans-serif" font-size="14" lengthAdjust="spacing" textLength="115" x="697.5" y="518.5896">get(int index): int</text><ellipse cx="688.5" cy="533.7255" fill="#84BE84" rx="3" ry="3" style="stroke:#038048;stroke-width:1.0;"/><text fill="#000000" font-family="sans-serif" font-size="14" lengthAdjust="spacing" textLength="60" x="697.5" y="537.6575">size(): int</text><ellipse cx="688.5" cy="552.7934" fill="#84BE84" rx="3" ry="3" style="stroke:#038048;stroke-width:1.0;"/><text fill="#000000" font-family="sans-serif" font-size="14" lengthAdjust="spacing" textLength="123" x="697.5" y="556.7254">isEmpty(): boolean</text><ellipse cx="688.5" cy="571.8614" fill="#84BE84" rx="3" ry="3" style="stroke:#038048;stroke-width:1.0;"/><text fill="#000000" font-family="sans-serif" font-size="14" lengthAdjust="spacing" textLength="77" x="697.5" y="575.7933">clear(): void</text><ellipse cx="688.5" cy="590.9293" fill="#84BE84" rx="3" ry="3" style="stroke:#038048;stroke-width:1.0;"/><text fill="#000000" font-family="sans-serif" font-size="14" lengthAdjust="spacing" textLength="431" x="697.5" y="594.8613">sortRequests(int floor, Direction direction, int currentFloor): void</text></g><!--class ModelList--><g id="elem_ModelList"><rect codeLine="73" fill="#F1F1F1" height="181.4754" id="ModelList" rx="2.5" ry="2.5" style="stroke:#181818;stroke-width:0.5;" width="272" x="30" y="662.9599"/><ellipse cx="124.25" cy="678.9599" fill="#ADD1B2" rx="11" ry="11" style="stroke:#181818;stroke-width:1.0;"/><path d="M123.7188,685.8818 Q121.9688,685.8818 120.8281,685.1474 Q119.7031,684.3974 119.1406,683.0536 Q118.5938,681.6943 118.5938,679.8974 Q118.5938,677.8661 119.25,676.413 Q119.9063,674.9599 121.1875,674.1786 Q122.4688,673.3974 124.3438,673.3974 Q125.2344,673.3974 125.9063,673.5849 Q126.5781,673.7568 127.2656,674.1005 L126.4531,676.1161 Q125.8281,675.8036 125.2813,675.6786 Q124.75,675.5536 124.2656,675.5536 Q123.0938,675.5536 122.3906,676.0849 Q121.6875,676.6161 121.3906,677.5693 Q121.0938,678.5224 121.0938,679.788 Q121.0938,681.8036 121.8125,682.7724 Q122.5313,683.7255 124.125,683.7255 Q124.7188,683.7255 125.3438,683.5693 Q125.9688,683.413 126.7969,683.038 L126.7969,685.2568 Q126.0625,685.5693 125.2656,685.7255 Q124.4844,685.8818 123.7188,685.8818 Z " fill="#000000"/><text fill="#000000" font-family="sans-serif" font-size="14" lengthAdjust="spacing" textLength="65" x="144.75" y="684.3919">ModelList</text><rect fill="#FFFFFF" height="18.3441" style="stroke:#181818;stroke-width:1.0;stroke-dasharray:2.0,2.0;" width="8" x="297" y="659.9599"/><text fill="#000000" font-family="sans-serif" font-size="12" font-style="italic" lengthAdjust="spacing" textLength="6" x="298" y="673.788">T</text><line style="stroke:#181818;stroke-width:0.5;" x1="31" x2="301" y1="694.9599" y2="694.9599"/><rect fill="none" height="6" style="stroke:#C82930;stroke-width:1.0;" width="6" x="38" y="706.9939"/><text fill="#000000" font-family="sans-serif" font-size="14" lengthAdjust="spacing" textLength="156" x="50" y="713.9258">modelList: ArrayList&lt;T&gt;</text><line style="stroke:#181818;stroke-width:0.5;" x1="31" x2="301" y1="722.0278" y2="722.0278"/><ellipse cx="41" cy="737.0618" fill="#84BE84" rx="3" ry="3" style="stroke:#038048;stroke-width:1.0;"/><text fill="#000000" font-family="sans-serif" font-size="14" lengthAdjust="spacing" textLength="136" x="50" y="740.9938">index(): ArrayList&lt;T&gt;</text><ellipse cx="41" cy="756.1297" fill="#84BE84" rx="3" ry="3" style="stroke:#038048;stroke-width:1.0;"/><text fill="#000000" font-family="sans-serif" font-size="14" lengthAdjust="spacing" textLength="105" x="50" y="760.0617">get(int index): T</text><ellipse cx="41" cy="775.1976" fill="#84BE84" rx="3" ry="3" style="stroke:#038048;stroke-width:1.0;"/><text fill="#000000" font-family="sans-serif" font-size="14" lengthAdjust="spacing" textLength="124" x="50" y="779.1296">add(T model): void</text><ellipse cx="41" cy="794.2655" fill="#84BE84" rx="3" ry="3" style="stroke:#038048;stroke-width:1.0;"/><text fill="#000000" font-family="sans-serif" font-size="14" lengthAdjust="spacing" textLength="246" x="50" y="798.1975">update(int id, T updatedModel): void</text><ellipse cx="41" cy="813.3334" fill="#84BE84" rx="3" ry="3" style="stroke:#038048;stroke-width:1.0;"/><text fill="#000000" font-family="sans-serif" font-size="14" lengthAdjust="spacing" textLength="121" x="50" y="817.2654">delete(int id): void</text><ellipse cx="41" cy="832.4014" fill="#84BE84" rx="3" ry="3" style="stroke:#038048;stroke-width:1.0;"/><text fill="#000000" font-family="sans-serif" font-size="14" lengthAdjust="spacing" textLength="167" x="50" y="836.3333">getListPosition(int id): int</text></g><!--class PersonList--><g id="elem_PersonList"><rect codeLine="83" fill="#F1F1F1" height="181.4754" id="PersonList" rx="2.5" ry="2.5" style="stroke:#181818;stroke-width:0.5;" width="366" x="337" y="662.9599"/><ellipse cx="481.25" cy="678.9599" fill="#ADD1B2" rx="11" ry="11" style="stroke:#181818;stroke-width:1.0;"/><path d="M480.7188,685.8818 Q478.9688,685.8818 477.8281,685.1474 Q476.7031,684.3974 476.1406,683.0536 Q475.5938,681.6943 475.5938,679.8974 Q475.5938,677.8661 476.25,676.413 Q476.9063,674.9599 478.1875,674.1786 Q479.4688,673.3974 481.3438,673.3974 Q482.2344,673.3974 482.9063,673.5849 Q483.5781,673.7568 484.2656,674.1005 L483.4531,676.1161 Q482.8281,675.8036 482.2813,675.6786 Q481.75,675.5536 481.2656,675.5536 Q480.0938,675.5536 479.3906,676.0849 Q478.6875,676.6161 478.3906,677.5693 Q478.0938,678.5224 478.0938,679.788 Q478.0938,681.8036 478.8125,682.7724 Q479.5313,683.7255 481.125,683.7255 Q481.7188,683.7255 482.3438,683.5693 Q482.9688,683.413 483.7969,683.038 L483.7969,685.2568 Q483.0625,685.5693 482.2656,685.7255 Q481.4844,685.8818 480.7188,685.8818 Z " fill="#000000"/><text fill="#000000" font-family="sans-serif" font-size="14" lengthAdjust="spacing" textLength="69" x="501.75" y="684.3919">PersonList</text><line style="stroke:#181818;stroke-width:0.5;" x1="338" x2="702" y1="694.9599" y2="694.9599"/><rect fill="none" height="6" style="stroke:#C82930;stroke-width:1.0;" width="6" x="345" y="706.9939"/><text fill="#000000" font-family="sans-serif" font-size="14" lengthAdjust="spacing" textLength="181" x="357" y="713.9258">people: ModelList&lt;Person&gt;</text><line style="stroke:#181818;stroke-width:0.5;" x1="338" x2="702" y1="722.0278" y2="722.0278"/><ellipse cx="348" cy="737.0618" fill="#84BE84" rx="3" ry="3" style="stroke:#038048;stroke-width:1.0;"/><text fill="#000000" font-family="sans-serif" font-size="14" lengthAdjust="spacing" textLength="174" x="357" y="740.9938">index(): ArrayList&lt;Person&gt;</text><ellipse cx="348" cy="756.1297" fill="#84BE84" rx="3" ry="3" style="stroke:#038048;stroke-width:1.0;"/><text fill="#000000" font-family="sans-serif" font-size="14" lengthAdjust="spacing" textLength="143" x="357" y="760.0617">get(int index): Person</text><ellipse cx="348" cy="775.1976" fill="#84BE84" rx="3" ry="3" style="stroke:#038048;stroke-width:1.0;"/><text fill="#000000" font-family="sans-serif" font-size="14" lengthAdjust="spacing" textLength="340" x="357" y="779.1296">create(int id, int timeOnFloor, int destination): void</text><ellipse cx="348" cy="794.2655" fill="#84BE84" rx="3" ry="3" style="stroke:#038048;stroke-width:1.0;"/><text fill="#000000" font-family="sans-serif" font-size="14" lengthAdjust="spacing" textLength="288" x="357" y="798.1975">update(int id, Person updatedPerson): void</text><ellipse cx="348" cy="813.3334" fill="#84BE84" rx="3" ry="3" style="stroke:#038048;stroke-width:1.0;"/><text fill="#000000" font-family="sans-serif" font-size="14" lengthAdjust="spacing" textLength="121" x="357" y="817.2654">delete(int id): void</text><ellipse cx="348" cy="832.4014" fill="#84BE84" rx="3" ry="3" style="stroke:#038048;stroke-width:1.0;"/><text fill="#000000" font-family="sans-serif" font-size="14" lengthAdjust="spacing" textLength="167" x="357" y="836.3333">add(Person person): void</text></g><!--SRC=[fLRjRjiW5Ftlfq3QdrHhNw2Q8dLPMrLQjsZr2n1puw9WS05dowQ- -owsIR31TRhvL-2U-tNk0MAv5K2-S5fgMb72WDpebuPRA6oZwU8hDvOQiXBKWBd8ChFZigO89NyoWjytPU4pBNQbLeraAoMK9Xz-FgF_KwLsaBrcsJF7e53Lza0gg3QWJPRLw49B82wywKCLc0CpOHoBc7xJVLTaAvJIlUMQS6a36mZOKpjfhZ6MaXF6GachbLXJ2I89-KXAi7T1ziL50d0xB269MOTr916hk9WOnsMXeG8P5RLNdALmYTgce569Ho1EyJGX7z7DRZ0bFmbpJHuL0-40dpnwESZ8u9TBSACrFKp2a9C5TayuGwW717Oicrhe8PUEA59GL1QtXtxLQEsfYljkQXQw-mJzFlFhs15RWwDZRAQCBOx1814boUOFU6d0s4bIUxj9aTRRpgGuWGvBxitZn76VA1grX_VxkR7EEuqGOMlcrbqchhcDKWAeZ5bjHnvnsLuZ0tMsk1dU8in0bwrrMfHFLdDP4a4t86ObsCRo-fjGxHdYwy9in_unGLEQsmP64r5ndjgceCS2_UZ3P9CYUuV7sV8mkRfN4nfnfh2R1xmIIz3ZHjmKMeTBV44rFfbSISByhtCkeM2SspJYg3R7SVGU6FuR4gz4ceDUeRXElGD6QUk7_b-T3QW-dRLyEI2wyeQGvtn6LVdo3MRoqNJoBiViiSlzaNjCmsUE79RXQbihmnqt9voVoO2Fxf6DP5U3gWM4LrC7dE4Z1er9wH1llvgML_1TtdNZTXiCDS0bTUtCijSby1Hsgt-wjlf0THJX5Vz5_WK0]--></g></svg>