<?xml version="1.0" encoding="UTF-8" standalone="no"?><svg xmlns="http://www.w3.org/2000/svg" xmlns:xlink="http://www.w3.org/1999/xlink" contentStyleType="text/css" height="323px" preserveAspectRatio="none" style="width:460px;height:323px;background:#FFFFFF;" version="1.1" viewBox="0 0 460 323" width="460px" zoomAndPan="magnify"><defs/><g><rect fill="none" height="26.2969" id="_title" style="stroke:none;stroke-width:1.0;" width="271" x="87.915" y="5"/><text fill="#000000" font-family="sans-serif" font-size="14" font-weight="bold" lengthAdjust="spacing" textLength="261" x="92.915" y="22.9951">Diagrama de Estados de la Planta</text><ellipse cx="264.83" cy="53.2969" fill="#222222" rx="10" ry="10" style="stroke:none;stroke-width:1.0;"/><g id="Disponible"><rect fill="#F1F1F1" height="50" rx="12.5" ry="12.5" style="stroke:#181818;stroke-width:0.5;" width="93" x="149.33" y="140.2969"/><line style="stroke:#181818;stroke-width:0.5;" x1="149.33" x2="242.33" y1="166.5938" y2="166.5938"/><text fill="#000000" font-family="sans-serif" font-size="14" lengthAdjust="spacing" textLength="73" x="159.33" y="158.292">Disponible</text></g><g id="NoDisponible"><rect fill="#F1F1F1" height="50" rx="12.5" ry="12.5" style="stroke:#181818;stroke-width:0.5;" width="112" x="139.83" y="267.2969"/><line style="stroke:#181818;stroke-width:0.5;" x1="139.83" x2="251.83" y1="293.5938" y2="293.5938"/><text fill="#000000" font-family="sans-serif" font-size="14" lengthAdjust="spacing" textLength="92" x="149.83" y="285.292">NoDisponible</text></g><!--MD5=[8eef4f8dff4aef8429ef37c9fda169b5]
link *start to Disponible--><g id="link_*start_Disponible"><path d="M255.18,56.2269 C238.93,60.0669 206.51,70.3369 192.83,93.2969 C185.53,105.5569 185.44,121.2269 187.53,134.7269 " fill="none" id="*start-to-Disponible" style="stroke:#181818;stroke-width:1.0;"/><polygon fill="#181818" points="188.47,139.9769,190.815,130.4113,187.5856,135.0557,182.9412,131.8263,188.47,139.9769" style="stroke:#181818;stroke-width:1.0;"/><text fill="#000000" font-family="sans-serif" font-size="13" lengthAdjust="spacing" textLength="114" x="193.83" y="106.3638">Acceso Habilitado</text></g><!--MD5=[dac44473ecb01bd9bd08773110ddd046]
link *start to NoDisponible--><g id="link_*start_NoDisponible"><path d="M273.58,58.3469 C285.07,64.1969 304.71,76.2369 312.83,93.2969 C340.33,151.0869 347.32,183.3869 312.83,237.2969 C300.22,257.0069 278.38,269.6269 256.97,277.6569 " fill="none" id="*start-to-NoDisponible" style="stroke:#181818;stroke-width:1.0;"/><polygon fill="#181818" points="252.12,279.3969,261.9413,280.133,256.8281,277.7134,259.2477,272.6001,252.12,279.3969" style="stroke:#181818;stroke-width:1.0;"/><text fill="#000000" font-family="sans-serif" font-size="13" lengthAdjust="spacing" textLength="116" x="336.83" y="169.8638">Acceso Denegado</text></g><!--MD5=[184513690e38750cdc07ba6aca9e34d3]
link Disponible to NoDisponible--><g id="link_Disponible_NoDisponible"><path d="M149.16,167.9369 C111.49,172.0269 60.65,184.3969 34.83,220.2969 C6,260.3769 77.74,278.1469 134.56,285.8069 " fill="none" id="Disponible-to-NoDisponible" style="stroke:#181818;stroke-width:1.0;"/><polygon fill="#181818" points="139.66,286.4669,131.2492,281.3426,134.7015,285.8238,130.2203,289.2762,139.66,286.4669" style="stroke:#181818;stroke-width:1.0;"/><text fill="#000000" font-family="sans-serif" font-size="13" lengthAdjust="spacing" textLength="116" x="35.83" y="233.3638">Acceso Denegado</text></g><!--MD5=[442fb9233b46fa57a3437d372ad5b37a]
link NoDisponible to Disponible--><g id="link_NoDisponible_Disponible"><path d="M194.2,267.1169 C193.65,257.7969 193.1,247.0569 192.83,237.2969 C192.45,223.6969 192.96,208.6469 193.65,195.9169 " fill="none" id="NoDisponible-to-Disponible" style="stroke:#181818;stroke-width:1.0;"/><polygon fill="#181818" points="193.96,190.6069,189.4531,199.364,193.6748,195.5987,197.44,199.8204,193.96,190.6069" style="stroke:#181818;stroke-width:1.0;"/><text fill="#000000" font-family="sans-serif" font-size="13" lengthAdjust="spacing" textLength="114" x="193.83" y="233.3638">Acceso Habilitado</text></g><!--MD5=[a880909dcc5ab405b4b3caf20dd43252]
@startuml Diagrama_de_Estados

title Diagrama de Estados de la Planta

skinparam {
    NoteBackgroundColor #whiteSmoke
}

hide empty members

[*] - -> Disponible : Acceso Habilitado
[*] - -> NoDisponible : Acceso Denegado
Disponible - -> NoDisponible : Acceso Denegado
NoDisponible - -> Disponible : Acceso Habilitado

@enduml

PlantUML version 1.2022.7(Mon Aug 22 19:01:30 CEST 2022)
(GPL source distribution)
Java Runtime: OpenJDK Runtime Environment
JVM: OpenJDK 64-Bit Server VM
Default Encoding: UTF-8
Language: en
Country: US
--></g></svg>