<?xml version="1.0" encoding="UTF-8" standalone="no"?><svg xmlns="http://www.w3.org/2000/svg" xmlns:xlink="http://www.w3.org/1999/xlink" contentStyleType="text/css" height="650px" preserveAspectRatio="none" style="width:412px;height:650px;background:#FFFFFF;" version="1.1" viewBox="0 0 412 650" width="412px" zoomAndPan="magnify"><defs/><g><ellipse cx="211.5" cy="20" fill="#222222" rx="10" ry="10" style="stroke:#222222;stroke-width:1.0;"/><rect fill="#F1F1F1" height="50.1875" rx="12.5" ry="12.5" style="stroke:#181818;stroke-width:0.5;" width="174" x="124.5" y="50"/><text fill="#000000" font-family="sans-serif" font-size="12" lengthAdjust="spacing" textLength="154" x="134.5" y="72.457">Recibir cantidad de minutos</text><text fill="#000000" font-family="sans-serif" font-size="12" lengthAdjust="spacing" textLength="70" x="134.5" y="87.5508">para avanzar</text><polygon fill="#F1F1F1" points="175,120.1875,248,120.1875,260,132.1875,248,144.1875,175,144.1875,163,132.1875,175,120.1875" style="stroke:#181818;stroke-width:0.5;"/><text fill="#000000" font-family="sans-serif" font-size="11" lengthAdjust="spacing" textLength="73" x="175" y="136.6885">¿Minutos &gt; 60?</text><text fill="#000000" font-family="sans-serif" font-size="11" lengthAdjust="spacing" textLength="8" x="155" y="129.7705">sí</text><text fill="#000000" font-family="sans-serif" font-size="11" lengthAdjust="spacing" textLength="12" x="260" y="129.7705">no</text><rect fill="#F1F1F1" height="35.0938" rx="12.5" ry="12.5" style="stroke:#181818;stroke-width:0.5;" width="90" x="96.5" y="154.1875"/><text fill="#000000" font-family="sans-serif" font-size="12" lengthAdjust="spacing" textLength="70" x="106.5" y="176.6445">Avanzar hora</text><rect fill="#F1F1F1" height="35.0938" rx="12.5" ry="12.5" style="stroke:#181818;stroke-width:0.5;" width="106" x="88.5" y="209.2813"/><text fill="#000000" font-family="sans-serif" font-size="12" lengthAdjust="spacing" textLength="86" x="98.5" y="231.7383">Ajustar minutos</text><rect fill="#F1F1F1" height="35.0938" rx="12.5" ry="12.5" style="stroke:#181818;stroke-width:0.5;" width="134" x="214.5" y="154.1875"/><text fill="#000000" font-family="sans-serif" font-size="12" lengthAdjust="spacing" textLength="114" x="224.5" y="176.6445">Incrementar minutos</text><polygon fill="#F1F1F1" points="211.5,250.375,223.5,262.375,211.5,274.375,199.5,262.375,211.5,250.375" style="stroke:#181818;stroke-width:0.5;"/><polygon fill="#F1F1F1" points="182,294.375,241,294.375,253,306.375,241,318.375,182,318.375,170,306.375,182,294.375" style="stroke:#181818;stroke-width:0.5;"/><text fill="#000000" font-family="sans-serif" font-size="11" lengthAdjust="spacing" textLength="59" x="182" y="310.876">¿Hora &gt; 23?</text><text fill="#000000" font-family="sans-serif" font-size="11" lengthAdjust="spacing" textLength="8" x="162" y="303.958">sí</text><text fill="#000000" font-family="sans-serif" font-size="11" lengthAdjust="spacing" textLength="12" x="253" y="303.958">no</text><rect fill="#F1F1F1" height="35.0938" rx="12.5" ry="12.5" style="stroke:#181818;stroke-width:0.5;" width="136" x="65.75" y="328.375"/><text fill="#000000" font-family="sans-serif" font-size="12" lengthAdjust="spacing" textLength="116" x="75.75" y="350.832">Resetear a hora cero</text><rect fill="#F1F1F1" height="35.0938" rx="12.5" ry="12.5" style="stroke:#181818;stroke-width:0.5;" width="135" x="221.75" y="328.375"/><text fill="#000000" font-family="sans-serif" font-size="12" lengthAdjust="spacing" textLength="115" x="231.75" y="350.832">Mantener hora actual</text><polygon fill="#F1F1F1" points="211.5,369.4688,223.5,381.4688,211.5,393.4688,199.5,381.4688,211.5,369.4688" style="stroke:#181818;stroke-width:0.5;"/><rect fill="#F1F1F1" height="50.1875" rx="12.5" ry="12.5" style="stroke:#181818;stroke-width:0.5;" width="166" x="128.5" y="413.4688"/><text fill="#000000" font-family="sans-serif" font-size="12" lengthAdjust="spacing" textLength="146" x="138.5" y="435.9258">Verificar cambio de tiempo</text><text fill="#000000" font-family="sans-serif" font-size="12" lengthAdjust="spacing" textLength="37" x="138.5" y="451.0195">del día</text><polygon fill="#F1F1F1" points="118,483.6563,305,483.6563,317,495.6563,305,507.6563,118,507.6563,106,495.6563,118,483.6563" style="stroke:#181818;stroke-width:0.5;"/><text fill="#000000" font-family="sans-serif" font-size="11" lengthAdjust="spacing" textLength="187" x="118" y="500.1572">¿Es momento de cambiar de momento?</text><text fill="#000000" font-family="sans-serif" font-size="11" lengthAdjust="spacing" textLength="8" x="98" y="493.2393">sí</text><text fill="#000000" font-family="sans-serif" font-size="11" lengthAdjust="spacing" textLength="12" x="317" y="493.2393">no</text><rect fill="#F1F1F1" height="50.1875" rx="12.5" ry="12.5" style="stroke:#181818;stroke-width:0.5;" width="170" x="11" y="517.6563"/><text fill="#000000" font-family="sans-serif" font-size="12" lengthAdjust="spacing" textLength="147" x="21" y="540.1133">Ajustar el momento del día</text><text fill="#000000" font-family="sans-serif" font-size="12" lengthAdjust="spacing" textLength="132" x="24" y="555.207">(Mañana, Tarde, Noche)</text><rect fill="#F1F1F1" height="35.0938" rx="12.5" ry="12.5" style="stroke:#181818;stroke-width:0.5;" width="148" x="253" y="517.6563"/><text fill="#000000" font-family="sans-serif" font-size="12" lengthAdjust="spacing" textLength="128" x="263" y="540.1133">Mantener tiempo actual</text><polygon fill="#F1F1F1" points="211.5,573.8438,223.5,585.8438,211.5,597.8438,199.5,585.8438,211.5,573.8438" style="stroke:#181818;stroke-width:0.5;"/><ellipse cx="211.5" cy="628.8438" fill="none" rx="11" ry="11" style="stroke:#222222;stroke-width:1.0;"/><ellipse cx="211.5" cy="628.8438" fill="#222222" rx="6" ry="6" style="stroke:#111111;stroke-width:1.0;"/><line style="stroke:#181818;stroke-width:1.0;" x1="211.5" x2="211.5" y1="30" y2="50"/><polygon fill="#181818" points="207.5,40,211.5,50,215.5,40,211.5,44" style="stroke:#181818;stroke-width:1.0;"/><line style="stroke:#181818;stroke-width:1.0;" x1="141.5" x2="141.5" y1="189.2813" y2="209.2813"/><polygon fill="#181818" points="137.5,199.2813,141.5,209.2813,145.5,199.2813,141.5,203.2813" style="stroke:#181818;stroke-width:1.0;"/><line style="stroke:#181818;stroke-width:1.0;" x1="163" x2="141.5" y1="132.1875" y2="132.1875"/><line style="stroke:#181818;stroke-width:1.0;" x1="141.5" x2="141.5" y1="132.1875" y2="154.1875"/><polygon fill="#181818" points="137.5,144.1875,141.5,154.1875,145.5,144.1875,141.5,148.1875" style="stroke:#181818;stroke-width:1.0;"/><line style="stroke:#181818;stroke-width:1.0;" x1="260" x2="281.5" y1="132.1875" y2="132.1875"/><line style="stroke:#181818;stroke-width:1.0;" x1="281.5" x2="281.5" y1="132.1875" y2="154.1875"/><polygon fill="#181818" points="277.5,144.1875,281.5,154.1875,285.5,144.1875,281.5,148.1875" style="stroke:#181818;stroke-width:1.0;"/><line style="stroke:#181818;stroke-width:1.0;" x1="141.5" x2="141.5" y1="244.375" y2="262.375"/><line style="stroke:#181818;stroke-width:1.0;" x1="141.5" x2="199.5" y1="262.375" y2="262.375"/><polygon fill="#181818" points="189.5,258.375,199.5,262.375,189.5,266.375,193.5,262.375" style="stroke:#181818;stroke-width:1.0;"/><line style="stroke:#181818;stroke-width:1.0;" x1="281.5" x2="281.5" y1="189.2813" y2="262.375"/><line style="stroke:#181818;stroke-width:1.0;" x1="281.5" x2="223.5" y1="262.375" y2="262.375"/><polygon fill="#181818" points="233.5,258.375,223.5,262.375,233.5,266.375,229.5,262.375" style="stroke:#181818;stroke-width:1.0;"/><line style="stroke:#181818;stroke-width:1.0;" x1="211.5" x2="211.5" y1="100.1875" y2="120.1875"/><polygon fill="#181818" points="207.5,110.1875,211.5,120.1875,215.5,110.1875,211.5,114.1875" style="stroke:#181818;stroke-width:1.0;"/><line style="stroke:#181818;stroke-width:1.0;" x1="170" x2="133.75" y1="306.375" y2="306.375"/><line style="stroke:#181818;stroke-width:1.0;" x1="133.75" x2="133.75" y1="306.375" y2="328.375"/><polygon fill="#181818" points="129.75,318.375,133.75,328.375,137.75,318.375,133.75,322.375" style="stroke:#181818;stroke-width:1.0;"/><line style="stroke:#181818;stroke-width:1.0;" x1="253" x2="289.25" y1="306.375" y2="306.375"/><line style="stroke:#181818;stroke-width:1.0;" x1="289.25" x2="289.25" y1="306.375" y2="328.375"/><polygon fill="#181818" points="285.25,318.375,289.25,328.375,293.25,318.375,289.25,322.375" style="stroke:#181818;stroke-width:1.0;"/><line style="stroke:#181818;stroke-width:1.0;" x1="133.75" x2="133.75" y1="363.4688" y2="381.4688"/><line style="stroke:#181818;stroke-width:1.0;" x1="133.75" x2="199.5" y1="381.4688" y2="381.4688"/><polygon fill="#181818" points="189.5,377.4688,199.5,381.4688,189.5,385.4688,193.5,381.4688" style="stroke:#181818;stroke-width:1.0;"/><line style="stroke:#181818;stroke-width:1.0;" x1="289.25" x2="289.25" y1="363.4688" y2="381.4688"/><line style="stroke:#181818;stroke-width:1.0;" x1="289.25" x2="223.5" y1="381.4688" y2="381.4688"/><polygon fill="#181818" points="233.5,377.4688,223.5,381.4688,233.5,385.4688,229.5,381.4688" style="stroke:#181818;stroke-width:1.0;"/><line style="stroke:#181818;stroke-width:1.0;" x1="211.5" x2="211.5" y1="274.375" y2="294.375"/><polygon fill="#181818" points="207.5,284.375,211.5,294.375,215.5,284.375,211.5,288.375" style="stroke:#181818;stroke-width:1.0;"/><line style="stroke:#181818;stroke-width:1.0;" x1="211.5" x2="211.5" y1="393.4688" y2="413.4688"/><polygon fill="#181818" points="207.5,403.4688,211.5,413.4688,215.5,403.4688,211.5,407.4688" style="stroke:#181818;stroke-width:1.0;"/><line style="stroke:#181818;stroke-width:1.0;" x1="106" x2="96" y1="495.6563" y2="495.6563"/><line style="stroke:#181818;stroke-width:1.0;" x1="96" x2="96" y1="495.6563" y2="517.6563"/><polygon fill="#181818" points="92,507.6563,96,517.6563,100,507.6563,96,511.6563" style="stroke:#181818;stroke-width:1.0;"/><line style="stroke:#181818;stroke-width:1.0;" x1="317" x2="327" y1="495.6563" y2="495.6563"/><line style="stroke:#181818;stroke-width:1.0;" x1="327" x2="327" y1="495.6563" y2="517.6563"/><polygon fill="#181818" points="323,507.6563,327,517.6563,331,507.6563,327,511.6563" style="stroke:#181818;stroke-width:1.0;"/><line style="stroke:#181818;stroke-width:1.0;" x1="96" x2="96" y1="567.8438" y2="585.8438"/><line style="stroke:#181818;stroke-width:1.0;" x1="96" x2="199.5" y1="585.8438" y2="585.8438"/><polygon fill="#181818" points="189.5,581.8438,199.5,585.8438,189.5,589.8438,193.5,585.8438" style="stroke:#181818;stroke-width:1.0;"/><line style="stroke:#181818;stroke-width:1.0;" x1="327" x2="327" y1="552.75" y2="585.8438"/><line style="stroke:#181818;stroke-width:1.0;" x1="327" x2="223.5" y1="585.8438" y2="585.8438"/><polygon fill="#181818" points="233.5,581.8438,223.5,585.8438,233.5,589.8438,229.5,585.8438" style="stroke:#181818;stroke-width:1.0;"/><line style="stroke:#181818;stroke-width:1.0;" x1="211.5" x2="211.5" y1="463.6563" y2="483.6563"/><polygon fill="#181818" points="207.5,473.6563,211.5,483.6563,215.5,473.6563,211.5,477.6563" style="stroke:#181818;stroke-width:1.0;"/><line style="stroke:#181818;stroke-width:1.0;" x1="211.5" x2="211.5" y1="597.8438" y2="617.8438"/><polygon fill="#181818" points="207.5,607.8438,211.5,617.8438,215.5,607.8438,211.5,611.8438" style="stroke:#181818;stroke-width:1.0;"/><!--MD5=[ef2b0a197fbde076676392cf370d31ae]
@startuml CasoDeUsoAvanzarElTiempo

start
:Recibir cantidad de minutos\npara avanzar;
if (¿Minutos > 60?) then (sí)
    :Avanzar hora;
    :Ajustar minutos;
else (no)
    :Incrementar minutos;
endif
if (¿Hora > 23?) then (sí)
    :Resetear a hora cero;
else (no)
    :Mantener hora actual;
endif
:Verificar cambio de tiempo\ndel día;
if (¿Es momento de cambiar de momento?) then (sí)
    :Ajustar el momento del día \n (Mañana, Tarde, Noche);
else (no)
    :Mantener tiempo actual;
endif
stop

@enduml

PlantUML version 1.2022.7(Mon Aug 22 19:01:30 CEST 2022)
(GPL source distribution)
Java Runtime: Java(TM) SE Runtime Environment
JVM: Java HotSpot(TM) 64-Bit Server VM
Default Encoding: UTF-8
Language: es
Country: SV
--></g></svg>