<?xml version="1.0" encoding="windows-1252" standalone="no"?>
<svg xmlns="http://www.w3.org/2000/svg" xmlns:xlink="http://www.w3.org/1999/xlink" contentStyleType="text/css" height="336px" preserveAspectRatio="none" style="width:616px;height:336px;background:#FFFFFF;" version="1.1" viewBox="0 0 616 336" width="616px" zoomAndPan="magnify"><defs/><g><ellipse cx="257.25" cy="20" fill="#222222" rx="10" ry="10" style="stroke:#222222;stroke-width:1.0;"/><rect fill="#F1F1F1" height="33.9688" rx="12.5" ry="12.5" style="stroke:#181818;stroke-width:0.5;" width="167" x="173.75" y="50"/><text fill="#000000" font-family="sans-serif" font-size="12" lengthAdjust="spacing" textLength="147" x="183.75" y="71.1387">Recibir tile seleccionada</text><polygon fill="#F1F1F1" points="128.75,103.9688,385.75,103.9688,397.75,116.7734,385.75,129.5781,128.75,129.5781,116.75,116.7734,128.75,103.9688" style="stroke:#181818;stroke-width:0.5;"/><text fill="#000000" font-family="sans-serif" font-size="11" lengthAdjust="spacing" textLength="129" x="128.75" y="114.1792">¿Tile coincide con lista</text><text fill="#000000" font-family="sans-serif" font-size="11" lengthAdjust="spacing" textLength="257" x="128.75" y="126.9839">de tiles permitidas para el transporte actual?</text><text fill="#000000" font-family="sans-serif" font-size="11" lengthAdjust="spacing" textLength="9" x="107.75" y="114.1792">sí</text><text fill="#000000" font-family="sans-serif" font-size="11" lengthAdjust="spacing" textLength="14" x="397.75" y="114.1792">no</text><rect fill="#F1F1F1" height="33.9688" rx="12.5" ry="12.5" style="stroke:#181818;stroke-width:0.5;" width="182" x="11" y="139.5781"/><text fill="#000000" font-family="sans-serif" font-size="12" lengthAdjust="spacing" textLength="162" x="21" y="160.7168">Mantener transporte actual</text><polygon fill="#F1F1F1" points="327.5,139.5781,497.5,139.5781,509.5,152.3828,497.5,165.1875,327.5,165.1875,315.5,152.3828,327.5,139.5781" style="stroke:#181818;stroke-width:0.5;"/><text fill="#000000" font-family="sans-serif" font-size="11" lengthAdjust="spacing" textLength="170" x="327.5" y="149.7886">¿Existe transporte compatible</text><text fill="#000000" font-family="sans-serif" font-size="11" lengthAdjust="spacing" textLength="62" x="327.5" y="162.5933">con la tile?</text><text fill="#000000" font-family="sans-serif" font-size="11" lengthAdjust="spacing" textLength="9" x="306.5" y="149.7886">sí</text><text fill="#000000" font-family="sans-serif" font-size="11" lengthAdjust="spacing" textLength="14" x="509.5" y="149.7886">no</text><rect fill="#F1F1F1" height="47.9375" rx="12.5" ry="12.5" style="stroke:#181818;stroke-width:0.5;" width="165" x="223" y="175.1875"/><text fill="#000000" font-family="sans-serif" font-size="12" lengthAdjust="spacing" textLength="145" x="233" y="196.3262">Ajustar transporte a uno</text><text fill="#000000" font-family="sans-serif" font-size="12" lengthAdjust="spacing" textLength="129" x="233" y="210.2949">compatible con la tile</text><rect fill="#F1F1F1" height="47.9375" rx="12.5" ry="12.5" style="stroke:#181818;stroke-width:0.5;" width="171" x="434" y="175.1875"/><text fill="#000000" font-family="sans-serif" font-size="12" lengthAdjust="spacing" textLength="151" x="444" y="196.3262">Error - No hay transporte</text><text fill="#000000" font-family="sans-serif" font-size="12" lengthAdjust="spacing" textLength="129" x="444" y="210.2949">compatible con la tile</text><polygon fill="#F1F1F1" points="412.5,229.125,424.5,241.125,412.5,253.125,400.5,241.125,412.5,229.125" style="stroke:#181818;stroke-width:0.5;"/><polygon fill="#F1F1F1" points="257.25,259.125,269.25,271.125,257.25,283.125,245.25,271.125,257.25,259.125" style="stroke:#181818;stroke-width:0.5;"/><ellipse cx="257.25" cy="314.125" fill="none" rx="11" ry="11" style="stroke:#222222;stroke-width:1.0;"/><ellipse cx="257.25" cy="314.125" fill="#222222" rx="6" ry="6" style="stroke:#222222;stroke-width:1.0;"/><line style="stroke:#181818;stroke-width:1.0;" x1="257.25" x2="257.25" y1="30" y2="50"/><polygon fill="#181818" points="253.25,40,257.25,50,261.25,40,257.25,44" style="stroke:#181818;stroke-width:1.0;"/><line style="stroke:#181818;stroke-width:1.0;" x1="315.5" x2="305.5" y1="152.3828" y2="152.3828"/><line style="stroke:#181818;stroke-width:1.0;" x1="305.5" x2="305.5" y1="152.3828" y2="175.1875"/><polygon fill="#181818" points="301.5,165.1875,305.5,175.1875,309.5,165.1875,305.5,169.1875" style="stroke:#181818;stroke-width:1.0;"/><line style="stroke:#181818;stroke-width:1.0;" x1="509.5" x2="519.5" y1="152.3828" y2="152.3828"/><line style="stroke:#181818;stroke-width:1.0;" x1="519.5" x2="519.5" y1="152.3828" y2="175.1875"/><polygon fill="#181818" points="515.5,165.1875,519.5,175.1875,523.5,165.1875,519.5,169.1875" style="stroke:#181818;stroke-width:1.0;"/><line style="stroke:#181818;stroke-width:1.0;" x1="305.5" x2="305.5" y1="223.125" y2="241.125"/><line style="stroke:#181818;stroke-width:1.0;" x1="305.5" x2="400.5" y1="241.125" y2="241.125"/><polygon fill="#181818" points="390.5,237.125,400.5,241.125,390.5,245.125,394.5,241.125" style="stroke:#181818;stroke-width:1.0;"/><line style="stroke:#181818;stroke-width:1.0;" x1="519.5" x2="519.5" y1="223.125" y2="241.125"/><line style="stroke:#181818;stroke-width:1.0;" x1="519.5" x2="424.5" y1="241.125" y2="241.125"/><polygon fill="#181818" points="434.5,237.125,424.5,241.125,434.5,245.125,430.5,241.125" style="stroke:#181818;stroke-width:1.0;"/><line style="stroke:#181818;stroke-width:1.0;" x1="116.75" x2="102" y1="116.7734" y2="116.7734"/><line style="stroke:#181818;stroke-width:1.0;" x1="102" x2="102" y1="116.7734" y2="139.5781"/><polygon fill="#181818" points="98,129.5781,102,139.5781,106,129.5781,102,133.5781" style="stroke:#181818;stroke-width:1.0;"/><line style="stroke:#181818;stroke-width:1.0;" x1="397.75" x2="412.5" y1="116.7734" y2="116.7734"/><line style="stroke:#181818;stroke-width:1.0;" x1="412.5" x2="412.5" y1="116.7734" y2="139.5781"/><polygon fill="#181818" points="408.5,129.5781,412.5,139.5781,416.5,129.5781,412.5,133.5781" style="stroke:#181818;stroke-width:1.0;"/><line style="stroke:#181818;stroke-width:1.0;" x1="102" x2="102" y1="173.5469" y2="271.125"/><line style="stroke:#181818;stroke-width:1.0;" x1="102" x2="245.25" y1="271.125" y2="271.125"/><polygon fill="#181818" points="235.25,267.125,245.25,271.125,235.25,275.125,239.25,271.125" style="stroke:#181818;stroke-width:1.0;"/><line style="stroke:#181818;stroke-width:1.0;" x1="412.5" x2="412.5" y1="253.125" y2="271.125"/><line style="stroke:#181818;stroke-width:1.0;" x1="412.5" x2="269.25" y1="271.125" y2="271.125"/><polygon fill="#181818" points="279.25,267.125,269.25,271.125,279.25,275.125,275.25,271.125" style="stroke:#181818;stroke-width:1.0;"/><line style="stroke:#181818;stroke-width:1.0;" x1="257.25" x2="257.25" y1="83.9688" y2="103.9688"/><polygon fill="#181818" points="253.25,93.9688,257.25,103.9688,261.25,93.9688,257.25,97.9688" style="stroke:#181818;stroke-width:1.0;"/><line style="stroke:#181818;stroke-width:1.0;" x1="257.25" x2="257.25" y1="283.125" y2="303.125"/><polygon fill="#181818" points="253.25,293.125,257.25,303.125,261.25,293.125,257.25,297.125" style="stroke:#181818;stroke-width:1.0;"/><!--SRC=[XOuxZi9038RxEONBKEm5IB6Ye5oArPOqpiG8ey6EF8x47eep8C75c4oqKX35kh0ycl_nPKVpiFwco1qRE2U2J8bYP1NiiGryWEP- -va-eh94xgT3875st4jvJQOC0zcPdNii9ne29N13oOEQ4s3q4TFd2ln80ar-N5S1ogo_K9o4x5tS1agPe16TfJF8zb9wQQcEUXxGkKkqbmg6bUYzg_PjJcFXVgs3KNJo_kN08gQjrbUI6hGrKuCFs2aSyNUHzq-Iz7m8yywkmnC0]--></g></svg>