<?xml version="1.0" encoding="UTF-8" standalone="no"?><svg xmlns="http://www.w3.org/2000/svg" xmlns:xlink="http://www.w3.org/1999/xlink" contentStyleType="text/css" height="495px" preserveAspectRatio="none" style="width:387px;height:495px;background:#FFFFFF;" version="1.1" viewBox="0 0 387 495" width="387px" zoomAndPan="magnify"><defs/><g><ellipse cx="185.5" cy="20" fill="#222222" rx="10" ry="10" style="stroke:#222222;stroke-width:1.0;"/><rect fill="#F1F1F1" height="50.1875" rx="12.5" ry="12.5" style="stroke:#181818;stroke-width:0.5;" width="141" x="115" y="50"/><text fill="#000000" font-family="sans-serif" font-size="12" lengthAdjust="spacing" textLength="121" x="125" y="72.457">Recibir data del mapa</text><text fill="#000000" font-family="sans-serif" font-size="12" lengthAdjust="spacing" textLength="101" x="125" y="87.5508">(números de tiles)</text><rect fill="#F1F1F1" height="50.1875" rx="12.5" ry="12.5" style="stroke:#181818;stroke-width:0.5;" width="169" x="101" y="177.1064"/><text fill="#000000" font-family="sans-serif" font-size="12" lengthAdjust="spacing" textLength="149" x="111" y="199.5635">Tomar el siguiente número</text><text fill="#000000" font-family="sans-serif" font-size="12" lengthAdjust="spacing" textLength="33" x="111" y="214.6572">de tile</text><polygon fill="#F1F1F1" points="122,247.2939,249,247.2939,261,261.1299,249,274.9658,122,274.9658,110,261.1299,122,247.2939" style="stroke:#181818;stroke-width:0.5;"/><text fill="#000000" font-family="sans-serif" font-size="11" lengthAdjust="spacing" textLength="127" x="122" y="258.7129">¿Número coincide con tipo</text><text fill="#000000" font-family="sans-serif" font-size="11" lengthAdjust="spacing" textLength="81" x="122" y="272.5488">de tile conocido?</text><text fill="#000000" font-family="sans-serif" font-size="11" lengthAdjust="spacing" textLength="8" x="102" y="258.7129">sí</text><text fill="#000000" font-family="sans-serif" font-size="11" lengthAdjust="spacing" textLength="12" x="261" y="258.7129">no</text><rect fill="#F1F1F1" height="50.1875" rx="12.5" ry="12.5" style="stroke:#181818;stroke-width:0.5;" width="124" x="38" y="284.9658"/><text fill="#000000" font-family="sans-serif" font-size="12" lengthAdjust="spacing" textLength="104" x="48" y="307.4229">Crear y agregar tile</text><text fill="#000000" font-family="sans-serif" font-size="12" lengthAdjust="spacing" textLength="45" x="48" y="322.5166">al mapa</text><rect fill="#F1F1F1" height="50.1875" rx="12.5" ry="12.5" style="stroke:#181818;stroke-width:0.5;" width="152" x="195" y="284.9658"/><text fill="#000000" font-family="sans-serif" font-size="12" lengthAdjust="spacing" textLength="132" x="205" y="307.4229">Reportar error - Número</text><text fill="#000000" font-family="sans-serif" font-size="12" lengthAdjust="spacing" textLength="114" x="205" y="322.5166">de tile no reconocido</text><polygon fill="#F1F1F1" points="185.5,341.1533,197.5,353.1533,185.5,365.1533,173.5,353.1533,185.5,341.1533" style="stroke:#181818;stroke-width:0.5;"/><polygon fill="#F1F1F1" points="120.5,120.1875,250.5,120.1875,262.5,132.1875,250.5,144.1875,120.5,144.1875,108.5,132.1875,120.5,120.1875" style="stroke:#181818;stroke-width:0.5;"/><text fill="#000000" font-family="sans-serif" font-size="11" lengthAdjust="spacing" textLength="8" x="189.5" y="155.6064">sí</text><text fill="#000000" font-family="sans-serif" font-size="11" lengthAdjust="spacing" textLength="130" x="120.5" y="136.6885">¿Hay más números de tile?</text><text fill="#000000" font-family="sans-serif" font-size="11" lengthAdjust="spacing" textLength="12" x="96.5" y="129.7705">no</text><rect fill="#F1F1F1" height="35.0938" rx="12.5" ry="12.5" style="stroke:#181818;stroke-width:0.5;" width="147" x="112" y="407.1533"/><text fill="#000000" font-family="sans-serif" font-size="12" lengthAdjust="spacing" textLength="127" x="122" y="429.6104">Mapa poblado con tiles</text><ellipse cx="185.5" cy="473.2471" fill="none" rx="11" ry="11" style="stroke:#222222;stroke-width:1.0;"/><ellipse cx="185.5" cy="473.2471" fill="#222222" rx="6" ry="6" style="stroke:#111111;stroke-width:1.0;"/><line style="stroke:#181818;stroke-width:1.0;" x1="185.5" x2="185.5" y1="30" y2="50"/><polygon fill="#181818" points="181.5,40,185.5,50,189.5,40,185.5,44" style="stroke:#181818;stroke-width:1.0;"/><line style="stroke:#181818;stroke-width:1.0;" x1="110" x2="100" y1="261.1299" y2="261.1299"/><line style="stroke:#181818;stroke-width:1.0;" x1="100" x2="100" y1="261.1299" y2="284.9658"/><polygon fill="#181818" points="96,274.9658,100,284.9658,104,274.9658,100,278.9658" style="stroke:#181818;stroke-width:1.0;"/><line style="stroke:#181818;stroke-width:1.0;" x1="261" x2="271" y1="261.1299" y2="261.1299"/><line style="stroke:#181818;stroke-width:1.0;" x1="271" x2="271" y1="261.1299" y2="284.9658"/><polygon fill="#181818" points="267,274.9658,271,284.9658,275,274.9658,271,278.9658" style="stroke:#181818;stroke-width:1.0;"/><line style="stroke:#181818;stroke-width:1.0;" x1="100" x2="100" y1="335.1533" y2="353.1533"/><line style="stroke:#181818;stroke-width:1.0;" x1="100" x2="173.5" y1="353.1533" y2="353.1533"/><polygon fill="#181818" points="163.5,349.1533,173.5,353.1533,163.5,357.1533,167.5,353.1533" style="stroke:#181818;stroke-width:1.0;"/><line style="stroke:#181818;stroke-width:1.0;" x1="271" x2="271" y1="335.1533" y2="353.1533"/><line style="stroke:#181818;stroke-width:1.0;" x1="271" x2="197.5" y1="353.1533" y2="353.1533"/><polygon fill="#181818" points="207.5,349.1533,197.5,353.1533,207.5,357.1533,203.5,353.1533" style="stroke:#181818;stroke-width:1.0;"/><line style="stroke:#181818;stroke-width:1.0;" x1="185.5" x2="185.5" y1="227.2939" y2="247.2939"/><polygon fill="#181818" points="181.5,237.2939,185.5,247.2939,189.5,237.2939,185.5,241.2939" style="stroke:#181818;stroke-width:1.0;"/><line style="stroke:#181818;stroke-width:1.0;" x1="185.5" x2="185.5" y1="144.1875" y2="177.1064"/><polygon fill="#181818" points="181.5,167.1064,185.5,177.1064,189.5,167.1064,185.5,171.1064" style="stroke:#181818;stroke-width:1.0;"/><line style="stroke:#181818;stroke-width:1.0;" x1="185.5" x2="185.5" y1="365.1533" y2="375.1533"/><line style="stroke:#181818;stroke-width:1.0;" x1="185.5" x2="361" y1="375.1533" y2="375.1533"/><polygon fill="#181818" points="357,254.7119,361,244.7119,365,254.7119,361,250.7119" style="stroke:#181818;stroke-width:1.0;"/><line style="stroke:#181818;stroke-width:1.0;" x1="361" x2="361" y1="132.1875" y2="375.1533"/><line style="stroke:#181818;stroke-width:1.0;" x1="361" x2="262.5" y1="132.1875" y2="132.1875"/><polygon fill="#181818" points="272.5,128.1875,262.5,132.1875,272.5,136.1875,268.5,132.1875" style="stroke:#181818;stroke-width:1.0;"/><line style="stroke:#181818;stroke-width:1.0;" x1="108.5" x2="24" y1="132.1875" y2="132.1875"/><polygon fill="#181818" points="20,240.7119,24,250.7119,28,240.7119,24,244.7119" style="stroke:#181818;stroke-width:1.0;"/><line style="stroke:#181818;stroke-width:1.0;" x1="24" x2="24" y1="132.1875" y2="387.1533"/><line style="stroke:#181818;stroke-width:1.0;" x1="24" x2="185.5" y1="387.1533" y2="387.1533"/><line style="stroke:#181818;stroke-width:1.0;" x1="185.5" x2="185.5" y1="387.1533" y2="407.1533"/><polygon fill="#181818" points="181.5,397.1533,185.5,407.1533,189.5,397.1533,185.5,401.1533" style="stroke:#181818;stroke-width:1.0;"/><line style="stroke:#181818;stroke-width:1.0;" x1="185.5" x2="185.5" y1="100.1875" y2="120.1875"/><polygon fill="#181818" points="181.5,110.1875,185.5,120.1875,189.5,110.1875,185.5,114.1875" style="stroke:#181818;stroke-width:1.0;"/><line style="stroke:#181818;stroke-width:1.0;" x1="185.5" x2="185.5" y1="442.2471" y2="462.2471"/><polygon fill="#181818" points="181.5,452.2471,185.5,462.2471,189.5,452.2471,185.5,456.2471" style="stroke:#181818;stroke-width:1.0;"/><!--MD5=[6d454af8e0846c55936bad0f184fad7f]
@startuml CasoDeUsoCrearMapa

start
:Recibir data del mapa\n(números de tiles);
while (¿Hay más números de tile?) is (sí)
    :Tomar el siguiente número\nde tile;
    if (¿Número coincide con tipo\nde tile conocido?) then (sí)
        :Crear y agregar tile\nal mapa;
    else (no)
        :Reportar error - Número\nde tile no reconocido;
    endif
endwhile (no)
:Mapa poblado con tiles;
stop

@enduml

PlantUML version 1.2022.7(Mon Aug 22 19:01:30 CEST 2022)
(GPL source distribution)
Java Runtime: Java(TM) SE Runtime Environment
JVM: Java HotSpot(TM) 64-Bit Server VM
Default Encoding: UTF-8
Language: es
Country: SV
--></g></svg>