<?xml version="1.0" encoding="windows-1252" standalone="no"?>
<svg xmlns="http://www.w3.org/2000/svg" xmlns:xlink="http://www.w3.org/1999/xlink" contentStyleType="text/css" height="204px" preserveAspectRatio="none" style="width:248px;height:204px;background:#FFFFFF;" version="1.1" viewBox="0 0 248 204" width="248px" zoomAndPan="magnify"><defs/><g><ellipse cx="124" cy="20" fill="#222222" rx="10" ry="10" style="stroke:#222222;stroke-width:1.0;"/><rect fill="#F1F1F1" height="47.9375" rx="12.5" ry="12.5" style="stroke:#181818;stroke-width:0.5;" width="226" x="11" y="50"/><text fill="#000000" font-family="sans-serif" font-size="12" lengthAdjust="spacing" textLength="162" x="21" y="71.1387">Generar Dirección Random</text><text fill="#000000" font-family="sans-serif" font-size="12" lengthAdjust="spacing" textLength="206" x="21" y="85.1074">basada en direcciones permitidas</text><rect fill="#F1F1F1" height="33.9688" rx="12.5" ry="12.5" style="stroke:#181818;stroke-width:0.5;" width="207" x="20.5" y="117.9375"/><text fill="#000000" font-family="sans-serif" font-size="12" lengthAdjust="spacing" textLength="187" x="30.5" y="139.0762">Retornar la direccion generada</text><ellipse cx="124" cy="182.9063" fill="none" rx="11" ry="11" style="stroke:#222222;stroke-width:1.0;"/><ellipse cx="124" cy="182.9063" fill="#222222" rx="6" ry="6" style="stroke:#222222;stroke-width:1.0;"/><line style="stroke:#181818;stroke-width:1.0;" x1="124" x2="124" y1="30" y2="50"/><polygon fill="#181818" points="120,40,124,50,128,40,124,44" style="stroke:#181818;stroke-width:1.0;"/><line style="stroke:#181818;stroke-width:1.0;" x1="124" x2="124" y1="97.9375" y2="117.9375"/><polygon fill="#181818" points="120,107.9375,124,117.9375,128,107.9375,124,111.9375" style="stroke:#181818;stroke-width:1.0;"/><line style="stroke:#181818;stroke-width:1.0;" x1="124" x2="124" y1="151.9063" y2="171.9063"/><polygon fill="#181818" points="120,161.9063,124,171.9063,128,161.9063,124,165.9063" style="stroke:#181818;stroke-width:1.0;"/><!--SRC=[HOox3O0m30NxJE4vaXQ9dfhc4Lie4ZZ8zcQCm68WAAZlum6Bb4THCHWDpQJMTfrA4vJxFki21uD4YJ_OLPmEiRr5OtX9UPBefa- -uPTeVP-CaZpwSGC0]--></g></svg>