<?xml version="1.0" encoding="UTF-8" standalone="no"?><svg xmlns="http://www.w3.org/2000/svg" xmlns:xlink="http://www.w3.org/1999/xlink" contentStyleType="text/css" height="312px" preserveAspectRatio="none" style="width:344px;height:312px;background:#FFFFFF;" version="1.1" viewBox="0 0 344 312" width="344px" zoomAndPan="magnify"><defs/><g><ellipse cx="176.5" cy="20" fill="#222222" rx="10" ry="10" style="stroke:#222222;stroke-width:1.0;"/><rect fill="#F1F1F1" height="35.0938" rx="12.5" ry="12.5" style="stroke:#181818;stroke-width:0.5;" width="158" x="97.5" y="50"/><text fill="#000000" font-family="sans-serif" font-size="12" lengthAdjust="spacing" textLength="138" x="107.5" y="72.457">Esperar Input de Usuario</text><rect fill="#F1F1F1" height="35.0938" rx="12.5" ry="12.5" style="stroke:#181818;stroke-width:0.5;" width="147" x="103" y="105.0938"/><text fill="#000000" font-family="sans-serif" font-size="12" lengthAdjust="spacing" textLength="127" x="113" y="127.5508">Procesar Input recibido</text><polygon fill="#F1F1F1" points="136,160.1875,217,160.1875,229,172.1875,217,184.1875,136,184.1875,124,172.1875,136,160.1875" style="stroke:#181818;stroke-width:0.5;"/><text fill="#000000" font-family="sans-serif" font-size="11" lengthAdjust="spacing" textLength="81" x="136" y="176.6885">¿Input es válido?</text><text fill="#000000" font-family="sans-serif" font-size="11" lengthAdjust="spacing" textLength="8" x="116" y="169.7705">sí</text><text fill="#000000" font-family="sans-serif" font-size="11" lengthAdjust="spacing" textLength="12" x="229" y="169.7705">no</text><rect fill="#F1F1F1" height="35.0938" rx="12.5" ry="12.5" style="stroke:#181818;stroke-width:0.5;" width="160" x="11" y="194.1875"/><text fill="#000000" font-family="sans-serif" font-size="12" lengthAdjust="spacing" textLength="140" x="21" y="216.6445">Retornar el valor del Input</text><rect fill="#F1F1F1" height="35.0938" rx="12.5" ry="12.5" style="stroke:#181818;stroke-width:0.5;" width="142" x="191" y="194.1875"/><text fill="#000000" font-family="sans-serif" font-size="12" lengthAdjust="spacing" textLength="122" x="201" y="216.6445">Notificar Error de Input</text><polygon fill="#F1F1F1" points="176.5,235.2813,188.5,247.2813,176.5,259.2813,164.5,247.2813,176.5,235.2813" style="stroke:#181818;stroke-width:0.5;"/><ellipse cx="176.5" cy="290.2813" fill="none" rx="11" ry="11" style="stroke:#222222;stroke-width:1.0;"/><ellipse cx="176.5" cy="290.2813" fill="#222222" rx="6" ry="6" style="stroke:#111111;stroke-width:1.0;"/><line style="stroke:#181818;stroke-width:1.0;" x1="176.5" x2="176.5" y1="30" y2="50"/><polygon fill="#181818" points="172.5,40,176.5,50,180.5,40,176.5,44" style="stroke:#181818;stroke-width:1.0;"/><line style="stroke:#181818;stroke-width:1.0;" x1="176.5" x2="176.5" y1="85.0938" y2="105.0938"/><polygon fill="#181818" points="172.5,95.0938,176.5,105.0938,180.5,95.0938,176.5,99.0938" style="stroke:#181818;stroke-width:1.0;"/><line style="stroke:#181818;stroke-width:1.0;" x1="124" x2="91" y1="172.1875" y2="172.1875"/><line style="stroke:#181818;stroke-width:1.0;" x1="91" x2="91" y1="172.1875" y2="194.1875"/><polygon fill="#181818" points="87,184.1875,91,194.1875,95,184.1875,91,188.1875" style="stroke:#181818;stroke-width:1.0;"/><line style="stroke:#181818;stroke-width:1.0;" x1="229" x2="262" y1="172.1875" y2="172.1875"/><line style="stroke:#181818;stroke-width:1.0;" x1="262" x2="262" y1="172.1875" y2="194.1875"/><polygon fill="#181818" points="258,184.1875,262,194.1875,266,184.1875,262,188.1875" style="stroke:#181818;stroke-width:1.0;"/><line style="stroke:#181818;stroke-width:1.0;" x1="91" x2="91" y1="229.2813" y2="247.2813"/><line style="stroke:#181818;stroke-width:1.0;" x1="91" x2="164.5" y1="247.2813" y2="247.2813"/><polygon fill="#181818" points="154.5,243.2813,164.5,247.2813,154.5,251.2813,158.5,247.2813" style="stroke:#181818;stroke-width:1.0;"/><line style="stroke:#181818;stroke-width:1.0;" x1="262" x2="262" y1="229.2813" y2="247.2813"/><line style="stroke:#181818;stroke-width:1.0;" x1="262" x2="188.5" y1="247.2813" y2="247.2813"/><polygon fill="#181818" points="198.5,243.2813,188.5,247.2813,198.5,251.2813,194.5,247.2813" style="stroke:#181818;stroke-width:1.0;"/><line style="stroke:#181818;stroke-width:1.0;" x1="176.5" x2="176.5" y1="140.1875" y2="160.1875"/><polygon fill="#181818" points="172.5,150.1875,176.5,160.1875,180.5,150.1875,176.5,154.1875" style="stroke:#181818;stroke-width:1.0;"/><line style="stroke:#181818;stroke-width:1.0;" x1="176.5" x2="176.5" y1="259.2813" y2="279.2813"/><polygon fill="#181818" points="172.5,269.2813,176.5,279.2813,180.5,269.2813,176.5,273.2813" style="stroke:#181818;stroke-width:1.0;"/><!--MD5=[c33d3fce0a0f638d41884ab37b9523e4]
@startuml CasoDeUsoInputDeUsuario

start
:Esperar Input de Usuario;
:Procesar Input recibido;
if (¿Input es válido?) then (sí)
    :Retornar el valor del Input;
else (no)
    :Notificar Error de Input;
endif
stop

@enduml

PlantUML version 1.2022.7(Mon Aug 22 19:01:30 CEST 2022)
(GPL source distribution)
Java Runtime: Java(TM) SE Runtime Environment
JVM: Java HotSpot(TM) 64-Bit Server VM
Default Encoding: UTF-8
Language: es
Country: SV
--></g></svg>