<?xml version="1.0" encoding="UTF-8" standalone="no"?><svg xmlns="http://www.w3.org/2000/svg" xmlns:xlink="http://www.w3.org/1999/xlink" contentStyleType="text/css" height="376px" preserveAspectRatio="none" style="width:663px;height:376px;background:#FFFFFF;" version="1.1" viewBox="0 0 663 376" width="663px" zoomAndPan="magnify"><defs/><g><ellipse cx="356.25" cy="20" fill="#222222" rx="10" ry="10" style="stroke:#222222;stroke-width:1.0;"/><rect fill="#F1F1F1" height="35.0938" rx="12.5" ry="12.5" style="stroke:#181818;stroke-width:0.5;" width="141" x="285.75" y="50"/><text fill="#000000" font-family="sans-serif" font-size="12" lengthAdjust="spacing" textLength="121" x="295.75" y="72.457">Recibir path al archivo</text><polygon fill="#F1F1F1" points="315.25,105.0938,397.25,105.0938,409.25,117.0938,397.25,129.0938,315.25,129.0938,303.25,117.0938,315.25,105.0938" style="stroke:#181818;stroke-width:0.5;"/><text fill="#000000" font-family="sans-serif" font-size="11" lengthAdjust="spacing" textLength="82" x="315.25" y="121.5947">¿Archivo existe?</text><text fill="#000000" font-family="sans-serif" font-size="11" lengthAdjust="spacing" textLength="8" x="295.25" y="114.6768">sí</text><text fill="#000000" font-family="sans-serif" font-size="11" lengthAdjust="spacing" textLength="12" x="409.25" y="114.6768">no</text><polygon fill="#F1F1F1" points="92.5,139.0938,255.5,139.0938,267.5,151.0938,255.5,163.0938,92.5,163.0938,80.5,151.0938,92.5,139.0938" style="stroke:#181818;stroke-width:0.5;"/><text fill="#000000" font-family="sans-serif" font-size="11" lengthAdjust="spacing" textLength="163" x="92.5" y="155.5947">¿Permisos de lectura suficientes?</text><text fill="#000000" font-family="sans-serif" font-size="11" lengthAdjust="spacing" textLength="8" x="72.5" y="148.6768">sí</text><text fill="#000000" font-family="sans-serif" font-size="11" lengthAdjust="spacing" textLength="12" x="267.5" y="148.6768">no</text><rect fill="#F1F1F1" height="35.0938" rx="12.5" ry="12.5" style="stroke:#181818;stroke-width:0.5;" width="119" x="11" y="173.0938"/><text fill="#000000" font-family="sans-serif" font-size="12" lengthAdjust="spacing" textLength="99" x="21" y="195.5508">Abrir y leer archivo</text><rect fill="#F1F1F1" height="35.0938" rx="12.5" ry="12.5" style="stroke:#181818;stroke-width:0.5;" width="234" x="160.5" y="173.0938"/><text fill="#000000" font-family="sans-serif" font-size="12" lengthAdjust="spacing" textLength="214" x="170.5" y="195.5508">Reportar error - Permisos insuficientes</text><polygon fill="#F1F1F1" points="174,214.1875,186,226.1875,174,238.1875,162,226.1875,174,214.1875" style="stroke:#181818;stroke-width:0.5;"/><rect fill="#F1F1F1" height="35.0938" rx="12.5" ry="12.5" style="stroke:#181818;stroke-width:0.5;" width="228" x="424.5" y="139.0938"/><text fill="#000000" font-family="sans-serif" font-size="12" lengthAdjust="spacing" textLength="208" x="434.5" y="161.5508">Reportar error - Archivo no encontrado</text><polygon fill="#F1F1F1" points="356.25,244.1875,368.25,256.1875,356.25,268.1875,344.25,256.1875,356.25,244.1875" style="stroke:#181818;stroke-width:0.5;"/><rect fill="#F1F1F1" height="35.0938" rx="12.5" ry="12.5" style="stroke:#181818;stroke-width:0.5;" width="316" x="198.25" y="288.1875"/><text fill="#000000" font-family="sans-serif" font-size="12" lengthAdjust="spacing" textLength="296" x="208.25" y="310.6445">Proceso completado y se regresa la información leída</text><ellipse cx="356.25" cy="354.2813" fill="none" rx="11" ry="11" style="stroke:#222222;stroke-width:1.0;"/><ellipse cx="356.25" cy="354.2813" fill="#222222" rx="6" ry="6" style="stroke:#111111;stroke-width:1.0;"/><line style="stroke:#181818;stroke-width:1.0;" x1="356.25" x2="356.25" y1="30" y2="50"/><polygon fill="#181818" points="352.25,40,356.25,50,360.25,40,356.25,44" style="stroke:#181818;stroke-width:1.0;"/><line style="stroke:#181818;stroke-width:1.0;" x1="80.5" x2="70.5" y1="151.0938" y2="151.0938"/><line style="stroke:#181818;stroke-width:1.0;" x1="70.5" x2="70.5" y1="151.0938" y2="173.0938"/><polygon fill="#181818" points="66.5,163.0938,70.5,173.0938,74.5,163.0938,70.5,167.0938" style="stroke:#181818;stroke-width:1.0;"/><line style="stroke:#181818;stroke-width:1.0;" x1="267.5" x2="277.5" y1="151.0938" y2="151.0938"/><line style="stroke:#181818;stroke-width:1.0;" x1="277.5" x2="277.5" y1="151.0938" y2="173.0938"/><polygon fill="#181818" points="273.5,163.0938,277.5,173.0938,281.5,163.0938,277.5,167.0938" style="stroke:#181818;stroke-width:1.0;"/><line style="stroke:#181818;stroke-width:1.0;" x1="70.5" x2="70.5" y1="208.1875" y2="226.1875"/><line style="stroke:#181818;stroke-width:1.0;" x1="70.5" x2="162" y1="226.1875" y2="226.1875"/><polygon fill="#181818" points="152,222.1875,162,226.1875,152,230.1875,156,226.1875" style="stroke:#181818;stroke-width:1.0;"/><line style="stroke:#181818;stroke-width:1.0;" x1="277.5" x2="277.5" y1="208.1875" y2="226.1875"/><line style="stroke:#181818;stroke-width:1.0;" x1="277.5" x2="186" y1="226.1875" y2="226.1875"/><polygon fill="#181818" points="196,222.1875,186,226.1875,196,230.1875,192,226.1875" style="stroke:#181818;stroke-width:1.0;"/><line style="stroke:#181818;stroke-width:1.0;" x1="303.25" x2="174" y1="117.0938" y2="117.0938"/><line style="stroke:#181818;stroke-width:1.0;" x1="174" x2="174" y1="117.0938" y2="139.0938"/><polygon fill="#181818" points="170,129.0938,174,139.0938,178,129.0938,174,133.0938" style="stroke:#181818;stroke-width:1.0;"/><line style="stroke:#181818;stroke-width:1.0;" x1="409.25" x2="538.5" y1="117.0938" y2="117.0938"/><line style="stroke:#181818;stroke-width:1.0;" x1="538.5" x2="538.5" y1="117.0938" y2="139.0938"/><polygon fill="#181818" points="534.5,129.0938,538.5,139.0938,542.5,129.0938,538.5,133.0938" style="stroke:#181818;stroke-width:1.0;"/><line style="stroke:#181818;stroke-width:1.0;" x1="174" x2="174" y1="238.1875" y2="256.1875"/><line style="stroke:#181818;stroke-width:1.0;" x1="174" x2="344.25" y1="256.1875" y2="256.1875"/><polygon fill="#181818" points="334.25,252.1875,344.25,256.1875,334.25,260.1875,338.25,256.1875" style="stroke:#181818;stroke-width:1.0;"/><line style="stroke:#181818;stroke-width:1.0;" x1="538.5" x2="538.5" y1="174.1875" y2="256.1875"/><line style="stroke:#181818;stroke-width:1.0;" x1="538.5" x2="368.25" y1="256.1875" y2="256.1875"/><polygon fill="#181818" points="378.25,252.1875,368.25,256.1875,378.25,260.1875,374.25,256.1875" style="stroke:#181818;stroke-width:1.0;"/><line style="stroke:#181818;stroke-width:1.0;" x1="356.25" x2="356.25" y1="85.0938" y2="105.0938"/><polygon fill="#181818" points="352.25,95.0938,356.25,105.0938,360.25,95.0938,356.25,99.0938" style="stroke:#181818;stroke-width:1.0;"/><line style="stroke:#181818;stroke-width:1.0;" x1="356.25" x2="356.25" y1="268.1875" y2="288.1875"/><polygon fill="#181818" points="352.25,278.1875,356.25,288.1875,360.25,278.1875,356.25,282.1875" style="stroke:#181818;stroke-width:1.0;"/><line style="stroke:#181818;stroke-width:1.0;" x1="356.25" x2="356.25" y1="323.2813" y2="343.2813"/><polygon fill="#181818" points="352.25,333.2813,356.25,343.2813,360.25,333.2813,356.25,337.2813" style="stroke:#181818;stroke-width:1.0;"/><!--MD5=[8c8cc49e40893b89102b48565c7414ff]
@startuml CasoDeUsoLeerArchivo

start
:Recibir path al archivo;
if (¿Archivo existe?) then (sí)
    if (¿Permisos de lectura suficientes?) then (sí)
        :Abrir y leer archivo;
    else (no)
        :Reportar error - Permisos insuficientes;
    endif
else (no)
    :Reportar error - Archivo no encontrado;
endif
:Proceso completado y se regresa la información leída;
stop

@enduml

PlantUML version 1.2022.7(Mon Aug 22 19:01:30 CEST 2022)
(GPL source distribution)
Java Runtime: Java(TM) SE Runtime Environment
JVM: Java HotSpot(TM) 64-Bit Server VM
Default Encoding: UTF-8
Language: es
Country: SV
--></g></svg>