<?xml version="1.0" encoding="windows-1252" standalone="no"?>
<svg xmlns="http://www.w3.org/2000/svg" xmlns:xlink="http://www.w3.org/1999/xlink" contentStyleType="text/css" height="297px" preserveAspectRatio="none" style="width:210px;height:297px;background:#FFFFFF;" version="1.1" viewBox="0 0 210 297" width="210px" zoomAndPan="magnify"><defs/><g><ellipse cx="92.5" cy="20" fill="#222222" rx="10" ry="10" style="stroke:#222222;stroke-width:1.0;"/><rect fill="#F1F1F1" height="33.9688" rx="12.5" ry="12.5" style="stroke:#181818;stroke-width:0.5;" width="146" x="19.5" y="50"/><text fill="#000000" font-family="sans-serif" font-size="12" lengthAdjust="spacing" textLength="126" x="29.5" y="71.1387">Ingresar Direcciones</text><rect fill="#F1F1F1" height="47.9375" rx="12.5" ry="12.5" style="stroke:#181818;stroke-width:0.5;" width="163" x="11" y="152.3711"/><text fill="#000000" font-family="sans-serif" font-size="12" lengthAdjust="spacing" textLength="143" x="21" y="173.5098">Actualizar Coordenadas</text><text fill="#000000" font-family="sans-serif" font-size="12" lengthAdjust="spacing" textLength="82" x="21" y="187.4785">del Personaje</text><polygon fill="#F1F1F1" points="41,103.9688,144,103.9688,156,115.9688,144,127.9688,41,127.9688,29,115.9688,41,103.9688" style="stroke:#181818;stroke-width:0.5;"/><text fill="#000000" font-family="sans-serif" font-size="11" lengthAdjust="spacing" textLength="9" x="96.5" y="138.1792">sí</text><text fill="#000000" font-family="sans-serif" font-size="11" lengthAdjust="spacing" textLength="103" x="41" y="119.7769">¿Dirección válida?</text><text fill="#000000" font-family="sans-serif" font-size="11" lengthAdjust="spacing" textLength="14" x="156" y="113.3745">no</text><polygon fill="#F1F1F1" points="92.5,220.3086,104.5,232.3086,92.5,244.3086,80.5,232.3086,92.5,220.3086" style="stroke:#181818;stroke-width:0.5;"/><ellipse cx="92.5" cy="275.3086" fill="none" rx="11" ry="11" style="stroke:#222222;stroke-width:1.0;"/><ellipse cx="92.5" cy="275.3086" fill="#222222" rx="6" ry="6" style="stroke:#222222;stroke-width:1.0;"/><line style="stroke:#181818;stroke-width:1.0;" x1="92.5" x2="92.5" y1="30" y2="50"/><polygon fill="#181818" points="88.5,40,92.5,50,96.5,40,92.5,44" style="stroke:#181818;stroke-width:1.0;"/><line style="stroke:#181818;stroke-width:1.0;" x1="92.5" x2="92.5" y1="127.9688" y2="152.3711"/><polygon fill="#181818" points="88.5,142.3711,92.5,152.3711,96.5,142.3711,92.5,146.3711" style="stroke:#181818;stroke-width:1.0;"/><line style="stroke:#181818;stroke-width:1.0;" x1="156" x2="184" y1="115.9688" y2="115.9688"/><polygon fill="#181818" points="180,166.3398,184,176.3398,188,166.3398,184,170.3398" style="stroke:#181818;stroke-width:1.0;"/><line style="stroke:#181818;stroke-width:1.0;" x1="184" x2="184" y1="115.9688" y2="232.3086"/><line style="stroke:#181818;stroke-width:1.0;" x1="184" x2="104.5" y1="232.3086" y2="232.3086"/><polygon fill="#181818" points="114.5,228.3086,104.5,232.3086,114.5,236.3086,110.5,232.3086" style="stroke:#181818;stroke-width:1.0;"/><line style="stroke:#181818;stroke-width:1.0;" x1="92.5" x2="92.5" y1="200.3086" y2="220.3086"/><polygon fill="#181818" points="88.5,210.3086,92.5,220.3086,96.5,210.3086,92.5,214.3086" style="stroke:#181818;stroke-width:1.0;"/><line style="stroke:#181818;stroke-width:1.0;" x1="92.5" x2="92.5" y1="83.9688" y2="103.9688"/><polygon fill="#181818" points="88.5,93.9688,92.5,103.9688,96.5,93.9688,92.5,97.9688" style="stroke:#181818;stroke-width:1.0;"/><line style="stroke:#181818;stroke-width:1.0;" x1="92.5" x2="92.5" y1="244.3086" y2="264.3086"/><polygon fill="#181818" points="88.5,254.3086,92.5,264.3086,96.5,254.3086,92.5,258.3086" style="stroke:#181818;stroke-width:1.0;"/><!--SRC=[BOon3G8n301xJ-4oly9_WH0qT0n0OoL-C8fiP0SAjc40AWP08eln4bnvqbqqyWRZJe_EGOvRSSvPJ3ac09anVTv_rr-Aj_weKcWrO3knOeh-700NndLkLwfoNnuRCo-iL2WEMhZYdZrCwSmJS0t6fFQhWBN83D7iyWK0]--></g></svg>