<?xml version="1.0" encoding="UTF-8" standalone="no"?><svg xmlns="http://www.w3.org/2000/svg" xmlns:xlink="http://www.w3.org/1999/xlink" contentStyleType="text/css" height="544px" preserveAspectRatio="none" style="width:308px;height:544px;background:#FFFFFF;" version="1.1" viewBox="0 0 308 544" width="308px" zoomAndPan="magnify"><defs/><g><ellipse cx="135" cy="16" fill="#222222" rx="10" ry="10" style="stroke:none;stroke-width:1.0;"/><g id="PlantaBaja"><rect fill="#F1F1F1" height="50" rx="12.5" ry="12.5" style="stroke:#181818;stroke-width:0.5;" width="88" x="91" y="104"/><line style="stroke:#181818;stroke-width:0.5;" x1="91" x2="179" y1="131.6094" y2="131.6094"/><text fill="#000000" font-family="sans-serif" font-size="14" lengthAdjust="spacing" textLength="68" x="101" y="123.5332">PlantaBaja</text></g><ellipse cx="16" cy="257" fill="none" rx="10" ry="10" style="stroke:#222222;stroke-width:1.0;"/><ellipse cx="16.5" cy="257.5" fill="#222222" rx="6" ry="6" style="stroke:none;stroke-width:1.0;"/><g id="EsperandoAscensor"><rect fill="#F1F1F1" height="50" rx="12.5" ry="12.5" style="stroke:#181818;stroke-width:0.5;" width="148" x="61" y="232"/><line style="stroke:#181818;stroke-width:0.5;" x1="61" x2="209" y1="259.6094" y2="259.6094"/><text fill="#000000" font-family="sans-serif" font-size="14" lengthAdjust="spacing" textLength="128" x="71" y="251.5332">EsperandoAscensor</text></g><g id="Ascensor"><rect fill="#F1F1F1" height="50" rx="12.5" ry="12.5" style="stroke:#181818;stroke-width:0.5;" width="79" x="222.5" y="360"/><line style="stroke:#181818;stroke-width:0.5;" x1="222.5" x2="301.5" y1="387.6094" y2="387.6094"/><text fill="#000000" font-family="sans-serif" font-size="14" lengthAdjust="spacing" textLength="59" x="232.5" y="379.5332">Ascensor</text></g><g id="PlantaDestino"><rect fill="#F1F1F1" height="50" rx="12.5" ry="12.5" style="stroke:#181818;stroke-width:0.5;" width="108" x="58" y="488"/><line style="stroke:#181818;stroke-width:0.5;" x1="58" x2="166" y1="515.6094" y2="515.6094"/><text fill="#000000" font-family="sans-serif" font-size="14" lengthAdjust="spacing" textLength="88" x="68" y="507.5332">PlantaDestino</text></g><!--MD5=[390e92de82a3082a793df9d46ebd4383]
link *start to PlantaBaja--><g id="link_*start_PlantaBaja"><path d="M135,26.08 C135,41.75 135,74.47 135,98.64 " fill="none" id="*start-to-PlantaBaja" style="stroke:#181818;stroke-width:1.0;"/><polygon fill="#181818" points="135,103.65,139,94.65,135,98.65,131,94.65,135,103.65" style="stroke:#181818;stroke-width:1.0;"/><text fill="#000000" font-family="sans-serif" font-size="13" lengthAdjust="spacing" textLength="127" x="136" y="70.4951">llega a la universidaad</text></g><!--MD5=[6f9c51a86afb61aaa2ff240039a53620]
link PlantaBaja to *end--><g id="link_PlantaBaja_*end"><path d="M112.06,154.29 C85.97,181.92 44.58,225.74 25.82,245.61 " fill="none" id="PlantaBaja-to-*end" style="stroke:#181818;stroke-width:1.0;"/><polygon fill="#181818" points="22.38,249.25,31.4685,245.4555,25.814,245.6157,25.6537,239.9611,22.38,249.25" style="stroke:#181818;stroke-width:1.0;"/><text fill="#000000" font-family="sans-serif" font-size="13" lengthAdjust="spacing" textLength="30" x="84" y="198.4951">se va</text></g><!--MD5=[ca12eda25b53eee53edee1dd3af78891]
link PlantaBaja to EsperandoAscensor--><g id="link_PlantaBaja_EsperandoAscensor"><path d="M133.37,154.18 C132.82,163.5 132.27,174.24 132,184 C131.61,198.02 132.14,213.57 132.85,226.62 " fill="none" id="PlantaBaja-to-EsperandoAscensor" style="stroke:#181818;stroke-width:1.0;"/><polygon fill="#181818" points="133.15,231.68,136.6022,222.456,132.8497,226.689,128.6167,222.9365,133.15,231.68" style="stroke:#181818;stroke-width:1.0;"/><text fill="#000000" font-family="sans-serif" font-size="13" lengthAdjust="spacing" textLength="102" x="133" y="198.4951">llama al ascensor</text></g><!--MD5=[ea51804251a21ccc3e9c4a592590994f]
link EsperandoAscensor to Ascensor--><g id="link_EsperandoAscensor_Ascensor"><path d="M158.52,282.15 C172.27,296.2 190.02,314.2 206,330 C214.74,338.64 224.34,347.96 233.09,356.39 " fill="none" id="EsperandoAscensor-to-Ascensor" style="stroke:#181818;stroke-width:1.0;"/><polygon fill="#181818" points="236.78,359.94,233.0599,350.8207,233.1739,356.4765,227.5182,356.5905,236.78,359.94" style="stroke:#181818;stroke-width:1.0;"/><text fill="#000000" font-family="sans-serif" font-size="13" lengthAdjust="spacing" textLength="28" x="207" y="326.4951">sube</text></g><!--MD5=[acb20621b32974794605d46bcc348f66]
link Ascensor to PlantaDestino--><g id="link_Ascensor_PlantaDestino"><path d="M233.08,410.29 C207.78,431.54 171.08,462.38 144.72,484.52 " fill="none" id="Ascensor-to-PlantaDestino" style="stroke:#181818;stroke-width:1.0;"/><polygon fill="#181818" points="140.58,487.99,150.0448,485.2666,144.4094,484.775,144.9009,479.1396,140.58,487.99" style="stroke:#181818;stroke-width:1.0;"/><text fill="#000000" font-family="sans-serif" font-size="13" lengthAdjust="spacing" textLength="102" x="197" y="454.4951">llega a su destino</text></g><!--MD5=[81aa95bb52bb493ea5c4804a9ced40fc]
link PlantaDestino to EsperandoAscensor--><g id="link_PlantaDestino_EsperandoAscensor"><path d="M106.82,487.89 C101.14,457.78 93.73,404.79 101,360 C105.12,334.58 114.68,306.94 122.61,286.85 " fill="none" id="PlantaDestino-to-EsperandoAscensor" style="stroke:#181818;stroke-width:1.0;"/><polygon fill="#181818" points="124.48,282.17,117.4236,289.0407,122.623,286.8124,124.8514,292.0119,124.48,282.17" style="stroke:#181818;stroke-width:1.0;"/><text fill="#000000" font-family="sans-serif" font-size="13" lengthAdjust="spacing" textLength="102" x="102" y="390.4951">llama al ascensor</text></g><!--MD5=[214a5a2534a173e88be641bfa69ef452]
link Ascensor to PlantaBaja--><g id="link_Ascensor_PlantaBaja"><path d="M266.14,359.97 C271.7,319.73 277.03,237.81 240,184 C226.77,164.77 204.53,151.96 183.92,143.67 " fill="none" id="Ascensor-to-PlantaBaja" style="stroke:#181818;stroke-width:1.0;"/><polygon fill="#181818" points="179,141.76,185.9341,148.7541,183.6589,143.575,188.8381,141.2998,179,141.76" style="stroke:#181818;stroke-width:1.0;"/></g><!--MD5=[81b7bf74b18d250696ecf0a89f27d243]
@startuml
[*] - -> PlantaBaja : llega a la universidaad
PlantaBaja - -> [*] : se va
PlantaBaja - -> EsperandoAscensor : llama al ascensor
EsperandoAscensor - -> Ascensor : sube
Ascensor - -> PlantaDestino : llega a su destino
PlantaDestino - -> EsperandoAscensor : llama al ascensor
Ascensor - -> PlantaBaja
@enduml

PlantUML version 1.2022.7(Mon Aug 22 19:01:30 CEST 2022)
(GPL source distribution)
Java Runtime: OpenJDK Runtime Environment
JVM: OpenJDK 64-Bit Server VM
Default Encoding: Cp1252
Language: es
Country: ES
--></g></svg>