<?xml version="1.0" encoding="us-ascii" standalone="no"?><svg xmlns="http://www.w3.org/2000/svg" xmlns:xlink="http://www.w3.org/1999/xlink" contentStyleType="text/css" height="1603px" preserveAspectRatio="none" style="width:1597px;height:1603px;background:#FFFFFF;" version="1.1" viewBox="0 0 1597 1603" width="1597px" zoomAndPan="magnify"><defs/><g><!--cluster Model--><g id="cluster_Model"><path d="M8.5,612 L53.5,612 A3.75,3.75 0 0 1 56,614.5 L63,636.6211 L1171.5,636.6211 A2.5,2.5 0 0 1 1174,639.1211 L1174,1593.5 A2.5,2.5 0 0 1 1171.5,1596 L8.5,1596 A2.5,2.5 0 0 1 6,1593.5 L6,614.5 A2.5,2.5 0 0 1 8.5,612 " fill="none" style="stroke:#000000;stroke-width:1.5;"/><line style="stroke:#000000;stroke-width:1.5;" x1="6" x2="63" y1="636.6211" y2="636.6211"/><text fill="#000000" font-family="sans-serif" font-size="14" font-weight="bold" lengthAdjust="spacing" textLength="44" x="10" y="629.1074">Model</text></g><!--cluster View--><g id="cluster_View"><path d="M1200.5,659 L1234.5,659 A3.75,3.75 0 0 1 1237,661.5 L1244,683.6211 L1587.5,683.6211 A2.5,2.5 0 0 1 1590,686.1211 L1590,831.5 A2.5,2.5 0 0 1 1587.5,834 L1200.5,834 A2.5,2.5 0 0 1 1198,831.5 L1198,661.5 A2.5,2.5 0 0 1 1200.5,659 " fill="none" style="stroke:#000000;stroke-width:1.5;"/><line style="stroke:#000000;stroke-width:1.5;" x1="1198" x2="1244" y1="683.6211" y2="683.6211"/><text fill="#000000" font-family="sans-serif" font-size="14" font-weight="bold" lengthAdjust="spacing" textLength="33" x="1202" y="676.1074">View</text></g><!--cluster Controller--><g id="cluster_Controller"><path d="M882.5,152 L954.5,152 A3.75,3.75 0 0 1 957,154.5 L964,176.6211 L1321.5,176.6211 A2.5,2.5 0 0 1 1324,179.1211 L1324,585.5 A2.5,2.5 0 0 1 1321.5,588 L882.5,588 A2.5,2.5 0 0 1 880,585.5 L880,154.5 A2.5,2.5 0 0 1 882.5,152 " fill="none" style="stroke:#000000;stroke-width:1.5;"/><line style="stroke:#000000;stroke-width:1.5;" x1="880" x2="964" y1="176.6211" y2="176.6211"/><text fill="#000000" font-family="sans-serif" font-size="14" font-weight="bold" lengthAdjust="spacing" textLength="71" x="884" y="169.1074">Controller</text></g><!--class World--><g id="elem_World"><rect codeLine="11" fill="#F1F1F1" height="215.5898" id="World" rx="2.5" ry="2.5" style="stroke:#181818;stroke-width:0.5;" width="194" x="575" y="649"/><ellipse cx="649.25" cy="665" fill="#ADD1B2" rx="11" ry="11" style="stroke:#181818;stroke-width:1.0;"/><path d="M652.0156,660.875 Q652.1719,660.6563 652.3594,660.5469 Q652.5469,660.4375 652.7656,660.4375 Q653.1406,660.4375 653.375,660.7031 Q653.6094,660.9531 653.6094,661.5625 L653.6094,663.0156 Q653.6094,663.625 653.375,663.8906 Q653.1406,664.1563 652.7656,664.1563 Q652.4219,664.1563 652.2188,663.9531 Q652.0156,663.7656 651.9063,663.25 Q651.8594,662.8906 651.6719,662.7031 Q651.3438,662.3281 650.7344,662.1094 Q650.125,661.8906 649.5,661.8906 Q648.7344,661.8906 648.0938,662.2188 Q647.4688,662.5469 646.9688,663.2969 Q646.4844,664.0469 646.4844,665.0781 L646.4844,666.1719 Q646.4844,667.4063 647.375,668.2344 Q648.2656,669.0469 649.8594,669.0469 Q650.7969,669.0469 651.4531,668.7969 Q651.8438,668.6406 652.2656,668.2031 Q652.5313,667.9375 652.6719,667.8594 Q652.8281,667.7813 653.0313,667.7813 Q653.3594,667.7813 653.6094,668.0469 Q653.875,668.2969 653.875,668.6406 Q653.875,668.9844 653.5313,669.3906 Q653.0313,669.9688 652.2344,670.2969 Q651.1563,670.75 649.8594,670.75 Q648.3438,670.75 647.1406,670.125 Q646.1563,669.625 645.4688,668.5625 Q644.7813,667.4844 644.7813,666.2031 L644.7813,665.0469 Q644.7813,663.7188 645.3906,662.5781 Q646.0156,661.4219 647.1094,660.8125 Q648.2031,660.1875 649.4375,660.1875 Q650.1719,660.1875 650.8125,660.3594 Q651.4688,660.5156 652.0156,660.875 Z " fill="#000000"/><text fill="#000000" font-family="sans-serif" font-size="14" lengthAdjust="spacing" textLength="37" x="669.75" y="670.7969">World</text><line style="stroke:#181818;stroke-width:0.5;" x1="576" x2="768" y1="681" y2="681"/><rect fill="none" height="6" style="stroke:#C82930;stroke-width:1.0;" width="6" x="583" y="692.8105"/><text fill="#000000" font-family="sans-serif" font-size="14" lengthAdjust="spacing" textLength="58" x="595" y="700.1074">Map map</text><rect fill="none" height="6" style="stroke:#C82930;stroke-width:1.0;" width="6" x="583" y="711.4316"/><text fill="#000000" font-family="sans-serif" font-size="14" lengthAdjust="spacing" textLength="122" x="595" y="718.7285">List&lt;Entity&gt; entities</text><rect fill="none" height="6" style="stroke:#C82930;stroke-width:1.0;" width="6" x="583" y="730.0527"/><text fill="#000000" font-family="sans-serif" font-size="14" lengthAdjust="spacing" textLength="61" x="595" y="737.3496">Time time</text><line style="stroke:#181818;stroke-width:0.5;" x1="576" x2="768" y1="744.8633" y2="744.8633"/><ellipse cx="586" cy="759.6738" fill="#84BE84" rx="3" ry="3" style="stroke:#038048;stroke-width:1.0;"/><text fill="#000000" font-family="sans-serif" font-size="14" lengthAdjust="spacing" textLength="97" x="595" y="763.9707">simulateCycle()</text><ellipse cx="586" cy="778.2949" fill="#84BE84" rx="3" ry="3" style="stroke:#038048;stroke-width:1.0;"/><text fill="#000000" font-family="sans-serif" font-size="14" lengthAdjust="spacing" textLength="168" x="595" y="782.5918">addEntity(Entity newEntity)</text><ellipse cx="586" cy="796.916" fill="#84BE84" rx="3" ry="3" style="stroke:#038048;stroke-width:1.0;"/><text fill="#000000" font-family="sans-serif" font-size="14" lengthAdjust="spacing" textLength="57" x="595" y="801.2129">getMap()</text><ellipse cx="586" cy="815.5371" fill="#84BE84" rx="3" ry="3" style="stroke:#038048;stroke-width:1.0;"/><text fill="#000000" font-family="sans-serif" font-size="14" lengthAdjust="spacing" textLength="161" x="595" y="819.834">getEntities() : List&lt;Entity&gt;</text><ellipse cx="586" cy="834.1582" fill="#84BE84" rx="3" ry="3" style="stroke:#038048;stroke-width:1.0;"/><text fill="#000000" font-family="sans-serif" font-size="14" lengthAdjust="spacing" textLength="104" x="595" y="838.4551">getTime() : Time</text><ellipse cx="586" cy="852.7793" fill="#84BE84" rx="3" ry="3" style="stroke:#038048;stroke-width:1.0;"/><text fill="#000000" font-family="sans-serif" font-size="14" lengthAdjust="spacing" textLength="121" x="595" y="857.0762">setTime(Time time)</text></g><!--class Time--><g id="elem_Time"><rect codeLine="24" fill="#F1F1F1" height="178.3477" id="Time" rx="2.5" ry="2.5" style="stroke:#181818;stroke-width:0.5;" width="221" x="91.5" y="925"/><ellipse cx="182.25" cy="941" fill="#ADD1B2" rx="11" ry="11" style="stroke:#181818;stroke-width:1.0;"/><path d="M185.0156,936.875 Q185.1719,936.6563 185.3594,936.5469 Q185.5469,936.4375 185.7656,936.4375 Q186.1406,936.4375 186.375,936.7031 Q186.6094,936.9531 186.6094,937.5625 L186.6094,939.0156 Q186.6094,939.625 186.375,939.8906 Q186.1406,940.1563 185.7656,940.1563 Q185.4219,940.1563 185.2188,939.9531 Q185.0156,939.7656 184.9063,939.25 Q184.8594,938.8906 184.6719,938.7031 Q184.3438,938.3281 183.7344,938.1094 Q183.125,937.8906 182.5,937.8906 Q181.7344,937.8906 181.0938,938.2188 Q180.4688,938.5469 179.9688,939.2969 Q179.4844,940.0469 179.4844,941.0781 L179.4844,942.1719 Q179.4844,943.4063 180.375,944.2344 Q181.2656,945.0469 182.8594,945.0469 Q183.7969,945.0469 184.4531,944.7969 Q184.8438,944.6406 185.2656,944.2031 Q185.5313,943.9375 185.6719,943.8594 Q185.8281,943.7813 186.0313,943.7813 Q186.3594,943.7813 186.6094,944.0469 Q186.875,944.2969 186.875,944.6406 Q186.875,944.9844 186.5313,945.3906 Q186.0313,945.9688 185.2344,946.2969 Q184.1563,946.75 182.8594,946.75 Q181.3438,946.75 180.1406,946.125 Q179.1563,945.625 178.4688,944.5625 Q177.7813,943.4844 177.7813,942.2031 L177.7813,941.0469 Q177.7813,939.7188 178.3906,938.5781 Q179.0156,937.4219 180.1094,936.8125 Q181.2031,936.1875 182.4375,936.1875 Q183.1719,936.1875 183.8125,936.3594 Q184.4688,936.5156 185.0156,936.875 Z " fill="#000000"/><text fill="#000000" font-family="sans-serif" font-size="14" lengthAdjust="spacing" textLength="31" x="202.75" y="946.7969">Time</text><line style="stroke:#181818;stroke-width:0.5;" x1="92.5" x2="311.5" y1="957" y2="957"/><rect fill="none" height="6" style="stroke:#C82930;stroke-width:1.0;" width="6" x="99.5" y="968.8105"/><text fill="#000000" font-family="sans-serif" font-size="14" lengthAdjust="spacing" textLength="148" x="111.5" y="976.1074">TimesOfDay timeOfDay</text><rect fill="none" height="6" style="stroke:#C82930;stroke-width:1.0;" width="6" x="99.5" y="987.4316"/><text fill="#000000" font-family="sans-serif" font-size="14" lengthAdjust="spacing" textLength="95" x="111.5" y="994.7285">int currentTime</text><line style="stroke:#181818;stroke-width:0.5;" x1="92.5" x2="311.5" y1="1002.2422" y2="1002.2422"/><ellipse cx="102.5" cy="1017.0527" fill="#84BE84" rx="3" ry="3" style="stroke:#038048;stroke-width:1.0;"/><text fill="#000000" font-family="sans-serif" font-size="14" lengthAdjust="spacing" textLength="95" x="111.5" y="1021.3496">advanceTime()</text><ellipse cx="102.5" cy="1035.6738" fill="#84BE84" rx="3" ry="3" style="stroke:#038048;stroke-width:1.0;"/><text fill="#000000" font-family="sans-serif" font-size="14" lengthAdjust="spacing" textLength="195" x="111.5" y="1039.9707">setTimeOfDay(int currentTime)</text><ellipse cx="102.5" cy="1054.2949" fill="#84BE84" rx="3" ry="3" style="stroke:#038048;stroke-width:1.0;"/><text fill="#000000" font-family="sans-serif" font-size="14" lengthAdjust="spacing" textLength="67" x="111.5" y="1058.5918">resetDay()</text><ellipse cx="102.5" cy="1072.916" fill="#84BE84" rx="3" ry="3" style="stroke:#038048;stroke-width:1.0;"/><text fill="#000000" font-family="sans-serif" font-size="14" lengthAdjust="spacing" textLength="136" x="111.5" y="1077.2129">getCurrentTime() : int</text><ellipse cx="102.5" cy="1091.5371" fill="#84BE84" rx="3" ry="3" style="stroke:#038048;stroke-width:1.0;"/><text fill="#000000" font-family="sans-serif" font-size="14" lengthAdjust="spacing" textLength="191" x="111.5" y="1095.834">getTimeOfDay() : TimesOfDay</text></g><!--class Map--><g id="elem_Map"><rect codeLine="35" fill="#F1F1F1" height="141.1055" id="Map" rx="2.5" ry="2.5" style="stroke:#181818;stroke-width:0.5;" width="253" x="381.5" y="943.5"/><ellipse cx="490.25" cy="959.5" fill="#ADD1B2" rx="11" ry="11" style="stroke:#181818;stroke-width:1.0;"/><path d="M493.0156,955.375 Q493.1719,955.1563 493.3594,955.0469 Q493.5469,954.9375 493.7656,954.9375 Q494.1406,954.9375 494.375,955.2031 Q494.6094,955.4531 494.6094,956.0625 L494.6094,957.5156 Q494.6094,958.125 494.375,958.3906 Q494.1406,958.6563 493.7656,958.6563 Q493.4219,958.6563 493.2188,958.4531 Q493.0156,958.2656 492.9063,957.75 Q492.8594,957.3906 492.6719,957.2031 Q492.3438,956.8281 491.7344,956.6094 Q491.125,956.3906 490.5,956.3906 Q489.7344,956.3906 489.0938,956.7188 Q488.4688,957.0469 487.9688,957.7969 Q487.4844,958.5469 487.4844,959.5781 L487.4844,960.6719 Q487.4844,961.9063 488.375,962.7344 Q489.2656,963.5469 490.8594,963.5469 Q491.7969,963.5469 492.4531,963.2969 Q492.8438,963.1406 493.2656,962.7031 Q493.5313,962.4375 493.6719,962.3594 Q493.8281,962.2813 494.0313,962.2813 Q494.3594,962.2813 494.6094,962.5469 Q494.875,962.7969 494.875,963.1406 Q494.875,963.4844 494.5313,963.8906 Q494.0313,964.4688 493.2344,964.7969 Q492.1563,965.25 490.8594,965.25 Q489.3438,965.25 488.1406,964.625 Q487.1563,964.125 486.4688,963.0625 Q485.7813,961.9844 485.7813,960.7031 L485.7813,959.5469 Q485.7813,958.2188 486.3906,957.0781 Q487.0156,955.9219 488.1094,955.3125 Q489.2031,954.6875 490.4375,954.6875 Q491.1719,954.6875 491.8125,954.8594 Q492.4688,955.0156 493.0156,955.375 Z " fill="#000000"/><text fill="#000000" font-family="sans-serif" font-size="14" lengthAdjust="spacing" textLength="27" x="510.75" y="965.2969">Map</text><line style="stroke:#181818;stroke-width:0.5;" x1="382.5" x2="633.5" y1="975.5" y2="975.5"/><rect fill="none" height="6" style="stroke:#C82930;stroke-width:1.0;" width="6" x="389.5" y="987.3105"/><text fill="#000000" font-family="sans-serif" font-size="14" lengthAdjust="spacing" textLength="68" x="401.5" y="994.6074">Tile[][] tiles</text><line style="stroke:#181818;stroke-width:0.5;" x1="382.5" x2="633.5" y1="1002.1211" y2="1002.1211"/><ellipse cx="392.5" cy="1016.9316" fill="#84BE84" rx="3" ry="3" style="stroke:#038048;stroke-width:1.0;"/><text fill="#000000" font-family="sans-serif" font-size="14" lengthAdjust="spacing" textLength="227" x="401.5" y="1021.2285">updateTile(Point point, Tile newTile)</text><ellipse cx="392.5" cy="1035.5527" fill="#84BE84" rx="3" ry="3" style="stroke:#038048;stroke-width:1.0;"/><text fill="#000000" font-family="sans-serif" font-size="14" lengthAdjust="spacing" textLength="155" x="401.5" y="1039.8496">getTile(Point point) : Tile</text><ellipse cx="392.5" cy="1054.1738" fill="#84BE84" rx="3" ry="3" style="stroke:#038048;stroke-width:1.0;"/><text fill="#000000" font-family="sans-serif" font-size="14" lengthAdjust="spacing" textLength="97" x="401.5" y="1058.4707">getHeight() : int</text><ellipse cx="392.5" cy="1072.7949" fill="#84BE84" rx="3" ry="3" style="stroke:#038048;stroke-width:1.0;"/><text fill="#000000" font-family="sans-serif" font-size="14" lengthAdjust="spacing" textLength="93" x="401.5" y="1077.0918">getWidth() : int</text></g><!--class Tile--><g id="elem_Tile"><rect codeLine="44" fill="#F1F1F1" height="141.1055" id="Tile" rx="2.5" ry="2.5" style="stroke:#181818;stroke-width:0.5;" width="238" x="181" y="1163"/><ellipse cx="284.25" cy="1179" fill="#ADD1B2" rx="11" ry="11" style="stroke:#181818;stroke-width:1.0;"/><path d="M287.0156,1174.875 Q287.1719,1174.6563 287.3594,1174.5469 Q287.5469,1174.4375 287.7656,1174.4375 Q288.1406,1174.4375 288.375,1174.7031 Q288.6094,1174.9531 288.6094,1175.5625 L288.6094,1177.0156 Q288.6094,1177.625 288.375,1177.8906 Q288.1406,1178.1563 287.7656,1178.1563 Q287.4219,1178.1563 287.2188,1177.9531 Q287.0156,1177.7656 286.9063,1177.25 Q286.8594,1176.8906 286.6719,1176.7031 Q286.3438,1176.3281 285.7344,1176.1094 Q285.125,1175.8906 284.5,1175.8906 Q283.7344,1175.8906 283.0938,1176.2188 Q282.4688,1176.5469 281.9688,1177.2969 Q281.4844,1178.0469 281.4844,1179.0781 L281.4844,1180.1719 Q281.4844,1181.4063 282.375,1182.2344 Q283.2656,1183.0469 284.8594,1183.0469 Q285.7969,1183.0469 286.4531,1182.7969 Q286.8438,1182.6406 287.2656,1182.2031 Q287.5313,1181.9375 287.6719,1181.8594 Q287.8281,1181.7813 288.0313,1181.7813 Q288.3594,1181.7813 288.6094,1182.0469 Q288.875,1182.2969 288.875,1182.6406 Q288.875,1182.9844 288.5313,1183.3906 Q288.0313,1183.9688 287.2344,1184.2969 Q286.1563,1184.75 284.8594,1184.75 Q283.3438,1184.75 282.1406,1184.125 Q281.1563,1183.625 280.4688,1182.5625 Q279.7813,1181.4844 279.7813,1180.2031 L279.7813,1179.0469 Q279.7813,1177.7188 280.3906,1176.5781 Q281.0156,1175.4219 282.1094,1174.8125 Q283.2031,1174.1875 284.4375,1174.1875 Q285.1719,1174.1875 285.8125,1174.3594 Q286.4688,1174.5156 287.0156,1174.875 Z " fill="#000000"/><text fill="#000000" font-family="sans-serif" font-size="14" lengthAdjust="spacing" textLength="23" x="304.75" y="1184.7969">Tile</text><line style="stroke:#181818;stroke-width:0.5;" x1="182" x2="418" y1="1195" y2="1195"/><rect fill="none" height="6" style="stroke:#C82930;stroke-width:1.0;" width="6" x="189" y="1206.8105"/><text fill="#000000" font-family="sans-serif" font-size="14" lengthAdjust="spacing" textLength="93" x="201" y="1214.1074">TileTypes type</text><line style="stroke:#181818;stroke-width:0.5;" x1="182" x2="418" y1="1221.6211" y2="1221.6211"/><ellipse cx="192" cy="1236.4316" fill="#84BE84" rx="3" ry="3" style="stroke:#038048;stroke-width:1.0;"/><text fill="#000000" font-family="sans-serif" font-size="14" lengthAdjust="spacing" textLength="212" x="201" y="1240.7285">changeType(TileTypes newType)</text><ellipse cx="192" cy="1255.0527" fill="#84BE84" rx="3" ry="3" style="stroke:#038048;stroke-width:1.0;"/><text fill="#000000" font-family="sans-serif" font-size="14" lengthAdjust="spacing" textLength="136" x="201" y="1259.3496">getType() : TileTypes</text><ellipse cx="192" cy="1273.6738" fill="#84BE84" rx="3" ry="3" style="stroke:#038048;stroke-width:1.0;"/><text fill="#000000" font-family="sans-serif" font-size="14" lengthAdjust="spacing" textLength="154" x="201" y="1277.9707">getAsciiSymbol() : String</text><ellipse cx="192" cy="1292.2949" fill="#84BE84" rx="3" ry="3" style="stroke:#038048;stroke-width:1.0;"/><text fill="#000000" font-family="sans-serif" font-size="14" lengthAdjust="spacing" textLength="142" x="201" y="1296.5918">getAsciiColor() : String</text></g><!--class Entity--><g id="elem_Entity"><rect codeLine="53" fill="#F1F1F1" height="141.1055" id="Entity" rx="2.5" ry="2.5" style="stroke:#181818;stroke-width:0.5;" width="298" x="687" y="943.5"/><ellipse cx="814.25" cy="959.5" fill="#A9DCDF" rx="11" ry="11" style="stroke:#181818;stroke-width:1.0;"/><path d="M816.4375,961.2656 L812.2969,961.2656 L811.875,962.2969 L812.2969,962.2969 Q812.9063,962.2969 813.1719,962.5313 Q813.4375,962.7656 813.4375,963.1563 Q813.4375,963.5313 813.1719,963.7656 Q812.9063,964 812.2969,964 L810,964 Q809.3906,964 809.1406,963.7656 Q808.875,963.5313 808.875,963.1406 Q808.875,962.7656 809.1563,962.5313 Q809.4219,962.2813 810.0469,962.2969 L812.7188,955.6406 L811.6094,955.6406 Q811,955.6406 810.7344,955.4063 Q810.4688,955.1719 810.4688,954.7813 Q810.4688,954.4063 810.7344,954.1719 Q811,953.9375 811.6094,953.9375 L815.2813,953.9375 L818.6719,962.2969 Q819.2656,962.2969 819.4531,962.4375 Q819.8438,962.7031 819.8438,963.1563 Q819.8438,963.5313 819.5781,963.7656 Q819.3281,964 818.7188,964 L816.4219,964 Q815.8125,964 815.5469,963.7656 Q815.2813,963.5313 815.2813,963.1406 Q815.2813,962.7656 815.5469,962.5313 Q815.8125,962.2969 816.4219,962.2969 L816.8438,962.2969 L816.4375,961.2656 Z M815.7188,959.5625 L814.3594,956.1875 L812.9844,959.5625 L815.7188,959.5625 Z " fill="#000000"/><text fill="#000000" font-family="sans-serif" font-size="14" font-style="italic" lengthAdjust="spacing" textLength="35" x="834.75" y="965.2969">Entity</text><line style="stroke:#181818;stroke-width:0.5;" x1="688" x2="984" y1="975.5" y2="975.5"/><rect fill="none" height="6" style="stroke:#C82930;stroke-width:1.0;" width="6" x="695" y="987.3105"/><text fill="#000000" font-family="sans-serif" font-size="14" lengthAdjust="spacing" textLength="85" x="707" y="994.6074">Point position</text><rect fill="none" height="6" style="stroke:#C82930;stroke-width:1.0;" width="6" x="695" y="1005.9316"/><text fill="#000000" font-family="sans-serif" font-size="14" lengthAdjust="spacing" textLength="158" x="707" y="1013.2285">Transport transportInUse</text><line style="stroke:#181818;stroke-width:0.5;" x1="688" x2="984" y1="1020.7422" y2="1020.7422"/><ellipse cx="698" cy="1035.5527" fill="#84BE84" rx="3" ry="3" style="stroke:#038048;stroke-width:1.0;"/><text fill="#000000" font-family="sans-serif" font-size="14" lengthAdjust="spacing" textLength="172" x="707" y="1039.8496">moveTo(Point newPosition)</text><ellipse cx="698" cy="1054.1738" fill="#84BE84" rx="3" ry="3" style="stroke:#038048;stroke-width:1.0;"/><text fill="#000000" font-family="sans-serif" font-size="14" lengthAdjust="spacing" textLength="272" x="707" y="1058.4707">changeTransport(Transport newTransport)</text><ellipse cx="698" cy="1072.7949" fill="#84BE84" rx="3" ry="3" style="stroke:#038048;stroke-width:1.0;"/><text fill="#000000" font-family="sans-serif" font-size="14" lengthAdjust="spacing" textLength="201" x="707" y="1077.0918">getTransportInUse() : Transport</text></g><!--class Character--><g id="elem_Character"><rect codeLine="62" fill="#F1F1F1" height="122.4844" id="Character" rx="2.5" ry="2.5" style="stroke:#181818;stroke-width:0.5;" width="264" x="454" y="1172.5"/><ellipse cx="550.25" cy="1188.5" fill="#ADD1B2" rx="11" ry="11" style="stroke:#181818;stroke-width:1.0;"/><path d="M553.0156,1184.375 Q553.1719,1184.1563 553.3594,1184.0469 Q553.5469,1183.9375 553.7656,1183.9375 Q554.1406,1183.9375 554.375,1184.2031 Q554.6094,1184.4531 554.6094,1185.0625 L554.6094,1186.5156 Q554.6094,1187.125 554.375,1187.3906 Q554.1406,1187.6563 553.7656,1187.6563 Q553.4219,1187.6563 553.2188,1187.4531 Q553.0156,1187.2656 552.9063,1186.75 Q552.8594,1186.3906 552.6719,1186.2031 Q552.3438,1185.8281 551.7344,1185.6094 Q551.125,1185.3906 550.5,1185.3906 Q549.7344,1185.3906 549.0938,1185.7188 Q548.4688,1186.0469 547.9688,1186.7969 Q547.4844,1187.5469 547.4844,1188.5781 L547.4844,1189.6719 Q547.4844,1190.9063 548.375,1191.7344 Q549.2656,1192.5469 550.8594,1192.5469 Q551.7969,1192.5469 552.4531,1192.2969 Q552.8438,1192.1406 553.2656,1191.7031 Q553.5313,1191.4375 553.6719,1191.3594 Q553.8281,1191.2813 554.0313,1191.2813 Q554.3594,1191.2813 554.6094,1191.5469 Q554.875,1191.7969 554.875,1192.1406 Q554.875,1192.4844 554.5313,1192.8906 Q554.0313,1193.4688 553.2344,1193.7969 Q552.1563,1194.25 550.8594,1194.25 Q549.3438,1194.25 548.1406,1193.625 Q547.1563,1193.125 546.4688,1192.0625 Q545.7813,1190.9844 545.7813,1189.7031 L545.7813,1188.5469 Q545.7813,1187.2188 546.3906,1186.0781 Q547.0156,1184.9219 548.1094,1184.3125 Q549.2031,1183.6875 550.4375,1183.6875 Q551.1719,1183.6875 551.8125,1183.8594 Q552.4688,1184.0156 553.0156,1184.375 Z " fill="#000000"/><text fill="#000000" font-family="sans-serif" font-size="14" lengthAdjust="spacing" textLength="63" x="570.75" y="1194.2969">Character</text><line style="stroke:#181818;stroke-width:0.5;" x1="455" x2="717" y1="1204.5" y2="1204.5"/><rect fill="none" height="6" style="stroke:#C82930;stroke-width:1.0;" width="6" x="462" y="1216.3105"/><text fill="#000000" font-family="sans-serif" font-size="14" lengthAdjust="spacing" textLength="126" x="474" y="1223.6074">CharacterType type</text><rect fill="none" height="6" style="stroke:#C82930;stroke-width:1.0;" width="6" x="462" y="1234.9316"/><text fill="#000000" font-family="sans-serif" font-size="14" lengthAdjust="spacing" textLength="199" x="474" y="1242.2285">Transport[] availableTransports</text><line style="stroke:#181818;stroke-width:0.5;" x1="455" x2="717" y1="1249.7422" y2="1249.7422"/><ellipse cx="465" cy="1264.5527" fill="#84BE84" rx="3" ry="3" style="stroke:#038048;stroke-width:1.0;"/><text fill="#000000" font-family="sans-serif" font-size="14" lengthAdjust="spacing" textLength="238" x="474" y="1268.8496">getAvailableTransports() : Transport[]</text><ellipse cx="465" cy="1283.1738" fill="#84BE84" rx="3" ry="3" style="stroke:#038048;stroke-width:1.0;"/><text fill="#000000" font-family="sans-serif" font-size="14" lengthAdjust="spacing" textLength="232" x="474" y="1287.4707">getCharacterType() : CharacterType</text></g><!--class Transport--><g id="elem_Transport"><rect codeLine="70" fill="#F1F1F1" height="122.4844" id="Transport" rx="2.5" ry="2.5" style="stroke:#181818;stroke-width:0.5;" width="201" x="753.5" y="1172.5"/><ellipse cx="818.75" cy="1188.5" fill="#ADD1B2" rx="11" ry="11" style="stroke:#181818;stroke-width:1.0;"/><path d="M821.5156,1184.375 Q821.6719,1184.1563 821.8594,1184.0469 Q822.0469,1183.9375 822.2656,1183.9375 Q822.6406,1183.9375 822.875,1184.2031 Q823.1094,1184.4531 823.1094,1185.0625 L823.1094,1186.5156 Q823.1094,1187.125 822.875,1187.3906 Q822.6406,1187.6563 822.2656,1187.6563 Q821.9219,1187.6563 821.7188,1187.4531 Q821.5156,1187.2656 821.4063,1186.75 Q821.3594,1186.3906 821.1719,1186.2031 Q820.8438,1185.8281 820.2344,1185.6094 Q819.625,1185.3906 819,1185.3906 Q818.2344,1185.3906 817.5938,1185.7188 Q816.9688,1186.0469 816.4688,1186.7969 Q815.9844,1187.5469 815.9844,1188.5781 L815.9844,1189.6719 Q815.9844,1190.9063 816.875,1191.7344 Q817.7656,1192.5469 819.3594,1192.5469 Q820.2969,1192.5469 820.9531,1192.2969 Q821.3438,1192.1406 821.7656,1191.7031 Q822.0313,1191.4375 822.1719,1191.3594 Q822.3281,1191.2813 822.5313,1191.2813 Q822.8594,1191.2813 823.1094,1191.5469 Q823.375,1191.7969 823.375,1192.1406 Q823.375,1192.4844 823.0313,1192.8906 Q822.5313,1193.4688 821.7344,1193.7969 Q820.6563,1194.25 819.3594,1194.25 Q817.8438,1194.25 816.6406,1193.625 Q815.6563,1193.125 814.9688,1192.0625 Q814.2813,1190.9844 814.2813,1189.7031 L814.2813,1188.5469 Q814.2813,1187.2188 814.8906,1186.0781 Q815.5156,1184.9219 816.6094,1184.3125 Q817.7031,1183.6875 818.9375,1183.6875 Q819.6719,1183.6875 820.3125,1183.8594 Q820.9688,1184.0156 821.5156,1184.375 Z " fill="#000000"/><text fill="#000000" font-family="sans-serif" font-size="14" lengthAdjust="spacing" textLength="62" x="839.25" y="1194.2969">Transport</text><line style="stroke:#181818;stroke-width:0.5;" x1="754.5" x2="953.5" y1="1204.5" y2="1204.5"/><rect fill="none" height="6" style="stroke:#C82930;stroke-width:1.0;" width="6" x="761.5" y="1216.3105"/><text fill="#000000" font-family="sans-serif" font-size="14" lengthAdjust="spacing" textLength="132" x="773.5" y="1223.6074">TransportTypes type</text><line style="stroke:#181818;stroke-width:0.5;" x1="754.5" x2="953.5" y1="1231.1211" y2="1231.1211"/><ellipse cx="764.5" cy="1245.9316" fill="#84BE84" rx="3" ry="3" style="stroke:#038048;stroke-width:1.0;"/><text fill="#000000" font-family="sans-serif" font-size="14" lengthAdjust="spacing" textLength="175" x="773.5" y="1250.2285">getType() : TransportTypes</text><ellipse cx="764.5" cy="1264.5527" fill="#84BE84" rx="3" ry="3" style="stroke:#038048;stroke-width:1.0;"/><text fill="#000000" font-family="sans-serif" font-size="14" lengthAdjust="spacing" textLength="98" x="773.5" y="1268.8496">getSpeed() : int</text><ellipse cx="764.5" cy="1283.1738" fill="#84BE84" rx="3" ry="3" style="stroke:#038048;stroke-width:1.0;"/><text fill="#000000" font-family="sans-serif" font-size="14" lengthAdjust="spacing" textLength="154" x="773.5" y="1287.4707">getAsciiSymbol() : String</text></g><!--class Point--><g id="elem_Point"><rect codeLine="78" fill="#F1F1F1" height="122.4844" id="Point" rx="2.5" ry="2.5" style="stroke:#181818;stroke-width:0.5;" width="168" x="990" y="1172.5"/><ellipse cx="1053.75" cy="1188.5" fill="#ADD1B2" rx="11" ry="11" style="stroke:#181818;stroke-width:1.0;"/><path d="M1056.5156,1184.375 Q1056.6719,1184.1563 1056.8594,1184.0469 Q1057.0469,1183.9375 1057.2656,1183.9375 Q1057.6406,1183.9375 1057.875,1184.2031 Q1058.1094,1184.4531 1058.1094,1185.0625 L1058.1094,1186.5156 Q1058.1094,1187.125 1057.875,1187.3906 Q1057.6406,1187.6563 1057.2656,1187.6563 Q1056.9219,1187.6563 1056.7188,1187.4531 Q1056.5156,1187.2656 1056.4063,1186.75 Q1056.3594,1186.3906 1056.1719,1186.2031 Q1055.8438,1185.8281 1055.2344,1185.6094 Q1054.625,1185.3906 1054,1185.3906 Q1053.2344,1185.3906 1052.5938,1185.7188 Q1051.9688,1186.0469 1051.4688,1186.7969 Q1050.9844,1187.5469 1050.9844,1188.5781 L1050.9844,1189.6719 Q1050.9844,1190.9063 1051.875,1191.7344 Q1052.7656,1192.5469 1054.3594,1192.5469 Q1055.2969,1192.5469 1055.9531,1192.2969 Q1056.3438,1192.1406 1056.7656,1191.7031 Q1057.0313,1191.4375 1057.1719,1191.3594 Q1057.3281,1191.2813 1057.5313,1191.2813 Q1057.8594,1191.2813 1058.1094,1191.5469 Q1058.375,1191.7969 1058.375,1192.1406 Q1058.375,1192.4844 1058.0313,1192.8906 Q1057.5313,1193.4688 1056.7344,1193.7969 Q1055.6563,1194.25 1054.3594,1194.25 Q1052.8438,1194.25 1051.6406,1193.625 Q1050.6563,1193.125 1049.9688,1192.0625 Q1049.2813,1190.9844 1049.2813,1189.7031 L1049.2813,1188.5469 Q1049.2813,1187.2188 1049.8906,1186.0781 Q1050.5156,1184.9219 1051.6094,1184.3125 Q1052.7031,1183.6875 1053.9375,1183.6875 Q1054.6719,1183.6875 1055.3125,1183.8594 Q1055.9688,1184.0156 1056.5156,1184.375 Z " fill="#000000"/><text fill="#000000" font-family="sans-serif" font-size="14" lengthAdjust="spacing" textLength="32" x="1074.25" y="1194.2969">Point</text><line style="stroke:#181818;stroke-width:0.5;" x1="991" x2="1157" y1="1204.5" y2="1204.5"/><rect fill="none" height="6" style="stroke:#C82930;stroke-width:1.0;" width="6" x="998" y="1216.3105"/><text fill="#000000" font-family="sans-serif" font-size="14" lengthAdjust="spacing" textLength="25" x="1010" y="1223.6074">int x</text><rect fill="none" height="6" style="stroke:#C82930;stroke-width:1.0;" width="6" x="998" y="1234.9316"/><text fill="#000000" font-family="sans-serif" font-size="14" lengthAdjust="spacing" textLength="26" x="1010" y="1242.2285">int y</text><line style="stroke:#181818;stroke-width:0.5;" x1="991" x2="1157" y1="1249.7422" y2="1249.7422"/><ellipse cx="1001" cy="1264.5527" fill="#84BE84" rx="3" ry="3" style="stroke:#038048;stroke-width:1.0;"/><text fill="#000000" font-family="sans-serif" font-size="14" lengthAdjust="spacing" textLength="119" x="1010" y="1268.8496">getLocation() : int[]</text><ellipse cx="1001" cy="1283.1738" fill="#84BE84" rx="3" ry="3" style="stroke:#038048;stroke-width:1.0;"/><text fill="#000000" font-family="sans-serif" font-size="14" lengthAdjust="spacing" textLength="142" x="1010" y="1287.4707">setLocation(int x, int y)</text></g><!--class TileTypes--><g id="elem_TileTypes"><rect codeLine="86" fill="#F1F1F1" height="215.5898" id="TileTypes" rx="2.5" ry="2.5" style="stroke:#181818;stroke-width:0.5;" width="99" x="250.5" y="1364"/><ellipse cx="267.75" cy="1380" fill="#EB937F" rx="11" ry="11" style="stroke:#181818;stroke-width:1.0;"/><path d="M266.6094,1380.7969 L266.6094,1383.2969 L270.9375,1383.2969 L270.9375,1382.375 Q270.9375,1381.7656 271.1719,1381.5 Q271.4219,1381.2344 271.7969,1381.2344 Q272.1719,1381.2344 272.4063,1381.5 Q272.6406,1381.7656 272.6406,1382.375 L272.6406,1385 L264.6406,1385 Q264.0156,1385 263.75,1384.7656 Q263.5,1384.5313 263.5,1384.1406 Q263.5,1383.7656 263.7656,1383.5313 Q264.0313,1383.2969 264.6406,1383.2969 L264.9063,1383.2969 L264.9063,1376.6406 L264.6406,1376.6406 Q264.0156,1376.6406 263.75,1376.4063 Q263.5,1376.1719 263.5,1375.7813 Q263.5,1375.4063 263.75,1375.1719 Q264.0156,1374.9375 264.6406,1374.9375 L272.2656,1374.9375 L272.2656,1377.5313 Q272.2656,1378.1406 272.0313,1378.4063 Q271.8125,1378.6563 271.4219,1378.6563 Q271.0469,1378.6563 270.8125,1378.4063 Q270.5781,1378.1406 270.5781,1377.5313 L270.5781,1376.6406 L266.6094,1376.6406 L266.6094,1379.0938 L268.0938,1379.0938 Q268.0938,1378.4375 268.2188,1378.25 Q268.4844,1377.8438 268.9531,1377.8438 Q269.3281,1377.8438 269.5625,1378.1094 Q269.7969,1378.3594 269.7969,1378.9688 L269.7969,1380.9375 Q269.7969,1381.4844 269.6719,1381.6719 Q269.4063,1382.0625 268.9531,1382.0625 Q268.4844,1382.0625 268.2188,1381.6563 Q268.0938,1381.4688 268.0938,1380.7969 L266.6094,1380.7969 Z " fill="#000000"/><text fill="#000000" font-family="sans-serif" font-size="14" lengthAdjust="spacing" textLength="62" x="282.25" y="1385.7969">TileTypes</text><line style="stroke:#181818;stroke-width:0.5;" x1="251.5" x2="348.5" y1="1396" y2="1396"/><text fill="#000000" font-family="sans-serif" font-size="14" lengthAdjust="spacing" textLength="33" x="256.5" y="1415.1074">Floor</text><text fill="#000000" font-family="sans-serif" font-size="14" lengthAdjust="spacing" textLength="33" x="256.5" y="1433.7285">Sand</text><text fill="#000000" font-family="sans-serif" font-size="14" lengthAdjust="spacing" textLength="27" x="256.5" y="1452.3496">Wall</text><text fill="#000000" font-family="sans-serif" font-size="14" lengthAdjust="spacing" textLength="72" x="256.5" y="1470.9707">ShortGrass</text><text fill="#000000" font-family="sans-serif" font-size="14" lengthAdjust="spacing" textLength="87" x="256.5" y="1489.5918">MediumGrass</text><text fill="#000000" font-family="sans-serif" font-size="14" lengthAdjust="spacing" textLength="61" x="256.5" y="1508.2129">TallGrass</text><text fill="#000000" font-family="sans-serif" font-size="14" lengthAdjust="spacing" textLength="38" x="256.5" y="1526.834">Water</text><text fill="#000000" font-family="sans-serif" font-size="14" lengthAdjust="spacing" textLength="72" x="256.5" y="1545.4551">DeepWater</text><text fill="#000000" font-family="sans-serif" font-size="14" lengthAdjust="spacing" textLength="58" x="256.5" y="1564.0762">Mountain</text><line style="stroke:#181818;stroke-width:0.5;" x1="251.5" x2="348.5" y1="1571.5898" y2="1571.5898"/></g><!--class ImpreciseTime--><g id="elem_ImpreciseTime"><rect codeLine="98" fill="#F1F1F1" height="122.4844" id="ImpreciseTime" rx="2.5" ry="2.5" style="stroke:#181818;stroke-width:0.5;" width="123" x="22.5" y="1172.5"/><ellipse cx="37.5" cy="1188.5" fill="#EB937F" rx="11" ry="11" style="stroke:#181818;stroke-width:1.0;"/><path d="M36.3594,1189.2969 L36.3594,1191.7969 L40.6875,1191.7969 L40.6875,1190.875 Q40.6875,1190.2656 40.9219,1190 Q41.1719,1189.7344 41.5469,1189.7344 Q41.9219,1189.7344 42.1563,1190 Q42.3906,1190.2656 42.3906,1190.875 L42.3906,1193.5 L34.3906,1193.5 Q33.7656,1193.5 33.5,1193.2656 Q33.25,1193.0313 33.25,1192.6406 Q33.25,1192.2656 33.5156,1192.0313 Q33.7813,1191.7969 34.3906,1191.7969 L34.6563,1191.7969 L34.6563,1185.1406 L34.3906,1185.1406 Q33.7656,1185.1406 33.5,1184.9063 Q33.25,1184.6719 33.25,1184.2813 Q33.25,1183.9063 33.5,1183.6719 Q33.7656,1183.4375 34.3906,1183.4375 L42.0156,1183.4375 L42.0156,1186.0313 Q42.0156,1186.6406 41.7813,1186.9063 Q41.5625,1187.1563 41.1719,1187.1563 Q40.7969,1187.1563 40.5625,1186.9063 Q40.3281,1186.6406 40.3281,1186.0313 L40.3281,1185.1406 L36.3594,1185.1406 L36.3594,1187.5938 L37.8438,1187.5938 Q37.8438,1186.9375 37.9688,1186.75 Q38.2344,1186.3438 38.7031,1186.3438 Q39.0781,1186.3438 39.3125,1186.6094 Q39.5469,1186.8594 39.5469,1187.4688 L39.5469,1189.4375 Q39.5469,1189.9844 39.4219,1190.1719 Q39.1563,1190.5625 38.7031,1190.5625 Q38.2344,1190.5625 37.9688,1190.1563 Q37.8438,1189.9688 37.8438,1189.2969 L36.3594,1189.2969 Z " fill="#000000"/><text fill="#000000" font-family="sans-serif" font-size="14" lengthAdjust="spacing" textLength="91" x="51.5" y="1194.2969">ImpreciseTime</text><line style="stroke:#181818;stroke-width:0.5;" x1="23.5" x2="144.5" y1="1204.5" y2="1204.5"/><text fill="#000000" font-family="sans-serif" font-size="14" lengthAdjust="spacing" textLength="51" x="28.5" y="1223.6074">Morning</text><text fill="#000000" font-family="sans-serif" font-size="14" lengthAdjust="spacing" textLength="62" x="28.5" y="1242.2285">Afternoon</text><text fill="#000000" font-family="sans-serif" font-size="14" lengthAdjust="spacing" textLength="51" x="28.5" y="1260.8496">Evening</text><text fill="#000000" font-family="sans-serif" font-size="14" lengthAdjust="spacing" textLength="32" x="28.5" y="1279.4707">Night</text><line style="stroke:#181818;stroke-width:0.5;" x1="23.5" x2="144.5" y1="1286.9844" y2="1286.9844"/></g><!--class TransportTypes--><g id="elem_TransportTypes"><rect codeLine="105" fill="#F1F1F1" height="122.4844" id="TransportTypes" rx="2.5" ry="2.5" style="stroke:#181818;stroke-width:0.5;" width="133" x="787.5" y="1411"/><ellipse cx="802.5" cy="1427" fill="#EB937F" rx="11" ry="11" style="stroke:#181818;stroke-width:1.0;"/><path d="M801.3594,1427.7969 L801.3594,1430.2969 L805.6875,1430.2969 L805.6875,1429.375 Q805.6875,1428.7656 805.9219,1428.5 Q806.1719,1428.2344 806.5469,1428.2344 Q806.9219,1428.2344 807.1563,1428.5 Q807.3906,1428.7656 807.3906,1429.375 L807.3906,1432 L799.3906,1432 Q798.7656,1432 798.5,1431.7656 Q798.25,1431.5313 798.25,1431.1406 Q798.25,1430.7656 798.5156,1430.5313 Q798.7813,1430.2969 799.3906,1430.2969 L799.6563,1430.2969 L799.6563,1423.6406 L799.3906,1423.6406 Q798.7656,1423.6406 798.5,1423.4063 Q798.25,1423.1719 798.25,1422.7813 Q798.25,1422.4063 798.5,1422.1719 Q798.7656,1421.9375 799.3906,1421.9375 L807.0156,1421.9375 L807.0156,1424.5313 Q807.0156,1425.1406 806.7813,1425.4063 Q806.5625,1425.6563 806.1719,1425.6563 Q805.7969,1425.6563 805.5625,1425.4063 Q805.3281,1425.1406 805.3281,1424.5313 L805.3281,1423.6406 L801.3594,1423.6406 L801.3594,1426.0938 L802.8438,1426.0938 Q802.8438,1425.4375 802.9688,1425.25 Q803.2344,1424.8438 803.7031,1424.8438 Q804.0781,1424.8438 804.3125,1425.1094 Q804.5469,1425.3594 804.5469,1425.9688 L804.5469,1427.9375 Q804.5469,1428.4844 804.4219,1428.6719 Q804.1563,1429.0625 803.7031,1429.0625 Q803.2344,1429.0625 802.9688,1428.6563 Q802.8438,1428.4688 802.8438,1427.7969 L801.3594,1427.7969 Z " fill="#000000"/><text fill="#000000" font-family="sans-serif" font-size="14" lengthAdjust="spacing" textLength="101" x="816.5" y="1432.7969">TransportTypes</text><line style="stroke:#181818;stroke-width:0.5;" x1="788.5" x2="919.5" y1="1443" y2="1443"/><text fill="#000000" font-family="sans-serif" font-size="14" lengthAdjust="spacing" textLength="29" x="793.5" y="1462.1074">Foot</text><text fill="#000000" font-family="sans-serif" font-size="14" lengthAdjust="spacing" textLength="37" x="793.5" y="1480.7285">Horse</text><text fill="#000000" font-family="sans-serif" font-size="14" lengthAdjust="spacing" textLength="29" x="793.5" y="1499.3496">Boat</text><text fill="#000000" font-family="sans-serif" font-size="14" lengthAdjust="spacing" textLength="80" x="793.5" y="1517.9707">MagicCarpet</text><line style="stroke:#181818;stroke-width:0.5;" x1="788.5" x2="919.5" y1="1525.4844" y2="1525.4844"/></g><!--class CharacterType--><g id="elem_CharacterType"><rect codeLine="112" fill="#F1F1F1" height="122.4844" id="CharacterType" rx="2.5" ry="2.5" style="stroke:#181818;stroke-width:0.5;" width="234" x="469" y="1411"/><ellipse cx="534.25" cy="1427" fill="#EB937F" rx="11" ry="11" style="stroke:#181818;stroke-width:1.0;"/><path d="M533.1094,1427.7969 L533.1094,1430.2969 L537.4375,1430.2969 L537.4375,1429.375 Q537.4375,1428.7656 537.6719,1428.5 Q537.9219,1428.2344 538.2969,1428.2344 Q538.6719,1428.2344 538.9063,1428.5 Q539.1406,1428.7656 539.1406,1429.375 L539.1406,1432 L531.1406,1432 Q530.5156,1432 530.25,1431.7656 Q530,1431.5313 530,1431.1406 Q530,1430.7656 530.2656,1430.5313 Q530.5313,1430.2969 531.1406,1430.2969 L531.4063,1430.2969 L531.4063,1423.6406 L531.1406,1423.6406 Q530.5156,1423.6406 530.25,1423.4063 Q530,1423.1719 530,1422.7813 Q530,1422.4063 530.25,1422.1719 Q530.5156,1421.9375 531.1406,1421.9375 L538.7656,1421.9375 L538.7656,1424.5313 Q538.7656,1425.1406 538.5313,1425.4063 Q538.3125,1425.6563 537.9219,1425.6563 Q537.5469,1425.6563 537.3125,1425.4063 Q537.0781,1425.1406 537.0781,1424.5313 L537.0781,1423.6406 L533.1094,1423.6406 L533.1094,1426.0938 L534.5938,1426.0938 Q534.5938,1425.4375 534.7188,1425.25 Q534.9844,1424.8438 535.4531,1424.8438 Q535.8281,1424.8438 536.0625,1425.1094 Q536.2969,1425.3594 536.2969,1425.9688 L536.2969,1427.9375 Q536.2969,1428.4844 536.1719,1428.6719 Q535.9063,1429.0625 535.4531,1429.0625 Q534.9844,1429.0625 534.7188,1428.6563 Q534.5938,1428.4688 534.5938,1427.7969 L533.1094,1427.7969 Z " fill="#000000"/><text fill="#000000" font-family="sans-serif" font-size="14" lengthAdjust="spacing" textLength="95" x="554.75" y="1432.7969">CharacterType</text><line style="stroke:#181818;stroke-width:0.5;" x1="470" x2="702" y1="1443" y2="1443"/><text fill="#000000" font-family="sans-serif" font-size="14" lengthAdjust="spacing" textLength="141" x="489" y="1462.1074">Playable, NonPlayable</text><rect fill="none" height="6" style="stroke:#C82930;stroke-width:1.0;" width="6" x="477" y="1473.4316"/><text fill="#000000" font-family="sans-serif" font-size="14" lengthAdjust="spacing" textLength="103" x="489" y="1480.7285">String asciiColor</text><line style="stroke:#181818;stroke-width:0.5;" x1="470" x2="702" y1="1488.2422" y2="1488.2422"/><ellipse cx="480" cy="1503.0527" fill="#84BE84" rx="3" ry="3" style="stroke:#038048;stroke-width:1.0;"/><text fill="#000000" font-family="sans-serif" font-size="14" lengthAdjust="spacing" textLength="208" x="489" y="1507.3496">CharacterType(String asciiColor)</text><ellipse cx="480" cy="1521.6738" fill="#84BE84" rx="3" ry="3" style="stroke:#038048;stroke-width:1.0;"/><text fill="#000000" font-family="sans-serif" font-size="14" lengthAdjust="spacing" textLength="93" x="489" y="1525.9707">getAsciiColor()</text></g><!--class WorldView--><g id="elem_WorldView"><rect codeLine="121" fill="#F1F1F1" height="122.4844" id="WorldView" rx="2.5" ry="2.5" style="stroke:#181818;stroke-width:0.5;" width="360" x="1214" y="696"/><ellipse cx="1356.75" cy="712" fill="#ADD1B2" rx="11" ry="11" style="stroke:#181818;stroke-width:1.0;"/><path d="M1359.5156,707.875 Q1359.6719,707.6563 1359.8594,707.5469 Q1360.0469,707.4375 1360.2656,707.4375 Q1360.6406,707.4375 1360.875,707.7031 Q1361.1094,707.9531 1361.1094,708.5625 L1361.1094,710.0156 Q1361.1094,710.625 1360.875,710.8906 Q1360.6406,711.1563 1360.2656,711.1563 Q1359.9219,711.1563 1359.7188,710.9531 Q1359.5156,710.7656 1359.4063,710.25 Q1359.3594,709.8906 1359.1719,709.7031 Q1358.8438,709.3281 1358.2344,709.1094 Q1357.625,708.8906 1357,708.8906 Q1356.2344,708.8906 1355.5938,709.2188 Q1354.9688,709.5469 1354.4688,710.2969 Q1353.9844,711.0469 1353.9844,712.0781 L1353.9844,713.1719 Q1353.9844,714.4063 1354.875,715.2344 Q1355.7656,716.0469 1357.3594,716.0469 Q1358.2969,716.0469 1358.9531,715.7969 Q1359.3438,715.6406 1359.7656,715.2031 Q1360.0313,714.9375 1360.1719,714.8594 Q1360.3281,714.7813 1360.5313,714.7813 Q1360.8594,714.7813 1361.1094,715.0469 Q1361.375,715.2969 1361.375,715.6406 Q1361.375,715.9844 1361.0313,716.3906 Q1360.5313,716.9688 1359.7344,717.2969 Q1358.6563,717.75 1357.3594,717.75 Q1355.8438,717.75 1354.6406,717.125 Q1353.6563,716.625 1352.9688,715.5625 Q1352.2813,714.4844 1352.2813,713.2031 L1352.2813,712.0469 Q1352.2813,710.7188 1352.8906,709.5781 Q1353.5156,708.4219 1354.6094,707.8125 Q1355.7031,707.1875 1356.9375,707.1875 Q1357.6719,707.1875 1358.3125,707.3594 Q1358.9688,707.5156 1359.5156,707.875 Z " fill="#000000"/><text fill="#000000" font-family="sans-serif" font-size="14" lengthAdjust="spacing" textLength="66" x="1377.25" y="717.7969">WorldView</text><line style="stroke:#181818;stroke-width:0.5;" x1="1215" x2="1573" y1="728" y2="728"/><line style="stroke:#181818;stroke-width:0.5;" x1="1215" x2="1573" y1="736" y2="736"/><ellipse cx="1225" cy="750.8105" fill="#84BE84" rx="3" ry="3" style="stroke:#038048;stroke-width:1.0;"/><text fill="#000000" font-family="sans-serif" font-size="14" lengthAdjust="spacing" textLength="165" x="1234" y="755.1074">displayWorld(World world)</text><ellipse cx="1225" cy="769.4316" fill="#84BE84" rx="3" ry="3" style="stroke:#038048;stroke-width:1.0;"/><text fill="#000000" font-family="sans-serif" font-size="14" lengthAdjust="spacing" textLength="146" x="1234" y="773.7285">displayTime(Time time)</text><ellipse cx="1225" cy="788.0527" fill="#84BE84" rx="3" ry="3" style="stroke:#038048;stroke-width:1.0;"/><text fill="#000000" font-family="sans-serif" font-size="14" lengthAdjust="spacing" textLength="317" x="1234" y="792.3496">displayIntoConsole(Map map, List&lt;Entity&gt; entities)</text><rect fill="#F24D5C" height="6" style="stroke:#C82930;stroke-width:1.0;" width="6" x="1222" y="803.6738"/><text fill="#000000" font-family="sans-serif" font-size="14" lengthAdjust="spacing" textLength="334" x="1234" y="810.9707">displayMap(Map map, List&lt;Entity&gt; entities) : String[][]</text></g><!--class WorldController--><g id="elem_WorldController"><rect codeLine="130" fill="#F1F1F1" height="383.1797" id="WorldController" rx="2.5" ry="2.5" style="stroke:#181818;stroke-width:0.5;" width="411" x="896.5" y="189"/><ellipse cx="1048.25" cy="205" fill="#ADD1B2" rx="11" ry="11" style="stroke:#181818;stroke-width:1.0;"/><path d="M1051.0156,200.875 Q1051.1719,200.6563 1051.3594,200.5469 Q1051.5469,200.4375 1051.7656,200.4375 Q1052.1406,200.4375 1052.375,200.7031 Q1052.6094,200.9531 1052.6094,201.5625 L1052.6094,203.0156 Q1052.6094,203.625 1052.375,203.8906 Q1052.1406,204.1563 1051.7656,204.1563 Q1051.4219,204.1563 1051.2188,203.9531 Q1051.0156,203.7656 1050.9063,203.25 Q1050.8594,202.8906 1050.6719,202.7031 Q1050.3438,202.3281 1049.7344,202.1094 Q1049.125,201.8906 1048.5,201.8906 Q1047.7344,201.8906 1047.0938,202.2188 Q1046.4688,202.5469 1045.9688,203.2969 Q1045.4844,204.0469 1045.4844,205.0781 L1045.4844,206.1719 Q1045.4844,207.4063 1046.375,208.2344 Q1047.2656,209.0469 1048.8594,209.0469 Q1049.7969,209.0469 1050.4531,208.7969 Q1050.8438,208.6406 1051.2656,208.2031 Q1051.5313,207.9375 1051.6719,207.8594 Q1051.8281,207.7813 1052.0313,207.7813 Q1052.3594,207.7813 1052.6094,208.0469 Q1052.875,208.2969 1052.875,208.6406 Q1052.875,208.9844 1052.5313,209.3906 Q1052.0313,209.9688 1051.2344,210.2969 Q1050.1563,210.75 1048.8594,210.75 Q1047.3438,210.75 1046.1406,210.125 Q1045.1563,209.625 1044.4688,208.5625 Q1043.7813,207.4844 1043.7813,206.2031 L1043.7813,205.0469 Q1043.7813,203.7188 1044.3906,202.5781 Q1045.0156,201.4219 1046.1094,200.8125 Q1047.2031,200.1875 1048.4375,200.1875 Q1049.1719,200.1875 1049.8125,200.3594 Q1050.4688,200.5156 1051.0156,200.875 Z " fill="#000000"/><text fill="#000000" font-family="sans-serif" font-size="14" lengthAdjust="spacing" textLength="99" x="1068.75" y="210.7969">WorldController</text><line style="stroke:#181818;stroke-width:0.5;" x1="897.5" x2="1306.5" y1="221" y2="221"/><rect fill="none" height="6" style="stroke:#C82930;stroke-width:1.0;" width="6" x="904.5" y="232.8105"/><text fill="#000000" font-family="sans-serif" font-size="14" lengthAdjust="spacing" textLength="74" x="916.5" y="240.1074">World world</text><rect fill="none" height="6" style="stroke:#C82930;stroke-width:1.0;" width="6" x="904.5" y="251.4316"/><text fill="#000000" font-family="sans-serif" font-size="14" lengthAdjust="spacing" textLength="132" x="916.5" y="258.7285">WorldView worldView</text><line style="stroke:#181818;stroke-width:0.5;" x1="897.5" x2="1306.5" y1="266.2422" y2="266.2422"/><ellipse cx="907.5" cy="281.0527" fill="#84BE84" rx="3" ry="3" style="stroke:#038048;stroke-width:1.0;"/><text fill="#000000" font-family="sans-serif" font-size="14" lengthAdjust="spacing" textLength="97" x="916.5" y="285.3496">initializeGame()</text><ellipse cx="907.5" cy="299.6738" fill="#84BE84" rx="3" ry="3" style="stroke:#038048;stroke-width:1.0;"/><text fill="#000000" font-family="sans-serif" font-size="14" lengthAdjust="spacing" textLength="104" x="916.5" y="303.9707">runGameCycle()</text><rect fill="#F24D5C" height="6" style="stroke:#C82930;stroke-width:1.0;" width="6" x="904.5" y="315.2949"/><text fill="#000000" font-family="sans-serif" font-size="14" lengthAdjust="spacing" textLength="123" x="916.5" y="322.5918">initializeWorldMap()</text><rect fill="#F24D5C" height="6" style="stroke:#C82930;stroke-width:1.0;" width="6" x="904.5" y="333.916"/><text fill="#000000" font-family="sans-serif" font-size="14" lengthAdjust="spacing" textLength="142" x="916.5" y="341.2129">initializeWorldEntities()</text><rect fill="#F24D5C" height="6" style="stroke:#C82930;stroke-width:1.0;" width="6" x="904.5" y="352.5371"/><text fill="#000000" font-family="sans-serif" font-size="14" lengthAdjust="spacing" textLength="90" x="916.5" y="359.834">createPlayer()</text><rect fill="#F24D5C" height="6" style="stroke:#C82930;stroke-width:1.0;" width="6" x="904.5" y="371.1582"/><text fill="#000000" font-family="sans-serif" font-size="14" lengthAdjust="spacing" textLength="78" x="916.5" y="378.4551">createNPC()</text><rect fill="#F24D5C" height="6" style="stroke:#C82930;stroke-width:1.0;" width="6" x="904.5" y="389.7793"/><text fill="#000000" font-family="sans-serif" font-size="14" lengthAdjust="spacing" textLength="385" x="916.5" y="397.0762">createCharacter(Transport[] transports, CharacterType type)</text><rect fill="#F24D5C" height="6" style="stroke:#C82930;stroke-width:1.0;" width="6" x="904.5" y="408.4004"/><text fill="#000000" font-family="sans-serif" font-size="14" lengthAdjust="spacing" textLength="330" x="916.5" y="415.6973">readFileContent(Path path, int count) : List&lt;String[]&gt;</text><rect fill="#F24D5C" height="6" style="stroke:#C82930;stroke-width:1.0;" width="6" x="904.5" y="427.0215"/><text fill="#000000" font-family="sans-serif" font-size="14" lengthAdjust="spacing" textLength="335" x="916.5" y="434.3184">populateMap(List&lt;String[]&gt; mapData, Map worldMap)</text><rect fill="#F24D5C" height="6" style="stroke:#C82930;stroke-width:1.0;" width="6" x="904.5" y="445.6426"/><text fill="#000000" font-family="sans-serif" font-size="14" lengthAdjust="spacing" textLength="281" x="916.5" y="452.9395">createTileByNumber(String tileNumber) : Tile</text><rect fill="#F24D5C" height="6" style="stroke:#C82930;stroke-width:1.0;" width="6" x="904.5" y="464.2637"/><text fill="#000000" font-family="sans-serif" font-size="14" lengthAdjust="spacing" textLength="251" x="916.5" y="471.5605">getRandomCharacterMovement() : char</text><rect fill="#F24D5C" height="6" style="stroke:#C82930;stroke-width:1.0;" width="6" x="904.5" y="482.8848"/><text fill="#000000" font-family="sans-serif" font-size="14" lengthAdjust="spacing" textLength="130" x="916.5" y="490.1816">getUserInput() : char</text><rect fill="#F24D5C" height="6" style="stroke:#C82930;stroke-width:1.0;" width="6" x="904.5" y="501.5059"/><text fill="#000000" font-family="sans-serif" font-size="14" lengthAdjust="spacing" textLength="222" x="916.5" y="508.8027">moveCharacters(Scanner scanner)</text><rect fill="#F24D5C" height="6" style="stroke:#C82930;stroke-width:1.0;" width="6" x="904.5" y="520.127"/><text fill="#000000" font-family="sans-serif" font-size="14" lengthAdjust="spacing" textLength="375" x="916.5" y="527.4238">getNewPosition(Point currentPosition, char direction) : Point</text><rect fill="#F24D5C" height="6" style="stroke:#C82930;stroke-width:1.0;" width="6" x="904.5" y="538.748"/><text fill="#000000" font-family="sans-serif" font-size="14" lengthAdjust="spacing" textLength="249" x="916.5" y="546.0449">isValidPosition(Point position) : boolean</text><rect fill="#F24D5C" height="6" style="stroke:#C82930;stroke-width:1.0;" width="6" x="904.5" y="557.3691"/><text fill="#000000" font-family="sans-serif" font-size="14" lengthAdjust="spacing" textLength="151" x="916.5" y="564.666">updateTransportInUse()</text></g><!--class App--><g id="elem_App"><rect codeLine="2" fill="#F1F1F1" height="122.4844" id="App" rx="2.5" ry="2.5" style="stroke:#181818;stroke-width:0.5;" width="224" x="990" y="7"/><ellipse cx="1085.25" cy="23" fill="#ADD1B2" rx="11" ry="11" style="stroke:#181818;stroke-width:1.0;"/><path d="M1088.0156,18.875 Q1088.1719,18.6563 1088.3594,18.5469 Q1088.5469,18.4375 1088.7656,18.4375 Q1089.1406,18.4375 1089.375,18.7031 Q1089.6094,18.9531 1089.6094,19.5625 L1089.6094,21.0156 Q1089.6094,21.625 1089.375,21.8906 Q1089.1406,22.1563 1088.7656,22.1563 Q1088.4219,22.1563 1088.2188,21.9531 Q1088.0156,21.7656 1087.9063,21.25 Q1087.8594,20.8906 1087.6719,20.7031 Q1087.3438,20.3281 1086.7344,20.1094 Q1086.125,19.8906 1085.5,19.8906 Q1084.7344,19.8906 1084.0938,20.2188 Q1083.4688,20.5469 1082.9688,21.2969 Q1082.4844,22.0469 1082.4844,23.0781 L1082.4844,24.1719 Q1082.4844,25.4063 1083.375,26.2344 Q1084.2656,27.0469 1085.8594,27.0469 Q1086.7969,27.0469 1087.4531,26.7969 Q1087.8438,26.6406 1088.2656,26.2031 Q1088.5313,25.9375 1088.6719,25.8594 Q1088.8281,25.7813 1089.0313,25.7813 Q1089.3594,25.7813 1089.6094,26.0469 Q1089.875,26.2969 1089.875,26.6406 Q1089.875,26.9844 1089.5313,27.3906 Q1089.0313,27.9688 1088.2344,28.2969 Q1087.1563,28.75 1085.8594,28.75 Q1084.3438,28.75 1083.1406,28.125 Q1082.1563,27.625 1081.4688,26.5625 Q1080.7813,25.4844 1080.7813,24.2031 L1080.7813,23.0469 Q1080.7813,21.7188 1081.3906,20.5781 Q1082.0156,19.4219 1083.1094,18.8125 Q1084.2031,18.1875 1085.4375,18.1875 Q1086.1719,18.1875 1086.8125,18.3594 Q1087.4688,18.5156 1088.0156,18.875 Z " fill="#000000"/><text fill="#000000" font-family="sans-serif" font-size="14" lengthAdjust="spacing" textLength="25" x="1105.75" y="28.7969">App</text><line style="stroke:#181818;stroke-width:0.5;" x1="991" x2="1213" y1="39" y2="39"/><rect fill="none" height="6" style="stroke:#C82930;stroke-width:1.0;" width="6" x="998" y="50.8105"/><text fill="#000000" font-family="sans-serif" font-size="14" lengthAdjust="spacing" textLength="198" x="1010" y="58.1074">WorldController worldController</text><line style="stroke:#181818;stroke-width:0.5;" x1="991" x2="1213" y1="65.6211" y2="65.6211"/><ellipse cx="1001" cy="80.4316" fill="#84BE84" rx="3" ry="3" style="stroke:#038048;stroke-width:1.0;"/><text fill="#000000" font-family="sans-serif" font-size="14" lengthAdjust="spacing" textLength="40" x="1010" y="84.7285">main()</text><rect fill="#F24D5C" height="6" style="stroke:#C82930;stroke-width:1.0;" width="6" x="998" y="96.0527"/><text fill="#000000" font-family="sans-serif" font-size="14" lengthAdjust="spacing" textLength="97" x="1010" y="103.3496">initializeGame()</text><rect fill="#F24D5C" height="6" style="stroke:#C82930;stroke-width:1.0;" width="6" x="998" y="114.6738"/><text fill="#000000" font-family="sans-serif" font-size="14" lengthAdjust="spacing" textLength="104" x="1010" y="121.9707">runGameCycle()</text></g><!--reverse link Entity to Character--><g id="link_Entity_Character"><path d="M742.2889,1096.5333 C709.8689,1124.7333 686.38,1145.17 655.17,1172.32 " fill="none" id="Entity-backto-Character" style="stroke:#181818;stroke-width:1.0;"/><polygon fill="none" points="755.87,1084.72,738.3511,1092.0063,746.2267,1101.0603,755.87,1084.72" style="stroke:#181818;stroke-width:1.0;"/></g><!--link World to Map--><g id="link_World_Map"><path codeLine="153" d="M603.16,865.03 C586.16,891.48 571.6253,914.0734 556.0953,938.2234 " fill="none" id="World-to-Map" style="stroke:#181818;stroke-width:1.0;"/><polygon fill="#181818" points="552.85,943.27,561.0823,937.8636,555.5544,939.0645,554.3535,933.5366,552.85,943.27" style="stroke:#181818;stroke-width:1.0;"/></g><!--link World to Entity--><g id="link_World_Entity"><path codeLine="154" d="M740.84,865.03 C757.84,891.48 772.3747,914.0734 787.9047,938.2234 " fill="none" id="World-to-Entity" style="stroke:#181818;stroke-width:1.0;"/><polygon fill="#181818" points="791.15,943.27,789.6465,933.5366,788.4456,939.0645,782.9177,937.8636,791.15,943.27" style="stroke:#181818;stroke-width:1.0;"/></g><!--link World to Time--><g id="link_World_Time"><path codeLine="155" d="M574.89,810.63 C514.25,843.5 434.57,886.7 364,925 C347.4,934.01 335.1226,940.6766 317.9426,950.0066 " fill="none" id="World-to-Time" style="stroke:#181818;stroke-width:1.0;"/><polygon fill="#181818" points="312.67,952.87,322.4879,952.0899,317.0639,950.4838,318.67,945.0598,312.67,952.87" style="stroke:#181818;stroke-width:1.0;"/></g><!--link Map to Tile--><g id="link_Map_Tile"><path codeLine="156" d="M441.33,1084.72 C417.45,1109.69 394.6761,1133.4929 370.7961,1158.4729 " fill="none" id="Map-to-Tile" style="stroke:#181818;stroke-width:1.0;"/><polygon fill="#181818" points="366.65,1162.81,375.7605,1159.0685,370.1051,1159.1958,369.9777,1153.5404,366.65,1162.81" style="stroke:#181818;stroke-width:1.0;"/></g><!--link Tile to TileTypes--><g id="link_Tile_TileTypes"><path codeLine="157" d="M300,1304.18 C300,1322.85 300,1337.47 300,1357.66 " fill="none" id="Tile-to-TileTypes" style="stroke:#181818;stroke-width:1.0;"/><polygon fill="#181818" points="300,1363.66,304,1354.66,300,1358.66,296,1354.66,300,1363.66" style="stroke:#181818;stroke-width:1.0;"/></g><!--link Entity to Point--><g id="link_Entity_Point"><path codeLine="158" d="M912.29,1084.72 C943.15,1112.92 974.0002,1141.1232 1003.7202,1168.2732 " fill="none" id="Entity-to-Point" style="stroke:#181818;stroke-width:1.0;"/><polygon fill="#181818" points="1008.15,1172.32,1004.2031,1163.2966,1004.4585,1168.9477,998.8074,1169.2031,1008.15,1172.32" style="stroke:#181818;stroke-width:1.0;"/></g><!--link Entity to Transport--><g id="link_Entity_Transport"><path codeLine="159" d="M841.77,1084.72 C844.1,1112.92 846.2745,1139.1905 848.5245,1166.3405 " fill="none" id="Entity-to-Transport" style="stroke:#181818;stroke-width:1.0;"/><polygon fill="#181818" points="849.02,1172.32,852.263,1163.0204,848.6071,1167.3371,844.2904,1163.6811,849.02,1172.32" style="stroke:#181818;stroke-width:1.0;"/></g><!--link Transport to TransportTypes--><g id="link_Transport_TransportTypes"><path codeLine="160" d="M854,1294.79 C854,1330.37 854,1369.26 854,1404.82 " fill="none" id="Transport-to-TransportTypes" style="stroke:#181818;stroke-width:1.0;"/><polygon fill="#181818" points="854,1410.82,858,1401.82,854,1405.82,850,1401.82,854,1410.82" style="stroke:#181818;stroke-width:1.0;"/></g><!--link Time to ImpreciseTime--><g id="link_Time_ImpreciseTime"><path codeLine="161" d="M154.17,1103.15 C141.59,1126.35 131.1615,1145.5763 119.5715,1166.9363 " fill="none" id="Time-to-ImpreciseTime" style="stroke:#181818;stroke-width:1.0;"/><polygon fill="#181818" points="116.71,1172.21,124.5181,1166.2072,119.0946,1167.8153,117.4865,1162.3918,116.71,1172.21" style="stroke:#181818;stroke-width:1.0;"/></g><!--link Character to CharacterType--><g id="link_Character_CharacterType"><path codeLine="162" d="M586,1294.79 C586,1330.37 586,1369.26 586,1404.82 " fill="none" id="Character-to-CharacterType" style="stroke:#181818;stroke-width:1.0;"/><polygon fill="#181818" points="586,1410.82,590,1401.82,586,1405.82,582,1401.82,586,1410.82" style="stroke:#181818;stroke-width:1.0;"/></g><!--link WorldController to World--><g id="link_WorldController_World"><path codeLine="163" d="M896.45,560.52 C851.96,599.26 811.4643,634.5291 773.5443,667.5591 " fill="none" id="WorldController-to-World" style="stroke:#181818;stroke-width:1.0;"/><polygon fill="#181818" points="769.02,671.5,778.4337,668.6049,772.7903,668.2159,773.1792,662.5725,769.02,671.5" style="stroke:#181818;stroke-width:1.0;"/></g><!--link WorldController to WorldView--><g id="link_WorldController_WorldView"><path codeLine="164" d="M1250.57,572.04 C1285.65,617.03 1316.8407,657.0383 1343.4207,691.1283 " fill="none" id="WorldController-to-WorldView" style="stroke:#181818;stroke-width:1.0;"/><polygon fill="#181818" points="1347.11,695.86,1344.7305,686.3029,1344.0356,691.9169,1338.4216,691.222,1347.11,695.86" style="stroke:#181818;stroke-width:1.0;"/></g><!--link App to WorldController--><g id="link_App_WorldController"><path codeLine="165" d="M1102,129.24 C1102,146.96 1102,161.37 1102,182.72 " fill="none" id="App-to-WorldController" style="stroke:#181818;stroke-width:1.0;"/><polygon fill="#181818" points="1102,188.72,1106,179.72,1102,183.72,1098,179.72,1102,188.72" style="stroke:#181818;stroke-width:1.0;"/></g><!--SRC=[XLVDRjiu4BxxAOYUPCHvWSKYGEgaRO3QQwozpI78WPPOcrYA54WghZVek-yCIOa_KdTzaCIPZyEPuGpvkHRK67BVTUHzGU1tIvwL5irQIQkL44oJIpvUEDWDQIcNrJBCuP9RJWN_XtscBHl5kfSuNbzhWSAVYqL7wx_fYP4F6zKmyI4iMZidtC91ukTlQ0VhT8daApVszqTfkRtU4OPlpaoYF_2M4GkFnIYy8OQtlQ1sz2DgQDDuOvL_4Sak_Yj5dPW5Jwf2z1XMhvRajyol78OUEGX-f4u5rUYnD_zpaMJ4wTwByCmVtn_erKrnNucQIqlgNcj8pA780MtUgAoPzsRgXhDK5VDJd6Q0H4oHXNM4koZ1n3H-Rtr8WebkPz7YRkV12lRo-l8AeGhOvCHitpMmdQYlTWgTxl2vSZDm2_6zBDt8mTuPmNBK5yPFPpiVo3Dlx3bJ5NibsCJzmxLZXbXufkxNPofFJbT54BeD7wNR21fyTS1SVszgplVNzgY4W-sjvl8qWraheNG92G7Gex6QrZP44beXZML8d86ALp8DKbDfEgKjiSFNa_pBPE6sweqTL4W-XBaBPfRJb0msgcWNyp8CokHaI_eq3QBf1gtF58E44utzi4msiu6E8CortxYPOA4cwHlbWXv5z3chK4px596x-F9Qj5AwjeDcafcI6vFqFkVbVF5bHPL1Sz2-OwoPxuJ_ABhCFx_ZxyK1zQCONmlllggQOdaCQsTfCedU6Ljv6zdXoMJV9kqN7VWabDBZQ4zbCmwUgH1HSuQSVDOGmoZQi8RtRIuxm9nSyWp7KbpWWR4kbsnKBorSd1DldzfEiveRLXpv6wLbsj3tty6SL4aFFhwn3B754soQZRmeafGe5NVtYz8c5ln7HQDgGq-yNbFTiQdnl6cYxPsWLso05TagEGoItVTrG-XuFYKRdJV31BdyzH4Nt4l9nZVEBZDS0yM9kpUauQO3DvsoydJ4iP_b53DtTsU09saLi2QZuDu9F6OrJr-MIKh2PAGR_pDfx3ky8cTYZenj9lA4tgNjcOHSIbskBiDNshApt2-GXfp_fNq_p776StOrKKUcbM1gpQ2riAgOdb5iT-iPwLXLLNgMZrUNMSrS0AaLCD9yWeC5ymSxKUseFPCE7luOgh6zHpeuRCzTOg1JdQEY674Emhr-e9Qk70-wXBHCGy1pxUDrsxT7Y2Bq1H8aBvdGcbjiZp_Xf5Fj6De6BkGMtKSqtBmwHyDTgfzary_gyJ8V3PbgNrCfeOgCVozpIzjusOVhFx3BGRfovg7guV1pb00MTC2q6CmtA8McC3Hm4PnnLD1aDAKbWI0M_21sYI_qszixJ7OoybsM21oDnWtn0qYiutd3oD-RWKUWq3kV228XYRTr9lSct4c2ykmYM4JEWhgS3fIDZ0Wd-xN6jIx-rnib4VKl]--></g></svg>