<svg xmlns="http://www.w3.org/2000/svg" xmlns:xlink="http://www.w3.org/1999/xlink" contentStyleType="text/css" height="1480px" preserveAspectRatio="none" style="width:1702px;height:1480px;background:#FFFFFF;" version="1.1" viewBox="0 0 1702 1480" width="1702px" zoomAndPan="magnify"><defs/><g><!--cluster Model--><g id="cluster_Model"><path d="M8.5,561.53 L56.5,561.53 A3.75,3.75 0 0 1 59,564.03 L66,583.8269 L1240.5,583.8269 A2.5,2.5 0 0 1 1243,586.3269 L1243,1470.94 A2.5,2.5 0 0 1 1240.5,1473.44 L8.5,1473.44 A2.5,2.5 0 0 1 6,1470.94 L6,564.03 A2.5,2.5 0 0 1 8.5,561.53 " fill="none" style="stroke:#000000;stroke-width:1.5;"/><line style="stroke:#000000;stroke-width:1.5;" x1="6" x2="66" y1="583.8269" y2="583.8269"/><text fill="#000000" font-family="sans-serif" font-size="14" font-weight="bold" lengthAdjust="spacing" textLength="47" x="10" y="576.5251">Model</text></g><!--cluster View--><g id="cluster_View"><path d="M1269.5,602.28 L1309.5,602.28 A3.75,3.75 0 0 1 1312,604.78 L1319,624.5769 L1692.5,624.5769 A2.5,2.5 0 0 1 1695,627.0769 L1695,763.96 A2.5,2.5 0 0 1 1692.5,766.46 L1269.5,766.46 A2.5,2.5 0 0 1 1267,763.96 L1267,604.78 A2.5,2.5 0 0 1 1269.5,602.28 " fill="none" style="stroke:#000000;stroke-width:1.5;"/><line style="stroke:#000000;stroke-width:1.5;" x1="1267" x2="1319" y1="624.5769" y2="624.5769"/><text fill="#000000" font-family="sans-serif" font-size="14" font-weight="bold" lengthAdjust="spacing" textLength="39" x="1271" y="617.2751">View</text></g><!--cluster Controller--><g id="cluster_Controller"><path d="M937.5,145.19 L1017.5,145.19 A3.75,3.75 0 0 1 1020,147.69 L1027,167.4869 L1406.5,167.4869 A2.5,2.5 0 0 1 1409,169.9869 L1409,535.03 A2.5,2.5 0 0 1 1406.5,537.53 L937.5,537.53 A2.5,2.5 0 0 1 935,535.03 L935,147.69 A2.5,2.5 0 0 1 937.5,145.19 " fill="none" style="stroke:#000000;stroke-width:1.5;"/><line style="stroke:#000000;stroke-width:1.5;" x1="935" x2="1027" y1="167.4869" y2="167.4869"/><text fill="#000000" font-family="sans-serif" font-size="14" font-weight="bold" lengthAdjust="spacing" textLength="79" x="939" y="160.1851">Controller</text></g><!--class World--><g id="elem_World"><rect codeLine="9" fill="#F1F1F1" height="194.6719" id="World" rx="2.5" ry="2.5" style="stroke:#181818;stroke-width:0.5;" width="209" x="607.5" y="596.53"/><ellipse cx="688.25" cy="612.53" fill="#ADD1B2" rx="11" ry="11" style="stroke:#181818;stroke-width:1.0;"/><path d="M691.2188,618.1706 Q690.6406,618.4675 690,618.6081 Q689.3594,618.7644 688.6563,618.7644 Q686.1563,618.7644 684.8281,617.1238 Q683.5156,615.4675 683.5156,612.3425 Q683.5156,609.2175 684.8281,607.5613 Q686.1563,605.905 688.6563,605.905 Q689.3594,605.905 690,606.0613 Q690.6563,606.2175 691.2188,606.5144 L691.2188,609.2331 Q690.5938,608.655 690,608.3894 Q689.4063,608.1081 688.7813,608.1081 Q687.4375,608.1081 686.75,609.1863 Q686.0625,610.2488 686.0625,612.3425 Q686.0625,614.4363 686.75,615.5144 Q687.4375,616.5769 688.7813,616.5769 Q689.4063,616.5769 690,616.3113 Q690.5938,616.03 691.2188,615.4519 L691.2188,618.1706 Z " fill="#000000"/><text fill="#000000" font-family="sans-serif" font-size="14" lengthAdjust="spacing" textLength="39" x="708.75" y="617.3767">World</text><line style="stroke:#181818;stroke-width:0.5;" x1="608.5" x2="815.5" y1="628.53" y2="628.53"/><rect fill="none" height="6" style="stroke:#C82930;stroke-width:1.0;" width="6" x="615.5" y="639.1784"/><text fill="#000000" font-family="sans-serif" font-size="14" lengthAdjust="spacing" textLength="63" x="627.5" y="645.5251">Map map</text><rect fill="none" height="6" style="stroke:#C82930;stroke-width:1.0;" width="6" x="615.5" y="655.4753"/><text fill="#000000" font-family="sans-serif" font-size="14" lengthAdjust="spacing" textLength="140" x="627.5" y="661.822">List&lt;Entity&gt; entities</text><rect fill="none" height="6" style="stroke:#C82930;stroke-width:1.0;" width="6" x="615.5" y="671.7722"/><text fill="#000000" font-family="sans-serif" font-size="14" lengthAdjust="spacing" textLength="68" x="627.5" y="678.1189">Time time</text><line style="stroke:#181818;stroke-width:0.5;" x1="608.5" x2="815.5" y1="685.4206" y2="685.4206"/><ellipse cx="618.5" cy="699.0691" fill="#84BE84" rx="3" ry="3" style="stroke:#038048;stroke-width:1.0;"/><text fill="#000000" font-family="sans-serif" font-size="14" lengthAdjust="spacing" textLength="105" x="627.5" y="702.4157">simulateCycle()</text><ellipse cx="618.5" cy="715.3659" fill="#84BE84" rx="3" ry="3" style="stroke:#038048;stroke-width:1.0;"/><text fill="#000000" font-family="sans-serif" font-size="14" lengthAdjust="spacing" textLength="183" x="627.5" y="718.7126">addEntity(Entity newEntity)</text><ellipse cx="618.5" cy="731.6628" fill="#84BE84" rx="3" ry="3" style="stroke:#038048;stroke-width:1.0;"/><text fill="#000000" font-family="sans-serif" font-size="14" lengthAdjust="spacing" textLength="62" x="627.5" y="735.0095">getMap()</text><ellipse cx="618.5" cy="747.9597" fill="#84BE84" rx="3" ry="3" style="stroke:#038048;stroke-width:1.0;"/><text fill="#000000" font-family="sans-serif" font-size="14" lengthAdjust="spacing" textLength="182" x="627.5" y="751.3064">getEntities() : List&lt;Entity&gt;</text><ellipse cx="618.5" cy="764.2566" fill="#84BE84" rx="3" ry="3" style="stroke:#038048;stroke-width:1.0;"/><text fill="#000000" font-family="sans-serif" font-size="14" lengthAdjust="spacing" textLength="114" x="627.5" y="767.6032">getTime() : Time</text><ellipse cx="618.5" cy="780.5534" fill="#84BE84" rx="3" ry="3" style="stroke:#038048;stroke-width:1.0;"/><text fill="#000000" font-family="sans-serif" font-size="14" lengthAdjust="spacing" textLength="134" x="627.5" y="783.9001">setTime(Time time)</text></g><!--class Time--><g id="elem_Time"><rect codeLine="22" fill="#F1F1F1" height="162.0781" id="Time" rx="2.5" ry="2.5" style="stroke:#181818;stroke-width:0.5;" width="238" x="93" y="851.21"/><ellipse cx="190.75" cy="867.21" fill="#ADD1B2" rx="11" ry="11" style="stroke:#181818;stroke-width:1.0;"/><path d="M193.7188,872.8506 Q193.1406,873.1475 192.5,873.2881 Q191.8594,873.4444 191.1563,873.4444 Q188.6563,873.4444 187.3281,871.8038 Q186.0156,870.1475 186.0156,867.0225 Q186.0156,863.8975 187.3281,862.2413 Q188.6563,860.585 191.1563,860.585 Q191.8594,860.585 192.5,860.7413 Q193.1563,860.8975 193.7188,861.1944 L193.7188,863.9131 Q193.0938,863.335 192.5,863.0694 Q191.9063,862.7881 191.2813,862.7881 Q189.9375,862.7881 189.25,863.8663 Q188.5625,864.9288 188.5625,867.0225 Q188.5625,869.1163 189.25,870.1944 Q189.9375,871.2569 191.2813,871.2569 Q191.9063,871.2569 192.5,870.9913 Q193.0938,870.71 193.7188,870.1319 L193.7188,872.8506 Z " fill="#000000"/><text fill="#000000" font-family="sans-serif" font-size="14" lengthAdjust="spacing" textLength="34" x="211.25" y="872.0567">Time</text><line style="stroke:#181818;stroke-width:0.5;" x1="94" x2="330" y1="883.21" y2="883.21"/><rect fill="none" height="6" style="stroke:#C82930;stroke-width:1.0;" width="6" x="101" y="893.8584"/><text fill="#000000" font-family="sans-serif" font-size="14" lengthAdjust="spacing" textLength="158" x="113" y="900.2051">TimesOfDay timeOfDay</text><rect fill="none" height="6" style="stroke:#C82930;stroke-width:1.0;" width="6" x="101" y="910.1553"/><text fill="#000000" font-family="sans-serif" font-size="14" lengthAdjust="spacing" textLength="105" x="113" y="916.502">int currentTime</text><line style="stroke:#181818;stroke-width:0.5;" x1="94" x2="330" y1="923.8038" y2="923.8038"/><ellipse cx="104" cy="937.4522" fill="#84BE84" rx="3" ry="3" style="stroke:#038048;stroke-width:1.0;"/><text fill="#000000" font-family="sans-serif" font-size="14" lengthAdjust="spacing" textLength="102" x="113" y="940.7989">advanceTime()</text><ellipse cx="104" cy="953.7491" fill="#84BE84" rx="3" ry="3" style="stroke:#038048;stroke-width:1.0;"/><text fill="#000000" font-family="sans-serif" font-size="14" lengthAdjust="spacing" textLength="212" x="113" y="957.0957">setTimeOfDay(int currentTime)</text><ellipse cx="104" cy="970.0459" fill="#84BE84" rx="3" ry="3" style="stroke:#038048;stroke-width:1.0;"/><text fill="#000000" font-family="sans-serif" font-size="14" lengthAdjust="spacing" textLength="72" x="113" y="973.3926">resetDay()</text><ellipse cx="104" cy="986.3428" fill="#84BE84" rx="3" ry="3" style="stroke:#038048;stroke-width:1.0;"/><text fill="#000000" font-family="sans-serif" font-size="14" lengthAdjust="spacing" textLength="149" x="113" y="989.6895">getCurrentTime() : int</text><ellipse cx="104" cy="1002.6397" fill="#84BE84" rx="3" ry="3" style="stroke:#038048;stroke-width:1.0;"/><text fill="#000000" font-family="sans-serif" font-size="14" lengthAdjust="spacing" textLength="204" x="113" y="1005.9864">getTimeOfDay() : TimesOfDay</text></g><!--class Map--><g id="elem_Map"><rect codeLine="31" fill="#F1F1F1" height="129.4844" id="Map" rx="2.5" ry="2.5" style="stroke:#181818;stroke-width:0.5;" width="272" x="401" y="867.5"/><ellipse cx="518.25" cy="883.5" fill="#ADD1B2" rx="11" ry="11" style="stroke:#181818;stroke-width:1.0;"/><path d="M521.2188,889.1406 Q520.6406,889.4375 520,889.5781 Q519.3594,889.7344 518.6563,889.7344 Q516.1563,889.7344 514.8281,888.0938 Q513.5156,886.4375 513.5156,883.3125 Q513.5156,880.1875 514.8281,878.5313 Q516.1563,876.875 518.6563,876.875 Q519.3594,876.875 520,877.0313 Q520.6563,877.1875 521.2188,877.4844 L521.2188,880.2031 Q520.5938,879.625 520,879.3594 Q519.4063,879.0781 518.7813,879.0781 Q517.4375,879.0781 516.75,880.1563 Q516.0625,881.2188 516.0625,883.3125 Q516.0625,885.4063 516.75,886.4844 Q517.4375,887.5469 518.7813,887.5469 Q519.4063,887.5469 520,887.2813 Q520.5938,887 521.2188,886.4219 L521.2188,889.1406 Z " fill="#000000"/><text fill="#000000" font-family="sans-serif" font-size="14" lengthAdjust="spacing" textLength="29" x="538.75" y="888.3467">Map</text><line style="stroke:#181818;stroke-width:0.5;" x1="402" x2="672" y1="899.5" y2="899.5"/><rect fill="none" height="6" style="stroke:#C82930;stroke-width:1.0;" width="6" x="409" y="910.1484"/><text fill="#000000" font-family="sans-serif" font-size="14" lengthAdjust="spacing" textLength="76" x="421" y="916.4951">Tile[][] tiles</text><line style="stroke:#181818;stroke-width:0.5;" x1="402" x2="672" y1="923.7969" y2="923.7969"/><ellipse cx="412" cy="937.4453" fill="#84BE84" rx="3" ry="3" style="stroke:#038048;stroke-width:1.0;"/><text fill="#000000" font-family="sans-serif" font-size="14" lengthAdjust="spacing" textLength="246" x="421" y="940.792">updateTile(Point point, Tile newTile)</text><ellipse cx="412" cy="953.7422" fill="#84BE84" rx="3" ry="3" style="stroke:#038048;stroke-width:1.0;"/><text fill="#000000" font-family="sans-serif" font-size="14" lengthAdjust="spacing" textLength="168" x="421" y="957.0889">getTile(Point point) : Tile</text><ellipse cx="412" cy="970.0391" fill="#84BE84" rx="3" ry="3" style="stroke:#038048;stroke-width:1.0;"/><text fill="#000000" font-family="sans-serif" font-size="14" lengthAdjust="spacing" textLength="108" x="421" y="973.3857">getHeight() : int</text><ellipse cx="412" cy="986.3359" fill="#84BE84" rx="3" ry="3" style="stroke:#038048;stroke-width:1.0;"/><text fill="#000000" font-family="sans-serif" font-size="14" lengthAdjust="spacing" textLength="102" x="421" y="989.6826">getWidth() : int</text></g><!--class Tile--><g id="elem_Tile"><rect codeLine="38" fill="#F1F1F1" height="129.4844" id="Tile" rx="2.5" ry="2.5" style="stroke:#181818;stroke-width:0.5;" width="255" x="189.5" y="1073.28"/><ellipse cx="300.75" cy="1089.28" fill="#ADD1B2" rx="11" ry="11" style="stroke:#181818;stroke-width:1.0;"/><path d="M303.7188,1094.9206 Q303.1406,1095.2175 302.5,1095.3581 Q301.8594,1095.5144 301.1563,1095.5144 Q298.6563,1095.5144 297.3281,1093.8738 Q296.0156,1092.2175 296.0156,1089.0925 Q296.0156,1085.9675 297.3281,1084.3113 Q298.6563,1082.655 301.1563,1082.655 Q301.8594,1082.655 302.5,1082.8113 Q303.1563,1082.9675 303.7188,1083.2644 L303.7188,1085.9831 Q303.0938,1085.405 302.5,1085.1394 Q301.9063,1084.8581 301.2813,1084.8581 Q299.9375,1084.8581 299.25,1085.9363 Q298.5625,1086.9988 298.5625,1089.0925 Q298.5625,1091.1863 299.25,1092.2644 Q299.9375,1093.3269 301.2813,1093.3269 Q301.9063,1093.3269 302.5,1093.0613 Q303.0938,1092.78 303.7188,1092.2019 L303.7188,1094.9206 Z " fill="#000000"/><text fill="#000000" font-family="sans-serif" font-size="14" lengthAdjust="spacing" textLength="24" x="321.25" y="1094.1267">Tile</text><line style="stroke:#181818;stroke-width:0.5;" x1="190.5" x2="443.5" y1="1105.28" y2="1105.28"/><rect fill="none" height="6" style="stroke:#C82930;stroke-width:1.0;" width="6" x="197.5" y="1115.9284"/><text fill="#000000" font-family="sans-serif" font-size="14" lengthAdjust="spacing" textLength="100" x="209.5" y="1122.2751">TileTypes type</text><line style="stroke:#181818;stroke-width:0.5;" x1="190.5" x2="443.5" y1="1129.5769" y2="1129.5769"/><ellipse cx="200.5" cy="1143.2253" fill="#84BE84" rx="3" ry="3" style="stroke:#038048;stroke-width:1.0;"/><text fill="#000000" font-family="sans-serif" font-size="14" lengthAdjust="spacing" textLength="229" x="209.5" y="1146.572">changeType(TileTypes newType)</text><ellipse cx="200.5" cy="1159.5222" fill="#84BE84" rx="3" ry="3" style="stroke:#038048;stroke-width:1.0;"/><text fill="#000000" font-family="sans-serif" font-size="14" lengthAdjust="spacing" textLength="146" x="209.5" y="1162.8689">getType() : TileTypes</text><ellipse cx="200.5" cy="1175.8191" fill="#84BE84" rx="3" ry="3" style="stroke:#038048;stroke-width:1.0;"/><text fill="#000000" font-family="sans-serif" font-size="14" lengthAdjust="spacing" textLength="167" x="209.5" y="1179.1657">getAsciiSymbol() : String</text><ellipse cx="200.5" cy="1192.1159" fill="#84BE84" rx="3" ry="3" style="stroke:#038048;stroke-width:1.0;"/><text fill="#000000" font-family="sans-serif" font-size="14" lengthAdjust="spacing" textLength="153" x="209.5" y="1195.4626">getAsciiColor() : String</text></g><!--class Entity--><g id="elem_Entity"><rect codeLine="45" fill="#F1F1F1" height="129.4844" id="Entity" rx="2.5" ry="2.5" style="stroke:#181818;stroke-width:0.5;" width="322" x="726" y="867.5"/><ellipse cx="863.75" cy="883.5" fill="#A9DCDF" rx="11" ry="11" style="stroke:#181818;stroke-width:1.0;"/><path d="M863.8594,878.8438 L862.7031,883.9219 L865.0313,883.9219 L863.8594,878.8438 Z M862.375,876.6094 L865.3594,876.6094 L868.7188,889 L866.2656,889 L865.5,885.9375 L862.2188,885.9375 L861.4688,889 L859.0313,889 L862.375,876.6094 Z " fill="#000000"/><text fill="#000000" font-family="sans-serif" font-size="14" font-style="italic" lengthAdjust="spacing" textLength="38" x="884.25" y="888.3467">Entity</text><line style="stroke:#181818;stroke-width:0.5;" x1="727" x2="1047" y1="899.5" y2="899.5"/><rect fill="none" height="6" style="stroke:#C82930;stroke-width:1.0;" width="6" x="734" y="910.1484"/><text fill="#000000" font-family="sans-serif" font-size="14" lengthAdjust="spacing" textLength="94" x="746" y="916.4951">Point position</text><rect fill="none" height="6" style="stroke:#C82930;stroke-width:1.0;" width="6" x="734" y="926.4453"/><text fill="#000000" font-family="sans-serif" font-size="14" lengthAdjust="spacing" textLength="173" x="746" y="932.792">Transport transportInUse</text><line style="stroke:#181818;stroke-width:0.5;" x1="727" x2="1047" y1="940.0938" y2="940.0938"/><ellipse cx="737" cy="953.7422" fill="#84BE84" rx="3" ry="3" style="stroke:#038048;stroke-width:1.0;"/><text fill="#000000" font-family="sans-serif" font-size="14" lengthAdjust="spacing" textLength="189" x="746" y="957.0889">moveTo(Point newPosition)</text><ellipse cx="737" cy="970.0391" fill="#84BE84" rx="3" ry="3" style="stroke:#038048;stroke-width:1.0;"/><text fill="#000000" font-family="sans-serif" font-size="14" lengthAdjust="spacing" textLength="296" x="746" y="973.3857">changeTransport(Transport newTransport)</text><ellipse cx="737" cy="986.3359" fill="#84BE84" rx="3" ry="3" style="stroke:#038048;stroke-width:1.0;"/><text fill="#000000" font-family="sans-serif" font-size="14" lengthAdjust="spacing" textLength="219" x="746" y="989.6826">getTransportInUse() : Transport</text></g><!--class Character--><g id="elem_Character"><rect codeLine="52" fill="#F1F1F1" height="113.1875" id="Character" rx="2.5" ry="2.5" style="stroke:#181818;stroke-width:0.5;" width="283" x="479.5" y="1081.43"/><ellipse cx="583.25" cy="1097.43" fill="#ADD1B2" rx="11" ry="11" style="stroke:#181818;stroke-width:1.0;"/><path d="M586.2188,1103.0706 Q585.6406,1103.3675 585,1103.5081 Q584.3594,1103.6644 583.6563,1103.6644 Q581.1563,1103.6644 579.8281,1102.0238 Q578.5156,1100.3675 578.5156,1097.2425 Q578.5156,1094.1175 579.8281,1092.4613 Q581.1563,1090.805 583.6563,1090.805 Q584.3594,1090.805 585,1090.9613 Q585.6563,1091.1175 586.2188,1091.4144 L586.2188,1094.1331 Q585.5938,1093.555 585,1093.2894 Q584.4063,1093.0081 583.7813,1093.0081 Q582.4375,1093.0081 581.75,1094.0863 Q581.0625,1095.1488 581.0625,1097.2425 Q581.0625,1099.3363 581.75,1100.4144 Q582.4375,1101.4769 583.7813,1101.4769 Q584.4063,1101.4769 585,1101.2113 Q585.5938,1100.93 586.2188,1100.3519 L586.2188,1103.0706 Z " fill="#000000"/><text fill="#000000" font-family="sans-serif" font-size="14" lengthAdjust="spacing" textLength="67" x="603.75" y="1102.2767">Character</text><line style="stroke:#181818;stroke-width:0.5;" x1="480.5" x2="761.5" y1="1113.43" y2="1113.43"/><rect fill="none" height="6" style="stroke:#C82930;stroke-width:1.0;" width="6" x="487.5" y="1124.0784"/><text fill="#000000" font-family="sans-serif" font-size="14" lengthAdjust="spacing" textLength="135" x="499.5" y="1130.4251">CharacterType type</text><rect fill="none" height="6" style="stroke:#C82930;stroke-width:1.0;" width="6" x="487.5" y="1140.3753"/><text fill="#000000" font-family="sans-serif" font-size="14" lengthAdjust="spacing" textLength="214" x="499.5" y="1146.722">Transport[] availableTransports</text><line style="stroke:#181818;stroke-width:0.5;" x1="480.5" x2="761.5" y1="1154.0238" y2="1154.0238"/><ellipse cx="490.5" cy="1167.6722" fill="#84BE84" rx="3" ry="3" style="stroke:#038048;stroke-width:1.0;"/><text fill="#000000" font-family="sans-serif" font-size="14" lengthAdjust="spacing" textLength="257" x="499.5" y="1171.0189">getAvailableTransports() : Transport[]</text><ellipse cx="490.5" cy="1183.9691" fill="#84BE84" rx="3" ry="3" style="stroke:#038048;stroke-width:1.0;"/><text fill="#000000" font-family="sans-serif" font-size="14" lengthAdjust="spacing" textLength="248" x="499.5" y="1187.3157">getCharacterType() : CharacterType</text></g><!--class Transport--><g id="elem_Transport"><rect codeLine="58" fill="#F1F1F1" height="113.1875" id="Transport" rx="2.5" ry="2.5" style="stroke:#181818;stroke-width:0.5;" width="215" x="797.5" y="1081.43"/><ellipse cx="867.25" cy="1097.43" fill="#ADD1B2" rx="11" ry="11" style="stroke:#181818;stroke-width:1.0;"/><path d="M870.2188,1103.0706 Q869.6406,1103.3675 869,1103.5081 Q868.3594,1103.6644 867.6563,1103.6644 Q865.1563,1103.6644 863.8281,1102.0238 Q862.5156,1100.3675 862.5156,1097.2425 Q862.5156,1094.1175 863.8281,1092.4613 Q865.1563,1090.805 867.6563,1090.805 Q868.3594,1090.805 869,1090.9613 Q869.6563,1091.1175 870.2188,1091.4144 L870.2188,1094.1331 Q869.5938,1093.555 869,1093.2894 Q868.4063,1093.0081 867.7813,1093.0081 Q866.4375,1093.0081 865.75,1094.0863 Q865.0625,1095.1488 865.0625,1097.2425 Q865.0625,1099.3363 865.75,1100.4144 Q866.4375,1101.4769 867.7813,1101.4769 Q868.4063,1101.4769 869,1101.2113 Q869.5938,1100.93 870.2188,1100.3519 L870.2188,1103.0706 Z " fill="#000000"/><text fill="#000000" font-family="sans-serif" font-size="14" lengthAdjust="spacing" textLength="67" x="887.75" y="1102.2767">Transport</text><line style="stroke:#181818;stroke-width:0.5;" x1="798.5" x2="1011.5" y1="1113.43" y2="1113.43"/><rect fill="none" height="6" style="stroke:#C82930;stroke-width:1.0;" width="6" x="805.5" y="1124.0784"/><text fill="#000000" font-family="sans-serif" font-size="14" lengthAdjust="spacing" textLength="143" x="817.5" y="1130.4251">TransportTypes type</text><line style="stroke:#181818;stroke-width:0.5;" x1="798.5" x2="1011.5" y1="1137.7269" y2="1137.7269"/><ellipse cx="808.5" cy="1151.3753" fill="#84BE84" rx="3" ry="3" style="stroke:#038048;stroke-width:1.0;"/><text fill="#000000" font-family="sans-serif" font-size="14" lengthAdjust="spacing" textLength="189" x="817.5" y="1154.722">getType() : TransportTypes</text><ellipse cx="808.5" cy="1167.6722" fill="#84BE84" rx="3" ry="3" style="stroke:#038048;stroke-width:1.0;"/><text fill="#000000" font-family="sans-serif" font-size="14" lengthAdjust="spacing" textLength="108" x="817.5" y="1171.0189">getSpeed() : int</text><ellipse cx="808.5" cy="1183.9691" fill="#84BE84" rx="3" ry="3" style="stroke:#038048;stroke-width:1.0;"/><text fill="#000000" font-family="sans-serif" font-size="14" lengthAdjust="spacing" textLength="167" x="817.5" y="1187.3157">getAsciiSymbol() : String</text></g><!--class Point--><g id="elem_Point"><rect codeLine="64" fill="#F1F1F1" height="113.1875" id="Point" rx="2.5" ry="2.5" style="stroke:#181818;stroke-width:0.5;" width="180" x="1047" y="1081.43"/><ellipse cx="1115.25" cy="1097.43" fill="#ADD1B2" rx="11" ry="11" style="stroke:#181818;stroke-width:1.0;"/><path d="M1118.2188,1103.0706 Q1117.6406,1103.3675 1117,1103.5081 Q1116.3594,1103.6644 1115.6563,1103.6644 Q1113.1563,1103.6644 1111.8281,1102.0238 Q1110.5156,1100.3675 1110.5156,1097.2425 Q1110.5156,1094.1175 1111.8281,1092.4613 Q1113.1563,1090.805 1115.6563,1090.805 Q1116.3594,1090.805 1117,1090.9613 Q1117.6563,1091.1175 1118.2188,1091.4144 L1118.2188,1094.1331 Q1117.5938,1093.555 1117,1093.2894 Q1116.4063,1093.0081 1115.7813,1093.0081 Q1114.4375,1093.0081 1113.75,1094.0863 Q1113.0625,1095.1488 1113.0625,1097.2425 Q1113.0625,1099.3363 1113.75,1100.4144 Q1114.4375,1101.4769 1115.7813,1101.4769 Q1116.4063,1101.4769 1117,1101.2113 Q1117.5938,1100.93 1118.2188,1100.3519 L1118.2188,1103.0706 Z " fill="#000000"/><text fill="#000000" font-family="sans-serif" font-size="14" lengthAdjust="spacing" textLength="35" x="1135.75" y="1102.2767">Point</text><line style="stroke:#181818;stroke-width:0.5;" x1="1048" x2="1226" y1="1113.43" y2="1113.43"/><rect fill="none" height="6" style="stroke:#C82930;stroke-width:1.0;" width="6" x="1055" y="1124.0784"/><text fill="#000000" font-family="sans-serif" font-size="14" lengthAdjust="spacing" textLength="28" x="1067" y="1130.4251">int x</text><rect fill="none" height="6" style="stroke:#C82930;stroke-width:1.0;" width="6" x="1055" y="1140.3753"/><text fill="#000000" font-family="sans-serif" font-size="14" lengthAdjust="spacing" textLength="28" x="1067" y="1146.722">int y</text><line style="stroke:#181818;stroke-width:0.5;" x1="1048" x2="1226" y1="1154.0238" y2="1154.0238"/><ellipse cx="1058" cy="1167.6722" fill="#84BE84" rx="3" ry="3" style="stroke:#038048;stroke-width:1.0;"/><text fill="#000000" font-family="sans-serif" font-size="14" lengthAdjust="spacing" textLength="131" x="1067" y="1171.0189">getLocation() : int[]</text><ellipse cx="1058" cy="1183.9691" fill="#84BE84" rx="3" ry="3" style="stroke:#038048;stroke-width:1.0;"/><text fill="#000000" font-family="sans-serif" font-size="14" lengthAdjust="spacing" textLength="154" x="1067" y="1187.3157">setLocation(int x, int y)</text></g><!--class TileTypes--><g id="elem_TileTypes"><rect codeLine="70" fill="#F1F1F1" height="194.6719" id="TileTypes" rx="2.5" ry="2.5" style="stroke:#181818;stroke-width:0.5;" width="107" x="263.5" y="1262.77"/><ellipse cx="282.55" cy="1278.77" fill="#EB937F" rx="11" ry="11" style="stroke:#181818;stroke-width:1.0;"/><path d="M286.6594,1284.77 L278.9406,1284.77 L278.9406,1272.3794 L286.6594,1272.3794 L286.6594,1274.5356 L281.3938,1274.5356 L281.3938,1277.2075 L286.1594,1277.2075 L286.1594,1279.3638 L281.3938,1279.3638 L281.3938,1282.6138 L286.6594,1282.6138 L286.6594,1284.77 Z " fill="#000000"/><text fill="#000000" font-family="sans-serif" font-size="14" lengthAdjust="spacing" textLength="66" x="297.45" y="1283.6167">TileTypes</text><line style="stroke:#181818;stroke-width:0.5;" x1="264.5" x2="369.5" y1="1294.77" y2="1294.77"/><text fill="#000000" font-family="sans-serif" font-size="14" lengthAdjust="spacing" textLength="34" x="269.5" y="1311.7651">Floor</text><text fill="#000000" font-family="sans-serif" font-size="14" lengthAdjust="spacing" textLength="35" x="269.5" y="1328.062">Sand</text><text fill="#000000" font-family="sans-serif" font-size="14" lengthAdjust="spacing" textLength="27" x="269.5" y="1344.3589">Wall</text><text fill="#000000" font-family="sans-serif" font-size="14" lengthAdjust="spacing" textLength="77" x="269.5" y="1360.6557">ShortGrass</text><text fill="#000000" font-family="sans-serif" font-size="14" lengthAdjust="spacing" textLength="95" x="269.5" y="1376.9526">MediumGrass</text><text fill="#000000" font-family="sans-serif" font-size="14" lengthAdjust="spacing" textLength="63" x="269.5" y="1393.2495">TallGrass</text><text fill="#000000" font-family="sans-serif" font-size="14" lengthAdjust="spacing" textLength="40" x="269.5" y="1409.5464">Water</text><text fill="#000000" font-family="sans-serif" font-size="14" lengthAdjust="spacing" textLength="78" x="269.5" y="1425.8432">DeepWater</text><text fill="#000000" font-family="sans-serif" font-size="14" lengthAdjust="spacing" textLength="64" x="269.5" y="1442.1401">Mountain</text><line style="stroke:#181818;stroke-width:0.5;" x1="264.5" x2="369.5" y1="1449.4419" y2="1449.4419"/></g><!--class ImpreciseTime--><g id="elem_ImpreciseTime"><rect codeLine="82" fill="#F1F1F1" height="113.1875" id="ImpreciseTime" rx="2.5" ry="2.5" style="stroke:#181818;stroke-width:0.5;" width="133" x="21.5" y="1081.43"/><ellipse cx="36.5" cy="1097.43" fill="#EB937F" rx="11" ry="11" style="stroke:#181818;stroke-width:1.0;"/><path d="M40.6094,1103.43 L32.8906,1103.43 L32.8906,1091.0394 L40.6094,1091.0394 L40.6094,1093.1956 L35.3438,1093.1956 L35.3438,1095.8675 L40.1094,1095.8675 L40.1094,1098.0238 L35.3438,1098.0238 L35.3438,1101.2738 L40.6094,1101.2738 L40.6094,1103.43 Z " fill="#000000"/><text fill="#000000" font-family="sans-serif" font-size="14" lengthAdjust="spacing" textLength="101" x="50.5" y="1102.2767">ImpreciseTime</text><line style="stroke:#181818;stroke-width:0.5;" x1="22.5" x2="153.5" y1="1113.43" y2="1113.43"/><text fill="#000000" font-family="sans-serif" font-size="14" lengthAdjust="spacing" textLength="56" x="27.5" y="1130.4251">Morning</text><text fill="#000000" font-family="sans-serif" font-size="14" lengthAdjust="spacing" textLength="68" x="27.5" y="1146.722">Afternoon</text><text fill="#000000" font-family="sans-serif" font-size="14" lengthAdjust="spacing" textLength="55" x="27.5" y="1163.0189">Evening</text><text fill="#000000" font-family="sans-serif" font-size="14" lengthAdjust="spacing" textLength="36" x="27.5" y="1179.3157">Night</text><line style="stroke:#181818;stroke-width:0.5;" x1="22.5" x2="153.5" y1="1186.6175" y2="1186.6175"/></g><!--class TransportTypes--><g id="elem_TransportTypes"><rect codeLine="88" fill="#F1F1F1" height="113.1875" id="TransportTypes" rx="2.5" ry="2.5" style="stroke:#181818;stroke-width:0.5;" width="141" x="834.5" y="1303.51"/><ellipse cx="849.5" cy="1319.51" fill="#EB937F" rx="11" ry="11" style="stroke:#181818;stroke-width:1.0;"/><path d="M853.6094,1325.51 L845.8906,1325.51 L845.8906,1313.1194 L853.6094,1313.1194 L853.6094,1315.2756 L848.3438,1315.2756 L848.3438,1317.9475 L853.1094,1317.9475 L853.1094,1320.1038 L848.3438,1320.1038 L848.3438,1323.3538 L853.6094,1323.3538 L853.6094,1325.51 Z " fill="#000000"/><text fill="#000000" font-family="sans-serif" font-size="14" lengthAdjust="spacing" textLength="109" x="863.5" y="1324.3567">TransportTypes</text><line style="stroke:#181818;stroke-width:0.5;" x1="835.5" x2="974.5" y1="1335.51" y2="1335.51"/><text fill="#000000" font-family="sans-serif" font-size="14" lengthAdjust="spacing" textLength="31" x="840.5" y="1352.5051">Foot</text><text fill="#000000" font-family="sans-serif" font-size="14" lengthAdjust="spacing" textLength="41" x="840.5" y="1368.802">Horse</text><text fill="#000000" font-family="sans-serif" font-size="14" lengthAdjust="spacing" textLength="32" x="840.5" y="1385.0989">Boat</text><text fill="#000000" font-family="sans-serif" font-size="14" lengthAdjust="spacing" textLength="86" x="840.5" y="1401.3957">MagicCarpet</text><line style="stroke:#181818;stroke-width:0.5;" x1="835.5" x2="974.5" y1="1408.6975" y2="1408.6975"/></g><!--class CharacterType--><g id="elem_CharacterType"><rect codeLine="95" fill="#F1F1F1" height="113.1875" id="CharacterType" rx="2.5" ry="2.5" style="stroke:#181818;stroke-width:0.5;" width="247" x="497.5" y="1303.51"/><ellipse cx="566.25" cy="1319.51" fill="#EB937F" rx="11" ry="11" style="stroke:#181818;stroke-width:1.0;"/><path d="M570.3594,1325.51 L562.6406,1325.51 L562.6406,1313.1194 L570.3594,1313.1194 L570.3594,1315.2756 L565.0938,1315.2756 L565.0938,1317.9475 L569.8594,1317.9475 L569.8594,1320.1038 L565.0938,1320.1038 L565.0938,1323.3538 L570.3594,1323.3538 L570.3594,1325.51 Z " fill="#000000"/><text fill="#000000" font-family="sans-serif" font-size="14" lengthAdjust="spacing" textLength="101" x="586.75" y="1324.3567">CharacterType</text><line style="stroke:#181818;stroke-width:0.5;" x1="498.5" x2="743.5" y1="1335.51" y2="1335.51"/><text fill="#000000" font-family="sans-serif" font-size="14" lengthAdjust="spacing" textLength="148" x="517.5" y="1352.5051">Playable, NonPlayable</text><rect fill="none" height="6" style="stroke:#C82930;stroke-width:1.0;" width="6" x="505.5" y="1362.4553"/><text fill="#000000" font-family="sans-serif" font-size="14" lengthAdjust="spacing" textLength="110" x="517.5" y="1368.802">String asciiColor</text><line style="stroke:#181818;stroke-width:0.5;" x1="498.5" x2="743.5" y1="1376.1038" y2="1376.1038"/><ellipse cx="508.5" cy="1389.7522" fill="#84BE84" rx="3" ry="3" style="stroke:#038048;stroke-width:1.0;"/><text fill="#000000" font-family="sans-serif" font-size="14" lengthAdjust="spacing" textLength="221" x="517.5" y="1393.0989">CharacterType(String asciiColor)</text><ellipse cx="508.5" cy="1406.0491" fill="#84BE84" rx="3" ry="3" style="stroke:#038048;stroke-width:1.0;"/><text fill="#000000" font-family="sans-serif" font-size="14" lengthAdjust="spacing" textLength="100" x="517.5" y="1409.3957">getAsciiColor()</text></g><!--class WorldView--><g id="elem_WorldView"><rect codeLine="104" fill="#F1F1F1" height="113.1875" id="WorldView" rx="2.5" ry="2.5" style="stroke:#181818;stroke-width:0.5;" width="396" x="1283" y="637.28"/><ellipse cx="1441.25" cy="653.28" fill="#ADD1B2" rx="11" ry="11" style="stroke:#181818;stroke-width:1.0;"/><path d="M1444.2188,658.9206 Q1443.6406,659.2175 1443,659.3581 Q1442.3594,659.5144 1441.6563,659.5144 Q1439.1563,659.5144 1437.8281,657.8738 Q1436.5156,656.2175 1436.5156,653.0925 Q1436.5156,649.9675 1437.8281,648.3113 Q1439.1563,646.655 1441.6563,646.655 Q1442.3594,646.655 1443,646.8113 Q1443.6563,646.9675 1444.2188,647.2644 L1444.2188,649.9831 Q1443.5938,649.405 1443,649.1394 Q1442.4063,648.8581 1441.7813,648.8581 Q1440.4375,648.8581 1439.75,649.9363 Q1439.0625,650.9988 1439.0625,653.0925 Q1439.0625,655.1863 1439.75,656.2644 Q1440.4375,657.3269 1441.7813,657.3269 Q1442.4063,657.3269 1443,657.0613 Q1443.5938,656.78 1444.2188,656.2019 L1444.2188,658.9206 Z " fill="#000000"/><text fill="#000000" font-family="sans-serif" font-size="14" lengthAdjust="spacing" textLength="71" x="1461.75" y="658.1267">WorldView</text><line style="stroke:#181818;stroke-width:0.5;" x1="1284" x2="1678" y1="669.28" y2="669.28"/><line style="stroke:#181818;stroke-width:0.5;" x1="1284" x2="1678" y1="677.28" y2="677.28"/><ellipse cx="1294" cy="690.9284" fill="#84BE84" rx="3" ry="3" style="stroke:#038048;stroke-width:1.0;"/><text fill="#000000" font-family="sans-serif" font-size="14" lengthAdjust="spacing" textLength="176" x="1303" y="694.2751">displayWorld(World world)</text><ellipse cx="1294" cy="707.2253" fill="#84BE84" rx="3" ry="3" style="stroke:#038048;stroke-width:1.0;"/><text fill="#000000" font-family="sans-serif" font-size="14" lengthAdjust="spacing" textLength="159" x="1303" y="710.572">displayTime(Time time)</text><ellipse cx="1294" cy="723.5222" fill="#84BE84" rx="3" ry="3" style="stroke:#038048;stroke-width:1.0;"/><text fill="#000000" font-family="sans-serif" font-size="14" lengthAdjust="spacing" textLength="351" x="1303" y="726.8689">displayIntoConsole(Map map, List&lt;Entity&gt; entities)</text><rect fill="#F24D5C" height="6" style="stroke:#C82930;stroke-width:1.0;" width="6" x="1291" y="736.8191"/><text fill="#000000" font-family="sans-serif" font-size="14" lengthAdjust="spacing" textLength="370" x="1303" y="743.1657">displayMap(Map map, List&lt;Entity&gt; entities) : String[][]</text></g><!--class WorldController--><g id="elem_WorldController"><rect codeLine="113" fill="#F1F1F1" height="341.3438" id="WorldController" rx="2.5" ry="2.5" style="stroke:#181818;stroke-width:0.5;" width="442" x="951" y="180.19"/><ellipse cx="1114.75" cy="196.19" fill="#ADD1B2" rx="11" ry="11" style="stroke:#181818;stroke-width:1.0;"/><path d="M1117.7188,201.8306 Q1117.1406,202.1275 1116.5,202.2681 Q1115.8594,202.4244 1115.1563,202.4244 Q1112.6563,202.4244 1111.3281,200.7838 Q1110.0156,199.1275 1110.0156,196.0025 Q1110.0156,192.8775 1111.3281,191.2213 Q1112.6563,189.565 1115.1563,189.565 Q1115.8594,189.565 1116.5,189.7213 Q1117.1563,189.8775 1117.7188,190.1744 L1117.7188,192.8931 Q1117.0938,192.315 1116.5,192.0494 Q1115.9063,191.7681 1115.2813,191.7681 Q1113.9375,191.7681 1113.25,192.8463 Q1112.5625,193.9088 1112.5625,196.0025 Q1112.5625,198.0963 1113.25,199.1744 Q1113.9375,200.2369 1115.2813,200.2369 Q1115.9063,200.2369 1116.5,199.9713 Q1117.0938,199.69 1117.7188,199.1119 L1117.7188,201.8306 Z " fill="#000000"/><text fill="#000000" font-family="sans-serif" font-size="14" lengthAdjust="spacing" textLength="106" x="1135.25" y="201.0367">WorldController</text><line style="stroke:#181818;stroke-width:0.5;" x1="952" x2="1392" y1="212.19" y2="212.19"/><rect fill="none" height="6" style="stroke:#C82930;stroke-width:1.0;" width="6" x="959" y="222.8384"/><text fill="#000000" font-family="sans-serif" font-size="14" lengthAdjust="spacing" textLength="80" x="971" y="229.1851">World world</text><rect fill="none" height="6" style="stroke:#C82930;stroke-width:1.0;" width="6" x="959" y="239.1353"/><text fill="#000000" font-family="sans-serif" font-size="14" lengthAdjust="spacing" textLength="144" x="971" y="245.482">WorldView worldView</text><line style="stroke:#181818;stroke-width:0.5;" x1="952" x2="1392" y1="252.7838" y2="252.7838"/><ellipse cx="962" cy="266.4322" fill="#84BE84" rx="3" ry="3" style="stroke:#038048;stroke-width:1.0;"/><text fill="#000000" font-family="sans-serif" font-size="14" lengthAdjust="spacing" textLength="105" x="971" y="269.7789">initializeGame()</text><ellipse cx="962" cy="282.7291" fill="#84BE84" rx="3" ry="3" style="stroke:#038048;stroke-width:1.0;"/><text fill="#000000" font-family="sans-serif" font-size="14" lengthAdjust="spacing" textLength="111" x="971" y="286.0757">runGameCycle()</text><rect fill="#F24D5C" height="6" style="stroke:#C82930;stroke-width:1.0;" width="6" x="959" y="296.0259"/><text fill="#000000" font-family="sans-serif" font-size="14" lengthAdjust="spacing" textLength="132" x="971" y="302.3726">initializeWorldMap()</text><rect fill="#F24D5C" height="6" style="stroke:#C82930;stroke-width:1.0;" width="6" x="959" y="312.3228"/><text fill="#000000" font-family="sans-serif" font-size="14" lengthAdjust="spacing" textLength="154" x="971" y="318.6695">initializeWorldEntities()</text><rect fill="#F24D5C" height="6" style="stroke:#C82930;stroke-width:1.0;" width="6" x="959" y="328.6197"/><text fill="#000000" font-family="sans-serif" font-size="14" lengthAdjust="spacing" textLength="95" x="971" y="334.9664">createPlayer()</text><rect fill="#F24D5C" height="6" style="stroke:#C82930;stroke-width:1.0;" width="6" x="959" y="344.9166"/><text fill="#000000" font-family="sans-serif" font-size="14" lengthAdjust="spacing" textLength="83" x="971" y="351.2632">createNPC()</text><rect fill="#F24D5C" height="6" style="stroke:#C82930;stroke-width:1.0;" width="6" x="959" y="361.2134"/><text fill="#000000" font-family="sans-serif" font-size="14" lengthAdjust="spacing" textLength="416" x="971" y="367.5601">createCharacter(Transport[] transports, CharacterType type)</text><rect fill="#F24D5C" height="6" style="stroke:#C82930;stroke-width:1.0;" width="6" x="959" y="377.5103"/><text fill="#000000" font-family="sans-serif" font-size="14" lengthAdjust="spacing" textLength="365" x="971" y="383.857">readFileContent(Path path, int count) : List&lt;String[]&gt;</text><rect fill="#F24D5C" height="6" style="stroke:#C82930;stroke-width:1.0;" width="6" x="959" y="393.8072"/><text fill="#000000" font-family="sans-serif" font-size="14" lengthAdjust="spacing" textLength="370" x="971" y="400.1539">populateMap(List&lt;String[]&gt; mapData, Map worldMap)</text><rect fill="#F24D5C" height="6" style="stroke:#C82930;stroke-width:1.0;" width="6" x="959" y="410.1041"/><text fill="#000000" font-family="sans-serif" font-size="14" lengthAdjust="spacing" textLength="306" x="971" y="416.4507">createTileByNumber(String tileNumber) : Tile</text><rect fill="#F24D5C" height="6" style="stroke:#C82930;stroke-width:1.0;" width="6" x="959" y="426.4009"/><text fill="#000000" font-family="sans-serif" font-size="14" lengthAdjust="spacing" textLength="274" x="971" y="432.7476">getRandomCharacterMovement() : char</text><rect fill="#F24D5C" height="6" style="stroke:#C82930;stroke-width:1.0;" width="6" x="959" y="442.6978"/><text fill="#000000" font-family="sans-serif" font-size="14" lengthAdjust="spacing" textLength="143" x="971" y="449.0445">getUserInput() : char</text><rect fill="#F24D5C" height="6" style="stroke:#C82930;stroke-width:1.0;" width="6" x="959" y="458.9947"/><text fill="#000000" font-family="sans-serif" font-size="14" lengthAdjust="spacing" textLength="240" x="971" y="465.3414">moveCharacters(Scanner scanner)</text><rect fill="#F24D5C" height="6" style="stroke:#C82930;stroke-width:1.0;" width="6" x="959" y="475.2916"/><text fill="#000000" font-family="sans-serif" font-size="14" lengthAdjust="spacing" textLength="412" x="971" y="481.6382">getNewPosition(Point currentPosition, char direction) : Point</text><rect fill="#F24D5C" height="6" style="stroke:#C82930;stroke-width:1.0;" width="6" x="959" y="491.5884"/><text fill="#000000" font-family="sans-serif" font-size="14" lengthAdjust="spacing" textLength="271" x="971" y="497.9351">isValidPosition(Point position) : boolean</text><rect fill="#F24D5C" height="6" style="stroke:#C82930;stroke-width:1.0;" width="6" x="959" y="507.8853"/><text fill="#000000" font-family="sans-serif" font-size="14" lengthAdjust="spacing" textLength="165" x="971" y="514.232">updateTransportInUse()</text></g><!--class App--><g id="elem_App"><rect codeLine="1" fill="#F1F1F1" height="113.1875" id="App" rx="2.5" ry="2.5" style="stroke:#181818;stroke-width:0.5;" width="240" x="1052" y="7"/><ellipse cx="1154.25" cy="23" fill="#ADD1B2" rx="11" ry="11" style="stroke:#181818;stroke-width:1.0;"/><path d="M1157.2188,28.6406 Q1156.6406,28.9375 1156,29.0781 Q1155.3594,29.2344 1154.6563,29.2344 Q1152.1563,29.2344 1150.8281,27.5938 Q1149.5156,25.9375 1149.5156,22.8125 Q1149.5156,19.6875 1150.8281,18.0313 Q1152.1563,16.375 1154.6563,16.375 Q1155.3594,16.375 1156,16.5313 Q1156.6563,16.6875 1157.2188,16.9844 L1157.2188,19.7031 Q1156.5938,19.125 1156,18.8594 Q1155.4063,18.5781 1154.7813,18.5781 Q1153.4375,18.5781 1152.75,19.6563 Q1152.0625,20.7188 1152.0625,22.8125 Q1152.0625,24.9063 1152.75,25.9844 Q1153.4375,27.0469 1154.7813,27.0469 Q1155.4063,27.0469 1156,26.7813 Q1156.5938,26.5 1157.2188,25.9219 L1157.2188,28.6406 Z " fill="#000000"/><text fill="#000000" font-family="sans-serif" font-size="14" lengthAdjust="spacing" textLength="27" x="1174.75" y="27.8467">App</text><line style="stroke:#181818;stroke-width:0.5;" x1="1053" x2="1291" y1="39" y2="39"/><rect fill="none" height="6" style="stroke:#C82930;stroke-width:1.0;" width="6" x="1060" y="49.6484"/><text fill="#000000" font-family="sans-serif" font-size="14" lengthAdjust="spacing" textLength="214" x="1072" y="55.9951">WorldController worldController</text><line style="stroke:#181818;stroke-width:0.5;" x1="1053" x2="1291" y1="63.2969" y2="63.2969"/><ellipse cx="1063" cy="76.9453" fill="#84BE84" rx="3" ry="3" style="stroke:#038048;stroke-width:1.0;"/><text fill="#000000" font-family="sans-serif" font-size="14" lengthAdjust="spacing" textLength="43" x="1072" y="80.292">main()</text><rect fill="#F24D5C" height="6" style="stroke:#C82930;stroke-width:1.0;" width="6" x="1060" y="90.2422"/><text fill="#000000" font-family="sans-serif" font-size="14" lengthAdjust="spacing" textLength="105" x="1072" y="96.5889">initializeGame()</text><rect fill="#F24D5C" height="6" style="stroke:#C82930;stroke-width:1.0;" width="6" x="1060" y="106.5391"/><text fill="#000000" font-family="sans-serif" font-size="14" lengthAdjust="spacing" textLength="111" x="1072" y="112.8857">runGameCycle()</text></g><!--reverse link Entity to Character--><g id="link_Entity_Character"><path d="M788.9134,1008.3895 C753.8934,1035.2295 727.85,1055.17 694.06,1081.06 " fill="none" id="Entity-backto-Character" style="stroke:#181818;stroke-width:1.0;"/><polygon fill="none" points="803.2,997.44,785.2635,1003.6273,792.5632,1013.1517,803.2,997.44" style="stroke:#181818;stroke-width:1.0;"/></g><!--link World to Map--><g id="link_World_Map"><path codeLine="134" d="M640.32,791.69 C621.44,817.19 605.1094,839.2472 587.8794,862.5272 " fill="none" id="World-to-Map" style="stroke:#181818;stroke-width:1.0;"/><polygon fill="#181818" points="584.31,867.35,592.8793,862.4955,587.2845,863.331,586.449,857.7362,584.31,867.35" style="stroke:#181818;stroke-width:1.0;"/></g><!--link World to Entity--><g id="link_World_Entity"><path codeLine="135" d="M783.68,791.69 C802.56,817.19 818.8906,839.2472 836.1206,862.5272 " fill="none" id="World-to-Entity" style="stroke:#181818;stroke-width:1.0;"/><polygon fill="#181818" points="839.69,867.35,837.551,857.7362,836.7155,863.331,831.1207,862.4955,839.69,867.35" style="stroke:#181818;stroke-width:1.0;"/></g><!--link World to Time--><g id="link_World_Time"><path codeLine="136" d="M607.18,744.42 C526.57,782.53 420.5643,832.6454 336.5743,872.3554 " fill="none" id="World-to-Time" style="stroke:#181818;stroke-width:1.0;"/><polygon fill="#181818" points="331.15,874.92,340.9962,874.6893,335.6702,872.7829,337.5767,867.4569,331.15,874.92" style="stroke:#181818;stroke-width:1.0;"/></g><!--link Map to Tile--><g id="link_Map_Tile"><path codeLine="137" d="M467.69,997.44 C441.75,1021.48 416.6924,1044.6933 390.7424,1068.7233 " fill="none" id="Map-to-Tile" style="stroke:#181818;stroke-width:1.0;"/><polygon fill="#181818" points="386.34,1072.8,395.6613,1069.6199,390.0086,1069.4028,390.2258,1063.7501,386.34,1072.8" style="stroke:#181818;stroke-width:1.0;"/></g><!--link Tile to TileTypes--><g id="link_Tile_TileTypes"><path codeLine="138" d="M317,1202.98 C317,1221.63 317,1236.45 317,1256.64 " fill="none" id="Tile-to-TileTypes" style="stroke:#181818;stroke-width:1.0;"/><polygon fill="#181818" points="317,1262.64,321,1253.64,317,1257.64,313,1253.64,317,1262.64" style="stroke:#181818;stroke-width:1.0;"/></g><!--link Entity to Point--><g id="link_Entity_Point"><path codeLine="139" d="M965.76,997.44 C998.68,1024.28 1031.9294,1051.379 1063.6894,1077.269 " fill="none" id="Entity-to-Point" style="stroke:#181818;stroke-width:1.0;"/><polygon fill="#181818" points="1068.34,1081.06,1063.8915,1072.273,1064.4645,1077.9008,1058.8368,1078.4738,1068.34,1081.06" style="stroke:#181818;stroke-width:1.0;"/></g><!--link Entity to Transport--><g id="link_Entity_Transport"><path codeLine="140" d="M892.67,997.44 C895.04,1024.28 897.2414,1049.1933 899.5314,1075.0833 " fill="none" id="Entity-to-Transport" style="stroke:#181818;stroke-width:1.0;"/><polygon fill="#181818" points="900.06,1081.06,903.2515,1071.7426,899.6195,1076.0794,895.2826,1072.4474,900.06,1081.06" style="stroke:#181818;stroke-width:1.0;"/></g><!--link Transport to TransportTypes--><g id="link_Transport_TransportTypes"><path codeLine="141" d="M905,1194.85 C905,1228.08 905,1264.12 905,1297.34 " fill="none" id="Transport-to-TransportTypes" style="stroke:#181818;stroke-width:1.0;"/><polygon fill="#181818" points="905,1303.34,909,1294.34,905,1298.34,901,1294.34,905,1303.34" style="stroke:#181818;stroke-width:1.0;"/></g><!--link Time to ImpreciseTime--><g id="link_Time_ImpreciseTime"><path codeLine="142" d="M163.17,1013.49 C149.41,1036.1 137.8684,1055.074 125.1784,1075.934 " fill="none" id="Time-to-ImpreciseTime" style="stroke:#181818;stroke-width:1.0;"/><polygon fill="#181818" points="122.06,1081.06,130.1549,1075.4499,124.6586,1076.7883,123.3202,1071.2921,122.06,1081.06" style="stroke:#181818;stroke-width:1.0;"/></g><!--link Character to CharacterType--><g id="link_Character_CharacterType"><path codeLine="143" d="M621,1194.85 C621,1228.08 621,1264.12 621,1297.34 " fill="none" id="Character-to-CharacterType" style="stroke:#181818;stroke-width:1.0;"/><polygon fill="#181818" points="621,1303.34,625,1294.34,621,1298.34,617,1294.34,621,1303.34" style="stroke:#181818;stroke-width:1.0;"/></g><!--link WorldController to World--><g id="link_WorldController_World"><path codeLine="144" d="M950.76,515.87 C904.03,550.51 861.6502,581.9371 821.6902,611.5571 " fill="none" id="WorldController-to-World" style="stroke:#181818;stroke-width:1.0;"/><polygon fill="#181818" points="816.87,615.13,826.4822,612.9841,820.8868,612.1526,821.7183,606.5572,816.87,615.13" style="stroke:#181818;stroke-width:1.0;"/></g><!--link WorldController to WorldView--><g id="link_WorldController_WorldView"><path codeLine="145" d="M1326.05,521.87 C1363.84,563.57 1397.6415,600.8735 1426.4615,632.6835 " fill="none" id="WorldController-to-WorldView" style="stroke:#181818;stroke-width:1.0;"/><polygon fill="#181818" points="1430.49,637.13,1427.4115,627.7746,1427.1329,633.4246,1421.4829,633.146,1430.49,637.13" style="stroke:#181818;stroke-width:1.0;"/></g><!--link App to WorldController--><g id="link_App_WorldController"><path codeLine="146" d="M1172,120.62 C1172,138.22 1172,152.66 1172,173.94 " fill="none" id="App-to-WorldController" style="stroke:#181818;stroke-width:1.0;"/><polygon fill="#181818" points="1172,179.94,1176,170.94,1172,174.94,1168,170.94,1172,179.94" style="stroke:#181818;stroke-width:1.0;"/></g><!--SRC=[XLVDRjiu4BxxAOYU9CHvWKKH87NIDa3j6kjiSmXoe2NM9fOY1PAEwmtoxZj3Kj9GKdTzaCIPZyFvvxXIt3bssxRiRS7WTysUZ5NrocXlZLB2idE-NWJO5Mkur4MPzaWjlUHA_YE-y4RqP7lIk5vTAeN4zqNBgx_vGR0FQrCBzI6TMGKTmhc94hUlUGl7j8JoJJh_yLvxwIytJE1R2aVuZx8HpCDZqHElc9FDIN7Vgp5mU5r7OKLyCItEyOkY3iA39iM8T9zEBqhsHwPN3aED0WG_g5A9rMiSnRylY4S2xsradll-yuvVmfRmHTXIUrQTh0N7Z4xZzIlNbOZAJBK8WehHTegp0f286JbXDS23aI1YQdwKtld03Lg_4rinrhcfIZo_FB-0eOg4-8gTsXfYYUnYQr3b5f_Bi07ZX-zoh4GEZgeeaQE-2dau-dapdcJjZndhFOkJ4XFb7o-jSCp3auYgZbmV0giOCAWqV8oLHb2dQG3c_5jNIRcxD7kZ0cpdhTI76SpAA6F7aAW-tpjlUUMJ7Qa8g2MTrnpakj7KHCkrQutrp7TV3_elHurjpAjuDCdnOEGsIIcd3kb458DOz4gt6BicEp4wgIDDWhCwSZGH6fduvOMkPytiGUZeF6Z4LCX6_igbudirg3mEonIGA_ZyCYeXUdI0PfHfilKUUflJSJRjidJAa3bermfHprV0VwGRrIu6-stKb7wDrfTSzZTJSKoCxkJCHOxmWwnb556IiuK-DQJeXkC_AsDilzfnNVUB9wxKm3c2GxvOiA0dhKKjJqrEUuGzEUK9Uj5mm9qGRKvPcvFsS5FIvXwqVMXQAohfnAZ9hutLj8vlVu8uRKZjtR-A3B71jZLnHfuFn2F6397zQYofs4-63wmrFyXgnMqh_4Jtl5e6sLl5BvZwIxOnkbkGqCUSORplIYJCUHbCaENl6rjI3nJifuiVKfndXWia4tMlM2rT2se6PX7dZp3jb5FCt6MT0HwqDp0bEGDtJHfSblFpIabSaZRZVF4_c_gQmrjnnkPXGfknd8npj3Q9oMDgyDMv-oBcpevwQKh8nprQyzsU83kVfYRiOR8YcCeAA2nCAc5d69ljQeRQ9rL1UtX_ORdbJEEdKa18_HdQ2heF0b5ikJ-o5Xwn1rLOtFturqNdXWXeJHj6JxGu1s6exxZdop3vd9DRfYPWL_jqsPoQFLYHoW97eaYPJ3BNM1r_GfypJM_Q6kxX1jL7D5ouDaV35MeVT7kQvUCTtWjonQxYMaCIkVWkSqcRuOvFjtuQ9plgCeY7f8VM5oO1E300QJAu7v0AzKXGDu7WZhs16kDq64apuMWiw8iafldrzGtwcgnYZH52c9en7d41VWsZNRUADsOQ7v0OTIU4OGmPhkcC7aM4FeBqx1PO3ACAyl8nO5p6Y0YqttD2uU8_kvuoeFu5]--></g></svg>