<?xml version="1.0" encoding="us-ascii" standalone="no"?><svg xmlns="http://www.w3.org/2000/svg" xmlns:xlink="http://www.w3.org/1999/xlink" contentStyleType="text/css" height="1301px" preserveAspectRatio="none" style="width:1468px;height:1301px;background:#FFFFFF;" version="1.1" viewBox="0 0 1468 1301" width="1468px" zoomAndPan="magnify"><defs/><g><!--cluster Model--><g id="cluster_Model"><path d="M8.5,480 L56.5,480 A3.75,3.75 0 0 1 59,482.5 L66,502.2969 L1136.5,502.2969 A2.5,2.5 0 0 1 1139,504.7969 L1139,1291.5 A2.5,2.5 0 0 1 1136.5,1294 L8.5,1294 A2.5,2.5 0 0 1 6,1291.5 L6,482.5 A2.5,2.5 0 0 1 8.5,480 " fill="none" style="stroke:#000000;stroke-width:1.5;"/><line style="stroke:#000000;stroke-width:1.5;" x1="6" x2="66" y1="502.2969" y2="502.2969"/><text fill="#000000" font-family="sans-serif" font-size="14" font-weight="bold" lengthAdjust="spacing" textLength="47" x="10" y="494.9951">Model</text></g><!--cluster View--><g id="cluster_View"><path d="M1165.5,488.5 L1205.5,488.5 A3.75,3.75 0 0 1 1208,491 L1215,510.7969 L1458.5,510.7969 A2.5,2.5 0 0 1 1461,513.2969 L1461,666 A2.5,2.5 0 0 1 1458.5,668.5 L1165.5,668.5 A2.5,2.5 0 0 1 1163,666 L1163,491 A2.5,2.5 0 0 1 1165.5,488.5 " fill="none" style="stroke:#000000;stroke-width:1.5;"/><line style="stroke:#000000;stroke-width:1.5;" x1="1163" x2="1215" y1="510.7969" y2="510.7969"/><text fill="#000000" font-family="sans-serif" font-size="14" font-weight="bold" lengthAdjust="spacing" textLength="39" x="1167" y="503.4951">View</text></g><!--cluster Controller--><g id="cluster_Controller"><path d="M863.5,178 L943.5,178 A3.75,3.75 0 0 1 946,180.5 L953,200.2969 L1226.5,200.2969 A2.5,2.5 0 0 1 1229,202.7969 L1229,453.5 A2.5,2.5 0 0 1 1226.5,456 L863.5,456 A2.5,2.5 0 0 1 861,453.5 L861,180.5 A2.5,2.5 0 0 1 863.5,178 " fill="none" style="stroke:#000000;stroke-width:1.5;"/><line style="stroke:#000000;stroke-width:1.5;" x1="861" x2="953" y1="200.2969" y2="200.2969"/><text fill="#000000" font-family="sans-serif" font-size="14" font-weight="bold" lengthAdjust="spacing" textLength="79" x="865" y="192.9951">Controller</text></g><!--class World--><g id="elem_World"><rect codeLine="13" fill="#F1F1F1" height="145.7813" id="World" rx="2.5" ry="2.5" style="stroke:#181818;stroke-width:0.5;" width="209" x="540.5" y="515"/><ellipse cx="621.25" cy="531" fill="#ADD1B2" rx="11" ry="11" style="stroke:#181818;stroke-width:1.0;"/><path d="M624.2188,536.6406 Q623.6406,536.9375 623,537.0781 Q622.3594,537.2344 621.6563,537.2344 Q619.1563,537.2344 617.8281,535.5938 Q616.5156,533.9375 616.5156,530.8125 Q616.5156,527.6875 617.8281,526.0313 Q619.1563,524.375 621.6563,524.375 Q622.3594,524.375 623,524.5313 Q623.6563,524.6875 624.2188,524.9844 L624.2188,527.7031 Q623.5938,527.125 623,526.8594 Q622.4063,526.5781 621.7813,526.5781 Q620.4375,526.5781 619.75,527.6563 Q619.0625,528.7188 619.0625,530.8125 Q619.0625,532.9063 619.75,533.9844 Q620.4375,535.0469 621.7813,535.0469 Q622.4063,535.0469 623,534.7813 Q623.5938,534.5 624.2188,533.9219 L624.2188,536.6406 Z " fill="#000000"/><text fill="#000000" font-family="sans-serif" font-size="14" lengthAdjust="spacing" textLength="39" x="641.75" y="535.8467">World</text><line style="stroke:#181818;stroke-width:0.5;" x1="541.5" x2="748.5" y1="547" y2="547"/><rect fill="none" height="6" style="stroke:#C82930;stroke-width:1.0;" width="6" x="548.5" y="557.6484"/><text fill="#000000" font-family="sans-serif" font-size="14" lengthAdjust="spacing" textLength="63" x="560.5" y="563.9951">Map map</text><rect fill="none" height="6" style="stroke:#C82930;stroke-width:1.0;" width="6" x="548.5" y="573.9453"/><text fill="#000000" font-family="sans-serif" font-size="14" lengthAdjust="spacing" textLength="103" x="560.5" y="580.292">Entity[] entities</text><rect fill="none" height="6" style="stroke:#C82930;stroke-width:1.0;" width="6" x="548.5" y="590.2422"/><text fill="#000000" font-family="sans-serif" font-size="14" lengthAdjust="spacing" textLength="68" x="560.5" y="596.5889">Time time</text><line style="stroke:#181818;stroke-width:0.5;" x1="541.5" x2="748.5" y1="603.8906" y2="603.8906"/><ellipse cx="551.5" cy="617.5391" fill="#84BE84" rx="3" ry="3" style="stroke:#038048;stroke-width:1.0;"/><text fill="#000000" font-family="sans-serif" font-size="14" lengthAdjust="spacing" textLength="105" x="560.5" y="620.8857">simulateCycle()</text><ellipse cx="551.5" cy="633.8359" fill="#84BE84" rx="3" ry="3" style="stroke:#038048;stroke-width:1.0;"/><text fill="#000000" font-family="sans-serif" font-size="14" lengthAdjust="spacing" textLength="183" x="560.5" y="637.1826">addEntity(Entity newEntity)</text><rect fill="#F24D5C" height="6" style="stroke:#C82930;stroke-width:1.0;" width="6" x="548.5" y="647.1328"/><text fill="#000000" font-family="sans-serif" font-size="14" lengthAdjust="spacing" textLength="93" x="560.5" y="653.4795">updateTime()</text></g><!--class Time--><g id="elem_Time"><rect codeLine="23" fill="#F1F1F1" height="129.4844" id="Time" rx="2.5" ry="2.5" style="stroke:#181818;stroke-width:0.5;" width="238" x="52" y="721"/><ellipse cx="149.75" cy="737" fill="#ADD1B2" rx="11" ry="11" style="stroke:#181818;stroke-width:1.0;"/><path d="M152.7188,742.6406 Q152.1406,742.9375 151.5,743.0781 Q150.8594,743.2344 150.1563,743.2344 Q147.6563,743.2344 146.3281,741.5938 Q145.0156,739.9375 145.0156,736.8125 Q145.0156,733.6875 146.3281,732.0313 Q147.6563,730.375 150.1563,730.375 Q150.8594,730.375 151.5,730.5313 Q152.1563,730.6875 152.7188,730.9844 L152.7188,733.7031 Q152.0938,733.125 151.5,732.8594 Q150.9063,732.5781 150.2813,732.5781 Q148.9375,732.5781 148.25,733.6563 Q147.5625,734.7188 147.5625,736.8125 Q147.5625,738.9063 148.25,739.9844 Q148.9375,741.0469 150.2813,741.0469 Q150.9063,741.0469 151.5,740.7813 Q152.0938,740.5 152.7188,739.9219 L152.7188,742.6406 Z " fill="#000000"/><text fill="#000000" font-family="sans-serif" font-size="14" lengthAdjust="spacing" textLength="34" x="170.25" y="741.8467">Time</text><line style="stroke:#181818;stroke-width:0.5;" x1="53" x2="289" y1="753" y2="753"/><rect fill="none" height="6" style="stroke:#C82930;stroke-width:1.0;" width="6" x="60" y="763.6484"/><text fill="#000000" font-family="sans-serif" font-size="14" lengthAdjust="spacing" textLength="158" x="72" y="769.9951">TimesOfDay timeOfDay</text><rect fill="none" height="6" style="stroke:#C82930;stroke-width:1.0;" width="6" x="60" y="779.9453"/><text fill="#000000" font-family="sans-serif" font-size="14" lengthAdjust="spacing" textLength="105" x="72" y="786.292">int currentTime</text><line style="stroke:#181818;stroke-width:0.5;" x1="53" x2="289" y1="793.5938" y2="793.5938"/><ellipse cx="63" cy="807.2422" fill="#84BE84" rx="3" ry="3" style="stroke:#038048;stroke-width:1.0;"/><text fill="#000000" font-family="sans-serif" font-size="14" lengthAdjust="spacing" textLength="102" x="72" y="810.5889">advanceTime()</text><ellipse cx="63" cy="823.5391" fill="#84BE84" rx="3" ry="3" style="stroke:#038048;stroke-width:1.0;"/><text fill="#000000" font-family="sans-serif" font-size="14" lengthAdjust="spacing" textLength="212" x="72" y="826.8857">setTimeOfDay(int currentTime)</text><rect fill="#F24D5C" height="6" style="stroke:#C82930;stroke-width:1.0;" width="6" x="60" y="836.8359"/><text fill="#000000" font-family="sans-serif" font-size="14" lengthAdjust="spacing" textLength="72" x="72" y="843.1826">resetDay()</text></g><!--class Map--><g id="elem_Map"><rect codeLine="32" fill="#F1F1F1" height="96.8906" id="Map" rx="2.5" ry="2.5" style="stroke:#181818;stroke-width:0.5;" width="272" x="340" y="737"/><ellipse cx="457.25" cy="753" fill="#ADD1B2" rx="11" ry="11" style="stroke:#181818;stroke-width:1.0;"/><path d="M460.2188,758.6406 Q459.6406,758.9375 459,759.0781 Q458.3594,759.2344 457.6563,759.2344 Q455.1563,759.2344 453.8281,757.5938 Q452.5156,755.9375 452.5156,752.8125 Q452.5156,749.6875 453.8281,748.0313 Q455.1563,746.375 457.6563,746.375 Q458.3594,746.375 459,746.5313 Q459.6563,746.6875 460.2188,746.9844 L460.2188,749.7031 Q459.5938,749.125 459,748.8594 Q458.4063,748.5781 457.7813,748.5781 Q456.4375,748.5781 455.75,749.6563 Q455.0625,750.7188 455.0625,752.8125 Q455.0625,754.9063 455.75,755.9844 Q456.4375,757.0469 457.7813,757.0469 Q458.4063,757.0469 459,756.7813 Q459.5938,756.5 460.2188,755.9219 L460.2188,758.6406 Z " fill="#000000"/><text fill="#000000" font-family="sans-serif" font-size="14" lengthAdjust="spacing" textLength="29" x="477.75" y="757.8467">Map</text><line style="stroke:#181818;stroke-width:0.5;" x1="341" x2="611" y1="769" y2="769"/><rect fill="none" height="6" style="stroke:#C82930;stroke-width:1.0;" width="6" x="348" y="779.6484"/><text fill="#000000" font-family="sans-serif" font-size="14" lengthAdjust="spacing" textLength="76" x="360" y="785.9951">Tile[][] tiles</text><line style="stroke:#181818;stroke-width:0.5;" x1="341" x2="611" y1="793.2969" y2="793.2969"/><ellipse cx="351" cy="806.9453" fill="#84BE84" rx="3" ry="3" style="stroke:#038048;stroke-width:1.0;"/><text fill="#000000" font-family="sans-serif" font-size="14" lengthAdjust="spacing" textLength="246" x="360" y="810.292">updateTile(Point point, Tile newTile)</text><ellipse cx="351" cy="823.2422" fill="#84BE84" rx="3" ry="3" style="stroke:#038048;stroke-width:1.0;"/><text fill="#000000" font-family="sans-serif" font-size="14" lengthAdjust="spacing" textLength="131" x="360" y="826.5889">getTile(Point point)</text></g><!--class Tile--><g id="elem_Tile"><rect codeLine="39" fill="#F1F1F1" height="96.8906" id="Tile" rx="2.5" ry="2.5" style="stroke:#181818;stroke-width:0.5;" width="255" x="172.5" y="918"/><ellipse cx="283.75" cy="934" fill="#ADD1B2" rx="11" ry="11" style="stroke:#181818;stroke-width:1.0;"/><path d="M286.7188,939.6406 Q286.1406,939.9375 285.5,940.0781 Q284.8594,940.2344 284.1563,940.2344 Q281.6563,940.2344 280.3281,938.5938 Q279.0156,936.9375 279.0156,933.8125 Q279.0156,930.6875 280.3281,929.0313 Q281.6563,927.375 284.1563,927.375 Q284.8594,927.375 285.5,927.5313 Q286.1563,927.6875 286.7188,927.9844 L286.7188,930.7031 Q286.0938,930.125 285.5,929.8594 Q284.9063,929.5781 284.2813,929.5781 Q282.9375,929.5781 282.25,930.6563 Q281.5625,931.7188 281.5625,933.8125 Q281.5625,935.9063 282.25,936.9844 Q282.9375,938.0469 284.2813,938.0469 Q284.9063,938.0469 285.5,937.7813 Q286.0938,937.5 286.7188,936.9219 L286.7188,939.6406 Z " fill="#000000"/><text fill="#000000" font-family="sans-serif" font-size="14" lengthAdjust="spacing" textLength="24" x="304.25" y="938.8467">Tile</text><line style="stroke:#181818;stroke-width:0.5;" x1="173.5" x2="426.5" y1="950" y2="950"/><rect fill="none" height="6" style="stroke:#C82930;stroke-width:1.0;" width="6" x="180.5" y="960.6484"/><text fill="#000000" font-family="sans-serif" font-size="14" lengthAdjust="spacing" textLength="100" x="192.5" y="966.9951">TileTypes type</text><line style="stroke:#181818;stroke-width:0.5;" x1="173.5" x2="426.5" y1="974.2969" y2="974.2969"/><ellipse cx="183.5" cy="987.9453" fill="#84BE84" rx="3" ry="3" style="stroke:#038048;stroke-width:1.0;"/><text fill="#000000" font-family="sans-serif" font-size="14" lengthAdjust="spacing" textLength="229" x="192.5" y="991.292">changeType(TileTypes newType)</text><ellipse cx="183.5" cy="1004.2422" fill="#84BE84" rx="3" ry="3" style="stroke:#038048;stroke-width:1.0;"/><text fill="#000000" font-family="sans-serif" font-size="14" lengthAdjust="spacing" textLength="67" x="192.5" y="1007.5889">getType()</text></g><!--class Entity--><g id="elem_Entity"><rect codeLine="46" fill="#F1F1F1" height="129.4844" id="Entity" rx="2.5" ry="2.5" style="stroke:#181818;stroke-width:0.5;" width="322" x="654" y="721"/><ellipse cx="791.25" cy="737" fill="#A9DCDF" rx="11" ry="11" style="stroke:#181818;stroke-width:1.0;"/><path d="M791.3594,732.3438 L790.2031,737.4219 L792.5313,737.4219 L791.3594,732.3438 Z M789.875,730.1094 L792.8594,730.1094 L796.2188,742.5 L793.7656,742.5 L793,739.4375 L789.7188,739.4375 L788.9688,742.5 L786.5313,742.5 L789.875,730.1094 Z " fill="#000000"/><text fill="#000000" font-family="sans-serif" font-size="14" font-style="italic" lengthAdjust="spacing" textLength="39" x="811.75" y="741.8467">Entity</text><line style="stroke:#181818;stroke-width:0.5;" x1="655" x2="975" y1="753" y2="753"/><rect fill="none" height="6" style="stroke:#C82930;stroke-width:1.0;" width="6" x="662" y="763.6484"/><text fill="#000000" font-family="sans-serif" font-size="14" lengthAdjust="spacing" textLength="94" x="674" y="769.9951">Point position</text><rect fill="none" height="6" style="stroke:#C82930;stroke-width:1.0;" width="6" x="662" y="779.9453"/><text fill="#000000" font-family="sans-serif" font-size="14" lengthAdjust="spacing" textLength="173" x="674" y="786.292">Transport transportInUse</text><line style="stroke:#181818;stroke-width:0.5;" x1="655" x2="975" y1="793.5938" y2="793.5938"/><ellipse cx="665" cy="807.2422" fill="#84BE84" rx="3" ry="3" style="stroke:#038048;stroke-width:1.0;"/><text fill="#000000" font-family="sans-serif" font-size="14" lengthAdjust="spacing" textLength="189" x="674" y="810.5889">moveTo(Point newPosition)</text><ellipse cx="665" cy="823.5391" fill="#84BE84" rx="3" ry="3" style="stroke:#038048;stroke-width:1.0;"/><text fill="#000000" font-family="sans-serif" font-size="14" lengthAdjust="spacing" textLength="296" x="674" y="826.8857">changeTransport(Transport newTransport)</text><ellipse cx="665" cy="839.8359" fill="#84BE84" rx="3" ry="3" style="stroke:#038048;stroke-width:1.0;"/><text fill="#000000" font-family="sans-serif" font-size="14" lengthAdjust="spacing" textLength="152" x="674" y="843.1826">getCurrentTransport()</text></g><!--class Character--><g id="elem_Character"><rect codeLine="55" fill="#F1F1F1" height="96.8906" id="Character" rx="2.5" ry="2.5" style="stroke:#181818;stroke-width:0.5;" width="240" x="463" y="918"/><ellipse cx="545.25" cy="934" fill="#ADD1B2" rx="11" ry="11" style="stroke:#181818;stroke-width:1.0;"/><path d="M548.2188,939.6406 Q547.6406,939.9375 547,940.0781 Q546.3594,940.2344 545.6563,940.2344 Q543.1563,940.2344 541.8281,938.5938 Q540.5156,936.9375 540.5156,933.8125 Q540.5156,930.6875 541.8281,929.0313 Q543.1563,927.375 545.6563,927.375 Q546.3594,927.375 547,927.5313 Q547.6563,927.6875 548.2188,927.9844 L548.2188,930.7031 Q547.5938,930.125 547,929.8594 Q546.4063,929.5781 545.7813,929.5781 Q544.4375,929.5781 543.75,930.6563 Q543.0625,931.7188 543.0625,933.8125 Q543.0625,935.9063 543.75,936.9844 Q544.4375,938.0469 545.7813,938.0469 Q546.4063,938.0469 547,937.7813 Q547.5938,937.5 548.2188,936.9219 L548.2188,939.6406 Z " fill="#000000"/><text fill="#000000" font-family="sans-serif" font-size="14" lengthAdjust="spacing" textLength="67" x="565.75" y="938.8467">Character</text><line style="stroke:#181818;stroke-width:0.5;" x1="464" x2="702" y1="950" y2="950"/><rect fill="none" height="6" style="stroke:#C82930;stroke-width:1.0;" width="6" x="471" y="960.6484"/><text fill="#000000" font-family="sans-serif" font-size="14" lengthAdjust="spacing" textLength="204" x="483" y="966.9951">CharacterType characterType</text><rect fill="none" height="6" style="stroke:#C82930;stroke-width:1.0;" width="6" x="471" y="976.9453"/><text fill="#000000" font-family="sans-serif" font-size="14" lengthAdjust="spacing" textLength="214" x="483" y="983.292">Transport[] availableTransports</text><line style="stroke:#181818;stroke-width:0.5;" x1="464" x2="702" y1="990.5938" y2="990.5938"/><ellipse cx="474" cy="1004.2422" fill="#84BE84" rx="3" ry="3" style="stroke:#038048;stroke-width:1.0;"/><text fill="#000000" font-family="sans-serif" font-size="14" lengthAdjust="spacing" textLength="167" x="483" y="1007.5889">getAvailableTransports()</text></g><!--class Transport--><g id="elem_Transport"><rect codeLine="63" fill="#F1F1F1" height="96.8906" id="Transport" rx="2.5" ry="2.5" style="stroke:#181818;stroke-width:0.5;" width="169" x="738.5" y="918"/><ellipse cx="785.25" cy="934" fill="#ADD1B2" rx="11" ry="11" style="stroke:#181818;stroke-width:1.0;"/><path d="M788.2188,939.6406 Q787.6406,939.9375 787,940.0781 Q786.3594,940.2344 785.6563,940.2344 Q783.1563,940.2344 781.8281,938.5938 Q780.5156,936.9375 780.5156,933.8125 Q780.5156,930.6875 781.8281,929.0313 Q783.1563,927.375 785.6563,927.375 Q786.3594,927.375 787,927.5313 Q787.6563,927.6875 788.2188,927.9844 L788.2188,930.7031 Q787.5938,930.125 787,929.8594 Q786.4063,929.5781 785.7813,929.5781 Q784.4375,929.5781 783.75,930.6563 Q783.0625,931.7188 783.0625,933.8125 Q783.0625,935.9063 783.75,936.9844 Q784.4375,938.0469 785.7813,938.0469 Q786.4063,938.0469 787,937.7813 Q787.5938,937.5 788.2188,936.9219 L788.2188,939.6406 Z " fill="#000000"/><text fill="#000000" font-family="sans-serif" font-size="14" lengthAdjust="spacing" textLength="67" x="805.75" y="938.8467">Transport</text><line style="stroke:#181818;stroke-width:0.5;" x1="739.5" x2="906.5" y1="950" y2="950"/><rect fill="none" height="6" style="stroke:#C82930;stroke-width:1.0;" width="6" x="746.5" y="960.6484"/><text fill="#000000" font-family="sans-serif" font-size="14" lengthAdjust="spacing" textLength="143" x="758.5" y="966.9951">TransportTypes type</text><rect fill="none" height="6" style="stroke:#C82930;stroke-width:1.0;" width="6" x="746.5" y="976.9453"/><text fill="#000000" font-family="sans-serif" font-size="14" lengthAdjust="spacing" textLength="122" x="758.5" y="983.292">Tile[] allowedTiles</text><line style="stroke:#181818;stroke-width:0.5;" x1="739.5" x2="906.5" y1="990.5938" y2="990.5938"/><ellipse cx="749.5" cy="1004.2422" fill="#84BE84" rx="3" ry="3" style="stroke:#038048;stroke-width:1.0;"/><text fill="#000000" font-family="sans-serif" font-size="14" lengthAdjust="spacing" textLength="118" x="758.5" y="1007.5889">getAllowedTiles()</text></g><!--class Point--><g id="elem_Point"><rect codeLine="70" fill="#F1F1F1" height="113.1875" id="Point" rx="2.5" ry="2.5" style="stroke:#181818;stroke-width:0.5;" width="180" x="943" y="910"/><ellipse cx="1011.25" cy="926" fill="#ADD1B2" rx="11" ry="11" style="stroke:#181818;stroke-width:1.0;"/><path d="M1014.2188,931.6406 Q1013.6406,931.9375 1013,932.0781 Q1012.3594,932.2344 1011.6563,932.2344 Q1009.1563,932.2344 1007.8281,930.5938 Q1006.5156,928.9375 1006.5156,925.8125 Q1006.5156,922.6875 1007.8281,921.0313 Q1009.1563,919.375 1011.6563,919.375 Q1012.3594,919.375 1013,919.5313 Q1013.6563,919.6875 1014.2188,919.9844 L1014.2188,922.7031 Q1013.5938,922.125 1013,921.8594 Q1012.4063,921.5781 1011.7813,921.5781 Q1010.4375,921.5781 1009.75,922.6563 Q1009.0625,923.7188 1009.0625,925.8125 Q1009.0625,927.9063 1009.75,928.9844 Q1010.4375,930.0469 1011.7813,930.0469 Q1012.4063,930.0469 1013,929.7813 Q1013.5938,929.5 1014.2188,928.9219 L1014.2188,931.6406 Z " fill="#000000"/><text fill="#000000" font-family="sans-serif" font-size="14" lengthAdjust="spacing" textLength="35" x="1031.75" y="930.8467">Point</text><line style="stroke:#181818;stroke-width:0.5;" x1="944" x2="1122" y1="942" y2="942"/><rect fill="none" height="6" style="stroke:#C82930;stroke-width:1.0;" width="6" x="951" y="952.6484"/><text fill="#000000" font-family="sans-serif" font-size="14" lengthAdjust="spacing" textLength="28" x="963" y="958.9951">int x</text><rect fill="none" height="6" style="stroke:#C82930;stroke-width:1.0;" width="6" x="951" y="968.9453"/><text fill="#000000" font-family="sans-serif" font-size="14" lengthAdjust="spacing" textLength="28" x="963" y="975.292">int y</text><line style="stroke:#181818;stroke-width:0.5;" x1="944" x2="1122" y1="982.5938" y2="982.5938"/><ellipse cx="954" cy="996.2422" fill="#84BE84" rx="3" ry="3" style="stroke:#038048;stroke-width:1.0;"/><text fill="#000000" font-family="sans-serif" font-size="14" lengthAdjust="spacing" textLength="91" x="963" y="999.5889">getLocation()</text><ellipse cx="954" cy="1012.5391" fill="#84BE84" rx="3" ry="3" style="stroke:#038048;stroke-width:1.0;"/><text fill="#000000" font-family="sans-serif" font-size="14" lengthAdjust="spacing" textLength="154" x="963" y="1015.8857">setLocation(int x, int y)</text></g><!--class TileTypes--><g id="elem_TileTypes"><rect codeLine="78" fill="#F1F1F1" height="194.6719" id="TileTypes" rx="2.5" ry="2.5" style="stroke:#181818;stroke-width:0.5;" width="107" x="246.5" y="1083"/><ellipse cx="265.55" cy="1099" fill="#EB937F" rx="11" ry="11" style="stroke:#181818;stroke-width:1.0;"/><path d="M269.6594,1105 L261.9406,1105 L261.9406,1092.6094 L269.6594,1092.6094 L269.6594,1094.7656 L264.3938,1094.7656 L264.3938,1097.4375 L269.1594,1097.4375 L269.1594,1099.5938 L264.3938,1099.5938 L264.3938,1102.8438 L269.6594,1102.8438 L269.6594,1105 Z " fill="#000000"/><text fill="#000000" font-family="sans-serif" font-size="14" lengthAdjust="spacing" textLength="66" x="280.45" y="1103.8467">TileTypes</text><line style="stroke:#181818;stroke-width:0.5;" x1="247.5" x2="352.5" y1="1115" y2="1115"/><text fill="#000000" font-family="sans-serif" font-size="14" lengthAdjust="spacing" textLength="34" x="252.5" y="1131.9951">Floor</text><text fill="#000000" font-family="sans-serif" font-size="14" lengthAdjust="spacing" textLength="35" x="252.5" y="1148.292">Sand</text><text fill="#000000" font-family="sans-serif" font-size="14" lengthAdjust="spacing" textLength="27" x="252.5" y="1164.5889">Wall</text><text fill="#000000" font-family="sans-serif" font-size="14" lengthAdjust="spacing" textLength="77" x="252.5" y="1180.8857">ShortGrass</text><text fill="#000000" font-family="sans-serif" font-size="14" lengthAdjust="spacing" textLength="95" x="252.5" y="1197.1826">MediumGrass</text><text fill="#000000" font-family="sans-serif" font-size="14" lengthAdjust="spacing" textLength="63" x="252.5" y="1213.4795">TallGrass</text><text fill="#000000" font-family="sans-serif" font-size="14" lengthAdjust="spacing" textLength="40" x="252.5" y="1229.7764">Water</text><text fill="#000000" font-family="sans-serif" font-size="14" lengthAdjust="spacing" textLength="78" x="252.5" y="1246.0732">DeepWater</text><text fill="#000000" font-family="sans-serif" font-size="14" lengthAdjust="spacing" textLength="64" x="252.5" y="1262.3701">Mountain</text><line style="stroke:#181818;stroke-width:0.5;" x1="247.5" x2="352.5" y1="1269.6719" y2="1269.6719"/></g><!--class TimesOfDay--><g id="elem_TimesOfDay"><rect codeLine="90" fill="#F1F1F1" height="113.1875" id="TimesOfDay" rx="2.5" ry="2.5" style="stroke:#181818;stroke-width:0.5;" width="115" x="22.5" y="910"/><ellipse cx="37.5" cy="926" fill="#EB937F" rx="11" ry="11" style="stroke:#181818;stroke-width:1.0;"/><path d="M41.6094,932 L33.8906,932 L33.8906,919.6094 L41.6094,919.6094 L41.6094,921.7656 L36.3438,921.7656 L36.3438,924.4375 L41.1094,924.4375 L41.1094,926.5938 L36.3438,926.5938 L36.3438,929.8438 L41.6094,929.8438 L41.6094,932 Z " fill="#000000"/><text fill="#000000" font-family="sans-serif" font-size="14" lengthAdjust="spacing" textLength="83" x="51.5" y="930.8467">TimesOfDay</text><line style="stroke:#181818;stroke-width:0.5;" x1="23.5" x2="136.5" y1="942" y2="942"/><text fill="#000000" font-family="sans-serif" font-size="14" lengthAdjust="spacing" textLength="56" x="28.5" y="958.9951">Morning</text><text fill="#000000" font-family="sans-serif" font-size="14" lengthAdjust="spacing" textLength="68" x="28.5" y="975.292">Afternoon</text><text fill="#000000" font-family="sans-serif" font-size="14" lengthAdjust="spacing" textLength="55" x="28.5" y="991.5889">Evening</text><text fill="#000000" font-family="sans-serif" font-size="14" lengthAdjust="spacing" textLength="36" x="28.5" y="1007.8857">Night</text><line style="stroke:#181818;stroke-width:0.5;" x1="23.5" x2="136.5" y1="1015.1875" y2="1015.1875"/></g><!--class TransportTypes--><g id="elem_TransportTypes"><rect codeLine="97" fill="#F1F1F1" height="113.1875" id="TransportTypes" rx="2.5" ry="2.5" style="stroke:#181818;stroke-width:0.5;" width="141" x="752.5" y="1124"/><ellipse cx="767.5" cy="1140" fill="#EB937F" rx="11" ry="11" style="stroke:#181818;stroke-width:1.0;"/><path d="M771.6094,1146 L763.8906,1146 L763.8906,1133.6094 L771.6094,1133.6094 L771.6094,1135.7656 L766.3438,1135.7656 L766.3438,1138.4375 L771.1094,1138.4375 L771.1094,1140.5938 L766.3438,1140.5938 L766.3438,1143.8438 L771.6094,1143.8438 L771.6094,1146 Z " fill="#000000"/><text fill="#000000" font-family="sans-serif" font-size="14" lengthAdjust="spacing" textLength="109" x="781.5" y="1144.8467">TransportTypes</text><line style="stroke:#181818;stroke-width:0.5;" x1="753.5" x2="892.5" y1="1156" y2="1156"/><text fill="#000000" font-family="sans-serif" font-size="14" lengthAdjust="spacing" textLength="31" x="758.5" y="1172.9951">Foot</text><text fill="#000000" font-family="sans-serif" font-size="14" lengthAdjust="spacing" textLength="41" x="758.5" y="1189.292">Horse</text><text fill="#000000" font-family="sans-serif" font-size="14" lengthAdjust="spacing" textLength="32" x="758.5" y="1205.5889">Boat</text><text fill="#000000" font-family="sans-serif" font-size="14" lengthAdjust="spacing" textLength="86" x="758.5" y="1221.8857">MagicCarpet</text><line style="stroke:#181818;stroke-width:0.5;" x1="753.5" x2="892.5" y1="1229.1875" y2="1229.1875"/></g><!--class CharacterType--><g id="elem_CharacterType"><rect codeLine="104" fill="#F1F1F1" height="80.5938" id="CharacterType" rx="2.5" ry="2.5" style="stroke:#181818;stroke-width:0.5;" width="133" x="516.5" y="1140"/><ellipse cx="531.5" cy="1156" fill="#EB937F" rx="11" ry="11" style="stroke:#181818;stroke-width:1.0;"/><path d="M535.6094,1162 L527.8906,1162 L527.8906,1149.6094 L535.6094,1149.6094 L535.6094,1151.7656 L530.3438,1151.7656 L530.3438,1154.4375 L535.1094,1154.4375 L535.1094,1156.5938 L530.3438,1156.5938 L530.3438,1159.8438 L535.6094,1159.8438 L535.6094,1162 Z " fill="#000000"/><text fill="#000000" font-family="sans-serif" font-size="14" lengthAdjust="spacing" textLength="101" x="545.5" y="1160.8467">CharacterType</text><line style="stroke:#181818;stroke-width:0.5;" x1="517.5" x2="648.5" y1="1172" y2="1172"/><text fill="#000000" font-family="sans-serif" font-size="14" lengthAdjust="spacing" textLength="56" x="522.5" y="1188.9951">Playable</text><text fill="#000000" font-family="sans-serif" font-size="14" lengthAdjust="spacing" textLength="84" x="522.5" y="1205.292">NonPlayable</text><line style="stroke:#181818;stroke-width:0.5;" x1="517.5" x2="648.5" y1="1212.5938" y2="1212.5938"/></g><!--class WorldView--><g id="elem_WorldView"><rect codeLine="111" fill="#F1F1F1" height="129.4844" id="WorldView" rx="2.5" ry="2.5" style="stroke:#181818;stroke-width:0.5;" width="266" x="1179" y="523.5"/><ellipse cx="1272.25" cy="539.5" fill="#ADD1B2" rx="11" ry="11" style="stroke:#181818;stroke-width:1.0;"/><path d="M1275.2188,545.1406 Q1274.6406,545.4375 1274,545.5781 Q1273.3594,545.7344 1272.6563,545.7344 Q1270.1563,545.7344 1268.8281,544.0938 Q1267.5156,542.4375 1267.5156,539.3125 Q1267.5156,536.1875 1268.8281,534.5313 Q1270.1563,532.875 1272.6563,532.875 Q1273.3594,532.875 1274,533.0313 Q1274.6563,533.1875 1275.2188,533.4844 L1275.2188,536.2031 Q1274.5938,535.625 1274,535.3594 Q1273.4063,535.0781 1272.7813,535.0781 Q1271.4375,535.0781 1270.75,536.1563 Q1270.0625,537.2188 1270.0625,539.3125 Q1270.0625,541.4063 1270.75,542.4844 Q1271.4375,543.5469 1272.7813,543.5469 Q1273.4063,543.5469 1274,543.2813 Q1274.5938,543 1275.2188,542.4219 L1275.2188,545.1406 Z " fill="#000000"/><text fill="#000000" font-family="sans-serif" font-size="14" lengthAdjust="spacing" textLength="71" x="1292.75" y="544.3467">WorldView</text><line style="stroke:#181818;stroke-width:0.5;" x1="1180" x2="1444" y1="555.5" y2="555.5"/><rect fill="none" height="6" style="stroke:#C82930;stroke-width:1.0;" width="6" x="1187" y="566.1484"/><text fill="#000000" font-family="sans-serif" font-size="14" lengthAdjust="spacing" textLength="96" x="1199" y="572.4951">String[][] View</text><line style="stroke:#181818;stroke-width:0.5;" x1="1180" x2="1444" y1="579.7969" y2="579.7969"/><ellipse cx="1190" cy="593.4453" fill="#84BE84" rx="3" ry="3" style="stroke:#038048;stroke-width:1.0;"/><text fill="#000000" font-family="sans-serif" font-size="14" lengthAdjust="spacing" textLength="166" x="1199" y="596.792">showWorld(World world)</text><rect fill="#F24D5C" height="6" style="stroke:#C82930;stroke-width:1.0;" width="6" x="1187" y="606.7422"/><text fill="#000000" font-family="sans-serif" font-size="14" lengthAdjust="spacing" textLength="188" x="1199" y="613.0889">showWorldTime(Time time)</text><rect fill="#F24D5C" height="6" style="stroke:#C82930;stroke-width:1.0;" width="6" x="1187" y="623.0391"/><text fill="#000000" font-family="sans-serif" font-size="14" lengthAdjust="spacing" textLength="178" x="1199" y="629.3857">showWorldMap(Map map)</text><rect fill="#F24D5C" height="6" style="stroke:#C82930;stroke-width:1.0;" width="6" x="1187" y="639.3359"/><text fill="#000000" font-family="sans-serif" font-size="14" lengthAdjust="spacing" textLength="240" x="1199" y="645.6826">showWorldEntities(Entity[] entities)</text></g><!--class WorldController--><g id="elem_WorldController"><rect codeLine="121" fill="#F1F1F1" height="227.2656" id="WorldController" rx="2.5" ry="2.5" style="stroke:#181818;stroke-width:0.5;" width="335" x="877.5" y="213"/><ellipse cx="987.75" cy="229" fill="#ADD1B2" rx="11" ry="11" style="stroke:#181818;stroke-width:1.0;"/><path d="M990.7188,234.6406 Q990.1406,234.9375 989.5,235.0781 Q988.8594,235.2344 988.1563,235.2344 Q985.6563,235.2344 984.3281,233.5938 Q983.0156,231.9375 983.0156,228.8125 Q983.0156,225.6875 984.3281,224.0313 Q985.6563,222.375 988.1563,222.375 Q988.8594,222.375 989.5,222.5313 Q990.1563,222.6875 990.7188,222.9844 L990.7188,225.7031 Q990.0938,225.125 989.5,224.8594 Q988.9063,224.5781 988.2813,224.5781 Q986.9375,224.5781 986.25,225.6563 Q985.5625,226.7188 985.5625,228.8125 Q985.5625,230.9063 986.25,231.9844 Q986.9375,233.0469 988.2813,233.0469 Q988.9063,233.0469 989.5,232.7813 Q990.0938,232.5 990.7188,231.9219 L990.7188,234.6406 Z " fill="#000000"/><text fill="#000000" font-family="sans-serif" font-size="14" lengthAdjust="spacing" textLength="106" x="1008.25" y="233.8467">WorldController</text><line style="stroke:#181818;stroke-width:0.5;" x1="878.5" x2="1211.5" y1="245" y2="245"/><rect fill="none" height="6" style="stroke:#C82930;stroke-width:1.0;" width="6" x="885.5" y="255.6484"/><text fill="#000000" font-family="sans-serif" font-size="14" lengthAdjust="spacing" textLength="80" x="897.5" y="261.9951">World world</text><rect fill="none" height="6" style="stroke:#C82930;stroke-width:1.0;" width="6" x="885.5" y="271.9453"/><text fill="#000000" font-family="sans-serif" font-size="14" lengthAdjust="spacing" textLength="144" x="897.5" y="278.292">WorldView worldView</text><line style="stroke:#181818;stroke-width:0.5;" x1="878.5" x2="1211.5" y1="285.5938" y2="285.5938"/><ellipse cx="888.5" cy="299.2422" fill="#84BE84" rx="3" ry="3" style="stroke:#038048;stroke-width:1.0;"/><text fill="#000000" font-family="sans-serif" font-size="14" lengthAdjust="spacing" textLength="105" x="897.5" y="302.5889">initializeGame()</text><rect fill="#F24D5C" height="6" style="stroke:#C82930;stroke-width:1.0;" width="6" x="885.5" y="312.5391"/><text fill="#000000" font-family="sans-serif" font-size="14" lengthAdjust="spacing" textLength="132" x="897.5" y="318.8857">initializeWorldMap()</text><rect fill="#F24D5C" height="6" style="stroke:#C82930;stroke-width:1.0;" width="6" x="885.5" y="328.8359"/><text fill="#000000" font-family="sans-serif" font-size="14" lengthAdjust="spacing" textLength="154" x="897.5" y="335.1826">initializeWorldEntities()</text><rect fill="#F24D5C" height="6" style="stroke:#C82930;stroke-width:1.0;" width="6" x="885.5" y="345.1328"/><text fill="#000000" font-family="sans-serif" font-size="14" lengthAdjust="spacing" textLength="111" x="897.5" y="351.4795">runGameCycle()</text><rect fill="#F24D5C" height="6" style="stroke:#C82930;stroke-width:1.0;" width="6" x="885.5" y="361.4297"/><text fill="#000000" font-family="sans-serif" font-size="14" lengthAdjust="spacing" textLength="251" x="897.5" y="367.7764">moveCharacter(Character character)</text><rect fill="#F24D5C" height="6" style="stroke:#C82930;stroke-width:1.0;" width="6" x="885.5" y="377.7266"/><text fill="#000000" font-family="sans-serif" font-size="14" lengthAdjust="spacing" textLength="309" x="897.5" y="384.0732">getCharacterMovement(Character character)</text><rect fill="#F24D5C" height="6" style="stroke:#C82930;stroke-width:1.0;" width="6" x="885.5" y="394.0234"/><text fill="#000000" font-family="sans-serif" font-size="14" lengthAdjust="spacing" textLength="231" x="897.5" y="400.3701">getRandomCharacterMovement()</text><rect fill="#F24D5C" height="6" style="stroke:#C82930;stroke-width:1.0;" width="6" x="885.5" y="410.3203"/><text fill="#000000" font-family="sans-serif" font-size="14" lengthAdjust="spacing" textLength="100" x="897.5" y="416.667">getUserInput()</text><rect fill="#F24D5C" height="6" style="stroke:#C82930;stroke-width:1.0;" width="6" x="885.5" y="426.6172"/><text fill="#000000" font-family="sans-serif" font-size="14" lengthAdjust="spacing" textLength="202" x="897.5" y="432.9639">processUserInput(char input)</text></g><!--class App--><g id="elem_App"><rect codeLine="2" fill="#F1F1F1" height="145.7813" id="App" rx="2.5" ry="2.5" style="stroke:#181818;stroke-width:0.5;" width="240" x="925" y="7"/><ellipse cx="1027.25" cy="23" fill="#ADD1B2" rx="11" ry="11" style="stroke:#181818;stroke-width:1.0;"/><path d="M1030.2188,28.6406 Q1029.6406,28.9375 1029,29.0781 Q1028.3594,29.2344 1027.6563,29.2344 Q1025.1563,29.2344 1023.8281,27.5938 Q1022.5156,25.9375 1022.5156,22.8125 Q1022.5156,19.6875 1023.8281,18.0313 Q1025.1563,16.375 1027.6563,16.375 Q1028.3594,16.375 1029,16.5313 Q1029.6563,16.6875 1030.2188,16.9844 L1030.2188,19.7031 Q1029.5938,19.125 1029,18.8594 Q1028.4063,18.5781 1027.7813,18.5781 Q1026.4375,18.5781 1025.75,19.6563 Q1025.0625,20.7188 1025.0625,22.8125 Q1025.0625,24.9063 1025.75,25.9844 Q1026.4375,27.0469 1027.7813,27.0469 Q1028.4063,27.0469 1029,26.7813 Q1029.5938,26.5 1030.2188,25.9219 L1030.2188,28.6406 Z " fill="#000000"/><text fill="#000000" font-family="sans-serif" font-size="14" lengthAdjust="spacing" textLength="27" x="1047.75" y="27.8467">App</text><line style="stroke:#181818;stroke-width:0.5;" x1="926" x2="1164" y1="39" y2="39"/><rect fill="none" height="6" style="stroke:#C82930;stroke-width:1.0;" width="6" x="933" y="49.6484"/><text fill="#000000" font-family="sans-serif" font-size="14" lengthAdjust="spacing" textLength="214" x="945" y="55.9951">WorldController worldController</text><rect fill="none" height="6" style="stroke:#C82930;stroke-width:1.0;" width="6" x="933" y="65.9453"/><text fill="#000000" font-family="sans-serif" font-size="14" lengthAdjust="spacing" textLength="121" x="945" y="72.292">World gameWorld</text><rect fill="none" height="6" style="stroke:#C82930;stroke-width:1.0;" width="6" x="933" y="82.2422"/><text fill="#000000" font-family="sans-serif" font-size="14" lengthAdjust="spacing" textLength="185" x="945" y="88.5889">WorldView gameWorldView</text><line style="stroke:#181818;stroke-width:0.5;" x1="926" x2="1164" y1="95.8906" y2="95.8906"/><ellipse cx="936" cy="109.5391" fill="#84BE84" rx="3" ry="3" style="stroke:#038048;stroke-width:1.0;"/><text fill="#000000" font-family="sans-serif" font-size="14" lengthAdjust="spacing" textLength="43" x="945" y="112.8857">main()</text><rect fill="#F24D5C" height="6" style="stroke:#C82930;stroke-width:1.0;" width="6" x="933" y="122.8359"/><text fill="#000000" font-family="sans-serif" font-size="14" lengthAdjust="spacing" textLength="105" x="945" y="129.1826">initializeGame()</text><rect fill="#F24D5C" height="6" style="stroke:#C82930;stroke-width:1.0;" width="6" x="933" y="139.1328"/><text fill="#000000" font-family="sans-serif" font-size="14" lengthAdjust="spacing" textLength="111" x="945" y="145.4795">runGameCycle()</text></g><!--reverse link Entity to Character--><g id="link_Entity_Character"><path d="M718.2998,861.1069 C689.3898,883.4169 671.68,897.08 644.76,917.85 " fill="none" id="Entity-backto-Character" style="stroke:#181818;stroke-width:1.0;"/><polygon fill="none" points="732.55,850.11,714.6342,856.3569,721.9655,865.857,732.55,850.11" style="stroke:#181818;stroke-width:1.0;"/></g><!--link World to Map--><g id="link_World_Map"><path codeLine="137" d="M582.55,661.24 C560.74,686.48 540.7338,709.6109 521.0938,732.3309 " fill="none" id="World-to-Map" style="stroke:#181818;stroke-width:1.0;"/><polygon fill="#181818" points="517.17,736.87,526.0818,732.6772,520.4398,733.0874,520.0296,727.4454,517.17,736.87" style="stroke:#181818;stroke-width:1.0;"/></g><!--link World to Entity--><g id="link_World_Entity"><path codeLine="138" d="M707.82,661.24 C724.84,680.82 739.2135,697.3419 755.7835,716.4019 " fill="none" id="World-to-Entity" style="stroke:#181818;stroke-width:1.0;"/><polygon fill="#181818" points="759.72,720.93,756.8339,711.5135,756.4395,717.1566,750.7965,716.7622,759.72,720.93" style="stroke:#181818;stroke-width:1.0;"/></g><!--link World to Time--><g id="link_World_Time"><path codeLine="139" d="M540.15,631.77 C477.16,657.52 395.43,691.02 323,721 C312.3,725.43 306.7205,727.7473 295.5805,732.3773 " fill="none" id="World-to-Time" style="stroke:#181818;stroke-width:1.0;"/><polygon fill="#181818" points="290.04,734.68,299.8859,734.9196,294.6571,732.761,296.8156,727.5322,290.04,734.68" style="stroke:#181818;stroke-width:1.0;"/></g><!--link Map to Tile--><g id="link_Map_Tile"><path codeLine="140" d="M428.84,834.47 C403.48,860.25 376.5268,887.6718 351.1968,913.4318 " fill="none" id="Map-to-Tile" style="stroke:#181818;stroke-width:1.0;"/><polygon fill="#181818" points="346.99,917.71,356.1523,914.0972,350.4957,914.1448,350.448,908.4882,346.99,917.71" style="stroke:#181818;stroke-width:1.0;"/></g><!--link Tile to TileTypes--><g id="link_Tile_TileTypes"><path codeLine="141" d="M300,1015.08 C300,1035.1 300,1053.16 300,1076.63 " fill="none" id="Tile-to-TileTypes" style="stroke:#181818;stroke-width:1.0;"/><polygon fill="#181818" points="300,1082.63,304,1073.63,300,1077.63,296,1073.63,300,1082.63" style="stroke:#181818;stroke-width:1.0;"/></g><!--link Entity to Point--><g id="link_Entity_Point"><path codeLine="142" d="M892.47,850.11 C916.21,869.61 937.5033,887.082 960.5533,906.012 " fill="none" id="Entity-to-Point" style="stroke:#181818;stroke-width:1.0;"/><polygon fill="#181818" points="965.19,909.82,960.7735,901.0169,961.326,906.6467,955.6962,907.1992,965.19,909.82" style="stroke:#181818;stroke-width:1.0;"/></g><!--link Entity to Transport--><g id="link_Entity_Transport"><path codeLine="143" d="M817.84,850.11 C818.84,872.42 819.6716,891.086 820.6016,911.856 " fill="none" id="Entity-to-Transport" style="stroke:#181818;stroke-width:1.0;"/><polygon fill="#181818" points="820.87,917.85,824.4634,908.6801,820.6463,912.855,816.4714,909.0379,820.87,917.85" style="stroke:#181818;stroke-width:1.0;"/></g><!--link Transport to TransportTypes--><g id="link_Transport_TransportTypes"><path codeLine="144" d="M823,1015.08 C823,1047.31 823,1084.01 823,1117.83 " fill="none" id="Transport-to-TransportTypes" style="stroke:#181818;stroke-width:1.0;"/><polygon fill="#181818" points="823,1123.83,827,1114.83,823,1118.83,819,1114.83,823,1123.83" style="stroke:#181818;stroke-width:1.0;"/></g><!--link Time to TimesOfDay--><g id="link_Time_TimesOfDay"><path codeLine="145" d="M138.66,850.11 C128.75,869.61 120.6483,885.5411 111.0283,904.4711 " fill="none" id="Time-to-TimesOfDay" style="stroke:#181818;stroke-width:1.0;"/><polygon fill="#181818" points="108.31,909.82,115.9533,903.6088,110.5752,905.3626,108.8214,899.9844,108.31,909.82" style="stroke:#181818;stroke-width:1.0;"/></g><!--link Character to CharacterType--><g id="link_Character_CharacterType"><path codeLine="146" d="M583,1015.08 C583,1052.68 583,1098.54 583,1133.9 " fill="none" id="Character-to-CharacterType" style="stroke:#181818;stroke-width:1.0;"/><polygon fill="#181818" points="583,1139.9,587,1130.9,583,1134.9,579,1130.9,583,1139.9" style="stroke:#181818;stroke-width:1.0;"/></g><!--link WorldController to World--><g id="link_WorldController_World"><path codeLine="147" d="M877.39,436.24 C834.07,464.34 793.6935,490.5345 754.6335,515.8745 " fill="none" id="WorldController-to-World" style="stroke:#181818;stroke-width:1.0;"/><polygon fill="#181818" points="749.6,519.14,759.3273,517.5975,753.7946,516.4188,754.9733,510.8861,749.6,519.14" style="stroke:#181818;stroke-width:1.0;"/></g><!--link WorldController to WorldView--><g id="link_WorldController_WorldView"><path codeLine="148" d="M1160.95,440.19 C1190.22,468.64 1216.3378,494.0178 1242.1378,519.0978 " fill="none" id="WorldController-to-WorldView" style="stroke:#181818;stroke-width:1.0;"/><polygon fill="#181818" points="1246.44,523.28,1242.7748,514.1386,1242.8548,519.7948,1237.1985,519.8749,1246.44,523.28" style="stroke:#181818;stroke-width:1.0;"/></g><!--link App to WorldController--><g id="link_App_WorldController"><path codeLine="149" d="M1045,153.04 C1045,171.77 1045,186.41 1045,206.7 " fill="none" id="App-to-WorldController" style="stroke:#181818;stroke-width:1.0;"/><polygon fill="#181818" points="1045,212.7,1049,203.7,1045,207.7,1041,203.7,1045,212.7" style="stroke:#181818;stroke-width:1.0;"/></g><!--SRC=[ZLPVJzim47_Ffx1uIWLyXKciC8QqRcXqum7nO1BJMdFio75QkehllZixiSzfDes7ull_k_FvBfNYNSUksfOT2mP_b-pHM5KlZNRMA2Kis-SqrM8RtWX_ejoVKkoJ1Ad2YyzPmwKk5uEkrD99hkHlSGkwaMrxZVJoK2balXT5owjVV2FOsShKGfqDG2iFFC08d62_uYt4QGddHZlf3a_FJE11Yex8rh8HpC5F4Pddh9DDhxYB69A4rtNmLeP_J8jzE2s8qxwjmHfT3yRl1O7iGnud6BflhzVyu97u4n5BxLZLMmlernEWlDvnNT58GmB2gtfFvSIU0hK2D55d1YRMCKUfnDCpLD71eQCendIXLlS6exNuU-4ji43udwBR8BfSURPCIfm0M1zQqJ47lnH0jULwusLbKiB0S9W6HgK5e-7uI-SihzmGTxXO6da4sa7t64qXMQwxrbZ7t7Ywqp-w35nZTc9jXcG1rFtWPd6QmEYZJ7unYv6OfB8SxZHQpHHnkUMO6hnYyUQ4hcVJYqfO7CIIgBbSeGNuZal5NrI2d3K4WBiwrG1yCxSSCptEnIBtFUr4nfKoUr6lf-s8qObehYpXCewJH_OseGyJhrzCnV7cfayjyhsJYs2RHHMwRqZ_fi2Vb34sKWzSrv5uXFoIP0l5kBM0FR9MefPza_FMO9Dp7k5bfW3NGhGvPsLwxM0gpw2DG-b8jAsMUXFfgrVmfGrv4pSxaMbybPkjEtMUto-fXp4k4f-DxTAzVpGyYLPy8wibjwquTPwtS_9zh_W1Ep9XCphZlMVB1lVMpAxnourspeEpaB2VZ7xLaTROchstASEMyekKZj-eu0TuN4MpAZ2Eos6rpSflXjrMdcoxnKnoQPtFf4XsFqsK937b-gBiysqVQZ2xvAVxFoRu3t7CBzjV-RT24k3GZNrGfYaOXnjLnbawybTWs43b_iFcExnMqvnQJjHW7TWxtVQveBMc4bsNX1W5SeOZkQzGyilB3xYD2HNkc33yXm6sHo2WeVtw72d_p8fXz2FJ3q3AY2-oI1CvumSNlaV7W64y5AbIACXUNp7j9zG8tuj_bVWEmk_Ho4bQVm00]--></g></svg>