<?xml version="1.0" encoding="us-ascii" standalone="no"?><svg xmlns="http://www.w3.org/2000/svg" xmlns:xlink="http://www.w3.org/1999/xlink" contentStyleType="text/css" height="1317px" preserveAspectRatio="none" style="width:1610px;height:1317px;background:#FFFFFF;" version="1.1" viewBox="0 0 1610 1317" width="1610px" zoomAndPan="magnify"><defs/><g><!--cluster Model--><g id="cluster_Model"><path d="M8.5,463.75 L56.5,463.75 A3.75,3.75 0 0 1 59,466.25 L66,486.0469 L1222.5,486.0469 A2.5,2.5 0 0 1 1225,488.5469 L1225,1307.97 A2.5,2.5 0 0 1 1222.5,1310.47 L8.5,1310.47 A2.5,2.5 0 0 1 6,1307.97 L6,466.25 A2.5,2.5 0 0 1 8.5,463.75 " fill="none" style="stroke:#000000;stroke-width:1.5;"/><line style="stroke:#000000;stroke-width:1.5;" x1="6" x2="66" y1="486.0469" y2="486.0469"/><text fill="#000000" font-family="sans-serif" font-size="14" font-weight="bold" lengthAdjust="spacing" textLength="47" x="10" y="478.7451">Model</text></g><!--cluster View--><g id="cluster_View"><path d="M1251.5,463.75 L1291.5,463.75 A3.75,3.75 0 0 1 1294,466.25 L1301,486.0469 L1600.5,486.0469 A2.5,2.5 0 0 1 1603,488.5469 L1603,641.74 A2.5,2.5 0 0 1 1600.5,644.24 L1251.5,644.24 A2.5,2.5 0 0 1 1249,641.74 L1249,466.25 A2.5,2.5 0 0 1 1251.5,463.75 " fill="none" style="stroke:#000000;stroke-width:1.5;"/><line style="stroke:#000000;stroke-width:1.5;" x1="1249" x2="1301" y1="486.0469" y2="486.0469"/><text fill="#000000" font-family="sans-serif" font-size="14" font-weight="bold" lengthAdjust="spacing" textLength="39" x="1253" y="478.7451">View</text></g><!--cluster Controller--><g id="cluster_Controller"><path d="M917.5,177.78 L997.5,177.78 A3.75,3.75 0 0 1 1000,180.28 L1007,200.0769 L1340.5,200.0769 A2.5,2.5 0 0 1 1343,202.5769 L1343,437.25 A2.5,2.5 0 0 1 1340.5,439.75 L917.5,439.75 A2.5,2.5 0 0 1 915,437.25 L915,180.28 A2.5,2.5 0 0 1 917.5,177.78 " fill="none" style="stroke:#000000;stroke-width:1.5;"/><line style="stroke:#000000;stroke-width:1.5;" x1="915" x2="1007" y1="200.0769" y2="200.0769"/><text fill="#000000" font-family="sans-serif" font-size="14" font-weight="bold" lengthAdjust="spacing" textLength="79" x="919" y="192.7751">Controller</text></g><!--class World--><g id="elem_World"><rect codeLine="12" fill="#F1F1F1" height="129.4844" id="World" rx="2.5" ry="2.5" style="stroke:#181818;stroke-width:0.5;" width="209" x="592.5" y="498.75"/><ellipse cx="673.25" cy="514.75" fill="#ADD1B2" rx="11" ry="11" style="stroke:#181818;stroke-width:1.0;"/><path d="M676.2188,520.3906 Q675.6406,520.6875 675,520.8281 Q674.3594,520.9844 673.6563,520.9844 Q671.1563,520.9844 669.8281,519.3438 Q668.5156,517.6875 668.5156,514.5625 Q668.5156,511.4375 669.8281,509.7813 Q671.1563,508.125 673.6563,508.125 Q674.3594,508.125 675,508.2813 Q675.6563,508.4375 676.2188,508.7344 L676.2188,511.4531 Q675.5938,510.875 675,510.6094 Q674.4063,510.3281 673.7813,510.3281 Q672.4375,510.3281 671.75,511.4063 Q671.0625,512.4688 671.0625,514.5625 Q671.0625,516.6563 671.75,517.7344 Q672.4375,518.7969 673.7813,518.7969 Q674.4063,518.7969 675,518.5313 Q675.5938,518.25 676.2188,517.6719 L676.2188,520.3906 Z " fill="#000000"/><text fill="#000000" font-family="sans-serif" font-size="14" lengthAdjust="spacing" textLength="39" x="693.75" y="519.5967">World</text><line style="stroke:#181818;stroke-width:0.5;" x1="593.5" x2="800.5" y1="530.75" y2="530.75"/><rect fill="none" height="6" style="stroke:#C82930;stroke-width:1.0;" width="6" x="600.5" y="541.3984"/><text fill="#000000" font-family="sans-serif" font-size="14" lengthAdjust="spacing" textLength="63" x="612.5" y="547.7451">Map map</text><rect fill="none" height="6" style="stroke:#C82930;stroke-width:1.0;" width="6" x="600.5" y="557.6953"/><text fill="#000000" font-family="sans-serif" font-size="14" lengthAdjust="spacing" textLength="140" x="612.5" y="564.042">List&lt;Entity&gt; entities</text><rect fill="none" height="6" style="stroke:#C82930;stroke-width:1.0;" width="6" x="600.5" y="573.9922"/><text fill="#000000" font-family="sans-serif" font-size="14" lengthAdjust="spacing" textLength="68" x="612.5" y="580.3389">Time time</text><line style="stroke:#181818;stroke-width:0.5;" x1="593.5" x2="800.5" y1="587.6406" y2="587.6406"/><ellipse cx="603.5" cy="601.2891" fill="#84BE84" rx="3" ry="3" style="stroke:#038048;stroke-width:1.0;"/><text fill="#000000" font-family="sans-serif" font-size="14" lengthAdjust="spacing" textLength="105" x="612.5" y="604.6357">simulateCycle()</text><ellipse cx="603.5" cy="617.5859" fill="#84BE84" rx="3" ry="3" style="stroke:#038048;stroke-width:1.0;"/><text fill="#000000" font-family="sans-serif" font-size="14" lengthAdjust="spacing" textLength="183" x="612.5" y="620.9326">addEntity(Entity newEntity)</text></g><!--class Time--><g id="elem_Time"><rect codeLine="21" fill="#F1F1F1" height="162.0781" id="Time" rx="2.5" ry="2.5" style="stroke:#181818;stroke-width:0.5;" width="238" x="84" y="688.24"/><ellipse cx="181.75" cy="704.24" fill="#ADD1B2" rx="11" ry="11" style="stroke:#181818;stroke-width:1.0;"/><path d="M184.7188,709.8806 Q184.1406,710.1775 183.5,710.3181 Q182.8594,710.4744 182.1563,710.4744 Q179.6563,710.4744 178.3281,708.8338 Q177.0156,707.1775 177.0156,704.0525 Q177.0156,700.9275 178.3281,699.2713 Q179.6563,697.615 182.1563,697.615 Q182.8594,697.615 183.5,697.7713 Q184.1563,697.9275 184.7188,698.2244 L184.7188,700.9431 Q184.0938,700.365 183.5,700.0994 Q182.9063,699.8181 182.2813,699.8181 Q180.9375,699.8181 180.25,700.8963 Q179.5625,701.9588 179.5625,704.0525 Q179.5625,706.1463 180.25,707.2244 Q180.9375,708.2869 182.2813,708.2869 Q182.9063,708.2869 183.5,708.0213 Q184.0938,707.74 184.7188,707.1619 L184.7188,709.8806 Z " fill="#000000"/><text fill="#000000" font-family="sans-serif" font-size="14" lengthAdjust="spacing" textLength="34" x="202.25" y="709.0867">Time</text><line style="stroke:#181818;stroke-width:0.5;" x1="85" x2="321" y1="720.24" y2="720.24"/><rect fill="none" height="6" style="stroke:#C82930;stroke-width:1.0;" width="6" x="92" y="730.8884"/><text fill="#000000" font-family="sans-serif" font-size="14" lengthAdjust="spacing" textLength="158" x="104" y="737.2351">TimesOfDay timeOfDay</text><rect fill="none" height="6" style="stroke:#C82930;stroke-width:1.0;" width="6" x="92" y="747.1853"/><text fill="#000000" font-family="sans-serif" font-size="14" lengthAdjust="spacing" textLength="105" x="104" y="753.532">int currentTime</text><line style="stroke:#181818;stroke-width:0.5;" x1="85" x2="321" y1="760.8338" y2="760.8338"/><ellipse cx="95" cy="774.4822" fill="#84BE84" rx="3" ry="3" style="stroke:#038048;stroke-width:1.0;"/><text fill="#000000" font-family="sans-serif" font-size="14" lengthAdjust="spacing" textLength="102" x="104" y="777.8289">advanceTime()</text><ellipse cx="95" cy="790.7791" fill="#84BE84" rx="3" ry="3" style="stroke:#038048;stroke-width:1.0;"/><text fill="#000000" font-family="sans-serif" font-size="14" lengthAdjust="spacing" textLength="212" x="104" y="794.1257">setTimeOfDay(int currentTime)</text><ellipse cx="95" cy="807.0759" fill="#84BE84" rx="3" ry="3" style="stroke:#038048;stroke-width:1.0;"/><text fill="#000000" font-family="sans-serif" font-size="14" lengthAdjust="spacing" textLength="72" x="104" y="810.4226">resetDay()</text><ellipse cx="95" cy="823.3728" fill="#84BE84" rx="3" ry="3" style="stroke:#038048;stroke-width:1.0;"/><text fill="#000000" font-family="sans-serif" font-size="14" lengthAdjust="spacing" textLength="149" x="104" y="826.7195">getCurrentTime() : int</text><ellipse cx="95" cy="839.6697" fill="#84BE84" rx="3" ry="3" style="stroke:#038048;stroke-width:1.0;"/><text fill="#000000" font-family="sans-serif" font-size="14" lengthAdjust="spacing" textLength="204" x="104" y="843.0164">getTimeOfDay() : TimesOfDay</text></g><!--class Map--><g id="elem_Map"><rect codeLine="32" fill="#F1F1F1" height="129.4844" id="Map" rx="2.5" ry="2.5" style="stroke:#181818;stroke-width:0.5;" width="272" x="388" y="704.53"/><ellipse cx="505.25" cy="720.53" fill="#ADD1B2" rx="11" ry="11" style="stroke:#181818;stroke-width:1.0;"/><path d="M508.2188,726.1706 Q507.6406,726.4675 507,726.6081 Q506.3594,726.7644 505.6563,726.7644 Q503.1563,726.7644 501.8281,725.1238 Q500.5156,723.4675 500.5156,720.3425 Q500.5156,717.2175 501.8281,715.5613 Q503.1563,713.905 505.6563,713.905 Q506.3594,713.905 507,714.0613 Q507.6563,714.2175 508.2188,714.5144 L508.2188,717.2331 Q507.5938,716.655 507,716.3894 Q506.4063,716.1081 505.7813,716.1081 Q504.4375,716.1081 503.75,717.1863 Q503.0625,718.2488 503.0625,720.3425 Q503.0625,722.4363 503.75,723.5144 Q504.4375,724.5769 505.7813,724.5769 Q506.4063,724.5769 507,724.3113 Q507.5938,724.03 508.2188,723.4519 L508.2188,726.1706 Z " fill="#000000"/><text fill="#000000" font-family="sans-serif" font-size="14" lengthAdjust="spacing" textLength="29" x="525.75" y="725.3767">Map</text><line style="stroke:#181818;stroke-width:0.5;" x1="389" x2="659" y1="736.53" y2="736.53"/><rect fill="none" height="6" style="stroke:#C82930;stroke-width:1.0;" width="6" x="396" y="747.1784"/><text fill="#000000" font-family="sans-serif" font-size="14" lengthAdjust="spacing" textLength="76" x="408" y="753.5251">Tile[][] tiles</text><line style="stroke:#181818;stroke-width:0.5;" x1="389" x2="659" y1="760.8269" y2="760.8269"/><ellipse cx="399" cy="774.4753" fill="#84BE84" rx="3" ry="3" style="stroke:#038048;stroke-width:1.0;"/><text fill="#000000" font-family="sans-serif" font-size="14" lengthAdjust="spacing" textLength="246" x="408" y="777.822">updateTile(Point point, Tile newTile)</text><ellipse cx="399" cy="790.7722" fill="#84BE84" rx="3" ry="3" style="stroke:#038048;stroke-width:1.0;"/><text fill="#000000" font-family="sans-serif" font-size="14" lengthAdjust="spacing" textLength="168" x="408" y="794.1189">getTile(Point point) : Tile</text><ellipse cx="399" cy="807.0691" fill="#84BE84" rx="3" ry="3" style="stroke:#038048;stroke-width:1.0;"/><text fill="#000000" font-family="sans-serif" font-size="14" lengthAdjust="spacing" textLength="108" x="408" y="810.4157">getHeight() : int</text><ellipse cx="399" cy="823.3659" fill="#84BE84" rx="3" ry="3" style="stroke:#038048;stroke-width:1.0;"/><text fill="#000000" font-family="sans-serif" font-size="14" lengthAdjust="spacing" textLength="102" x="408" y="826.7126">getWidth() : int</text></g><!--class Tile--><g id="elem_Tile"><rect codeLine="41" fill="#F1F1F1" height="129.4844" id="Tile" rx="2.5" ry="2.5" style="stroke:#181818;stroke-width:0.5;" width="255" x="171.5" y="910.31"/><ellipse cx="282.75" cy="926.31" fill="#ADD1B2" rx="11" ry="11" style="stroke:#181818;stroke-width:1.0;"/><path d="M285.7188,931.9506 Q285.1406,932.2475 284.5,932.3881 Q283.8594,932.5444 283.1563,932.5444 Q280.6563,932.5444 279.3281,930.9038 Q278.0156,929.2475 278.0156,926.1225 Q278.0156,922.9975 279.3281,921.3413 Q280.6563,919.685 283.1563,919.685 Q283.8594,919.685 284.5,919.8413 Q285.1563,919.9975 285.7188,920.2944 L285.7188,923.0131 Q285.0938,922.435 284.5,922.1694 Q283.9063,921.8881 283.2813,921.8881 Q281.9375,921.8881 281.25,922.9663 Q280.5625,924.0288 280.5625,926.1225 Q280.5625,928.2163 281.25,929.2944 Q281.9375,930.3569 283.2813,930.3569 Q283.9063,930.3569 284.5,930.0913 Q285.0938,929.81 285.7188,929.2319 L285.7188,931.9506 Z " fill="#000000"/><text fill="#000000" font-family="sans-serif" font-size="14" lengthAdjust="spacing" textLength="24" x="303.25" y="931.1567">Tile</text><line style="stroke:#181818;stroke-width:0.5;" x1="172.5" x2="425.5" y1="942.31" y2="942.31"/><rect fill="none" height="6" style="stroke:#C82930;stroke-width:1.0;" width="6" x="179.5" y="952.9584"/><text fill="#000000" font-family="sans-serif" font-size="14" lengthAdjust="spacing" textLength="100" x="191.5" y="959.3051">TileTypes type</text><line style="stroke:#181818;stroke-width:0.5;" x1="172.5" x2="425.5" y1="966.6069" y2="966.6069"/><ellipse cx="182.5" cy="980.2553" fill="#84BE84" rx="3" ry="3" style="stroke:#038048;stroke-width:1.0;"/><text fill="#000000" font-family="sans-serif" font-size="14" lengthAdjust="spacing" textLength="229" x="191.5" y="983.602">changeType(TileTypes newType)</text><ellipse cx="182.5" cy="996.5522" fill="#84BE84" rx="3" ry="3" style="stroke:#038048;stroke-width:1.0;"/><text fill="#000000" font-family="sans-serif" font-size="14" lengthAdjust="spacing" textLength="146" x="191.5" y="999.8989">getType() : TileTypes</text><ellipse cx="182.5" cy="1012.8491" fill="#84BE84" rx="3" ry="3" style="stroke:#038048;stroke-width:1.0;"/><text fill="#000000" font-family="sans-serif" font-size="14" lengthAdjust="spacing" textLength="167" x="191.5" y="1016.1957">getAsciiSymbol() : String</text><ellipse cx="182.5" cy="1029.1459" fill="#84BE84" rx="3" ry="3" style="stroke:#038048;stroke-width:1.0;"/><text fill="#000000" font-family="sans-serif" font-size="14" lengthAdjust="spacing" textLength="153" x="191.5" y="1032.4926">getAsciiColor() : String</text></g><!--class Entity--><g id="elem_Entity"><rect codeLine="50" fill="#F1F1F1" height="129.4844" id="Entity" rx="2.5" ry="2.5" style="stroke:#181818;stroke-width:0.5;" width="322" x="710" y="704.53"/><ellipse cx="847.75" cy="720.53" fill="#A9DCDF" rx="11" ry="11" style="stroke:#181818;stroke-width:1.0;"/><path d="M847.8594,715.8738 L846.7031,720.9519 L849.0313,720.9519 L847.8594,715.8738 Z M846.375,713.6394 L849.3594,713.6394 L852.7188,726.03 L850.2656,726.03 L849.5,722.9675 L846.2188,722.9675 L845.4688,726.03 L843.0313,726.03 L846.375,713.6394 Z " fill="#000000"/><text fill="#000000" font-family="sans-serif" font-size="14" font-style="italic" lengthAdjust="spacing" textLength="38" x="868.25" y="725.3767">Entity</text><line style="stroke:#181818;stroke-width:0.5;" x1="711" x2="1031" y1="736.53" y2="736.53"/><rect fill="none" height="6" style="stroke:#C82930;stroke-width:1.0;" width="6" x="718" y="747.1784"/><text fill="#000000" font-family="sans-serif" font-size="14" lengthAdjust="spacing" textLength="94" x="730" y="753.5251">Point position</text><rect fill="none" height="6" style="stroke:#C82930;stroke-width:1.0;" width="6" x="718" y="763.4753"/><text fill="#000000" font-family="sans-serif" font-size="14" lengthAdjust="spacing" textLength="173" x="730" y="769.822">Transport transportInUse</text><line style="stroke:#181818;stroke-width:0.5;" x1="711" x2="1031" y1="777.1238" y2="777.1238"/><ellipse cx="721" cy="790.7722" fill="#84BE84" rx="3" ry="3" style="stroke:#038048;stroke-width:1.0;"/><text fill="#000000" font-family="sans-serif" font-size="14" lengthAdjust="spacing" textLength="189" x="730" y="794.1189">moveTo(Point newPosition)</text><ellipse cx="721" cy="807.0691" fill="#84BE84" rx="3" ry="3" style="stroke:#038048;stroke-width:1.0;"/><text fill="#000000" font-family="sans-serif" font-size="14" lengthAdjust="spacing" textLength="296" x="730" y="810.4157">changeTransport(Transport newTransport)</text><ellipse cx="721" cy="823.3659" fill="#84BE84" rx="3" ry="3" style="stroke:#038048;stroke-width:1.0;"/><text fill="#000000" font-family="sans-serif" font-size="14" lengthAdjust="spacing" textLength="219" x="730" y="826.7126">getTransportInUse() : Transport</text></g><!--class Character--><g id="elem_Character"><rect codeLine="59" fill="#F1F1F1" height="113.1875" id="Character" rx="2.5" ry="2.5" style="stroke:#181818;stroke-width:0.5;" width="283" x="461.5" y="918.46"/><ellipse cx="565.25" cy="934.46" fill="#ADD1B2" rx="11" ry="11" style="stroke:#181818;stroke-width:1.0;"/><path d="M568.2188,940.1006 Q567.6406,940.3975 567,940.5381 Q566.3594,940.6944 565.6563,940.6944 Q563.1563,940.6944 561.8281,939.0538 Q560.5156,937.3975 560.5156,934.2725 Q560.5156,931.1475 561.8281,929.4913 Q563.1563,927.835 565.6563,927.835 Q566.3594,927.835 567,927.9913 Q567.6563,928.1475 568.2188,928.4444 L568.2188,931.1631 Q567.5938,930.585 567,930.3194 Q566.4063,930.0381 565.7813,930.0381 Q564.4375,930.0381 563.75,931.1163 Q563.0625,932.1788 563.0625,934.2725 Q563.0625,936.3663 563.75,937.4444 Q564.4375,938.5069 565.7813,938.5069 Q566.4063,938.5069 567,938.2413 Q567.5938,937.96 568.2188,937.3819 L568.2188,940.1006 Z " fill="#000000"/><text fill="#000000" font-family="sans-serif" font-size="14" lengthAdjust="spacing" textLength="67" x="585.75" y="939.3067">Character</text><line style="stroke:#181818;stroke-width:0.5;" x1="462.5" x2="743.5" y1="950.46" y2="950.46"/><rect fill="none" height="6" style="stroke:#C82930;stroke-width:1.0;" width="6" x="469.5" y="961.1084"/><text fill="#000000" font-family="sans-serif" font-size="14" lengthAdjust="spacing" textLength="135" x="481.5" y="967.4551">CharacterType type</text><rect fill="none" height="6" style="stroke:#C82930;stroke-width:1.0;" width="6" x="469.5" y="977.4053"/><text fill="#000000" font-family="sans-serif" font-size="14" lengthAdjust="spacing" textLength="214" x="481.5" y="983.752">Transport[] availableTransports</text><line style="stroke:#181818;stroke-width:0.5;" x1="462.5" x2="743.5" y1="991.0538" y2="991.0538"/><ellipse cx="472.5" cy="1004.7022" fill="#84BE84" rx="3" ry="3" style="stroke:#038048;stroke-width:1.0;"/><text fill="#000000" font-family="sans-serif" font-size="14" lengthAdjust="spacing" textLength="257" x="481.5" y="1008.0489">getAvailableTransports() : Transport[]</text><ellipse cx="472.5" cy="1020.9991" fill="#84BE84" rx="3" ry="3" style="stroke:#038048;stroke-width:1.0;"/><text fill="#000000" font-family="sans-serif" font-size="14" lengthAdjust="spacing" textLength="248" x="481.5" y="1024.3457">getCharacterType() : CharacterType</text></g><!--class Transport--><g id="elem_Transport"><rect codeLine="67" fill="#F1F1F1" height="113.1875" id="Transport" rx="2.5" ry="2.5" style="stroke:#181818;stroke-width:0.5;" width="215" x="779.5" y="918.46"/><ellipse cx="849.25" cy="934.46" fill="#ADD1B2" rx="11" ry="11" style="stroke:#181818;stroke-width:1.0;"/><path d="M852.2188,940.1006 Q851.6406,940.3975 851,940.5381 Q850.3594,940.6944 849.6563,940.6944 Q847.1563,940.6944 845.8281,939.0538 Q844.5156,937.3975 844.5156,934.2725 Q844.5156,931.1475 845.8281,929.4913 Q847.1563,927.835 849.6563,927.835 Q850.3594,927.835 851,927.9913 Q851.6563,928.1475 852.2188,928.4444 L852.2188,931.1631 Q851.5938,930.585 851,930.3194 Q850.4063,930.0381 849.7813,930.0381 Q848.4375,930.0381 847.75,931.1163 Q847.0625,932.1788 847.0625,934.2725 Q847.0625,936.3663 847.75,937.4444 Q848.4375,938.5069 849.7813,938.5069 Q850.4063,938.5069 851,938.2413 Q851.5938,937.96 852.2188,937.3819 L852.2188,940.1006 Z " fill="#000000"/><text fill="#000000" font-family="sans-serif" font-size="14" lengthAdjust="spacing" textLength="67" x="869.75" y="939.3067">Transport</text><line style="stroke:#181818;stroke-width:0.5;" x1="780.5" x2="993.5" y1="950.46" y2="950.46"/><rect fill="none" height="6" style="stroke:#C82930;stroke-width:1.0;" width="6" x="787.5" y="961.1084"/><text fill="#000000" font-family="sans-serif" font-size="14" lengthAdjust="spacing" textLength="143" x="799.5" y="967.4551">TransportTypes type</text><line style="stroke:#181818;stroke-width:0.5;" x1="780.5" x2="993.5" y1="974.7569" y2="974.7569"/><ellipse cx="790.5" cy="988.4053" fill="#84BE84" rx="3" ry="3" style="stroke:#038048;stroke-width:1.0;"/><text fill="#000000" font-family="sans-serif" font-size="14" lengthAdjust="spacing" textLength="189" x="799.5" y="991.752">getType() : TransportTypes</text><ellipse cx="790.5" cy="1004.7022" fill="#84BE84" rx="3" ry="3" style="stroke:#038048;stroke-width:1.0;"/><text fill="#000000" font-family="sans-serif" font-size="14" lengthAdjust="spacing" textLength="108" x="799.5" y="1008.0489">getSpeed() : int</text><ellipse cx="790.5" cy="1020.9991" fill="#84BE84" rx="3" ry="3" style="stroke:#038048;stroke-width:1.0;"/><text fill="#000000" font-family="sans-serif" font-size="14" lengthAdjust="spacing" textLength="167" x="799.5" y="1024.3457">getAsciiSymbol() : String</text></g><!--class Point--><g id="elem_Point"><rect codeLine="75" fill="#F1F1F1" height="113.1875" id="Point" rx="2.5" ry="2.5" style="stroke:#181818;stroke-width:0.5;" width="180" x="1029" y="918.46"/><ellipse cx="1097.25" cy="934.46" fill="#ADD1B2" rx="11" ry="11" style="stroke:#181818;stroke-width:1.0;"/><path d="M1100.2188,940.1006 Q1099.6406,940.3975 1099,940.5381 Q1098.3594,940.6944 1097.6563,940.6944 Q1095.1563,940.6944 1093.8281,939.0538 Q1092.5156,937.3975 1092.5156,934.2725 Q1092.5156,931.1475 1093.8281,929.4913 Q1095.1563,927.835 1097.6563,927.835 Q1098.3594,927.835 1099,927.9913 Q1099.6563,928.1475 1100.2188,928.4444 L1100.2188,931.1631 Q1099.5938,930.585 1099,930.3194 Q1098.4063,930.0381 1097.7813,930.0381 Q1096.4375,930.0381 1095.75,931.1163 Q1095.0625,932.1788 1095.0625,934.2725 Q1095.0625,936.3663 1095.75,937.4444 Q1096.4375,938.5069 1097.7813,938.5069 Q1098.4063,938.5069 1099,938.2413 Q1099.5938,937.96 1100.2188,937.3819 L1100.2188,940.1006 Z " fill="#000000"/><text fill="#000000" font-family="sans-serif" font-size="14" lengthAdjust="spacing" textLength="35" x="1117.75" y="939.3067">Point</text><line style="stroke:#181818;stroke-width:0.5;" x1="1030" x2="1208" y1="950.46" y2="950.46"/><rect fill="none" height="6" style="stroke:#C82930;stroke-width:1.0;" width="6" x="1037" y="961.1084"/><text fill="#000000" font-family="sans-serif" font-size="14" lengthAdjust="spacing" textLength="28" x="1049" y="967.4551">int x</text><rect fill="none" height="6" style="stroke:#C82930;stroke-width:1.0;" width="6" x="1037" y="977.4053"/><text fill="#000000" font-family="sans-serif" font-size="14" lengthAdjust="spacing" textLength="28" x="1049" y="983.752">int y</text><line style="stroke:#181818;stroke-width:0.5;" x1="1030" x2="1208" y1="991.0538" y2="991.0538"/><ellipse cx="1040" cy="1004.7022" fill="#84BE84" rx="3" ry="3" style="stroke:#038048;stroke-width:1.0;"/><text fill="#000000" font-family="sans-serif" font-size="14" lengthAdjust="spacing" textLength="131" x="1049" y="1008.0489">getLocation() : int[]</text><ellipse cx="1040" cy="1020.9991" fill="#84BE84" rx="3" ry="3" style="stroke:#038048;stroke-width:1.0;"/><text fill="#000000" font-family="sans-serif" font-size="14" lengthAdjust="spacing" textLength="154" x="1049" y="1024.3457">setLocation(int x, int y)</text></g><!--class TileTypes--><g id="elem_TileTypes"><rect codeLine="83" fill="#F1F1F1" height="194.6719" id="TileTypes" rx="2.5" ry="2.5" style="stroke:#181818;stroke-width:0.5;" width="107" x="245.5" y="1099.8"/><ellipse cx="264.55" cy="1115.8" fill="#EB937F" rx="11" ry="11" style="stroke:#181818;stroke-width:1.0;"/><path d="M268.6594,1121.8 L260.9406,1121.8 L260.9406,1109.4094 L268.6594,1109.4094 L268.6594,1111.5656 L263.3938,1111.5656 L263.3938,1114.2375 L268.1594,1114.2375 L268.1594,1116.3938 L263.3938,1116.3938 L263.3938,1119.6438 L268.6594,1119.6438 L268.6594,1121.8 Z " fill="#000000"/><text fill="#000000" font-family="sans-serif" font-size="14" lengthAdjust="spacing" textLength="66" x="279.45" y="1120.6467">TileTypes</text><line style="stroke:#181818;stroke-width:0.5;" x1="246.5" x2="351.5" y1="1131.8" y2="1131.8"/><text fill="#000000" font-family="sans-serif" font-size="14" lengthAdjust="spacing" textLength="34" x="251.5" y="1148.7951">Floor</text><text fill="#000000" font-family="sans-serif" font-size="14" lengthAdjust="spacing" textLength="35" x="251.5" y="1165.092">Sand</text><text fill="#000000" font-family="sans-serif" font-size="14" lengthAdjust="spacing" textLength="27" x="251.5" y="1181.3889">Wall</text><text fill="#000000" font-family="sans-serif" font-size="14" lengthAdjust="spacing" textLength="77" x="251.5" y="1197.6857">ShortGrass</text><text fill="#000000" font-family="sans-serif" font-size="14" lengthAdjust="spacing" textLength="95" x="251.5" y="1213.9826">MediumGrass</text><text fill="#000000" font-family="sans-serif" font-size="14" lengthAdjust="spacing" textLength="63" x="251.5" y="1230.2795">TallGrass</text><text fill="#000000" font-family="sans-serif" font-size="14" lengthAdjust="spacing" textLength="40" x="251.5" y="1246.5764">Water</text><text fill="#000000" font-family="sans-serif" font-size="14" lengthAdjust="spacing" textLength="78" x="251.5" y="1262.8732">DeepWater</text><text fill="#000000" font-family="sans-serif" font-size="14" lengthAdjust="spacing" textLength="64" x="251.5" y="1279.1701">Mountain</text><line style="stroke:#181818;stroke-width:0.5;" x1="246.5" x2="351.5" y1="1286.4719" y2="1286.4719"/></g><!--class TimesOfDay--><g id="elem_TimesOfDay"><rect codeLine="95" fill="#F1F1F1" height="113.1875" id="TimesOfDay" rx="2.5" ry="2.5" style="stroke:#181818;stroke-width:0.5;" width="115" x="21.5" y="918.46"/><ellipse cx="36.5" cy="934.46" fill="#EB937F" rx="11" ry="11" style="stroke:#181818;stroke-width:1.0;"/><path d="M40.6094,940.46 L32.8906,940.46 L32.8906,928.0694 L40.6094,928.0694 L40.6094,930.2256 L35.3438,930.2256 L35.3438,932.8975 L40.1094,932.8975 L40.1094,935.0538 L35.3438,935.0538 L35.3438,938.3038 L40.6094,938.3038 L40.6094,940.46 Z " fill="#000000"/><text fill="#000000" font-family="sans-serif" font-size="14" lengthAdjust="spacing" textLength="83" x="50.5" y="939.3067">TimesOfDay</text><line style="stroke:#181818;stroke-width:0.5;" x1="22.5" x2="135.5" y1="950.46" y2="950.46"/><text fill="#000000" font-family="sans-serif" font-size="14" lengthAdjust="spacing" textLength="56" x="27.5" y="967.4551">Morning</text><text fill="#000000" font-family="sans-serif" font-size="14" lengthAdjust="spacing" textLength="68" x="27.5" y="983.752">Afternoon</text><text fill="#000000" font-family="sans-serif" font-size="14" lengthAdjust="spacing" textLength="55" x="27.5" y="1000.0489">Evening</text><text fill="#000000" font-family="sans-serif" font-size="14" lengthAdjust="spacing" textLength="36" x="27.5" y="1016.3457">Night</text><line style="stroke:#181818;stroke-width:0.5;" x1="22.5" x2="135.5" y1="1023.6475" y2="1023.6475"/></g><!--class TransportTypes--><g id="elem_TransportTypes"><rect codeLine="102" fill="#F1F1F1" height="113.1875" id="TransportTypes" rx="2.5" ry="2.5" style="stroke:#181818;stroke-width:0.5;" width="141" x="816.5" y="1140.54"/><ellipse cx="831.5" cy="1156.54" fill="#EB937F" rx="11" ry="11" style="stroke:#181818;stroke-width:1.0;"/><path d="M835.6094,1162.54 L827.8906,1162.54 L827.8906,1150.1494 L835.6094,1150.1494 L835.6094,1152.3056 L830.3438,1152.3056 L830.3438,1154.9775 L835.1094,1154.9775 L835.1094,1157.1338 L830.3438,1157.1338 L830.3438,1160.3838 L835.6094,1160.3838 L835.6094,1162.54 Z " fill="#000000"/><text fill="#000000" font-family="sans-serif" font-size="14" lengthAdjust="spacing" textLength="109" x="845.5" y="1161.3867">TransportTypes</text><line style="stroke:#181818;stroke-width:0.5;" x1="817.5" x2="956.5" y1="1172.54" y2="1172.54"/><text fill="#000000" font-family="sans-serif" font-size="14" lengthAdjust="spacing" textLength="31" x="822.5" y="1189.5351">Foot</text><text fill="#000000" font-family="sans-serif" font-size="14" lengthAdjust="spacing" textLength="41" x="822.5" y="1205.832">Horse</text><text fill="#000000" font-family="sans-serif" font-size="14" lengthAdjust="spacing" textLength="32" x="822.5" y="1222.1289">Boat</text><text fill="#000000" font-family="sans-serif" font-size="14" lengthAdjust="spacing" textLength="86" x="822.5" y="1238.4257">MagicCarpet</text><line style="stroke:#181818;stroke-width:0.5;" x1="817.5" x2="956.5" y1="1245.7275" y2="1245.7275"/></g><!--class CharacterType--><g id="elem_CharacterType"><rect codeLine="109" fill="#F1F1F1" height="80.5938" id="CharacterType" rx="2.5" ry="2.5" style="stroke:#181818;stroke-width:0.5;" width="133" x="536.5" y="1156.84"/><ellipse cx="551.5" cy="1172.84" fill="#EB937F" rx="11" ry="11" style="stroke:#181818;stroke-width:1.0;"/><path d="M555.6094,1178.84 L547.8906,1178.84 L547.8906,1166.4494 L555.6094,1166.4494 L555.6094,1168.6056 L550.3438,1168.6056 L550.3438,1171.2775 L555.1094,1171.2775 L555.1094,1173.4338 L550.3438,1173.4338 L550.3438,1176.6838 L555.6094,1176.6838 L555.6094,1178.84 Z " fill="#000000"/><text fill="#000000" font-family="sans-serif" font-size="14" lengthAdjust="spacing" textLength="101" x="565.5" y="1177.6867">CharacterType</text><line style="stroke:#181818;stroke-width:0.5;" x1="537.5" x2="668.5" y1="1188.84" y2="1188.84"/><text fill="#000000" font-family="sans-serif" font-size="14" lengthAdjust="spacing" textLength="56" x="542.5" y="1205.8351">Playable</text><text fill="#000000" font-family="sans-serif" font-size="14" lengthAdjust="spacing" textLength="84" x="542.5" y="1222.132">NonPlayable</text><line style="stroke:#181818;stroke-width:0.5;" x1="537.5" x2="668.5" y1="1229.4338" y2="1229.4338"/></g><!--class WorldView--><g id="elem_WorldView"><rect codeLine="116" fill="#F1F1F1" height="129.4844" id="WorldView" rx="2.5" ry="2.5" style="stroke:#181818;stroke-width:0.5;" width="323" x="1264.5" y="498.75"/><ellipse cx="1386.25" cy="514.75" fill="#ADD1B2" rx="11" ry="11" style="stroke:#181818;stroke-width:1.0;"/><path d="M1389.2188,520.3906 Q1388.6406,520.6875 1388,520.8281 Q1387.3594,520.9844 1386.6563,520.9844 Q1384.1563,520.9844 1382.8281,519.3438 Q1381.5156,517.6875 1381.5156,514.5625 Q1381.5156,511.4375 1382.8281,509.7813 Q1384.1563,508.125 1386.6563,508.125 Q1387.3594,508.125 1388,508.2813 Q1388.6563,508.4375 1389.2188,508.7344 L1389.2188,511.4531 Q1388.5938,510.875 1388,510.6094 Q1387.4063,510.3281 1386.7813,510.3281 Q1385.4375,510.3281 1384.75,511.4063 Q1384.0625,512.4688 1384.0625,514.5625 Q1384.0625,516.6563 1384.75,517.7344 Q1385.4375,518.7969 1386.7813,518.7969 Q1387.4063,518.7969 1388,518.5313 Q1388.5938,518.25 1389.2188,517.6719 L1389.2188,520.3906 Z " fill="#000000"/><text fill="#000000" font-family="sans-serif" font-size="14" lengthAdjust="spacing" textLength="71" x="1406.75" y="519.5967">WorldView</text><line style="stroke:#181818;stroke-width:0.5;" x1="1265.5" x2="1586.5" y1="530.75" y2="530.75"/><rect fill="none" height="6" style="stroke:#C82930;stroke-width:1.0;" width="6" x="1272.5" y="541.3984"/><text fill="#000000" font-family="sans-serif" font-size="14" lengthAdjust="spacing" textLength="151" x="1284.5" y="547.7451">String[][] displayMatrix</text><line style="stroke:#181818;stroke-width:0.5;" x1="1265.5" x2="1586.5" y1="555.0469" y2="555.0469"/><ellipse cx="1275.5" cy="568.6953" fill="#84BE84" rx="3" ry="3" style="stroke:#038048;stroke-width:1.0;"/><text fill="#000000" font-family="sans-serif" font-size="14" lengthAdjust="spacing" textLength="176" x="1284.5" y="572.042">displayWorld(World world)</text><rect fill="#F24D5C" height="6" style="stroke:#C82930;stroke-width:1.0;" width="6" x="1272.5" y="581.9922"/><text fill="#000000" font-family="sans-serif" font-size="14" lengthAdjust="spacing" textLength="96" x="1284.5" y="588.3389">cleanScreen()</text><rect fill="#F24D5C" height="6" style="stroke:#C82930;stroke-width:1.0;" width="6" x="1272.5" y="598.2891"/><text fill="#000000" font-family="sans-serif" font-size="14" lengthAdjust="spacing" textLength="159" x="1284.5" y="604.6357">displayTime(Time time)</text><rect fill="#F24D5C" height="6" style="stroke:#C82930;stroke-width:1.0;" width="6" x="1272.5" y="614.5859"/><text fill="#000000" font-family="sans-serif" font-size="14" lengthAdjust="spacing" textLength="297" x="1284.5" y="620.9326">displayMap(Map map, List&lt;Entity&gt; entities)</text></g><!--class WorldController--><g id="elem_WorldController"><rect codeLine="127" fill="#F1F1F1" height="210.9688" id="WorldController" rx="2.5" ry="2.5" style="stroke:#181818;stroke-width:0.5;" width="396" x="931" y="212.78"/><ellipse cx="1071.75" cy="228.78" fill="#ADD1B2" rx="11" ry="11" style="stroke:#181818;stroke-width:1.0;"/><path d="M1074.7188,234.4206 Q1074.1406,234.7175 1073.5,234.8581 Q1072.8594,235.0144 1072.1563,235.0144 Q1069.6563,235.0144 1068.3281,233.3737 Q1067.0156,231.7175 1067.0156,228.5925 Q1067.0156,225.4675 1068.3281,223.8112 Q1069.6563,222.155 1072.1563,222.155 Q1072.8594,222.155 1073.5,222.3112 Q1074.1563,222.4675 1074.7188,222.7644 L1074.7188,225.4831 Q1074.0938,224.905 1073.5,224.6394 Q1072.9063,224.3581 1072.2813,224.3581 Q1070.9375,224.3581 1070.25,225.4362 Q1069.5625,226.4987 1069.5625,228.5925 Q1069.5625,230.6862 1070.25,231.7644 Q1070.9375,232.8269 1072.2813,232.8269 Q1072.9063,232.8269 1073.5,232.5612 Q1074.0938,232.28 1074.7188,231.7019 L1074.7188,234.4206 Z " fill="#000000"/><text fill="#000000" font-family="sans-serif" font-size="14" lengthAdjust="spacing" textLength="106" x="1092.25" y="233.6267">WorldController</text><line style="stroke:#181818;stroke-width:0.5;" x1="932" x2="1326" y1="244.78" y2="244.78"/><rect fill="none" height="6" style="stroke:#C82930;stroke-width:1.0;" width="6" x="939" y="255.4284"/><text fill="#000000" font-family="sans-serif" font-size="14" lengthAdjust="spacing" textLength="80" x="951" y="261.7751">World world</text><rect fill="none" height="6" style="stroke:#C82930;stroke-width:1.0;" width="6" x="939" y="271.7253"/><text fill="#000000" font-family="sans-serif" font-size="14" lengthAdjust="spacing" textLength="144" x="951" y="278.072">WorldView worldView</text><line style="stroke:#181818;stroke-width:0.5;" x1="932" x2="1326" y1="285.3738" y2="285.3738"/><ellipse cx="942" cy="299.0222" fill="#84BE84" rx="3" ry="3" style="stroke:#038048;stroke-width:1.0;"/><text fill="#000000" font-family="sans-serif" font-size="14" lengthAdjust="spacing" textLength="105" x="951" y="302.3689">initializeGame()</text><ellipse cx="942" cy="315.3191" fill="#84BE84" rx="3" ry="3" style="stroke:#038048;stroke-width:1.0;"/><text fill="#000000" font-family="sans-serif" font-size="14" lengthAdjust="spacing" textLength="132" x="951" y="318.6657">initializeWorldMap()</text><ellipse cx="942" cy="331.6159" fill="#84BE84" rx="3" ry="3" style="stroke:#038048;stroke-width:1.0;"/><text fill="#000000" font-family="sans-serif" font-size="14" lengthAdjust="spacing" textLength="324" x="951" y="334.9626">readFileContent(String filePath) : List&lt;String[]&gt;</text><ellipse cx="942" cy="347.9128" fill="#84BE84" rx="3" ry="3" style="stroke:#038048;stroke-width:1.0;"/><text fill="#000000" font-family="sans-serif" font-size="14" lengthAdjust="spacing" textLength="370" x="951" y="351.2595">populateMap(List&lt;String[]&gt; mapData, Map worldMap)</text><ellipse cx="942" cy="364.2097" fill="#84BE84" rx="3" ry="3" style="stroke:#038048;stroke-width:1.0;"/><text fill="#000000" font-family="sans-serif" font-size="14" lengthAdjust="spacing" textLength="306" x="951" y="367.5564">createTileByNumber(String tileNumber) : Tile</text><ellipse cx="942" cy="380.5066" fill="#84BE84" rx="3" ry="3" style="stroke:#038048;stroke-width:1.0;"/><text fill="#000000" font-family="sans-serif" font-size="14" lengthAdjust="spacing" textLength="274" x="951" y="383.8532">getRandomCharacterMovement() : char</text><ellipse cx="942" cy="396.8034" fill="#84BE84" rx="3" ry="3" style="stroke:#038048;stroke-width:1.0;"/><text fill="#000000" font-family="sans-serif" font-size="14" lengthAdjust="spacing" textLength="143" x="951" y="400.1501">getUserInput() : char</text><ellipse cx="942" cy="413.1003" fill="#84BE84" rx="3" ry="3" style="stroke:#038048;stroke-width:1.0;"/><text fill="#000000" font-family="sans-serif" font-size="14" lengthAdjust="spacing" textLength="245" x="951" y="416.447">processUserInput(char input) : char</text></g><!--class App--><g id="elem_App"><rect codeLine="1" fill="#F1F1F1" height="145.7813" id="App" rx="2.5" ry="2.5" style="stroke:#181818;stroke-width:0.5;" width="240" x="1009" y="7"/><ellipse cx="1111.25" cy="23" fill="#ADD1B2" rx="11" ry="11" style="stroke:#181818;stroke-width:1.0;"/><path d="M1114.2188,28.6406 Q1113.6406,28.9375 1113,29.0781 Q1112.3594,29.2344 1111.6563,29.2344 Q1109.1563,29.2344 1107.8281,27.5938 Q1106.5156,25.9375 1106.5156,22.8125 Q1106.5156,19.6875 1107.8281,18.0313 Q1109.1563,16.375 1111.6563,16.375 Q1112.3594,16.375 1113,16.5313 Q1113.6563,16.6875 1114.2188,16.9844 L1114.2188,19.7031 Q1113.5938,19.125 1113,18.8594 Q1112.4063,18.5781 1111.7813,18.5781 Q1110.4375,18.5781 1109.75,19.6563 Q1109.0625,20.7188 1109.0625,22.8125 Q1109.0625,24.9063 1109.75,25.9844 Q1110.4375,27.0469 1111.7813,27.0469 Q1112.4063,27.0469 1113,26.7813 Q1113.5938,26.5 1114.2188,25.9219 L1114.2188,28.6406 Z " fill="#000000"/><text fill="#000000" font-family="sans-serif" font-size="14" lengthAdjust="spacing" textLength="27" x="1131.75" y="27.8467">App</text><line style="stroke:#181818;stroke-width:0.5;" x1="1010" x2="1248" y1="39" y2="39"/><rect fill="none" height="6" style="stroke:#C82930;stroke-width:1.0;" width="6" x="1017" y="49.6484"/><text fill="#000000" font-family="sans-serif" font-size="14" lengthAdjust="spacing" textLength="214" x="1029" y="55.9951">WorldController worldController</text><rect fill="none" height="6" style="stroke:#C82930;stroke-width:1.0;" width="6" x="1017" y="65.9453"/><text fill="#000000" font-family="sans-serif" font-size="14" lengthAdjust="spacing" textLength="121" x="1029" y="72.292">World gameWorld</text><rect fill="none" height="6" style="stroke:#C82930;stroke-width:1.0;" width="6" x="1017" y="82.2422"/><text fill="#000000" font-family="sans-serif" font-size="14" lengthAdjust="spacing" textLength="185" x="1029" y="88.5889">WorldView gameWorldView</text><line style="stroke:#181818;stroke-width:0.5;" x1="1010" x2="1248" y1="95.8906" y2="95.8906"/><ellipse cx="1020" cy="109.5391" fill="#84BE84" rx="3" ry="3" style="stroke:#038048;stroke-width:1.0;"/><text fill="#000000" font-family="sans-serif" font-size="14" lengthAdjust="spacing" textLength="43" x="1029" y="112.8857">main()</text><rect fill="#F24D5C" height="6" style="stroke:#C82930;stroke-width:1.0;" width="6" x="1017" y="122.8359"/><text fill="#000000" font-family="sans-serif" font-size="14" lengthAdjust="spacing" textLength="105" x="1029" y="129.1826">initializeGame()</text><rect fill="#F24D5C" height="6" style="stroke:#C82930;stroke-width:1.0;" width="6" x="1017" y="139.1328"/><text fill="#000000" font-family="sans-serif" font-size="14" lengthAdjust="spacing" textLength="111" x="1029" y="145.4795">runGameCycle()</text></g><!--reverse link Entity to Character--><g id="link_Entity_Character"><path d="M772.2429,845.3665 C736.9529,872.2065 710.65,892.2 676.6,918.09 " fill="none" id="Entity-backto-Character" style="stroke:#181818;stroke-width:1.0;"/><polygon fill="none" points="786.57,834.47,768.6107,840.5908,775.8751,850.1422,786.57,834.47" style="stroke:#181818;stroke-width:1.0;"/></g><!--link World to Map--><g id="link_World_Map"><path codeLine="142" d="M642.5,628.69 C622.1,652.72 602.8132,675.4361 582.4032,699.4761 " fill="none" id="World-to-Map" style="stroke:#181818;stroke-width:1.0;"/><polygon fill="#181818" points="578.52,704.05,587.3941,699.778,581.756,700.2384,581.2956,694.6003,578.52,704.05" style="stroke:#181818;stroke-width:1.0;"/></g><!--link World to Entity--><g id="link_World_Entity"><path codeLine="143" d="M751.82,628.69 C772.34,652.72 791.7446,675.4464 812.2646,699.4864 " fill="none" id="World-to-Entity" style="stroke:#181818;stroke-width:1.0;"/><polygon fill="#181818" points="816.16,704.05,813.3593,694.6077,812.9139,700.247,807.2746,699.8016,816.16,704.05" style="stroke:#181818;stroke-width:1.0;"/></g><!--link World to Time--><g id="link_World_Time"><path codeLine="144" d="M592.27,601.55 C527.66,625.04 443.38,656.83 370,688.24 C354.48,694.88 343.7535,699.6365 327.8335,707.0165 " fill="none" id="World-to-Time" style="stroke:#181818;stroke-width:1.0;"/><polygon fill="#181818" points="322.39,709.54,332.2376,709.3839,326.9263,707.4371,328.873,702.1258,322.39,709.54" style="stroke:#181818;stroke-width:1.0;"/></g><!--link Map to Tile--><g id="link_Map_Tile"><path codeLine="145" d="M453.12,834.47 C426.58,858.51 400.8977,881.7729 374.3577,905.8029 " fill="none" id="Map-to-Tile" style="stroke:#181818;stroke-width:1.0;"/><polygon fill="#181818" points="369.91,909.83,379.2664,906.7545,373.6165,906.4741,373.8969,900.8242,369.91,909.83" style="stroke:#181818;stroke-width:1.0;"/></g><!--link Tile to TileTypes--><g id="link_Tile_TileTypes"><path codeLine="146" d="M299,1040.01 C299,1058.66 299,1073.48 299,1093.67 " fill="none" id="Tile-to-TileTypes" style="stroke:#181818;stroke-width:1.0;"/><polygon fill="#181818" points="299,1099.67,303,1090.67,299,1094.67,295,1090.67,299,1099.67" style="stroke:#181818;stroke-width:1.0;"/></g><!--link Entity to Point--><g id="link_Entity_Point"><path codeLine="147" d="M949.13,834.47 C981.78,861.31 1014.7441,888.391 1046.2541,914.281 " fill="none" id="Entity-to-Point" style="stroke:#181818;stroke-width:1.0;"/><polygon fill="#181818" points="1050.89,918.09,1046.4756,909.2859,1047.0268,914.9158,1041.3968,915.467,1050.89,918.09" style="stroke:#181818;stroke-width:1.0;"/></g><!--link Entity to Transport--><g id="link_Entity_Transport"><path codeLine="148" d="M876.04,834.47 C878.15,861.31 880.0987,886.2185 882.1387,912.1085 " fill="none" id="Entity-to-Transport" style="stroke:#181818;stroke-width:1.0;"/><polygon fill="#181818" points="882.61,918.09,885.8907,908.8036,882.2172,913.1054,877.9154,909.432,882.61,918.09" style="stroke:#181818;stroke-width:1.0;"/></g><!--link Transport to TransportTypes--><g id="link_Transport_TransportTypes"><path codeLine="149" d="M887,1031.88 C887,1065.11 887,1101.15 887,1134.37 " fill="none" id="Transport-to-TransportTypes" style="stroke:#181818;stroke-width:1.0;"/><polygon fill="#181818" points="887,1140.37,891,1131.37,887,1135.37,883,1131.37,887,1140.37" style="stroke:#181818;stroke-width:1.0;"/></g><!--link Time to TimesOfDay--><g id="link_Time_TimesOfDay"><path codeLine="150" d="M154.17,850.52 C140.41,873.13 128.8684,892.104 116.1784,912.964 " fill="none" id="Time-to-TimesOfDay" style="stroke:#181818;stroke-width:1.0;"/><polygon fill="#181818" points="113.06,918.09,121.1549,912.4799,115.6586,913.8183,114.3202,908.3221,113.06,918.09" style="stroke:#181818;stroke-width:1.0;"/></g><!--link Character to CharacterType--><g id="link_Character_CharacterType"><path codeLine="151" d="M603,1031.88 C603,1070.72 603,1115.57 603,1150.34 " fill="none" id="Character-to-CharacterType" style="stroke:#181818;stroke-width:1.0;"/><polygon fill="#181818" points="603,1156.34,607,1147.34,603,1151.34,599,1147.34,603,1156.34" style="stroke:#181818;stroke-width:1.0;"/></g><!--link WorldController to World--><g id="link_WorldController_World"><path codeLine="152" d="M942.66,424.18 C894.47,451.31 849.5083,476.6263 807.1483,500.4763 " fill="none" id="WorldController-to-World" style="stroke:#181818;stroke-width:1.0;"/><polygon fill="#181818" points="801.92,503.42,811.7249,502.49,806.2769,500.9669,807.7999,495.519,801.92,503.42" style="stroke:#181818;stroke-width:1.0;"/></g><!--link WorldController to WorldView--><g id="link_WorldController_WorldView"><path codeLine="153" d="M1257.11,424.18 C1287.88,449.38 1315.1974,471.7592 1342.9374,494.4692 " fill="none" id="WorldController-to-WorldView" style="stroke:#181818;stroke-width:1.0;"/><polygon fill="#181818" points="1347.58,498.27,1343.1499,489.4737,1343.7111,495.1027,1338.0822,495.6639,1347.58,498.27" style="stroke:#181818;stroke-width:1.0;"/></g><!--link App to WorldController--><g id="link_App_WorldController"><path codeLine="154" d="M1129,153.1 C1129,171.83 1129,186.4 1129,206.44 " fill="none" id="App-to-WorldController" style="stroke:#181818;stroke-width:1.0;"/><polygon fill="#181818" points="1129,212.44,1133,203.44,1129,207.44,1125,203.44,1129,212.44" style="stroke:#181818;stroke-width:1.0;"/></g><!--SRC=[VLPHRziu37xFhp3sv63j7nY60bswhGMMNN79NH-AFgYscWYJ9K6Ic-Q2_lSZ9TiI7MrvS2Jo4_MHeaGsaZbNNHjJdHOL_2wh1srbkzBAMoqbjzM1pdDKjMCT3wDS-g_WXwJ1sIAeFrOT4wfU3bYXX1TCYl_uTy1EOjihdA-EZKJX-s9XMFEBxNZrOQrRBZyCH9j0FDA8ahX-pGpiOpB93-7yvw_A2t-ygZZ-2-uo_LPqlFBmMKp2ZvKJNI-PdtWa3MlRQAoEVvNYXpYAgFT5nY_OFiqsSt-ztB1Zs3ACChLGlcfwQu7cTiQ8jQzCDHp5X8_Z0HeirRFrESvoG28c5-wuNoLulQm-8GKAIDPHdHmuznPZJvsL_F7fyGbSbH3op6nlMWWkwkjxZQGDVY_22Wme_Y_dD2Wuaf6SecwvsErzsP47qVezKStEIl8p-jkZuQxoyCtfDtkcTa5N9n3IXi6SDe96hW58zTUk4M9px9wr3B2DjqBj2fYLbjhE8OC3xDbvone_U38aPkxB63W7sQzLxgHboXbjVUN7qPtwnn5tE_tAjte8FhXvFvXPdeTaj54dknYNSJ8F3jaoXcaKdH_GQi_GINYJ-9ldgYqwEe4mrl7W2iv2Jh9N9YHxbeapoL0C-pc2KdnycbsbVEy09P92oar1EfLObfEF91M1Kj36SDwMRy8VaexmYoT-cZrGRxFvSSRkXsuOfiUuDmcJo_J1s4MqGHvFhlekktw9m3UfjPrc6wRQQVB0f4oQFSJakmKV9j6QjwBlg6mBQwZa0PwbjC4DvuPArhfN7ifOWUtqi9yoj5NvRRv-0LjAPnVmwoidY9_uV9qRfncHnKFhTBItshgKxLyqIwersubcnQpXvyRfZKcsxoKxOlOdRbeHsJkfpbZe2yKvT0Dv1iLS2sMX5Sw0mJK3qLkUH8CY6AXZZGzjo3Ap0tMPgKrZELTrBX_MXdesbVO208fLFJGB5-KUOLdmCZL21L-phYdtE7DWBWtHET0-AOQWs1xDLS46Ea8BFMk_mTr1Dk1A7GDUlO3edlazNihWxdWGLzbQeqreUz0c1M6SRfXd5w7A7uQDIGM0ZMDD_tBysNVFt8vRO_cFadBH_XlkiUwcF5n3kUcGEQAXhbYAXafXxvJfYtfZTSETInZKGyHWID3XLEF1N5vUeK_PB2P29WYz6FeT9y0_D0lZB3w-Gp52ONWtSq6gQkd99_9e8kJhkE7GPQMgXmfQKEPPXuZOZ_zM4_8C-_r9ab3_0m00]--></g></svg>