<?xml version="1.0" encoding="UTF-8" standalone="no"?><svg xmlns="http://www.w3.org/2000/svg" xmlns:xlink="http://www.w3.org/1999/xlink" contentStyleType="text/css" height="443px" preserveAspectRatio="none" style="width:1328px;height:443px;background:#FFFFFF;" version="1.1" viewBox="0 0 1328 443" width="1328px" zoomAndPan="magnify"><defs/><g><!--MD5=[b8500b075c0e53c4783831a81cb6c97c]
cluster Transports--><g id="cluster_Transports"><path d="M855,321 L932,321 A3.75,3.75 0 0 1 934.5,323.5 L941.5,344.6094 L1319,344.6094 A2.5,2.5 0 0 1 1321.5,347.1094 L1321.5,433.5 A2.5,2.5 0 0 1 1319,436 L855,436 A2.5,2.5 0 0 1 852.5,433.5 L852.5,323.5 A2.5,2.5 0 0 1 855,321 " fill="none" style="stroke:#000000;stroke-width:1.5;"/><line style="stroke:#000000;stroke-width:1.5;" x1="852.5" x2="941.5" y1="344.6094" y2="344.6094"/><text fill="#000000" font-family="sans-serif" font-size="14" font-weight="bold" lengthAdjust="spacing" textLength="76" x="856.5" y="337.5332">Transports</text></g><g id="elem_foot"><rect fill="#F1F1F1" height="47.2188" style="stroke:#181818;stroke-width:0.5;" width="149" x="1148" y="365"/><text fill="#000000" font-family="sans-serif" font-size="14" lengthAdjust="spacing" textLength="99" x="1173" y="381.5332">Foot: Transport</text><line style="stroke:#181818;stroke-width:0.5;" x1="1149" x2="1296" y1="386.6094" y2="386.6094"/><text fill="#000000" font-family="sans-serif" font-size="14" lengthAdjust="spacing" textLength="137" x="1154" y="405.1426">transportType: FOOT</text></g><g id="elem_carpet"><rect fill="#F1F1F1" height="47.2188" style="stroke:#181818;stroke-width:0.5;" width="217" x="896" y="365"/><text fill="#000000" font-family="sans-serif" font-size="14" lengthAdjust="spacing" textLength="150" x="929.5" y="381.5332">MagicCarpet: Transport</text><line style="stroke:#181818;stroke-width:0.5;" x1="897" x2="1112" y1="386.6094" y2="386.6094"/><text fill="#000000" font-family="sans-serif" font-size="14" lengthAdjust="spacing" textLength="205" x="902" y="405.1426">transportType: MAGIC_CARPET</text></g><g id="elem_world"><rect fill="#F1F1F1" height="82.4375" style="stroke:#181818;stroke-width:0.5;" width="206" x="452.5" y="7"/><text fill="#000000" font-family="sans-serif" font-size="14" lengthAdjust="spacing" textLength="82" x="514.5" y="23.5332">World: World</text><line style="stroke:#181818;stroke-width:0.5;" x1="453.5" x2="657.5" y1="28.6094" y2="28.6094"/><text fill="#000000" font-family="sans-serif" font-size="14" lengthAdjust="spacing" textLength="70" x="458.5" y="47.1426">Map = Map</text><text fill="#000000" font-family="sans-serif" font-size="14" lengthAdjust="spacing" textLength="194" x="458.5" y="64.752">Entities = [Cat, Dog, Másias,...]</text><text fill="#000000" font-family="sans-serif" font-size="14" lengthAdjust="spacing" textLength="78" x="458.5" y="82.3613">Time = Time</text></g><g id="elem_time"><rect fill="#F1F1F1" height="64.8281" style="stroke:#181818;stroke-width:0.5;" width="161" x="7" y="175.5"/><text fill="#000000" font-family="sans-serif" font-size="14" lengthAdjust="spacing" textLength="70" x="52.5" y="192.0332">Time: Time</text><line style="stroke:#181818;stroke-width:0.5;" x1="8" x2="167" y1="197.1094" y2="197.1094"/><text fill="#000000" font-family="sans-serif" font-size="14" lengthAdjust="spacing" textLength="149" x="13" y="215.6426">timesOfDay= MORNING</text><text fill="#000000" font-family="sans-serif" font-size="14" lengthAdjust="spacing" textLength="130" x="13" y="233.252">currentTime="10:30"</text></g><g id="elem_mapa"><rect fill="#F1F1F1" height="47.2188" style="stroke:#181818;stroke-width:0.5;" width="182" x="203.5" y="184.5"/><text fill="#000000" font-family="sans-serif" font-size="14" lengthAdjust="spacing" textLength="62" x="263.5" y="201.0332">Map: Map</text><line style="stroke:#181818;stroke-width:0.5;" x1="204.5" x2="384.5" y1="206.1094" y2="206.1094"/><text fill="#000000" font-family="sans-serif" font-size="14" lengthAdjust="spacing" textLength="170" x="209.5" y="224.6426">tiles= [Floor, Sand, Wall,...]</text></g><g id="elem_sand"><rect fill="#F1F1F1" height="47.2188" style="stroke:#181818;stroke-width:0.5;" width="107" x="93" y="365"/><text fill="#000000" font-family="sans-serif" font-size="14" lengthAdjust="spacing" textLength="64" x="114.5" y="381.5332">Sand: Tile</text><line style="stroke:#181818;stroke-width:0.5;" x1="94" x2="199" y1="386.6094" y2="386.6094"/><text fill="#000000" font-family="sans-serif" font-size="14" lengthAdjust="spacing" textLength="95" x="99" y="405.1426">tileType: SAND</text></g><g id="elem_floor"><rect fill="#F1F1F1" height="47.2188" style="stroke:#181818;stroke-width:0.5;" width="119" x="235" y="365"/><text fill="#000000" font-family="sans-serif" font-size="14" lengthAdjust="spacing" textLength="64" x="262.5" y="381.5332">Floor: Tile</text><line style="stroke:#181818;stroke-width:0.5;" x1="236" x2="353" y1="386.6094" y2="386.6094"/><text fill="#000000" font-family="sans-serif" font-size="14" lengthAdjust="spacing" textLength="107" x="241" y="405.1426">tileType: FLOOR</text></g><g id="elem_wall"><rect fill="#F1F1F1" height="47.2188" style="stroke:#181818;stroke-width:0.5;" width="108" x="389.5" y="365"/><text fill="#000000" font-family="sans-serif" font-size="14" lengthAdjust="spacing" textLength="58" x="414.5" y="381.5332">Wall: Tile</text><line style="stroke:#181818;stroke-width:0.5;" x1="390.5" x2="496.5" y1="386.6094" y2="386.6094"/><text fill="#000000" font-family="sans-serif" font-size="14" lengthAdjust="spacing" textLength="96" x="395.5" y="405.1426">tileType: WALL</text></g><g id="elem_cat"><rect fill="#F1F1F1" height="82.4375" style="stroke:#181818;stroke-width:0.5;" width="270" x="420.5" y="167"/><text fill="#000000" font-family="sans-serif" font-size="14" lengthAdjust="spacing" textLength="172" x="469.5" y="183.5332">Cat: NonPlayableCharacter</text><line style="stroke:#181818;stroke-width:0.5;" x1="421.5" x2="689.5" y1="188.6094" y2="188.6094"/><text fill="#000000" font-family="sans-serif" font-size="14" lengthAdjust="spacing" textLength="111" x="426.5" y="207.1426">position: (100,20)</text><text fill="#000000" font-family="sans-serif" font-size="14" lengthAdjust="spacing" textLength="129" x="426.5" y="224.752">transportInUse: Foot</text><text fill="#000000" font-family="sans-serif" font-size="14" lengthAdjust="spacing" textLength="258" x="426.5" y="242.3613">availableTransports: [Foot, MagicCarpet]</text></g><g id="elem_dog"><rect fill="#F1F1F1" height="82.4375" style="stroke:#181818;stroke-width:0.5;" width="270" x="725.5" y="167"/><text fill="#000000" font-family="sans-serif" font-size="14" lengthAdjust="spacing" textLength="176" x="772.5" y="183.5332">Dog: NonPlayableCharacter</text><line style="stroke:#181818;stroke-width:0.5;" x1="726.5" x2="994.5" y1="188.6094" y2="188.6094"/><text fill="#000000" font-family="sans-serif" font-size="14" lengthAdjust="spacing" textLength="111" x="731.5" y="207.1426">position: (160,80)</text><text fill="#000000" font-family="sans-serif" font-size="14" lengthAdjust="spacing" textLength="129" x="731.5" y="224.752">transportInUse: Foot</text><text fill="#000000" font-family="sans-serif" font-size="14" lengthAdjust="spacing" textLength="258" x="731.5" y="242.3613">availableTransports: [Foot, MagicCarpet]</text></g><g id="elem_mmasias"><rect fill="#F1F1F1" height="82.4375" style="stroke:#181818;stroke-width:0.5;" width="270" x="1030.5" y="167"/><text fill="#000000" font-family="sans-serif" font-size="14" lengthAdjust="spacing" textLength="169" x="1081" y="183.5332">Masías: PlayableCharacter</text><line style="stroke:#181818;stroke-width:0.5;" x1="1031.5" x2="1299.5" y1="188.6094" y2="188.6094"/><text fill="#000000" font-family="sans-serif" font-size="14" lengthAdjust="spacing" textLength="111" x="1036.5" y="207.1426">position: (170,30)</text><text fill="#000000" font-family="sans-serif" font-size="14" lengthAdjust="spacing" textLength="129" x="1036.5" y="224.752">transportInUse: Foot</text><text fill="#000000" font-family="sans-serif" font-size="14" lengthAdjust="spacing" textLength="258" x="1036.5" y="242.3613">availableTransports: [Foot, MagicCarpet]</text></g><!--MD5=[404e2138b4b7884d04277387ef5b3338]
link world to time--><g id="link_world_time"><path codeLine="54" d="M452.29,79.53 C377.67,102.18 274.71,134.63 185.5,167 C179.83,169.06 174.01,171.24 168.16,173.49 " fill="none" id="world-to-time" style="stroke:#181818;stroke-width:1.0;"/><polygon fill="#181818" points="163.24,175.4,173.0781,175.8602,167.8989,173.585,170.1741,168.4059,163.24,175.4" style="stroke:#181818;stroke-width:1.0;"/><polygon fill="#000000" points="317.7528,129.7456,327.2633,129.6961,325.4178,124.1154,317.7528,129.7456" style="stroke:#000000;stroke-width:1.0;"/><text fill="#000000" font-family="sans-serif" font-size="13" lengthAdjust="spacing" textLength="21" x="331.5" y="133.4951">has</text></g><!--MD5=[a39f4aed794a74c91fb5c49d46629476]
link world to mapa--><g id="link_world_mapa"><path codeLine="55" d="M489.3,89.07 C441.22,118.18 377.6,156.69 336.37,181.65 " fill="none" id="world-to-mapa" style="stroke:#181818;stroke-width:1.0;"/><polygon fill="#181818" points="331.95,184.33,341.7194,183.0817,336.2248,181.7366,337.57,176.242,331.95,184.33" style="stroke:#181818;stroke-width:1.0;"/><polygon fill="#000000" points="434.2227,130.7651,443.4824,128.5951,440.4384,123.5668,434.2227,130.7651" style="stroke:#000000;stroke-width:1.0;"/><text fill="#000000" font-family="sans-serif" font-size="13" lengthAdjust="spacing" textLength="21" x="447.5" y="133.4951">has</text></g><!--MD5=[1d1674d4e285ae347ae8e06ccb48363c]
link mapa to sand--><g id="link_mapa_sand"><path codeLine="56" d="M269.01,231.57 C254.68,244.78 236.85,262.14 222.5,279 C200.14,305.27 177.89,338 163.3,360.61 " fill="none" id="mapa-to-sand" style="stroke:#181818;stroke-width:1.0;"/><polygon fill="#181818" points="160.48,364.99,168.7032,359.5697,163.1773,360.7799,161.9671,355.2541,160.48,364.99" style="stroke:#181818;stroke-width:1.0;"/><polygon fill="#000000" points="224.3314,292.0436,232.3369,286.9091,227.79,283.1842,224.3314,292.0436" style="stroke:#000000;stroke-width:1.0;"/><text fill="#000000" font-family="sans-serif" font-size="13" lengthAdjust="spacing" textLength="49" x="236.5" y="293.4951">contains</text></g><!--MD5=[807f6bbd981c0b358f39e48a36da7a43]
link mapa to floor--><g id="link_mapa_floor"><path codeLine="57" d="M294.5,231.61 C294.5,264.24 294.5,324.5 294.5,359.78 " fill="none" id="mapa-to-floor" style="stroke:#181818;stroke-width:1.0;"/><polygon fill="#181818" points="294.5,364.8,298.5,355.8,294.5,359.8,290.5,355.8,294.5,364.8" style="stroke:#181818;stroke-width:1.0;"/><polygon fill="#000000" points="299.5,293.1758,302.4389,284.1307,296.5611,284.1307,299.5,293.1758" style="stroke:#000000;stroke-width:1.0;"/><text fill="#000000" font-family="sans-serif" font-size="13" lengthAdjust="spacing" textLength="49" x="308.5" y="293.4951">contains</text></g><!--MD5=[2e8004691aca9d982d9f5ca28c7fc1b0]
link mapa to wall--><g id="link_mapa_wall"><path codeLine="58" d="M319.95,231.6 C334.26,244.83 352.1,262.19 366.5,279 C388.9,305.15 411.32,337.63 426.14,360.21 " fill="none" id="mapa-to-wall" style="stroke:#181818;stroke-width:1.0;"/><polygon fill="#181818" points="429,364.59,427.4128,354.8699,426.2595,360.4079,420.7215,359.2546,429,364.59" style="stroke:#181818;stroke-width:1.0;"/><polygon fill="#000000" points="388.6835,292.0314,385.1908,283.1854,380.6583,286.9277,388.6835,292.0314" style="stroke:#000000;stroke-width:1.0;"/><text fill="#000000" font-family="sans-serif" font-size="13" lengthAdjust="spacing" textLength="49" x="394.5" y="293.4951">contains</text></g><!--MD5=[fd3e36afb0ea47dd9a018f9d8e2ad034]
link world to cat--><g id="link_world_cat"><path codeLine="59" d="M555.5,89.28 C555.5,111.38 555.5,138.85 555.5,161.7 " fill="none" id="world-to-cat" style="stroke:#181818;stroke-width:1.0;"/><polygon fill="#181818" points="555.5,166.79,559.5,157.79,555.5,161.79,551.5,157.79,555.5,166.79" style="stroke:#181818;stroke-width:1.0;"/><polygon fill="#000000" points="560.5,133.1758,563.4389,124.1307,557.5611,124.1307,560.5,133.1758" style="stroke:#000000;stroke-width:1.0;"/><text fill="#000000" font-family="sans-serif" font-size="13" lengthAdjust="spacing" textLength="49" x="569.5" y="133.4951">contains</text></g><!--MD5=[c1d8804e9edd9c1e73eaa915f8e483ef]
link world to dog--><g id="link_world_dog"><path codeLine="60" d="M632.86,89.07 C677.39,112.14 733.32,141.12 778.6,164.57 " fill="none" id="world-to-dog" style="stroke:#181818;stroke-width:1.0;"/><polygon fill="#181818" points="783.22,166.97,777.0664,159.2802,778.7797,164.6713,773.3886,166.3846,783.22,166.97" style="stroke:#181818;stroke-width:1.0;"/><polygon fill="#000000" points="726.9396,130.4757,720.2601,123.7055,717.5564,128.9246,726.9396,130.4757" style="stroke:#000000;stroke-width:1.0;"/><text fill="#000000" font-family="sans-serif" font-size="13" lengthAdjust="spacing" textLength="49" x="731.5" y="133.4951">contains</text></g><!--MD5=[a9d5868d961b5957582a0ecd7d7db012]
link world to mmasias--><g id="link_world_mmasias"><path codeLine="61" d="M658.77,75.44 C751.62,99.26 891.73,135.29 1013.5,167 C1017.4,168.02 1021.35,169.05 1025.35,170.09 " fill="none" id="world-to-mmasias" style="stroke:#181818;stroke-width:1.0;"/><polygon fill="#181818" points="1030.42,171.41,1022.7182,165.2714,1025.5813,170.1502,1020.7025,173.0134,1030.42,171.41" style="stroke:#181818;stroke-width:1.0;"/><polygon fill="#000000" points="897.3412,129.4258,889.3181,124.3189,887.8486,130.0101,897.3412,129.4258" style="stroke:#000000;stroke-width:1.0;"/><text fill="#000000" font-family="sans-serif" font-size="13" lengthAdjust="spacing" textLength="49" x="901.5" y="133.4951">contains</text></g><!--MD5=[e7865838ab4960a3b0b2984be55f8260]
link cat to Transports--><g id="link_cat_Transports"><path codeLine="63" d="M623.95,249.06 C668.21,274.96 726.205,308.9025 773.6925,336.6963 C797.4363,350.5931 818.5531,362.9528 834.0128,372.0014 C837.8777,374.2636 841.3891,376.3188 844.4995,378.1393 C846.0547,379.0496 847.5097,379.9012 848.8585,380.6907 C849.5329,381.0854 850.1808,381.4646 850.8014,381.8278 C851.1117,382.0095 851.4152,382.1871 851.7118,382.3607 C851.8601,382.4475 852.0066,382.5333 852.1514,382.618 " fill="none" id="cat-to-Transports" style="stroke:#181818;stroke-width:1.0;"/><polygon fill="#181818" points="852.1514,382.618,846.4047,374.6196,847.8363,380.0923,842.3635,381.5239,852.1514,382.618" style="stroke:#181818;stroke-width:1.0;"/><polygon fill="#000000" points="708.8153,290.7013,702.4934,283.5961,699.5244,288.669,708.8153,290.7013" style="stroke:#000000;stroke-width:1.0;"/><text fill="#000000" font-family="sans-serif" font-size="13" lengthAdjust="spacing" textLength="28" x="713.5" y="293.4951">uses</text></g><!--MD5=[7721cdec1273651803ca981943b7c18b]
link dog to Transports--><g id="link_dog_Transports"><path codeLine="64" d="M860.5,249.06 C860.5,262.01 860.5,276.9706 860.5,292.168 C860.5,299.7666 860.5,307.4245 860.5,314.9198 C860.5,316.7936 860.5,318.6573 860.5,320.5073 " fill="none" id="dog-to-Transports" style="stroke:#181818;stroke-width:1.0;"/><polygon fill="#181818" points="860.5,320.5073,864.5,311.5073,860.5,315.5073,856.5,311.5073,860.5,320.5073" style="stroke:#181818;stroke-width:1.0;"/><polygon fill="#000000" points="865.5,293.1758,868.4389,284.1307,862.5611,284.1307,865.5,293.1758" style="stroke:#000000;stroke-width:1.0;"/><text fill="#000000" font-family="sans-serif" font-size="13" lengthAdjust="spacing" textLength="28" x="874.5" y="293.4951">uses</text></g><!--MD5=[a62703e6dca4223bf6cf324908874f15]
link mmasias to Transports--><g id="link_mmasias_Transports"><path codeLine="65" d="M1056.79,249.03 C1012.07,264.88 959.58,282.69 911.5,297 C897.45,301.18 889.77,294.54 879.5,305 C876.3088,308.2513 873.6117,311.9248 871.336,315.8708 C870.7671,316.8573 870.2245,317.8608 869.7071,318.879 C869.4484,319.3881 869.196,319.9009 868.9498,320.417 C868.8882,320.5461 868.827,320.6753 868.7662,320.8048 " fill="none" id="mmasias-to-Transports" style="stroke:#181818;stroke-width:1.0;"/><polygon fill="#181818" points="868.7662,320.8048,876.2125,314.3587,870.8916,316.279,868.9713,310.9581,868.7662,320.8048" style="stroke:#181818;stroke-width:1.0;"/><polygon fill="#000000" points="967.8288,289.9589,977.3272,289.4789,975.231,283.9875,967.8288,289.9589" style="stroke:#000000;stroke-width:1.0;"/><text fill="#000000" font-family="sans-serif" font-size="13" lengthAdjust="spacing" textLength="28" x="981.5" y="293.4951">uses</text></g><!--MD5=[7a2953d79cc4ae5af80396a313bfc041]
@startuml ObjectDiagramRelations

object "World: World" as world {
    Map = Map
    Entities = [Cat, Dog, Másias,...]
    Time = Time
}

object "Time: Time" as time {
    timesOfDay= MORNING
    currentTime="10:30"
}

object "Map: Map" as mapa{
    tiles= [Floor, Sand, Wall,...]
}
object "Sand: Tile" as sand{
    tileType: SAND
}
object "Floor: Tile" as floor {
    tileType: FLOOR
}
object "Wall: Tile" as wall {
    tileType: WALL
}
object "Cat: NonPlayableCharacter" as cat {
    position: (100,20)
    transportInUse: Foot
    availableTransports: [Foot, MagicCarpet]
}
object "Dog: NonPlayableCharacter" as dog {
    position: (160,80)
    transportInUse: Foot
    availableTransports: [Foot, MagicCarpet]
}
object "Masías: PlayableCharacter" as mmasias {
    position: (170,30)
    transportInUse: Foot
    availableTransports: [Foot, MagicCarpet]
}

package Transports {
   object "Foot: Transport" as foot{
      transportType: FOOT
   }

  object "MagicCarpet: Transport" as carpet {
      transportType: MAGIC_CARPET
   }
}



' Relationships
world - -> time : "has >"
world - -> mapa : "has >"
mapa - -> sand : "contains >"
mapa - -> floor : "contains >"
mapa - -> wall : "contains >"
world - -> cat : "contains >"
world - -> dog : "contains >"
world - -> mmasias : "contains >"

cat - -> Transports : "uses >"
dog - -> Transports : "uses >"
mmasias - -> Transports : "uses >"

@enduml

@startuml ObjectDiagramRelations

object "World: World" as world {
    Map = Map
    Entities = [Cat, Dog, Másias,...]
    Time = Time
}

object "Time: Time" as time {
    timesOfDay= MORNING
    currentTime="10:30"
}

object "Map: Map" as mapa{
    tiles= [Floor, Sand, Wall,...]
}
object "Sand: Tile" as sand{
    tileType: SAND
}
object "Floor: Tile" as floor {
    tileType: FLOOR
}
object "Wall: Tile" as wall {
    tileType: WALL
}
object "Cat: NonPlayableCharacter" as cat {
    position: (100,20)
    transportInUse: Foot
    availableTransports: [Foot, MagicCarpet]
}
object "Dog: NonPlayableCharacter" as dog {
    position: (160,80)
    transportInUse: Foot
    availableTransports: [Foot, MagicCarpet]
}
object "Masías: PlayableCharacter" as mmasias {
    position: (170,30)
    transportInUse: Foot
    availableTransports: [Foot, MagicCarpet]
}

package Transports {
   object "Foot: Transport" as foot{
      transportType: FOOT
   }

  object "MagicCarpet: Transport" as carpet {
      transportType: MAGIC_CARPET
   }
}



world - -> time : "has >"
world - -> mapa : "has >"
mapa - -> sand : "contains >"
mapa - -> floor : "contains >"
mapa - -> wall : "contains >"
world - -> cat : "contains >"
world - -> dog : "contains >"
world - -> mmasias : "contains >"

cat - -> Transports : "uses >"
dog - -> Transports : "uses >"
mmasias - -> Transports : "uses >"

@enduml

PlantUML version 1.2022.7(Mon Aug 22 19:01:30 CEST 2022)
(GPL source distribution)
Java Runtime: Java(TM) SE Runtime Environment
JVM: Java HotSpot(TM) 64-Bit Server VM
Default Encoding: UTF-8
Language: es
Country: SV
--></g></svg>