<svg xmlns="http://www.w3.org/2000/svg" xmlns:xlink="http://www.w3.org/1999/xlink" contentStyleType="text/css" height="647px" preserveAspectRatio="none" style="width:335px;height:647px;background:#FFFFFF;" version="1.1" viewBox="0 0 335 647" width="335px" zoomAndPan="magnify"><defs><filter height="300%" id="f1hwj0jot3uli" width="300%" x="-1" y="-1"><feGaussianBlur result="blurOut" stdDeviation="2.0"/><feColorMatrix in="blurOut" result="blurOut2" type="matrix" values="0 0 0 0 0 0 0 0 0 0 0 0 0 0 0 0 0 0 .4 0"/><feOffset dx="4.0" dy="4.0" in="blurOut2" result="blurOut3"/><feBlend in="SourceGraphic" in2="blurOut3" mode="normal"/></filter></defs><g><text fill="#000000" font-family="sans-serif" font-size="14" font-weight="bold" lengthAdjust="spacing" textLength="92" x="114.7481" y="22.9951">Uses Cases</text><!--entity system--><g id="elem_system"><ellipse cx="31.5" cy="413.0469" fill="#FEFECE" filter="url(#f1hwj0jot3uli)" rx="8" ry="8" style="stroke:#A80036;stroke-width:2.0;"/><path d="M31.5,421.0469 L31.5,448.0469 M18.5,429.0469 L44.5,429.0469 M31.5,448.0469 L18.5,463.0469 M31.5,448.0469 L44.5,463.0469 " fill="none" filter="url(#f1hwj0jot3uli)" style="stroke:#A80036;stroke-width:2.0;"/><text fill="#000000" font-family="sans-serif" font-size="14" lengthAdjust="spacing" textLength="51" x="6" y="483.042">System</text></g><!--entity Player--><g id="elem_Player"><ellipse cx="31.5" cy="97.0469" fill="#FEFECE" filter="url(#f1hwj0jot3uli)" rx="8" ry="8" style="stroke:#A80036;stroke-width:2.0;"/><path d="M31.5,105.0469 L31.5,132.0469 M18.5,113.0469 L44.5,113.0469 M31.5,132.0469 L18.5,147.0469 M31.5,132.0469 L44.5,147.0469 " fill="none" filter="url(#f1hwj0jot3uli)" style="stroke:#A80036;stroke-width:2.0;"/><text fill="#000000" font-family="sans-serif" font-size="14" lengthAdjust="spacing" textLength="41" x="11" y="167.042">Player</text></g><g id="elem_Start simulation"><ellipse cx="219.2548" cy="60.6958" fill="#FEFECE" filter="url(#f1hwj0jot3uli)" rx="74.9948" ry="17.399" style="stroke:#A80036;stroke-width:1.0;"/><text fill="#000000" font-family="sans-serif" font-size="14" lengthAdjust="spacing" textLength="106" x="163.2548" y="64.4434">Start simulation</text></g><g id="elem_Move player"><ellipse cx="219.253" cy="128.6995" fill="#FEFECE" filter="url(#f1hwj0jot3uli)" rx="66.113" ry="15.6226" style="stroke:#A80036;stroke-width:1.0;"/><text fill="#000000" font-family="sans-serif" font-size="14" lengthAdjust="spacing" textLength="82" x="175.253" y="132.447">Move player</text></g><g id="elem_Execute simulation cycle"><ellipse cx="219.2481" cy="271.6965" fill="#FEFECE" filter="url(#f1hwj0jot3uli)" rx="102.2481" ry="22.8496" style="stroke:#A80036;stroke-width:1.0;"/><text fill="#000000" font-family="sans-serif" font-size="14" lengthAdjust="spacing" textLength="169" x="134.7481" y="274.5432">Execute simulation cycle</text></g><g id="elem_Advance time"><ellipse cx="219.2534" cy="345.6996" fill="#FEFECE" filter="url(#f1hwj0jot3uli)" rx="70.0634" ry="16.4127" style="stroke:#A80036;stroke-width:1.0;"/><text fill="#000000" font-family="sans-serif" font-size="14" lengthAdjust="spacing" textLength="93" x="169.7534" y="349.4471">Advance time</text></g><g id="elem_Move NPC"><ellipse cx="219.2468" cy="411.6942" fill="#FEFECE" filter="url(#f1hwj0jot3uli)" rx="62.0868" ry="14.8174" style="stroke:#A80036;stroke-width:1.0;"/><text fill="#000000" font-family="sans-serif" font-size="14" lengthAdjust="spacing" textLength="70" x="181.2468" y="415.4418">Move NPC</text></g><g id="elem_Initialize map"><ellipse cx="219.25" cy="477.6949" fill="#FEFECE" filter="url(#f1hwj0jot3uli)" rx="68.24" ry="16.048" style="stroke:#A80036;stroke-width:1.0;"/><text fill="#000000" font-family="sans-serif" font-size="14" lengthAdjust="spacing" textLength="88" x="172.25" y="481.4424">Initialize map</text></g><g id="elem_Initialize entities"><ellipse cx="219.2476" cy="546.7004" fill="#FEFECE" filter="url(#f1hwj0jot3uli)" rx="76.1676" ry="17.6335" style="stroke:#A80036;stroke-width:1.0;"/><text fill="#000000" font-family="sans-serif" font-size="14" lengthAdjust="spacing" textLength="109" x="161.7476" y="550.448">Initialize entities</text></g><g id="elem_Move transport"><ellipse cx="219.2498" cy="616.7008" fill="#FEFECE" filter="url(#f1hwj0jot3uli)" rx="74.2198" ry="17.244" style="stroke:#A80036;stroke-width:1.0;"/><text fill="#000000" font-family="sans-serif" font-size="14" lengthAdjust="spacing" textLength="104" x="164.2498" y="620.4484">Move transport</text></g><g id="elem_End simulation"><ellipse cx="219.2478" cy="196.7004" fill="#FEFECE" filter="url(#f1hwj0jot3uli)" rx="73.0678" ry="17.0136" style="stroke:#A80036;stroke-width:1.0;"/><text fill="#000000" font-family="sans-serif" font-size="14" lengthAdjust="spacing" textLength="101" x="165.7478" y="200.448">End simulation</text></g><!--link Player to Start simulation--><g id="link_Player_Start simulation"><path d="M52.22,120.7369 C69.29,113.9069 94.68,103.9069 117,95.6969 C136.03,88.6969 151.5225,83.2476 169.5725,77.0776 " fill="none" id="Player-to-Start simulation" style="stroke:#A80036;stroke-width:1.0;"/><polygon fill="#A80036" points="175.25,75.1369,165.44,74.263,170.5188,76.7541,168.0276,81.8329,175.25,75.1369" style="stroke:#A80036;stroke-width:1.0;"/></g><!--link Player to Move player--><g id="link_Player_Move player"><path d="M52.38,128.6969 C76.24,128.6969 111.48,128.6969 146.87,128.6969 " fill="none" id="Player-to-Move player" style="stroke:#A80036;stroke-width:1.0;"/><polygon fill="#A80036" points="152.87,128.6969,143.87,124.6969,147.87,128.6969,143.87,132.6969,152.87,128.6969" style="stroke:#A80036;stroke-width:1.0;"/></g><!--link system to Execute simulation cycle--><g id="link_system_Execute simulation cycle"><path d="M50.49,402.8569 C64.81,373.8469 87.37,336.1769 117,311.6969 C128,302.6069 135.7955,297.7378 149.1055,292.0978 " fill="none" id="system-to-Execute simulation cycle" style="stroke:#A80036;stroke-width:1.0;"/><polygon fill="#A80036" points="154.63,289.7569,144.7826,289.5853,150.0263,291.7077,147.9039,296.9513,154.63,289.7569" style="stroke:#A80036;stroke-width:1.0;"/></g><!--link system to Advance time--><g id="link_system_Advance time"><path d="M57.23,422.1169 C73.32,408.3669 95.28,391.2769 117,379.6969 C133.85,370.7069 147.8029,365.236 165.3129,359.766 " fill="none" id="system-to-Advance time" style="stroke:#A80036;stroke-width:1.0;"/><polygon fill="#A80036" points="171.04,357.9769,161.2567,356.8425,166.2675,359.4678,163.6421,364.4785,171.04,357.9769" style="stroke:#A80036;stroke-width:1.0;"/></g><!--link system to Move NPC--><g id="link_system_Move NPC"><path d="M57.17,440.3069 C85.39,435.2969 126.4325,428.0066 162.3925,421.6166 " fill="none" id="system-to-Move NPC" style="stroke:#A80036;stroke-width:1.0;"/><polygon fill="#A80036" points="168.3,420.5669,158.739,418.2032,163.3771,421.4417,160.1386,426.0798,168.3,420.5669" style="stroke:#A80036;stroke-width:1.0;"/></g><!--link system to Initialize map--><g id="link_system_Initialize map"><path d="M57.17,449.0769 C84.21,453.8769 122.5326,460.687 157.8126,466.957 " fill="none" id="system-to-Initialize map" style="stroke:#A80036;stroke-width:1.0;"/><polygon fill="#A80036" points="163.72,468.0069,155.5588,462.4938,158.7971,467.132,154.1589,470.3704,163.72,468.0069" style="stroke:#A80036;stroke-width:1.0;"/></g><!--link system to Initialize entities--><g id="link_system_Initialize entities"><path d="M57.16,467.9369 C73.21,482.1069 95.17,499.7169 117,511.6969 C132.98,520.4569 145.8592,525.7659 162.7092,531.2959 " fill="none" id="system-to-Initialize entities" style="stroke:#A80036;stroke-width:1.0;"/><polygon fill="#A80036" points="168.41,533.1669,161.1061,526.5599,163.6593,531.6077,158.6114,534.161,168.41,533.1669" style="stroke:#A80036;stroke-width:1.0;"/></g><!--link system to Move transport--><g id="link_system_Move transport"><path d="M49.13,486.6069 C63.1,516.8869 85.81,556.7069 117,581.6969 C130.28,592.3369 141.2987,597.9673 157.3087,603.2173 " fill="none" id="system-to-Move transport" style="stroke:#A80036;stroke-width:1.0;"/><polygon fill="#A80036" points="163.01,605.0869,155.7044,598.4817,158.2589,603.5289,153.2117,606.0834,163.01,605.0869" style="stroke:#A80036;stroke-width:1.0;"/></g><!--link Player to End simulation--><g id="link_Player_End simulation"><path d="M52.22,136.6469 C69.29,143.4769 94.68,153.4769 117,161.6969 C136.37,168.8169 152.3024,174.4067 170.5624,180.6467 " fill="none" id="Player-to-End simulation" style="stroke:#A80036;stroke-width:1.0;"/><polygon fill="#A80036" points="176.24,182.5869,169.017,175.8915,171.5086,180.97,166.4301,183.4616,176.24,182.5869" style="stroke:#A80036;stroke-width:1.0;"/></g><!--SRC=[TO_12i9034Jl-nKvkeV-WY2b1mzAeVW1OHirkDqjcxHOlzxQNhgYbn3cpGoCF3X0YaB6qrL18oI-tHLQJkIKOp3AwWakGW8bpjSOT1eJD9CeTO02idp6r1udIb0KUzWrYab1k1iyVcfiHazn9EWNmHgpvbTIFSaDIfiakCbvifdhq8uO785ozqMMvdDTvkeni39wVX5qsFzb5EQnJFAZKXC6wMDIc- -iGhjT-GO0]--></g></svg>