<?xml version="1.0" encoding="us-ascii" standalone="no"?><svg xmlns="http://www.w3.org/2000/svg" xmlns:xlink="http://www.w3.org/1999/xlink" contentStyleType="text/css" height="191px" preserveAspectRatio="none" style="width:1637px;height:191px;background:#FFFFFF;" version="1.1" viewBox="0 0 1637 191" width="1637px" zoomAndPan="magnify"><defs/><g><!--entity Player--><g id="elem_Player"><ellipse cx="370.91" cy="14" fill="#F1F1F1" rx="8" ry="8" style="stroke:#181818;stroke-width:0.5;"/><path d="M370.91,22 L370.91,49 M357.91,30 L383.91,30 M370.91,49 L357.91,64 M370.91,49 L383.91,64 " fill="none" style="stroke:#181818;stroke-width:0.5;"/><text fill="#000000" font-family="sans-serif" font-size="14" lengthAdjust="spacing" textLength="41" x="350.41" y="78.4951">Player</text></g><!--entity System--><g id="elem_System"><ellipse cx="823.91" cy="14" fill="#F1F1F1" rx="8" ry="8" style="stroke:#181818;stroke-width:0.5;"/><path d="M823.91,22 L823.91,49 M810.91,30 L836.91,30 M823.91,49 L810.91,64 M823.91,49 L836.91,64 " fill="none" style="stroke:#181818;stroke-width:0.5;"/><text fill="#000000" font-family="sans-serif" font-size="14" lengthAdjust="spacing" textLength="51" x="798.41" y="78.4951">System</text></g><g id="elem_InitializeGame"><ellipse cx="647.9149" cy="163.471" fill="#F1F1F1" rx="70.8049" ry="16.561" style="stroke:#181818;stroke-width:0.5;"/><text fill="#000000" font-family="sans-serif" font-size="14" lengthAdjust="spacing" textLength="95" x="597.4149" y="167.2185">InitializeGame</text></g><g id="elem_SimulateGameCycle"><ellipse cx="93.9128" cy="163.4726" fill="#F1F1F1" rx="87.9128" ry="19.9826" style="stroke:#181818;stroke-width:0.5;"/><text fill="#000000" font-family="sans-serif" font-size="14" lengthAdjust="spacing" textLength="137" x="25.4128" y="166.3192">SimulateGameCycle</text></g><g id="elem_AddEntity"><ellipse cx="1386.9131" cy="163.4719" fill="#F1F1F1" rx="58.5731" ry="14.7619" style="stroke:#181818;stroke-width:0.5;"/><text fill="#000000" font-family="sans-serif" font-size="14" lengthAdjust="spacing" textLength="65" x="1351.4131" y="167.2195">AddEntity</text></g><g id="elem_MoveEntity"><ellipse cx="280.9148" cy="163.475" fill="#F1F1F1" rx="63.7248" ry="15.145" style="stroke:#181818;stroke-width:0.5;"/><text fill="#000000" font-family="sans-serif" font-size="14" lengthAdjust="spacing" textLength="75" x="240.4148" y="167.2225">MoveEntity</text></g><g id="elem_ChangeTransport"><ellipse cx="460.9071" cy="163.4654" fill="#F1F1F1" rx="81.0271" ry="18.6054" style="stroke:#181818;stroke-width:0.5;"/><text fill="#000000" font-family="sans-serif" font-size="14" lengthAdjust="spacing" textLength="121" x="399.1215" y="166.7318">ChangeTransport</text></g><g id="elem_UpdateTileType"><ellipse cx="1555.9054" cy="163.4651" fill="#F1F1F1" rx="75.7754" ry="17.5551" style="stroke:#181818;stroke-width:0.5;"/><text fill="#000000" font-family="sans-serif" font-size="14" lengthAdjust="spacing" textLength="108" x="1498.9054" y="167.2126">UpdateTileType</text></g><g id="elem_AdvanceTime"><ellipse cx="823.9134" cy="163.4727" fill="#F1F1F1" rx="70.0634" ry="16.4127" style="stroke:#181818;stroke-width:0.5;"/><text fill="#000000" font-family="sans-serif" font-size="14" lengthAdjust="spacing" textLength="93" x="774.4134" y="167.2202">AdvanceTime</text></g><g id="elem_DisplayWorld"><ellipse cx="996.91" cy="163.468" fill="#F1F1F1" rx="68.24" ry="16.048" style="stroke:#181818;stroke-width:0.5;"/><text fill="#000000" font-family="sans-serif" font-size="14" lengthAdjust="spacing" textLength="88" x="949.91" y="167.2156">DisplayWorld</text></g><g id="elem_UpdateTransportInUse"><ellipse cx="1196.9091" cy="163.4718" fill="#F1F1F1" rx="96.3591" ry="21.6718" style="stroke:#181818;stroke-width:0.5;"/><text fill="#000000" font-family="sans-serif" font-size="14" lengthAdjust="spacing" textLength="156" x="1118.9091" y="166.3185">UpdateTransportInUse</text></g><!--link Player to InitializeGame--><g id="link_Player_InitializeGame"><path d="M391.73,53.5 C439.54,73.84 551.9788,121.6613 609.6188,146.1813 " fill="none" id="Player-to-InitializeGame" style="stroke:#181818;stroke-width:1.0;"/><polygon fill="#181818" points="615.14,148.53,608.424,141.3261,610.539,146.5727,605.2924,148.6877,615.14,148.53" style="stroke:#181818;stroke-width:1.0;"/></g><!--link Player to SimulateGameCycle--><g id="link_Player_SimulateGameCycle"><path d="M350.09,53.5 C304.29,72.98 199.6513,117.4916 139.7913,142.9516 " fill="none" id="Player-to-SimulateGameCycle" style="stroke:#181818;stroke-width:1.0;"/><polygon fill="#181818" points="134.27,145.3,144.1176,145.4583,138.8711,143.343,140.9864,138.0966,134.27,145.3" style="stroke:#181818;stroke-width:1.0;"/></g><!--link Player to MoveEntity--><g id="link_Player_MoveEntity"><path d="M350.04,71.97 C331.86,95.77 309.8708,124.5508 295.4808,143.4008 " fill="none" id="Player-to-MoveEntity" style="stroke:#181818;stroke-width:1.0;"/><polygon fill="#181818" points="291.84,148.17,300.4806,143.4434,294.874,144.1957,294.1217,138.5891,291.84,148.17" style="stroke:#181818;stroke-width:1.0;"/></g><!--link Player to ChangeTransport--><g id="link_Player_ChangeTransport"><path d="M391.79,71.97 C408.92,94.41 429.049,120.751 443.769,140.031 " fill="none" id="Player-to-ChangeTransport" style="stroke:#181818;stroke-width:1.0;"/><polygon fill="#181818" points="447.41,144.8,445.1278,135.2192,444.3758,140.8259,438.7692,140.0739,447.41,144.8" style="stroke:#181818;stroke-width:1.0;"/></g><!--link System to InitializeGame--><g id="link_System_InitializeGame"><path d="M797.94,62.03 C763.42,85.14 707.9859,122.2523 675.3459,144.1023 " fill="none" id="System-to-InitializeGame" style="stroke:#181818;stroke-width:1.0;"/><polygon fill="#181818" points="670.36,147.44,680.0641,145.7574,674.515,144.6586,675.6138,139.1095,670.36,147.44" style="stroke:#181818;stroke-width:1.0;"/></g><!--link System to SimulateGameCycle--><g id="link_System_SimulateGameCycle"><path d="M798,48.32 C712.45,60.52 431.29,101.24 199.91,141.8 C186.43,144.16 177.9119,145.7263 164.1919,148.3663 " fill="none" id="System-to-SimulateGameCycle" style="stroke:#181818;stroke-width:1.0;"/><polygon fill="#181818" points="158.3,149.5,167.8937,151.7274,163.2099,148.5552,166.3821,143.8715,158.3,149.5" style="stroke:#181818;stroke-width:1.0;"/></g><!--link System to AddEntity--><g id="link_System_AddEntity"><path d="M849.66,49.14 C922.43,61.97 1135.73,100.55 1310.91,141.8 C1323.56,144.77 1331.4943,146.8009 1343.7643,150.1709 " fill="none" id="System-to-AddEntity" style="stroke:#181818;stroke-width:1.0;"/><polygon fill="#181818" points="1349.55,151.76,1341.9308,145.5192,1344.7285,150.4358,1339.812,153.2335,1349.55,151.76" style="stroke:#181818;stroke-width:1.0;"/></g><!--link System to MoveEntity--><g id="link_System_MoveEntity"><path d="M798.03,49.69 C727.72,63.47 527.36,103.31 361.91,141.8 C348.91,144.82 340.6019,146.8494 327.8519,150.1194 " fill="none" id="System-to-MoveEntity" style="stroke:#181818;stroke-width:1.0;"/><polygon fill="#181818" points="322.04,151.61,331.7516,153.2487,326.8832,150.3678,329.7641,145.4995,322.04,151.61" style="stroke:#181818;stroke-width:1.0;"/></g><!--link System to ChangeTransport--><g id="link_System_ChangeTransport"><path d="M798.1,53.03 C737.11,72.82 589.1968,120.8274 512.1568,145.8374 " fill="none" id="System-to-ChangeTransport" style="stroke:#181818;stroke-width:1.0;"/><polygon fill="#181818" points="506.45,147.69,516.2453,148.7156,511.2057,146.1461,513.7751,141.1065,506.45,147.69" style="stroke:#181818;stroke-width:1.0;"/></g><!--link System to UpdateTileType--><g id="link_System_UpdateTileType"><path d="M849.89,47.95 C936.91,59.16 1226.04,97.52 1462.91,141.8 C1476.41,144.32 1485.0719,146.083 1498.5319,149.063 " fill="none" id="System-to-UpdateTileType" style="stroke:#181818;stroke-width:1.0;"/><polygon fill="#181818" points="1504.39,150.36,1496.4674,144.5091,1499.5082,149.2792,1494.7381,152.32,1504.39,150.36" style="stroke:#181818;stroke-width:1.0;"/></g><!--link System to AdvanceTime--><g id="link_System_AdvanceTime"><path d="M823.91,82.25 C823.91,104.07 823.91,124.4 823.91,140.79 " fill="none" id="System-to-AdvanceTime" style="stroke:#181818;stroke-width:1.0;"/><polygon fill="#181818" points="823.91,146.79,827.91,137.79,823.91,141.79,819.91,137.79,823.91,146.79" style="stroke:#181818;stroke-width:1.0;"/></g><!--link System to DisplayWorld--><g id="link_System_DisplayWorld"><path d="M849.81,62.29 C884.03,85.59 938.7106,122.833 970.5206,144.493 " fill="none" id="System-to-DisplayWorld" style="stroke:#181818;stroke-width:1.0;"/><polygon fill="#181818" points="975.48,147.87,970.2922,139.4982,971.3471,145.0559,965.7895,146.1108,975.48,147.87" style="stroke:#181818;stroke-width:1.0;"/></g><!--link System to UpdateTransportInUse--><g id="link_System_UpdateTransportInUse"><path d="M849.85,52.84 C910.15,71.89 1055.1387,117.6825 1136.7087,143.4525 " fill="none" id="System-to-UpdateTransportInUse" style="stroke:#181818;stroke-width:1.0;"/><polygon fill="#181818" points="1142.43,145.26,1135.0531,138.7346,1137.6623,143.7538,1132.6431,146.3629,1142.43,145.26" style="stroke:#181818;stroke-width:1.0;"/></g><!--SRC=[RP712i8m44Jl-OhWtLyGf8fu48IsU5xQHGDfMf9KY5zlITNT91xtpJIpdONEZrPUDGIq0k9G1-Tn469ss853kJaRvHLezS8J3BYHu6IAo5ghOTRW8wr2frTtGUc3VTyVZLS-HEDl8iDbV29pq4YMwW7cZeq5uwRH-kZB69dRgLysQPJ69aphUYdYkpt1T8lm-Masa-cWtBIqTnkjxgEBWoBsky_Pj2u9JmGXreF8xNQNLysKibOcig8OpMiHwx7_1J6b368YtOn1bivediwax0R9-zGwmqdDvKD9dsy0]--></g></svg>