<svg xmlns="http://www.w3.org/2000/svg" xmlns:xlink="http://www.w3.org/1999/xlink" contentStyleType="text/css" height="659px" preserveAspectRatio="none" style="width:335px;height:659px;background:#FFFFFF;" version="1.1" viewBox="0 0 335 659" width="335px" zoomAndPan="magnify"><defs><filter height="300%" id="f17gw2iwv4sgke" width="300%" x="-1" y="-1"><feGaussianBlur result="blurOut" stdDeviation="2.0"/><feColorMatrix in="blurOut" result="blurOut2" type="matrix" values="0 0 0 0 0 0 0 0 0 0 0 0 0 0 0 0 0 0 .4 0"/><feOffset dx="4.0" dy="4.0" in="blurOut2" result="blurOut3"/><feBlend in="SourceGraphic" in2="blurOut3" mode="normal"/></filter></defs><g><text fill="#000000" font-family="sans-serif" font-size="14" font-weight="bold" lengthAdjust="spacing" textLength="83" x="119.2481" y="22.9951">Use Cases</text><!--entity system--><g id="elem_system"><ellipse cx="31.5" cy="423.0469" fill="#FEFECE" filter="url(#f17gw2iwv4sgke)" rx="8" ry="8" style="stroke:#A80036;stroke-width:2.0;"/><path d="M31.5,431.0469 L31.5,458.0469 M18.5,439.0469 L44.5,439.0469 M31.5,458.0469 L18.5,473.0469 M31.5,458.0469 L44.5,473.0469 " fill="none" filter="url(#f17gw2iwv4sgke)" style="stroke:#A80036;stroke-width:2.0;"/><text fill="#000000" font-family="sans-serif" font-size="14" lengthAdjust="spacing" textLength="51" x="6" y="493.042">System</text></g><!--entity Player--><g id="elem_Player"><ellipse cx="31.5" cy="97.0469" fill="#FEFECE" filter="url(#f17gw2iwv4sgke)" rx="8" ry="8" style="stroke:#A80036;stroke-width:2.0;"/><path d="M31.5,105.0469 L31.5,132.0469 M18.5,113.0469 L44.5,113.0469 M31.5,132.0469 L18.5,147.0469 M31.5,132.0469 L44.5,147.0469 " fill="none" filter="url(#f17gw2iwv4sgke)" style="stroke:#A80036;stroke-width:2.0;"/><text fill="#000000" font-family="sans-serif" font-size="14" lengthAdjust="spacing" textLength="41" x="11" y="167.042">Player</text></g><g id="elem_Start simulation"><ellipse cx="219.2548" cy="60.6958" fill="#FEFECE" filter="url(#f17gw2iwv4sgke)" rx="74.9948" ry="17.399" style="stroke:#A80036;stroke-width:1.0;"/><text fill="#000000" font-family="sans-serif" font-size="14" lengthAdjust="spacing" textLength="106" x="163.2548" y="64.4434">Start simulation</text></g><g id="elem_Move player"><ellipse cx="219.253" cy="128.6995" fill="#FEFECE" filter="url(#f17gw2iwv4sgke)" rx="66.113" ry="15.6226" style="stroke:#A80036;stroke-width:1.0;"/><text fill="#000000" font-family="sans-serif" font-size="14" lengthAdjust="spacing" textLength="82" x="175.253" y="132.447">Move player</text></g><g id="elem_Execute simulation cycle"><ellipse cx="219.2481" cy="271.6965" fill="#FEFECE" filter="url(#f17gw2iwv4sgke)" rx="102.2481" ry="22.8496" style="stroke:#A80036;stroke-width:1.0;"/><text fill="#000000" font-family="sans-serif" font-size="14" lengthAdjust="spacing" textLength="169" x="134.7481" y="274.5432">Execute simulation cycle</text></g><g id="elem_Advance precise time"><ellipse cx="219.2471" cy="350.6923" fill="#FEFECE" filter="url(#f17gw2iwv4sgke)" rx="92.7771" ry="20.9554" style="stroke:#A80036;stroke-width:1.0;"/><text fill="#000000" font-family="sans-serif" font-size="14" lengthAdjust="spacing" textLength="148" x="145.2471" y="353.539">Advance precise time</text></g><g id="elem_Move NPC"><ellipse cx="219.2468" cy="421.6942" fill="#FEFECE" filter="url(#f17gw2iwv4sgke)" rx="62.0868" ry="14.8174" style="stroke:#A80036;stroke-width:1.0;"/><text fill="#000000" font-family="sans-serif" font-size="14" lengthAdjust="spacing" textLength="70" x="181.2468" y="425.4418">Move NPC</text></g><g id="elem_Initialize map"><ellipse cx="219.25" cy="487.6949" fill="#FEFECE" filter="url(#f17gw2iwv4sgke)" rx="68.24" ry="16.048" style="stroke:#A80036;stroke-width:1.0;"/><text fill="#000000" font-family="sans-serif" font-size="14" lengthAdjust="spacing" textLength="88" x="172.25" y="491.4424">Initialize map</text></g><g id="elem_Initialize entities"><ellipse cx="219.2476" cy="556.7004" fill="#FEFECE" filter="url(#f17gw2iwv4sgke)" rx="76.1676" ry="17.6335" style="stroke:#A80036;stroke-width:1.0;"/><text fill="#000000" font-family="sans-serif" font-size="14" lengthAdjust="spacing" textLength="109" x="161.7476" y="560.448">Initialize entities</text></g><g id="elem_Update transport"><ellipse cx="219.2535" cy="627.7016" fill="#FEFECE" filter="url(#f17gw2iwv4sgke)" rx="79.3735" ry="18.2747" style="stroke:#A80036;stroke-width:1.0;"/><text fill="#000000" font-family="sans-serif" font-size="14" lengthAdjust="spacing" textLength="117" x="158.8476" y="631.1517">Update transport</text></g><g id="elem_End simulation"><ellipse cx="219.2478" cy="196.7004" fill="#FEFECE" filter="url(#f17gw2iwv4sgke)" rx="73.0678" ry="17.0136" style="stroke:#A80036;stroke-width:1.0;"/><text fill="#000000" font-family="sans-serif" font-size="14" lengthAdjust="spacing" textLength="101" x="165.7478" y="200.448">End simulation</text></g><!--link Player to Start simulation--><g id="link_Player_Start simulation"><path d="M52.22,120.7369 C69.29,113.9069 94.68,103.9069 117,95.6969 C136.03,88.6969 151.5225,83.2476 169.5725,77.0776 " fill="none" id="Player-to-Start simulation" style="stroke:#A80036;stroke-width:1.0;"/><polygon fill="#A80036" points="175.25,75.1369,165.44,74.263,170.5188,76.7541,168.0276,81.8329,175.25,75.1369" style="stroke:#A80036;stroke-width:1.0;"/></g><!--link Player to Move player--><g id="link_Player_Move player"><path d="M52.38,128.6969 C76.24,128.6969 111.48,128.6969 146.87,128.6969 " fill="none" id="Player-to-Move player" style="stroke:#A80036;stroke-width:1.0;"/><polygon fill="#A80036" points="152.87,128.6969,143.87,124.6969,147.87,128.6969,143.87,132.6969,152.87,128.6969" style="stroke:#A80036;stroke-width:1.0;"/></g><!--link system to Execute simulation cycle--><g id="link_system_Execute simulation cycle"><path d="M48.73,412.7069 C62.68,381.4569 85.55,339.6969 117,312.6969 C128.08,303.1769 136.1372,298.0453 149.7072,292.2153 " fill="none" id="system-to-Execute simulation cycle" style="stroke:#A80036;stroke-width:1.0;"/><polygon fill="#A80036" points="155.22,289.8469,145.3719,289.7243,150.626,291.8206,148.5298,297.0747,155.22,289.8469" style="stroke:#A80036;stroke-width:1.0;"/></g><!--link system to Advance precise time--><g id="link_system_Advance precise time"><path d="M57.41,432.4469 C73.57,418.8169 95.54,401.7469 117,389.6969 C131.86,381.3469 143.2594,376.1531 159.0394,370.1731 " fill="none" id="system-to-Advance precise time" style="stroke:#A80036;stroke-width:1.0;"/><polygon fill="#A80036" points="164.65,368.0469,154.8166,367.4958,159.9745,369.8187,157.6515,374.9766,164.65,368.0469" style="stroke:#A80036;stroke-width:1.0;"/></g><!--link system to Move NPC--><g id="link_system_Move NPC"><path d="M57.17,450.3069 C85.39,445.2969 126.4325,438.0066 162.3925,431.6166 " fill="none" id="system-to-Move NPC" style="stroke:#A80036;stroke-width:1.0;"/><polygon fill="#A80036" points="168.3,430.5669,158.739,428.2032,163.3771,431.4417,160.1386,436.0798,168.3,430.5669" style="stroke:#A80036;stroke-width:1.0;"/></g><!--link system to Initialize map--><g id="link_system_Initialize map"><path d="M57.17,459.0769 C84.21,463.8769 122.5326,470.687 157.8126,476.957 " fill="none" id="system-to-Initialize map" style="stroke:#A80036;stroke-width:1.0;"/><polygon fill="#A80036" points="163.72,478.0069,155.5588,472.4938,158.7971,477.132,154.1589,480.3704,163.72,478.0069" style="stroke:#A80036;stroke-width:1.0;"/></g><!--link system to Initialize entities--><g id="link_system_Initialize entities"><path d="M57.16,477.9369 C73.21,492.1069 95.17,509.7169 117,521.6969 C132.98,530.4569 145.8592,535.7659 162.7092,541.2959 " fill="none" id="system-to-Initialize entities" style="stroke:#A80036;stroke-width:1.0;"/><polygon fill="#A80036" points="168.41,543.1669,161.1061,536.5599,163.6593,541.6077,158.6114,544.161,168.41,543.1669" style="stroke:#A80036;stroke-width:1.0;"/></g><!--link system to Update transport--><g id="link_system_Update transport"><path d="M49.34,496.8369 C63.36,527.0469 86.03,566.6569 117,591.6969 C129.77,602.0169 140.053,607.5259 155.493,612.8959 " fill="none" id="system-to-Update transport" style="stroke:#A80036;stroke-width:1.0;"/><polygon fill="#A80036" points="161.16,614.8669,153.9734,608.1324,156.4375,613.2244,151.3455,615.6884,161.16,614.8669" style="stroke:#A80036;stroke-width:1.0;"/></g><!--link Player to End simulation--><g id="link_Player_End simulation"><path d="M52.22,136.6469 C69.29,143.4769 94.68,153.4769 117,161.6969 C136.37,168.8169 152.3024,174.4067 170.5624,180.6467 " fill="none" id="Player-to-End simulation" style="stroke:#A80036;stroke-width:1.0;"/><polygon fill="#A80036" points="176.24,182.5869,169.017,175.8915,171.5086,180.97,166.4301,183.4616,176.24,182.5869" style="stroke:#A80036;stroke-width:1.0;"/></g><!--SRC=[TKzB3e8m4Dtt5BEK1LSmCOI52mq9uG2JCkh4qfBEGCJJMs53JTnDtc_UaoTxY478EBefQ838zuT2pv6iSl16MHr19mGL2eanQ3L4Q1TH6W05PBsCQHmk5A4iZt1e5QE2y30v_AOK6Ni9Cy6u0eKnctzZwXVPIMdd1BjOHqMcElKpUfiYKaTEnPI77yNwuTfKENhsh8oEtmG3Zdyvycapa-I2RkmnDTE8NiOGjSWNrxxVx_q0]--></g></svg>