<?xml version="1.0" encoding="UTF-8" standalone="no"?><svg xmlns="http://www.w3.org/2000/svg" xmlns:xlink="http://www.w3.org/1999/xlink" contentStyleType="text/css" height="386px" preserveAspectRatio="none" style="width:501px;height:386px;background:#FFFFFF;" version="1.1" viewBox="0 0 501 386" width="501px" zoomAndPan="magnify"><defs/><g><!--MD5=[1b1562314ef50edf921bad0cd204186a]
class World--><g id="elem_World"><rect codeLine="2" fill="#F1F1F1" height="48" id="World" rx="2.5" ry="2.5" style="stroke:#181818;stroke-width:0.5;" width="69" x="137" y="7"/><ellipse cx="152" cy="23" fill="#ADD1B2" rx="11" ry="11" style="stroke:#181818;stroke-width:1.0;"/><path d="M154.7656,18.875 Q154.9219,18.6563 155.1094,18.5469 Q155.2969,18.4375 155.5156,18.4375 Q155.8906,18.4375 156.125,18.7031 Q156.3594,18.9531 156.3594,19.5625 L156.3594,21.0156 Q156.3594,21.625 156.125,21.8906 Q155.8906,22.1563 155.5156,22.1563 Q155.1719,22.1563 154.9688,21.9531 Q154.7656,21.7656 154.6563,21.25 Q154.6094,20.8906 154.4219,20.7031 Q154.0938,20.3281 153.4844,20.1094 Q152.875,19.8906 152.25,19.8906 Q151.4844,19.8906 150.8438,20.2188 Q150.2188,20.5469 149.7188,21.2969 Q149.2344,22.0469 149.2344,23.0781 L149.2344,24.1719 Q149.2344,25.4063 150.125,26.2344 Q151.0156,27.0469 152.6094,27.0469 Q153.5469,27.0469 154.2031,26.7969 Q154.5938,26.6406 155.0156,26.2031 Q155.2813,25.9375 155.4219,25.8594 Q155.5781,25.7813 155.7813,25.7813 Q156.1094,25.7813 156.3594,26.0469 Q156.625,26.2969 156.625,26.6406 Q156.625,26.9844 156.2813,27.3906 Q155.7813,27.9688 154.9844,28.2969 Q153.9063,28.75 152.6094,28.75 Q151.0938,28.75 149.8906,28.125 Q148.9063,27.625 148.2188,26.5625 Q147.5313,25.4844 147.5313,24.2031 L147.5313,23.0469 Q147.5313,21.7188 148.1406,20.5781 Q148.7656,19.4219 149.8594,18.8125 Q150.9531,18.1875 152.1875,18.1875 Q152.9219,18.1875 153.5625,18.3594 Q154.2188,18.5156 154.7656,18.875 Z " fill="#000000"/><text fill="#000000" font-family="sans-serif" font-size="14" lengthAdjust="spacing" textLength="37" x="166" y="28.7285">World</text><line style="stroke:#181818;stroke-width:0.5;" x1="138" x2="205" y1="39" y2="39"/><line style="stroke:#181818;stroke-width:0.5;" x1="138" x2="205" y1="47" y2="47"/></g><!--MD5=[2e42295458bb0bec21c9622a623eb29e]
class Time--><g id="elem_Time"><rect codeLine="5" fill="#F1F1F1" height="48" id="Time" rx="2.5" ry="2.5" style="stroke:#181818;stroke-width:0.5;" width="63" x="44" y="115"/><ellipse cx="59" cy="131" fill="#ADD1B2" rx="11" ry="11" style="stroke:#181818;stroke-width:1.0;"/><path d="M61.7656,126.875 Q61.9219,126.6563 62.1094,126.5469 Q62.2969,126.4375 62.5156,126.4375 Q62.8906,126.4375 63.125,126.7031 Q63.3594,126.9531 63.3594,127.5625 L63.3594,129.0156 Q63.3594,129.625 63.125,129.8906 Q62.8906,130.1563 62.5156,130.1563 Q62.1719,130.1563 61.9688,129.9531 Q61.7656,129.7656 61.6563,129.25 Q61.6094,128.8906 61.4219,128.7031 Q61.0938,128.3281 60.4844,128.1094 Q59.875,127.8906 59.25,127.8906 Q58.4844,127.8906 57.8438,128.2188 Q57.2188,128.5469 56.7188,129.2969 Q56.2344,130.0469 56.2344,131.0781 L56.2344,132.1719 Q56.2344,133.4063 57.125,134.2344 Q58.0156,135.0469 59.6094,135.0469 Q60.5469,135.0469 61.2031,134.7969 Q61.5938,134.6406 62.0156,134.2031 Q62.2813,133.9375 62.4219,133.8594 Q62.5781,133.7813 62.7813,133.7813 Q63.1094,133.7813 63.3594,134.0469 Q63.625,134.2969 63.625,134.6406 Q63.625,134.9844 63.2813,135.3906 Q62.7813,135.9688 61.9844,136.2969 Q60.9063,136.75 59.6094,136.75 Q58.0938,136.75 56.8906,136.125 Q55.9063,135.625 55.2188,134.5625 Q54.5313,133.4844 54.5313,132.2031 L54.5313,131.0469 Q54.5313,129.7188 55.1406,128.5781 Q55.7656,127.4219 56.8594,126.8125 Q57.9531,126.1875 59.1875,126.1875 Q59.9219,126.1875 60.5625,126.3594 Q61.2188,126.5156 61.7656,126.875 Z " fill="#000000"/><text fill="#000000" font-family="sans-serif" font-size="14" lengthAdjust="spacing" textLength="31" x="73" y="136.7285">Time</text><line style="stroke:#181818;stroke-width:0.5;" x1="45" x2="106" y1="147" y2="147"/><line style="stroke:#181818;stroke-width:0.5;" x1="45" x2="106" y1="155" y2="155"/></g><!--MD5=[4dfc6a72b8dd60daa1b635d583ff79da]
class Map--><g id="elem_Map"><rect codeLine="8" fill="#F1F1F1" height="48" id="Map" rx="2.5" ry="2.5" style="stroke:#181818;stroke-width:0.5;" width="59" x="142" y="115"/><ellipse cx="157" cy="131" fill="#ADD1B2" rx="11" ry="11" style="stroke:#181818;stroke-width:1.0;"/><path d="M159.7656,126.875 Q159.9219,126.6563 160.1094,126.5469 Q160.2969,126.4375 160.5156,126.4375 Q160.8906,126.4375 161.125,126.7031 Q161.3594,126.9531 161.3594,127.5625 L161.3594,129.0156 Q161.3594,129.625 161.125,129.8906 Q160.8906,130.1563 160.5156,130.1563 Q160.1719,130.1563 159.9688,129.9531 Q159.7656,129.7656 159.6563,129.25 Q159.6094,128.8906 159.4219,128.7031 Q159.0938,128.3281 158.4844,128.1094 Q157.875,127.8906 157.25,127.8906 Q156.4844,127.8906 155.8438,128.2188 Q155.2188,128.5469 154.7188,129.2969 Q154.2344,130.0469 154.2344,131.0781 L154.2344,132.1719 Q154.2344,133.4063 155.125,134.2344 Q156.0156,135.0469 157.6094,135.0469 Q158.5469,135.0469 159.2031,134.7969 Q159.5938,134.6406 160.0156,134.2031 Q160.2813,133.9375 160.4219,133.8594 Q160.5781,133.7813 160.7813,133.7813 Q161.1094,133.7813 161.3594,134.0469 Q161.625,134.2969 161.625,134.6406 Q161.625,134.9844 161.2813,135.3906 Q160.7813,135.9688 159.9844,136.2969 Q158.9063,136.75 157.6094,136.75 Q156.0938,136.75 154.8906,136.125 Q153.9063,135.625 153.2188,134.5625 Q152.5313,133.4844 152.5313,132.2031 L152.5313,131.0469 Q152.5313,129.7188 153.1406,128.5781 Q153.7656,127.4219 154.8594,126.8125 Q155.9531,126.1875 157.1875,126.1875 Q157.9219,126.1875 158.5625,126.3594 Q159.2188,126.5156 159.7656,126.875 Z " fill="#000000"/><text fill="#000000" font-family="sans-serif" font-size="14" lengthAdjust="spacing" textLength="27" x="171" y="136.7285">Map</text><line style="stroke:#181818;stroke-width:0.5;" x1="143" x2="200" y1="147" y2="147"/><line style="stroke:#181818;stroke-width:0.5;" x1="143" x2="200" y1="155" y2="155"/></g><!--MD5=[18e4d9ca2a6cdced7b66e5fef94ef6f6]
class Tile--><g id="elem_Tile"><rect codeLine="11" fill="#F1F1F1" height="48" id="Tile" rx="2.5" ry="2.5" style="stroke:#181818;stroke-width:0.5;" width="55" x="141" y="223"/><ellipse cx="156" cy="239" fill="#ADD1B2" rx="11" ry="11" style="stroke:#181818;stroke-width:1.0;"/><path d="M158.7656,234.875 Q158.9219,234.6563 159.1094,234.5469 Q159.2969,234.4375 159.5156,234.4375 Q159.8906,234.4375 160.125,234.7031 Q160.3594,234.9531 160.3594,235.5625 L160.3594,237.0156 Q160.3594,237.625 160.125,237.8906 Q159.8906,238.1563 159.5156,238.1563 Q159.1719,238.1563 158.9688,237.9531 Q158.7656,237.7656 158.6563,237.25 Q158.6094,236.8906 158.4219,236.7031 Q158.0938,236.3281 157.4844,236.1094 Q156.875,235.8906 156.25,235.8906 Q155.4844,235.8906 154.8438,236.2188 Q154.2188,236.5469 153.7188,237.2969 Q153.2344,238.0469 153.2344,239.0781 L153.2344,240.1719 Q153.2344,241.4063 154.125,242.2344 Q155.0156,243.0469 156.6094,243.0469 Q157.5469,243.0469 158.2031,242.7969 Q158.5938,242.6406 159.0156,242.2031 Q159.2813,241.9375 159.4219,241.8594 Q159.5781,241.7813 159.7813,241.7813 Q160.1094,241.7813 160.3594,242.0469 Q160.625,242.2969 160.625,242.6406 Q160.625,242.9844 160.2813,243.3906 Q159.7813,243.9688 158.9844,244.2969 Q157.9063,244.75 156.6094,244.75 Q155.0938,244.75 153.8906,244.125 Q152.9063,243.625 152.2188,242.5625 Q151.5313,241.4844 151.5313,240.2031 L151.5313,239.0469 Q151.5313,237.7188 152.1406,236.5781 Q152.7656,235.4219 153.8594,234.8125 Q154.9531,234.1875 156.1875,234.1875 Q156.9219,234.1875 157.5625,234.3594 Q158.2188,234.5156 158.7656,234.875 Z " fill="#000000"/><text fill="#000000" font-family="sans-serif" font-size="14" lengthAdjust="spacing" textLength="23" x="170" y="244.7285">Tile</text><line style="stroke:#181818;stroke-width:0.5;" x1="142" x2="195" y1="255" y2="255"/><line style="stroke:#181818;stroke-width:0.5;" x1="142" x2="195" y1="263" y2="263"/></g><!--MD5=[be996cdb8e6bf2fc7cb89c555f2cd144]
class Entity--><g id="elem_Entity"><rect codeLine="14" fill="#F1F1F1" height="48" id="Entity" rx="2.5" ry="2.5" style="stroke:#181818;stroke-width:0.5;" width="67" x="242" y="115"/><ellipse cx="257" cy="131" fill="#A9DCDF" rx="11" ry="11" style="stroke:#181818;stroke-width:1.0;"/><path d="M259.1875,132.7656 L255.0469,132.7656 L254.625,133.7969 L255.0469,133.7969 Q255.6563,133.7969 255.9219,134.0313 Q256.1875,134.2656 256.1875,134.6563 Q256.1875,135.0313 255.9219,135.2656 Q255.6563,135.5 255.0469,135.5 L252.75,135.5 Q252.1406,135.5 251.8906,135.2656 Q251.625,135.0313 251.625,134.6406 Q251.625,134.2656 251.9063,134.0313 Q252.1719,133.7813 252.7969,133.7969 L255.4688,127.1406 L254.3594,127.1406 Q253.75,127.1406 253.4844,126.9063 Q253.2188,126.6719 253.2188,126.2813 Q253.2188,125.9063 253.4844,125.6719 Q253.75,125.4375 254.3594,125.4375 L258.0313,125.4375 L261.4219,133.7969 Q262.0156,133.7969 262.2031,133.9375 Q262.5938,134.2031 262.5938,134.6563 Q262.5938,135.0313 262.3281,135.2656 Q262.0781,135.5 261.4688,135.5 L259.1719,135.5 Q258.5625,135.5 258.2969,135.2656 Q258.0313,135.0313 258.0313,134.6406 Q258.0313,134.2656 258.2969,134.0313 Q258.5625,133.7969 259.1719,133.7969 L259.5938,133.7969 L259.1875,132.7656 Z M258.4688,131.0625 L257.1094,127.6875 L255.7344,131.0625 L258.4688,131.0625 Z " fill="#000000"/><text fill="#000000" font-family="sans-serif" font-size="14" font-style="italic" lengthAdjust="spacing" textLength="35" x="271" y="136.7285">Entity</text><line style="stroke:#181818;stroke-width:0.5;" x1="243" x2="308" y1="147" y2="147"/><line style="stroke:#181818;stroke-width:0.5;" x1="243" x2="308" y1="155" y2="155"/></g><!--MD5=[3eff9d4279c887ef9286477750bdaaff]
class Character--><g id="elem_Character"><rect codeLine="17" fill="#F1F1F1" height="48" id="Character" rx="2.5" ry="2.5" style="stroke:#181818;stroke-width:0.5;" width="95" x="231" y="223"/><ellipse cx="246" cy="239" fill="#A9DCDF" rx="11" ry="11" style="stroke:#181818;stroke-width:1.0;"/><path d="M248.1875,240.7656 L244.0469,240.7656 L243.625,241.7969 L244.0469,241.7969 Q244.6563,241.7969 244.9219,242.0313 Q245.1875,242.2656 245.1875,242.6563 Q245.1875,243.0313 244.9219,243.2656 Q244.6563,243.5 244.0469,243.5 L241.75,243.5 Q241.1406,243.5 240.8906,243.2656 Q240.625,243.0313 240.625,242.6406 Q240.625,242.2656 240.9063,242.0313 Q241.1719,241.7813 241.7969,241.7969 L244.4688,235.1406 L243.3594,235.1406 Q242.75,235.1406 242.4844,234.9063 Q242.2188,234.6719 242.2188,234.2813 Q242.2188,233.9063 242.4844,233.6719 Q242.75,233.4375 243.3594,233.4375 L247.0313,233.4375 L250.4219,241.7969 Q251.0156,241.7969 251.2031,241.9375 Q251.5938,242.2031 251.5938,242.6563 Q251.5938,243.0313 251.3281,243.2656 Q251.0781,243.5 250.4688,243.5 L248.1719,243.5 Q247.5625,243.5 247.2969,243.2656 Q247.0313,243.0313 247.0313,242.6406 Q247.0313,242.2656 247.2969,242.0313 Q247.5625,241.7969 248.1719,241.7969 L248.5938,241.7969 L248.1875,240.7656 Z M247.4688,239.0625 L246.1094,235.6875 L244.7344,239.0625 L247.4688,239.0625 Z " fill="#000000"/><text fill="#000000" font-family="sans-serif" font-size="14" font-style="italic" lengthAdjust="spacing" textLength="63" x="260" y="244.7285">Character</text><line style="stroke:#181818;stroke-width:0.5;" x1="232" x2="325" y1="255" y2="255"/><line style="stroke:#181818;stroke-width:0.5;" x1="232" x2="325" y1="263" y2="263"/></g><!--MD5=[dbfb7044e1da585d7aadce38bc485ae6]
class PlayableCharacter--><g id="elem_PlayableCharacter"><rect codeLine="20" fill="#F1F1F1" height="48" id="PlayableCharacter" rx="2.5" ry="2.5" style="stroke:#181818;stroke-width:0.5;" width="149" x="7" y="331"/><ellipse cx="22" cy="347" fill="#ADD1B2" rx="11" ry="11" style="stroke:#181818;stroke-width:1.0;"/><path d="M24.7656,342.875 Q24.9219,342.6563 25.1094,342.5469 Q25.2969,342.4375 25.5156,342.4375 Q25.8906,342.4375 26.125,342.7031 Q26.3594,342.9531 26.3594,343.5625 L26.3594,345.0156 Q26.3594,345.625 26.125,345.8906 Q25.8906,346.1563 25.5156,346.1563 Q25.1719,346.1563 24.9688,345.9531 Q24.7656,345.7656 24.6563,345.25 Q24.6094,344.8906 24.4219,344.7031 Q24.0938,344.3281 23.4844,344.1094 Q22.875,343.8906 22.25,343.8906 Q21.4844,343.8906 20.8438,344.2188 Q20.2188,344.5469 19.7188,345.2969 Q19.2344,346.0469 19.2344,347.0781 L19.2344,348.1719 Q19.2344,349.4063 20.125,350.2344 Q21.0156,351.0469 22.6094,351.0469 Q23.5469,351.0469 24.2031,350.7969 Q24.5938,350.6406 25.0156,350.2031 Q25.2813,349.9375 25.4219,349.8594 Q25.5781,349.7813 25.7813,349.7813 Q26.1094,349.7813 26.3594,350.0469 Q26.625,350.2969 26.625,350.6406 Q26.625,350.9844 26.2813,351.3906 Q25.7813,351.9688 24.9844,352.2969 Q23.9063,352.75 22.6094,352.75 Q21.0938,352.75 19.8906,352.125 Q18.9063,351.625 18.2188,350.5625 Q17.5313,349.4844 17.5313,348.2031 L17.5313,347.0469 Q17.5313,345.7188 18.1406,344.5781 Q18.7656,343.4219 19.8594,342.8125 Q20.9531,342.1875 22.1875,342.1875 Q22.9219,342.1875 23.5625,342.3594 Q24.2188,342.5156 24.7656,342.875 Z " fill="#000000"/><text fill="#000000" font-family="sans-serif" font-size="14" lengthAdjust="spacing" textLength="117" x="36" y="352.7285">PlayableCharacter</text><line style="stroke:#181818;stroke-width:0.5;" x1="8" x2="155" y1="363" y2="363"/><line style="stroke:#181818;stroke-width:0.5;" x1="8" x2="155" y1="371" y2="371"/></g><!--MD5=[8a5d3dd71bddc3db401ae10bbcea4261]
class NonPlayableCharacter--><g id="elem_NonPlayableCharacter"><rect codeLine="22" fill="#F1F1F1" height="48" id="NonPlayableCharacter" rx="2.5" ry="2.5" style="stroke:#181818;stroke-width:0.5;" width="174" x="191.5" y="331"/><ellipse cx="206.5" cy="347" fill="#ADD1B2" rx="11" ry="11" style="stroke:#181818;stroke-width:1.0;"/><path d="M209.2656,342.875 Q209.4219,342.6563 209.6094,342.5469 Q209.7969,342.4375 210.0156,342.4375 Q210.3906,342.4375 210.625,342.7031 Q210.8594,342.9531 210.8594,343.5625 L210.8594,345.0156 Q210.8594,345.625 210.625,345.8906 Q210.3906,346.1563 210.0156,346.1563 Q209.6719,346.1563 209.4688,345.9531 Q209.2656,345.7656 209.1563,345.25 Q209.1094,344.8906 208.9219,344.7031 Q208.5938,344.3281 207.9844,344.1094 Q207.375,343.8906 206.75,343.8906 Q205.9844,343.8906 205.3438,344.2188 Q204.7188,344.5469 204.2188,345.2969 Q203.7344,346.0469 203.7344,347.0781 L203.7344,348.1719 Q203.7344,349.4063 204.625,350.2344 Q205.5156,351.0469 207.1094,351.0469 Q208.0469,351.0469 208.7031,350.7969 Q209.0938,350.6406 209.5156,350.2031 Q209.7813,349.9375 209.9219,349.8594 Q210.0781,349.7813 210.2813,349.7813 Q210.6094,349.7813 210.8594,350.0469 Q211.125,350.2969 211.125,350.6406 Q211.125,350.9844 210.7813,351.3906 Q210.2813,351.9688 209.4844,352.2969 Q208.4063,352.75 207.1094,352.75 Q205.5938,352.75 204.3906,352.125 Q203.4063,351.625 202.7188,350.5625 Q202.0313,349.4844 202.0313,348.2031 L202.0313,347.0469 Q202.0313,345.7188 202.6406,344.5781 Q203.2656,343.4219 204.3594,342.8125 Q205.4531,342.1875 206.6875,342.1875 Q207.4219,342.1875 208.0625,342.3594 Q208.7188,342.5156 209.2656,342.875 Z " fill="#000000"/><text fill="#000000" font-family="sans-serif" font-size="14" lengthAdjust="spacing" textLength="142" x="220.5" y="352.7285">NonPlayableCharacter</text><line style="stroke:#181818;stroke-width:0.5;" x1="192.5" x2="364.5" y1="363" y2="363"/><line style="stroke:#181818;stroke-width:0.5;" x1="192.5" x2="364.5" y1="371" y2="371"/></g><!--MD5=[ea193e58bf01a8bb640ee5c4ebd1a9a0]
class Transport--><g id="elem_Transport"><rect codeLine="25" fill="#F1F1F1" height="48" id="Transport" rx="2.5" ry="2.5" style="stroke:#181818;stroke-width:0.5;" width="94" x="400.5" y="331"/><ellipse cx="415.5" cy="347" fill="#ADD1B2" rx="11" ry="11" style="stroke:#181818;stroke-width:1.0;"/><path d="M418.2656,342.875 Q418.4219,342.6563 418.6094,342.5469 Q418.7969,342.4375 419.0156,342.4375 Q419.3906,342.4375 419.625,342.7031 Q419.8594,342.9531 419.8594,343.5625 L419.8594,345.0156 Q419.8594,345.625 419.625,345.8906 Q419.3906,346.1563 419.0156,346.1563 Q418.6719,346.1563 418.4688,345.9531 Q418.2656,345.7656 418.1563,345.25 Q418.1094,344.8906 417.9219,344.7031 Q417.5938,344.3281 416.9844,344.1094 Q416.375,343.8906 415.75,343.8906 Q414.9844,343.8906 414.3438,344.2188 Q413.7188,344.5469 413.2188,345.2969 Q412.7344,346.0469 412.7344,347.0781 L412.7344,348.1719 Q412.7344,349.4063 413.625,350.2344 Q414.5156,351.0469 416.1094,351.0469 Q417.0469,351.0469 417.7031,350.7969 Q418.0938,350.6406 418.5156,350.2031 Q418.7813,349.9375 418.9219,349.8594 Q419.0781,349.7813 419.2813,349.7813 Q419.6094,349.7813 419.8594,350.0469 Q420.125,350.2969 420.125,350.6406 Q420.125,350.9844 419.7813,351.3906 Q419.2813,351.9688 418.4844,352.2969 Q417.4063,352.75 416.1094,352.75 Q414.5938,352.75 413.3906,352.125 Q412.4063,351.625 411.7188,350.5625 Q411.0313,349.4844 411.0313,348.2031 L411.0313,347.0469 Q411.0313,345.7188 411.6406,344.5781 Q412.2656,343.4219 413.3594,342.8125 Q414.4531,342.1875 415.6875,342.1875 Q416.4219,342.1875 417.0625,342.3594 Q417.7188,342.5156 418.2656,342.875 Z " fill="#000000"/><text fill="#000000" font-family="sans-serif" font-size="14" lengthAdjust="spacing" textLength="62" x="429.5" y="352.7285">Transport</text><line style="stroke:#181818;stroke-width:0.5;" x1="401.5" x2="493.5" y1="363" y2="363"/><line style="stroke:#181818;stroke-width:0.5;" x1="401.5" x2="493.5" y1="371" y2="371"/></g><!--MD5=[4ec2a1fd9830352bf1e093792ff63ea4]
link World to Map--><g id="link_World_Map"><path codeLine="28" d="M171.5,55 C171.5,71 171.5,92.45 171.5,109.53 " fill="none" id="World-to-Map" style="stroke:#181818;stroke-width:1.0;"/><polygon fill="#181818" points="171.5,114.68,175.5,105.68,171.5,109.68,167.5,105.68,171.5,114.68" style="stroke:#181818;stroke-width:1.0;"/></g><!--MD5=[11c1ab5ee2d38c8a2201f27c8ac19227]
link World to Entity--><g id="link_World_Entity"><path codeLine="29" d="M194.07,55 C210.17,71.42 231.9,93.56 248.86,110.84 " fill="none" id="World-to-Entity" style="stroke:#181818;stroke-width:1.0;"/><polygon fill="#181818" points="252.62,114.68,249.1775,105.4524,249.1204,111.1089,243.4638,111.0518,252.62,114.68" style="stroke:#181818;stroke-width:1.0;"/></g><!--MD5=[6cb9a2bf0c55ea2ed8b47585350dfcd7]
link World to Time--><g id="link_World_Time"><path codeLine="30" d="M150.67,55 C135.8,71.42 115.75,93.56 100.09,110.84 " fill="none" id="World-to-Time" style="stroke:#181818;stroke-width:1.0;"/><polygon fill="#181818" points="96.62,114.68,105.63,110.7026,99.9798,110.9771,99.7053,105.3269,96.62,114.68" style="stroke:#181818;stroke-width:1.0;"/></g><!--MD5=[e9d99feb6155aadda568cbe135df1ad8]
link Map to Tile--><g id="link_Map_Tile"><path codeLine="31" d="M170.85,163 C170.4,179 169.79,200.45 169.31,217.53 " fill="none" id="Map-to-Tile" style="stroke:#181818;stroke-width:1.0;"/><polygon fill="#181818" points="169.16,222.68,173.4154,213.7979,169.3028,217.682,165.4187,213.5694,169.16,222.68" style="stroke:#181818;stroke-width:1.0;"/></g><!--MD5=[fdeb01282213424aff0bb5207e251cf1]
reverse link Entity to Character--><g id="link_Entity_Character"><path codeLine="32" d="M276.72,183.02 C277.1,196.58 277.51,211.04 277.84,222.68 " fill="none" id="Entity-backto-Character" style="stroke:#181818;stroke-width:1.0;"/><polygon fill="none" points="269.72,183.19,276.15,163,283.71,182.79,269.72,183.19" style="stroke:#181818;stroke-width:1.0;"/></g><!--MD5=[bb74f2716c630fd564686171bb0dff78]
link Character to Transport--><g id="link_Character_Transport"><path codeLine="33" d="M315.17,271 C341.99,287.82 378.38,310.65 406.22,328.11 " fill="none" id="Character-to-Transport" style="stroke:#181818;stroke-width:1.0;"/><polygon fill="#181818" points="410.61,330.86,405.1054,322.693,406.3724,328.2062,400.8593,329.4732,410.61,330.86" style="stroke:#181818;stroke-width:1.0;"/></g><!--MD5=[ea3c630b14af6fd020fb89d43324e7e4]
reverse link Character to PlayableCharacter--><g id="link_Character_PlayableCharacter"><path codeLine="34" d="M217.8,280.66 C187.61,296.91 151.83,316.16 124.5,330.86 " fill="none" id="Character-backto-PlayableCharacter" style="stroke:#181818;stroke-width:1.0;"/><polygon fill="none" points="214.82,274.31,235.75,271,221.46,286.64,214.82,274.31" style="stroke:#181818;stroke-width:1.0;"/></g><!--MD5=[65918cc59a60932d252dffcdd5e039f3]
reverse link Character to NonPlayableCharacter--><g id="link_Character_NonPlayableCharacter"><path codeLine="35" d="M278.5,291.02 C278.5,304.58 278.5,319.04 278.5,330.68 " fill="none" id="Character-backto-NonPlayableCharacter" style="stroke:#181818;stroke-width:1.0;"/><polygon fill="none" points="271.5,291,278.5,271,285.5,291,271.5,291" style="stroke:#181818;stroke-width:1.0;"/></g><!--MD5=[ad7c2d68d964acf6381a10a0e63c4d76]
@startuml ModeloDeDominio-PyMundo

class World{
}

class Time {
}

class Map{
}

class Tile {
}

abstract class Entity {
}

abstract class Character {
}

class PlayableCharacter{
}
class NonPlayableCharacter {
}

class Transport {
}

World - -> Map
World - -> Entity
World - -> Time
Map - -> Tile
Entity <|- - Character
Character - -> Transport
Character <|- - PlayableCharacter
Character <|- - NonPlayableCharacter
@enduml

PlantUML version 1.2022.7(Mon Aug 22 19:01:30 CEST 2022)
(GPL source distribution)
Java Runtime: Java(TM) SE Runtime Environment
JVM: Java HotSpot(TM) 64-Bit Server VM
Default Encoding: UTF-8
Language: es
Country: SV
--></g></svg>