<?xml version="1.0" encoding="us-ascii" standalone="no"?><svg xmlns="http://www.w3.org/2000/svg" xmlns:xlink="http://www.w3.org/1999/xlink" contentStyleType="text/css" height="535px" preserveAspectRatio="none" style="width:525px;height:535px;background:#FFFFFF;" version="1.1" viewBox="0 0 525 535" width="525px" zoomAndPan="magnify"><defs/><g><!--class World--><g id="elem_World"><rect codeLine="1" fill="#F1F1F1" height="96.8906" id="World" rx="2.5" ry="2.5" style="stroke:#181818;stroke-width:0.5;" width="166" x="210" y="7"/><ellipse cx="269.25" cy="23" fill="#ADD1B2" rx="11" ry="11" style="stroke:#181818;stroke-width:1.0;"/><path d="M272.2188,28.6406 Q271.6406,28.9375 271,29.0781 Q270.3594,29.2344 269.6563,29.2344 Q267.1563,29.2344 265.8281,27.5938 Q264.5156,25.9375 264.5156,22.8125 Q264.5156,19.6875 265.8281,18.0313 Q267.1563,16.375 269.6563,16.375 Q270.3594,16.375 271,16.5313 Q271.6563,16.6875 272.2188,16.9844 L272.2188,19.7031 Q271.5938,19.125 271,18.8594 Q270.4063,18.5781 269.7813,18.5781 Q268.4375,18.5781 267.75,19.6563 Q267.0625,20.7188 267.0625,22.8125 Q267.0625,24.9063 267.75,25.9844 Q268.4375,27.0469 269.7813,27.0469 Q270.4063,27.0469 271,26.7813 Q271.5938,26.5 272.2188,25.9219 L272.2188,28.6406 Z " fill="#000000"/><text fill="#000000" font-family="sans-serif" font-size="14" lengthAdjust="spacing" textLength="39" x="289.75" y="27.8467">World</text><line style="stroke:#181818;stroke-width:0.5;" x1="211" x2="375" y1="39" y2="39"/><ellipse cx="221" cy="52.6484" fill="none" rx="3" ry="3" style="stroke:#038048;stroke-width:1.0;"/><text fill="#000000" font-family="sans-serif" font-size="14" lengthAdjust="spacing" textLength="118" x="230" y="55.9951">List&lt;Map&gt; maps</text><ellipse cx="221" cy="68.9453" fill="none" rx="3" ry="3" style="stroke:#038048;stroke-width:1.0;"/><text fill="#000000" font-family="sans-serif" font-size="14" lengthAdjust="spacing" textLength="68" x="230" y="72.292">Time time</text><ellipse cx="221" cy="85.2422" fill="none" rx="3" ry="3" style="stroke:#038048;stroke-width:1.0;"/><text fill="#000000" font-family="sans-serif" font-size="14" lengthAdjust="spacing" textLength="140" x="230" y="88.5889">List&lt;Entity&gt; entities</text><line style="stroke:#181818;stroke-width:0.5;" x1="211" x2="375" y1="95.8906" y2="95.8906"/></g><!--class Time--><g id="elem_Time"><rect codeLine="7" fill="#F1F1F1" height="64.2969" id="Time" rx="2.5" ry="2.5" style="stroke:#181818;stroke-width:0.5;" width="186" x="7" y="181"/><ellipse cx="78.75" cy="197" fill="#ADD1B2" rx="11" ry="11" style="stroke:#181818;stroke-width:1.0;"/><path d="M81.7188,202.6406 Q81.1406,202.9375 80.5,203.0781 Q79.8594,203.2344 79.1563,203.2344 Q76.6563,203.2344 75.3281,201.5938 Q74.0156,199.9375 74.0156,196.8125 Q74.0156,193.6875 75.3281,192.0313 Q76.6563,190.375 79.1563,190.375 Q79.8594,190.375 80.5,190.5313 Q81.1563,190.6875 81.7188,190.9844 L81.7188,193.7031 Q81.0938,193.125 80.5,192.8594 Q79.9063,192.5781 79.2813,192.5781 Q77.9375,192.5781 77.25,193.6563 Q76.5625,194.7188 76.5625,196.8125 Q76.5625,198.9063 77.25,199.9844 Q77.9375,201.0469 79.2813,201.0469 Q79.9063,201.0469 80.5,200.7813 Q81.0938,200.5 81.7188,199.9219 L81.7188,202.6406 Z " fill="#000000"/><text fill="#000000" font-family="sans-serif" font-size="14" lengthAdjust="spacing" textLength="34" x="99.25" y="201.8467">Time</text><line style="stroke:#181818;stroke-width:0.5;" x1="8" x2="192" y1="213" y2="213"/><ellipse cx="18" cy="226.6484" fill="none" rx="3" ry="3" style="stroke:#038048;stroke-width:1.0;"/><text fill="#000000" font-family="sans-serif" font-size="14" lengthAdjust="spacing" textLength="160" x="27" y="229.9951">currentTime: DateTime</text><line style="stroke:#181818;stroke-width:0.5;" x1="8" x2="192" y1="237.2969" y2="237.2969"/></g><!--class Map--><g id="elem_Map"><rect codeLine="11" fill="#F1F1F1" height="64.2969" id="Map" rx="2.5" ry="2.5" style="stroke:#181818;stroke-width:0.5;" width="129" x="228.5" y="181"/><ellipse cx="274.25" cy="197" fill="#ADD1B2" rx="11" ry="11" style="stroke:#181818;stroke-width:1.0;"/><path d="M277.2188,202.6406 Q276.6406,202.9375 276,203.0781 Q275.3594,203.2344 274.6563,203.2344 Q272.1563,203.2344 270.8281,201.5938 Q269.5156,199.9375 269.5156,196.8125 Q269.5156,193.6875 270.8281,192.0313 Q272.1563,190.375 274.6563,190.375 Q275.3594,190.375 276,190.5313 Q276.6563,190.6875 277.2188,190.9844 L277.2188,193.7031 Q276.5938,193.125 276,192.8594 Q275.4063,192.5781 274.7813,192.5781 Q273.4375,192.5781 272.75,193.6563 Q272.0625,194.7188 272.0625,196.8125 Q272.0625,198.9063 272.75,199.9844 Q273.4375,201.0469 274.7813,201.0469 Q275.4063,201.0469 276,200.7813 Q276.5938,200.5 277.2188,199.9219 L277.2188,202.6406 Z " fill="#000000"/><text fill="#000000" font-family="sans-serif" font-size="14" lengthAdjust="spacing" textLength="29" x="294.75" y="201.8467">Map</text><line style="stroke:#181818;stroke-width:0.5;" x1="229.5" x2="356.5" y1="213" y2="213"/><ellipse cx="239.5" cy="226.6484" fill="none" rx="3" ry="3" style="stroke:#038048;stroke-width:1.0;"/><text fill="#000000" font-family="sans-serif" font-size="14" lengthAdjust="spacing" textLength="103" x="248.5" y="229.9951">List&lt;Tile&gt; tiles</text><line style="stroke:#181818;stroke-width:0.5;" x1="229.5" x2="356.5" y1="237.2969" y2="237.2969"/></g><!--class Tile--><g id="elem_Tile"><rect codeLine="15" fill="#F1F1F1" height="80.5938" id="Tile" rx="2.5" ry="2.5" style="stroke:#181818;stroke-width:0.5;" width="161" x="211.5" y="322"/><ellipse cx="275.75" cy="338" fill="#ADD1B2" rx="11" ry="11" style="stroke:#181818;stroke-width:1.0;"/><path d="M278.7188,343.6406 Q278.1406,343.9375 277.5,344.0781 Q276.8594,344.2344 276.1563,344.2344 Q273.6563,344.2344 272.3281,342.5938 Q271.0156,340.9375 271.0156,337.8125 Q271.0156,334.6875 272.3281,333.0313 Q273.6563,331.375 276.1563,331.375 Q276.8594,331.375 277.5,331.5313 Q278.1563,331.6875 278.7188,331.9844 L278.7188,334.7031 Q278.0938,334.125 277.5,333.8594 Q276.9063,333.5781 276.2813,333.5781 Q274.9375,333.5781 274.25,334.6563 Q273.5625,335.7188 273.5625,337.8125 Q273.5625,339.9063 274.25,340.9844 Q274.9375,342.0469 276.2813,342.0469 Q276.9063,342.0469 277.5,341.7813 Q278.0938,341.5 278.7188,340.9219 L278.7188,343.6406 Z " fill="#000000"/><text fill="#000000" font-family="sans-serif" font-size="14" lengthAdjust="spacing" textLength="24" x="296.25" y="342.8467">Tile</text><line style="stroke:#181818;stroke-width:0.5;" x1="212.5" x2="371.5" y1="354" y2="354"/><ellipse cx="222.5" cy="367.6484" fill="none" rx="3" ry="3" style="stroke:#038048;stroke-width:1.0;"/><text fill="#000000" font-family="sans-serif" font-size="14" lengthAdjust="spacing" textLength="126" x="231.5" y="370.9951">coordinates: Point</text><ellipse cx="222.5" cy="383.9453" fill="none" rx="3" ry="3" style="stroke:#038048;stroke-width:1.0;"/><text fill="#000000" font-family="sans-serif" font-size="14" lengthAdjust="spacing" textLength="135" x="231.5" y="387.292">terrainType: Terrain</text><line style="stroke:#181818;stroke-width:0.5;" x1="212.5" x2="371.5" y1="394.5938" y2="394.5938"/></g><!--class Entity--><g id="elem_Entity"><rect codeLine="20" fill="#F1F1F1" height="64.2969" id="Entity" rx="2.5" ry="2.5" style="stroke:#181818;stroke-width:0.5;" width="124" x="394" y="181"/><ellipse cx="432.85" cy="197" fill="#A9DCDF" rx="11" ry="11" style="stroke:#181818;stroke-width:1.0;"/><path d="M432.9594,192.3438 L431.8031,197.4219 L434.1313,197.4219 L432.9594,192.3438 Z M431.475,190.1094 L434.4594,190.1094 L437.8188,202.5 L435.3656,202.5 L434.6,199.4375 L431.3188,199.4375 L430.5688,202.5 L428.1313,202.5 L431.475,190.1094 Z " fill="#000000"/><text fill="#000000" font-family="sans-serif" font-size="14" font-style="italic" lengthAdjust="spacing" textLength="39" x="452.15" y="201.8467">Entity</text><line style="stroke:#181818;stroke-width:0.5;" x1="395" x2="517" y1="213" y2="213"/><ellipse cx="405" cy="226.6484" fill="none" rx="3" ry="3" style="stroke:#038048;stroke-width:1.0;"/><text fill="#000000" font-family="sans-serif" font-size="14" lengthAdjust="spacing" textLength="98" x="414" y="229.9951">location: Point</text><line style="stroke:#181818;stroke-width:0.5;" x1="395" x2="517" y1="237.2969" y2="237.2969"/></g><!--class Character--><g id="elem_Character"><rect codeLine="24" fill="#F1F1F1" height="48" id="Character" rx="2.5" ry="2.5" style="stroke:#181818;stroke-width:0.5;" width="99" x="407.5" y="338.5"/><ellipse cx="422.5" cy="354.5" fill="#ADD1B2" rx="11" ry="11" style="stroke:#181818;stroke-width:1.0;"/><path d="M425.4688,360.1406 Q424.8906,360.4375 424.25,360.5781 Q423.6094,360.7344 422.9063,360.7344 Q420.4063,360.7344 419.0781,359.0938 Q417.7656,357.4375 417.7656,354.3125 Q417.7656,351.1875 419.0781,349.5313 Q420.4063,347.875 422.9063,347.875 Q423.6094,347.875 424.25,348.0313 Q424.9063,348.1875 425.4688,348.4844 L425.4688,351.2031 Q424.8438,350.625 424.25,350.3594 Q423.6563,350.0781 423.0313,350.0781 Q421.6875,350.0781 421,351.1563 Q420.3125,352.2188 420.3125,354.3125 Q420.3125,356.4063 421,357.4844 Q421.6875,358.5469 423.0313,358.5469 Q423.6563,358.5469 424.25,358.2813 Q424.8438,358 425.4688,357.4219 L425.4688,360.1406 Z " fill="#000000"/><text fill="#000000" font-family="sans-serif" font-size="14" lengthAdjust="spacing" textLength="67" x="436.5" y="359.3467">Character</text><line style="stroke:#181818;stroke-width:0.5;" x1="408.5" x2="505.5" y1="370.5" y2="370.5"/><line style="stroke:#181818;stroke-width:0.5;" x1="408.5" x2="505.5" y1="378.5" y2="378.5"/></g><!--class Transport--><g id="elem_Transport"><rect codeLine="27" fill="#F1F1F1" height="48" id="Transport" rx="2.5" ry="2.5" style="stroke:#181818;stroke-width:0.5;" width="99" x="407.5" y="480"/><ellipse cx="422.5" cy="496" fill="#ADD1B2" rx="11" ry="11" style="stroke:#181818;stroke-width:1.0;"/><path d="M425.4688,501.6406 Q424.8906,501.9375 424.25,502.0781 Q423.6094,502.2344 422.9063,502.2344 Q420.4063,502.2344 419.0781,500.5938 Q417.7656,498.9375 417.7656,495.8125 Q417.7656,492.6875 419.0781,491.0313 Q420.4063,489.375 422.9063,489.375 Q423.6094,489.375 424.25,489.5313 Q424.9063,489.6875 425.4688,489.9844 L425.4688,492.7031 Q424.8438,492.125 424.25,491.8594 Q423.6563,491.5781 423.0313,491.5781 Q421.6875,491.5781 421,492.6563 Q420.3125,493.7188 420.3125,495.8125 Q420.3125,497.9063 421,498.9844 Q421.6875,500.0469 423.0313,500.0469 Q423.6563,500.0469 424.25,499.7813 Q424.8438,499.5 425.4688,498.9219 L425.4688,501.6406 Z " fill="#000000"/><text fill="#000000" font-family="sans-serif" font-size="14" lengthAdjust="spacing" textLength="67" x="436.5" y="500.8467">Transport</text><line style="stroke:#181818;stroke-width:0.5;" x1="408.5" x2="505.5" y1="512" y2="512"/><line style="stroke:#181818;stroke-width:0.5;" x1="408.5" x2="505.5" y1="520" y2="520"/></g><!--reverse link Entity to Character--><g id="link_Entity_Character"><path d="M456.3325,263.2796 C456.5225,291.1896 456.67,313.4 456.84,338.46 " fill="none" id="Entity-backto-Character" style="stroke:#181818;stroke-width:1.0;"/><polygon fill="none" points="456.21,245.28,450.3327,263.3204,462.3324,263.2387,456.21,245.28" style="stroke:#181818;stroke-width:1.0;"/></g><!--link World to Time--><g id="link_World_Time"><path codeLine="31" d="M234.04,104 C203.01,129.01 170.5015,155.1948 143.1815,177.2148 " fill="none" id="World-to-Time" style="stroke:#181818;stroke-width:1.0;"/><polygon fill="#181818" points="138.51,180.98,148.0274,178.4465,142.4029,177.8423,143.0071,172.2178,138.51,180.98" style="stroke:#181818;stroke-width:1.0;"/><polygon fill="#000000" points="198.1067,145.7037,206.9938,142.3167,203.3057,137.7399,198.1067,145.7037" style="stroke:#000000;stroke-width:1.0;"/><text fill="#000000" font-family="sans-serif" font-size="13" lengthAdjust="spacing" textLength="23" x="211" y="147.0669">has</text><text fill="#000000" font-family="sans-serif" font-size="13" lengthAdjust="spacing" textLength="8" x="217.1863" y="123.9589">1</text><text fill="#000000" font-family="sans-serif" font-size="13" lengthAdjust="spacing" textLength="8" x="137.6277" y="169.879">1</text></g><!--link World to Map--><g id="link_World_Map"><path codeLine="32" d="M293,104 C293,129.01 293,152.96 293,174.98 " fill="none" id="World-to-Map" style="stroke:#181818;stroke-width:1.0;"/><polygon fill="#181818" points="293,180.98,297,171.98,293,175.98,289,171.98,293,180.98" style="stroke:#181818;stroke-width:1.0;"/><polygon fill="#000000" points="298,147.5664,300.9389,138.5213,295.0611,138.5213,298,147.5664" style="stroke:#000000;stroke-width:1.0;"/><text fill="#000000" font-family="sans-serif" font-size="13" lengthAdjust="spacing" textLength="54" x="307" y="147.0669">contains</text><text fill="#000000" font-family="sans-serif" font-size="13" lengthAdjust="spacing" textLength="8" x="284.4375" y="123.9589">1</text><text fill="#000000" font-family="sans-serif" font-size="13" lengthAdjust="spacing" textLength="7" x="285.2781" y="169.879">*</text></g><!--link World to Entity--><g id="link_World_Entity"><path codeLine="33" d="M342.79,104 C369.01,129.01 396.0697,154.8173 419.1397,176.8373 " fill="none" id="World-to-Entity" style="stroke:#181818;stroke-width:1.0;"/><polygon fill="#181818" points="423.48,180.98,419.7314,171.8724,419.8631,177.5277,414.2078,177.6594,423.48,180.98" style="stroke:#181818;stroke-width:1.0;"/><polygon fill="#000000" points="398.6178,146.0177,394.1018,137.6477,390.0445,141.9007,398.6178,146.0177" style="stroke:#000000;stroke-width:1.0;"/><text fill="#000000" font-family="sans-serif" font-size="13" lengthAdjust="spacing" textLength="52" x="404" y="147.0669">includes</text><text fill="#000000" font-family="sans-serif" font-size="13" lengthAdjust="spacing" textLength="8" x="341.2292" y="123.9589">1</text><text fill="#000000" font-family="sans-serif" font-size="13" lengthAdjust="spacing" textLength="7" x="409.0509" y="169.879">*</text></g><!--link Map to Tile--><g id="link_Map_Tile"><path codeLine="34" d="M292.79,245.28 C292.64,267.61 292.47,291.8101 292.31,315.8301 " fill="none" id="Map-to-Tile" style="stroke:#181818;stroke-width:1.0;"/><polygon fill="#181818" points="292.27,321.83,296.3299,312.8568,292.3033,316.8301,288.33,312.8036,292.27,321.83" style="stroke:#181818;stroke-width:1.0;"/><polygon fill="#000000" points="297.966,288.5663,300.9664,279.5414,295.0887,279.5014,297.966,288.5663" style="stroke:#000000;stroke-width:1.0;"/><text fill="#000000" font-family="sans-serif" font-size="13" lengthAdjust="spacing" textLength="78" x="307" y="288.0669">organized in</text><text fill="#000000" font-family="sans-serif" font-size="13" lengthAdjust="spacing" textLength="8" x="283.9217" y="265.5346">1</text><text fill="#000000" font-family="sans-serif" font-size="13" lengthAdjust="spacing" textLength="7" x="284.735" y="310.9634">*</text></g><!--link Character to Transport--><g id="link_Character_Transport"><path codeLine="35" d="M457,386.54 C457,412.38 457,454.07 457,479.93 " fill="none" id="Character-Transport" style="stroke:#181818;stroke-width:1.0;"/><polygon fill="#000000" points="462,446.5664,464.9389,437.5213,459.0611,437.5213,462,446.5664" style="stroke:#000000;stroke-width:1.0;"/><text fill="#000000" font-family="sans-serif" font-size="13" lengthAdjust="spacing" textLength="30" x="471" y="446.0669">uses</text><text fill="#000000" font-family="sans-serif" font-size="13" lengthAdjust="spacing" textLength="8" x="447.975" y="406.706">n</text><text fill="#000000" font-family="sans-serif" font-size="13" lengthAdjust="spacing" textLength="24" x="429.925" y="468.9241">0..1</text></g><!--SRC=[RP1FJyCm3CNl_HHMZw1DS8rGBy0D90wLE9iaOfOoft9SmK1yT_9dMpj43atgFF_UYst0bE0rId3mtK5Urq-KzEuPfm7sEALM6sdlGVDd9Nba9JqCuCjEFdK_NMShhggFD3kBP4Kf6NX0zUMqIBFFXUz8mG_PALpomiABKHnn1YK3Bv5OMrsz21AFXodxZEsd4F0jgQ1LQAWM-WGBqQ9Iv1Ffx7Y_mzBa1VodUdQhnYML8ASfYhPYruROt_QmsGnrhtCmiCC4mz_hgxw-tO2Dh3dh_vAZgm5Y6sRdYwgqhJLrEWQYl2FJbtTPcrNB2thEMXS_U0FzpNPRSfsJ6vXJWVu2]--></g></svg>