<?xml version="1.0" encoding="us-ascii" standalone="no"?><svg xmlns="http://www.w3.org/2000/svg" xmlns:xlink="http://www.w3.org/1999/xlink" contentStyleType="text/css" height="1146px" preserveAspectRatio="none" style="width:488px;height:1146px;background:#FFFFFF;" version="1.1" viewBox="0 0 488 1146" width="488px" zoomAndPan="magnify"><defs/><g><!--cluster Initialization--><g id="cluster_Initialization"><path d="M24.5,81 L345.5,81 A12.5,12.5 0 0 1 358,93.5 L358,102.2969 L12,102.2969 L12,93.5 A12.5,12.5 0 0 1 24.5,81 " fill="#F1F1F1" style="stroke:#F1F1F1;stroke-width:1.0;"/><rect fill="none" height="982" rx="12.5" ry="12.5" style="stroke:#181818;stroke-width:0.5;" width="346" x="12" y="81"/><line style="stroke:#181818;stroke-width:0.5;" x1="12" x2="358" y1="102.2969" y2="102.2969"/><text fill="#000000" font-family="sans-serif" font-size="14" lengthAdjust="spacing" textLength="79" x="145.5" y="97.9951">Initialization</text></g><!--cluster Ready--><g id="cluster_Ready"><path d="M72.5,580 L305.5,580 A12.5,12.5 0 0 1 318,592.5 L318,601.2969 L60,601.2969 L60,592.5 A12.5,12.5 0 0 1 72.5,580 " fill="#F1F1F1" style="stroke:#F1F1F1;stroke-width:1.0;"/><rect fill="none" height="443" rx="12.5" ry="12.5" style="stroke:#181818;stroke-width:0.5;" width="258" x="60" y="580"/><line style="stroke:#181818;stroke-width:0.5;" x1="60" x2="318" y1="601.2969" y2="601.2969"/><text fill="#000000" font-family="sans-serif" font-size="14" lengthAdjust="spacing" textLength="43" x="167.5" y="596.9951">Ready</text></g><ellipse cx="232" cy="134" fill="#222222" rx="10" ry="10" style="stroke:#222222;stroke-width:1.0;"/><g id="Initialization.SetupTime"><rect fill="#F1F1F1" height="50" rx="12.5" ry="12.5" style="stroke:#181818;stroke-width:0.5;" width="95" x="184.5" y="205"/><line style="stroke:#181818;stroke-width:0.5;" x1="184.5" x2="279.5" y1="231.2969" y2="231.2969"/><text fill="#000000" font-family="sans-serif" font-size="14" lengthAdjust="spacing" textLength="75" x="194.5" y="222.9951">SetupTime</text></g><g id="Initialization.LoadMaps"><rect fill="#F1F1F1" height="50" rx="12.5" ry="12.5" style="stroke:#181818;stroke-width:0.5;" width="90" x="187" y="332"/><line style="stroke:#181818;stroke-width:0.5;" x1="187" x2="277" y1="358.2969" y2="358.2969"/><text fill="#000000" font-family="sans-serif" font-size="14" lengthAdjust="spacing" textLength="70" x="197" y="349.9951">LoadMaps</text></g><g id="Initialization.PopulateEntities"><rect fill="#F1F1F1" height="50" rx="12.5" ry="12.5" style="stroke:#181818;stroke-width:0.5;" width="132" x="166" y="459"/><line style="stroke:#181818;stroke-width:0.5;" x1="166" x2="298" y1="485.2969" y2="485.2969"/><text fill="#000000" font-family="sans-serif" font-size="14" lengthAdjust="spacing" textLength="112" x="176" y="476.9951">PopulateEntities</text></g><ellipse cx="185" cy="633" fill="#222222" rx="10" ry="10" style="stroke:#222222;stroke-width:1.0;"/><path d="M96.5,704 L273.5,704 A12.5,12.5 0 0 1 286,716.5 L286,730.2969 L84,730.2969 L84,716.5 A12.5,12.5 0 0 1 96.5,704 " fill="#F1F1F1" style="stroke:#F1F1F1;stroke-width:1.0;"/><rect fill="none" height="167.5313" rx="12.5" ry="12.5" style="stroke:#181818;stroke-width:0.5;" width="202" x="84" y="704"/><line style="stroke:#181818;stroke-width:0.5;" x1="84" x2="286" y1="730.2969" y2="730.2969"/><text fill="#000000" font-family="sans-serif" font-size="14" lengthAdjust="spacing" textLength="41" x="164.5" y="721.9951">Active</text><ellipse cx="186.5" cy="751.2969" fill="#222222" rx="10" ry="10" style="stroke:#222222;stroke-width:1.0;"/><g id="Initialization.Ready.Active.Operating"><rect fill="#F1F1F1" height="64.2344" rx="12.5" ry="12.5" style="stroke:#181818;stroke-width:0.5;" width="181" x="96" y="797.2969"/><line style="stroke:#181818;stroke-width:0.5;" x1="96" x2="277" y1="823.5938" y2="823.5938"/><text fill="#000000" font-family="sans-serif" font-size="14" lengthAdjust="spacing" textLength="68" x="152.5" y="815.292">Operating</text><text fill="#000000" font-family="sans-serif" font-size="12" lengthAdjust="spacing" textLength="112" x="101" y="839.7324">do / advance time</text><text fill="#000000" font-family="sans-serif" font-size="12" lengthAdjust="spacing" textLength="157" x="105" y="853.7012">update entities positions</text></g><!--link *start*Active to Operating--><g id="link_*start*Active_Operating"><path d="M186.5,761.3169 C186.5,770.1969 186.5,778.2969 186.5,791.2669 " fill="none" id="*start*Active-to-Operating" style="stroke:#181818;stroke-width:1.0;"/><polygon fill="#181818" points="186.5,797.2669,190.5,788.2669,186.5,792.2669,182.5,788.2669,186.5,797.2669" style="stroke:#181818;stroke-width:1.0;"/></g><g id="Initialization.Ready.Paused"><rect fill="#F1F1F1" height="50" rx="12.5" ry="12.5" style="stroke:#181818;stroke-width:0.5;" width="72" x="124" y="949"/><line style="stroke:#181818;stroke-width:0.5;" x1="124" x2="196" y1="975.2969" y2="975.2969"/><text fill="#000000" font-family="sans-serif" font-size="14" lengthAdjust="spacing" textLength="52" x="134" y="966.9951">Paused</text></g><ellipse cx="20" cy="16" fill="#222222" rx="10" ry="10" style="stroke:#222222;stroke-width:1.0;"/><g id="Terminated"><rect fill="#F1F1F1" height="50" rx="12.5" ry="12.5" style="stroke:#181818;stroke-width:0.5;" width="99" x="382.5" y="949"/><line style="stroke:#181818;stroke-width:0.5;" x1="382.5" x2="481.5" y1="975.2969" y2="975.2969"/><text fill="#000000" font-family="sans-serif" font-size="14" lengthAdjust="spacing" textLength="79" x="392.5" y="966.9951">Terminated</text></g><ellipse cx="432" cy="1129" fill="none" rx="11" ry="11" style="stroke:#222222;stroke-width:1.0;"/><ellipse cx="432" cy="1129" fill="#222222" rx="6" ry="6" style="stroke:#222222;stroke-width:1.0;"/><!--link *start* to Initialization--><g id="link_*start*_Initialization"><path d="M20,26.1 C20,32.83 20,42.7219 20,53.8117 C20,59.3566 20,65.2011 20,71.0995 C20,74.0487 20,77.0114 20,79.9569 C20,80.141 20,74.325 20,74.509 " fill="none" id="*start*-to-Initialization" style="stroke:#181818;stroke-width:1.0;"/><polygon fill="#181818" points="20,80.509,24,71.509,20,75.509,16,71.509,20,80.509" style="stroke:#181818;stroke-width:1.0;"/></g><!--link *start*Initialization to SetupTime--><g id="link_*start*Initialization_SetupTime"><path d="M232,144.01 C232,157.89 232,178.97 232,198.84 " fill="none" id="*start*Initialization-to-SetupTime" style="stroke:#181818;stroke-width:1.0;"/><polygon fill="#181818" points="232,204.84,236,195.84,232,199.84,228,195.84,232,204.84" style="stroke:#181818;stroke-width:1.0;"/></g><!--link SetupTime to LoadMaps--><g id="link_SetupTime_LoadMaps"><path d="M232,255.1 C232,277.24 232,303.86 232,325.97 " fill="none" id="SetupTime-to-LoadMaps" style="stroke:#181818;stroke-width:1.0;"/><polygon fill="#181818" points="232,331.97,236,322.97,232,326.97,228,322.97,232,331.97" style="stroke:#181818;stroke-width:1.0;"/><text fill="#000000" font-family="sans-serif" font-size="13" lengthAdjust="spacing" textLength="83" x="233" y="298.0669">maps loaded</text></g><!--link LoadMaps to PopulateEntities--><g id="link_LoadMaps_PopulateEntities"><path d="M232,382.1 C232,404.24 232,430.86 232,452.97 " fill="none" id="LoadMaps-to-PopulateEntities" style="stroke:#181818;stroke-width:1.0;"/><polygon fill="#181818" points="232,458.97,236,449.97,232,453.97,228,449.97,232,458.97" style="stroke:#181818;stroke-width:1.0;"/><text fill="#000000" font-family="sans-serif" font-size="13" lengthAdjust="spacing" textLength="93" x="233" y="425.0669">entities placed</text></g><!--link PopulateEntities to Ready--><g id="link_PopulateEntities_Ready"><path d="M260.52,509.12 C275.46,523.46 292.56,542.93 302,564 C303.5063,567.3625 304.765,570.9078 305.8141,574.5423 C306.0764,575.451 306.3255,576.3652 306.5622,577.2835 C306.6805,577.7427 306.7957,578.2029 306.9079,578.6639 C306.964,578.8944 307.0193,579.1251 307.0738,579.3561 C307.1011,579.4715 305.7677,573.7433 305.7946,573.8589 " fill="none" id="PopulateEntities-to-Ready" style="stroke:#181818;stroke-width:1.0;"/><polygon fill="#181818" points="307.1551,579.7026,309.0101,570.03,306.0213,574.8328,301.2185,571.844,307.1551,579.7026" style="stroke:#181818;stroke-width:1.0;"/><text fill="#000000" font-family="sans-serif" font-size="13" lengthAdjust="spacing" textLength="100" x="298" y="552.0669">setup complete</text></g><!--link *start*Ready to Active--><g id="link_*start*Ready_Active"><path d="M185,643.11 C185,655.59 185,673.27 185,697.87 " fill="none" id="*start*Ready-to-Active" style="stroke:#181818;stroke-width:1.0;"/><polygon fill="#181818" points="185,703.87,189,694.87,185,698.87,181,694.87,185,703.87" style="stroke:#181818;stroke-width:1.0;"/></g><!--link Active to Paused--><g id="link_Active_Paused"><path d="M127.51,872.14 C122.84,881.87 118.83,891.93 116,902 C111.25,918.89 116.8621,931.1706 128.2721,944.1706 " fill="none" id="Active-to-Paused" style="stroke:#181818;stroke-width:1.0;"/><polygon fill="#181818" points="132.23,948.68,129.2994,939.2772,128.9318,944.9221,123.2869,944.5544,132.23,948.68" style="stroke:#181818;stroke-width:1.0;"/><text fill="#000000" font-family="sans-serif" font-size="13" lengthAdjust="spacing" textLength="39" x="117" y="915.0669">pause</text></g><!--link Paused to Active--><g id="link_Paused_Active"><path d="M163.27,948.94 C165.95,929.22 169.091,906.0652 172.901,878.0652 " fill="none" id="Paused-to-Active" style="stroke:#181818;stroke-width:1.0;"/><polygon fill="#181818" points="173.71,872.12,168.5331,880.4985,173.0359,877.0743,176.46,881.5771,173.71,872.12" style="stroke:#181818;stroke-width:1.0;"/><text fill="#000000" font-family="sans-serif" font-size="13" lengthAdjust="spacing" textLength="49" x="171" y="915.0669">resume</text></g><!--link Ready to Terminated--><g id="link_Ready_Terminated"><path d="M318.0605,656.4018 C318.2696,656.9828 318.4822,657.5736 318.6983,658.1739 C320.4267,662.9768 322.3758,668.393 324.5117,674.3281 C333.0553,698.0687 344.5869,730.1125 356.9313,764.415 C381.62,833.02 407.5284,905.0144 421.3184,943.3344 " fill="none" id="Ready-to-Terminated" style="stroke:#181818;stroke-width:1.0;"/><polygon fill="#181818" points="423.35,948.98,424.0663,939.1572,421.657,944.2754,416.5388,941.8661,423.35,948.98" style="stroke:#181818;stroke-width:1.0;"/><text fill="#000000" font-family="sans-serif" font-size="13" lengthAdjust="spacing" textLength="61" x="396" y="792.5669">shutdown</text></g><!--link Active to Terminated--><g id="link_Active_Terminated"><path d="M270.01,872.11 C288.73,888.56 308.97,905.04 329,919 C345.57,930.54 359.5589,938.596 376.9689,947.426 " fill="none" id="Active-to-Terminated" style="stroke:#181818;stroke-width:1.0;"/><polygon fill="#181818" points="382.32,950.14,376.1027,942.5016,377.8607,947.8784,372.484,949.6364,382.32,950.14" style="stroke:#181818;stroke-width:1.0;"/><text fill="#000000" font-family="sans-serif" font-size="13" lengthAdjust="spacing" textLength="61" x="330" y="915.0669">shutdown</text></g><!--link Terminated to *end*--><g id="link_Terminated_*end*"><path d="M432,999.24 C432,1033.28 432,1087.77 432,1111.77 " fill="none" id="Terminated-to-*end*" style="stroke:#181818;stroke-width:1.0;"/><polygon fill="#181818" points="432,1117.77,436,1108.77,432,1112.77,428,1108.77,432,1117.77" style="stroke:#181818;stroke-width:1.0;"/></g><!--SRC=[RL0zJmCn3DtpApmZLUmCI0mCIA1MfLlfO5qi6YbVkZX5WFhViI_NwxKbI_pndj-pjtSxM2mUuIKwTkZT3x9BqPZ2o7HLXLy3yhOZvPsuveqBD5IdREYz9hHlc0iyGD3FIqvs04ujnQrIhbwKdYEB4YcUJc7ss8sS6vXoruJsMmX5bQ5B8NjYCiUJ-TQ_zFpKiJiqmoriBh0MiZ8gQz0KM-dCaMvFfOQPmDYuL5XcwkLQyNEeJfdGRO9xG7l0s16mNEeZGirM9vrtJiNfgOkgj0Lqw8RwuA8WrMJPLxRfAvhP1ly3pAoiAF7u1m00]--></g></svg>