<?xml version="1.0" encoding="us-ascii" standalone="no"?><svg xmlns="http://www.w3.org/2000/svg" xmlns:xlink="http://www.w3.org/1999/xlink" contentStyleType="text/css" height="316px" preserveAspectRatio="none" style="width:1241px;height:316px;background:#FFFFFF;" version="1.1" viewBox="0 0 1241 316" width="1241px" zoomAndPan="magnify"><defs/><g><g id="elem_World"><rect fill="#F1F1F1" height="77.1875" style="stroke:#181818;stroke-width:0.5;" width="346" x="521.5" y="7"/><text fill="#000000" font-family="sans-serif" font-size="14" lengthAdjust="spacing" textLength="39" x="675" y="21.9951">World</text><line style="stroke:#181818;stroke-width:0.5;" x1="522.5" x2="866.5" y1="27.2969" y2="27.2969"/><text fill="#000000" font-family="sans-serif" font-size="14" lengthAdjust="spacing" textLength="236" x="527.5" y="44.292">maps = List&lt;Map&gt;{Map1, Map2}</text><text fill="#000000" font-family="sans-serif" font-size="14" lengthAdjust="spacing" textLength="143" x="527.5" y="60.5889">time = TimeInstance</text><text fill="#000000" font-family="sans-serif" font-size="14" lengthAdjust="spacing" textLength="334" x="527.5" y="76.8857">entities = List&lt;Entity&gt;{Character1, Transport1}</text></g><g id="elem_TimeInstance"><rect fill="#F1F1F1" height="44.5938" style="stroke:#181818;stroke-width:0.5;" width="162" x="74.5" y="144"/><text fill="#000000" font-family="sans-serif" font-size="14" lengthAdjust="spacing" textLength="93" x="109" y="158.9951">TimeInstance</text><line style="stroke:#181818;stroke-width:0.5;" x1="75.5" x2="235.5" y1="164.2969" y2="164.2969"/><text fill="#000000" font-family="sans-serif" font-size="14" lengthAdjust="spacing" textLength="150" x="80.5" y="181.292">currentTime = "1235"</text></g><g id="elem_Map1"><rect fill="#F1F1F1" height="44.5938" style="stroke:#181818;stroke-width:0.5;" width="223" x="272" y="144"/><text fill="#000000" font-family="sans-serif" font-size="14" lengthAdjust="spacing" textLength="38" x="364.5" y="158.9951">Map1</text><line style="stroke:#181818;stroke-width:0.5;" x1="273" x2="494" y1="164.2969" y2="164.2969"/><text fill="#000000" font-family="sans-serif" font-size="14" lengthAdjust="spacing" textLength="211" x="278" y="181.292">tiles = List&lt;Tile&gt;{Tile1, Tile2}</text></g><g id="elem_Map2"><rect fill="#F1F1F1" height="44.5938" style="stroke:#181818;stroke-width:0.5;" width="223" x="583" y="144"/><text fill="#000000" font-family="sans-serif" font-size="14" lengthAdjust="spacing" textLength="38" x="675.5" y="158.9951">Map2</text><line style="stroke:#181818;stroke-width:0.5;" x1="584" x2="805" y1="164.2969" y2="164.2969"/><text fill="#000000" font-family="sans-serif" font-size="14" lengthAdjust="spacing" textLength="211" x="589" y="181.292">tiles = List&lt;Tile&gt;{Tile3, Tile4}</text></g><g id="elem_Tile1"><rect fill="#F1F1F1" height="60.8906" style="stroke:#181818;stroke-width:0.5;" width="223" x="7" y="249"/><text fill="#000000" font-family="sans-serif" font-size="14" lengthAdjust="spacing" textLength="33" x="102" y="263.9951">Tile1</text><line style="stroke:#181818;stroke-width:0.5;" x1="8" x2="229" y1="269.2969" y2="269.2969"/><text fill="#000000" font-family="sans-serif" font-size="14" lengthAdjust="spacing" textLength="211" x="13" y="286.292">coordinates = Point(x=0, y=0)</text><text fill="#000000" font-family="sans-serif" font-size="14" lengthAdjust="spacing" textLength="167" x="13" y="302.5889">terrainType = Grassland</text></g><g id="elem_Tile2"><rect fill="#F1F1F1" height="60.8906" style="stroke:#181818;stroke-width:0.5;" width="223" x="265" y="249"/><text fill="#000000" font-family="sans-serif" font-size="14" lengthAdjust="spacing" textLength="33" x="360" y="263.9951">Tile2</text><line style="stroke:#181818;stroke-width:0.5;" x1="266" x2="487" y1="269.2969" y2="269.2969"/><text fill="#000000" font-family="sans-serif" font-size="14" lengthAdjust="spacing" textLength="211" x="271" y="286.292">coordinates = Point(x=1, y=0)</text><text fill="#000000" font-family="sans-serif" font-size="14" lengthAdjust="spacing" textLength="167" x="271" y="302.5889">terrainType = Grassland</text></g><g id="elem_Tile3"><rect fill="#F1F1F1" height="60.8906" style="stroke:#181818;stroke-width:0.5;" width="223" x="523" y="249"/><text fill="#000000" font-family="sans-serif" font-size="14" lengthAdjust="spacing" textLength="33" x="618" y="263.9951">Tile3</text><line style="stroke:#181818;stroke-width:0.5;" x1="524" x2="745" y1="269.2969" y2="269.2969"/><text fill="#000000" font-family="sans-serif" font-size="14" lengthAdjust="spacing" textLength="211" x="529" y="286.292">coordinates = Point(x=0, y=1)</text><text fill="#000000" font-family="sans-serif" font-size="14" lengthAdjust="spacing" textLength="142" x="529" y="302.5889">terrainType = Forest</text></g><g id="elem_Tile4"><rect fill="#F1F1F1" height="60.8906" style="stroke:#181818;stroke-width:0.5;" width="223" x="781" y="249"/><text fill="#000000" font-family="sans-serif" font-size="14" lengthAdjust="spacing" textLength="33" x="876" y="263.9951">Tile4</text><line style="stroke:#181818;stroke-width:0.5;" x1="782" x2="1003" y1="269.2969" y2="269.2969"/><text fill="#000000" font-family="sans-serif" font-size="14" lengthAdjust="spacing" textLength="211" x="787" y="286.292">coordinates = Point(x=1, y=1)</text><text fill="#000000" font-family="sans-serif" font-size="14" lengthAdjust="spacing" textLength="142" x="787" y="302.5889">terrainType = Forest</text></g><g id="elem_Character1"><rect fill="#F1F1F1" height="44.5938" style="stroke:#181818;stroke-width:0.5;" width="195" x="868" y="144"/><text fill="#000000" font-family="sans-serif" font-size="14" lengthAdjust="spacing" textLength="76" x="927.5" y="158.9951">Character1</text><line style="stroke:#181818;stroke-width:0.5;" x1="869" x2="1062" y1="164.2969" y2="164.2969"/><text fill="#000000" font-family="sans-serif" font-size="14" lengthAdjust="spacing" textLength="183" x="874" y="181.292">location = Point(x=0, y=0)</text></g><g id="elem_Transport1"><rect fill="#F1F1F1" height="44.5938" style="stroke:#181818;stroke-width:0.5;" width="195" x="1039" y="257"/><text fill="#000000" font-family="sans-serif" font-size="14" lengthAdjust="spacing" textLength="76" x="1098.5" y="271.9951">Transport1</text><line style="stroke:#181818;stroke-width:0.5;" x1="1040" x2="1233" y1="277.2969" y2="277.2969"/><text fill="#000000" font-family="sans-serif" font-size="14" lengthAdjust="spacing" textLength="183" x="1045" y="294.292">location = Point(x=1, y=1)</text></g><g id="elem_Grassland"><rect fill="#F1F1F1" height="36.2969" style="stroke:#181818;stroke-width:0.5;" width="83" x="903" y="27.5"/><text fill="#000000" font-family="sans-serif" font-size="14" lengthAdjust="spacing" textLength="69" x="910" y="42.4951">Grassland</text><line style="stroke:#181818;stroke-width:0.5;" x1="904" x2="985" y1="47.7969" y2="47.7969"/></g><g id="elem_Forest"><rect fill="#F1F1F1" height="36.2969" style="stroke:#181818;stroke-width:0.5;" width="58" x="1021.5" y="27.5"/><text fill="#000000" font-family="sans-serif" font-size="14" lengthAdjust="spacing" textLength="44" x="1028.5" y="42.4951">Forest</text><line style="stroke:#181818;stroke-width:0.5;" x1="1022.5" x2="1078.5" y1="47.7969" y2="47.7969"/></g><!--link World to TimeInstance--><g id="link_World_TimeInstance"><path codeLine="54" d="M524.33,84.07 C428.23,105.29 318.3989,129.5365 242.5289,146.2865 " fill="none" id="World-to-TimeInstance" style="stroke:#181818;stroke-width:1.0;"/><polygon fill="#181818" points="236.67,147.58,246.3207,149.5457,241.5524,146.5021,244.596,141.7338,236.67,147.58" style="stroke:#181818;stroke-width:1.0;"/><text fill="#000000" font-family="sans-serif" font-size="13" lengthAdjust="spacing" textLength="8" x="505.7165" y="98.9426">1</text><text fill="#000000" font-family="sans-serif" font-size="13" lengthAdjust="spacing" textLength="8" x="244.5216" y="142.2361">1</text></g><!--link World to Map1--><g id="link_World_Map1"><path codeLine="55" d="M596.1,84.15 C544.67,103.83 489.1635,125.065 445.6935,141.705 " fill="none" id="World-to-Map1" style="stroke:#181818;stroke-width:1.0;"/><polygon fill="#181818" points="440.09,143.85,449.9252,144.3682,444.7596,142.0625,447.0652,136.8969,440.09,143.85" style="stroke:#181818;stroke-width:1.0;"/><text fill="#000000" font-family="sans-serif" font-size="13" lengthAdjust="spacing" textLength="8" x="570.5" y="104.1442">1</text><text fill="#000000" font-family="sans-serif" font-size="13" lengthAdjust="spacing" textLength="7" x="447.3579" y="132.8865">*</text></g><!--link World to Map2--><g id="link_World_Map2"><path codeLine="56" d="M694.5,84.15 C694.5,103.76 694.5,121.05 694.5,137.67 " fill="none" id="World-to-Map2" style="stroke:#181818;stroke-width:1.0;"/><polygon fill="#181818" points="694.5,143.67,698.5,134.67,694.5,138.67,690.5,134.67,694.5,143.67" style="stroke:#181818;stroke-width:1.0;"/><text fill="#000000" font-family="sans-serif" font-size="13" lengthAdjust="spacing" textLength="8" x="685.8125" y="104.1442">1</text><text fill="#000000" font-family="sans-serif" font-size="13" lengthAdjust="spacing" textLength="7" x="686.6031" y="133.0339">*</text></g><!--link World to Character1--><g id="link_World_Character1"><path codeLine="57" d="M780.25,84.15 C825.06,103.83 872.8167,124.7969 910.6967,141.4369 " fill="none" id="World-to-Character1" style="stroke:#181818;stroke-width:1.0;"/><polygon fill="#181818" points="916.19,143.85,909.5587,136.5681,911.6122,141.8391,906.3412,143.8925,916.19,143.85" style="stroke:#181818;stroke-width:1.0;"/><text fill="#000000" font-family="sans-serif" font-size="13" lengthAdjust="spacing" textLength="8" x="786.3008" y="104.1442">1</text><text fill="#000000" font-family="sans-serif" font-size="13" lengthAdjust="spacing" textLength="7" x="894.9973" y="132.8865">*</text></g><!--link World to Transport1--><g id="link_World_Transport1"><path codeLine="58" d="M867.65,82.78 C962.11,103.88 1063.31,129.17 1080.5,144 C1114.59,173.41 1127.3178,221.0395 1132.5378,250.9295 " fill="none" id="World-to-Transport1" style="stroke:#181818;stroke-width:1.0;"/><polygon fill="#181818" points="1133.57,256.84,1135.962,247.286,1132.7098,251.9145,1128.0813,248.6623,1133.57,256.84" style="stroke:#181818;stroke-width:1.0;"/><text fill="#000000" font-family="sans-serif" font-size="13" lengthAdjust="spacing" textLength="8" x="875.6771" y="81.1951">1</text><text fill="#000000" font-family="sans-serif" font-size="13" lengthAdjust="spacing" textLength="7" x="1124.8419" y="245.8738">*</text></g><!--link Map1 to Tile1--><g id="link_Map1_Tile1"><path codeLine="59" d="M332.09,189.03 C291.45,206.06 239.814,227.6816 194.844,246.5216 " fill="none" id="Map1-to-Tile1" style="stroke:#181818;stroke-width:1.0;"/><polygon fill="#181818" points="189.31,248.84,199.1566,249.0517,193.9216,246.908,196.0653,241.673,189.31,248.84" style="stroke:#181818;stroke-width:1.0;"/><text fill="#000000" font-family="sans-serif" font-size="13" lengthAdjust="spacing" textLength="8" x="310.5838" y="208.4824">1</text><text fill="#000000" font-family="sans-serif" font-size="13" lengthAdjust="spacing" textLength="7" x="196.1927" y="238.0614">*</text></g><!--link Map1 to Tile2--><g id="link_Map1_Tile2"><path codeLine="60" d="M382.13,189.17 C381.06,206.2 379.9259,224.1218 378.7459,242.9218 " fill="none" id="Map1-to-Tile2" style="stroke:#181818;stroke-width:1.0;"/><polygon fill="#181818" points="378.37,248.91,382.9259,240.1782,378.6832,243.9198,374.9416,239.6771,378.37,248.91" style="stroke:#181818;stroke-width:1.0;"/><text fill="#000000" font-family="sans-serif" font-size="13" lengthAdjust="spacing" textLength="8" x="372.8211" y="208.6565">1</text><text fill="#000000" font-family="sans-serif" font-size="13" lengthAdjust="spacing" textLength="7" x="371.0338" y="238.1458">*</text></g><!--link Map2 to Tile3--><g id="link_Map2_Tile3"><path codeLine="61" d="M682.79,189.17 C673.58,206.2 663.5148,224.8327 653.3448,243.6327 " fill="none" id="Map2-to-Tile3" style="stroke:#181818;stroke-width:1.0;"/><polygon fill="#181818" points="650.49,248.91,658.2904,242.8972,652.869,244.5122,651.254,239.0908,650.49,248.91" style="stroke:#181818;stroke-width:1.0;"/><text fill="#000000" font-family="sans-serif" font-size="13" lengthAdjust="spacing" textLength="8" x="670.9607" y="208.6565">1</text><text fill="#000000" font-family="sans-serif" font-size="13" lengthAdjust="spacing" textLength="7" x="646.0661" y="238.1458">*</text></g><!--link Map2 to Tile4--><g id="link_Map2_Tile4"><path codeLine="62" d="M733.15,189.17 C763.53,206.2 800.9565,227.1756 834.4865,245.9756 " fill="none" id="Map2-to-Tile4" style="stroke:#181818;stroke-width:1.0;"/><polygon fill="#181818" points="839.72,248.91,833.826,241.0194,835.3588,246.4647,829.9135,247.9974,839.72,248.91" style="stroke:#181818;stroke-width:1.0;"/><text fill="#000000" font-family="sans-serif" font-size="13" lengthAdjust="spacing" textLength="8" x="733.5959" y="208.6565">1</text><text fill="#000000" font-family="sans-serif" font-size="13" lengthAdjust="spacing" textLength="7" x="821.1123" y="238.1458">*</text></g><!--link Character1 to Transport1--><g id="link_Character1_Transport1"><path codeLine="63" d="M998.88,189.17 C1029.01,208.72 1073.1,237.35 1103.21,256.89 " fill="none" id="Character1-Transport1" style="stroke:#181818;stroke-width:1.0;"/><text fill="#000000" font-family="sans-serif" font-size="13" lengthAdjust="spacing" textLength="8" x="998.0414" y="208.6565">n</text><text fill="#000000" font-family="sans-serif" font-size="13" lengthAdjust="spacing" textLength="24" x="1067.0383" y="245.9373">0..1</text></g><!--SRC=[bL9DJyGW5BppAmWdDTjDeUlDxSMeCT74GnFFs9A8wK83psZJzBzBONVx4TpL7XvX7ZDleAFVFaG9-5MRki8TmkxRySRYBNwI5cwUUPDthj0LTfNr_W38dN072hSyAWjSbSBZGe44AOxaks7VvjtjEpUy166SIc6uieqsG7lK8wJ3-AdKtaNvQOmJBC8iGbbsJIQCmTF-9CXwd5cuJTuDTHZc5jRFMUmqAmkipToTKplOqjfKKd7mv1Sj5LnyRzCLRhVfPH0Mnd2fYhOPZ3yORctDLRNGOoVrwB_rilF-Q4plNXjXOI6sEM_kRsBZdzyhrhha8BMAlDt4mZ4ZlxCE9aRMyMKSQKI3fG25a1DAS9BaVfr5UD6-8ZvaSPX5uF6oaUPu9-IZE-iD-Oh33Fd8Bk4i3c_GvC69SirAVwa4atIzfZCFFm00]--></g></svg>