<?xml version="1.0" encoding="us-ascii" standalone="no"?><svg xmlns="http://www.w3.org/2000/svg" xmlns:xlink="http://www.w3.org/1999/xlink" contentStyleType="text/css" height="932px" preserveAspectRatio="none" style="width:901px;height:932px;background:#FFFFFF;" version="1.1" viewBox="0 0 901 932" width="901px" zoomAndPan="magnify"><defs/><g><text fill="#000000" font-family="sans-serif" font-size="14" font-weight="bold" lengthAdjust="spacing" textLength="146" x="370.9" y="24.9659">Diagrama de Objetos</text><!--class ASCENSOR 0:ASCENSOR--><g id="elem_ASCENSOR 0:ASCENSOR"><rect codeLine="10" fill="#F1F1F1" height="154.4075" id="ASCENSOR 0:ASCENSOR" rx="2.5" ry="2.5" style="stroke:#181818;stroke-width:0.5;" width="221" x="224.8" y="770.9479"/><ellipse cx="251.95" cy="786.9479" fill="#ADD1B2" rx="11" ry="11" style="stroke:#181818;stroke-width:1.0;"/><path d="M251.4188,793.8698 Q249.6688,793.8698 248.5281,793.1354 Q247.4031,792.3854 246.8406,791.0417 Q246.2938,789.6823 246.2938,787.8854 Q246.2938,785.8542 246.95,784.401 Q247.6063,782.9479 248.8875,782.1667 Q250.1688,781.3854 252.0438,781.3854 Q252.9344,781.3854 253.6063,781.5729 Q254.2781,781.7448 254.9656,782.0885 L254.1531,784.1042 Q253.5281,783.7917 252.9813,783.6667 Q252.45,783.5417 251.9656,783.5417 Q250.7938,783.5417 250.0906,784.0729 Q249.3875,784.6042 249.0906,785.5573 Q248.7938,786.5104 248.7938,787.776 Q248.7938,789.7917 249.5125,790.7604 Q250.2313,791.7135 251.825,791.7135 Q252.4188,791.7135 253.0438,791.5573 Q253.6688,791.401 254.4969,791.026 L254.4969,793.2448 Q253.7625,793.5573 252.9656,793.7135 Q252.1844,793.8698 251.4188,793.8698 Z " fill="#000000"/><text fill="#000000" font-family="sans-serif" font-size="14" lengthAdjust="spacing" textLength="162" x="268.65" y="792.3799">ASCENSOR 0:ASCENSOR</text><line style="stroke:#181818;stroke-width:0.5;" x1="225.8" x2="444.8" y1="802.9479" y2="802.9479"/><text fill="#000000" font-family="sans-serif" font-size="14" lengthAdjust="spacing" textLength="31" x="230.8" y="821.9139">ID: 0</text><text fill="#000000" font-family="sans-serif" font-size="14" lengthAdjust="spacing" textLength="98" x="230.8" y="840.9818">ID de Planta: 2</text><text fill="#000000" font-family="sans-serif" font-size="14" lengthAdjust="spacing" textLength="179" x="230.8" y="860.0497">Personas en el Ascensor: 2</text><text fill="#000000" font-family="sans-serif" font-size="14" lengthAdjust="spacing" textLength="209" x="230.8" y="879.1176">Plantas a las que se dirige: 1, 0</text><text fill="#000000" font-family="sans-serif" font-size="14" lengthAdjust="spacing" textLength="126" x="230.8" y="898.1855">Direcci&#243;n: Bajando</text><text fill="#000000" font-family="sans-serif" font-size="14" lengthAdjust="spacing" textLength="87" x="230.8" y="917.2534">Capacidad: 6</text></g><!--class JUAN:PERSONA--><g id="elem_JUAN:PERSONA"><rect codeLine="20" fill="#F1F1F1" height="116.2717" id="JUAN:PERSONA" rx="2.5" ry="2.5" style="stroke:#181818;stroke-width:0.5;" width="153" x="87.8" y="418.5379"/><ellipse cx="111.35" cy="434.5379" fill="#ADD1B2" rx="11" ry="11" style="stroke:#181818;stroke-width:1.0;"/><path d="M110.8188,441.4598 Q109.0688,441.4598 107.9281,440.7254 Q106.8031,439.9754 106.2406,438.6317 Q105.6938,437.2723 105.6938,435.4754 Q105.6938,433.4442 106.35,431.991 Q107.0063,430.5379 108.2875,429.7567 Q109.5688,428.9754 111.4438,428.9754 Q112.3344,428.9754 113.0063,429.1629 Q113.6781,429.3348 114.3656,429.6785 L113.5531,431.6942 Q112.9281,431.3817 112.3813,431.2567 Q111.85,431.1317 111.3656,431.1317 Q110.1938,431.1317 109.4906,431.6629 Q108.7875,432.1942 108.4906,433.1473 Q108.1938,434.1004 108.1938,435.366 Q108.1938,437.3817 108.9125,438.3504 Q109.6313,439.3035 111.225,439.3035 Q111.8188,439.3035 112.4438,439.1473 Q113.0688,438.991 113.8969,438.616 L113.8969,440.8348 Q113.1625,441.1473 112.3656,441.3035 Q111.5844,441.4598 110.8188,441.4598 Z " fill="#000000"/><text fill="#000000" font-family="sans-serif" font-size="14" lengthAdjust="spacing" textLength="102" x="127.25" y="439.9699">JUAN:PERSONA</text><line style="stroke:#181818;stroke-width:0.5;" x1="88.8" x2="239.8" y1="450.5379" y2="450.5379"/><text fill="#000000" font-family="sans-serif" font-size="14" lengthAdjust="spacing" textLength="35" x="93.8" y="469.5039">ID : 0</text><text fill="#000000" font-family="sans-serif" font-size="14" lengthAdjust="spacing" textLength="109" x="93.8" y="488.5718">Origen: Planta 0</text><text fill="#000000" font-family="sans-serif" font-size="14" lengthAdjust="spacing" textLength="141" x="93.8" y="507.6397">Tiempo en Planta: 10</text><text fill="#000000" font-family="sans-serif" font-size="14" lengthAdjust="spacing" textLength="113" x="93.8" y="526.7076">Destino: Planta 1</text></g><!--class PEDRO:PERSONA--><g id="elem_PEDRO:PERSONA"><rect codeLine="28" fill="#F1F1F1" height="116.2717" id="PEDRO:PERSONA" rx="2.5" ry="2.5" style="stroke:#181818;stroke-width:0.5;" width="146" x="425.3" y="418.5379"/><ellipse cx="440.3" cy="434.5379" fill="#ADD1B2" rx="11" ry="11" style="stroke:#181818;stroke-width:1.0;"/><path d="M439.7688,441.4598 Q438.0188,441.4598 436.8781,440.7254 Q435.7531,439.9754 435.1906,438.6317 Q434.6438,437.2723 434.6438,435.4754 Q434.6438,433.4442 435.3,431.991 Q435.9563,430.5379 437.2375,429.7567 Q438.5188,428.9754 440.3938,428.9754 Q441.2844,428.9754 441.9563,429.1629 Q442.6281,429.3348 443.3156,429.6785 L442.5031,431.6942 Q441.8781,431.3817 441.3313,431.2567 Q440.8,431.1317 440.3156,431.1317 Q439.1438,431.1317 438.4406,431.6629 Q437.7375,432.1942 437.4406,433.1473 Q437.1438,434.1004 437.1438,435.366 Q437.1438,437.3817 437.8625,438.3504 Q438.5813,439.3035 440.175,439.3035 Q440.7688,439.3035 441.3938,439.1473 Q442.0188,438.991 442.8469,438.616 L442.8469,440.8348 Q442.1125,441.1473 441.3156,441.3035 Q440.5344,441.4598 439.7688,441.4598 Z " fill="#000000"/><text fill="#000000" font-family="sans-serif" font-size="14" lengthAdjust="spacing" textLength="114" x="454.3" y="439.9699">PEDRO:PERSONA</text><line style="stroke:#181818;stroke-width:0.5;" x1="426.3" x2="570.3" y1="450.5379" y2="450.5379"/><text fill="#000000" font-family="sans-serif" font-size="14" lengthAdjust="spacing" textLength="35" x="431.3" y="469.5039">ID : 1</text><text fill="#000000" font-family="sans-serif" font-size="14" lengthAdjust="spacing" textLength="109" x="431.3" y="488.5718">Origen: Planta 1</text><text fill="#000000" font-family="sans-serif" font-size="14" lengthAdjust="spacing" textLength="133" x="431.3" y="507.6397">Tiempo en Planta: 5</text><text fill="#000000" font-family="sans-serif" font-size="14" lengthAdjust="spacing" textLength="113" x="431.3" y="526.7076">Destino: Planta 0</text></g><!--class CUADRO DE MANDO:CUADRO DE MANDO--><g id="elem_CUADRO DE MANDO:CUADRO DE MANDO"><rect codeLine="36" fill="#F1F1F1" height="78.1358" id="CUADRO DE MANDO:CUADRO DE MANDO" rx="2.5" ry="2.5" style="stroke:#181818;stroke-width:0.5;" width="312" x="179.3" y="613.8179"/><ellipse cx="194.3" cy="629.8179" fill="#ADD1B2" rx="11" ry="11" style="stroke:#181818;stroke-width:1.0;"/><path d="M193.7688,636.7398 Q192.0188,636.7398 190.8781,636.0054 Q189.7531,635.2554 189.1906,633.9117 Q188.6438,632.5523 188.6438,630.7554 Q188.6438,628.7242 189.3,627.271 Q189.9563,625.8179 191.2375,625.0367 Q192.5188,624.2554 194.3938,624.2554 Q195.2844,624.2554 195.9563,624.4429 Q196.6281,624.6148 197.3156,624.9585 L196.5031,626.9742 Q195.8781,626.6617 195.3313,626.5367 Q194.8,626.4117 194.3156,626.4117 Q193.1438,626.4117 192.4406,626.9429 Q191.7375,627.4742 191.4406,628.4273 Q191.1438,629.3804 191.1438,630.646 Q191.1438,632.6617 191.8625,633.6304 Q192.5813,634.5835 194.175,634.5835 Q194.7688,634.5835 195.3938,634.4273 Q196.0188,634.271 196.8469,633.896 L196.8469,636.1148 Q196.1125,636.4273 195.3156,636.5835 Q194.5344,636.7398 193.7688,636.7398 Z " fill="#000000"/><text fill="#000000" font-family="sans-serif" font-size="14" lengthAdjust="spacing" textLength="280" x="208.3" y="635.2499">CUADRO DE MANDO:CUADRO DE MANDO</text><line style="stroke:#181818;stroke-width:0.5;" x1="180.3" x2="490.3" y1="645.8179" y2="645.8179"/><text fill="#000000" font-family="sans-serif" font-size="14" lengthAdjust="spacing" textLength="198" x="185.3" y="664.7839">Solicitudes de Ascensores: 10</text><text fill="#000000" font-family="sans-serif" font-size="14" lengthAdjust="spacing" textLength="156" x="185.3" y="683.8518">Solicitudes de Planta: 5</text></g><!--class PLANTA 0:PLANTA--><g id="elem_PLANTA 0:PLANTA"><rect codeLine="42" fill="#F1F1F1" height="116.2717" id="PLANTA 0:PLANTA" rx="2.5" ry="2.5" style="stroke:#181818;stroke-width:0.5;" width="241" x="43.8" y="223.2679"/><ellipse cx="100.05" cy="239.2679" fill="#ADD1B2" rx="11" ry="11" style="stroke:#181818;stroke-width:1.0;"/><path d="M99.5188,246.1898 Q97.7688,246.1898 96.6281,245.4554 Q95.5031,244.7054 94.9406,243.3617 Q94.3938,242.0023 94.3938,240.2054 Q94.3938,238.1742 95.05,236.721 Q95.7063,235.2679 96.9875,234.4867 Q98.2688,233.7054 100.1438,233.7054 Q101.0344,233.7054 101.7063,233.8929 Q102.3781,234.0648 103.0656,234.4085 L102.2531,236.4242 Q101.6281,236.1117 101.0813,235.9867 Q100.55,235.8617 100.0656,235.8617 Q98.8938,235.8617 98.1906,236.3929 Q97.4875,236.9242 97.1906,237.8773 Q96.8938,238.8304 96.8938,240.096 Q96.8938,242.1117 97.6125,243.0804 Q98.3313,244.0335 99.925,244.0335 Q100.5188,244.0335 101.1438,243.8773 Q101.7688,243.721 102.5969,243.346 L102.5969,245.5648 Q101.8625,245.8773 101.0656,246.0335 Q100.2844,246.1898 99.5188,246.1898 Z " fill="#000000"/><text fill="#000000" font-family="sans-serif" font-size="14" lengthAdjust="spacing" textLength="120" x="120.55" y="244.6999">PLANTA 0:PLANTA</text><line style="stroke:#181818;stroke-width:0.5;" x1="44.8" x2="283.8" y1="255.2679" y2="255.2679"/><text fill="#000000" font-family="sans-serif" font-size="14" lengthAdjust="spacing" textLength="31" x="49.8" y="274.2339">ID: 0</text><text fill="#000000" font-family="sans-serif" font-size="14" lengthAdjust="spacing" textLength="164" x="49.8" y="293.3018">Nombre planta: Planta 0</text><text fill="#000000" font-family="sans-serif" font-size="14" lengthAdjust="spacing" textLength="229" x="49.8" y="312.3697">Personas Cambiando de Planta : 2</text><text fill="#000000" font-family="sans-serif" font-size="14" lengthAdjust="spacing" textLength="161" x="49.8" y="331.4376">Personas en planta: 100</text></g><!--class PLANTA 1:PLANTA--><g id="elem_PLANTA 1:PLANTA"><rect codeLine="50" fill="#F1F1F1" height="116.2717" id="PLANTA 1:PLANTA" rx="2.5" ry="2.5" style="stroke:#181818;stroke-width:0.5;" width="241" x="377.8" y="223.2679"/><ellipse cx="434.05" cy="239.2679" fill="#ADD1B2" rx="11" ry="11" style="stroke:#181818;stroke-width:1.0;"/><path d="M433.5188,246.1898 Q431.7688,246.1898 430.6281,245.4554 Q429.5031,244.7054 428.9406,243.3617 Q428.3938,242.0023 428.3938,240.2054 Q428.3938,238.1742 429.05,236.721 Q429.7063,235.2679 430.9875,234.4867 Q432.2688,233.7054 434.1438,233.7054 Q435.0344,233.7054 435.7063,233.8929 Q436.3781,234.0648 437.0656,234.4085 L436.2531,236.4242 Q435.6281,236.1117 435.0813,235.9867 Q434.55,235.8617 434.0656,235.8617 Q432.8938,235.8617 432.1906,236.3929 Q431.4875,236.9242 431.1906,237.8773 Q430.8938,238.8304 430.8938,240.096 Q430.8938,242.1117 431.6125,243.0804 Q432.3313,244.0335 433.925,244.0335 Q434.5188,244.0335 435.1438,243.8773 Q435.7688,243.721 436.5969,243.346 L436.5969,245.5648 Q435.8625,245.8773 435.0656,246.0335 Q434.2844,246.1898 433.5188,246.1898 Z " fill="#000000"/><text fill="#000000" font-family="sans-serif" font-size="14" lengthAdjust="spacing" textLength="120" x="454.55" y="244.6999">PLANTA 1:PLANTA</text><line style="stroke:#181818;stroke-width:0.5;" x1="378.8" x2="617.8" y1="255.2679" y2="255.2679"/><text fill="#000000" font-family="sans-serif" font-size="14" lengthAdjust="spacing" textLength="31" x="383.8" y="274.2339">ID: 1</text><text fill="#000000" font-family="sans-serif" font-size="14" lengthAdjust="spacing" textLength="164" x="383.8" y="293.3018">Nombre planta: Planta 1</text><text fill="#000000" font-family="sans-serif" font-size="14" lengthAdjust="spacing" textLength="153" x="383.8" y="312.3697">Personas en planta: 75</text><text fill="#000000" font-family="sans-serif" font-size="14" lengthAdjust="spacing" textLength="229" x="383.8" y="331.4376">Personas Cambiando de Planta : 1</text></g><!--class PLANTA 2:PLANTA--><g id="elem_PLANTA 2:PLANTA"><rect codeLine="58" fill="#F1F1F1" height="116.2717" id="PLANTA 2:PLANTA" rx="2.5" ry="2.5" style="stroke:#181818;stroke-width:0.5;" width="241" x="653.8" y="223.2679"/><ellipse cx="710.05" cy="239.2679" fill="#ADD1B2" rx="11" ry="11" style="stroke:#181818;stroke-width:1.0;"/><path d="M709.5188,246.1898 Q707.7688,246.1898 706.6281,245.4554 Q705.5031,244.7054 704.9406,243.3617 Q704.3938,242.0023 704.3938,240.2054 Q704.3938,238.1742 705.05,236.721 Q705.7063,235.2679 706.9875,234.4867 Q708.2688,233.7054 710.1438,233.7054 Q711.0344,233.7054 711.7063,233.8929 Q712.3781,234.0648 713.0656,234.4085 L712.2531,236.4242 Q711.6281,236.1117 711.0813,235.9867 Q710.55,235.8617 710.0656,235.8617 Q708.8938,235.8617 708.1906,236.3929 Q707.4875,236.9242 707.1906,237.8773 Q706.8938,238.8304 706.8938,240.096 Q706.8938,242.1117 707.6125,243.0804 Q708.3313,244.0335 709.925,244.0335 Q710.5188,244.0335 711.1438,243.8773 Q711.7688,243.721 712.5969,243.346 L712.5969,245.5648 Q711.8625,245.8773 711.0656,246.0335 Q710.2844,246.1898 709.5188,246.1898 Z " fill="#000000"/><text fill="#000000" font-family="sans-serif" font-size="14" lengthAdjust="spacing" textLength="120" x="730.55" y="244.6999">PLANTA 2:PLANTA</text><line style="stroke:#181818;stroke-width:0.5;" x1="654.8" x2="893.8" y1="255.2679" y2="255.2679"/><text fill="#000000" font-family="sans-serif" font-size="14" lengthAdjust="spacing" textLength="31" x="659.8" y="274.2339">ID: 2</text><text fill="#000000" font-family="sans-serif" font-size="14" lengthAdjust="spacing" textLength="164" x="659.8" y="293.3018">Nombre planta: Planta 2</text><text fill="#000000" font-family="sans-serif" font-size="14" lengthAdjust="spacing" textLength="153" x="659.8" y="312.3697">Personas en planta: 50</text><text fill="#000000" font-family="sans-serif" font-size="14" lengthAdjust="spacing" textLength="229" x="659.8" y="331.4376">Personas Cambiando de Planta : 0</text></g><!--class UNEATLANTICO:EDIFICIO--><g id="elem_UNEATLANTICO:EDIFICIO"><rect codeLine="66" fill="#F1F1F1" height="97.2038" id="UNEATLANTICO:EDIFICIO" rx="2.5" ry="2.5" style="stroke:#181818;stroke-width:0.5;" width="202" x="397.3" y="47.0679"/><ellipse cx="412.3" cy="63.0679" fill="#ADD1B2" rx="11" ry="11" style="stroke:#181818;stroke-width:1.0;"/><path d="M411.7688,69.9898 Q410.0188,69.9898 408.8781,69.2554 Q407.7531,68.5054 407.1906,67.1617 Q406.6438,65.8023 406.6438,64.0054 Q406.6438,61.9742 407.3,60.521 Q407.9563,59.0679 409.2375,58.2867 Q410.5188,57.5054 412.3938,57.5054 Q413.2844,57.5054 413.9563,57.6929 Q414.6281,57.8648 415.3156,58.2085 L414.5031,60.2242 Q413.8781,59.9117 413.3313,59.7867 Q412.8,59.6617 412.3156,59.6617 Q411.1438,59.6617 410.4406,60.1929 Q409.7375,60.7242 409.4406,61.6773 Q409.1438,62.6304 409.1438,63.896 Q409.1438,65.9117 409.8625,66.8804 Q410.5813,67.8335 412.175,67.8335 Q412.7688,67.8335 413.3938,67.6773 Q414.0188,67.521 414.8469,67.146 L414.8469,69.3648 Q414.1125,69.6773 413.3156,69.8335 Q412.5344,69.9898 411.7688,69.9898 Z " fill="#000000"/><text fill="#000000" font-family="sans-serif" font-size="14" lengthAdjust="spacing" textLength="170" x="426.3" y="68.4999">UNEATLANTICO:EDIFICIO</text><line style="stroke:#181818;stroke-width:0.5;" x1="398.3" x2="598.3" y1="79.0679" y2="79.0679"/><text fill="#000000" font-family="sans-serif" font-size="14" lengthAdjust="spacing" textLength="65" x="403.3" y="98.0339">Plantas: 3</text><text fill="#000000" font-family="sans-serif" font-size="14" lengthAdjust="spacing" textLength="92" x="403.3" y="117.1018">Ascensores: 2</text><text fill="#000000" font-family="sans-serif" font-size="14" lengthAdjust="spacing" textLength="131" x="403.3" y="136.1697">Panel de Control : 1</text></g><!--reverse link UNEATLANTICO:EDIFICIO to PLANTA 0:PLANTA--><g id="link_UNEATLANTICO:EDIFICIO_PLANTA 0:PLANTA"><path codeLine="73" d="M400.4655,150.491 C356.9755,174.411 314.59,197.7279 268.94,222.8379 " fill="none" id="UNEATLANTICO:EDIFICIO-backto-PLANTA 0:PLANTA" style="stroke:#181818;stroke-width:1.0;"/><polygon fill="#181818" points="410.98,144.7079,403.795,144.0946,400.4655,150.491,407.6504,151.1043,410.98,144.7079" style="stroke:#181818;stroke-width:1.0;"/><text fill="#000000" font-family="sans-serif" font-size="13" lengthAdjust="spacing" textLength="32" x="352.3" y="189.1649">Tiene</text></g><!--reverse link UNEATLANTICO:EDIFICIO to PLANTA 1:PLANTA--><g id="link_UNEATLANTICO:EDIFICIO_PLANTA 1:PLANTA"><path codeLine="74" d="M498.3,156.4679 C498.3,180.4979 498.3,197.7979 498.3,223.0379 " fill="none" id="UNEATLANTICO:EDIFICIO-backto-PLANTA 1:PLANTA" style="stroke:#181818;stroke-width:1.0;"/><polygon fill="#181818" points="498.3,144.4679,494.3,150.4679,498.3,156.4679,502.3,150.4679,498.3,144.4679" style="stroke:#181818;stroke-width:1.0;"/><text fill="#000000" font-family="sans-serif" font-size="13" lengthAdjust="spacing" textLength="32" x="499.3" y="189.1649">Tiene</text></g><!--reverse link UNEATLANTICO:EDIFICIO to PLANTA 2:PLANTA--><g id="link_UNEATLANTICO:EDIFICIO_PLANTA 2:PLANTA"><path codeLine="75" d="M580.4489,151.3579 C616.3789,175.2779 650.11,197.7279 687.83,222.8379 " fill="none" id="UNEATLANTICO:EDIFICIO-backto-PLANTA 2:PLANTA" style="stroke:#181818;stroke-width:1.0;"/><polygon fill="#181818" points="570.46,144.7079,573.2378,151.3625,580.4489,151.3579,577.6711,144.7033,570.46,144.7079" style="stroke:#181818;stroke-width:1.0;"/><text fill="#000000" font-family="sans-serif" font-size="13" lengthAdjust="spacing" textLength="32" x="637.3" y="189.1649">Tiene</text></g><!--reverse link PLANTA 0:PLANTA to JUAN:PERSONA--><g id="link_PLANTA 0:PLANTA_JUAN:PERSONA"><path codeLine="77" d="M164.3,351.8679 C164.3,376.5779 164.3,393.3879 164.3,418.0979 " fill="none" id="PLANTA 0:PLANTA-backto-JUAN:PERSONA" style="stroke:#181818;stroke-width:1.0;"/><polygon fill="none" points="164.3,339.8679,160.3,345.8679,164.3,351.8679,168.3,345.8679,164.3,339.8679" style="stroke:#181818;stroke-width:1.0;"/><text fill="#000000" font-family="sans-serif" font-size="13" lengthAdjust="spacing" textLength="32" x="165.3" y="384.4349">Tiene</text></g><!--reverse link PLANTA 1:PLANTA to PEDRO:PERSONA--><g id="link_PLANTA 1:PLANTA_PEDRO:PERSONA"><path codeLine="78" d="M498.3,351.8679 C498.3,376.5779 498.3,393.3879 498.3,418.0979 " fill="none" id="PLANTA 1:PLANTA-backto-PEDRO:PERSONA" style="stroke:#181818;stroke-width:1.0;"/><polygon fill="none" points="498.3,339.8679,494.3,345.8679,498.3,351.8679,502.3,345.8679,498.3,339.8679" style="stroke:#181818;stroke-width:1.0;"/><text fill="#000000" font-family="sans-serif" font-size="13" lengthAdjust="spacing" textLength="32" x="499.3" y="384.4349">Tiene</text></g><!--link PLANTA 0:PLANTA to ASCENSOR 0:ASCENSOR--><g id="link_PLANTA 0:PLANTA_ASCENSOR 0:ASCENSOR"><path codeLine="80" d="M112.15,339.9979 C64.78,399.4979 6,495.8279 32.3,583.8179 C56.36,664.2879 74.61,685.0479 137.3,740.9479 C162.92,763.7979 189.0185,780.6783 219.2085,796.6783 " fill="none" id="PLANTA 0:PLANTA-to-ASCENSOR 0:ASCENSOR" style="stroke:#181818;stroke-width:1.0;"/><polygon fill="#181818" points="224.51,799.4879,218.4309,791.7391,220.0921,797.1465,214.6847,798.8077,224.51,799.4879" style="stroke:#181818;stroke-width:1.0;"/><text fill="#000000" font-family="sans-serif" font-size="13" lengthAdjust="spacing" textLength="76" x="33.3" y="579.7149">Tiene Acceso</text></g><!--link PLANTA 1:PLANTA to ASCENSOR 0:ASCENSOR--><g id="link_PLANTA 1:PLANTA_ASCENSOR 0:ASCENSOR"><path codeLine="81" d="M547.61,339.8079 C564.25,362.7479 580.76,390.3879 589.3,418.5379 C624.67,535.0979 628.6,584.9979 570.3,691.9479 C543.39,741.3179 498.5376,774.8409 451.4476,799.8809 " fill="none" id="PLANTA 1:PLANTA-to-ASCENSOR 0:ASCENSOR" style="stroke:#181818;stroke-width:1.0;"/><polygon fill="#181818" points="446.15,802.6979,455.9744,802.0042,450.5647,800.3504,452.2184,794.9407,446.15,802.6979" style="stroke:#181818;stroke-width:1.0;"/><text fill="#000000" font-family="sans-serif" font-size="13" lengthAdjust="spacing" textLength="76" x="616.3" y="579.7149">Tiene Acceso</text></g><!--link JUAN:PERSONA to ASCENSOR 0:ASCENSOR--><g id="link_JUAN:PERSONA_ASCENSOR 0:ASCENSOR"><path codeLine="83" d="M134.24,535.0479 C115.14,579.8779 98.29,642.6379 123.3,691.9479 C145.12,734.9679 180.0267,765.7087 219.4267,790.7587 " fill="none" id="JUAN:PERSONA-to-ASCENSOR 0:ASCENSOR" style="stroke:#181818;stroke-width:1.0;stroke-dasharray:7.0,7.0;"/><polygon fill="#181818" points="224.49,793.9779,219.0412,785.7736,220.2706,791.2953,214.7489,792.5247,224.49,793.9779" style="stroke:#181818;stroke-width:1.0;"/><text fill="#000000" font-family="sans-serif" font-size="13" lengthAdjust="spacing" textLength="37" x="124.3" y="658.2749">Utiliza</text></g><!--link PEDRO:PERSONA to ASCENSOR 0:ASCENSOR--><g id="link_PEDRO:PERSONA_ASCENSOR 0:ASCENSOR"><path codeLine="84" d="M514.53,534.8679 C524.09,579.5879 530.46,642.2979 508.3,691.9479 C494.49,722.8979 475.5586,746.2217 450.3886,769.0017 " fill="none" id="PEDRO:PERSONA-to-ASCENSOR 0:ASCENSOR" style="stroke:#181818;stroke-width:1.0;stroke-dasharray:7.0,7.0;"/><polygon fill="#181818" points="445.94,773.0279,455.297,769.9544,449.6472,769.6728,449.9288,764.0229,445.94,773.0279" style="stroke:#181818;stroke-width:1.0;"/><text fill="#000000" font-family="sans-serif" font-size="13" lengthAdjust="spacing" textLength="37" x="524.3" y="658.2749">Utiliza</text></g><!--link JUAN:PERSONA to CUADRO DE MANDO:CUADRO DE MANDO--><g id="link_JUAN:PERSONA_CUADRO DE MANDO:CUADRO DE MANDO"><path codeLine="86" d="M220.77,535.1979 C245.96,560.8679 270.7767,586.1463 293.2967,609.0863 " fill="none" id="JUAN:PERSONA-to-CUADRO DE MANDO:CUADRO DE MANDO" style="stroke:#181818;stroke-width:1.0;stroke-dasharray:7.0,7.0;"/><polygon fill="#181818" points="297.5,613.3679,294.0495,604.1433,293.9973,609.7999,288.3407,609.7476,297.5,613.3679" style="stroke:#181818;stroke-width:1.0;"/><text fill="#000000" font-family="sans-serif" font-size="13" lengthAdjust="spacing" textLength="55" x="266.3" y="579.7149">Solicita al</text></g><!--link PEDRO:PERSONA to CUADRO DE MANDO:CUADRO DE MANDO--><g id="link_PEDRO:PERSONA_CUADRO DE MANDO:CUADRO DE MANDO"><path codeLine="87" d="M444.48,535.1979 C420.46,560.8679 396.8989,586.0463 375.4389,608.9863 " fill="none" id="PEDRO:PERSONA-to-CUADRO DE MANDO:CUADRO DE MANDO" style="stroke:#181818;stroke-width:1.0;stroke-dasharray:7.0,7.0;"/><polygon fill="#181818" points="371.34,613.3679,380.4095,609.5281,374.7558,609.7166,374.5673,604.0628,371.34,613.3679" style="stroke:#181818;stroke-width:1.0;"/><text fill="#000000" font-family="sans-serif" font-size="13" lengthAdjust="spacing" textLength="55" x="413.3" y="579.7149">Solicita al</text></g><!--link CUADRO DE MANDO:CUADRO DE MANDO to ASCENSOR 0:ASCENSOR--><g id="link_CUADRO DE MANDO:CUADRO DE MANDO_ASCENSOR 0:ASCENSOR"><path codeLine="89" d="M335.3,692.0679 C335.3,714.5079 335.3,737.6879 335.3,764.6679 " fill="none" id="CUADRO DE MANDO:CUADRO DE MANDO-to-ASCENSOR 0:ASCENSOR" style="stroke:#181818;stroke-width:1.0;"/><polygon fill="#181818" points="335.3,770.6679,339.3,761.6679,335.3,765.6679,331.3,761.6679,335.3,770.6679" style="stroke:#181818;stroke-width:1.0;"/><text fill="#000000" font-family="sans-serif" font-size="13" lengthAdjust="spacing" textLength="55" x="336.3" y="736.8449">Gobierna</text></g><!--SRC=[dPHHZfim48RVVOhHzgrgLY5LMec7bRn0grGjH24vm0H6MM_0Jh6ZggrwgXwX5wj9W900sRHv0iV___qpWss4oGXyWPi2SuIK85e_ar6QCRqLSeTs6NuoiBzG6Nh4PBifr5wcdifK0Q- -FGb3SQwsn7unzYIi0UKxynroojTKM9iaGwtXZiTU4CRH0iPk_NZ7ZiOptuLnzLGcc6Se3RemEQpDhOkIg84aK0PS9oIrAfg_3vir85WEVDqJQ89K5693BZXlAcDV59GauizlwS8ZFgDCrM7Tmnqc8iNKXNTb0LNOJoiUklDW4KSXFwM4EcPKkbkd8xjQN0fRk2fJrlcTYatQ2AcQxKuBD0_yHTHBSlf8pW1fsWiQjq3UYbiI-05yuQ4VkHVlDJfMcKY4sQUaoqdKpIRTL7EnuvIWLTHd7Ywv7VJneJlcKENhWc1NQS_Qs8pRmtmjoa6TCD3tJUoQRe-x6PoU3CwL3CwW_VlfBV6SReH9JuJ9bGZ35Kvlwb2x2wimuCkIFlCYD_1d7sRUh9brTN9SU7juRS-woe3I7ZZhxIbf2fNLzGtOmklHg3jyAxBVgwIRLCv_gIOT5Ul6KANWx5oV61twOVFvsRpcFHezz5zmjGXuaf1MFQIRfUmY_Ftzi71bH2P-8BiiuHPDB-UbsyFggti10RD-xZzwi9S5rthtKQq55HB_0W00]--></g></svg>