<?xml version="1.0" encoding="UTF-8" standalone="no"?><svg xmlns="http://www.w3.org/2000/svg" xmlns:xlink="http://www.w3.org/1999/xlink" contentStyleType="text/css" height="406px" preserveAspectRatio="none" style="width:418px;height:406px;background:#FFFFFF;" version="1.1" viewBox="0 0 418 406" width="418px" zoomAndPan="magnify"><defs/><g><rect fill="none" height="29.0679" id="_title" style="stroke:none;stroke-width:1.0;" width="308" x="44.75" y="5"/><text fill="#000000" font-family="sans-serif" font-size="14" font-weight="bold" lengthAdjust="spacing" textLength="298" x="49.75" y="24.9659">Diagrama de Estados del Cuadro de Mando</text><ellipse cx="205.75" cy="56.0679" fill="#222222" rx="10" ry="10" style="stroke:none;stroke-width:1.0;"/><ellipse cx="205.75" cy="390.1379" fill="none" rx="10" ry="10" style="stroke:#222222;stroke-width:1.0;"/><ellipse cx="206.25" cy="390.6379" fill="#222222" rx="6" ry="6" style="stroke:none;stroke-width:1.0;"/><path d="M19.5,145.0679 L392,145.0679 A12.5,12.5 0 0 1 404.5,157.5679 L404.5,174.1358 L7,174.1358 L7,157.5679 A12.5,12.5 0 0 1 19.5,145.0679 " fill="#F1F1F1" style="stroke:#F1F1F1;stroke-width:1.0;"/><rect fill="none" height="156.0679" rx="12.5" ry="12.5" style="stroke:#181818;stroke-width:0.5;" width="397.5" x="7" y="145.0679"/><line style="stroke:#181818;stroke-width:0.5;" x1="7" x2="404.5" y1="174.1358" y2="174.1358"/><text fill="#000000" font-family="sans-serif" font-size="14" lengthAdjust="spacing" textLength="114" x="148.75" y="165.0339">CuadroDeMando</text><ellipse cx="206" cy="195.1358" fill="#222222" rx="10" ry="10" style="stroke:none;stroke-width:1.0;"/><g id="CuadroDeMando.GestionandoSolicitudes"><rect fill="#F1F1F1" height="50" rx="12.5" ry="12.5" style="stroke:#181818;stroke-width:0.5;" width="178" x="19" y="241.1358"/><line style="stroke:#181818;stroke-width:0.5;" x1="19" x2="197" y1="270.2038" y2="270.2038"/><text fill="#000000" font-family="sans-serif" font-size="14" lengthAdjust="spacing" textLength="158" x="29" y="261.1018">GestionandoSolicitudes</text></g><g id="CuadroDeMando.GestionandoAscensores"><rect fill="#F1F1F1" height="50" rx="12.5" ry="12.5" style="stroke:#181818;stroke-width:0.5;" width="181" x="214.5" y="241.1358"/><line style="stroke:#181818;stroke-width:0.5;" x1="214.5" x2="395.5" y1="270.2038" y2="270.2038"/><text fill="#000000" font-family="sans-serif" font-size="14" lengthAdjust="spacing" textLength="161" x="224.5" y="261.1018">GestionandoAscensores</text></g><!--MD5=[fcc81387195c2cf6048f7a3ec131d49c]
link *start*CuadroDeMando to GestionandoSolicitudes--><g id="link_*start*CuadroDeMando_GestionandoSolicitudes"><path d="M197.98,201.7858 C186.95,209.5458 166.33,224.0658 147.61,237.2458 " fill="none" id="*start*CuadroDeMando-to-GestionandoSolicitudes" style="stroke:#181818;stroke-width:1.0;"/><polygon fill="#181818" points="143.63,240.0558,153.2934,238.1535,147.7208,237.1808,148.6934,231.6082,143.63,240.0558" style="stroke:#181818;stroke-width:1.0;"/></g><!--MD5=[a922c996bf3b551662b91460c93cc65e]
link *start*CuadroDeMando to GestionandoAscensores--><g id="link_*start*CuadroDeMando_GestionandoAscensores"><path d="M214.1,201.7858 C225.25,209.5458 246.08,224.0658 264.99,237.2458 " fill="none" id="*start*CuadroDeMando-to-GestionandoAscensores" style="stroke:#181818;stroke-width:1.0;"/><polygon fill="#181818" points="269.02,240.0558,263.923,231.6285,264.9178,237.1972,259.3491,238.192,269.02,240.0558" style="stroke:#181818;stroke-width:1.0;"/></g><!--MD5=[4ae923c7151b011472de282b9fd2b743]
link *start to CuadroDeMando--><g id="link_*start_CuadroDeMando"><path d="M205.75,66.4179 C205.75,80.7379 205.75,109.5179 205.75,138.4779 " fill="none" id="*start-to-CuadroDeMando" style="stroke:#181818;stroke-width:1.0;"/><polygon fill="#181818" points="205.75,143.1379,209.75,134.1379,205.75,138.1379,201.75,134.1379,205.75,143.1379" style="stroke:#181818;stroke-width:1.0;"/><text fill="#000000" font-family="sans-serif" font-size="13" lengthAdjust="spacing" textLength="36" x="206.75" y="110.9649">Iniciar</text></g><!--MD5=[a5debdc8380ff9f93d8e65c468c4a26b]
link CuadroDeMando to *end--><g id="link_CuadroDeMando_*end"><path d="M205.75,301.3079 C205.75,328.6079 205.75,356.6979 205.75,373.5379 " fill="none" id="CuadroDeMando-to-*end" style="stroke:#181818;stroke-width:1.0;"/><polygon fill="#181818" points="205.75,378.5179,209.75,369.5179,205.75,373.5179,201.75,369.5179,205.75,378.5179" style="stroke:#181818;stroke-width:1.0;"/><text fill="#000000" font-family="sans-serif" font-size="13" lengthAdjust="spacing" textLength="48" x="206.75" y="346.0349">Detener</text></g><!--MD5=[57348d0661abc5992e2f87669c4e2bd0]
@startuml Diagrama_de_Estados

title Diagrama de Estados del Cuadro de Mando

skinparam {
    NoteBackgroundColor #whiteSmoke
}

hide empty members

[*] - -> CuadroDeMando : Iniciar
CuadroDeMando - -> [*] : Detener

state CuadroDeMando {

    [*] - -> GestionandoSolicitudes
    [*] - -> GestionandoAscensores

}

@enduml

PlantUML version 1.2022.7(Mon Aug 22 19:01:30 CEST 2022)
(GPL source distribution)
Java Runtime: OpenJDK Runtime Environment
JVM: OpenJDK 64-Bit Server VM
Default Encoding: UTF-8
Language: es
Country: ES
--></g></svg>