<?xml version="1.0" encoding="us-ascii" standalone="no"?><svg xmlns="http://www.w3.org/2000/svg" xmlns:xlink="http://www.w3.org/1999/xlink" contentStyleType="text/css" height="291px" preserveAspectRatio="none" style="width:293px;height:291px;background:#FFFFFF;" version="1.1" viewBox="0 0 293 291" width="293px" zoomAndPan="magnify"><defs/><g><text fill="#000000" font-family="sans-serif" font-size="14" font-weight="bold" lengthAdjust="spacing" textLength="265" x="10" y="22.9951">Diagrama de Estados del Azulejo</text><ellipse cx="76.75" cy="53.2969" fill="#222222" rx="10" ry="10" style="stroke:#222222;stroke-width:1.0;"/><g id="Limpio"><rect fill="#F1F1F1" height="50" rx="12.5" ry="12.5" style="stroke:#181818;stroke-width:0.5;" width="69" x="42.25" y="124.2969"/><line style="stroke:#181818;stroke-width:0.5;" x1="42.25" x2="111.25" y1="150.5938" y2="150.5938"/><text fill="#000000" font-family="sans-serif" font-size="14" lengthAdjust="spacing" textLength="49" x="52.25" y="142.292">Limpio</text></g><g id="Sucia"><rect fill="#F1F1F1" height="50" rx="12.5" ry="12.5" style="stroke:#181818;stroke-width:0.5;" width="57" x="48.25" y="235.2969"/><line style="stroke:#181818;stroke-width:0.5;" x1="48.25" x2="105.25" y1="261.5938" y2="261.5938"/><text fill="#000000" font-family="sans-serif" font-size="14" lengthAdjust="spacing" textLength="37" x="58.25" y="253.292">Sucia</text></g><ellipse cx="246.75" cy="149.2969" fill="none" rx="11" ry="11" style="stroke:#222222;stroke-width:1.0;"/><ellipse cx="246.75" cy="149.2969" fill="#222222" rx="6" ry="6" style="stroke:#222222;stroke-width:1.0;"/><!--link *start* to Limpio--><g id="link_*start*_Limpio"><path d="M76.75,63.3099 C76.75,77.1879 76.75,98.2619 76.75,118.1369 " fill="none" id="*start*-to-Limpio" style="stroke:#181818;stroke-width:1.0;"/><polygon fill="#181818" points="76.75,124.1369,80.75,115.1369,76.75,119.1369,72.75,115.1369,76.75,124.1369" style="stroke:#181818;stroke-width:1.0;"/></g><!--link Limpio to Sucia--><g id="link_Limpio_Sucia"><path d="M65.9455,174.4879 C63.3483,192.5507 62.4947,211.1885 65.0984,229.2354 " fill="none" id="Limpio-to-Sucia" style="stroke:#181818;stroke-width:1.0;"/><polygon fill="#181818" points="65.9552,235.1739,68.629,225.6949,65.2412,230.2251,60.711,226.8373,65.9552,235.1739" style="stroke:#181818;stroke-width:1.0;"/></g><!--link Sucia to Limpio--><g id="link_Sucia_Limpio"><path d="M88.1798,235.1739 C90.9366,217.127 91.8432,198.4823 89.0932,180.4195 " fill="none" id="Sucia-to-Limpio" style="stroke:#181818;stroke-width:1.0;"/><polygon fill="#181818" points="88.1901,174.4879,85.5903,183.9874,88.9427,179.4309,93.4991,182.7833,88.1901,174.4879" style="stroke:#181818;stroke-width:1.0;"/></g><!--link Limpio to *end*--><g id="link_Limpio_*end*"><path d="M111.5623,149.2969 C150.224,149.2969 204.468,149.2969 229.378,149.2969 " fill="none" id="Limpio-to-*end*" style="stroke:#181818;stroke-width:1.0;"/><polygon fill="#181818" points="235.378,149.2969,226.378,145.2969,230.378,149.2969,226.378,153.2969,235.378,149.2969" style="stroke:#181818;stroke-width:1.0;"/><text fill="#000000" font-family="sans-serif" font-size="13" lengthAdjust="spacing" textLength="88" x="129.5" y="142.3638">Azulejo limpio</text></g><!--SRC=[AyaioKbLSCbCJ2zAp4rKI4bLS2qkIKp9BmOoSnGSgqfpKhFokRYYjM8LT7Nj57moSmioWNm83HOABatEJEG2ayXAO2gAW48WtLOmmnHom380]--></g></svg>