<?xml version="1.0" encoding="us-ascii" standalone="no"?><svg xmlns="http://www.w3.org/2000/svg" xmlns:xlink="http://www.w3.org/1999/xlink" contentStyleType="text/css" height="307px" preserveAspectRatio="none" style="width:293px;height:307px;background:#FFFFFF;" version="1.1" viewBox="0 0 293 307" width="293px" zoomAndPan="magnify"><defs/><g><text fill="#000000" font-family="sans-serif" font-size="14" font-weight="bold" lengthAdjust="spacing" textLength="265" x="10" y="22.9951">Diagrama de Estados del Azulejo</text><ellipse cx="80.0499" cy="53.2969" fill="#222222" rx="10" ry="10" style="stroke:#222222;stroke-width:1.0;"/><g id="Limpio"><rect fill="#F1F1F1" height="50" rx="12.5" ry="12.5" style="stroke:#181818;stroke-width:0.5;" width="69" x="45.5499" y="124.2969"/><line style="stroke:#181818;stroke-width:0.5;" x1="45.5499" x2="114.5499" y1="150.5938" y2="150.5938"/><text fill="#000000" font-family="sans-serif" font-size="14" lengthAdjust="spacing" textLength="49" x="55.5499" y="142.292">Limpio</text></g><g id="Sucia"><rect fill="#F1F1F1" height="50" rx="12.5" ry="12.5" style="stroke:#181818;stroke-width:0.5;" width="57" x="51.5499" y="251.2969"/><line style="stroke:#181818;stroke-width:0.5;" x1="51.5499" x2="108.5499" y1="277.5938" y2="277.5938"/><text fill="#000000" font-family="sans-serif" font-size="14" lengthAdjust="spacing" textLength="37" x="61.5499" y="269.292">Sucia</text></g><ellipse cx="250.0495" cy="149.2969" fill="none" rx="11" ry="11" style="stroke:#222222;stroke-width:1.0;"/><ellipse cx="250.0495" cy="149.2969" fill="#222222" rx="6" ry="6" style="stroke:#222222;stroke-width:1.0;"/><!--link *start* to Limpio--><g id="link_*start*_Limpio"><path d="M80.0499,63.3099 C80.0499,77.1879 80.0499,98.2619 80.0499,118.1369 " fill="none" id="*start*-to-Limpio" style="stroke:#181818;stroke-width:1.0;"/><polygon fill="#181818" points="80.0499,124.1369,84.0499,115.1369,80.0499,119.1369,76.0499,115.1369,80.0499,124.1369" style="stroke:#181818;stroke-width:1.0;"/></g><!--link Limpio to Sucia--><g id="link_Limpio_Sucia"><path d="M58.9306,174.4579 C52.5394,183.2509 46.345,193.6579 43.0499,204.2969 C37.9505,220.7609 42.839,233.1584 52.9826,246.4902 " fill="none" id="Limpio-to-Sucia" style="stroke:#181818;stroke-width:1.0;"/><polygon fill="#181818" points="56.6157,251.2652,54.3494,241.6806,53.5881,247.286,47.9827,246.5248,56.6157,251.2652" style="stroke:#181818;stroke-width:1.0;"/><text fill="#000000" font-family="sans-serif" font-size="13" lengthAdjust="spacing" textLength="26" x="44.0499" y="217.3638">S&gt;0</text></g><!--link Sucia to Limpio--><g id="link_Sucia_Limpio"><path d="M80.0499,251.2696 C80.0499,229.1584 80.0499,202.5329 80.0499,180.3979 " fill="none" id="Sucia-to-Limpio" style="stroke:#181818;stroke-width:1.0;"/><polygon fill="#181818" points="80.0499,174.3979,76.0499,183.3979,80.0499,179.3979,84.0499,183.3979,80.0499,174.3979" style="stroke:#181818;stroke-width:1.0;"/><text fill="#000000" font-family="sans-serif" font-size="13" lengthAdjust="spacing" textLength="26" x="81.0499" y="217.3638">S=0</text></g><!--link Limpio to *end*--><g id="link_Limpio_*end*"><path d="M114.8621,149.2969 C153.5235,149.2969 207.7675,149.2969 232.6785,149.2969 " fill="none" id="Limpio-to-*end*" style="stroke:#181818;stroke-width:1.0;"/><polygon fill="#181818" points="238.6785,149.2969,229.6785,145.2969,233.6785,149.2969,229.6785,153.2969,238.6785,149.2969" style="stroke:#181818;stroke-width:1.0;"/><text fill="#000000" font-family="sans-serif" font-size="13" lengthAdjust="spacing" textLength="88" x="132.7999" y="142.3638">Azulejo limpio</text></g><!--link Sucia to Sucia--><g id="link_Sucia_Sucia"><path d="M108.7841,270.8945 C126.5974,269.5918 143.5495,271.3926 143.5495,276.2969 C143.5495,281.2012 132.5814,283.4396 114.7681,282.1369 " fill="none" id="Sucia-to-Sucia" style="stroke:#181818;stroke-width:1.0;"/><polygon fill="#181818" points="108.7841,281.6993,117.4684,286.345,113.7708,282.064,118.0519,278.3664,108.7841,281.6993" style="stroke:#181818;stroke-width:1.0;"/><text fill="#000000" font-family="sans-serif" font-size="13" lengthAdjust="spacing" textLength="10" x="149.5495" y="280.8638">--</text></g><!--link Sucia to Sucia--><g id="link_Sucia_Sucia"><path d="M108.7874,267.6697 C141.2266,261.7356 178.5495,264.6114 178.5495,276.2969 C178.5495,287.9824 147.1287,291.9378 114.6895,286.0037 " fill="none" id="Sucia-to-Sucia-1" style="stroke:#181818;stroke-width:1.0;"/><polygon fill="#181818" points="108.7874,284.9241,116.9207,290.4783,113.7058,285.8238,118.3603,282.6089,108.7874,284.9241" style="stroke:#181818;stroke-width:1.0;"/><text fill="#000000" font-family="sans-serif" font-size="13" lengthAdjust="spacing" textLength="20" x="184.5495" y="280.8638">++</text></g><!--SRC=[AyaioKbLSCbCJ2zAp4rKI4bLS2qkIKp9BmOoSnGSgqfpKhFokRYYjM8LT7Nj57moSmioWNm83HOABatEJ5ImKWYsC-22i14AWQAs1d35HK1na45MC7CLSY368RJ13DFLnIAehGq0]--></g></svg>