<?xml version="1.0" encoding="us-ascii" standalone="no"?><svg xmlns="http://www.w3.org/2000/svg" xmlns:xlink="http://www.w3.org/1999/xlink" contentStyleType="text/css" height="307px" preserveAspectRatio="none" style="width:293px;height:307px;background:#FFFFFF;" version="1.1" viewBox="0 0 293 307" width="293px" zoomAndPan="magnify"><defs/><g><text fill="#000000" font-family="sans-serif" font-size="14" font-weight="bold" lengthAdjust="spacing" textLength="265" x="10" y="22.9951">Diagrama de Estados del Azulejo</text><ellipse cx="101.2999" cy="53.2969" fill="#222222" rx="10" ry="10" style="stroke:#222222;stroke-width:1.0;"/><g id="Limpio"><rect fill="#F1F1F1" height="50" rx="12.5" ry="12.5" style="stroke:#181818;stroke-width:0.5;" width="69" x="66.7999" y="124.2969"/><line style="stroke:#181818;stroke-width:0.5;" x1="66.7999" x2="135.7999" y1="150.5938" y2="150.5938"/><text fill="#000000" font-family="sans-serif" font-size="14" lengthAdjust="spacing" textLength="49" x="76.7999" y="142.292">Limpio</text></g><g id="Sucia"><rect fill="#F1F1F1" height="50" rx="12.5" ry="12.5" style="stroke:#181818;stroke-width:0.5;" width="57" x="72.7999" y="251.2969"/><line style="stroke:#181818;stroke-width:0.5;" x1="72.7999" x2="129.7999" y1="277.5938" y2="277.5938"/><text fill="#000000" font-family="sans-serif" font-size="14" lengthAdjust="spacing" textLength="37" x="82.7999" y="269.292">Sucia</text></g><ellipse cx="182.2995" cy="149.2969" fill="none" rx="11" ry="11" style="stroke:#222222;stroke-width:1.0;"/><ellipse cx="182.2995" cy="149.2969" fill="#222222" rx="6" ry="6" style="stroke:#222222;stroke-width:1.0;"/><!--link *start* to Limpio--><g id="link_*start*_Limpio"><path d="M101.2999,63.3099 C101.2999,77.1879 101.2999,98.2619 101.2999,118.1369 " fill="none" id="*start*-to-Limpio" style="stroke:#181818;stroke-width:1.0;"/><polygon fill="#181818" points="101.2999,124.1369,105.2999,115.1369,101.2999,119.1369,97.2999,115.1369,101.2999,124.1369" style="stroke:#181818;stroke-width:1.0;"/></g><!--link Limpio to Sucia--><g id="link_Limpio_Sucia"><path d="M80.1806,174.4579 C73.7894,183.2509 67.595,193.6579 64.2999,204.2969 C59.2005,220.7609 64.089,233.1584 74.2326,246.4902 " fill="none" id="Limpio-to-Sucia" style="stroke:#181818;stroke-width:1.0;"/><polygon fill="#181818" points="77.8657,251.2652,75.5994,241.6806,74.8381,247.286,69.2327,246.5248,77.8657,251.2652" style="stroke:#181818;stroke-width:1.0;"/><text fill="#000000" font-family="sans-serif" font-size="13" lengthAdjust="spacing" textLength="26" x="65.2999" y="217.3638">S&gt;0</text></g><!--link Sucia to Limpio--><g id="link_Sucia_Limpio"><path d="M101.2999,251.2696 C101.2999,229.1584 101.2999,202.5329 101.2999,180.3979 " fill="none" id="Sucia-to-Limpio" style="stroke:#181818;stroke-width:1.0;"/><polygon fill="#181818" points="101.2999,174.3979,97.2999,183.3979,101.2999,179.3979,105.2999,183.3979,101.2999,174.3979" style="stroke:#181818;stroke-width:1.0;"/><text fill="#000000" font-family="sans-serif" font-size="13" lengthAdjust="spacing" textLength="26" x="102.2999" y="217.3638">S=0</text></g><!--link Limpio to *end*--><g id="link_Limpio_*end*"><path d="M136.1046,149.2969 C147.7737,149.2969 153.4428,149.2969 165.1115,149.2969 " fill="none" id="Limpio-to-*end*" style="stroke:#181818;stroke-width:1.0;"/><polygon fill="#181818" points="171.1115,149.2969,162.1115,145.2969,166.1115,149.2969,162.1115,153.2969,171.1115,149.2969" style="stroke:#181818;stroke-width:1.0;"/></g><!--link Sucia to Sucia--><g id="link_Sucia_Sucia"><path d="M130.0341,265.4921 C147.8474,262.8867 164.7995,266.4883 164.7995,276.2969 C164.7995,286.1055 153.7842,290.5754 135.9709,287.97 " fill="none" id="Sucia-to-Sucia" style="stroke:#181818;stroke-width:1.0;"/><polygon fill="#181818" points="130.0341,287.1017,138.3605,292.3621,134.9815,287.8253,139.5182,284.4463,130.0341,287.1017" style="stroke:#181818;stroke-width:1.0;"/><text fill="#000000" font-family="sans-serif" font-size="13" lengthAdjust="spacing" textLength="62" x="170.7995" y="280.8638">[-- || ++ ]</text></g><!--SRC=[AyaioKbLSCbCJ2zAp4rKI4bLS2qkIKp9BmOoSnGSgqfpKhFokRYYjM8LT7Nj57moSmioWNm83HOABatEJ5ImKWYsC-22i14AWQAs1d35HK1na458oc2QetLr5Mfg5BIr5M81]--></g></svg>