<?xml version="1.0" encoding="us-ascii" standalone="no"?><svg xmlns="http://www.w3.org/2000/svg" xmlns:xlink="http://www.w3.org/1999/xlink" contentStyleType="text/css" height="423px" preserveAspectRatio="none" style="width:338px;height:423px;background:#FFFFFF;" version="1.1" viewBox="0 0 338 423" width="338px" zoomAndPan="magnify"><defs/><g><text fill="#000000" font-family="sans-serif" font-size="14" font-weight="bold" lengthAdjust="spacing" textLength="310" x="10" y="22.9951">Diagrama de Estados de la Aspiradora</text><ellipse cx="124" cy="53.2969" fill="#222222" rx="10" ry="10" style="stroke:#222222;stroke-width:1.0;"/><g id="Apagada"><rect fill="#F1F1F1" height="50" rx="12.5" ry="12.5" style="stroke:#181818;stroke-width:0.5;" width="82" x="83" y="123.2969"/><line style="stroke:#181818;stroke-width:0.5;" x1="83" x2="165" y1="149.5938" y2="149.5938"/><text fill="#000000" font-family="sans-serif" font-size="14" lengthAdjust="spacing" textLength="62" x="93" y="141.292">Apagada</text></g><path d="M68.5,233.2969 L179.1794,233.2969 A12.5,12.5 0 0 1 191.6794,245.7969 L191.6794,259.5938 L56,259.5938 L56,245.7969 A12.5,12.5 0 0 1 68.5,233.2969 " fill="#F1F1F1" style="stroke:#F1F1F1;stroke-width:1.0;"/><rect fill="none" height="184.2969" rx="12.5" ry="12.5" style="stroke:#181818;stroke-width:0.5;" width="135.6794" x="56" y="233.2969"/><line style="stroke:#181818;stroke-width:0.5;" x1="56" x2="191.6794" y1="259.5938" y2="259.5938"/><text fill="#000000" font-family="sans-serif" font-size="14" lengthAdjust="spacing" textLength="74" x="86.8397" y="251.292">Encendida</text><g id="Encendida.Limpiando"><rect fill="#F1F1F1" height="50" rx="12.5" ry="12.5" style="stroke:#181818;stroke-width:0.5;" width="95" x="68" y="357.5938"/><line style="stroke:#181818;stroke-width:0.5;" x1="68" x2="163" y1="383.8906" y2="383.8906"/><text fill="#000000" font-family="sans-serif" font-size="14" lengthAdjust="spacing" textLength="75" x="78" y="375.5889">Limpiando</text></g><g id="Encendida.Aspirando"><rect fill="#F1F1F1" height="50" rx="12.5" ry="12.5" style="stroke:#181818;stroke-width:0.5;" width="92" x="69.5" y="271.5938"/><line style="stroke:#181818;stroke-width:0.5;" x1="69.5" x2="161.5" y1="297.8906" y2="297.8906"/><text fill="#000000" font-family="sans-serif" font-size="14" lengthAdjust="spacing" textLength="72" x="79.5" y="289.5889">Aspirando</text></g><!--link Limpiando to Aspirando--><g id="link_Limpiando_Aspirando"><path d="M121.6823,357.352 C122.438,346.2143 122.8438,339.0208 122.0906,327.8764 " fill="none" id="Limpiando-to-Aspirando" style="stroke:#181818;stroke-width:1.0;"/><polygon fill="#181818" points="121.686,321.8901,118.302,331.1393,122.0232,326.8787,126.2838,330.5998,121.686,321.8901" style="stroke:#181818;stroke-width:1.0;"/></g><!--link Aspirando to Limpiando--><g id="link_Aspirando_Limpiando"><path d="M109.314,321.8901 C108.5608,333.0345 108.1558,340.2281 108.9115,351.3658 " fill="none" id="Aspirando-to-Limpiando" style="stroke:#181818;stroke-width:1.0;"/><polygon fill="#181818" points="109.3177,357.352,112.6993,348.1019,108.9792,352.3635,104.7176,348.6435,109.3177,357.352" style="stroke:#181818;stroke-width:1.0;"/></g><!--link Limpiando to Limpiando--><g id="link_Limpiando_Limpiando"><path d="M163.1902,366.9451 C173.513,368.4752 181,373.6915 181,382.5938 C181,391.496 179.4482,395.8326 169.1254,397.3627 " fill="none" id="Limpiando-to-Limpiando" style="stroke:#181818;stroke-width:1.0;"/><polygon fill="#181818" points="163.1902,398.2424,172.6794,400.8796,168.1362,397.5093,171.5065,392.9661,163.1902,398.2424" style="stroke:#181818;stroke-width:1.0;"/></g><g id="Cargando"><rect fill="#F1F1F1" height="50" rx="12.5" ry="12.5" style="stroke:#181818;stroke-width:0.5;" width="88" x="200" y="123.2969"/><line style="stroke:#181818;stroke-width:0.5;" x1="200" x2="288" y1="149.5938" y2="149.5938"/><text fill="#000000" font-family="sans-serif" font-size="14" lengthAdjust="spacing" textLength="68" x="210" y="141.292">Cargando</text></g><ellipse cx="238" cy="325.2969" fill="none" rx="11" ry="11" style="stroke:#222222;stroke-width:1.0;"/><ellipse cx="238" cy="325.2969" fill="#222222" rx="6" ry="6" style="stroke:#222222;stroke-width:1.0;"/><!--link *start* to Apagada--><g id="link_*start*_Apagada"><path d="M124,63.5539 C124,77.3369 124,97.7189 124,117.2039 " fill="none" id="*start*-to-Apagada" style="stroke:#181818;stroke-width:1.0;"/><polygon fill="#181818" points="124,123.2039,128,114.2039,124,118.2039,120,114.2039,124,123.2039" style="stroke:#181818;stroke-width:1.0;"/></g><!--link Apagada to Encendida--><g id="link_Apagada_Encendida"><path d="M114.8484,173.6299 C112.5796,189.4079 111.4172,205.053 111.2942,227.017 " fill="none" id="Apagada-to-Encendida" style="stroke:#181818;stroke-width:1.0;"/><polygon fill="#181818" points="111.2606,233.0169,115.3109,224.0394,111.2886,228.017,107.3111,223.9946,111.2606,233.0169" style="stroke:#181818;stroke-width:1.0;"/></g><!--link Encendida to Apagada--><g id="link_Encendida_Apagada"><path d="M137.4888,233.0169 C137.3585,211.0529 136.9953,195.3395 134.593,179.5615 " fill="none" id="Encendida-to-Apagada" style="stroke:#181818;stroke-width:1.0;"/><polygon fill="#181818" points="133.6899,173.6299,131.0902,183.1294,134.4425,178.5729,138.999,181.9252,133.6899,173.6299" style="stroke:#181818;stroke-width:1.0;"/></g><!--link Apagada to Cargando--><g id="link_Apagada_Cargando"><path d="M165.25,165.2159 C176.734,167.4589 182.2977,168.6092 193.7817,166.7312 " fill="none" id="Apagada-to-Cargando" style="stroke:#181818;stroke-width:1.0;"/><polygon fill="#181818" points="199.703,165.7629,190.1754,163.2678,194.7685,166.5698,191.4665,171.1629,199.703,165.7629" style="stroke:#181818;stroke-width:1.0;"/></g><!--link Cargando to Apagada--><g id="link_Cargando_Apagada"><path d="M199.703,130.8309 C188.219,128.9529 182.6227,127.9847 171.1387,130.2277 " fill="none" id="Cargando-to-Apagada" style="stroke:#181818;stroke-width:1.0;"/><polygon fill="#181818" points="165.25,131.3779,174.8499,133.5785,170.1573,130.4194,173.3163,125.7268,165.25,131.3779" style="stroke:#181818;stroke-width:1.0;"/></g><!--link Apagada to *end*--><g id="link_Apagada_*end*"><path d="M155.7223,173.4799 C173.912,188.8359 195.869,210.1349 210,233.2969 C226.271,259.9659 232.8252,290.9332 235.6402,308.4162 " fill="none" id="Apagada-to-*end*" style="stroke:#181818;stroke-width:1.0;"/><polygon fill="#181818" points="236.594,314.3399,239.1124,304.8185,235.7992,309.4035,231.2142,306.0902,236.594,314.3399" style="stroke:#181818;stroke-width:1.0;"/></g><!--SRC=[NO_13i8W44JlVCMUJVW5aqPxym-CXubBo2Oj9S3D-Eykj1Khfvat0-mMAPEZgy0dp21sDEO2NdAL4sZ8KPBw16FkfmTPUwOXmeCLRAB1CJnTO57yLOUolbfSRxqCwRd970M1bxNQ_ggkXTtQf6dl_byzfERTnwh11SatleiLxsFzhg3xVG00]--></g></svg>