<?xml version="1.0" encoding="us-ascii" standalone="no"?><svg xmlns="http://www.w3.org/2000/svg" xmlns:xlink="http://www.w3.org/1999/xlink" contentStyleType="text/css" height="289px" preserveAspectRatio="none" style="width:390px;height:289px;background:#FFFFFF;" version="1.1" viewBox="0 0 390 289" width="390px" zoomAndPan="magnify"><defs/><g><text fill="#000000" font-family="sans-serif" font-size="14" font-weight="bold" lengthAdjust="spacing" textLength="310" x="33.25" y="22.9951">Diagrama de Estados de la Aspiradora</text><ellipse cx="48" cy="53.2969" fill="#222222" rx="10" ry="10" style="stroke:#222222;stroke-width:1.0;"/><g id="Apagada"><rect fill="#F1F1F1" height="50" rx="12.5" ry="12.5" style="stroke:#181818;stroke-width:0.5;" width="82" x="7" y="123.2969"/><line style="stroke:#181818;stroke-width:0.5;" x1="7" x2="89" y1="149.5938" y2="149.5938"/><text fill="#000000" font-family="sans-serif" font-size="14" lengthAdjust="spacing" textLength="62" x="17" y="141.292">Apagada</text></g><g id="Encendida"><rect fill="#F1F1F1" height="50" rx="12.5" ry="12.5" style="stroke:#181818;stroke-width:0.5;" width="94" x="124" y="123.2969"/><line style="stroke:#181818;stroke-width:0.5;" x1="124" x2="218" y1="149.5938" y2="149.5938"/><text fill="#000000" font-family="sans-serif" font-size="14" lengthAdjust="spacing" textLength="74" x="134" y="141.292">Encendida</text></g><g id="Limpiando"><rect fill="#F1F1F1" height="50" rx="12.5" ry="12.5" style="stroke:#181818;stroke-width:0.5;" width="95" x="253.5" y="123.2969"/><line style="stroke:#181818;stroke-width:0.5;" x1="253.5" x2="348.5" y1="149.5938" y2="149.5938"/><text fill="#000000" font-family="sans-serif" font-size="14" lengthAdjust="spacing" textLength="75" x="263.5" y="141.292">Limpiando</text></g><g id="Aspirando"><rect fill="#F1F1F1" height="50" rx="12.5" ry="12.5" style="stroke:#181818;stroke-width:0.5;" width="92" x="255" y="233.2969"/><line style="stroke:#181818;stroke-width:0.5;" x1="255" x2="347" y1="259.5938" y2="259.5938"/><text fill="#000000" font-family="sans-serif" font-size="14" lengthAdjust="spacing" textLength="72" x="265" y="251.292">Aspirando</text></g><ellipse cx="48" cy="258.2969" fill="none" rx="11" ry="11" style="stroke:#222222;stroke-width:1.0;"/><ellipse cx="48" cy="258.2969" fill="#222222" rx="6" ry="6" style="stroke:#222222;stroke-width:1.0;"/><!--link *start* to Apagada--><g id="link_*start*_Apagada"><path d="M48,63.5539 C48,77.3369 48,97.7189 48,117.2039 " fill="none" id="*start*-to-Apagada" style="stroke:#181818;stroke-width:1.0;"/><polygon fill="#181818" points="48,123.2039,52,114.2039,48,118.2039,44,114.2039,48,123.2039" style="stroke:#181818;stroke-width:1.0;"/></g><!--link Apagada to Encendida--><g id="link_Apagada_Encendida"><path d="M89.3203,165.0279 C100.8065,167.3259 106.3522,168.5029 117.8382,166.8769 " fill="none" id="Apagada-to-Encendida" style="stroke:#181818;stroke-width:1.0;"/><polygon fill="#181818" points="123.779,166.0359,114.3072,163.3369,118.8284,166.7367,115.4285,171.2579,123.779,166.0359" style="stroke:#181818;stroke-width:1.0;"/></g><!--link Encendida to Apagada--><g id="link_Encendida_Apagada"><path d="M123.779,130.5579 C112.293,128.9319 106.6899,128.0908 95.2037,130.3888 " fill="none" id="Encendida-to-Apagada" style="stroke:#181818;stroke-width:1.0;"/><polygon fill="#181818" points="89.3203,131.5659,98.9301,133.7225,94.2231,130.585,97.3607,125.878,89.3203,131.5659" style="stroke:#181818;stroke-width:1.0;"/></g><!--link Encendida to Limpiando--><g id="link_Encendida_Limpiando"><path d="M218.227,165.6449 C229.974,167.4979 235.7928,168.4329 247.5408,166.6119 " fill="none" id="Encendida-to-Limpiando" style="stroke:#181818;stroke-width:1.0;"/><polygon fill="#181818" points="253.47,165.6929,243.9635,163.1187,248.529,166.4588,245.1889,171.0243,253.47,165.6929" style="stroke:#181818;stroke-width:1.0;"/></g><!--link Limpiando to Encendida--><g id="link_Limpiando_Encendida"><path d="M253.47,130.9009 C241.722,129.0799 235.9007,128.161 224.1537,130.014 " fill="none" id="Limpiando-to-Encendida" style="stroke:#181818;stroke-width:1.0;"/><polygon fill="#181818" points="218.227,130.9489,227.7403,133.4977,223.1659,130.1698,226.4938,125.5954,218.227,130.9489" style="stroke:#181818;stroke-width:1.0;"/></g><!--link Limpiando to Aspirando--><g id="link_Limpiando_Aspirando"><path d="M290.157,173.5339 C287.611,191.3209 286.7603,209.4338 289.3143,227.2015 " fill="none" id="Limpiando-to-Aspirando" style="stroke:#181818;stroke-width:1.0;"/><polygon fill="#181818" points="290.168,233.1405,292.8468,223.6629,289.4566,228.1913,284.9282,224.8012,290.168,233.1405" style="stroke:#181818;stroke-width:1.0;"/></g><!--link Aspirando to Limpiando--><g id="link_Aspirando_Limpiando"><path d="M312.469,233.1405 C315.173,215.3728 316.0762,197.2531 313.3802,179.4661 " fill="none" id="Aspirando-to-Limpiando" style="stroke:#181818;stroke-width:1.0;"/><polygon fill="#181818" points="312.481,173.5339,309.8749,183.0317,313.2303,178.4774,317.7846,181.8328,312.481,173.5339" style="stroke:#181818;stroke-width:1.0;"/></g><!--link Limpiando to Apagada--><g id="link_Limpiando_Apagada"><path d="M272.235,123.2859 C257.048,111.7369 237.453,99.2779 217.5,93.2969 C177.481,81.3009 163.225,80.3619 123.5,93.2969 C105.1502,99.2719 92.1327,107.7088 78.5459,119.1668 " fill="none" id="Limpiando-to-Apagada" style="stroke:#181818;stroke-width:1.0;"/><polygon fill="#181818" points="73.9592,123.0349,83.418,120.2906,77.7815,119.8115,78.2606,114.175,73.9592,123.0349" style="stroke:#181818;stroke-width:1.0;"/></g><!--link Limpiando to Limpiando--><g id="link_Limpiando_Limpiando"><path d="M348.89,130.7589 C367.748,129.8749 383.5,135.7209 383.5,148.2969 C383.5,160.8729 373.7414,166.9998 354.8834,166.1158 " fill="none" id="Limpiando-to-Limpiando" style="stroke:#181818;stroke-width:1.0;"/><polygon fill="#181818" points="348.89,165.8349,357.6928,170.2519,353.8845,166.069,358.0674,162.2607,348.89,165.8349" style="stroke:#181818;stroke-width:1.0;"/></g><!--link Apagada to *end*--><g id="link_Apagada_*end*"><path d="M48,173.5339 C48,196.6694 48,224.404 48,241.1229 " fill="none" id="Apagada-to-*end*" style="stroke:#181818;stroke-width:1.0;"/><polygon fill="#181818" points="48,247.1229,52,238.1229,48,242.1229,44,238.1229,48,247.1229" style="stroke:#181818;stroke-width:1.0;"/></g><!--SRC=[POyv2iGm34Lxdq9rm5SO22JTt62OuXEP84WSO_l-HDcShNjwMZxAaWT7ZQ2F647ig4qPFAK51r2TWaIj8upvLN-ozaDrG0zMiGFPgBRrdVCiwWjjZMFyeRyo1e7doHJQhg-9IsLEl6_GTUMM_UeSuGzzXfSVrEg3Cm00]--></g></svg>