<?xml version="1.0" encoding="us-ascii" standalone="no"?><svg xmlns="http://www.w3.org/2000/svg" xmlns:xlink="http://www.w3.org/1999/xlink" contentStyleType="text/css" height="944px" preserveAspectRatio="none" style="width:1245px;height:944px;background:#FFFFFF;" version="1.1" viewBox="0 0 1245 944" width="1245px" zoomAndPan="magnify"><defs/><g><text fill="#000000" font-family="sans-serif" font-size="14" font-weight="bold" lengthAdjust="spacing" textLength="228" x="501.75" y="22.9951">Modelo de clases Aspiradora</text><!--class Habitacion--><g id="elem_Habitacion"><rect codeLine="3" fill="#F1F1F1" height="194.6719" id="Habitacion" rx="2.5" ry="2.5" style="stroke:#181818;stroke-width:0.5;" width="526" x="257.5" y="44.2969"/><ellipse cx="480.25" cy="60.2969" fill="#ADD1B2" rx="11" ry="11" style="stroke:#181818;stroke-width:1.0;"/><path d="M483.2188,65.9375 Q482.6406,66.2344 482,66.375 Q481.3594,66.5313 480.6563,66.5313 Q478.1563,66.5313 476.8281,64.8906 Q475.5156,63.2344 475.5156,60.1094 Q475.5156,56.9844 476.8281,55.3281 Q478.1563,53.6719 480.6563,53.6719 Q481.3594,53.6719 482,53.8281 Q482.6563,53.9844 483.2188,54.2813 L483.2188,57 Q482.5938,56.4219 482,56.1563 Q481.4063,55.875 480.7813,55.875 Q479.4375,55.875 478.75,56.9531 Q478.0625,58.0156 478.0625,60.1094 Q478.0625,62.2031 478.75,63.2813 Q479.4375,64.3438 480.7813,64.3438 Q481.4063,64.3438 482,64.0781 Q482.5938,63.7969 483.2188,63.2188 L483.2188,65.9375 Z " fill="#000000"/><text fill="#000000" font-family="sans-serif" font-size="14" lengthAdjust="spacing" textLength="72" x="500.75" y="65.1436">Habitacion</text><line style="stroke:#181818;stroke-width:0.5;" x1="258.5" x2="782.5" y1="76.2969" y2="76.2969"/><rect fill="none" height="6" style="stroke:#C82930;stroke-width:1.0;" width="6" x="265.5" y="86.9453"/><text fill="#000000" font-family="sans-serif" font-size="14" lengthAdjust="spacing" textLength="145" x="277.5" y="93.292">Azulejo [][] superficie</text><rect fill="none" height="6" style="stroke:#C82930;stroke-width:1.0;" width="6" x="265.5" y="103.2422"/><text fill="#000000" font-family="sans-serif" font-size="14" lengthAdjust="spacing" textLength="144" x="277.5" y="109.5889">boolean [][] muebles</text><rect fill="none" height="6" style="stroke:#C82930;stroke-width:1.0;" width="6" x="265.5" y="119.5391"/><text fill="#000000" font-family="sans-serif" font-size="14" lengthAdjust="spacing" textLength="64" x="277.5" y="125.8857">int ancho</text><rect fill="none" height="6" style="stroke:#C82930;stroke-width:1.0;" width="6" x="265.5" y="135.8359"/><text fill="#000000" font-family="sans-serif" font-size="14" lengthAdjust="spacing" textLength="55" x="277.5" y="142.1826">int largo</text><line style="stroke:#181818;stroke-width:0.5;" x1="258.5" x2="782.5" y1="149.4844" y2="149.4844"/><ellipse cx="268.5" cy="163.1328" fill="#84BE84" rx="3" ry="3" style="stroke:#038048;stroke-width:1.0;"/><text fill="#000000" font-family="sans-serif" font-size="14" lengthAdjust="spacing" textLength="209" x="277.5" y="166.4795">Habitacion(int ancho, int largo)</text><ellipse cx="268.5" cy="179.4297" fill="#84BE84" rx="3" ry="3" style="stroke:#038048;stroke-width:1.0;"/><text fill="#000000" font-family="sans-serif" font-size="14" lengthAdjust="spacing" textLength="317" x="277.5" y="182.7764">void imprimir(Aspiradora aspiradora,Gato gato)</text><ellipse cx="268.5" cy="195.7266" fill="#84BE84" rx="3" ry="3" style="stroke:#038048;stroke-width:1.0;"/><text fill="#000000" font-family="sans-serif" font-size="14" lengthAdjust="spacing" textLength="207" x="277.5" y="199.0732">void imprimirBordeHorizontal()</text><ellipse cx="268.5" cy="212.0234" fill="#84BE84" rx="3" ry="3" style="stroke:#038048;stroke-width:1.0;"/><text fill="#000000" font-family="sans-serif" font-size="14" lengthAdjust="spacing" textLength="323" x="277.5" y="215.3701">boolean generarMuebles(boolean[][] muebles)</text><ellipse cx="268.5" cy="228.3203" fill="#84BE84" rx="3" ry="3" style="stroke:#038048;stroke-width:1.0;"/><text fill="#000000" font-family="sans-serif" font-size="14" lengthAdjust="spacing" textLength="500" x="277.5" y="231.667">Azulejo[][] generarSuperficie(int ancho, int largo, int porcentajeSuciedad)</text></g><!--class Azulejo--><g id="elem_Azulejo"><rect codeLine="15" fill="#F1F1F1" height="145.7813" id="Azulejo" rx="2.5" ry="2.5" style="stroke:#181818;stroke-width:0.5;" width="302" x="165.5" y="323.4169"/><ellipse cx="287.25" cy="339.4169" fill="#ADD1B2" rx="11" ry="11" style="stroke:#181818;stroke-width:1.0;"/><path d="M290.2188,345.0575 Q289.6406,345.3544 289,345.495 Q288.3594,345.6513 287.6563,345.6513 Q285.1563,345.6513 283.8281,344.0106 Q282.5156,342.3544 282.5156,339.2294 Q282.5156,336.1044 283.8281,334.4481 Q285.1563,332.7919 287.6563,332.7919 Q288.3594,332.7919 289,332.9481 Q289.6563,333.1044 290.2188,333.4013 L290.2188,336.12 Q289.5938,335.5419 289,335.2763 Q288.4063,334.995 287.7813,334.995 Q286.4375,334.995 285.75,336.0731 Q285.0625,337.1356 285.0625,339.2294 Q285.0625,341.3231 285.75,342.4013 Q286.4375,343.4638 287.7813,343.4638 Q288.4063,343.4638 289,343.1981 Q289.5938,342.9169 290.2188,342.3388 L290.2188,345.0575 Z " fill="#000000"/><text fill="#000000" font-family="sans-serif" font-size="14" lengthAdjust="spacing" textLength="50" x="307.75" y="344.2636">Azulejo</text><line style="stroke:#181818;stroke-width:0.5;" x1="166.5" x2="466.5" y1="355.4169" y2="355.4169"/><rect fill="none" height="6" style="stroke:#C82930;stroke-width:1.0;" width="6" x="173.5" y="366.0653"/><text fill="#000000" font-family="sans-serif" font-size="14" lengthAdjust="spacing" textLength="116" x="185.5" y="372.412">int nivelSuciedad</text><rect fill="none" height="6" style="stroke:#C82930;stroke-width:1.0;" width="6" x="173.5" y="382.3622"/><text fill="#000000" font-family="sans-serif" font-size="14" lengthAdjust="spacing" textLength="120" x="185.5" y="388.7089">Posicion posicion</text><rect fill="none" height="6" style="stroke:#C82930;stroke-width:1.0;" width="6" x="173.5" y="398.6591"/><text fill="#000000" font-family="sans-serif" font-size="14" lengthAdjust="spacing" textLength="146" x="185.5" y="405.0057">boolean tieneMueble</text><line style="stroke:#181818;stroke-width:0.5;" x1="166.5" x2="466.5" y1="412.3075" y2="412.3075"/><ellipse cx="176.5" cy="425.9559" fill="#84BE84" rx="3" ry="3" style="stroke:#038048;stroke-width:1.0;"/><text fill="#000000" font-family="sans-serif" font-size="14" lengthAdjust="spacing" textLength="185" x="185.5" y="429.3026">Azulejo(int nivelSuciedad)}</text><ellipse cx="176.5" cy="442.2528" fill="#84BE84" rx="3" ry="3" style="stroke:#038048;stroke-width:1.0;"/><text fill="#000000" font-family="sans-serif" font-size="14" lengthAdjust="spacing" textLength="150" x="185.5" y="445.5995">int getNivelSuciedad()</text><ellipse cx="176.5" cy="458.5497" fill="#84BE84" rx="3" ry="3" style="stroke:#038048;stroke-width:1.0;"/><text fill="#000000" font-family="sans-serif" font-size="14" lengthAdjust="spacing" textLength="276" x="185.5" y="461.8964">void setNivelSuciedad(int nivelSuciedad)</text></g><!--class Aspiradora--><g id="elem_Aspiradora"><rect codeLine="24" fill="#F1F1F1" height="194.6719" id="Aspiradora" rx="2.5" ry="2.5" style="stroke:#181818;stroke-width:0.5;" width="374" x="599.5" y="298.9669"/><ellipse cx="745.75" cy="314.9669" fill="#ADD1B2" rx="11" ry="11" style="stroke:#181818;stroke-width:1.0;"/><path d="M748.7188,320.6075 Q748.1406,320.9044 747.5,321.045 Q746.8594,321.2012 746.1563,321.2012 Q743.6563,321.2012 742.3281,319.5606 Q741.0156,317.9044 741.0156,314.7794 Q741.0156,311.6544 742.3281,309.9981 Q743.6563,308.3419 746.1563,308.3419 Q746.8594,308.3419 747.5,308.4981 Q748.1563,308.6544 748.7188,308.9512 L748.7188,311.67 Q748.0938,311.0919 747.5,310.8262 Q746.9063,310.545 746.2813,310.545 Q744.9375,310.545 744.25,311.6231 Q743.5625,312.6856 743.5625,314.7794 Q743.5625,316.8731 744.25,317.9512 Q744.9375,319.0137 746.2813,319.0137 Q746.9063,319.0137 747.5,318.7481 Q748.0938,318.4669 748.7188,317.8887 L748.7188,320.6075 Z " fill="#000000"/><text fill="#000000" font-family="sans-serif" font-size="14" lengthAdjust="spacing" textLength="73" x="766.25" y="319.8136">Aspiradora</text><line style="stroke:#181818;stroke-width:0.5;" x1="600.5" x2="972.5" y1="330.9669" y2="330.9669"/><rect fill="none" height="6" style="stroke:#C82930;stroke-width:1.0;" width="6" x="607.5" y="341.6153"/><text fill="#000000" font-family="sans-serif" font-size="14" lengthAdjust="spacing" textLength="138" x="619.5" y="347.962">int pasosRealizados</text><rect fill="none" height="6" style="stroke:#C82930;stroke-width:1.0;" width="6" x="607.5" y="357.9122"/><text fill="#000000" font-family="sans-serif" font-size="14" lengthAdjust="spacing" textLength="143" x="619.5" y="364.2589">int limpiezaRealizada</text><rect fill="none" height="6" style="stroke:#C82930;stroke-width:1.0;" width="6" x="607.5" y="374.2091"/><text fill="#000000" font-family="sans-serif" font-size="14" lengthAdjust="spacing" textLength="242" x="619.5" y="380.5557">CapacidadBasura capacidadBasura</text><rect fill="none" height="6" style="stroke:#C82930;stroke-width:1.0;" width="6" x="607.5" y="390.5059"/><text fill="#000000" font-family="sans-serif" font-size="14" lengthAdjust="spacing" textLength="99" x="619.5" y="396.8526">Bateria bateria</text><rect fill="none" height="6" style="stroke:#C82930;stroke-width:1.0;" width="6" x="607.5" y="406.8028"/><text fill="#000000" font-family="sans-serif" font-size="14" lengthAdjust="spacing" textLength="120" x="619.5" y="413.1495">Posicion posicion</text><line style="stroke:#181818;stroke-width:0.5;" x1="600.5" x2="972.5" y1="420.4512" y2="420.4512"/><ellipse cx="610.5" cy="434.0997" fill="#84BE84" rx="3" ry="3" style="stroke:#038048;stroke-width:1.0;"/><text fill="#000000" font-family="sans-serif" font-size="14" lengthAdjust="spacing" textLength="83" x="619.5" y="437.4464">Aspiradora()</text><ellipse cx="610.5" cy="450.3966" fill="#84BE84" rx="3" ry="3" style="stroke:#038048;stroke-width:1.0;"/><text fill="#000000" font-family="sans-serif" font-size="14" lengthAdjust="spacing" textLength="91" x="619.5" y="453.7432">getPosicion()</text><ellipse cx="610.5" cy="466.6934" fill="#84BE84" rx="3" ry="3" style="stroke:#038048;stroke-width:1.0;"/><text fill="#000000" font-family="sans-serif" font-size="14" lengthAdjust="spacing" textLength="232" x="619.5" y="470.0401">void mover(Habitacion habitacion)</text><ellipse cx="610.5" cy="482.9903" fill="#84BE84" rx="3" ry="3" style="stroke:#038048;stroke-width:1.0;"/><text fill="#000000" font-family="sans-serif" font-size="14" lengthAdjust="spacing" textLength="348" x="619.5" y="486.337">void limpiarCasilla(Habitacion habitacion, int x, int y)</text></g><!--class Elementos--><g id="elem_Elementos"><rect codeLine="36" fill="#F1F1F1" height="113.1875" id="Elementos" rx="2.5" ry="2.5" style="stroke:#181818;stroke-width:0.5;" width="257" x="7" y="569.9369"/><ellipse cx="94.25" cy="585.9369" fill="#ADD1B2" rx="11" ry="11" style="stroke:#181818;stroke-width:1.0;"/><path d="M97.2188,591.5775 Q96.6406,591.8744 96,592.015 Q95.3594,592.1713 94.6563,592.1713 Q92.1563,592.1713 90.8281,590.5306 Q89.5156,588.8744 89.5156,585.7494 Q89.5156,582.6244 90.8281,580.9681 Q92.1563,579.3119 94.6563,579.3119 Q95.3594,579.3119 96,579.4681 Q96.6563,579.6244 97.2188,579.9213 L97.2188,582.64 Q96.5938,582.0619 96,581.7963 Q95.4063,581.515 94.7813,581.515 Q93.4375,581.515 92.75,582.5931 Q92.0625,583.6556 92.0625,585.7494 Q92.0625,587.8431 92.75,588.9213 Q93.4375,589.9838 94.7813,589.9838 Q95.4063,589.9838 96,589.7181 Q96.5938,589.4369 97.2188,588.8588 L97.2188,591.5775 Z " fill="#000000"/><text fill="#000000" font-family="sans-serif" font-size="14" lengthAdjust="spacing" textLength="74" x="114.75" y="590.7836">Elementos</text><line style="stroke:#181818;stroke-width:0.5;" x1="8" x2="263" y1="601.9369" y2="601.9369"/><rect fill="none" height="6" style="stroke:#C82930;stroke-width:1.0;" width="6" x="15" y="612.5853"/><text fill="#000000" font-family="sans-serif" font-size="14" lengthAdjust="spacing" textLength="80" x="27" y="618.932">String value</text><line style="stroke:#181818;stroke-width:0.5;" x1="8" x2="263" y1="626.2338" y2="626.2338"/><ellipse cx="18" cy="639.8822" fill="#84BE84" rx="3" ry="3" style="stroke:#038048;stroke-width:1.0;"/><text fill="#000000" font-family="sans-serif" font-size="14" lengthAdjust="spacing" textLength="155" x="27" y="643.2289">Elements(String value)</text><ellipse cx="18" cy="656.1791" fill="#84BE84" rx="3" ry="3" style="stroke:#038048;stroke-width:1.0;"/><text fill="#000000" font-family="sans-serif" font-size="14" lengthAdjust="spacing" textLength="134" x="27" y="659.5257">String getElement()</text><ellipse cx="18" cy="672.4759" fill="#84BE84" rx="3" ry="3" style="stroke:#038048;stroke-width:1.0;"/><text fill="#000000" font-family="sans-serif" font-size="14" lengthAdjust="spacing" textLength="231" x="27" y="675.8226">void setElement(String elemento)</text></g><!--class Gato--><g id="elem_Gato"><rect codeLine="43" fill="#F1F1F1" height="129.4844" id="Gato" rx="2.5" ry="2.5" style="stroke:#181818;stroke-width:0.5;" width="258" x="369.5" y="561.7869"/><ellipse cx="477.75" cy="577.7869" fill="#ADD1B2" rx="11" ry="11" style="stroke:#181818;stroke-width:1.0;"/><path d="M480.7188,583.4275 Q480.1406,583.7244 479.5,583.865 Q478.8594,584.0213 478.1563,584.0213 Q475.6563,584.0213 474.3281,582.3806 Q473.0156,580.7244 473.0156,577.5994 Q473.0156,574.4744 474.3281,572.8181 Q475.6563,571.1619 478.1563,571.1619 Q478.8594,571.1619 479.5,571.3181 Q480.1563,571.4744 480.7188,571.7713 L480.7188,574.49 Q480.0938,573.9119 479.5,573.6463 Q478.9063,573.365 478.2813,573.365 Q476.9375,573.365 476.25,574.4431 Q475.5625,575.5056 475.5625,577.5994 Q475.5625,579.6931 476.25,580.7713 Q476.9375,581.8338 478.2813,581.8338 Q478.9063,581.8338 479.5,581.5681 Q480.0938,581.2869 480.7188,580.7088 L480.7188,583.4275 Z " fill="#000000"/><text fill="#000000" font-family="sans-serif" font-size="14" lengthAdjust="spacing" textLength="33" x="498.25" y="582.6336">Gato</text><line style="stroke:#181818;stroke-width:0.5;" x1="370.5" x2="626.5" y1="593.7869" y2="593.7869"/><rect fill="none" height="6" style="stroke:#C82930;stroke-width:1.0;" width="6" x="377.5" y="604.4353"/><text fill="#000000" font-family="sans-serif" font-size="14" lengthAdjust="spacing" textLength="120" x="389.5" y="610.782">Posicion posicion</text><rect fill="none" height="6" style="stroke:#C82930;stroke-width:1.0;" width="6" x="377.5" y="620.7322"/><text fill="#000000" font-family="sans-serif" font-size="14" lengthAdjust="spacing" textLength="138" x="389.5" y="627.0789">int pasosRealizados</text><line style="stroke:#181818;stroke-width:0.5;" x1="370.5" x2="626.5" y1="634.3806" y2="634.3806"/><ellipse cx="380.5" cy="648.0291" fill="#84BE84" rx="3" ry="3" style="stroke:#038048;stroke-width:1.0;"/><text fill="#000000" font-family="sans-serif" font-size="14" lengthAdjust="spacing" textLength="107" x="389.5" y="651.3757">Gato(int x, int y)</text><ellipse cx="380.5" cy="664.3259" fill="#84BE84" rx="3" ry="3" style="stroke:#038048;stroke-width:1.0;"/><text fill="#000000" font-family="sans-serif" font-size="14" lengthAdjust="spacing" textLength="153" x="389.5" y="667.6726">Posicion getPosicion()</text><ellipse cx="380.5" cy="680.6228" fill="#84BE84" rx="3" ry="3" style="stroke:#038048;stroke-width:1.0;"/><text fill="#000000" font-family="sans-serif" font-size="14" lengthAdjust="spacing" textLength="232" x="389.5" y="683.9695">void mover(Habitacion habitacion)</text></g><!--class Posicion--><g id="elem_Posicion"><rect codeLine="51" fill="#F1F1F1" height="178.375" id="Posicion" rx="2.5" ry="2.5" style="stroke:#181818;stroke-width:0.5;" width="212" x="392.5" y="759.4169"/><ellipse cx="465.25" cy="775.4169" fill="#ADD1B2" rx="11" ry="11" style="stroke:#181818;stroke-width:1.0;"/><path d="M468.2188,781.0575 Q467.6406,781.3544 467,781.495 Q466.3594,781.6513 465.6563,781.6513 Q463.1563,781.6513 461.8281,780.0106 Q460.5156,778.3544 460.5156,775.2294 Q460.5156,772.1044 461.8281,770.4481 Q463.1563,768.7919 465.6563,768.7919 Q466.3594,768.7919 467,768.9481 Q467.6563,769.1044 468.2188,769.4013 L468.2188,772.12 Q467.5938,771.5419 467,771.2763 Q466.4063,770.995 465.7813,770.995 Q464.4375,770.995 463.75,772.0731 Q463.0625,773.1356 463.0625,775.2294 Q463.0625,777.3231 463.75,778.4013 Q464.4375,779.4638 465.7813,779.4638 Q466.4063,779.4638 467,779.1981 Q467.5938,778.9169 468.2188,778.3388 L468.2188,781.0575 Z " fill="#000000"/><text fill="#000000" font-family="sans-serif" font-size="14" lengthAdjust="spacing" textLength="58" x="485.75" y="780.2636">Posicion</text><line style="stroke:#181818;stroke-width:0.5;" x1="393.5" x2="603.5" y1="791.4169" y2="791.4169"/><rect fill="none" height="6" style="stroke:#C82930;stroke-width:1.0;" width="6" x="400.5" y="802.0653"/><text fill="#000000" font-family="sans-serif" font-size="14" lengthAdjust="spacing" textLength="28" x="412.5" y="808.412">int x</text><rect fill="none" height="6" style="stroke:#C82930;stroke-width:1.0;" width="6" x="400.5" y="818.3622"/><text fill="#000000" font-family="sans-serif" font-size="14" lengthAdjust="spacing" textLength="28" x="412.5" y="824.7089">int y</text><line style="stroke:#181818;stroke-width:0.5;" x1="393.5" x2="603.5" y1="832.0106" y2="832.0106"/><ellipse cx="403.5" cy="845.6591" fill="#84BE84" rx="3" ry="3" style="stroke:#038048;stroke-width:1.0;"/><text fill="#000000" font-family="sans-serif" font-size="14" lengthAdjust="spacing" textLength="132" x="412.5" y="849.0057">Posicion(int x, int y)</text><ellipse cx="403.5" cy="861.9559" fill="#84BE84" rx="3" ry="3" style="stroke:#038048;stroke-width:1.0;"/><text fill="#000000" font-family="sans-serif" font-size="14" lengthAdjust="spacing" textLength="63" x="412.5" y="865.3026">int getX()</text><ellipse cx="403.5" cy="878.2528" fill="#84BE84" rx="3" ry="3" style="stroke:#038048;stroke-width:1.0;"/><text fill="#000000" font-family="sans-serif" font-size="14" lengthAdjust="spacing" textLength="63" x="412.5" y="881.5995">int getY()</text><ellipse cx="403.5" cy="894.5497" fill="#84BE84" rx="3" ry="3" style="stroke:#038048;stroke-width:1.0;"/><text fill="#000000" font-family="sans-serif" font-size="14" lengthAdjust="spacing" textLength="186" x="412.5" y="897.8964">void setPosicion(int x, int y)</text><ellipse cx="403.5" cy="910.8466" fill="#84BE84" rx="3" ry="3" style="stroke:#038048;stroke-width:1.0;"/><text fill="#000000" font-family="sans-serif" font-size="14" lengthAdjust="spacing" textLength="101" x="412.5" y="914.1932">void setX(int x)</text><ellipse cx="403.5" cy="927.1434" fill="#84BE84" rx="3" ry="3" style="stroke:#038048;stroke-width:1.0;"/><text fill="#000000" font-family="sans-serif" font-size="14" lengthAdjust="spacing" textLength="101" x="412.5" y="930.4901">void setY(int y)</text></g><!--class Bateria--><g id="elem_Bateria"><rect codeLine="62" fill="#F1F1F1" height="129.4844" id="Bateria" rx="2.5" ry="2.5" style="stroke:#181818;stroke-width:0.5;" width="160" x="733.5" y="561.7869"/><ellipse cx="785.25" cy="577.7869" fill="#ADD1B2" rx="11" ry="11" style="stroke:#181818;stroke-width:1.0;"/><path d="M788.2188,583.4275 Q787.6406,583.7244 787,583.865 Q786.3594,584.0213 785.6563,584.0213 Q783.1563,584.0213 781.8281,582.3806 Q780.5156,580.7244 780.5156,577.5994 Q780.5156,574.4744 781.8281,572.8181 Q783.1563,571.1619 785.6563,571.1619 Q786.3594,571.1619 787,571.3181 Q787.6563,571.4744 788.2188,571.7713 L788.2188,574.49 Q787.5938,573.9119 787,573.6463 Q786.4063,573.365 785.7813,573.365 Q784.4375,573.365 783.75,574.4431 Q783.0625,575.5056 783.0625,577.5994 Q783.0625,579.6931 783.75,580.7713 Q784.4375,581.8338 785.7813,581.8338 Q786.4063,581.8338 787,581.5681 Q787.5938,581.2869 788.2188,580.7088 L788.2188,583.4275 Z " fill="#000000"/><text fill="#000000" font-family="sans-serif" font-size="14" lengthAdjust="spacing" textLength="48" x="805.75" y="582.6336">Bateria</text><line style="stroke:#181818;stroke-width:0.5;" x1="734.5" x2="892.5" y1="593.7869" y2="593.7869"/><rect fill="none" height="6" style="stroke:#C82930;stroke-width:1.0;" width="6" x="741.5" y="604.4353"/><text fill="#000000" font-family="sans-serif" font-size="14" lengthAdjust="spacing" textLength="100" x="753.5" y="610.782">int nivelBateria</text><line style="stroke:#181818;stroke-width:0.5;" x1="734.5" x2="892.5" y1="618.0838" y2="618.0838"/><ellipse cx="744.5" cy="631.7322" fill="#84BE84" rx="3" ry="3" style="stroke:#038048;stroke-width:1.0;"/><text fill="#000000" font-family="sans-serif" font-size="14" lengthAdjust="spacing" textLength="106" x="753.5" y="635.0789">void descarga()</text><ellipse cx="744.5" cy="648.0291" fill="#84BE84" rx="3" ry="3" style="stroke:#038048;stroke-width:1.0;"/><text fill="#000000" font-family="sans-serif" font-size="14" lengthAdjust="spacing" textLength="80" x="753.5" y="651.3757">void carga()</text><ellipse cx="744.5" cy="664.3259" fill="#84BE84" rx="3" ry="3" style="stroke:#038048;stroke-width:1.0;"/><text fill="#000000" font-family="sans-serif" font-size="14" lengthAdjust="spacing" textLength="134" x="753.5" y="667.6726">int getNivelBateria()</text><ellipse cx="744.5" cy="680.6228" fill="#84BE84" rx="3" ry="3" style="stroke:#038048;stroke-width:1.0;"/><text fill="#000000" font-family="sans-serif" font-size="14" lengthAdjust="spacing" textLength="133" x="753.5" y="683.9695">int setNivelBateria()</text></g><!--class CapacidadDeBasura--><g id="elem_CapacidadDeBasura"><rect codeLine="69" fill="#F1F1F1" height="145.7813" id="CapacidadDeBasura" rx="2.5" ry="2.5" style="stroke:#181818;stroke-width:0.5;" width="310" x="928.5" y="553.6369"/><ellipse cx="1009.25" cy="569.6369" fill="#ADD1B2" rx="11" ry="11" style="stroke:#181818;stroke-width:1.0;"/><path d="M1012.2188,575.2775 Q1011.6406,575.5744 1011,575.715 Q1010.3594,575.8712 1009.6563,575.8712 Q1007.1563,575.8712 1005.8281,574.2306 Q1004.5156,572.5744 1004.5156,569.4494 Q1004.5156,566.3244 1005.8281,564.6681 Q1007.1563,563.0119 1009.6563,563.0119 Q1010.3594,563.0119 1011,563.1681 Q1011.6563,563.3244 1012.2188,563.6212 L1012.2188,566.34 Q1011.5938,565.7619 1011,565.4962 Q1010.4063,565.215 1009.7813,565.215 Q1008.4375,565.215 1007.75,566.2931 Q1007.0625,567.3556 1007.0625,569.4494 Q1007.0625,571.5431 1007.75,572.6212 Q1008.4375,573.6837 1009.7813,573.6837 Q1010.4063,573.6837 1011,573.4181 Q1011.5938,573.1369 1012.2188,572.5587 L1012.2188,575.2775 Z " fill="#000000"/><text fill="#000000" font-family="sans-serif" font-size="14" lengthAdjust="spacing" textLength="140" x="1029.75" y="574.4836">CapacidadDeBasura</text><line style="stroke:#181818;stroke-width:0.5;" x1="929.5" x2="1237.5" y1="585.6369" y2="585.6369"/><rect fill="none" height="6" style="stroke:#C82930;stroke-width:1.0;" width="6" x="936.5" y="596.2853"/><text fill="#000000" font-family="sans-serif" font-size="14" lengthAdjust="spacing" textLength="100" x="948.5" y="602.632">int nivelBasura</text><rect fill="none" height="6" style="stroke:#C82930;stroke-width:1.0;" width="6" x="936.5" y="612.5822"/><text fill="#000000" font-family="sans-serif" font-size="14" lengthAdjust="spacing" textLength="154" x="948.5" y="618.9289">int maximoNivelBasura</text><line style="stroke:#181818;stroke-width:0.5;" x1="929.5" x2="1237.5" y1="626.2306" y2="626.2306"/><ellipse cx="939.5" cy="639.8791" fill="#84BE84" rx="3" ry="3" style="stroke:#038048;stroke-width:1.0;"/><text fill="#000000" font-family="sans-serif" font-size="14" lengthAdjust="spacing" textLength="284" x="948.5" y="643.2257">CapacidadBasura(int maximoNivelBasura)</text><ellipse cx="939.5" cy="656.1759" fill="#84BE84" rx="3" ry="3" style="stroke:#038048;stroke-width:1.0;"/><text fill="#000000" font-family="sans-serif" font-size="14" lengthAdjust="spacing" textLength="131" x="948.5" y="659.5226">void rellenarBolsa()</text><ellipse cx="939.5" cy="672.4728" fill="#84BE84" rx="3" ry="3" style="stroke:#038048;stroke-width:1.0;"/><text fill="#000000" font-family="sans-serif" font-size="14" lengthAdjust="spacing" textLength="119" x="948.5" y="675.8195">void vaciarBolsa()</text><ellipse cx="939.5" cy="688.7697" fill="#84BE84" rx="3" ry="3" style="stroke:#038048;stroke-width:1.0;"/><text fill="#000000" font-family="sans-serif" font-size="14" lengthAdjust="spacing" textLength="134" x="948.5" y="692.1164">int getNivelBasura()</text></g><!--reverse link Habitacion to Azulejo--><g id="link_Habitacion_Azulejo"><path codeLine="80" d="M434.9641,248.5755 C412.4741,276.4455 395.86,297.0069 374.78,323.1169 " fill="none" id="Habitacion-backto-Azulejo" style="stroke:#181818;stroke-width:1.0;"/><polygon fill="#181818" points="442.5,239.2369,435.6192,241.3942,434.9641,248.5755,441.8449,246.4182,442.5,239.2369" style="stroke:#181818;stroke-width:1.0;"/></g><!--reverse link Habitacion to Aspiradora--><g id="link_Habitacion_Aspiradora"><path codeLine="81" d="M630.8986,247.5033 C651.4286,267.0133 664.32,279.2469 684.85,298.7569 " fill="none" id="Habitacion-backto-Aspiradora" style="stroke:#181818;stroke-width:1.0;"/><polygon fill="none" points="622.2,239.2369,623.7938,246.2696,630.8986,247.5033,629.3048,240.4706,622.2,239.2369" style="stroke:#181818;stroke-width:1.0;"/></g><!--reverse link Habitacion to Gato--><g id="link_Habitacion_Gato"><path codeLine="82" d="M515.5543,251.1845 C511.1943,346.9645 505.17,479.0369 501.42,561.4869 " fill="none" id="Habitacion-backto-Gato" style="stroke:#181818;stroke-width:1.0;"/><polygon fill="none" points="516.1,239.1969,511.8313,245.0088,515.5543,251.1845,519.823,245.3726,516.1,239.1969" style="stroke:#181818;stroke-width:1.0;"/></g><!--link Gato to Posicion--><g id="link_Gato_Posicion"><path codeLine="83" d="M498.5,691.4869 C498.5,712.5469 498.5,736.3669 498.5,758.9369 " fill="none" id="Gato-Posicion" style="stroke:#181818;stroke-width:1.0;"/></g><!--reverse link Azulejo to Elementos--><g id="link_Azulejo_Elementos"><path codeLine="84" d="M251.7748,478.9201 C226.0948,511.3101 203.71,539.5169 179.78,569.6969 " fill="none" id="Azulejo-backto-Elementos" style="stroke:#181818;stroke-width:1.0;"/><polygon fill="none" points="259.23,469.5169,252.368,471.7334,251.7748,478.9201,258.6368,476.7035,259.23,469.5169" style="stroke:#181818;stroke-width:1.0;"/></g><!--link Azulejo to Gato--><g id="link_Azulejo_Gato"><path codeLine="85" d="M374.09,469.5169 C397.62,499.0269 424.62,532.8869 447.44,561.5069 " fill="none" id="Azulejo-Gato" style="stroke:#181818;stroke-width:1.0;"/></g><!--link Azulejo to Posicion--><g id="link_Azulejo_Posicion"><path codeLine="86" d="M312.28,469.6169 C311.47,533.2069 317.53,626.7069 352.5,699.4169 C362.75,720.7369 373.3513,736.347 389.3413,754.477 " fill="none" id="Azulejo-to-Posicion" style="stroke:#181818;stroke-width:1.0;"/><polygon fill="#181818" points="393.31,758.9769,390.3568,749.5812,390.0027,755.227,384.357,754.8729,393.31,758.9769" style="stroke:#181818;stroke-width:1.0;"/></g><!--link Aspiradora to Posicion--><g id="link_Aspiradora_Posicion"><path codeLine="87" d="M743.09,493.8569 C706.21,575.1669 657.28,681.0869 644.5,699.4169 C630.15,720.0169 612.83,740.3469 595.21,759.0469 " fill="none" id="Aspiradora-Posicion" style="stroke:#181818;stroke-width:1.0;"/></g><!--reverse link Aspiradora to Bateria--><g id="link_Aspiradora_Bateria"><path codeLine="88" d="M799.3609,506.0136 C802.0509,528.7336 803.44,540.4669 805.91,561.3469 " fill="none" id="Aspiradora-backto-Bateria" style="stroke:#181818;stroke-width:1.0;"/><polygon fill="none" points="797.95,494.0969,794.6832,500.5256,799.3609,506.0136,802.6277,499.585,797.95,494.0969" style="stroke:#181818;stroke-width:1.0;"/></g><!--link Aspiradora to CapacidadDeBasura--><g id="link_Aspiradora_CapacidadDeBasura"><path codeLine="89" d="M912.45,494.0969 C938.23,513.8969 960.1622,530.7513 984.5922,549.5213 " fill="none" id="Aspiradora-to-CapacidadDeBasura" style="stroke:#181818;stroke-width:1.0;"/><polygon fill="#181818" points="989.35,553.1769,984.6503,544.5217,985.3851,550.1306,979.7762,550.8655,989.35,553.1769" style="stroke:#181818;stroke-width:1.0;"/></g><!--SRC=[bLJBJkCm55tZh_3IdP1VGAATqR018Re18HQtoPrYvCIHdKIbLVzzxFZPDBEOB6BxtDUv3xldlK3wA6iKajP8Am4QDRtN7LTGImM4M4ZJ1zZn7YekMtgYfBm_3WA_97t_UF-WUkXG_U4LHrBkf1G8hHCq0-u4QbBojgVGLf_IRGMelQIaI4vPrBYbKMD5Yb7oclAcKxpXYYLQ5EBszZVqakxDRww_bgh61wduKROz26RaWTuUMrIW7Xr1vk6SzEg653xB2VOMsvZh8cMtxQIgq8JymkrWD6keL-HCo6QgP2ZTYL9NZPQFA88YAP-bvbETExz9HUsv8U4uHtBioiNgJ0eBxh5_od4MwgFdWciNbgvhV5RpaoVSWPRw1K7men7uzWfJTOv723YGSWETQQvnjmOz6FlgyapADVIeED2TMvToBr9yoz_a57HYEeqSKR5iG3_ZDgXCv41jG7CXO5dNjUxWbk-i0hy4DgQRKjEf0jjUyNPFHn23wO8NQfR39gm_6hvU8wz-WBmI-W1Pp6ccRRI5QLXgGM4Ds6K2HRJzxwf57j55wFt1BT_9-pog7xrNblPlUVB_iWloLoV8a3SsRqaOd5D-XJpexMhKbRcH44F7Ktutl4s0zHLyll4Xup3_H3_Ei-1kf2tGm84tyYc3YzbLO8jgWQb28R05ytu9dVYFna66NMOnEPtOcYzhwe-o30zE3aiBfpT-9h6pHEolZED7mgjbi7GV8XgCqlcE9jFqWXYz9TW63TsxqBwxBljV]--></g></svg>