<?xml version="1.0" encoding="us-ascii" standalone="no"?><svg xmlns="http://www.w3.org/2000/svg" xmlns:xlink="http://www.w3.org/1999/xlink" contentStyleType="text/css" height="315px" preserveAspectRatio="none" style="width:495px;height:315px;background:#FFFFFF;" version="1.1" viewBox="0 0 495 315" width="495px" zoomAndPan="magnify"><defs/><g><text fill="#000000" font-family="sans-serif" font-size="14" font-weight="bold" lengthAdjust="spacing" textLength="232" x="124.5" y="22.9951">Modelo de clases Aspiradora</text><!--class Habitacion--><g id="elem_Habitacion"><rect codeLine="3" fill="#F1F1F1" height="48" id="Habitacion" rx="2.5" ry="2.5" style="stroke:#181818;stroke-width:0.5;" width="109" x="212" y="44.2969"/><ellipse cx="227" cy="60.2969" fill="#ADD1B2" rx="11" ry="11" style="stroke:#181818;stroke-width:1.0;"/><path d="M229.3438,55.9688 C228.4063,55.5313 227.8125,55.3906 226.9375,55.3906 C224.3125,55.3906 222.3125,57.4688 222.3125,60.1875 L222.3125,61.3125 C222.3125,63.8906 224.4219,65.7813 227.3125,65.7813 C228.5313,65.7813 229.6875,65.4844 230.4375,64.9375 C231.0156,64.5313 231.3438,64.0781 231.3438,63.6875 C231.3438,63.2344 230.9531,62.8438 230.4844,62.8438 C230.2656,62.8438 230.0625,62.9219 229.875,63.1094 C229.4219,63.5938 229.4219,63.5938 229.2344,63.6875 C228.8125,63.9531 228.125,64.0781 227.3594,64.0781 C225.3125,64.0781 224.0156,62.9844 224.0156,61.2813 L224.0156,60.1875 C224.0156,58.4063 225.2656,57.0938 227,57.0938 C227.5781,57.0938 228.1875,57.25 228.6563,57.5 C229.1406,57.7813 229.3125,58 229.4063,58.4063 C229.4688,58.8125 229.5,58.9375 229.6406,59.0625 C229.7813,59.2031 230.0156,59.3125 230.2344,59.3125 C230.5,59.3125 230.7656,59.1719 230.9375,58.9531 C231.0469,58.7969 231.0781,58.6094 231.0781,58.1875 L231.0781,56.7656 C231.0781,56.3281 231.0625,56.2031 230.9688,56.0469 C230.8125,55.7813 230.5313,55.6406 230.2344,55.6406 C229.9375,55.6406 229.7344,55.7344 229.5156,56.0469 L229.3438,55.9688 Z " fill="#000000"/><text fill="#000000" font-family="sans-serif" font-size="14" lengthAdjust="spacing" textLength="77" x="241" y="65.1436">Habitacion</text><line style="stroke:#181818;stroke-width:0.5;" x1="213" x2="320" y1="76.2969" y2="76.2969"/><line style="stroke:#181818;stroke-width:0.5;" x1="213" x2="320" y1="84.2969" y2="84.2969"/></g><!--class Azulejo--><g id="elem_Azulejo"><rect codeLine="7" fill="#F1F1F1" height="48" id="Azulejo" rx="2.5" ry="2.5" style="stroke:#181818;stroke-width:0.5;" width="84" x="224.5" y="152.2969"/><ellipse cx="239.5" cy="168.2969" fill="#ADD1B2" rx="11" ry="11" style="stroke:#181818;stroke-width:1.0;"/><path d="M241.8438,163.9688 C240.9063,163.5313 240.3125,163.3906 239.4375,163.3906 C236.8125,163.3906 234.8125,165.4688 234.8125,168.1875 L234.8125,169.3125 C234.8125,171.8906 236.9219,173.7813 239.8125,173.7813 C241.0313,173.7813 242.1875,173.4844 242.9375,172.9375 C243.5156,172.5313 243.8438,172.0781 243.8438,171.6875 C243.8438,171.2344 243.4531,170.8438 242.9844,170.8438 C242.7656,170.8438 242.5625,170.9219 242.375,171.1094 C241.9219,171.5938 241.9219,171.5938 241.7344,171.6875 C241.3125,171.9531 240.625,172.0781 239.8594,172.0781 C237.8125,172.0781 236.5156,170.9844 236.5156,169.2813 L236.5156,168.1875 C236.5156,166.4063 237.7656,165.0938 239.5,165.0938 C240.0781,165.0938 240.6875,165.25 241.1563,165.5 C241.6406,165.7813 241.8125,166 241.9063,166.4063 C241.9688,166.8125 242,166.9375 242.1406,167.0625 C242.2813,167.2031 242.5156,167.3125 242.7344,167.3125 C243,167.3125 243.2656,167.1719 243.4375,166.9531 C243.5469,166.7969 243.5781,166.6094 243.5781,166.1875 L243.5781,164.7656 C243.5781,164.3281 243.5625,164.2031 243.4688,164.0469 C243.3125,163.7813 243.0313,163.6406 242.7344,163.6406 C242.4375,163.6406 242.2344,163.7344 242.0156,164.0469 L241.8438,163.9688 Z " fill="#000000"/><text fill="#000000" font-family="sans-serif" font-size="14" lengthAdjust="spacing" textLength="52" x="253.5" y="173.1436">Azulejo</text><line style="stroke:#181818;stroke-width:0.5;" x1="225.5" x2="307.5" y1="184.2969" y2="184.2969"/><line style="stroke:#181818;stroke-width:0.5;" x1="225.5" x2="307.5" y1="192.2969" y2="192.2969"/></g><!--class Aspiradora--><g id="elem_Aspiradora"><rect codeLine="11" fill="#F1F1F1" height="48" id="Aspiradora" rx="2.5" ry="2.5" style="stroke:#181818;stroke-width:0.5;" width="109" x="7" y="260.2969"/><ellipse cx="22" cy="276.2969" fill="#ADD1B2" rx="11" ry="11" style="stroke:#181818;stroke-width:1.0;"/><path d="M24.3438,271.9688 C23.4063,271.5313 22.8125,271.3906 21.9375,271.3906 C19.3125,271.3906 17.3125,273.4688 17.3125,276.1875 L17.3125,277.3125 C17.3125,279.8906 19.4219,281.7813 22.3125,281.7813 C23.5313,281.7813 24.6875,281.4844 25.4375,280.9375 C26.0156,280.5313 26.3438,280.0781 26.3438,279.6875 C26.3438,279.2344 25.9531,278.8438 25.4844,278.8438 C25.2656,278.8438 25.0625,278.9219 24.875,279.1094 C24.4219,279.5938 24.4219,279.5938 24.2344,279.6875 C23.8125,279.9531 23.125,280.0781 22.3594,280.0781 C20.3125,280.0781 19.0156,278.9844 19.0156,277.2813 L19.0156,276.1875 C19.0156,274.4063 20.2656,273.0938 22,273.0938 C22.5781,273.0938 23.1875,273.25 23.6563,273.5 C24.1406,273.7813 24.3125,274 24.4063,274.4063 C24.4688,274.8125 24.5,274.9375 24.6406,275.0625 C24.7813,275.2031 25.0156,275.3125 25.2344,275.3125 C25.5,275.3125 25.7656,275.1719 25.9375,274.9531 C26.0469,274.7969 26.0781,274.6094 26.0781,274.1875 L26.0781,272.7656 C26.0781,272.3281 26.0625,272.2031 25.9688,272.0469 C25.8125,271.7813 25.5313,271.6406 25.2344,271.6406 C24.9375,271.6406 24.7344,271.7344 24.5156,272.0469 L24.3438,271.9688 Z " fill="#000000"/><text fill="#000000" font-family="sans-serif" font-size="14" lengthAdjust="spacing" textLength="77" x="36" y="281.1436">Aspiradora</text><line style="stroke:#181818;stroke-width:0.5;" x1="8" x2="115" y1="292.2969" y2="292.2969"/><line style="stroke:#181818;stroke-width:0.5;" x1="8" x2="115" y1="300.2969" y2="300.2969"/></g><!--class Elementos--><g id="elem_Elementos"><rect codeLine="15" fill="#F1F1F1" height="48" id="Elementos" rx="2.5" ry="2.5" style="stroke:#181818;stroke-width:0.5;" width="109" x="151" y="260.2969"/><ellipse cx="166" cy="276.2969" fill="#ADD1B2" rx="11" ry="11" style="stroke:#181818;stroke-width:1.0;"/><path d="M168.3438,271.9688 C167.4063,271.5313 166.8125,271.3906 165.9375,271.3906 C163.3125,271.3906 161.3125,273.4688 161.3125,276.1875 L161.3125,277.3125 C161.3125,279.8906 163.4219,281.7813 166.3125,281.7813 C167.5313,281.7813 168.6875,281.4844 169.4375,280.9375 C170.0156,280.5313 170.3438,280.0781 170.3438,279.6875 C170.3438,279.2344 169.9531,278.8438 169.4844,278.8438 C169.2656,278.8438 169.0625,278.9219 168.875,279.1094 C168.4219,279.5938 168.4219,279.5938 168.2344,279.6875 C167.8125,279.9531 167.125,280.0781 166.3594,280.0781 C164.3125,280.0781 163.0156,278.9844 163.0156,277.2813 L163.0156,276.1875 C163.0156,274.4063 164.2656,273.0938 166,273.0938 C166.5781,273.0938 167.1875,273.25 167.6563,273.5 C168.1406,273.7813 168.3125,274 168.4063,274.4063 C168.4688,274.8125 168.5,274.9375 168.6406,275.0625 C168.7813,275.2031 169.0156,275.3125 169.2344,275.3125 C169.5,275.3125 169.7656,275.1719 169.9375,274.9531 C170.0469,274.7969 170.0781,274.6094 170.0781,274.1875 L170.0781,272.7656 C170.0781,272.3281 170.0625,272.2031 169.9688,272.0469 C169.8125,271.7813 169.5313,271.6406 169.2344,271.6406 C168.9375,271.6406 168.7344,271.7344 168.5156,272.0469 L168.3438,271.9688 Z " fill="#000000"/><text fill="#000000" font-family="sans-serif" font-size="14" lengthAdjust="spacing" textLength="77" x="180" y="281.1436">Elementos</text><line style="stroke:#181818;stroke-width:0.5;" x1="152" x2="259" y1="292.2969" y2="292.2969"/><line style="stroke:#181818;stroke-width:0.5;" x1="152" x2="259" y1="300.2969" y2="300.2969"/></g><!--class Gato--><g id="elem_Gato"><rect codeLine="19" fill="#F1F1F1" height="48" id="Gato" rx="2.5" ry="2.5" style="stroke:#181818;stroke-width:0.5;" width="67" x="295" y="260.2969"/><ellipse cx="310" cy="276.2969" fill="#ADD1B2" rx="11" ry="11" style="stroke:#181818;stroke-width:1.0;"/><path d="M312.3438,271.9688 C311.4063,271.5313 310.8125,271.3906 309.9375,271.3906 C307.3125,271.3906 305.3125,273.4688 305.3125,276.1875 L305.3125,277.3125 C305.3125,279.8906 307.4219,281.7813 310.3125,281.7813 C311.5313,281.7813 312.6875,281.4844 313.4375,280.9375 C314.0156,280.5313 314.3438,280.0781 314.3438,279.6875 C314.3438,279.2344 313.9531,278.8438 313.4844,278.8438 C313.2656,278.8438 313.0625,278.9219 312.875,279.1094 C312.4219,279.5938 312.4219,279.5938 312.2344,279.6875 C311.8125,279.9531 311.125,280.0781 310.3594,280.0781 C308.3125,280.0781 307.0156,278.9844 307.0156,277.2813 L307.0156,276.1875 C307.0156,274.4063 308.2656,273.0938 310,273.0938 C310.5781,273.0938 311.1875,273.25 311.6563,273.5 C312.1406,273.7813 312.3125,274 312.4063,274.4063 C312.4688,274.8125 312.5,274.9375 312.6406,275.0625 C312.7813,275.2031 313.0156,275.3125 313.2344,275.3125 C313.5,275.3125 313.7656,275.1719 313.9375,274.9531 C314.0469,274.7969 314.0781,274.6094 314.0781,274.1875 L314.0781,272.7656 C314.0781,272.3281 314.0625,272.2031 313.9688,272.0469 C313.8125,271.7813 313.5313,271.6406 313.2344,271.6406 C312.9375,271.6406 312.7344,271.7344 312.5156,272.0469 L312.3438,271.9688 Z " fill="#000000"/><text fill="#000000" font-family="sans-serif" font-size="14" lengthAdjust="spacing" textLength="35" x="324" y="281.1436">Gato</text><line style="stroke:#181818;stroke-width:0.5;" x1="296" x2="361" y1="292.2969" y2="292.2969"/><line style="stroke:#181818;stroke-width:0.5;" x1="296" x2="361" y1="300.2969" y2="300.2969"/></g><!--class Posicion--><g id="elem_Posicion"><rect codeLine="23" fill="#F1F1F1" height="48" id="Posicion" rx="2.5" ry="2.5" style="stroke:#181818;stroke-width:0.5;" width="91" x="397" y="260.2969"/><ellipse cx="412" cy="276.2969" fill="#ADD1B2" rx="11" ry="11" style="stroke:#181818;stroke-width:1.0;"/><path d="M414.3438,271.9688 C413.4063,271.5313 412.8125,271.3906 411.9375,271.3906 C409.3125,271.3906 407.3125,273.4688 407.3125,276.1875 L407.3125,277.3125 C407.3125,279.8906 409.4219,281.7813 412.3125,281.7813 C413.5313,281.7813 414.6875,281.4844 415.4375,280.9375 C416.0156,280.5313 416.3438,280.0781 416.3438,279.6875 C416.3438,279.2344 415.9531,278.8438 415.4844,278.8438 C415.2656,278.8438 415.0625,278.9219 414.875,279.1094 C414.4219,279.5938 414.4219,279.5938 414.2344,279.6875 C413.8125,279.9531 413.125,280.0781 412.3594,280.0781 C410.3125,280.0781 409.0156,278.9844 409.0156,277.2813 L409.0156,276.1875 C409.0156,274.4063 410.2656,273.0938 412,273.0938 C412.5781,273.0938 413.1875,273.25 413.6563,273.5 C414.1406,273.7813 414.3125,274 414.4063,274.4063 C414.4688,274.8125 414.5,274.9375 414.6406,275.0625 C414.7813,275.2031 415.0156,275.3125 415.2344,275.3125 C415.5,275.3125 415.7656,275.1719 415.9375,274.9531 C416.0469,274.7969 416.0781,274.6094 416.0781,274.1875 L416.0781,272.7656 C416.0781,272.3281 416.0625,272.2031 415.9688,272.0469 C415.8125,271.7813 415.5313,271.6406 415.2344,271.6406 C414.9375,271.6406 414.7344,271.7344 414.5156,272.0469 L414.3438,271.9688 Z " fill="#000000"/><text fill="#000000" font-family="sans-serif" font-size="14" lengthAdjust="spacing" textLength="59" x="426" y="281.1436">Posicion</text><line style="stroke:#181818;stroke-width:0.5;" x1="398" x2="487" y1="292.2969" y2="292.2969"/><line style="stroke:#181818;stroke-width:0.5;" x1="398" x2="487" y1="300.2969" y2="300.2969"/></g><!--link Habitacion to Azulejo--><g id="link_Habitacion_Azulejo"><path codeLine="26" d="M266.5,92.2969 C266.5,109.9549 266.5,134.2379 266.5,151.9749 " fill="none" id="Habitacion-Azulejo" style="stroke:#181818;stroke-width:1.0;"/></g><!--link Azulejo to Aspiradora--><g id="link_Azulejo_Aspiradora"><path codeLine="27" d="M224.024,199.2599 C189.544,217.0885 141.074,242.1513 106.0491,260.2618 " fill="none" id="Azulejo-Aspiradora" style="stroke:#181818;stroke-width:1.0;"/></g><!--link Azulejo to Elementos--><g id="link_Azulejo_Elementos"><path codeLine="28" d="M253.264,200.2969 C243.102,217.9553 229.128,242.2377 218.921,259.9753 " fill="none" id="Azulejo-Elementos" style="stroke:#181818;stroke-width:1.0;"/></g><!--link Azulejo to Gato--><g id="link_Azulejo_Gato"><path codeLine="29" d="M279.953,200.2969 C290.281,217.9553 304.484,242.2377 314.859,259.9753 " fill="none" id="Azulejo-Gato" style="stroke:#181818;stroke-width:1.0;"/></g><!--link Azulejo to Posicion--><g id="link_Azulejo_Posicion"><path codeLine="30" d="M304.689,200.2969 C334.109,218.0162 374.604,242.4052 404.082,260.1586 " fill="none" id="Azulejo-Posicion" style="stroke:#181818;stroke-width:1.0;"/></g><!--SRC=[LSun3i8m38NXtQVm1NA82Y5Oa7e5qtW8CdLLXmN4tMaQhAHZFZthJqvP66yQMHGZuoHaR3ZOabQAkX908SChtLEcAUcC7mJu0fns7zuluOTkMBMksxslgv-5dpndDJpwXR8UPLHBNjkmouVWKV1ueVRZluRGQlsojFgtbtu0]--></g></svg>