<?xml version="1.0" encoding="us-ascii" standalone="no"?><svg xmlns="http://www.w3.org/2000/svg" xmlns:xlink="http://www.w3.org/1999/xlink" contentStyleType="text/css" height="272px" preserveAspectRatio="none" style="width:404px;height:272px;background:#FFFFFF;" version="1.1" viewBox="0 0 404 272" width="404px" zoomAndPan="magnify"><defs/><g><text fill="#000000" font-family="sans-serif" font-size="14" font-weight="bold" lengthAdjust="spacing" textLength="242" x="74" y="22.9951">Modelo del dominio Apiradora</text><!--class Superficie--><g id="elem_Superficie"><rect codeLine="3" fill="#F1F1F1" height="96.8906" id="Superficie" rx="2.5" ry="2.5" style="stroke:#181818;stroke-width:0.5;" width="124" x="7" y="168.2969"/><ellipse cx="30.55" cy="184.2969" fill="#ADD1B2" rx="11" ry="11" style="stroke:#181818;stroke-width:1.0;"/><path d="M32.8938,179.9688 C31.9563,179.5313 31.3625,179.3906 30.4875,179.3906 C27.8625,179.3906 25.8625,181.4688 25.8625,184.1875 L25.8625,185.3125 C25.8625,187.8906 27.9719,189.7813 30.8625,189.7813 C32.0813,189.7813 33.2375,189.4844 33.9875,188.9375 C34.5656,188.5313 34.8938,188.0781 34.8938,187.6875 C34.8938,187.2344 34.5031,186.8438 34.0344,186.8438 C33.8156,186.8438 33.6125,186.9219 33.425,187.1094 C32.9719,187.5938 32.9719,187.5938 32.7844,187.6875 C32.3625,187.9531 31.675,188.0781 30.9094,188.0781 C28.8625,188.0781 27.5656,186.9844 27.5656,185.2813 L27.5656,184.1875 C27.5656,182.4063 28.8156,181.0938 30.55,181.0938 C31.1281,181.0938 31.7375,181.25 32.2063,181.5 C32.6906,181.7813 32.8625,182 32.9563,182.4063 C33.0188,182.8125 33.05,182.9375 33.1906,183.0625 C33.3313,183.2031 33.5656,183.3125 33.7844,183.3125 C34.05,183.3125 34.3156,183.1719 34.4875,182.9531 C34.5969,182.7969 34.6281,182.6094 34.6281,182.1875 L34.6281,180.7656 C34.6281,180.3281 34.6125,180.2031 34.5188,180.0469 C34.3625,179.7813 34.0813,179.6406 33.7844,179.6406 C33.4875,179.6406 33.2844,179.7344 33.0656,180.0469 L32.8938,179.9688 Z " fill="#000000"/><text fill="#000000" font-family="sans-serif" font-size="14" lengthAdjust="spacing" textLength="73" x="46.45" y="189.1436">Superficie</text><line style="stroke:#181818;stroke-width:0.5;" x1="8" x2="130" y1="200.2969" y2="200.2969"/><ellipse cx="18" cy="213.9453" fill="none" rx="3" ry="3" style="stroke:#038048;stroke-width:1.0;"/><text fill="#000000" font-family="sans-serif" font-size="14" lengthAdjust="spacing" textLength="70" x="27" y="217.292">elemento</text><ellipse cx="18" cy="230.2422" fill="none" rx="3" ry="3" style="stroke:#038048;stroke-width:1.0;"/><text fill="#000000" font-family="sans-serif" font-size="14" lengthAdjust="spacing" textLength="98" x="27" y="233.5889">nivelSuciedad</text><ellipse cx="18" cy="246.5391" fill="none" rx="3" ry="3" style="stroke:#038048;stroke-width:1.0;"/><text fill="#000000" font-family="sans-serif" font-size="14" lengthAdjust="spacing" textLength="60" x="27" y="249.8857">posicion</text><line style="stroke:#181818;stroke-width:0.5;" x1="8" x2="130" y1="257.1875" y2="257.1875"/></g><!--class Habitacion--><g id="elem_Habitacion"><rect codeLine="10" fill="#F1F1F1" height="64.2969" id="Habitacion" rx="2.5" ry="2.5" style="stroke:#181818;stroke-width:0.5;" width="109" x="166.5" y="44.2969"/><ellipse cx="181.5" cy="60.2969" fill="#ADD1B2" rx="11" ry="11" style="stroke:#181818;stroke-width:1.0;"/><path d="M183.8438,55.9688 C182.9063,55.5313 182.3125,55.3906 181.4375,55.3906 C178.8125,55.3906 176.8125,57.4688 176.8125,60.1875 L176.8125,61.3125 C176.8125,63.8906 178.9219,65.7813 181.8125,65.7813 C183.0313,65.7813 184.1875,65.4844 184.9375,64.9375 C185.5156,64.5313 185.8438,64.0781 185.8438,63.6875 C185.8438,63.2344 185.4531,62.8438 184.9844,62.8438 C184.7656,62.8438 184.5625,62.9219 184.375,63.1094 C183.9219,63.5938 183.9219,63.5938 183.7344,63.6875 C183.3125,63.9531 182.625,64.0781 181.8594,64.0781 C179.8125,64.0781 178.5156,62.9844 178.5156,61.2813 L178.5156,60.1875 C178.5156,58.4063 179.7656,57.0938 181.5,57.0938 C182.0781,57.0938 182.6875,57.25 183.1563,57.5 C183.6406,57.7813 183.8125,58 183.9063,58.4063 C183.9688,58.8125 184,58.9375 184.1406,59.0625 C184.2813,59.2031 184.5156,59.3125 184.7344,59.3125 C185,59.3125 185.2656,59.1719 185.4375,58.9531 C185.5469,58.7969 185.5781,58.6094 185.5781,58.1875 L185.5781,56.7656 C185.5781,56.3281 185.5625,56.2031 185.4688,56.0469 C185.3125,55.7813 185.0313,55.6406 184.7344,55.6406 C184.4375,55.6406 184.2344,55.7344 184.0156,56.0469 L183.8438,55.9688 Z " fill="#000000"/><text fill="#000000" font-family="sans-serif" font-size="14" lengthAdjust="spacing" textLength="77" x="195.5" y="65.1436">Habitacion</text><line style="stroke:#181818;stroke-width:0.5;" x1="167.5" x2="274.5" y1="76.2969" y2="76.2969"/><ellipse cx="177.5" cy="89.9453" fill="none" rx="3" ry="3" style="stroke:#038048;stroke-width:1.0;"/><text fill="#000000" font-family="sans-serif" font-size="14" lengthAdjust="spacing" textLength="74" x="186.5" y="93.292">dimension</text><line style="stroke:#181818;stroke-width:0.5;" x1="167.5" x2="274.5" y1="100.5938" y2="100.5938"/></g><!--class Aspiradora--><g id="elem_Aspiradora"><rect codeLine="15" fill="#F1F1F1" height="64.2969" id="Aspiradora" rx="2.5" ry="2.5" style="stroke:#181818;stroke-width:0.5;" width="109" x="166.5" y="184.7969"/><ellipse cx="181.5" cy="200.7969" fill="#ADD1B2" rx="11" ry="11" style="stroke:#181818;stroke-width:1.0;"/><path d="M183.8438,196.4688 C182.9063,196.0313 182.3125,195.8906 181.4375,195.8906 C178.8125,195.8906 176.8125,197.9688 176.8125,200.6875 L176.8125,201.8125 C176.8125,204.3906 178.9219,206.2813 181.8125,206.2813 C183.0313,206.2813 184.1875,205.9844 184.9375,205.4375 C185.5156,205.0313 185.8438,204.5781 185.8438,204.1875 C185.8438,203.7344 185.4531,203.3438 184.9844,203.3438 C184.7656,203.3438 184.5625,203.4219 184.375,203.6094 C183.9219,204.0938 183.9219,204.0938 183.7344,204.1875 C183.3125,204.4531 182.625,204.5781 181.8594,204.5781 C179.8125,204.5781 178.5156,203.4844 178.5156,201.7813 L178.5156,200.6875 C178.5156,198.9063 179.7656,197.5938 181.5,197.5938 C182.0781,197.5938 182.6875,197.75 183.1563,198 C183.6406,198.2813 183.8125,198.5 183.9063,198.9063 C183.9688,199.3125 184,199.4375 184.1406,199.5625 C184.2813,199.7031 184.5156,199.8125 184.7344,199.8125 C185,199.8125 185.2656,199.6719 185.4375,199.4531 C185.5469,199.2969 185.5781,199.1094 185.5781,198.6875 L185.5781,197.2656 C185.5781,196.8281 185.5625,196.7031 185.4688,196.5469 C185.3125,196.2813 185.0313,196.1406 184.7344,196.1406 C184.4375,196.1406 184.2344,196.2344 184.0156,196.5469 L183.8438,196.4688 Z " fill="#000000"/><text fill="#000000" font-family="sans-serif" font-size="14" lengthAdjust="spacing" textLength="77" x="195.5" y="205.6436">Aspiradora</text><line style="stroke:#181818;stroke-width:0.5;" x1="167.5" x2="274.5" y1="216.7969" y2="216.7969"/><ellipse cx="177.5" cy="230.4453" fill="none" rx="3" ry="3" style="stroke:#038048;stroke-width:1.0;"/><text fill="#000000" font-family="sans-serif" font-size="14" lengthAdjust="spacing" textLength="60" x="186.5" y="233.792">posicion</text><line style="stroke:#181818;stroke-width:0.5;" x1="167.5" x2="274.5" y1="241.0938" y2="241.0938"/></g><!--class Gato--><g id="elem_Gato"><rect codeLine="20" fill="#F1F1F1" height="64.2969" id="Gato" rx="2.5" ry="2.5" style="stroke:#181818;stroke-width:0.5;" width="86" x="311" y="184.7969"/><ellipse cx="334.55" cy="200.7969" fill="#ADD1B2" rx="11" ry="11" style="stroke:#181818;stroke-width:1.0;"/><path d="M336.8938,196.4688 C335.9563,196.0313 335.3625,195.8906 334.4875,195.8906 C331.8625,195.8906 329.8625,197.9688 329.8625,200.6875 L329.8625,201.8125 C329.8625,204.3906 331.9719,206.2813 334.8625,206.2813 C336.0813,206.2813 337.2375,205.9844 337.9875,205.4375 C338.5656,205.0313 338.8938,204.5781 338.8938,204.1875 C338.8938,203.7344 338.5031,203.3438 338.0344,203.3438 C337.8156,203.3438 337.6125,203.4219 337.425,203.6094 C336.9719,204.0938 336.9719,204.0938 336.7844,204.1875 C336.3625,204.4531 335.675,204.5781 334.9094,204.5781 C332.8625,204.5781 331.5656,203.4844 331.5656,201.7813 L331.5656,200.6875 C331.5656,198.9063 332.8156,197.5938 334.55,197.5938 C335.1281,197.5938 335.7375,197.75 336.2063,198 C336.6906,198.2813 336.8625,198.5 336.9563,198.9063 C337.0188,199.3125 337.05,199.4375 337.1906,199.5625 C337.3313,199.7031 337.5656,199.8125 337.7844,199.8125 C338.05,199.8125 338.3156,199.6719 338.4875,199.4531 C338.5969,199.2969 338.6281,199.1094 338.6281,198.6875 L338.6281,197.2656 C338.6281,196.8281 338.6125,196.7031 338.5188,196.5469 C338.3625,196.2813 338.0813,196.1406 337.7844,196.1406 C337.4875,196.1406 337.2844,196.2344 337.0656,196.5469 L336.8938,196.4688 Z " fill="#000000"/><text fill="#000000" font-family="sans-serif" font-size="14" lengthAdjust="spacing" textLength="35" x="350.45" y="205.6436">Gato</text><line style="stroke:#181818;stroke-width:0.5;" x1="312" x2="396" y1="216.7969" y2="216.7969"/><ellipse cx="322" cy="230.4453" fill="none" rx="3" ry="3" style="stroke:#038048;stroke-width:1.0;"/><text fill="#000000" font-family="sans-serif" font-size="14" lengthAdjust="spacing" textLength="60" x="331" y="233.792">posicion</text><line style="stroke:#181818;stroke-width:0.5;" x1="312" x2="396" y1="241.0938" y2="241.0938"/></g><!--link Habitacion to Superficie--><g id="link_Habitacion_Superficie"><path codeLine="25" d="M186.888,108.3789 C167.544,126.0049 142.936,148.4279 121.211,168.2232 " fill="none" id="Habitacion-Superficie" style="stroke:#181818;stroke-width:1.0;"/></g><!--link Habitacion to Aspiradora--><g id="link_Habitacion_Aspiradora"><path codeLine="26" d="M221,108.3789 C221,131.0289 221,161.6019 221,184.3393 " fill="none" id="Habitacion-Aspiradora" style="stroke:#181818;stroke-width:1.0;"/></g><!--link Habitacion to Gato--><g id="link_Habitacion_Gato"><path codeLine="27" d="M250.848,108.3789 C272.599,131.0289 301.957,161.6019 323.792,184.3393 " fill="none" id="Habitacion-Gato" style="stroke:#181818;stroke-width:1.0;"/></g><!--SRC=[POuz3iCm28LtduAzoY4ojKkdd806AY4vnhATBb7lNgmapHy34hp7zoXIFCDJYRs2DI0T98X26oKXQKBdUeyvGpT6Jc_fXM42vy3gnfu73aNdASY7VJUQWv3cLTHi5nhSTyKyy2K5wmwcXK9Ya7nmjNcD_xkkg3iMlSXGzLr8q-m-FmbRoacev1y0]--></g></svg>