<?xml version="1.0" encoding="us-ascii" standalone="no"?><svg xmlns="http://www.w3.org/2000/svg" xmlns:xlink="http://www.w3.org/1999/xlink" contentStyleType="text/css" height="423px" preserveAspectRatio="none" style="width:696px;height:423px;background:#FFFFFF;" version="1.1" viewBox="0 0 696 423" width="696px" zoomAndPan="magnify"><defs/><g><text fill="#000000" font-family="sans-serif" font-size="14" font-weight="bold" lengthAdjust="spacing" textLength="232" x="225" y="22.9951">Modelo de clases Aspiradora</text><!--class Habitacion--><g id="elem_Habitacion"><rect codeLine="3" fill="#F1F1F1" height="48" id="Habitacion" rx="2.5" ry="2.5" style="stroke:#181818;stroke-width:0.5;" width="109" x="210" y="44.2969"/><ellipse cx="225" cy="60.2969" fill="#ADD1B2" rx="11" ry="11" style="stroke:#181818;stroke-width:1.0;"/><path d="M227.3438,55.9688 C226.4063,55.5313 225.8125,55.3906 224.9375,55.3906 C222.3125,55.3906 220.3125,57.4688 220.3125,60.1875 L220.3125,61.3125 C220.3125,63.8906 222.4219,65.7813 225.3125,65.7813 C226.5313,65.7813 227.6875,65.4844 228.4375,64.9375 C229.0156,64.5313 229.3438,64.0781 229.3438,63.6875 C229.3438,63.2344 228.9531,62.8438 228.4844,62.8438 C228.2656,62.8438 228.0625,62.9219 227.875,63.1094 C227.4219,63.5938 227.4219,63.5938 227.2344,63.6875 C226.8125,63.9531 226.125,64.0781 225.3594,64.0781 C223.3125,64.0781 222.0156,62.9844 222.0156,61.2813 L222.0156,60.1875 C222.0156,58.4063 223.2656,57.0938 225,57.0938 C225.5781,57.0938 226.1875,57.25 226.6563,57.5 C227.1406,57.7813 227.3125,58 227.4063,58.4063 C227.4688,58.8125 227.5,58.9375 227.6406,59.0625 C227.7813,59.2031 228.0156,59.3125 228.2344,59.3125 C228.5,59.3125 228.7656,59.1719 228.9375,58.9531 C229.0469,58.7969 229.0781,58.6094 229.0781,58.1875 L229.0781,56.7656 C229.0781,56.3281 229.0625,56.2031 228.9688,56.0469 C228.8125,55.7813 228.5313,55.6406 228.2344,55.6406 C227.9375,55.6406 227.7344,55.7344 227.5156,56.0469 L227.3438,55.9688 Z " fill="#000000"/><text fill="#000000" font-family="sans-serif" font-size="14" lengthAdjust="spacing" textLength="77" x="239" y="65.1436">Habitacion</text><line style="stroke:#181818;stroke-width:0.5;" x1="211" x2="318" y1="76.2969" y2="76.2969"/><line style="stroke:#181818;stroke-width:0.5;" x1="211" x2="318" y1="84.2969" y2="84.2969"/></g><!--class Azulejo--><g id="elem_Azulejo"><rect codeLine="7" fill="#F1F1F1" height="48" id="Azulejo" rx="2.5" ry="2.5" style="stroke:#181818;stroke-width:0.5;" width="84" x="127.5" y="152.2969"/><ellipse cx="142.5" cy="168.2969" fill="#ADD1B2" rx="11" ry="11" style="stroke:#181818;stroke-width:1.0;"/><path d="M144.8438,163.9688 C143.9063,163.5313 143.3125,163.3906 142.4375,163.3906 C139.8125,163.3906 137.8125,165.4688 137.8125,168.1875 L137.8125,169.3125 C137.8125,171.8906 139.9219,173.7813 142.8125,173.7813 C144.0313,173.7813 145.1875,173.4844 145.9375,172.9375 C146.5156,172.5313 146.8438,172.0781 146.8438,171.6875 C146.8438,171.2344 146.4531,170.8438 145.9844,170.8438 C145.7656,170.8438 145.5625,170.9219 145.375,171.1094 C144.9219,171.5938 144.9219,171.5938 144.7344,171.6875 C144.3125,171.9531 143.625,172.0781 142.8594,172.0781 C140.8125,172.0781 139.5156,170.9844 139.5156,169.2813 L139.5156,168.1875 C139.5156,166.4063 140.7656,165.0938 142.5,165.0938 C143.0781,165.0938 143.6875,165.25 144.1563,165.5 C144.6406,165.7813 144.8125,166 144.9063,166.4063 C144.9688,166.8125 145,166.9375 145.1406,167.0625 C145.2813,167.2031 145.5156,167.3125 145.7344,167.3125 C146,167.3125 146.2656,167.1719 146.4375,166.9531 C146.5469,166.7969 146.5781,166.6094 146.5781,166.1875 L146.5781,164.7656 C146.5781,164.3281 146.5625,164.2031 146.4688,164.0469 C146.3125,163.7813 146.0313,163.6406 145.7344,163.6406 C145.4375,163.6406 145.2344,163.7344 145.0156,164.0469 L144.8438,163.9688 Z " fill="#000000"/><text fill="#000000" font-family="sans-serif" font-size="14" lengthAdjust="spacing" textLength="52" x="156.5" y="173.1436">Azulejo</text><line style="stroke:#181818;stroke-width:0.5;" x1="128.5" x2="210.5" y1="184.2969" y2="184.2969"/><line style="stroke:#181818;stroke-width:0.5;" x1="128.5" x2="210.5" y1="192.2969" y2="192.2969"/></g><!--class Aspiradora--><g id="elem_Aspiradora"><rect codeLine="11" fill="#F1F1F1" height="48" id="Aspiradora" rx="2.5" ry="2.5" style="stroke:#181818;stroke-width:0.5;" width="109" x="351" y="152.2969"/><ellipse cx="366" cy="168.2969" fill="#ADD1B2" rx="11" ry="11" style="stroke:#181818;stroke-width:1.0;"/><path d="M368.3438,163.9688 C367.4063,163.5313 366.8125,163.3906 365.9375,163.3906 C363.3125,163.3906 361.3125,165.4688 361.3125,168.1875 L361.3125,169.3125 C361.3125,171.8906 363.4219,173.7813 366.3125,173.7813 C367.5313,173.7813 368.6875,173.4844 369.4375,172.9375 C370.0156,172.5313 370.3438,172.0781 370.3438,171.6875 C370.3438,171.2344 369.9531,170.8438 369.4844,170.8438 C369.2656,170.8438 369.0625,170.9219 368.875,171.1094 C368.4219,171.5938 368.4219,171.5938 368.2344,171.6875 C367.8125,171.9531 367.125,172.0781 366.3594,172.0781 C364.3125,172.0781 363.0156,170.9844 363.0156,169.2813 L363.0156,168.1875 C363.0156,166.4063 364.2656,165.0938 366,165.0938 C366.5781,165.0938 367.1875,165.25 367.6563,165.5 C368.1406,165.7813 368.3125,166 368.4063,166.4063 C368.4688,166.8125 368.5,166.9375 368.6406,167.0625 C368.7813,167.2031 369.0156,167.3125 369.2344,167.3125 C369.5,167.3125 369.7656,167.1719 369.9375,166.9531 C370.0469,166.7969 370.0781,166.6094 370.0781,166.1875 L370.0781,164.7656 C370.0781,164.3281 370.0625,164.2031 369.9688,164.0469 C369.8125,163.7813 369.5313,163.6406 369.2344,163.6406 C368.9375,163.6406 368.7344,163.7344 368.5156,164.0469 L368.3438,163.9688 Z " fill="#000000"/><text fill="#000000" font-family="sans-serif" font-size="14" lengthAdjust="spacing" textLength="77" x="380" y="173.1436">Aspiradora</text><line style="stroke:#181818;stroke-width:0.5;" x1="352" x2="459" y1="184.2969" y2="184.2969"/><line style="stroke:#181818;stroke-width:0.5;" x1="352" x2="459" y1="192.2969" y2="192.2969"/></g><!--class Elementos--><g id="elem_Elementos"><rect codeLine="15" fill="#F1F1F1" height="48" id="Elementos" rx="2.5" ry="2.5" style="stroke:#181818;stroke-width:0.5;" width="109" x="7" y="260.2969"/><ellipse cx="22" cy="276.2969" fill="#ADD1B2" rx="11" ry="11" style="stroke:#181818;stroke-width:1.0;"/><path d="M24.3438,271.9688 C23.4063,271.5313 22.8125,271.3906 21.9375,271.3906 C19.3125,271.3906 17.3125,273.4688 17.3125,276.1875 L17.3125,277.3125 C17.3125,279.8906 19.4219,281.7813 22.3125,281.7813 C23.5313,281.7813 24.6875,281.4844 25.4375,280.9375 C26.0156,280.5313 26.3438,280.0781 26.3438,279.6875 C26.3438,279.2344 25.9531,278.8438 25.4844,278.8438 C25.2656,278.8438 25.0625,278.9219 24.875,279.1094 C24.4219,279.5938 24.4219,279.5938 24.2344,279.6875 C23.8125,279.9531 23.125,280.0781 22.3594,280.0781 C20.3125,280.0781 19.0156,278.9844 19.0156,277.2813 L19.0156,276.1875 C19.0156,274.4063 20.2656,273.0938 22,273.0938 C22.5781,273.0938 23.1875,273.25 23.6563,273.5 C24.1406,273.7813 24.3125,274 24.4063,274.4063 C24.4688,274.8125 24.5,274.9375 24.6406,275.0625 C24.7813,275.2031 25.0156,275.3125 25.2344,275.3125 C25.5,275.3125 25.7656,275.1719 25.9375,274.9531 C26.0469,274.7969 26.0781,274.6094 26.0781,274.1875 L26.0781,272.7656 C26.0781,272.3281 26.0625,272.2031 25.9688,272.0469 C25.8125,271.7813 25.5313,271.6406 25.2344,271.6406 C24.9375,271.6406 24.7344,271.7344 24.5156,272.0469 L24.3438,271.9688 Z " fill="#000000"/><text fill="#000000" font-family="sans-serif" font-size="14" lengthAdjust="spacing" textLength="77" x="36" y="281.1436">Elementos</text><line style="stroke:#181818;stroke-width:0.5;" x1="8" x2="115" y1="292.2969" y2="292.2969"/><line style="stroke:#181818;stroke-width:0.5;" x1="8" x2="115" y1="300.2969" y2="300.2969"/></g><!--class Gato--><g id="elem_Gato"><rect codeLine="19" fill="#F1F1F1" height="48" id="Gato" rx="2.5" ry="2.5" style="stroke:#181818;stroke-width:0.5;" width="67" x="223" y="260.2969"/><ellipse cx="238" cy="276.2969" fill="#ADD1B2" rx="11" ry="11" style="stroke:#181818;stroke-width:1.0;"/><path d="M240.3438,271.9688 C239.4063,271.5313 238.8125,271.3906 237.9375,271.3906 C235.3125,271.3906 233.3125,273.4688 233.3125,276.1875 L233.3125,277.3125 C233.3125,279.8906 235.4219,281.7813 238.3125,281.7813 C239.5313,281.7813 240.6875,281.4844 241.4375,280.9375 C242.0156,280.5313 242.3438,280.0781 242.3438,279.6875 C242.3438,279.2344 241.9531,278.8438 241.4844,278.8438 C241.2656,278.8438 241.0625,278.9219 240.875,279.1094 C240.4219,279.5938 240.4219,279.5938 240.2344,279.6875 C239.8125,279.9531 239.125,280.0781 238.3594,280.0781 C236.3125,280.0781 235.0156,278.9844 235.0156,277.2813 L235.0156,276.1875 C235.0156,274.4063 236.2656,273.0938 238,273.0938 C238.5781,273.0938 239.1875,273.25 239.6563,273.5 C240.1406,273.7813 240.3125,274 240.4063,274.4063 C240.4688,274.8125 240.5,274.9375 240.6406,275.0625 C240.7813,275.2031 241.0156,275.3125 241.2344,275.3125 C241.5,275.3125 241.7656,275.1719 241.9375,274.9531 C242.0469,274.7969 242.0781,274.6094 242.0781,274.1875 L242.0781,272.7656 C242.0781,272.3281 242.0625,272.2031 241.9688,272.0469 C241.8125,271.7813 241.5313,271.6406 241.2344,271.6406 C240.9375,271.6406 240.7344,271.7344 240.5156,272.0469 L240.3438,271.9688 Z " fill="#000000"/><text fill="#000000" font-family="sans-serif" font-size="14" lengthAdjust="spacing" textLength="35" x="252" y="281.1436">Gato</text><line style="stroke:#181818;stroke-width:0.5;" x1="224" x2="289" y1="292.2969" y2="292.2969"/><line style="stroke:#181818;stroke-width:0.5;" x1="224" x2="289" y1="300.2969" y2="300.2969"/></g><!--class Posicion--><g id="elem_Posicion"><rect codeLine="23" fill="#F1F1F1" height="48" id="Posicion" rx="2.5" ry="2.5" style="stroke:#181818;stroke-width:0.5;" width="91" x="211" y="368.2969"/><ellipse cx="226" cy="384.2969" fill="#ADD1B2" rx="11" ry="11" style="stroke:#181818;stroke-width:1.0;"/><path d="M228.3438,379.9688 C227.4063,379.5313 226.8125,379.3906 225.9375,379.3906 C223.3125,379.3906 221.3125,381.4688 221.3125,384.1875 L221.3125,385.3125 C221.3125,387.8906 223.4219,389.7813 226.3125,389.7813 C227.5313,389.7813 228.6875,389.4844 229.4375,388.9375 C230.0156,388.5313 230.3438,388.0781 230.3438,387.6875 C230.3438,387.2344 229.9531,386.8438 229.4844,386.8438 C229.2656,386.8438 229.0625,386.9219 228.875,387.1094 C228.4219,387.5938 228.4219,387.5938 228.2344,387.6875 C227.8125,387.9531 227.125,388.0781 226.3594,388.0781 C224.3125,388.0781 223.0156,386.9844 223.0156,385.2813 L223.0156,384.1875 C223.0156,382.4063 224.2656,381.0938 226,381.0938 C226.5781,381.0938 227.1875,381.25 227.6563,381.5 C228.1406,381.7813 228.3125,382 228.4063,382.4063 C228.4688,382.8125 228.5,382.9375 228.6406,383.0625 C228.7813,383.2031 229.0156,383.3125 229.2344,383.3125 C229.5,383.3125 229.7656,383.1719 229.9375,382.9531 C230.0469,382.7969 230.0781,382.6094 230.0781,382.1875 L230.0781,380.7656 C230.0781,380.3281 230.0625,380.2031 229.9688,380.0469 C229.8125,379.7813 229.5313,379.6406 229.2344,379.6406 C228.9375,379.6406 228.7344,379.7344 228.5156,380.0469 L228.3438,379.9688 Z " fill="#000000"/><text fill="#000000" font-family="sans-serif" font-size="14" lengthAdjust="spacing" textLength="59" x="240" y="389.1436">Posicion</text><line style="stroke:#181818;stroke-width:0.5;" x1="212" x2="301" y1="400.2969" y2="400.2969"/><line style="stroke:#181818;stroke-width:0.5;" x1="212" x2="301" y1="408.2969" y2="408.2969"/></g><!--class Bateria--><g id="elem_Bateria"><rect codeLine="27" fill="#F1F1F1" height="48" id="Bateria" rx="2.5" ry="2.5" style="stroke:#181818;stroke-width:0.5;" width="84" x="396.5" y="260.2969"/><ellipse cx="411.5" cy="276.2969" fill="#ADD1B2" rx="11" ry="11" style="stroke:#181818;stroke-width:1.0;"/><path d="M413.8438,271.9688 C412.9063,271.5313 412.3125,271.3906 411.4375,271.3906 C408.8125,271.3906 406.8125,273.4688 406.8125,276.1875 L406.8125,277.3125 C406.8125,279.8906 408.9219,281.7813 411.8125,281.7813 C413.0313,281.7813 414.1875,281.4844 414.9375,280.9375 C415.5156,280.5313 415.8438,280.0781 415.8438,279.6875 C415.8438,279.2344 415.4531,278.8438 414.9844,278.8438 C414.7656,278.8438 414.5625,278.9219 414.375,279.1094 C413.9219,279.5938 413.9219,279.5938 413.7344,279.6875 C413.3125,279.9531 412.625,280.0781 411.8594,280.0781 C409.8125,280.0781 408.5156,278.9844 408.5156,277.2813 L408.5156,276.1875 C408.5156,274.4063 409.7656,273.0938 411.5,273.0938 C412.0781,273.0938 412.6875,273.25 413.1563,273.5 C413.6406,273.7813 413.8125,274 413.9063,274.4063 C413.9688,274.8125 414,274.9375 414.1406,275.0625 C414.2813,275.2031 414.5156,275.3125 414.7344,275.3125 C415,275.3125 415.2656,275.1719 415.4375,274.9531 C415.5469,274.7969 415.5781,274.6094 415.5781,274.1875 L415.5781,272.7656 C415.5781,272.3281 415.5625,272.2031 415.4688,272.0469 C415.3125,271.7813 415.0313,271.6406 414.7344,271.6406 C414.4375,271.6406 414.2344,271.7344 414.0156,272.0469 L413.8438,271.9688 Z " fill="#000000"/><text fill="#000000" font-family="sans-serif" font-size="14" lengthAdjust="spacing" textLength="52" x="425.5" y="281.1436">Bateria</text><line style="stroke:#181818;stroke-width:0.5;" x1="397.5" x2="479.5" y1="292.2969" y2="292.2969"/><line style="stroke:#181818;stroke-width:0.5;" x1="397.5" x2="479.5" y1="300.2969" y2="300.2969"/></g><!--class CapacidadDeBasura--><g id="elem_CapacidadDeBasura"><rect codeLine="30" fill="#F1F1F1" height="48" id="CapacidadDeBasura" rx="2.5" ry="2.5" style="stroke:#181818;stroke-width:0.5;" width="173" x="516" y="260.2969"/><ellipse cx="531" cy="276.2969" fill="#ADD1B2" rx="11" ry="11" style="stroke:#181818;stroke-width:1.0;"/><path d="M533.3438,271.9688 C532.4063,271.5313 531.8125,271.3906 530.9375,271.3906 C528.3125,271.3906 526.3125,273.4688 526.3125,276.1875 L526.3125,277.3125 C526.3125,279.8906 528.4219,281.7813 531.3125,281.7813 C532.5313,281.7813 533.6875,281.4844 534.4375,280.9375 C535.0156,280.5313 535.3438,280.0781 535.3438,279.6875 C535.3438,279.2344 534.9531,278.8438 534.4844,278.8438 C534.2656,278.8438 534.0625,278.9219 533.875,279.1094 C533.4219,279.5938 533.4219,279.5938 533.2344,279.6875 C532.8125,279.9531 532.125,280.0781 531.3594,280.0781 C529.3125,280.0781 528.0156,278.9844 528.0156,277.2813 L528.0156,276.1875 C528.0156,274.4063 529.2656,273.0938 531,273.0938 C531.5781,273.0938 532.1875,273.25 532.6563,273.5 C533.1406,273.7813 533.3125,274 533.4063,274.4063 C533.4688,274.8125 533.5,274.9375 533.6406,275.0625 C533.7813,275.2031 534.0156,275.3125 534.2344,275.3125 C534.5,275.3125 534.7656,275.1719 534.9375,274.9531 C535.0469,274.7969 535.0781,274.6094 535.0781,274.1875 L535.0781,272.7656 C535.0781,272.3281 535.0625,272.2031 534.9688,272.0469 C534.8125,271.7813 534.5313,271.6406 534.2344,271.6406 C533.9375,271.6406 533.7344,271.7344 533.5156,272.0469 L533.3438,271.9688 Z " fill="#000000"/><text fill="#000000" font-family="sans-serif" font-size="14" lengthAdjust="spacing" textLength="141" x="545" y="281.1436">CapacidadDeBasura</text><line style="stroke:#181818;stroke-width:0.5;" x1="517" x2="688" y1="292.2969" y2="292.2969"/><line style="stroke:#181818;stroke-width:0.5;" x1="517" x2="688" y1="300.2969" y2="300.2969"/></g><!--reverse link Habitacion to Azulejo--><g id="link_Habitacion_Azulejo"><path codeLine="36" d="M235.8772,101.2333 C220.0522,118.8913 206.298,134.2379 190.401,151.9749 " fill="none" id="Habitacion-backto-Azulejo" style="stroke:#181818;stroke-width:1.0;"/><polygon fill="#181818" points="243.886,92.2969,236.9028,94.0955,235.8772,101.2333,242.8604,99.4347,243.886,92.2969" style="stroke:#181818;stroke-width:1.0;"/></g><!--reverse link Habitacion to Aspiradora--><g id="link_Habitacion_Aspiradora"><path codeLine="37" d="M304.6868,99.5078 C328.1748,117.1658 350.884,134.2379 374.478,151.9749 " fill="none" id="Habitacion-backto-Aspiradora" style="stroke:#181818;stroke-width:1.0;"/><polygon fill="none" points="295.095,92.2969,297.4872,99.0996,304.6868,99.5078,302.2945,92.7051,295.095,92.2969" style="stroke:#181818;stroke-width:1.0;"/></g><!--reverse link Habitacion to Gato--><g id="link_Habitacion_Gato"><path codeLine="38" d="M263.1807,104.5975 C261.6417,145.7625 258.908,218.8719 257.37,260.0169 " fill="none" id="Habitacion-backto-Gato" style="stroke:#181818;stroke-width:1.0;"/><polygon fill="none" points="263.629,92.6059,259.4076,98.4522,263.1807,104.5975,267.402,98.7511,263.629,92.6059" style="stroke:#181818;stroke-width:1.0;"/></g><!--link Gato to Posicion--><g id="link_Gato_Posicion"><path codeLine="39" d="M256.5,308.2969 C256.5,325.9553 256.5,350.2377 256.5,367.9753 " fill="none" id="Gato-Posicion" style="stroke:#181818;stroke-width:1.0;"/></g><!--reverse link Azulejo to Elementos--><g id="link_Azulejo_Elementos"><path codeLine="40" d="M137.5016,208.7023 C119.5096,226.3603 103.3339,242.2379 85.2616,259.9749 " fill="none" id="Azulejo-backto-Elementos" style="stroke:#181818;stroke-width:1.0;"/><polygon fill="none" points="146.066,200.2969,138.982,201.6448,137.5016,208.7023,144.5856,207.3544,146.066,200.2969" style="stroke:#181818;stroke-width:1.0;"/></g><!--link Azulejo to Gato--><g id="link_Azulejo_Gato"><path codeLine="41" d="M188.378,200.2969 C202.871,217.9549 222.8,242.2379 237.359,259.9749 " fill="none" id="Azulejo-Gato" style="stroke:#181818;stroke-width:1.0;"/></g><!--link Azulejo to Posicion--><g id="link_Azulejo_Posicion"><path codeLine="42" d="M173.84,200.6869 C179.274,227.4269 189.814,272.1659 205.5,308.2969 C214.794,329.7058 225.5057,347.1962 236.5237,363.3402 " fill="none" id="Azulejo-to-Posicion" style="stroke:#181818;stroke-width:1.0;"/><polygon fill="#181818" points="239.906,368.2961,238.1365,358.6075,237.0874,364.1662,231.5287,363.1172,239.906,368.2961" style="stroke:#181818;stroke-width:1.0;"/></g><!--link Aspiradora to Posicion--><g id="link_Aspiradora_Posicion"><path codeLine="43" d="M389.271,200.6059 C360.609,241.7709 301.356,326.8722 272.709,368.0165 " fill="none" id="Aspiradora-Posicion" style="stroke:#181818;stroke-width:1.0;"/></g><!--reverse link Aspiradora to Bateria--><g id="link_Aspiradora_Bateria"><path codeLine="44" d="M416.2278,211.7545 C421.7248,229.4125 425.717,242.2379 431.24,259.9749 " fill="none" id="Aspiradora-backto-Bateria" style="stroke:#181818;stroke-width:1.0;"/><polygon fill="none" points="412.661,200.2969,410.6252,207.2146,416.2278,211.7545,418.2636,204.8368,412.661,200.2969" style="stroke:#181818;stroke-width:1.0;"/></g><!--link Aspiradora to CapacidadDeBasura--><g id="link_Aspiradora_CapacidadDeBasura"><path codeLine="45" d="M448.246,200.2969 C481.176,218.0159 521.2193,239.5618 554.2143,257.3158 " fill="none" id="Aspiradora-to-CapacidadDeBasura" style="stroke:#181818;stroke-width:1.0;"/><polygon fill="#181818" points="559.498,260.1589,553.4679,252.3719,555.0949,257.7897,549.6771,259.4168,559.498,260.1589" style="stroke:#181818;stroke-width:1.0;"/></g><!--SRC=[RP313i8W38RFzYbwDk4LbhXfz6BYAzJH0mRNPR2BndSNP8nDvK32rx_j_-EDjundqMm5DMDhoR73dUlDG5e60eZ8uOcknbDhfCCd0hm0cW_VFKRBDmamqQGk_LcT-C7odJil3jVyI5xMv2BEBBSbMfFdmKn3DnDig0_6DEazr-J6OIw7ix2zLIgxNMA9kCJzgaHZ42-biYF8aGChUMQQcygxmj9Q_YNe_k6uT4gvLbU_ETy0]--></g></svg>