<?xml version="1.0" encoding="us-ascii" standalone="no"?><svg xmlns="http://www.w3.org/2000/svg" xmlns:xlink="http://www.w3.org/1999/xlink" contentStyleType="text/css" height="220px" preserveAspectRatio="none" style="width:350px;height:220px;background:#FFFFFF;" version="1.1" viewBox="0 0 350 220" width="350px" zoomAndPan="magnify"><defs/><g><text fill="#000000" font-family="sans-serif" font-size="14" font-weight="bold" lengthAdjust="spacing" textLength="246" x="45" y="22.9951">Caso de Uso - CustomerServed</text><!--cluster CustomerServed--><g id="cluster_CustomerServed"><rect fill="none" height="170" rx="2.5" ry="2.5" style="stroke:#181818;stroke-width:1.0;" width="224" x="120" y="44.2969"/><text fill="#000000" font-family="sans-serif" font-size="14" font-weight="bold" lengthAdjust="spacing" textLength="132" x="166" y="59.292">CustomerServed</text></g><g id="elem_UC1"><ellipse cx="231.9095" cy="101.3788" fill="#F1F1F1" rx="95.9095" ry="21.5819" style="stroke:#181818;stroke-width:0.5;"/><text fill="#000000" font-family="sans-serif" font-size="14" lengthAdjust="spacing" textLength="155" x="154.4095" y="104.2255">Exit Shopping Center</text></g><g id="elem_UC2"><ellipse cx="231.8518" cy="178.3672" fill="#F1F1F1" rx="88.3518" ry="20.0704" style="stroke:#181818;stroke-width:0.5;"/><text fill="#000000" font-family="sans-serif" font-size="14" lengthAdjust="spacing" textLength="138" x="162.8518" y="181.2139">Continue Shopping</text></g><!--entity cust--><g id="elem_cust"><ellipse cx="41" cy="110.7969" fill="#F1F1F1" rx="8" ry="8" style="stroke:#181818;stroke-width:0.5;"/><path d="M41,118.7969 L41,145.7969 M28,126.7969 L54,126.7969 M41,145.7969 L28,160.7969 M41,145.7969 L54,160.7969 " fill="none" style="stroke:#181818;stroke-width:0.5;"/><text fill="#000000" font-family="sans-serif" font-size="14" lengthAdjust="spacing" textLength="70" x="6" y="175.292">Customer</text></g><!--link cust to UC1--><g id="link_cust_UC1"><path d="M76.2265,133.2343 C99.7356,128.3829 125.9098,122.9825 154.7478,117.0315 " fill="none" id="cust-to-UC1" style="stroke:#181818;stroke-width:1.0;"/><polygon fill="#181818" points="160.624,115.8189,151.0013,113.7203,155.7272,116.8294,152.6181,121.5552,160.624,115.8189" style="stroke:#181818;stroke-width:1.0;"/></g><!--link cust to UC2--><g id="link_cust_UC2"><path d="M76.2265,147.1784 C101.0121,152.1618 129.4097,157.8713 159.4097,163.903 " fill="none" id="cust-to-UC2" style="stroke:#181818;stroke-width:1.0;"/><polygon fill="#181818" points="165.292,165.0857,157.257,159.3901,160.3901,164.1001,155.6801,167.2332,165.292,165.0857" style="stroke:#181818;stroke-width:1.0;"/></g><!--SRC=[LOr12eD034NtESN7lOjwW6w6da0ym32cOy1EP2QMGl7k7KkHcaqI_ikBYSqCvujYP0orjN1hCNrmxZa_UIIQ-MumHPOu6KR974mqaG-c-Q3X2qATYVRSfrYzpLdLu4sejHOEljJuzX93F-coI8fmd8npiui6TpcJJfD9MlcWVrX76z7-5crx_PxzBTq7]--></g></svg>