<?xml version="1.0" encoding="us-ascii" standalone="no"?><svg xmlns="http://www.w3.org/2000/svg" xmlns:xlink="http://www.w3.org/1999/xlink" contentStyleType="text/css" height="211px" preserveAspectRatio="none" style="width:362px;height:211px;background:#FFFFFF;" version="1.1" viewBox="0 0 362 211" width="362px" zoomAndPan="magnify"><defs/><g><text fill="#000000" font-family="sans-serif" font-size="14" font-weight="bold" lengthAdjust="spacing" textLength="295" x="26.5" y="22.9951">Caso de Uso - ShoppingCenterClosed</text><!--cluster ShoppingCenterClosed--><g id="cluster_ShoppingCenterClosed"><rect fill="none" height="161" rx="2.5" ry="2.5" style="stroke:#181818;stroke-width:1.0;" width="234" x="122" y="44.2969"/><text fill="#000000" font-family="sans-serif" font-size="14" font-weight="bold" lengthAdjust="spacing" textLength="181" x="148.5" y="59.292">ShoppingCenterClosed</text></g><g id="elem_UC1"><ellipse cx="238.8822" cy="102.3733" fill="#F1F1F1" rx="100.8822" ry="22.5764" style="stroke:#181818;stroke-width:0.5;"/><text fill="#000000" font-family="sans-serif" font-size="14" lengthAdjust="spacing" textLength="166" x="155.8822" y="105.22">Open Shopping Center</text></g><g id="elem_UC2"><ellipse cx="238.8472" cy="174.5183" fill="#F1F1F1" rx="53.3472" ry="14.7215" style="stroke:#181818;stroke-width:0.5;"/><text fill="#000000" font-family="sans-serif" font-size="14" lengthAdjust="spacing" textLength="58" x="206.8472" y="178.2659">End Day</text></g><!--entity emp--><g id="elem_emp"><ellipse cx="42" cy="108.7969" fill="#F1F1F1" rx="8" ry="8" style="stroke:#181818;stroke-width:0.5;"/><path d="M42,116.7969 L42,143.7969 M29,124.7969 L55,124.7969 M42,143.7969 L29,158.7969 M42,143.7969 L55,158.7969 " fill="none" style="stroke:#181818;stroke-width:0.5;"/><text fill="#000000" font-family="sans-serif" font-size="14" lengthAdjust="spacing" textLength="72" x="6" y="173.292">Employee</text></g><!--link emp to UC1--><g id="link_emp_UC1"><path d="M78.313,131.7776 C101.2514,127.5428 126.1707,122.9421 154.6157,117.6911 " fill="none" id="emp-to-UC1" style="stroke:#181818;stroke-width:1.0;"/><polygon fill="#181818" points="160.516,116.6019,150.9394,114.3021,155.5991,117.5095,152.3917,122.1692,160.516,116.6019" style="stroke:#181818;stroke-width:1.0;"/></g><!--link emp to UC2--><g id="link_emp_UC2"><path d="M78.313,144.8162 C110.91,150.8341 153.5217,158.701 188.5167,165.1616 " fill="none" id="emp-to-UC2" style="stroke:#181818;stroke-width:1.0;"/><polygon fill="#181818" points="194.417,166.2509,186.2927,160.6834,189.5001,165.3431,184.8404,168.5505,194.417,166.2509" style="stroke:#181818;stroke-width:1.0;"/></g><!--SRC=[ROr12i8m44NtSufFzrtO0xY9NRkG7Y0qOnj8Co4P5wLuTrCLHN0sV-0_tbUlWM5i4JZ6KAF5PPQKV9mCH-LiWXHsH86l2XLaFyqAvpEFwYMI7LKo-YK5MPbX2tX9H7jjurJbpJzVWurGxrPujAL2vyJniumNskosmHn-oJuwdEpwBZkw4zL5jEtnoNx_xW40]--></g></svg>