<?xml version="1.0" encoding="us-ascii" standalone="no"?><svg xmlns="http://www.w3.org/2000/svg" xmlns:xlink="http://www.w3.org/1999/xlink" contentStyleType="text/css" height="206px" preserveAspectRatio="none" style="width:371px;height:206px;background:#FFFFFF;" version="1.1" viewBox="0 0 371 206" width="371px" zoomAndPan="magnify"><defs/><g><text fill="#000000" font-family="sans-serif" font-size="14" font-weight="bold" lengthAdjust="spacing" textLength="340" x="10" y="22.9951">Caso de Uso - CustomerSelectingProducts</text><!--cluster CustomerSelectingProducts--><g id="cluster_CustomerSelectingProducts"><rect fill="none" height="156" rx="2.5" ry="2.5" style="stroke:#181818;stroke-width:1.0;" width="242" x="123" y="44.2969"/><text fill="#000000" font-family="sans-serif" font-size="14" font-weight="bold" lengthAdjust="spacing" textLength="226" x="131" y="59.292">CustomerSelectingProducts</text></g><g id="elem_UC1"><ellipse cx="243.7248" cy="94.4418" fill="#F1F1F1" rx="63.7248" ry="15.145" style="stroke:#181818;stroke-width:0.5;"/><text fill="#000000" font-family="sans-serif" font-size="14" lengthAdjust="spacing" textLength="75" x="203.2248" y="98.1894">Join Queue</text></g><g id="elem_UC2"><ellipse cx="243.3518" cy="164.3672" fill="#F1F1F1" rx="88.3518" ry="20.0704" style="stroke:#181818;stroke-width:0.5;"/><text fill="#000000" font-family="sans-serif" font-size="14" lengthAdjust="spacing" textLength="138" x="174.3518" y="167.2139">Continue Shopping</text></g><!--entity cust--><g id="elem_cust"><ellipse cx="44" cy="99.7969" fill="#F1F1F1" rx="8" ry="8" style="stroke:#181818;stroke-width:0.5;"/><path d="M44,107.7969 L44,134.7969 M31,115.7969 L57,115.7969 M44,134.7969 L31,149.7969 M44,134.7969 L57,149.7969 " fill="none" style="stroke:#181818;stroke-width:0.5;"/><text fill="#000000" font-family="sans-serif" font-size="14" lengthAdjust="spacing" textLength="70" x="9" y="164.292">Customer</text></g><!--link cust to UC1--><g id="link_cust_UC1"><path d="M79.4019,123.2004 C110.568,117.6773 150.9721,110.5168 186.2911,104.2578 " fill="none" id="cust-to-UC1" style="stroke:#181818;stroke-width:1.0;"/><polygon fill="#181818" points="192.199,103.2109,182.6391,100.8427,187.2757,104.0833,184.0351,108.72,192.199,103.2109" style="stroke:#181818;stroke-width:1.0;"/></g><!--link cust to UC2--><g id="link_cust_UC2"><path d="M79.4019,135.3934 C105.263,139.9764 135.6451,145.3606 167.4291,150.9932 " fill="none" id="cust-to-UC2" style="stroke:#181818;stroke-width:1.0;"/><polygon fill="#181818" points="173.337,152.0402,165.1731,146.5311,168.4137,151.1677,163.7771,154.4083,173.337,152.0402" style="stroke:#181818;stroke-width:1.0;"/></g><!--SRC=[TOsn3i8m34HtVyMfUmVw0IpPc41LFo1AJHkfn5NYJ8X_nq48mO0NsxfxTnfrOpXV13DZijN3rQ9ouppona5ZMivPvXgq46ryLQWWnsLLp34tWoJoGIL_GFY2O3THqtrQhABxczhXJh2fXOClvZn9JBXKhjorfCaTVdKdoVZA65VPTqjwsmPw4BLUzFtnXNqzmnC0]--></g></svg>