<?xml version="1.0" encoding="us-ascii" standalone="no"?><svg xmlns="http://www.w3.org/2000/svg" xmlns:xlink="http://www.w3.org/1999/xlink" contentStyleType="text/css" height="757px" preserveAspectRatio="none" style="width:539px;height:757px;background:#FFFFFF;" version="1.1" viewBox="0 0 539 757" width="539px" zoomAndPan="magnify"><defs/><g><ellipse cx="253.0394" cy="16" fill="#222222" rx="10" ry="10" style="stroke:#222222;stroke-width:1.0;"/><g id="ShoppingCenterClosed"><rect fill="#F1F1F1" height="50" rx="12.5" ry="12.5" style="stroke:#181818;stroke-width:0.5;" width="187" x="159.5394" y="121"/><line style="stroke:#181818;stroke-width:0.5;" x1="159.5394" x2="346.5394" y1="147.2969" y2="147.2969"/><text fill="#000000" font-family="sans-serif" font-size="14" lengthAdjust="spacing" textLength="167" x="169.5394" y="138.9951">ShoppingCenterClosed</text></g><g id="ShoppingCenterOpened"><rect fill="#F1F1F1" height="50" rx="12.5" ry="12.5" style="stroke:#181818;stroke-width:0.5;" width="196" x="114.0391" y="266"/><line style="stroke:#181818;stroke-width:0.5;" x1="114.0391" x2="310.0391" y1="292.2969" y2="292.2969"/><text fill="#000000" font-family="sans-serif" font-size="14" lengthAdjust="spacing" textLength="176" x="124.0391" y="283.9951">ShoppingCenterOpened</text></g><g id="CustomerQueue"><rect fill="#F1F1F1" height="50" rx="12.5" ry="12.5" style="stroke:#181818;stroke-width:0.5;" width="135" x="60.5391" y="411"/><line style="stroke:#181818;stroke-width:0.5;" x1="60.5391" x2="195.5391" y1="437.2969" y2="437.2969"/><text fill="#000000" font-family="sans-serif" font-size="14" lengthAdjust="spacing" textLength="115" x="70.5391" y="428.9951">CustomerQueue</text></g><ellipse cx="422.0394" cy="726" fill="none" rx="11" ry="11" style="stroke:#222222;stroke-width:1.0;"/><ellipse cx="422.0394" cy="726" fill="#222222" rx="6" ry="6" style="stroke:#222222;stroke-width:1.0;"/><g id="CashRegisterLogic"><rect fill="#F1F1F1" height="50" rx="12.5" ry="12.5" style="stroke:#181818;stroke-width:0.5;" width="153" x="40.5391" y="556"/><line style="stroke:#181818;stroke-width:0.5;" x1="40.5391" x2="193.5391" y1="582.2969" y2="582.2969"/><text fill="#000000" font-family="sans-serif" font-size="14" lengthAdjust="spacing" textLength="133" x="50.5391" y="573.9951">CashRegisterLogic</text></g><g id="CashRegister"><rect fill="#F1F1F1" height="50" rx="12.5" ry="12.5" style="stroke:#181818;stroke-width:0.5;" width="115" x="57.5391" y="701"/><line style="stroke:#181818;stroke-width:0.5;" x1="57.5391" x2="172.5391" y1="727.2969" y2="727.2969"/><text fill="#000000" font-family="sans-serif" font-size="14" lengthAdjust="spacing" textLength="95" x="67.5391" y="718.9951">CashRegister</text></g><!--link *start* to ShoppingCenterClosed--><g id="link_*start*_ShoppingCenterClosed"><path d="M253.0394,26.205 C253.0394,45.81 253.0394,86.228 253.0394,114.891 " fill="none" id="*start*-to-ShoppingCenterClosed" style="stroke:#181818;stroke-width:1.0;"/><polygon fill="#181818" points="253.0394,120.891,257.0394,111.891,253.0394,115.891,249.0394,111.891,253.0394,120.891" style="stroke:#181818;stroke-width:1.0;"/><path d="M258.0394,61 L258.0394,86 L338.0394,86 L338.0394,71 L328.0394,61 L258.0394,61 " fill="#FEFFDD" style="stroke:#181818;stroke-width:0.5;"/><path d="M328.0394,61 L328.0394,71 L338.0394,71 L328.0394,61 " fill="#FEFFDD" style="stroke:#181818;stroke-width:0.5;"/><text fill="#000000" font-family="sans-serif" font-size="13" lengthAdjust="spacing" textLength="59" x="264.0394" y="78.0669">Start day</text></g><!--link ShoppingCenterClosed to ShoppingCenterOpened--><g id="link_ShoppingCenterClosed_ShoppingCenterOpened"><path d="M159.4234,158.616 C107.7103,167.166 50.808,180.849 35.0391,201 C6,238.11 52.8984,259.5918 108.1986,272.8438 " fill="none" id="ShoppingCenterClosed-to-ShoppingCenterOpened" style="stroke:#181818;stroke-width:1.0;"/><polygon fill="#181818" points="114.0334,274.242,106.2134,268.2548,109.1711,273.0768,104.349,276.0345,114.0334,274.242" style="stroke:#181818;stroke-width:1.0;"/><path d="M40.0391,206 L40.0391,231 L205.0391,231 L205.0391,216 L195.0391,206 L40.0391,206 " fill="#FEFFDD" style="stroke:#181818;stroke-width:0.5;"/><path d="M195.0391,206 L195.0391,216 L205.0391,216 L195.0391,206 " fill="#FEFFDD" style="stroke:#181818;stroke-width:0.5;"/><text fill="#000000" font-family="sans-serif" font-size="13" lengthAdjust="spacing" textLength="144" x="46.0391" y="223.0669">Open Shopping Center</text></g><!--link ShoppingCenterOpened to ShoppingCenterClosed--><g id="link_ShoppingCenterOpened_ShoppingCenterClosed"><path d="M219.0284,265.623 C226.5814,239.281 236.8906,203.3216 244.4306,177.0256 " fill="none" id="ShoppingCenterOpened-to-ShoppingCenterClosed" style="stroke:#181818;stroke-width:1.0;"/><polygon fill="#181818" points="246.0844,171.258,239.7587,178.8069,244.7063,176.0643,247.4488,181.0119,246.0844,171.258" style="stroke:#181818;stroke-width:1.0;"/><path d="M243.0394,206 L243.0394,231 L409.0394,231 L409.0394,216 L399.0394,206 L243.0394,206 " fill="#FEFFDD" style="stroke:#181818;stroke-width:0.5;"/><path d="M399.0394,206 L399.0394,216 L409.0394,216 L399.0394,206 " fill="#FEFFDD" style="stroke:#181818;stroke-width:0.5;"/><text fill="#000000" font-family="sans-serif" font-size="13" lengthAdjust="spacing" textLength="145" x="249.0394" y="223.0669">Close Shopping Center</text></g><!--link ShoppingCenterOpened to CustomerQueue--><g id="link_ShoppingCenterOpened_CustomerQueue"><path d="M170.0624,316.231 C159.3474,324.367 148.9244,334.38 142.0394,346 C130.3984,365.647 127.5962,385.8331 127.2382,404.7081 " fill="none" id="ShoppingCenterOpened-to-CustomerQueue" style="stroke:#181818;stroke-width:1.0;"/><polygon fill="#181818" points="127.1244,410.707,131.2944,401.7845,127.2192,405.7079,123.2958,401.6328,127.1244,410.707" style="stroke:#181818;stroke-width:1.0;"/><path d="M147.0394,351 L147.0394,376 L333.0394,376 L333.0394,361 L323.0394,351 L147.0394,351 " fill="#FEFFDD" style="stroke:#181818;stroke-width:0.5;"/><path d="M323.0394,351 L323.0394,361 L333.0394,361 L323.0394,351 " fill="#FEFFDD" style="stroke:#181818;stroke-width:0.5;"/><text fill="#000000" font-family="sans-serif" font-size="13" lengthAdjust="spacing" textLength="165" x="153.0394" y="368.0669">Register Customer Arrival</text></g><!--link ShoppingCenterOpened to *end*--><g id="link_ShoppingCenterOpened_*end*"><path d="M304.7834,316.024 C319.1234,323.49 332.3594,333.25 342.0394,346 C390.7734,410.192 347.8214,447.053 364.0394,526 C379.2464,600.025 406.5527,680.8487 416.5867,709.54 " fill="none" id="ShoppingCenterOpened-to-*end*" style="stroke:#181818;stroke-width:1.0;"/><polygon fill="#181818" points="418.5674,715.2036,419.3721,705.3877,416.9168,710.4839,411.8206,708.0286,418.5674,715.2036" style="stroke:#181818;stroke-width:1.0;"/><path d="M369.0394,496 L369.0394,521 L421.0394,521 L421.0394,506 L411.0394,496 L369.0394,496 " fill="#FEFFDD" style="stroke:#181818;stroke-width:0.5;"/><path d="M411.0394,496 L411.0394,506 L421.0394,506 L411.0394,496 " fill="#FEFFDD" style="stroke:#181818;stroke-width:0.5;"/><text fill="#000000" font-family="sans-serif" font-size="13" lengthAdjust="spacing" textLength="31" x="375.0394" y="513.0669">exits</text></g><!--link CustomerQueue to CashRegisterLogic--><g id="link_CustomerQueue_CashRegisterLogic"><path d="M126.1731,461.258 C124.1504,487.554 121.4008,523.2987 119.3745,549.6407 " fill="none" id="CustomerQueue-to-CashRegisterLogic" style="stroke:#181818;stroke-width:1.0;"/><polygon fill="#181818" points="118.9143,555.623,123.5928,546.9563,119.2978,550.6377,115.6163,546.3427,118.9143,555.623" style="stroke:#181818;stroke-width:1.0;"/><path d="M129.0391,496 L129.0391,521 L253.0391,521 L253.0391,506 L243.0391,496 L129.0391,496 " fill="#FEFFDD" style="stroke:#181818;stroke-width:0.5;"/><path d="M243.0391,496 L243.0391,506 L253.0391,506 L243.0391,496 " fill="#FEFFDD" style="stroke:#181818;stroke-width:0.5;"/><text fill="#000000" font-family="sans-serif" font-size="13" lengthAdjust="spacing" textLength="103" x="135.0391" y="513.0669">Gives Customer</text></g><!--link CashRegisterLogic to CashRegister--><g id="link_CashRegisterLogic_CashRegister"><path d="M114.3221,606.16 C113.4009,615.473 112.491,626.219 112.0391,636 C111.026,657.93 111.6846,676.9265 112.8063,694.8298 " fill="none" id="CashRegisterLogic-to-CashRegister" style="stroke:#181818;stroke-width:1.0;"/><polygon fill="#181818" points="113.1815,700.8181,116.6109,691.5856,112.8688,695.8279,108.6266,692.0858,113.1815,700.8181" style="stroke:#181818;stroke-width:1.0;"/><path d="M117.0391,641 L117.0391,666 L333.0391,666 L333.0391,651 L323.0391,641 L117.0391,641 " fill="#FEFFDD" style="stroke:#181818;stroke-width:0.5;"/><path d="M323.0391,641 L323.0391,651 L333.0391,651 L323.0391,641 " fill="#FEFFDD" style="stroke:#181818;stroke-width:0.5;"/><text fill="#000000" font-family="sans-serif" font-size="13" lengthAdjust="spacing" textLength="195" x="123.0391" y="658.0669">Sends Client, open or close CR</text></g><!--link CashRegister to *end*--><g id="link_CashRegister_*end*"><path d="M172.7834,726 C247.6444,726 367.0984,726 404.9184,726 " fill="none" id="CashRegister-to-*end*" style="stroke:#181818;stroke-width:1.0;"/><polygon fill="#181818" points="410.9184,726,401.9184,722,405.9184,726,401.9184,730,410.9184,726" style="stroke:#181818;stroke-width:1.0;"/><path d="M194.7894,693 L194.7894,718 L388.7894,718 L388.7894,703 L378.7894,693 L194.7894,693 " fill="#FEFFDD" style="stroke:#181818;stroke-width:0.5;"/><path d="M378.7894,693 L378.7894,703 L388.7894,703 L378.7894,693 " fill="#FEFFDD" style="stroke:#181818;stroke-width:0.5;"/><text fill="#000000" font-family="sans-serif" font-size="13" lengthAdjust="spacing" textLength="173" x="200.7894" y="710.0669">Ends With Customer &amp; Exit</text></g><!--link ShoppingCenterClosed to *end*--><g id="link_ShoppingCenterClosed_*end*"><path d="M346.9434,160.487 C374.0374,168.42 401.7334,181.014 422.0394,201 C451.7884,230.282 452.0394,248.258 452.0394,290 C452.0394,290 452.0394,290 452.0394,582 C452.0394,633.241 435.3216,686.9815 427.4416,709.7655 " fill="none" id="ShoppingCenterClosed-to-*end*" style="stroke:#181818;stroke-width:1.0;"/><polygon fill="#181818" points="425.4804,715.4359,432.2024,708.2377,427.1147,710.7105,424.6418,705.6228,425.4804,715.4359" style="stroke:#181818;stroke-width:1.0;"/><path d="M457.0394,423.5 L457.0394,448.5 L532.0394,448.5 L532.0394,433.5 L522.0394,423.5 L457.0394,423.5 " fill="#FEFFDD" style="stroke:#181818;stroke-width:0.5;"/><path d="M522.0394,423.5 L522.0394,433.5 L532.0394,433.5 L522.0394,423.5 " fill="#FEFFDD" style="stroke:#181818;stroke-width:0.5;"/><text fill="#000000" font-family="sans-serif" font-size="13" lengthAdjust="spacing" textLength="54" x="463.0394" y="440.5669">End Day</text></g><!--SRC=[ZPB13e8m44Jl_OevUJ3o2oO6ZHSJ8nmy60z4Dh0HMz8MetzlAn6XOiArtNaxExkd-HbHj4HQghfcMSGaBUcuKePo2AaiGKbKBAyYjPcsoBEd89d3VmanAllbxMkIb0znW7_j2j5M_cMtY3SxRenLDzA7XXeAeGaLR5nzLuMLrdpFgYdaq_myu47GWwtfIGUzMpUPAJzDTwhWI-XeotSodPq-ArJ-y49KwiGELR4ple3o-IcDYuyTSV87ZKXpKTgHyHnnuu57jkKthnasRkWfSOrjFspmVfsyvTu5ZPl5kdT_Bm00]--></g></svg>