<?xml version="1.0" encoding="us-ascii" standalone="no"?><svg xmlns="http://www.w3.org/2000/svg" xmlns:xlink="http://www.w3.org/1999/xlink" contentStyleType="text/css" height="643px" preserveAspectRatio="none" style="width:1141px;height:643px;background:#FFFFFF;" version="1.1" viewBox="0 0 1141 643" width="1141px" zoomAndPan="magnify"><defs/><g><ellipse cx="1096.5" cy="32" fill="#222222" rx="10" ry="10" style="stroke:#222222;stroke-width:1.0;"/><g id="ShoppingCenterClosed"><rect fill="#FAF4B4" height="50" rx="12.5" ry="12.5" style="stroke:#C90000;stroke-width:0.5;" width="187" x="787" y="152"/><line style="stroke:#C90000;stroke-width:0.5;" x1="787" x2="974" y1="178.2969" y2="178.2969"/><text fill="#000000" font-family="sans-serif" font-size="14" lengthAdjust="spacing" textLength="167" x="797" y="169.9951">ShoppingCenterClosed</text></g><g id="ShoppingCenterOpened"><rect fill="#FAF4B4" height="50" rx="12.5" ry="12.5" style="stroke:#C90000;stroke-width:0.5;" width="196" x="509.5" y="7"/><line style="stroke:#C90000;stroke-width:0.5;" x1="509.5" x2="705.5" y1="33.2969" y2="33.2969"/><text fill="#000000" font-family="sans-serif" font-size="14" lengthAdjust="spacing" textLength="176" x="519.5" y="24.9951">ShoppingCenterOpened</text></g><g id="CustomerArrived"><rect fill="#FAF4B4" height="50" rx="12.5" ry="12.5" style="stroke:#C90000;stroke-width:0.5;" width="142" x="88.5" y="152"/><line style="stroke:#C90000;stroke-width:0.5;" x1="88.5" x2="230.5" y1="178.2969" y2="178.2969"/><text fill="#000000" font-family="sans-serif" font-size="14" lengthAdjust="spacing" textLength="122" x="98.5" y="169.9951">CustomerArrived</text></g><g id="CustomerSelectingProducts"><rect fill="#FAF4B4" height="50" rx="12.5" ry="12.5" style="stroke:#C90000;stroke-width:0.5;" width="221" x="7" y="297"/><line style="stroke:#C90000;stroke-width:0.5;" x1="7" x2="228" y1="323.2969" y2="323.2969"/><text fill="#000000" font-family="sans-serif" font-size="14" lengthAdjust="spacing" textLength="201" x="17" y="314.9951">CustomerSelectingProducts</text></g><g id="CustomerWaiting"><rect fill="#FAF4B4" height="50" rx="12.5" ry="12.5" style="stroke:#C90000;stroke-width:0.5;" width="145" x="327" y="442"/><line style="stroke:#C90000;stroke-width:0.5;" x1="327" x2="472" y1="468.2969" y2="468.2969"/><text fill="#000000" font-family="sans-serif" font-size="14" lengthAdjust="spacing" textLength="125" x="337" y="459.9951">CustomerWaiting</text></g><g id="CustomerServed"><rect fill="#FAF4B4" height="50" rx="12.5" ry="12.5" style="stroke:#C90000;stroke-width:0.5;" width="140" x="329.5" y="587"/><line style="stroke:#C90000;stroke-width:0.5;" x1="329.5" x2="469.5" y1="613.2969" y2="613.2969"/><text fill="#000000" font-family="sans-serif" font-size="14" lengthAdjust="spacing" textLength="120" x="339.5" y="604.9951">CustomerServed</text></g><ellipse cx="880.5" cy="322" fill="none" rx="11" ry="11" style="stroke:#222222;stroke-width:1.0;"/><ellipse cx="880.5" cy="322" fill="#222222" rx="6" ry="6" style="stroke:#222222;stroke-width:1.0;"/><!--link *start* to ShoppingCenterClosed--><g id="link_*start*_ShoppingCenterClosed"><path d="M1092.76,41.534 C1083,63.81 1057.5,122 1057.5,122 C1057.5,122 1012.3619,135.7712 965.1619,150.1712 " fill="none" id="*start*-to-ShoppingCenterClosed" style="stroke:#218C00;stroke-width:1.0;"/><polygon fill="#218C00" points="959.423,151.922,969.1985,153.1216,964.2054,150.463,966.8641,145.4698,959.423,151.922" style="stroke:#218C00;stroke-width:1.0;"/><text fill="#000000" font-family="sans-serif" font-size="13" lengthAdjust="spacing" textLength="61" x="1072.5" y="109.0669">Start Day</text></g><!--link ShoppingCenterClosed to ShoppingCenterOpened--><g id="link_ShoppingCenterClosed_ShoppingCenterOpened"><path d="M786.783,152.786 C727.698,138.15 662.5,122 662.5,122 C662.5,122 641.9671,88.7751 625.6831,62.4241 " fill="none" id="ShoppingCenterClosed-to-ShoppingCenterOpened" style="stroke:#218C00;stroke-width:1.0;"/><polygon fill="#218C00" points="622.529,57.32,623.8575,67.0788,625.1574,61.5734,630.6629,62.8733,622.529,57.32" style="stroke:#218C00;stroke-width:1.0;"/><path d="M667.5,92 L667.5,117 L832.5,117 L832.5,102 L822.5,92 L667.5,92 " fill="#F5F5F5" style="stroke:#C90000;stroke-width:0.5;"/><path d="M822.5,92 L822.5,102 L832.5,102 L822.5,92 " fill="#F5F5F5" style="stroke:#C90000;stroke-width:0.5;"/><text fill="#000000" font-family="sans-serif" font-size="13" lengthAdjust="spacing" textLength="144" x="673.5" y="109.0669">Open Shopping Center</text></g><!--link ShoppingCenterOpened to ShoppingCenterClosed--><g id="link_ShoppingCenterOpened_ShoppingCenterClosed"><path d="M705.72,55.666 C769.757,70.444 841.5,87 841.5,87 C841.5,87 855.8879,119.8335 867.4349,146.1845 " fill="none" id="ShoppingCenterOpened-to-ShoppingCenterClosed" style="stroke:#218C00;stroke-width:1.0;"/><polygon fill="#218C00" points="869.843,151.68,869.8945,141.8313,867.8362,147.1004,862.5671,145.0421,869.843,151.68" style="stroke:#218C00;stroke-width:1.0;"/><path d="M860.5,92 L860.5,117 L1026.5,117 L1026.5,102 L1016.5,92 L860.5,92 " fill="#F5F5F5" style="stroke:#C90000;stroke-width:0.5;"/><path d="M1016.5,92 L1016.5,102 L1026.5,102 L1016.5,92 " fill="#F5F5F5" style="stroke:#C90000;stroke-width:0.5;"/><text fill="#000000" font-family="sans-serif" font-size="13" lengthAdjust="spacing" textLength="145" x="866.5" y="109.0669">Close Shopping Center</text></g><!--link ShoppingCenterOpened to CustomerArrived--><g id="link_ShoppingCenterOpened_CustomerArrived"><path d="M509.405,46.977 C397.109,62.977 228.5,87 228.5,87 C228.5,87 202.4602,120.5871 182.0312,146.9381 " fill="none" id="ShoppingCenterOpened-to-CustomerArrived" style="stroke:#218C00;stroke-width:1.0;"/><polygon fill="#218C00" points="178.355,151.68,187.0306,147.018,181.4185,147.7284,180.7081,142.1164,178.355,151.68" style="stroke:#218C00;stroke-width:1.0;"/><path d="M233.5,92 L233.5,117 L419.5,117 L419.5,102 L409.5,92 L233.5,92 " fill="#F5F5F5" style="stroke:#C90000;stroke-width:0.5;"/><path d="M409.5,92 L409.5,102 L419.5,102 L409.5,92 " fill="#F5F5F5" style="stroke:#C90000;stroke-width:0.5;"/><text fill="#000000" font-family="sans-serif" font-size="13" lengthAdjust="spacing" textLength="165" x="239.5" y="109.0669">Register Customer Arrival</text></g><!--link CustomerArrived to CustomerSelectingProducts--><g id="link_CustomerArrived_CustomerSelectingProducts"><path d="M152.375,202.258 C144.652,228.554 134.0879,264.5242 126.3509,290.8662 " fill="none" id="CustomerArrived-to-CustomerSelectingProducts" style="stroke:#218C00;stroke-width:1.0;"/><polygon fill="#218C00" points="124.66,296.623,131.0342,289.115,126.069,291.8256,123.3584,286.8605,124.66,296.623" style="stroke:#218C00;stroke-width:1.0;"/><path d="M148.5,237 L148.5,262 L268.5,262 L268.5,247 L258.5,237 L148.5,237 " fill="#F5F5F5" style="stroke:#C90000;stroke-width:0.5;"/><path d="M258.5,237 L258.5,247 L268.5,247 L258.5,237 " fill="#F5F5F5" style="stroke:#C90000;stroke-width:0.5;"/><text fill="#000000" font-family="sans-serif" font-size="13" lengthAdjust="spacing" textLength="99" x="154.5" y="254.0669">Select Products</text></g><!--link CustomerSelectingProducts to CustomerWaiting--><g id="link_CustomerSelectingProducts_CustomerWaiting"><path d="M165.019,347.096 C216.975,373.443 294.4017,412.7054 346.4357,439.0914 " fill="none" id="CustomerSelectingProducts-to-CustomerWaiting" style="stroke:#218C00;stroke-width:1.0;"/><polygon fill="#218C00" points="351.787,441.805,345.5691,434.1671,347.3276,439.5437,341.951,441.3021,351.787,441.805" style="stroke:#218C00;stroke-width:1.0;"/><path d="M297.5,382 L297.5,407 L387.5,407 L387.5,392 L377.5,382 L297.5,382 " fill="#F5F5F5" style="stroke:#C90000;stroke-width:0.5;"/><path d="M377.5,382 L377.5,392 L387.5,392 L377.5,382 " fill="#F5F5F5" style="stroke:#C90000;stroke-width:0.5;"/><text fill="#000000" font-family="sans-serif" font-size="13" lengthAdjust="spacing" textLength="69" x="303.5" y="399.0669">Join Queue</text></g><!--link CustomerSelectingProducts to CustomerSelectingProducts--><g id="link_CustomerSelectingProducts_CustomerSelectingProducts"><path d="M228.207,309.217 C248.64,310.813 263,315.074 263,322 C263,328.926 254.6218,332.7198 234.1888,334.3158 " fill="none" id="CustomerSelectingProducts-to-CustomerSelectingProducts" style="stroke:#218C00;stroke-width:1.0;"/><polygon fill="#218C00" points="228.207,334.783,237.4912,338.07,233.1918,334.3936,236.8682,330.0943,228.207,334.783" style="stroke:#218C00;stroke-width:1.0;"/><path d="M268,309.5 L268,334.5 L409,334.5 L409,319.5 L399,309.5 L268,309.5 " fill="#F5F5F5" style="stroke:#C90000;stroke-width:0.5;"/><path d="M399,309.5 L399,319.5 L409,319.5 L399,309.5 " fill="#F5F5F5" style="stroke:#C90000;stroke-width:0.5;"/><text fill="#000000" font-family="sans-serif" font-size="13" lengthAdjust="spacing" textLength="120" x="274" y="326.5669">Continue Shopping</text></g><!--link CustomerWaiting to CustomerServed--><g id="link_CustomerWaiting_CustomerServed"><path d="M399.5,492.258 C399.5,518.554 399.5,554.2806 399.5,580.623 " fill="none" id="CustomerWaiting-to-CustomerServed" style="stroke:#218C00;stroke-width:1.0;"/><polygon fill="#218C00" points="399.5,586.623,403.5,577.623,399.5,581.623,395.5,577.623,399.5,586.623" style="stroke:#218C00;stroke-width:1.0;"/><path d="M404.5,527 L404.5,552 L572.5,552 L572.5,537 L562.5,527 L404.5,527 " fill="#F5F5F5" style="stroke:#C90000;stroke-width:0.5;"/><path d="M562.5,527 L562.5,537 L572.5,537 L562.5,527 " fill="#F5F5F5" style="stroke:#C90000;stroke-width:0.5;"/><text fill="#000000" font-family="sans-serif" font-size="13" lengthAdjust="spacing" textLength="147" x="410.5" y="544.0669">Serve at Cash Register</text></g><!--link CustomerServed to CustomerSelectingProducts--><g id="link_CustomerServed_CustomerSelectingProducts"><path d="M350.73,586.9186 C280.309,552.1464 158.5,492 158.5,492 C158.5,492 136.1256,399.7749 124.7886,353.0449 " fill="none" id="CustomerServed-to-CustomerSelectingProducts" style="stroke:#218C00;stroke-width:1.0;"/><polygon fill="#218C00" points="123.374,347.214,121.6087,356.9034,124.5528,352.073,129.3831,355.0172,123.374,347.214" style="stroke:#218C00;stroke-width:1.0;"/><path d="M163.5,454.5 L163.5,479.5 L304.5,479.5 L304.5,464.5 L294.5,454.5 L163.5,454.5 " fill="#F5F5F5" style="stroke:#C90000;stroke-width:0.5;"/><path d="M294.5,454.5 L294.5,464.5 L304.5,464.5 L294.5,454.5 " fill="#F5F5F5" style="stroke:#C90000;stroke-width:0.5;"/><text fill="#000000" font-family="sans-serif" font-size="13" lengthAdjust="spacing" textLength="120" x="169.5" y="471.5669">Continue Shopping</text></g><!--link CustomerServed to ShoppingCenterOpened--><g id="link_CustomerServed_ShoppingCenterOpened"><path d="M469.554,590.6619 C522.279,575.3545 585.5,557 585.5,557 C585.5,557 607.5,468 607.5,468 C607.5,176 607.5,176 607.5,176 C607.5,176 607.5,104.057 607.5,63.258 " fill="none" id="CustomerServed-to-ShoppingCenterOpened" style="stroke:#218C00;stroke-width:1.0;"/><polygon fill="#218C00" points="607.5,57.258,603.5,66.258,607.5,62.258,611.5,66.258,607.5,57.258" style="stroke:#218C00;stroke-width:1.0;"/><path d="M612.5,309.5 L612.5,334.5 L767.5,334.5 L767.5,319.5 L757.5,309.5 L612.5,309.5 " fill="#F5F5F5" style="stroke:#C90000;stroke-width:0.5;"/><path d="M757.5,309.5 L757.5,319.5 L767.5,319.5 L757.5,309.5 " fill="#F5F5F5" style="stroke:#C90000;stroke-width:0.5;"/><text fill="#000000" font-family="sans-serif" font-size="13" lengthAdjust="spacing" textLength="134" x="618.5" y="326.5669">Exit Shopping Center</text></g><!--reverse link ShoppingCenterOpened to CustomerWaiting--><g id="link_ShoppingCenterOpened_CustomerWaiting"><path d="M584.4404,61.68 C541.8854,114.608 447.5,232 447.5,232 C447.5,232 416.72,382.053 404.456,441.839 " fill="none" id="ShoppingCenterOpened-backto-CustomerWaiting" style="stroke:#218C00;stroke-width:1.0;"/><polygon fill="#218C00" points="588.2,57.004,579.4432,61.5116,585.067,60.9007,585.6779,66.5245,588.2,57.004" style="stroke:#218C00;stroke-width:1.0;"/><path d="M452.5,237 L452.5,262 L576.5,262 L576.5,247 L566.5,237 L452.5,237 " fill="#F5F5F5" style="stroke:#C90000;stroke-width:0.5;"/><path d="M566.5,237 L566.5,247 L576.5,247 L566.5,237 " fill="#F5F5F5" style="stroke:#C90000;stroke-width:0.5;"/><text fill="#000000" font-family="sans-serif" font-size="13" lengthAdjust="spacing" textLength="103" x="458.5" y="254.0669">Abandon Queue</text></g><!--link ShoppingCenterClosed to *end*--><g id="link_ShoppingCenterClosed_*end*"><path d="M880.5,202.258 C880.5,233.972 880.5,282.132 880.5,304.678 " fill="none" id="ShoppingCenterClosed-to-*end*" style="stroke:#218C00;stroke-width:1.0;"/><polygon fill="#218C00" points="880.5,310.678,884.5,301.678,880.5,305.678,876.5,301.678,880.5,310.678" style="stroke:#218C00;stroke-width:1.0;"/><path d="M885.5,237 L885.5,262 L960.5,262 L960.5,247 L950.5,237 L885.5,237 " fill="#F5F5F5" style="stroke:#C90000;stroke-width:0.5;"/><path d="M950.5,237 L950.5,247 L960.5,247 L950.5,237 " fill="#F5F5F5" style="stroke:#C90000;stroke-width:0.5;"/><text fill="#000000" font-family="sans-serif" font-size="13" lengthAdjust="spacing" textLength="54" x="891.5" y="254.0669">End Day</text></g><!--SRC=[jPDDJyCm38Rl-HMMk25DOcX8m05f52vS-1WI1yGXQxmsQXTNJWhitvDqMxKsPIe7sbFjru-Tjx4jjAaaopKOSdWhqo9ZgerAg2I6azL5U8NjgeWLyawHNftvvq0XcUbhbpoVNgQTf7Log8jSpPQpI7QqJQaDkas5K56v2H_z4LvpdHO6hOMf4E-d7p2PtC0YfwhI9alGECykoQA2QrWuoGxkv4Q8GKLS-bYXGIM27K0cJ5C8W11jXR1L2ZIgiQtFtY8QTb9RHslaERF-ZB4lc6dhAreTD49P7h1xY0vsWIMcpZT-Ob9rwco_mLO0RJh6HeXEWpUfGwwFVI1juBd66iSHMMUv-ylS2HcVhh7rVA3FRhQU8JnWSnC5wI2HDczD7noT6ul_PTuzVEILk__MxiYLYroegv7W-L8QHV7_-_KI3srEP428ZjwGW-tp2noTt5U5bTrN_m00]--></g></svg>