<?xml version="1.0" encoding="us-ascii" standalone="no"?><svg xmlns="http://www.w3.org/2000/svg" xmlns:xlink="http://www.w3.org/1999/xlink" contentStyleType="text/css" height="618px" preserveAspectRatio="none" style="width:571px;height:618px;background:#FFFFFF;" version="1.1" viewBox="0 0 571 618" width="571px" zoomAndPan="magnify"><defs/><g><text fill="#000000" font-family="sans-serif" font-size="14" font-weight="bold" lengthAdjust="spacing" textLength="238" x="156.71" y="24.9659">Diagrama de Estados del Ascensor</text><ellipse cx="274.92" cy="56.0679" fill="#222222" rx="10" ry="10" style="stroke:#222222;stroke-width:1.0;"/><path d="M19.5,197.5679 L238.3333,197.5679 A12.5,12.5 0 0 1 250.8333,210.0679 L250.8333,226.6358 L7,226.6358 L7,210.0679 A12.5,12.5 0 0 1 19.5,197.5679 " fill="#F1F1F1" style="stroke:#F1F1F1;stroke-width:1.0;"/><rect fill="none" height="261.0679" rx="12.5" ry="12.5" style="stroke:#181818;stroke-width:0.5;" width="243.8333" x="7" y="197.5679"/><line style="stroke:#181818;stroke-width:0.5;" x1="7" x2="250.8333" y1="226.6358" y2="226.6358"/><text fill="#000000" font-family="sans-serif" font-size="14" lengthAdjust="spacing" textLength="79" x="89.4166" y="217.5339">Movimiento</text><ellipse cx="119.8333" cy="247.6358" fill="#222222" rx="10" ry="10" style="stroke:#222222;stroke-width:1.0;"/><g id="Movimiento.Detenido"><rect fill="#F1F1F1" height="50" rx="12.5" ry="12.5" style="stroke:#181818;stroke-width:0.5;" width="81" x="79.3333" y="293.6358"/><line style="stroke:#181818;stroke-width:0.5;" x1="79.3333" x2="160.3333" y1="322.7038" y2="322.7038"/><text fill="#000000" font-family="sans-serif" font-size="14" lengthAdjust="spacing" textLength="61" x="89.3333" y="313.6018">Detenido</text></g><g id="Movimiento.Subiendo"><rect fill="#F1F1F1" height="50" rx="12.5" ry="12.5" style="stroke:#181818;stroke-width:0.5;" width="84" x="21.8333" y="398.6358"/><line style="stroke:#181818;stroke-width:0.5;" x1="21.8333" x2="105.8333" y1="427.7038" y2="427.7038"/><text fill="#000000" font-family="sans-serif" font-size="14" lengthAdjust="spacing" textLength="64" x="31.8333" y="418.6018">Subiendo</text></g><g id="Movimiento.Bajando"><rect fill="#F1F1F1" height="50" rx="12.5" ry="12.5" style="stroke:#181818;stroke-width:0.5;" width="75" x="139.3333" y="398.6358"/><line style="stroke:#181818;stroke-width:0.5;" x1="139.3333" x2="214.3333" y1="427.7038" y2="427.7038"/><text fill="#000000" font-family="sans-serif" font-size="14" lengthAdjust="spacing" textLength="55" x="149.3333" y="418.6018">Bajando</text></g><!--link *start*Movimiento to Detenido--><g id="link_*start*Movimiento_Detenido"><path d="M119.8333,257.9458 C119.8333,266.9858 119.8333,275.1258 119.8333,287.3658 " fill="none" id="*start*Movimiento-to-Detenido" style="stroke:#181818;stroke-width:1.0;"/><polygon fill="#181818" points="119.8333,293.3658,123.8333,284.3658,119.8333,288.3658,115.8333,284.3658,119.8333,293.3658" style="stroke:#181818;stroke-width:1.0;"/></g><!--link Detenido to Subiendo--><g id="link_Detenido_Subiendo"><path d="M79.1333,327.8658 C60.4433,333.8958 39.9933,344.1958 28.8333,361.6358 C21.2633,373.4658 23.7656,382.3306 32.9956,393.6206 " fill="none" id="Detenido-to-Subiendo" style="stroke:#181818;stroke-width:1.0;"/><polygon fill="#181818" points="36.7933,398.2658,34.1936,388.7663,33.6286,394.3948,28,393.8298,36.7933,398.2658" style="stroke:#181818;stroke-width:1.0;"/><text fill="#000000" font-family="sans-serif" font-size="13" lengthAdjust="spacing" textLength="31" x="29.8333" y="376.5328">Subir</text></g><!--link Detenido to Bajando--><g id="link_Detenido_Bajando"><path d="M133.3433,344.0458 C142.4233,360.4658 151.4481,376.7661 160.5181,393.1561 " fill="none" id="Detenido-to-Bajando" style="stroke:#181818;stroke-width:1.0;"/><polygon fill="#181818" points="163.4233,398.4058,162.5654,388.5944,161.0023,394.031,155.5657,392.4679,163.4233,398.4058" style="stroke:#181818;stroke-width:1.0;"/><text fill="#000000" font-family="sans-serif" font-size="13" lengthAdjust="spacing" textLength="30" x="153.8333" y="376.5328">Bajar</text></g><!--link Subiendo to Detenido--><g id="link_Subiendo_Detenido"><path d="M69.9933,398.3158 C73.4633,386.7758 78.4033,373.0558 84.8333,361.6358 C88.2833,355.5158 88.9028,354.1012 93.3828,348.5312 " fill="none" id="Subiendo-to-Detenido" style="stroke:#181818;stroke-width:1.0;"/><polygon fill="#181818" points="97.1433,343.8558,88.3857,348.3619,94.0096,347.752,94.6195,353.3758,97.1433,343.8558" style="stroke:#181818;stroke-width:1.0;"/><text fill="#000000" font-family="sans-serif" font-size="13" lengthAdjust="spacing" textLength="48" x="85.8333" y="376.5328">Detener</text></g><!--link Bajando to Detenido--><g id="link_Bajando_Detenido"><path d="M188.9733,398.2458 C193.0133,386.5658 195.0733,372.7358 188.8333,361.6358 C182.5133,350.3858 177.0252,344.7858 165.9252,338.4058 " fill="none" id="Bajando-to-Detenido" style="stroke:#181818;stroke-width:1.0;"/><polygon fill="#181818" points="160.7233,335.4158,166.5329,343.3687,165.0582,337.9075,170.5195,336.4328,160.7233,335.4158" style="stroke:#181818;stroke-width:1.0;"/><text fill="#000000" font-family="sans-serif" font-size="13" lengthAdjust="spacing" textLength="48" x="192.8333" y="376.5328">Detener</text></g><path d="M297.92,145.0679 L545.92,145.0679 A12.5,12.5 0 0 1 558.42,157.5679 L558.42,174.1358 L285.42,174.1358 L285.42,157.5679 A12.5,12.5 0 0 1 297.92,145.0679 " fill="#F1F1F1" style="stroke:#F1F1F1;stroke-width:1.0;"/><rect fill="none" height="366.0679" rx="12.5" ry="12.5" style="stroke:#181818;stroke-width:0.5;" width="273" x="285.42" y="145.0679"/><line style="stroke:#181818;stroke-width:0.5;" x1="285.42" x2="558.42" y1="174.1358" y2="174.1358"/><text fill="#000000" font-family="sans-serif" font-size="14" lengthAdjust="spacing" textLength="71" x="386.42" y="165.0339">Capacidad</text><ellipse cx="453.42" cy="195.1358" fill="#222222" rx="10" ry="10" style="stroke:#222222;stroke-width:1.0;"/><g id="Capacidad.Libre"><rect fill="#F1F1F1" height="50" rx="12.5" ry="12.5" style="stroke:#181818;stroke-width:0.5;" width="54" x="426.42" y="241.1358"/><line style="stroke:#181818;stroke-width:0.5;" x1="426.42" x2="480.42" y1="270.2038" y2="270.2038"/><text fill="#000000" font-family="sans-serif" font-size="14" lengthAdjust="spacing" textLength="34" x="436.42" y="261.1018">Libre</text></g><g id="Capacidad.ParcialmenteLleno"><rect fill="#F1F1F1" height="50" rx="12.5" ry="12.5" style="stroke:#181818;stroke-width:0.5;" width="144" x="297.42" y="346.1358"/><line style="stroke:#181818;stroke-width:0.5;" x1="297.42" x2="441.42" y1="375.2038" y2="375.2038"/><text fill="#000000" font-family="sans-serif" font-size="14" lengthAdjust="spacing" textLength="124" x="307.42" y="366.1018">ParcialmenteLleno</text></g><g id="Capacidad.Lleno"><rect fill="#F1F1F1" height="50" rx="12.5" ry="12.5" style="stroke:#181818;stroke-width:0.5;" width="56" x="425.42" y="451.1358"/><line style="stroke:#181818;stroke-width:0.5;" x1="425.42" x2="481.42" y1="480.2038" y2="480.2038"/><text fill="#000000" font-family="sans-serif" font-size="14" lengthAdjust="spacing" textLength="36" x="435.42" y="471.1018">Lleno</text></g><!--link *start*Capacidad to Libre--><g id="link_*start*Capacidad_Libre"><path d="M453.42,205.4458 C453.42,214.4858 453.42,222.6258 453.42,234.8658 " fill="none" id="*start*Capacidad-to-Libre" style="stroke:#181818;stroke-width:1.0;"/><polygon fill="#181818" points="453.42,240.8658,457.42,231.8658,453.42,235.8658,449.42,231.8658,453.42,240.8658" style="stroke:#181818;stroke-width:1.0;"/></g><!--link Libre to ParcialmenteLleno--><g id="link_Libre_ParcialmenteLleno"><path d="M426.25,272.2458 C405.9,277.6558 379.44,288.3958 366.42,309.1358 C359.66,319.9158 358.8202,328.082 360.9802,340.002 " fill="none" id="Libre-to-ParcialmenteLleno" style="stroke:#181818;stroke-width:1.0;"/><polygon fill="#181818" points="362.05,345.9058,364.3812,336.3368,361.1585,340.986,356.5094,337.7633,362.05,345.9058" style="stroke:#181818;stroke-width:1.0;"/><text fill="#000000" font-family="sans-serif" font-size="13" lengthAdjust="spacing" textLength="37" x="367.42" y="324.0328">Llenar</text></g><!--link Libre to Lleno--><g id="link_Libre_Lleno"><path d="M458.86,291.4558 C459.92,297.2258 460.88,303.3758 461.42,309.1358 C466.6,364.0058 466.6,378.2658 461.42,433.1358 C460.88,438.8958 461.0041,439.1446 459.9441,444.9146 " fill="none" id="Libre-to-Lleno" style="stroke:#181818;stroke-width:1.0;"/><polygon fill="#181818" points="458.86,450.8158,464.4203,442.6867,459.7634,445.8981,456.552,441.2412,458.86,450.8158" style="stroke:#181818;stroke-width:1.0;"/><text fill="#000000" font-family="sans-serif" font-size="13" lengthAdjust="spacing" textLength="37" x="465.42" y="376.5328">Llenar</text></g><!--link ParcialmenteLleno to Lleno--><g id="link_ParcialmenteLleno_Lleno"><path d="M362.05,396.3658 C359.89,408.2858 359.66,422.3558 366.42,433.1358 C379.17,453.4458 399.0323,462.594 419.1923,468.104 " fill="none" id="ParcialmenteLleno-to-Lleno" style="stroke:#181818;stroke-width:1.0;"/><polygon fill="#181818" points="424.98,469.6858,417.353,463.4546,420.1569,468.3676,415.2438,471.1715,424.98,469.6858" style="stroke:#181818;stroke-width:1.0;"/><text fill="#000000" font-family="sans-serif" font-size="13" lengthAdjust="spacing" textLength="37" x="367.42" y="429.0328">Llenar</text></g><!--link Lleno to Libre--><g id="link_Lleno_Libre"><path d="M475.71,450.8758 C487.64,436.2058 501.14,416.4558 507.42,396.1358 C513.98,374.9058 513.98,367.3658 507.42,346.1358 C501.14,325.8158 491.4256,310.7209 479.4956,296.0509 " fill="none" id="Lleno-to-Libre" style="stroke:#181818;stroke-width:1.0;"/><polygon fill="#181818" points="475.71,291.3958,478.285,300.9021,478.8647,295.275,484.4917,295.8547,475.71,291.3958" style="stroke:#181818;stroke-width:1.0;"/><text fill="#000000" font-family="sans-serif" font-size="13" lengthAdjust="spacing" textLength="36" x="512.42" y="376.5328">Vaciar</text></g><!--link Lleno to ParcialmenteLleno--><g id="link_Lleno_ParcialmenteLleno"><path d="M434.73,450.9058 C425.94,439.6358 415.26,426.1158 405.42,414.1358 C400.67,408.3458 399.3721,406.7436 394.4321,400.9736 " fill="none" id="Lleno-to-ParcialmenteLleno" style="stroke:#181818;stroke-width:1.0;"/><polygon fill="#181818" points="390.53,396.4158,393.3447,405.8539,393.7818,400.214,399.4217,400.6511,390.53,396.4158" style="stroke:#181818;stroke-width:1.0;"/><text fill="#000000" font-family="sans-serif" font-size="13" lengthAdjust="spacing" textLength="36" x="420.42" y="429.0328">Vaciar</text></g><!--link ParcialmenteLleno to Libre--><g id="link_ParcialmenteLleno_Libre"><path d="M390.53,345.8558 C395.47,340.0858 400.67,333.9258 405.42,328.1358 C415.26,316.1558 422.25,307.367 431.04,296.097 " fill="none" id="ParcialmenteLleno-to-Libre" style="stroke:#181818;stroke-width:1.0;"/><polygon fill="#181818" points="434.73,291.3658,426.0409,296.0025,431.655,295.3084,432.349,300.9226,434.73,291.3658" style="stroke:#181818;stroke-width:1.0;"/><text fill="#000000" font-family="sans-serif" font-size="13" lengthAdjust="spacing" textLength="36" x="420.42" y="324.0328">Vaciar</text></g><ellipse cx="274.92" cy="601.1379" fill="none" rx="11" ry="11" style="stroke:#222222;stroke-width:1.0;"/><ellipse cx="274.92" cy="601.1379" fill="#222222" rx="6" ry="6" style="stroke:#222222;stroke-width:1.0;"/><!--link *start* to Movimiento--><g id="link_*start*_Movimiento"><path d="M270.39,65.4479 C259.17,86.1879 231.7237,136.96 202.0237,191.89 " fill="none" id="*start*-to-Movimiento" style="stroke:#181818;stroke-width:1.0;"/><polygon fill="#181818" points="199.17,197.1679,206.9692,191.1535,201.5481,192.7697,199.9319,187.3486,199.17,197.1679" style="stroke:#181818;stroke-width:1.0;"/><text fill="#000000" font-family="sans-serif" font-size="13" lengthAdjust="spacing" textLength="39" x="254.92" y="110.9649">mover</text></g><!--link *start* to Capacidad--><g id="link_*start*_Capacidad"><path d="M280.84,64.6079 C286.76,72.3079 295.96,84.6979 302.92,96.0679 C312.45,111.6579 319.0345,122.8539 328.2745,139.4739 " fill="none" id="*start*-to-Capacidad" style="stroke:#181818;stroke-width:1.0;"/><polygon fill="#181818" points="331.19,144.7179,330.3128,134.9082,328.7604,140.3479,323.3208,138.7955,331.19,144.7179" style="stroke:#181818;stroke-width:1.0;"/><text fill="#000000" font-family="sans-serif" font-size="13" lengthAdjust="spacing" textLength="33" x="313.92" y="110.9649">llenar</text></g><!--link Movimiento to *end*--><g id="link_Movimiento_*end*"><path d="M198.92,459.0679 C228.34,513.6779 255.5655,564.215 267.1255,585.685 " fill="none" id="Movimiento-to-*end*" style="stroke:#181818;stroke-width:1.0;"/><polygon fill="#181818" points="269.97,590.9679,269.2253,581.1473,267.5996,586.5655,262.1814,584.9399,269.97,590.9679" style="stroke:#181818;stroke-width:1.0;"/><text fill="#000000" font-family="sans-serif" font-size="13" lengthAdjust="spacing" textLength="48" x="251.92" y="556.0349">Detener</text></g><!--link Capacidad to *end*--><g id="link_Capacidad_*end*"><path d="M338.07,511.5479 C328.78,528.2879 319.01,544.7279 308.92,560.1379 C300.93,572.3379 293.7771,580.5723 286.4371,588.2823 " fill="none" id="Capacidad-to-*end*" style="stroke:#181818;stroke-width:1.0;"/><polygon fill="#181818" points="282.3,592.6279,291.4027,588.8675,285.7476,589.0066,285.6085,583.3514,282.3,592.6279" style="stroke:#181818;stroke-width:1.0;"/><text fill="#000000" font-family="sans-serif" font-size="13" lengthAdjust="spacing" textLength="36" x="320.92" y="556.0349">Vaciar</text></g><!--SRC=[VP5DRi8m48NtFiL8tLNY0Ymg5UWkhP2GkgcwcCGZSEEVo3PKLSNTEtPAOWZWbJFlUsyyawYY9bWft7eq29BW9KIKBl1LmtDeo0RdXGYjiXqo0xy2-BovI0jisgrtUokNJZiF3zyx5MbZN4lYACHESHgPBlw08LEJ3q9axyVZ9yncJ_3g3ieeij7178mxa3-JbzXXeoHALhKcYxrSk1ALw3ciA9Bzzu- -KN_d2lkpplD5AcFwYShMEKv9DmYdGbOt-vgDChqwNVrrQe5Vs4FfDaA3ksnqCK8w9_yTx5WED8uzdQTIjQUXchzoVOsUzw8Dhu4gNd5gK8shFeTl0DECEt01vDpXpqo1Qs-xW6-qdYOVnHy0]--></g></svg>